G04 #@! TF.GenerationSoftware,KiCad,Pcbnew,(5.1.9)-1*
G04 #@! TF.CreationDate,2021-06-24T13:46:28+10:00*
G04 #@! TF.ProjectId,microBoSL,6d696372-6f42-46f5-934c-2e6b69636164,0.2.0*
G04 #@! TF.SameCoordinates,Original*
G04 #@! TF.FileFunction,Soldermask,Top*
G04 #@! TF.FilePolarity,Negative*
%FSLAX46Y46*%
G04 Gerber Fmt 4.6, Leading zero omitted, Abs format (unit mm)*
G04 Created by KiCad (PCBNEW (5.1.9)-1) date 2021-06-24 13:46:28*
%MOMM*%
%LPD*%
G01*
G04 APERTURE LIST*
%ADD10O,1.500000X2.600000*%
%ADD11O,1.500000X2.200000*%
%ADD12O,1.400000X1.400000*%
%ADD13O,1.750000X1.750000*%
%ADD14O,2.100000X2.100000*%
%ADD15C,0.100000*%
%ADD16C,1.250000*%
G04 APERTURE END LIST*
D10*
X101125000Y-112450000D03*
D11*
X103275000Y-115250000D03*
X103275000Y-109650000D03*
G36*
G01*
X102275000Y-110725000D02*
X103775000Y-110725000D01*
G75*
G02*
X103975000Y-110925000I0J-200000D01*
G01*
X103975000Y-111375000D01*
G75*
G02*
X103775000Y-111575000I-200000J0D01*
G01*
X102275000Y-111575000D01*
G75*
G02*
X102075000Y-111375000I0J200000D01*
G01*
X102075000Y-110925000D01*
G75*
G02*
X102275000Y-110725000I200000J0D01*
G01*
G37*
G36*
G01*
X102275000Y-113325000D02*
X103775000Y-113325000D01*
G75*
G02*
X103975000Y-113525000I0J-200000D01*
G01*
X103975000Y-113975000D01*
G75*
G02*
X103775000Y-114175000I-200000J0D01*
G01*
X102275000Y-114175000D01*
G75*
G02*
X102075000Y-113975000I0J200000D01*
G01*
X102075000Y-113525000D01*
G75*
G02*
X102275000Y-113325000I200000J0D01*
G01*
G37*
G36*
G01*
X102275000Y-111375000D02*
X103775000Y-111375000D01*
G75*
G02*
X103975000Y-111575000I0J-200000D01*
G01*
X103975000Y-112025000D01*
G75*
G02*
X103775000Y-112225000I-200000J0D01*
G01*
X102275000Y-112225000D01*
G75*
G02*
X102075000Y-112025000I0J200000D01*
G01*
X102075000Y-111575000D01*
G75*
G02*
X102275000Y-111375000I200000J0D01*
G01*
G37*
G36*
G01*
X102275000Y-112675000D02*
X103775000Y-112675000D01*
G75*
G02*
X103975000Y-112875000I0J-200000D01*
G01*
X103975000Y-113325000D01*
G75*
G02*
X103775000Y-113525000I-200000J0D01*
G01*
X102275000Y-113525000D01*
G75*
G02*
X102075000Y-113325000I0J200000D01*
G01*
X102075000Y-112875000D01*
G75*
G02*
X102275000Y-112675000I200000J0D01*
G01*
G37*
G36*
G01*
X102275000Y-112025000D02*
X103775000Y-112025000D01*
G75*
G02*
X103975000Y-112225000I0J-200000D01*
G01*
X103975000Y-112675000D01*
G75*
G02*
X103775000Y-112875000I-200000J0D01*
G01*
X102275000Y-112875000D01*
G75*
G02*
X102075000Y-112675000I0J200000D01*
G01*
X102075000Y-112225000D01*
G75*
G02*
X102275000Y-112025000I200000J0D01*
G01*
G37*
D12*
X121500000Y-113500000D03*
X120230000Y-113500000D03*
X118960000Y-113500000D03*
G36*
G01*
X118190000Y-114200000D02*
X117190000Y-114200000D01*
G75*
G02*
X116990000Y-114000000I0J200000D01*
G01*
X116990000Y-113000000D01*
G75*
G02*
X117190000Y-112800000I200000J0D01*
G01*
X118190000Y-112800000D01*
G75*
G02*
X118390000Y-113000000I0J-200000D01*
G01*
X118390000Y-114000000D01*
G75*
G02*
X118190000Y-114200000I-200000J0D01*
G01*
G37*
D13*
X143500000Y-107500000D03*
X143500000Y-105500000D03*
G36*
G01*
X142625000Y-104175000D02*
X142625000Y-102825000D01*
G75*
G02*
X142825000Y-102625000I200000J0D01*
G01*
X144175000Y-102625000D01*
G75*
G02*
X144375000Y-102825000I0J-200000D01*
G01*
X144375000Y-104175000D01*
G75*
G02*
X144175000Y-104375000I-200000J0D01*
G01*
X142825000Y-104375000D01*
G75*
G02*
X142625000Y-104175000I0J200000D01*
G01*
G37*
X141000000Y-107500000D03*
X141000000Y-105500000D03*
G36*
G01*
X140125000Y-104175000D02*
X140125000Y-102825000D01*
G75*
G02*
X140325000Y-102625000I200000J0D01*
G01*
X141675000Y-102625000D01*
G75*
G02*
X141875000Y-102825000I0J-200000D01*
G01*
X141875000Y-104175000D01*
G75*
G02*
X141675000Y-104375000I-200000J0D01*
G01*
X140325000Y-104375000D01*
G75*
G02*
X140125000Y-104175000I0J200000D01*
G01*
G37*
X120700000Y-103500000D03*
X122700000Y-103500000D03*
G36*
G01*
X124025000Y-102625000D02*
X125375000Y-102625000D01*
G75*
G02*
X125575000Y-102825000I0J-200000D01*
G01*
X125575000Y-104175000D01*
G75*
G02*
X125375000Y-104375000I-200000J0D01*
G01*
X124025000Y-104375000D01*
G75*
G02*
X123825000Y-104175000I0J200000D01*
G01*
X123825000Y-102825000D01*
G75*
G02*
X124025000Y-102625000I200000J0D01*
G01*
G37*
X121500000Y-115500000D03*
X119500000Y-115500000D03*
G36*
G01*
X118175000Y-116375000D02*
X116825000Y-116375000D01*
G75*
G02*
X116625000Y-116175000I0J200000D01*
G01*
X116625000Y-114825000D01*
G75*
G02*
X116825000Y-114625000I200000J0D01*
G01*
X118175000Y-114625000D01*
G75*
G02*
X118375000Y-114825000I0J-200000D01*
G01*
X118375000Y-116175000D01*
G75*
G02*
X118175000Y-116375000I-200000J0D01*
G01*
G37*
G36*
G01*
X138405000Y-113300000D02*
X138905000Y-113300000D01*
G75*
G02*
X139155000Y-113550000I0J-250000D01*
G01*
X139155000Y-115400000D01*
G75*
G02*
X138905000Y-115650000I-250000J0D01*
G01*
X138405000Y-115650000D01*
G75*
G02*
X138155000Y-115400000I0J250000D01*
G01*
X138155000Y-113550000D01*
G75*
G02*
X138405000Y-113300000I250000J0D01*
G01*
G37*
G36*
G01*
X137135000Y-113300000D02*
X137635000Y-113300000D01*
G75*
G02*
X137885000Y-113550000I0J-250000D01*
G01*
X137885000Y-115400000D01*
G75*
G02*
X137635000Y-115650000I-250000J0D01*
G01*
X137135000Y-115650000D01*
G75*
G02*
X136885000Y-115400000I0J250000D01*
G01*
X136885000Y-113550000D01*
G75*
G02*
X137135000Y-113300000I250000J0D01*
G01*
G37*
G36*
G01*
X135865000Y-113300000D02*
X136365000Y-113300000D01*
G75*
G02*
X136615000Y-113550000I0J-250000D01*
G01*
X136615000Y-115400000D01*
G75*
G02*
X136365000Y-115650000I-250000J0D01*
G01*
X135865000Y-115650000D01*
G75*
G02*
X135615000Y-115400000I0J250000D01*
G01*
X135615000Y-113550000D01*
G75*
G02*
X135865000Y-113300000I250000J0D01*
G01*
G37*
G36*
G01*
X134595000Y-113300000D02*
X135095000Y-113300000D01*
G75*
G02*
X135345000Y-113550000I0J-250000D01*
G01*
X135345000Y-115400000D01*
G75*
G02*
X135095000Y-115650000I-250000J0D01*
G01*
X134595000Y-115650000D01*
G75*
G02*
X134345000Y-115400000I0J250000D01*
G01*
X134345000Y-113550000D01*
G75*
G02*
X134595000Y-113300000I250000J0D01*
G01*
G37*
G36*
G01*
X134595000Y-108350000D02*
X135095000Y-108350000D01*
G75*
G02*
X135345000Y-108600000I0J-250000D01*
G01*
X135345000Y-110450000D01*
G75*
G02*
X135095000Y-110700000I-250000J0D01*
G01*
X134595000Y-110700000D01*
G75*
G02*
X134345000Y-110450000I0J250000D01*
G01*
X134345000Y-108600000D01*
G75*
G02*
X134595000Y-108350000I250000J0D01*
G01*
G37*
G36*
G01*
X135865000Y-108350000D02*
X136365000Y-108350000D01*
G75*
G02*
X136615000Y-108600000I0J-250000D01*
G01*
X136615000Y-110450000D01*
G75*
G02*
X136365000Y-110700000I-250000J0D01*
G01*
X135865000Y-110700000D01*
G75*
G02*
X135615000Y-110450000I0J250000D01*
G01*
X135615000Y-108600000D01*
G75*
G02*
X135865000Y-108350000I250000J0D01*
G01*
G37*
G36*
G01*
X137135000Y-108350000D02*
X137635000Y-108350000D01*
G75*
G02*
X137885000Y-108600000I0J-250000D01*
G01*
X137885000Y-110450000D01*
G75*
G02*
X137635000Y-110700000I-250000J0D01*
G01*
X137135000Y-110700000D01*
G75*
G02*
X136885000Y-110450000I0J250000D01*
G01*
X136885000Y-108600000D01*
G75*
G02*
X137135000Y-108350000I250000J0D01*
G01*
G37*
G36*
G01*
X138405000Y-108350000D02*
X138905000Y-108350000D01*
G75*
G02*
X139155000Y-108600000I0J-250000D01*
G01*
X139155000Y-110450000D01*
G75*
G02*
X138905000Y-110700000I-250000J0D01*
G01*
X138405000Y-110700000D01*
G75*
G02*
X138155000Y-110450000I0J250000D01*
G01*
X138155000Y-108600000D01*
G75*
G02*
X138405000Y-108350000I250000J0D01*
G01*
G37*
D14*
X143440000Y-115200000D03*
G36*
G01*
X141750000Y-116250000D02*
X140050000Y-116250000D01*
G75*
G02*
X139850000Y-116050000I0J200000D01*
G01*
X139850000Y-114350000D01*
G75*
G02*
X140050000Y-114150000I200000J0D01*
G01*
X141750000Y-114150000D01*
G75*
G02*
X141950000Y-114350000I0J-200000D01*
G01*
X141950000Y-116050000D01*
G75*
G02*
X141750000Y-116250000I-200000J0D01*
G01*
G37*
X143440000Y-111700000D03*
G36*
G01*
X141750000Y-112750000D02*
X140050000Y-112750000D01*
G75*
G02*
X139850000Y-112550000I0J200000D01*
G01*
X139850000Y-110850000D01*
G75*
G02*
X140050000Y-110650000I200000J0D01*
G01*
X141750000Y-110650000D01*
G75*
G02*
X141950000Y-110850000I0J-200000D01*
G01*
X141950000Y-112550000D01*
G75*
G02*
X141750000Y-112750000I-200000J0D01*
G01*
G37*
G36*
G01*
X138750000Y-107770000D02*
X138750000Y-107230000D01*
G75*
G02*
X138990000Y-106990000I240000J0D01*
G01*
X139470000Y-106990000D01*
G75*
G02*
X139710000Y-107230000I0J-240000D01*
G01*
X139710000Y-107770000D01*
G75*
G02*
X139470000Y-108010000I-240000J0D01*
G01*
X138990000Y-108010000D01*
G75*
G02*
X138750000Y-107770000I0J240000D01*
G01*
G37*
G36*
G01*
X137790000Y-107770000D02*
X137790000Y-107230000D01*
G75*
G02*
X138030000Y-106990000I240000J0D01*
G01*
X138510000Y-106990000D01*
G75*
G02*
X138750000Y-107230000I0J-240000D01*
G01*
X138750000Y-107770000D01*
G75*
G02*
X138510000Y-108010000I-240000J0D01*
G01*
X138030000Y-108010000D01*
G75*
G02*
X137790000Y-107770000I0J240000D01*
G01*
G37*
G36*
G01*
X136650000Y-107230000D02*
X136650000Y-107770000D01*
G75*
G02*
X136410000Y-108010000I-240000J0D01*
G01*
X135930000Y-108010000D01*
G75*
G02*
X135690000Y-107770000I0J240000D01*
G01*
X135690000Y-107230000D01*
G75*
G02*
X135930000Y-106990000I240000J0D01*
G01*
X136410000Y-106990000D01*
G75*
G02*
X136650000Y-107230000I0J-240000D01*
G01*
G37*
G36*
G01*
X137610000Y-107230000D02*
X137610000Y-107770000D01*
G75*
G02*
X137370000Y-108010000I-240000J0D01*
G01*
X136890000Y-108010000D01*
G75*
G02*
X136650000Y-107770000I0J240000D01*
G01*
X136650000Y-107230000D01*
G75*
G02*
X136890000Y-106990000I240000J0D01*
G01*
X137370000Y-106990000D01*
G75*
G02*
X137610000Y-107230000I0J-240000D01*
G01*
G37*
D12*
X135860000Y-105200000D03*
X137130000Y-105200000D03*
G36*
G01*
X137900000Y-104500000D02*
X138900000Y-104500000D01*
G75*
G02*
X139100000Y-104700000I0J-200000D01*
G01*
X139100000Y-105700000D01*
G75*
G02*
X138900000Y-105900000I-200000J0D01*
G01*
X137900000Y-105900000D01*
G75*
G02*
X137700000Y-105700000I0J200000D01*
G01*
X137700000Y-104700000D01*
G75*
G02*
X137900000Y-104500000I200000J0D01*
G01*
G37*
X135240000Y-103550000D03*
X136510000Y-103550000D03*
X137780000Y-103550000D03*
G36*
G01*
X138550000Y-102850000D02*
X139550000Y-102850000D01*
G75*
G02*
X139750000Y-103050000I0J-200000D01*
G01*
X139750000Y-104050000D01*
G75*
G02*
X139550000Y-104250000I-200000J0D01*
G01*
X138550000Y-104250000D01*
G75*
G02*
X138350000Y-104050000I0J200000D01*
G01*
X138350000Y-103050000D01*
G75*
G02*
X138550000Y-102850000I200000J0D01*
G01*
G37*
G36*
G01*
X117650000Y-107900000D02*
X118750000Y-107900000D01*
G75*
G02*
X118950000Y-108100000I0J-200000D01*
G01*
X118950000Y-108700000D01*
G75*
G02*
X118750000Y-108900000I-200000J0D01*
G01*
X117650000Y-108900000D01*
G75*
G02*
X117450000Y-108700000I0J200000D01*
G01*
X117450000Y-108100000D01*
G75*
G02*
X117650000Y-107900000I200000J0D01*
G01*
G37*
G36*
G01*
X117650000Y-106500000D02*
X118750000Y-106500000D01*
G75*
G02*
X118950000Y-106700000I0J-200000D01*
G01*
X118950000Y-107300000D01*
G75*
G02*
X118750000Y-107500000I-200000J0D01*
G01*
X117650000Y-107500000D01*
G75*
G02*
X117450000Y-107300000I0J200000D01*
G01*
X117450000Y-106700000D01*
G75*
G02*
X117650000Y-106500000I200000J0D01*
G01*
G37*
G36*
G01*
X128050000Y-110650000D02*
X128050000Y-108250000D01*
G75*
G02*
X128250000Y-108050000I200000J0D01*
G01*
X130650000Y-108050000D01*
G75*
G02*
X130850000Y-108250000I0J-200000D01*
G01*
X130850000Y-110650000D01*
G75*
G02*
X130650000Y-110850000I-200000J0D01*
G01*
X128250000Y-110850000D01*
G75*
G02*
X128050000Y-110650000I0J200000D01*
G01*
G37*
D15*
G36*
X128182105Y-106900963D02*
G01*
X128194298Y-106902164D01*
X128232754Y-106909814D01*
X128244479Y-106913371D01*
X128280692Y-106928371D01*
X128291497Y-106934146D01*
X128324105Y-106955934D01*
X128333576Y-106963707D01*
X128361293Y-106991424D01*
X128369066Y-107000895D01*
X128390854Y-107033503D01*
X128396629Y-107044308D01*
X128411629Y-107080521D01*
X128415186Y-107092246D01*
X128422836Y-107130702D01*
X128424037Y-107142895D01*
X128425000Y-107162500D01*
X128425000Y-107837500D01*
X128424037Y-107857105D01*
X128422836Y-107869298D01*
X128415186Y-107907754D01*
X128411629Y-107919479D01*
X128396629Y-107955692D01*
X128390854Y-107966497D01*
X128369066Y-107999105D01*
X128361293Y-108008576D01*
X128333576Y-108036293D01*
X128324105Y-108044066D01*
X128291497Y-108065854D01*
X128280692Y-108071629D01*
X128244479Y-108086629D01*
X128232754Y-108090186D01*
X128194298Y-108097836D01*
X128182105Y-108099037D01*
X128162500Y-108100000D01*
X128100888Y-108100000D01*
X128081283Y-108099037D01*
X128069090Y-108097836D01*
X128030634Y-108090186D01*
X128018909Y-108086629D01*
X127982696Y-108071629D01*
X127971891Y-108065854D01*
X127939283Y-108044066D01*
X127929812Y-108036293D01*
X127915273Y-108023115D01*
X127851885Y-107959727D01*
X127838707Y-107945188D01*
X127830934Y-107935717D01*
X127809146Y-107903109D01*
X127803371Y-107892304D01*
X127788371Y-107856091D01*
X127784814Y-107844366D01*
X127777164Y-107805910D01*
X127775963Y-107793717D01*
X127775000Y-107774112D01*
X127775000Y-107162500D01*
X127775963Y-107142895D01*
X127777164Y-107130702D01*
X127784814Y-107092246D01*
X127788371Y-107080521D01*
X127803371Y-107044308D01*
X127809146Y-107033503D01*
X127830934Y-107000895D01*
X127838707Y-106991424D01*
X127866424Y-106963707D01*
X127875895Y-106955934D01*
X127908503Y-106934146D01*
X127919308Y-106928371D01*
X127955521Y-106913371D01*
X127967246Y-106909814D01*
X128005702Y-106902164D01*
X128017895Y-106900963D01*
X128037500Y-106900000D01*
X128162500Y-106900000D01*
X128182105Y-106900963D01*
G37*
G36*
G01*
X128225000Y-107937500D02*
X128225000Y-107062500D01*
G75*
G02*
X128387500Y-106900000I162500J0D01*
G01*
X128712500Y-106900000D01*
G75*
G02*
X128875000Y-107062500I0J-162500D01*
G01*
X128875000Y-107937500D01*
G75*
G02*
X128712500Y-108100000I-162500J0D01*
G01*
X128387500Y-108100000D01*
G75*
G02*
X128225000Y-107937500I0J162500D01*
G01*
G37*
G36*
G01*
X128675000Y-107937500D02*
X128675000Y-107062500D01*
G75*
G02*
X128837500Y-106900000I162500J0D01*
G01*
X129162500Y-106900000D01*
G75*
G02*
X129325000Y-107062500I0J-162500D01*
G01*
X129325000Y-107937500D01*
G75*
G02*
X129162500Y-108100000I-162500J0D01*
G01*
X128837500Y-108100000D01*
G75*
G02*
X128675000Y-107937500I0J162500D01*
G01*
G37*
G36*
G01*
X129125000Y-107937500D02*
X129125000Y-107062500D01*
G75*
G02*
X129287500Y-106900000I162500J0D01*
G01*
X129612500Y-106900000D01*
G75*
G02*
X129775000Y-107062500I0J-162500D01*
G01*
X129775000Y-107937500D01*
G75*
G02*
X129612500Y-108100000I-162500J0D01*
G01*
X129287500Y-108100000D01*
G75*
G02*
X129125000Y-107937500I0J162500D01*
G01*
G37*
G36*
G01*
X129575000Y-107937500D02*
X129575000Y-107062500D01*
G75*
G02*
X129737500Y-106900000I162500J0D01*
G01*
X130062500Y-106900000D01*
G75*
G02*
X130225000Y-107062500I0J-162500D01*
G01*
X130225000Y-107937500D01*
G75*
G02*
X130062500Y-108100000I-162500J0D01*
G01*
X129737500Y-108100000D01*
G75*
G02*
X129575000Y-107937500I0J162500D01*
G01*
G37*
G36*
G01*
X130025000Y-107937500D02*
X130025000Y-107062500D01*
G75*
G02*
X130187500Y-106900000I162500J0D01*
G01*
X130512500Y-106900000D01*
G75*
G02*
X130675000Y-107062500I0J-162500D01*
G01*
X130675000Y-107937500D01*
G75*
G02*
X130512500Y-108100000I-162500J0D01*
G01*
X130187500Y-108100000D01*
G75*
G02*
X130025000Y-107937500I0J162500D01*
G01*
G37*
G36*
X130882105Y-106900963D02*
G01*
X130894298Y-106902164D01*
X130932754Y-106909814D01*
X130944479Y-106913371D01*
X130980692Y-106928371D01*
X130991497Y-106934146D01*
X131024105Y-106955934D01*
X131033576Y-106963707D01*
X131061293Y-106991424D01*
X131069066Y-107000895D01*
X131090854Y-107033503D01*
X131096629Y-107044308D01*
X131111629Y-107080521D01*
X131115186Y-107092246D01*
X131122836Y-107130702D01*
X131124037Y-107142895D01*
X131125000Y-107162500D01*
X131125000Y-107774112D01*
X131124037Y-107793717D01*
X131122836Y-107805910D01*
X131115186Y-107844366D01*
X131111629Y-107856091D01*
X131096629Y-107892304D01*
X131090854Y-107903109D01*
X131069066Y-107935717D01*
X131061293Y-107945188D01*
X131048115Y-107959727D01*
X130984727Y-108023115D01*
X130970188Y-108036293D01*
X130960717Y-108044066D01*
X130928109Y-108065854D01*
X130917304Y-108071629D01*
X130881091Y-108086629D01*
X130869366Y-108090186D01*
X130830910Y-108097836D01*
X130818717Y-108099037D01*
X130799112Y-108100000D01*
X130737500Y-108100000D01*
X130717895Y-108099037D01*
X130705702Y-108097836D01*
X130667246Y-108090186D01*
X130655521Y-108086629D01*
X130619308Y-108071629D01*
X130608503Y-108065854D01*
X130575895Y-108044066D01*
X130566424Y-108036293D01*
X130538707Y-108008576D01*
X130530934Y-107999105D01*
X130509146Y-107966497D01*
X130503371Y-107955692D01*
X130488371Y-107919479D01*
X130484814Y-107907754D01*
X130477164Y-107869298D01*
X130475963Y-107857105D01*
X130475000Y-107837500D01*
X130475000Y-107162500D01*
X130475963Y-107142895D01*
X130477164Y-107130702D01*
X130484814Y-107092246D01*
X130488371Y-107080521D01*
X130503371Y-107044308D01*
X130509146Y-107033503D01*
X130530934Y-107000895D01*
X130538707Y-106991424D01*
X130566424Y-106963707D01*
X130575895Y-106955934D01*
X130608503Y-106934146D01*
X130619308Y-106928371D01*
X130655521Y-106913371D01*
X130667246Y-106909814D01*
X130705702Y-106902164D01*
X130717895Y-106900963D01*
X130737500Y-106900000D01*
X130862500Y-106900000D01*
X130882105Y-106900963D01*
G37*
G36*
X131757105Y-107775963D02*
G01*
X131769298Y-107777164D01*
X131807754Y-107784814D01*
X131819479Y-107788371D01*
X131855692Y-107803371D01*
X131866497Y-107809146D01*
X131899105Y-107830934D01*
X131908576Y-107838707D01*
X131936293Y-107866424D01*
X131944066Y-107875895D01*
X131965854Y-107908503D01*
X131971629Y-107919308D01*
X131986629Y-107955521D01*
X131990186Y-107967246D01*
X131997836Y-108005702D01*
X131999037Y-108017895D01*
X132000000Y-108037500D01*
X132000000Y-108162500D01*
X131999037Y-108182105D01*
X131997836Y-108194298D01*
X131990186Y-108232754D01*
X131986629Y-108244479D01*
X131971629Y-108280692D01*
X131965854Y-108291497D01*
X131944066Y-108324105D01*
X131936293Y-108333576D01*
X131908576Y-108361293D01*
X131899105Y-108369066D01*
X131866497Y-108390854D01*
X131855692Y-108396629D01*
X131819479Y-108411629D01*
X131807754Y-108415186D01*
X131769298Y-108422836D01*
X131757105Y-108424037D01*
X131737500Y-108425000D01*
X131062500Y-108425000D01*
X131042895Y-108424037D01*
X131030702Y-108422836D01*
X130992246Y-108415186D01*
X130980521Y-108411629D01*
X130944308Y-108396629D01*
X130933503Y-108390854D01*
X130900895Y-108369066D01*
X130891424Y-108361293D01*
X130863707Y-108333576D01*
X130855934Y-108324105D01*
X130834146Y-108291497D01*
X130828371Y-108280692D01*
X130813371Y-108244479D01*
X130809814Y-108232754D01*
X130802164Y-108194298D01*
X130800963Y-108182105D01*
X130800000Y-108162500D01*
X130800000Y-108100888D01*
X130800963Y-108081283D01*
X130802164Y-108069090D01*
X130809814Y-108030634D01*
X130813371Y-108018909D01*
X130828371Y-107982696D01*
X130834146Y-107971891D01*
X130855934Y-107939283D01*
X130863707Y-107929812D01*
X130876885Y-107915273D01*
X130940273Y-107851885D01*
X130954812Y-107838707D01*
X130964283Y-107830934D01*
X130996891Y-107809146D01*
X131007696Y-107803371D01*
X131043909Y-107788371D01*
X131055634Y-107784814D01*
X131094090Y-107777164D01*
X131106283Y-107775963D01*
X131125888Y-107775000D01*
X131737500Y-107775000D01*
X131757105Y-107775963D01*
G37*
G36*
G01*
X130800000Y-108712500D02*
X130800000Y-108387500D01*
G75*
G02*
X130962500Y-108225000I162500J0D01*
G01*
X131837500Y-108225000D01*
G75*
G02*
X132000000Y-108387500I0J-162500D01*
G01*
X132000000Y-108712500D01*
G75*
G02*
X131837500Y-108875000I-162500J0D01*
G01*
X130962500Y-108875000D01*
G75*
G02*
X130800000Y-108712500I0J162500D01*
G01*
G37*
G36*
G01*
X130800000Y-109162500D02*
X130800000Y-108837500D01*
G75*
G02*
X130962500Y-108675000I162500J0D01*
G01*
X131837500Y-108675000D01*
G75*
G02*
X132000000Y-108837500I0J-162500D01*
G01*
X132000000Y-109162500D01*
G75*
G02*
X131837500Y-109325000I-162500J0D01*
G01*
X130962500Y-109325000D01*
G75*
G02*
X130800000Y-109162500I0J162500D01*
G01*
G37*
G36*
G01*
X130800000Y-109612500D02*
X130800000Y-109287500D01*
G75*
G02*
X130962500Y-109125000I162500J0D01*
G01*
X131837500Y-109125000D01*
G75*
G02*
X132000000Y-109287500I0J-162500D01*
G01*
X132000000Y-109612500D01*
G75*
G02*
X131837500Y-109775000I-162500J0D01*
G01*
X130962500Y-109775000D01*
G75*
G02*
X130800000Y-109612500I0J162500D01*
G01*
G37*
G36*
G01*
X130800000Y-110062500D02*
X130800000Y-109737500D01*
G75*
G02*
X130962500Y-109575000I162500J0D01*
G01*
X131837500Y-109575000D01*
G75*
G02*
X132000000Y-109737500I0J-162500D01*
G01*
X132000000Y-110062500D01*
G75*
G02*
X131837500Y-110225000I-162500J0D01*
G01*
X130962500Y-110225000D01*
G75*
G02*
X130800000Y-110062500I0J162500D01*
G01*
G37*
G36*
G01*
X130800000Y-110512500D02*
X130800000Y-110187500D01*
G75*
G02*
X130962500Y-110025000I162500J0D01*
G01*
X131837500Y-110025000D01*
G75*
G02*
X132000000Y-110187500I0J-162500D01*
G01*
X132000000Y-110512500D01*
G75*
G02*
X131837500Y-110675000I-162500J0D01*
G01*
X130962500Y-110675000D01*
G75*
G02*
X130800000Y-110512500I0J162500D01*
G01*
G37*
G36*
X131757105Y-110475963D02*
G01*
X131769298Y-110477164D01*
X131807754Y-110484814D01*
X131819479Y-110488371D01*
X131855692Y-110503371D01*
X131866497Y-110509146D01*
X131899105Y-110530934D01*
X131908576Y-110538707D01*
X131936293Y-110566424D01*
X131944066Y-110575895D01*
X131965854Y-110608503D01*
X131971629Y-110619308D01*
X131986629Y-110655521D01*
X131990186Y-110667246D01*
X131997836Y-110705702D01*
X131999037Y-110717895D01*
X132000000Y-110737500D01*
X132000000Y-110862500D01*
X131999037Y-110882105D01*
X131997836Y-110894298D01*
X131990186Y-110932754D01*
X131986629Y-110944479D01*
X131971629Y-110980692D01*
X131965854Y-110991497D01*
X131944066Y-111024105D01*
X131936293Y-111033576D01*
X131908576Y-111061293D01*
X131899105Y-111069066D01*
X131866497Y-111090854D01*
X131855692Y-111096629D01*
X131819479Y-111111629D01*
X131807754Y-111115186D01*
X131769298Y-111122836D01*
X131757105Y-111124037D01*
X131737500Y-111125000D01*
X131125888Y-111125000D01*
X131106283Y-111124037D01*
X131094090Y-111122836D01*
X131055634Y-111115186D01*
X131043909Y-111111629D01*
X131007696Y-111096629D01*
X130996891Y-111090854D01*
X130964283Y-111069066D01*
X130954812Y-111061293D01*
X130940273Y-111048115D01*
X130876885Y-110984727D01*
X130863707Y-110970188D01*
X130855934Y-110960717D01*
X130834146Y-110928109D01*
X130828371Y-110917304D01*
X130813371Y-110881091D01*
X130809814Y-110869366D01*
X130802164Y-110830910D01*
X130800963Y-110818717D01*
X130800000Y-110799112D01*
X130800000Y-110737500D01*
X130800963Y-110717895D01*
X130802164Y-110705702D01*
X130809814Y-110667246D01*
X130813371Y-110655521D01*
X130828371Y-110619308D01*
X130834146Y-110608503D01*
X130855934Y-110575895D01*
X130863707Y-110566424D01*
X130891424Y-110538707D01*
X130900895Y-110530934D01*
X130933503Y-110509146D01*
X130944308Y-110503371D01*
X130980521Y-110488371D01*
X130992246Y-110484814D01*
X131030702Y-110477164D01*
X131042895Y-110475963D01*
X131062500Y-110475000D01*
X131737500Y-110475000D01*
X131757105Y-110475963D01*
G37*
G36*
X130818717Y-110800963D02*
G01*
X130830910Y-110802164D01*
X130869366Y-110809814D01*
X130881091Y-110813371D01*
X130917304Y-110828371D01*
X130928109Y-110834146D01*
X130960717Y-110855934D01*
X130970188Y-110863707D01*
X130984727Y-110876885D01*
X131048115Y-110940273D01*
X131061293Y-110954812D01*
X131069066Y-110964283D01*
X131090854Y-110996891D01*
X131096629Y-111007696D01*
X131111629Y-111043909D01*
X131115186Y-111055634D01*
X131122836Y-111094090D01*
X131124037Y-111106283D01*
X131125000Y-111125888D01*
X131125000Y-111737500D01*
X131124037Y-111757105D01*
X131122836Y-111769298D01*
X131115186Y-111807754D01*
X131111629Y-111819479D01*
X131096629Y-111855692D01*
X131090854Y-111866497D01*
X131069066Y-111899105D01*
X131061293Y-111908576D01*
X131033576Y-111936293D01*
X131024105Y-111944066D01*
X130991497Y-111965854D01*
X130980692Y-111971629D01*
X130944479Y-111986629D01*
X130932754Y-111990186D01*
X130894298Y-111997836D01*
X130882105Y-111999037D01*
X130862500Y-112000000D01*
X130737500Y-112000000D01*
X130717895Y-111999037D01*
X130705702Y-111997836D01*
X130667246Y-111990186D01*
X130655521Y-111986629D01*
X130619308Y-111971629D01*
X130608503Y-111965854D01*
X130575895Y-111944066D01*
X130566424Y-111936293D01*
X130538707Y-111908576D01*
X130530934Y-111899105D01*
X130509146Y-111866497D01*
X130503371Y-111855692D01*
X130488371Y-111819479D01*
X130484814Y-111807754D01*
X130477164Y-111769298D01*
X130475963Y-111757105D01*
X130475000Y-111737500D01*
X130475000Y-111062500D01*
X130475963Y-111042895D01*
X130477164Y-111030702D01*
X130484814Y-110992246D01*
X130488371Y-110980521D01*
X130503371Y-110944308D01*
X130509146Y-110933503D01*
X130530934Y-110900895D01*
X130538707Y-110891424D01*
X130566424Y-110863707D01*
X130575895Y-110855934D01*
X130608503Y-110834146D01*
X130619308Y-110828371D01*
X130655521Y-110813371D01*
X130667246Y-110809814D01*
X130705702Y-110802164D01*
X130717895Y-110800963D01*
X130737500Y-110800000D01*
X130799112Y-110800000D01*
X130818717Y-110800963D01*
G37*
G36*
G01*
X130025000Y-111837500D02*
X130025000Y-110962500D01*
G75*
G02*
X130187500Y-110800000I162500J0D01*
G01*
X130512500Y-110800000D01*
G75*
G02*
X130675000Y-110962500I0J-162500D01*
G01*
X130675000Y-111837500D01*
G75*
G02*
X130512500Y-112000000I-162500J0D01*
G01*
X130187500Y-112000000D01*
G75*
G02*
X130025000Y-111837500I0J162500D01*
G01*
G37*
G36*
G01*
X129575000Y-111837500D02*
X129575000Y-110962500D01*
G75*
G02*
X129737500Y-110800000I162500J0D01*
G01*
X130062500Y-110800000D01*
G75*
G02*
X130225000Y-110962500I0J-162500D01*
G01*
X130225000Y-111837500D01*
G75*
G02*
X130062500Y-112000000I-162500J0D01*
G01*
X129737500Y-112000000D01*
G75*
G02*
X129575000Y-111837500I0J162500D01*
G01*
G37*
G36*
G01*
X129125000Y-111837500D02*
X129125000Y-110962500D01*
G75*
G02*
X129287500Y-110800000I162500J0D01*
G01*
X129612500Y-110800000D01*
G75*
G02*
X129775000Y-110962500I0J-162500D01*
G01*
X129775000Y-111837500D01*
G75*
G02*
X129612500Y-112000000I-162500J0D01*
G01*
X129287500Y-112000000D01*
G75*
G02*
X129125000Y-111837500I0J162500D01*
G01*
G37*
G36*
G01*
X128675000Y-111837500D02*
X128675000Y-110962500D01*
G75*
G02*
X128837500Y-110800000I162500J0D01*
G01*
X129162500Y-110800000D01*
G75*
G02*
X129325000Y-110962500I0J-162500D01*
G01*
X129325000Y-111837500D01*
G75*
G02*
X129162500Y-112000000I-162500J0D01*
G01*
X128837500Y-112000000D01*
G75*
G02*
X128675000Y-111837500I0J162500D01*
G01*
G37*
G36*
G01*
X128225000Y-111837500D02*
X128225000Y-110962500D01*
G75*
G02*
X128387500Y-110800000I162500J0D01*
G01*
X128712500Y-110800000D01*
G75*
G02*
X128875000Y-110962500I0J-162500D01*
G01*
X128875000Y-111837500D01*
G75*
G02*
X128712500Y-112000000I-162500J0D01*
G01*
X128387500Y-112000000D01*
G75*
G02*
X128225000Y-111837500I0J162500D01*
G01*
G37*
G36*
X128182105Y-110800963D02*
G01*
X128194298Y-110802164D01*
X128232754Y-110809814D01*
X128244479Y-110813371D01*
X128280692Y-110828371D01*
X128291497Y-110834146D01*
X128324105Y-110855934D01*
X128333576Y-110863707D01*
X128361293Y-110891424D01*
X128369066Y-110900895D01*
X128390854Y-110933503D01*
X128396629Y-110944308D01*
X128411629Y-110980521D01*
X128415186Y-110992246D01*
X128422836Y-111030702D01*
X128424037Y-111042895D01*
X128425000Y-111062500D01*
X128425000Y-111737500D01*
X128424037Y-111757105D01*
X128422836Y-111769298D01*
X128415186Y-111807754D01*
X128411629Y-111819479D01*
X128396629Y-111855692D01*
X128390854Y-111866497D01*
X128369066Y-111899105D01*
X128361293Y-111908576D01*
X128333576Y-111936293D01*
X128324105Y-111944066D01*
X128291497Y-111965854D01*
X128280692Y-111971629D01*
X128244479Y-111986629D01*
X128232754Y-111990186D01*
X128194298Y-111997836D01*
X128182105Y-111999037D01*
X128162500Y-112000000D01*
X128037500Y-112000000D01*
X128017895Y-111999037D01*
X128005702Y-111997836D01*
X127967246Y-111990186D01*
X127955521Y-111986629D01*
X127919308Y-111971629D01*
X127908503Y-111965854D01*
X127875895Y-111944066D01*
X127866424Y-111936293D01*
X127838707Y-111908576D01*
X127830934Y-111899105D01*
X127809146Y-111866497D01*
X127803371Y-111855692D01*
X127788371Y-111819479D01*
X127784814Y-111807754D01*
X127777164Y-111769298D01*
X127775963Y-111757105D01*
X127775000Y-111737500D01*
X127775000Y-111125888D01*
X127775963Y-111106283D01*
X127777164Y-111094090D01*
X127784814Y-111055634D01*
X127788371Y-111043909D01*
X127803371Y-111007696D01*
X127809146Y-110996891D01*
X127830934Y-110964283D01*
X127838707Y-110954812D01*
X127851885Y-110940273D01*
X127915273Y-110876885D01*
X127929812Y-110863707D01*
X127939283Y-110855934D01*
X127971891Y-110834146D01*
X127982696Y-110828371D01*
X128018909Y-110813371D01*
X128030634Y-110809814D01*
X128069090Y-110802164D01*
X128081283Y-110800963D01*
X128100888Y-110800000D01*
X128162500Y-110800000D01*
X128182105Y-110800963D01*
G37*
G36*
X127857105Y-110475963D02*
G01*
X127869298Y-110477164D01*
X127907754Y-110484814D01*
X127919479Y-110488371D01*
X127955692Y-110503371D01*
X127966497Y-110509146D01*
X127999105Y-110530934D01*
X128008576Y-110538707D01*
X128036293Y-110566424D01*
X128044066Y-110575895D01*
X128065854Y-110608503D01*
X128071629Y-110619308D01*
X128086629Y-110655521D01*
X128090186Y-110667246D01*
X128097836Y-110705702D01*
X128099037Y-110717895D01*
X128100000Y-110737500D01*
X128100000Y-110799112D01*
X128099037Y-110818717D01*
X128097836Y-110830910D01*
X128090186Y-110869366D01*
X128086629Y-110881091D01*
X128071629Y-110917304D01*
X128065854Y-110928109D01*
X128044066Y-110960717D01*
X128036293Y-110970188D01*
X128023115Y-110984727D01*
X127959727Y-111048115D01*
X127945188Y-111061293D01*
X127935717Y-111069066D01*
X127903109Y-111090854D01*
X127892304Y-111096629D01*
X127856091Y-111111629D01*
X127844366Y-111115186D01*
X127805910Y-111122836D01*
X127793717Y-111124037D01*
X127774112Y-111125000D01*
X127162500Y-111125000D01*
X127142895Y-111124037D01*
X127130702Y-111122836D01*
X127092246Y-111115186D01*
X127080521Y-111111629D01*
X127044308Y-111096629D01*
X127033503Y-111090854D01*
X127000895Y-111069066D01*
X126991424Y-111061293D01*
X126963707Y-111033576D01*
X126955934Y-111024105D01*
X126934146Y-110991497D01*
X126928371Y-110980692D01*
X126913371Y-110944479D01*
X126909814Y-110932754D01*
X126902164Y-110894298D01*
X126900963Y-110882105D01*
X126900000Y-110862500D01*
X126900000Y-110737500D01*
X126900963Y-110717895D01*
X126902164Y-110705702D01*
X126909814Y-110667246D01*
X126913371Y-110655521D01*
X126928371Y-110619308D01*
X126934146Y-110608503D01*
X126955934Y-110575895D01*
X126963707Y-110566424D01*
X126991424Y-110538707D01*
X127000895Y-110530934D01*
X127033503Y-110509146D01*
X127044308Y-110503371D01*
X127080521Y-110488371D01*
X127092246Y-110484814D01*
X127130702Y-110477164D01*
X127142895Y-110475963D01*
X127162500Y-110475000D01*
X127837500Y-110475000D01*
X127857105Y-110475963D01*
G37*
G36*
G01*
X126900000Y-110512500D02*
X126900000Y-110187500D01*
G75*
G02*
X127062500Y-110025000I162500J0D01*
G01*
X127937500Y-110025000D01*
G75*
G02*
X128100000Y-110187500I0J-162500D01*
G01*
X128100000Y-110512500D01*
G75*
G02*
X127937500Y-110675000I-162500J0D01*
G01*
X127062500Y-110675000D01*
G75*
G02*
X126900000Y-110512500I0J162500D01*
G01*
G37*
G36*
G01*
X126900000Y-110062500D02*
X126900000Y-109737500D01*
G75*
G02*
X127062500Y-109575000I162500J0D01*
G01*
X127937500Y-109575000D01*
G75*
G02*
X128100000Y-109737500I0J-162500D01*
G01*
X128100000Y-110062500D01*
G75*
G02*
X127937500Y-110225000I-162500J0D01*
G01*
X127062500Y-110225000D01*
G75*
G02*
X126900000Y-110062500I0J162500D01*
G01*
G37*
G36*
G01*
X126900000Y-109612500D02*
X126900000Y-109287500D01*
G75*
G02*
X127062500Y-109125000I162500J0D01*
G01*
X127937500Y-109125000D01*
G75*
G02*
X128100000Y-109287500I0J-162500D01*
G01*
X128100000Y-109612500D01*
G75*
G02*
X127937500Y-109775000I-162500J0D01*
G01*
X127062500Y-109775000D01*
G75*
G02*
X126900000Y-109612500I0J162500D01*
G01*
G37*
G36*
G01*
X126900000Y-109162500D02*
X126900000Y-108837500D01*
G75*
G02*
X127062500Y-108675000I162500J0D01*
G01*
X127937500Y-108675000D01*
G75*
G02*
X128100000Y-108837500I0J-162500D01*
G01*
X128100000Y-109162500D01*
G75*
G02*
X127937500Y-109325000I-162500J0D01*
G01*
X127062500Y-109325000D01*
G75*
G02*
X126900000Y-109162500I0J162500D01*
G01*
G37*
G36*
G01*
X126900000Y-108712500D02*
X126900000Y-108387500D01*
G75*
G02*
X127062500Y-108225000I162500J0D01*
G01*
X127937500Y-108225000D01*
G75*
G02*
X128100000Y-108387500I0J-162500D01*
G01*
X128100000Y-108712500D01*
G75*
G02*
X127937500Y-108875000I-162500J0D01*
G01*
X127062500Y-108875000D01*
G75*
G02*
X126900000Y-108712500I0J162500D01*
G01*
G37*
G36*
X127793717Y-107775963D02*
G01*
X127805910Y-107777164D01*
X127844366Y-107784814D01*
X127856091Y-107788371D01*
X127892304Y-107803371D01*
X127903109Y-107809146D01*
X127935717Y-107830934D01*
X127945188Y-107838707D01*
X127959727Y-107851885D01*
X128023115Y-107915273D01*
X128036293Y-107929812D01*
X128044066Y-107939283D01*
X128065854Y-107971891D01*
X128071629Y-107982696D01*
X128086629Y-108018909D01*
X128090186Y-108030634D01*
X128097836Y-108069090D01*
X128099037Y-108081283D01*
X128100000Y-108100888D01*
X128100000Y-108162500D01*
X128099037Y-108182105D01*
X128097836Y-108194298D01*
X128090186Y-108232754D01*
X128086629Y-108244479D01*
X128071629Y-108280692D01*
X128065854Y-108291497D01*
X128044066Y-108324105D01*
X128036293Y-108333576D01*
X128008576Y-108361293D01*
X127999105Y-108369066D01*
X127966497Y-108390854D01*
X127955692Y-108396629D01*
X127919479Y-108411629D01*
X127907754Y-108415186D01*
X127869298Y-108422836D01*
X127857105Y-108424037D01*
X127837500Y-108425000D01*
X127162500Y-108425000D01*
X127142895Y-108424037D01*
X127130702Y-108422836D01*
X127092246Y-108415186D01*
X127080521Y-108411629D01*
X127044308Y-108396629D01*
X127033503Y-108390854D01*
X127000895Y-108369066D01*
X126991424Y-108361293D01*
X126963707Y-108333576D01*
X126955934Y-108324105D01*
X126934146Y-108291497D01*
X126928371Y-108280692D01*
X126913371Y-108244479D01*
X126909814Y-108232754D01*
X126902164Y-108194298D01*
X126900963Y-108182105D01*
X126900000Y-108162500D01*
X126900000Y-108037500D01*
X126900963Y-108017895D01*
X126902164Y-108005702D01*
X126909814Y-107967246D01*
X126913371Y-107955521D01*
X126928371Y-107919308D01*
X126934146Y-107908503D01*
X126955934Y-107875895D01*
X126963707Y-107866424D01*
X126991424Y-107838707D01*
X127000895Y-107830934D01*
X127033503Y-107809146D01*
X127044308Y-107803371D01*
X127080521Y-107788371D01*
X127092246Y-107784814D01*
X127130702Y-107777164D01*
X127142895Y-107775963D01*
X127162500Y-107775000D01*
X127774112Y-107775000D01*
X127793717Y-107775963D01*
G37*
G36*
G01*
X113400000Y-106650000D02*
X113400000Y-107850000D01*
G75*
G02*
X113200000Y-108050000I-200000J0D01*
G01*
X112200000Y-108050000D01*
G75*
G02*
X112000000Y-107850000I0J200000D01*
G01*
X112000000Y-106650000D01*
G75*
G02*
X112200000Y-106450000I200000J0D01*
G01*
X113200000Y-106450000D01*
G75*
G02*
X113400000Y-106650000I0J-200000D01*
G01*
G37*
G36*
G01*
X111400000Y-106650000D02*
X111400000Y-107850000D01*
G75*
G02*
X111200000Y-108050000I-200000J0D01*
G01*
X110200000Y-108050000D01*
G75*
G02*
X110000000Y-107850000I0J200000D01*
G01*
X110000000Y-106650000D01*
G75*
G02*
X110200000Y-106450000I200000J0D01*
G01*
X111200000Y-106450000D01*
G75*
G02*
X111400000Y-106650000I0J-200000D01*
G01*
G37*
G36*
G01*
X105400000Y-106650000D02*
X105400000Y-107850000D01*
G75*
G02*
X105200000Y-108050000I-200000J0D01*
G01*
X104200000Y-108050000D01*
G75*
G02*
X104000000Y-107850000I0J200000D01*
G01*
X104000000Y-106650000D01*
G75*
G02*
X104200000Y-106450000I200000J0D01*
G01*
X105200000Y-106450000D01*
G75*
G02*
X105400000Y-106650000I0J-200000D01*
G01*
G37*
G36*
G01*
X109400000Y-106650000D02*
X109400000Y-107850000D01*
G75*
G02*
X109200000Y-108050000I-200000J0D01*
G01*
X108200000Y-108050000D01*
G75*
G02*
X108000000Y-107850000I0J200000D01*
G01*
X108000000Y-106650000D01*
G75*
G02*
X108200000Y-106450000I200000J0D01*
G01*
X109200000Y-106450000D01*
G75*
G02*
X109400000Y-106650000I0J-200000D01*
G01*
G37*
D16*
X111450000Y-104650000D03*
X105950000Y-104650000D03*
D15*
G36*
X129393888Y-104199398D02*
G01*
X129375466Y-104199398D01*
X129355860Y-104198435D01*
X129307029Y-104193625D01*
X129287620Y-104190746D01*
X129239495Y-104181174D01*
X129220452Y-104176404D01*
X129173497Y-104162160D01*
X129155020Y-104155549D01*
X129109687Y-104136772D01*
X129091939Y-104128377D01*
X129048666Y-104105246D01*
X129031838Y-104095160D01*
X128991039Y-104067900D01*
X128975270Y-104056205D01*
X128937341Y-104025077D01*
X128922800Y-104011897D01*
X128888103Y-103977200D01*
X128874923Y-103962659D01*
X128843795Y-103924730D01*
X128832100Y-103908961D01*
X128804840Y-103868162D01*
X128794754Y-103851334D01*
X128771623Y-103808061D01*
X128763228Y-103790313D01*
X128744451Y-103744980D01*
X128737840Y-103726503D01*
X128723596Y-103679548D01*
X128718826Y-103660505D01*
X128709254Y-103612380D01*
X128706375Y-103592971D01*
X128701565Y-103544140D01*
X128700602Y-103524534D01*
X128700602Y-103506112D01*
X128700000Y-103500000D01*
X128700000Y-103000000D01*
X128700602Y-102993888D01*
X128700602Y-102975466D01*
X128701565Y-102955860D01*
X128706375Y-102907029D01*
X128709254Y-102887620D01*
X128718826Y-102839495D01*
X128723596Y-102820452D01*
X128737840Y-102773497D01*
X128744451Y-102755020D01*
X128763228Y-102709687D01*
X128771623Y-102691939D01*
X128794754Y-102648666D01*
X128804840Y-102631838D01*
X128832100Y-102591039D01*
X128843795Y-102575270D01*
X128874923Y-102537341D01*
X128888103Y-102522800D01*
X128922800Y-102488103D01*
X128937341Y-102474923D01*
X128975270Y-102443795D01*
X128991039Y-102432100D01*
X129031838Y-102404840D01*
X129048666Y-102394754D01*
X129091939Y-102371623D01*
X129109687Y-102363228D01*
X129155020Y-102344451D01*
X129173497Y-102337840D01*
X129220452Y-102323596D01*
X129239495Y-102318826D01*
X129287620Y-102309254D01*
X129307029Y-102306375D01*
X129355860Y-102301565D01*
X129375466Y-102300602D01*
X129393888Y-102300602D01*
X129400000Y-102300000D01*
X129900000Y-102300000D01*
X129939018Y-102303843D01*
X129976537Y-102315224D01*
X130011114Y-102333706D01*
X130041421Y-102358579D01*
X130066294Y-102388886D01*
X130084776Y-102423463D01*
X130096157Y-102460982D01*
X130100000Y-102500000D01*
X130100000Y-104000000D01*
X130096157Y-104039018D01*
X130084776Y-104076537D01*
X130066294Y-104111114D01*
X130041421Y-104141421D01*
X130011114Y-104166294D01*
X129976537Y-104184776D01*
X129939018Y-104196157D01*
X129900000Y-104200000D01*
X129400000Y-104200000D01*
X129393888Y-104199398D01*
G37*
G36*
X130160982Y-104196157D02*
G01*
X130123463Y-104184776D01*
X130088886Y-104166294D01*
X130058579Y-104141421D01*
X130033706Y-104111114D01*
X130015224Y-104076537D01*
X130003843Y-104039018D01*
X130000000Y-104000000D01*
X130000000Y-102500000D01*
X130003843Y-102460982D01*
X130015224Y-102423463D01*
X130033706Y-102388886D01*
X130058579Y-102358579D01*
X130088886Y-102333706D01*
X130123463Y-102315224D01*
X130160982Y-102303843D01*
X130200000Y-102300000D01*
X130700000Y-102300000D01*
X130706112Y-102300602D01*
X130724534Y-102300602D01*
X130744140Y-102301565D01*
X130792971Y-102306375D01*
X130812380Y-102309254D01*
X130860505Y-102318826D01*
X130879548Y-102323596D01*
X130926503Y-102337840D01*
X130944980Y-102344451D01*
X130990313Y-102363228D01*
X131008061Y-102371623D01*
X131051334Y-102394754D01*
X131068162Y-102404840D01*
X131108961Y-102432100D01*
X131124730Y-102443795D01*
X131162659Y-102474923D01*
X131177200Y-102488103D01*
X131211897Y-102522800D01*
X131225077Y-102537341D01*
X131256205Y-102575270D01*
X131267900Y-102591039D01*
X131295160Y-102631838D01*
X131305246Y-102648666D01*
X131328377Y-102691939D01*
X131336772Y-102709687D01*
X131355549Y-102755020D01*
X131362160Y-102773497D01*
X131376404Y-102820452D01*
X131381174Y-102839495D01*
X131390746Y-102887620D01*
X131393625Y-102907029D01*
X131398435Y-102955860D01*
X131399398Y-102975466D01*
X131399398Y-102993888D01*
X131400000Y-103000000D01*
X131400000Y-103500000D01*
X131399398Y-103506112D01*
X131399398Y-103524534D01*
X131398435Y-103544140D01*
X131393625Y-103592971D01*
X131390746Y-103612380D01*
X131381174Y-103660505D01*
X131376404Y-103679548D01*
X131362160Y-103726503D01*
X131355549Y-103744980D01*
X131336772Y-103790313D01*
X131328377Y-103808061D01*
X131305246Y-103851334D01*
X131295160Y-103868162D01*
X131267900Y-103908961D01*
X131256205Y-103924730D01*
X131225077Y-103962659D01*
X131211897Y-103977200D01*
X131177200Y-104011897D01*
X131162659Y-104025077D01*
X131124730Y-104056205D01*
X131108961Y-104067900D01*
X131068162Y-104095160D01*
X131051334Y-104105246D01*
X131008061Y-104128377D01*
X130990313Y-104136772D01*
X130944980Y-104155549D01*
X130926503Y-104162160D01*
X130879548Y-104176404D01*
X130860505Y-104181174D01*
X130812380Y-104190746D01*
X130792971Y-104193625D01*
X130744140Y-104198435D01*
X130724534Y-104199398D01*
X130706112Y-104199398D01*
X130700000Y-104200000D01*
X130200000Y-104200000D01*
X130160982Y-104196157D01*
G37*
G36*
G01*
X114770000Y-105930000D02*
X114770000Y-106470000D01*
G75*
G02*
X114530000Y-106710000I-240000J0D01*
G01*
X114050000Y-106710000D01*
G75*
G02*
X113810000Y-106470000I0J240000D01*
G01*
X113810000Y-105930000D01*
G75*
G02*
X114050000Y-105690000I240000J0D01*
G01*
X114530000Y-105690000D01*
G75*
G02*
X114770000Y-105930000I0J-240000D01*
G01*
G37*
G36*
G01*
X115730000Y-105930000D02*
X115730000Y-106470000D01*
G75*
G02*
X115490000Y-106710000I-240000J0D01*
G01*
X115010000Y-106710000D01*
G75*
G02*
X114770000Y-106470000I0J240000D01*
G01*
X114770000Y-105930000D01*
G75*
G02*
X115010000Y-105690000I240000J0D01*
G01*
X115490000Y-105690000D01*
G75*
G02*
X115730000Y-105930000I0J-240000D01*
G01*
G37*
G36*
G01*
X112270000Y-109520000D02*
X111730000Y-109520000D01*
G75*
G02*
X111490000Y-109280000I0J240000D01*
G01*
X111490000Y-108800000D01*
G75*
G02*
X111730000Y-108560000I240000J0D01*
G01*
X112270000Y-108560000D01*
G75*
G02*
X112510000Y-108800000I0J-240000D01*
G01*
X112510000Y-109280000D01*
G75*
G02*
X112270000Y-109520000I-240000J0D01*
G01*
G37*
G36*
G01*
X112270000Y-110480000D02*
X111730000Y-110480000D01*
G75*
G02*
X111490000Y-110240000I0J240000D01*
G01*
X111490000Y-109760000D01*
G75*
G02*
X111730000Y-109520000I240000J0D01*
G01*
X112270000Y-109520000D01*
G75*
G02*
X112510000Y-109760000I0J-240000D01*
G01*
X112510000Y-110240000D01*
G75*
G02*
X112270000Y-110480000I-240000J0D01*
G01*
G37*
G36*
G01*
X127070000Y-104800000D02*
X126530000Y-104800000D01*
G75*
G02*
X126290000Y-104560000I0J240000D01*
G01*
X126290000Y-104080000D01*
G75*
G02*
X126530000Y-103840000I240000J0D01*
G01*
X127070000Y-103840000D01*
G75*
G02*
X127310000Y-104080000I0J-240000D01*
G01*
X127310000Y-104560000D01*
G75*
G02*
X127070000Y-104800000I-240000J0D01*
G01*
G37*
G36*
G01*
X127070000Y-105760000D02*
X126530000Y-105760000D01*
G75*
G02*
X126290000Y-105520000I0J240000D01*
G01*
X126290000Y-105040000D01*
G75*
G02*
X126530000Y-104800000I240000J0D01*
G01*
X127070000Y-104800000D01*
G75*
G02*
X127310000Y-105040000I0J-240000D01*
G01*
X127310000Y-105520000D01*
G75*
G02*
X127070000Y-105760000I-240000J0D01*
G01*
G37*
G36*
G01*
X132630000Y-104800000D02*
X133170000Y-104800000D01*
G75*
G02*
X133410000Y-105040000I0J-240000D01*
G01*
X133410000Y-105520000D01*
G75*
G02*
X133170000Y-105760000I-240000J0D01*
G01*
X132630000Y-105760000D01*
G75*
G02*
X132390000Y-105520000I0J240000D01*
G01*
X132390000Y-105040000D01*
G75*
G02*
X132630000Y-104800000I240000J0D01*
G01*
G37*
G36*
G01*
X132630000Y-103840000D02*
X133170000Y-103840000D01*
G75*
G02*
X133410000Y-104080000I0J-240000D01*
G01*
X133410000Y-104560000D01*
G75*
G02*
X133170000Y-104800000I-240000J0D01*
G01*
X132630000Y-104800000D01*
G75*
G02*
X132390000Y-104560000I0J240000D01*
G01*
X132390000Y-104080000D01*
G75*
G02*
X132630000Y-103840000I240000J0D01*
G01*
G37*
G36*
G01*
X121000000Y-108350000D02*
X121000000Y-106850000D01*
G75*
G02*
X121200000Y-106650000I200000J0D01*
G01*
X122500000Y-106650000D01*
G75*
G02*
X122700000Y-106850000I0J-200000D01*
G01*
X122700000Y-108350000D01*
G75*
G02*
X122500000Y-108550000I-200000J0D01*
G01*
X121200000Y-108550000D01*
G75*
G02*
X121000000Y-108350000I0J200000D01*
G01*
G37*
G36*
G01*
X122725000Y-107000000D02*
X122725000Y-106700000D01*
G75*
G02*
X122925000Y-106500000I200000J0D01*
G01*
X123675000Y-106500000D01*
G75*
G02*
X123875000Y-106700000I0J-200000D01*
G01*
X123875000Y-107000000D01*
G75*
G02*
X123675000Y-107200000I-200000J0D01*
G01*
X122925000Y-107200000D01*
G75*
G02*
X122725000Y-107000000I0J200000D01*
G01*
G37*
G36*
G01*
X122725000Y-107500000D02*
X122725000Y-107200000D01*
G75*
G02*
X122925000Y-107000000I200000J0D01*
G01*
X123675000Y-107000000D01*
G75*
G02*
X123875000Y-107200000I0J-200000D01*
G01*
X123875000Y-107500000D01*
G75*
G02*
X123675000Y-107700000I-200000J0D01*
G01*
X122925000Y-107700000D01*
G75*
G02*
X122725000Y-107500000I0J200000D01*
G01*
G37*
G36*
G01*
X122725000Y-108000000D02*
X122725000Y-107700000D01*
G75*
G02*
X122925000Y-107500000I200000J0D01*
G01*
X123675000Y-107500000D01*
G75*
G02*
X123875000Y-107700000I0J-200000D01*
G01*
X123875000Y-108000000D01*
G75*
G02*
X123675000Y-108200000I-200000J0D01*
G01*
X122925000Y-108200000D01*
G75*
G02*
X122725000Y-108000000I0J200000D01*
G01*
G37*
G36*
G01*
X122725000Y-108500000D02*
X122725000Y-108200000D01*
G75*
G02*
X122925000Y-108000000I200000J0D01*
G01*
X123675000Y-108000000D01*
G75*
G02*
X123875000Y-108200000I0J-200000D01*
G01*
X123875000Y-108500000D01*
G75*
G02*
X123675000Y-108700000I-200000J0D01*
G01*
X122925000Y-108700000D01*
G75*
G02*
X122725000Y-108500000I0J200000D01*
G01*
G37*
G36*
G01*
X119825000Y-108500000D02*
X119825000Y-108200000D01*
G75*
G02*
X120025000Y-108000000I200000J0D01*
G01*
X120775000Y-108000000D01*
G75*
G02*
X120975000Y-108200000I0J-200000D01*
G01*
X120975000Y-108500000D01*
G75*
G02*
X120775000Y-108700000I-200000J0D01*
G01*
X120025000Y-108700000D01*
G75*
G02*
X119825000Y-108500000I0J200000D01*
G01*
G37*
G36*
G01*
X119825000Y-108000000D02*
X119825000Y-107700000D01*
G75*
G02*
X120025000Y-107500000I200000J0D01*
G01*
X120775000Y-107500000D01*
G75*
G02*
X120975000Y-107700000I0J-200000D01*
G01*
X120975000Y-108000000D01*
G75*
G02*
X120775000Y-108200000I-200000J0D01*
G01*
X120025000Y-108200000D01*
G75*
G02*
X119825000Y-108000000I0J200000D01*
G01*
G37*
G36*
G01*
X119825000Y-107500000D02*
X119825000Y-107200000D01*
G75*
G02*
X120025000Y-107000000I200000J0D01*
G01*
X120775000Y-107000000D01*
G75*
G02*
X120975000Y-107200000I0J-200000D01*
G01*
X120975000Y-107500000D01*
G75*
G02*
X120775000Y-107700000I-200000J0D01*
G01*
X120025000Y-107700000D01*
G75*
G02*
X119825000Y-107500000I0J200000D01*
G01*
G37*
G36*
G01*
X119825000Y-107000000D02*
X119825000Y-106700000D01*
G75*
G02*
X120025000Y-106500000I200000J0D01*
G01*
X120775000Y-106500000D01*
G75*
G02*
X120975000Y-106700000I0J-200000D01*
G01*
X120975000Y-107000000D01*
G75*
G02*
X120775000Y-107200000I-200000J0D01*
G01*
X120025000Y-107200000D01*
G75*
G02*
X119825000Y-107000000I0J200000D01*
G01*
G37*
G36*
G01*
X115522500Y-109291000D02*
X114977500Y-109291000D01*
G75*
G02*
X114730000Y-109043500I0J247500D01*
G01*
X114730000Y-108548500D01*
G75*
G02*
X114977500Y-108301000I247500J0D01*
G01*
X115522500Y-108301000D01*
G75*
G02*
X115770000Y-108548500I0J-247500D01*
G01*
X115770000Y-109043500D01*
G75*
G02*
X115522500Y-109291000I-247500J0D01*
G01*
G37*
G36*
G01*
X115522500Y-110261000D02*
X114977500Y-110261000D01*
G75*
G02*
X114730000Y-110013500I0J247500D01*
G01*
X114730000Y-109518500D01*
G75*
G02*
X114977500Y-109271000I247500J0D01*
G01*
X115522500Y-109271000D01*
G75*
G02*
X115770000Y-109518500I0J-247500D01*
G01*
X115770000Y-110013500D01*
G75*
G02*
X115522500Y-110261000I-247500J0D01*
G01*
G37*
G36*
G01*
X111527500Y-115505000D02*
X112072500Y-115505000D01*
G75*
G02*
X112320000Y-115752500I0J-247500D01*
G01*
X112320000Y-116247500D01*
G75*
G02*
X112072500Y-116495000I-247500J0D01*
G01*
X111527500Y-116495000D01*
G75*
G02*
X111280000Y-116247500I0J247500D01*
G01*
X111280000Y-115752500D01*
G75*
G02*
X111527500Y-115505000I247500J0D01*
G01*
G37*
G36*
G01*
X111527500Y-114535000D02*
X112072500Y-114535000D01*
G75*
G02*
X112320000Y-114782500I0J-247500D01*
G01*
X112320000Y-115277500D01*
G75*
G02*
X112072500Y-115525000I-247500J0D01*
G01*
X111527500Y-115525000D01*
G75*
G02*
X111280000Y-115277500I0J247500D01*
G01*
X111280000Y-114782500D01*
G75*
G02*
X111527500Y-114535000I247500J0D01*
G01*
G37*
G36*
G01*
X117490000Y-111522500D02*
X117490000Y-110977500D01*
G75*
G02*
X117737500Y-110730000I247500J0D01*
G01*
X118232500Y-110730000D01*
G75*
G02*
X118480000Y-110977500I0J-247500D01*
G01*
X118480000Y-111522500D01*
G75*
G02*
X118232500Y-111770000I-247500J0D01*
G01*
X117737500Y-111770000D01*
G75*
G02*
X117490000Y-111522500I0J247500D01*
G01*
G37*
G36*
G01*
X116520000Y-111522500D02*
X116520000Y-110977500D01*
G75*
G02*
X116767500Y-110730000I247500J0D01*
G01*
X117262500Y-110730000D01*
G75*
G02*
X117510000Y-110977500I0J-247500D01*
G01*
X117510000Y-111522500D01*
G75*
G02*
X117262500Y-111770000I-247500J0D01*
G01*
X116767500Y-111770000D01*
G75*
G02*
X116520000Y-111522500I0J247500D01*
G01*
G37*
G36*
G01*
X113872500Y-109260000D02*
X113327500Y-109260000D01*
G75*
G02*
X113080000Y-109012500I0J247500D01*
G01*
X113080000Y-108517500D01*
G75*
G02*
X113327500Y-108270000I247500J0D01*
G01*
X113872500Y-108270000D01*
G75*
G02*
X114120000Y-108517500I0J-247500D01*
G01*
X114120000Y-109012500D01*
G75*
G02*
X113872500Y-109260000I-247500J0D01*
G01*
G37*
G36*
G01*
X113872500Y-110230000D02*
X113327500Y-110230000D01*
G75*
G02*
X113080000Y-109982500I0J247500D01*
G01*
X113080000Y-109487500D01*
G75*
G02*
X113327500Y-109240000I247500J0D01*
G01*
X113872500Y-109240000D01*
G75*
G02*
X114120000Y-109487500I0J-247500D01*
G01*
X114120000Y-109982500D01*
G75*
G02*
X113872500Y-110230000I-247500J0D01*
G01*
G37*
G36*
G01*
X123025000Y-109577500D02*
X123025000Y-110122500D01*
G75*
G02*
X122777500Y-110370000I-247500J0D01*
G01*
X122282500Y-110370000D01*
G75*
G02*
X122035000Y-110122500I0J247500D01*
G01*
X122035000Y-109577500D01*
G75*
G02*
X122282500Y-109330000I247500J0D01*
G01*
X122777500Y-109330000D01*
G75*
G02*
X123025000Y-109577500I0J-247500D01*
G01*
G37*
G36*
G01*
X123995000Y-109577500D02*
X123995000Y-110122500D01*
G75*
G02*
X123747500Y-110370000I-247500J0D01*
G01*
X123252500Y-110370000D01*
G75*
G02*
X123005000Y-110122500I0J247500D01*
G01*
X123005000Y-109577500D01*
G75*
G02*
X123252500Y-109330000I247500J0D01*
G01*
X123747500Y-109330000D01*
G75*
G02*
X123995000Y-109577500I0J-247500D01*
G01*
G37*
G36*
G01*
X123005000Y-111422500D02*
X123005000Y-110877500D01*
G75*
G02*
X123252500Y-110630000I247500J0D01*
G01*
X123747500Y-110630000D01*
G75*
G02*
X123995000Y-110877500I0J-247500D01*
G01*
X123995000Y-111422500D01*
G75*
G02*
X123747500Y-111670000I-247500J0D01*
G01*
X123252500Y-111670000D01*
G75*
G02*
X123005000Y-111422500I0J247500D01*
G01*
G37*
G36*
G01*
X122035000Y-111422500D02*
X122035000Y-110877500D01*
G75*
G02*
X122282500Y-110630000I247500J0D01*
G01*
X122777500Y-110630000D01*
G75*
G02*
X123025000Y-110877500I0J-247500D01*
G01*
X123025000Y-111422500D01*
G75*
G02*
X122777500Y-111670000I-247500J0D01*
G01*
X122282500Y-111670000D01*
G75*
G02*
X122035000Y-111422500I0J247500D01*
G01*
G37*
G36*
G01*
X118190000Y-110022500D02*
X118190000Y-109477500D01*
G75*
G02*
X118437500Y-109230000I247500J0D01*
G01*
X118932500Y-109230000D01*
G75*
G02*
X119180000Y-109477500I0J-247500D01*
G01*
X119180000Y-110022500D01*
G75*
G02*
X118932500Y-110270000I-247500J0D01*
G01*
X118437500Y-110270000D01*
G75*
G02*
X118190000Y-110022500I0J247500D01*
G01*
G37*
G36*
G01*
X117220000Y-110022500D02*
X117220000Y-109477500D01*
G75*
G02*
X117467500Y-109230000I247500J0D01*
G01*
X117962500Y-109230000D01*
G75*
G02*
X118210000Y-109477500I0J-247500D01*
G01*
X118210000Y-110022500D01*
G75*
G02*
X117962500Y-110270000I-247500J0D01*
G01*
X117467500Y-110270000D01*
G75*
G02*
X117220000Y-110022500I0J247500D01*
G01*
G37*
G36*
G01*
X118190000Y-106122500D02*
X118190000Y-105577500D01*
G75*
G02*
X118437500Y-105330000I247500J0D01*
G01*
X118932500Y-105330000D01*
G75*
G02*
X119180000Y-105577500I0J-247500D01*
G01*
X119180000Y-106122500D01*
G75*
G02*
X118932500Y-106370000I-247500J0D01*
G01*
X118437500Y-106370000D01*
G75*
G02*
X118190000Y-106122500I0J247500D01*
G01*
G37*
G36*
G01*
X117220000Y-106122500D02*
X117220000Y-105577500D01*
G75*
G02*
X117467500Y-105330000I247500J0D01*
G01*
X117962500Y-105330000D01*
G75*
G02*
X118210000Y-105577500I0J-247500D01*
G01*
X118210000Y-106122500D01*
G75*
G02*
X117962500Y-106370000I-247500J0D01*
G01*
X117467500Y-106370000D01*
G75*
G02*
X117220000Y-106122500I0J247500D01*
G01*
G37*
G36*
G01*
X109925000Y-110625000D02*
X110875000Y-110625000D01*
G75*
G02*
X111037500Y-110787500I0J-162500D01*
G01*
X111037500Y-111112500D01*
G75*
G02*
X110875000Y-111275000I-162500J0D01*
G01*
X109925000Y-111275000D01*
G75*
G02*
X109762500Y-111112500I0J162500D01*
G01*
X109762500Y-110787500D01*
G75*
G02*
X109925000Y-110625000I162500J0D01*
G01*
G37*
G36*
G01*
X109925000Y-111125000D02*
X110875000Y-111125000D01*
G75*
G02*
X111037500Y-111287500I0J-162500D01*
G01*
X111037500Y-111612500D01*
G75*
G02*
X110875000Y-111775000I-162500J0D01*
G01*
X109925000Y-111775000D01*
G75*
G02*
X109762500Y-111612500I0J162500D01*
G01*
X109762500Y-111287500D01*
G75*
G02*
X109925000Y-111125000I162500J0D01*
G01*
G37*
G36*
G01*
X109925000Y-111625000D02*
X110875000Y-111625000D01*
G75*
G02*
X111037500Y-111787500I0J-162500D01*
G01*
X111037500Y-112112500D01*
G75*
G02*
X110875000Y-112275000I-162500J0D01*
G01*
X109925000Y-112275000D01*
G75*
G02*
X109762500Y-112112500I0J162500D01*
G01*
X109762500Y-111787500D01*
G75*
G02*
X109925000Y-111625000I162500J0D01*
G01*
G37*
G36*
G01*
X109925000Y-112125000D02*
X110875000Y-112125000D01*
G75*
G02*
X111037500Y-112287500I0J-162500D01*
G01*
X111037500Y-112612500D01*
G75*
G02*
X110875000Y-112775000I-162500J0D01*
G01*
X109925000Y-112775000D01*
G75*
G02*
X109762500Y-112612500I0J162500D01*
G01*
X109762500Y-112287500D01*
G75*
G02*
X109925000Y-112125000I162500J0D01*
G01*
G37*
G36*
G01*
X109925000Y-112625000D02*
X110875000Y-112625000D01*
G75*
G02*
X111037500Y-112787500I0J-162500D01*
G01*
X111037500Y-113112500D01*
G75*
G02*
X110875000Y-113275000I-162500J0D01*
G01*
X109925000Y-113275000D01*
G75*
G02*
X109762500Y-113112500I0J162500D01*
G01*
X109762500Y-112787500D01*
G75*
G02*
X109925000Y-112625000I162500J0D01*
G01*
G37*
G36*
G01*
X109925000Y-113125000D02*
X110875000Y-113125000D01*
G75*
G02*
X111037500Y-113287500I0J-162500D01*
G01*
X111037500Y-113612500D01*
G75*
G02*
X110875000Y-113775000I-162500J0D01*
G01*
X109925000Y-113775000D01*
G75*
G02*
X109762500Y-113612500I0J162500D01*
G01*
X109762500Y-113287500D01*
G75*
G02*
X109925000Y-113125000I162500J0D01*
G01*
G37*
G36*
G01*
X109925000Y-113625000D02*
X110875000Y-113625000D01*
G75*
G02*
X111037500Y-113787500I0J-162500D01*
G01*
X111037500Y-114112500D01*
G75*
G02*
X110875000Y-114275000I-162500J0D01*
G01*
X109925000Y-114275000D01*
G75*
G02*
X109762500Y-114112500I0J162500D01*
G01*
X109762500Y-113787500D01*
G75*
G02*
X109925000Y-113625000I162500J0D01*
G01*
G37*
G36*
G01*
X109925000Y-114125000D02*
X110875000Y-114125000D01*
G75*
G02*
X111037500Y-114287500I0J-162500D01*
G01*
X111037500Y-114612500D01*
G75*
G02*
X110875000Y-114775000I-162500J0D01*
G01*
X109925000Y-114775000D01*
G75*
G02*
X109762500Y-114612500I0J162500D01*
G01*
X109762500Y-114287500D01*
G75*
G02*
X109925000Y-114125000I162500J0D01*
G01*
G37*
G36*
G01*
X109550000Y-114500000D02*
X109875000Y-114500000D01*
G75*
G02*
X110037500Y-114662500I0J-162500D01*
G01*
X110037500Y-115612500D01*
G75*
G02*
X109875000Y-115775000I-162500J0D01*
G01*
X109550000Y-115775000D01*
G75*
G02*
X109387500Y-115612500I0J162500D01*
G01*
X109387500Y-114662500D01*
G75*
G02*
X109550000Y-114500000I162500J0D01*
G01*
G37*
G36*
G01*
X109050000Y-114500000D02*
X109375000Y-114500000D01*
G75*
G02*
X109537500Y-114662500I0J-162500D01*
G01*
X109537500Y-115612500D01*
G75*
G02*
X109375000Y-115775000I-162500J0D01*
G01*
X109050000Y-115775000D01*
G75*
G02*
X108887500Y-115612500I0J162500D01*
G01*
X108887500Y-114662500D01*
G75*
G02*
X109050000Y-114500000I162500J0D01*
G01*
G37*
G36*
G01*
X108550000Y-114500000D02*
X108875000Y-114500000D01*
G75*
G02*
X109037500Y-114662500I0J-162500D01*
G01*
X109037500Y-115612500D01*
G75*
G02*
X108875000Y-115775000I-162500J0D01*
G01*
X108550000Y-115775000D01*
G75*
G02*
X108387500Y-115612500I0J162500D01*
G01*
X108387500Y-114662500D01*
G75*
G02*
X108550000Y-114500000I162500J0D01*
G01*
G37*
G36*
G01*
X108050000Y-114500000D02*
X108375000Y-114500000D01*
G75*
G02*
X108537500Y-114662500I0J-162500D01*
G01*
X108537500Y-115612500D01*
G75*
G02*
X108375000Y-115775000I-162500J0D01*
G01*
X108050000Y-115775000D01*
G75*
G02*
X107887500Y-115612500I0J162500D01*
G01*
X107887500Y-114662500D01*
G75*
G02*
X108050000Y-114500000I162500J0D01*
G01*
G37*
G36*
G01*
X107550000Y-114500000D02*
X107875000Y-114500000D01*
G75*
G02*
X108037500Y-114662500I0J-162500D01*
G01*
X108037500Y-115612500D01*
G75*
G02*
X107875000Y-115775000I-162500J0D01*
G01*
X107550000Y-115775000D01*
G75*
G02*
X107387500Y-115612500I0J162500D01*
G01*
X107387500Y-114662500D01*
G75*
G02*
X107550000Y-114500000I162500J0D01*
G01*
G37*
G36*
G01*
X107050000Y-114500000D02*
X107375000Y-114500000D01*
G75*
G02*
X107537500Y-114662500I0J-162500D01*
G01*
X107537500Y-115612500D01*
G75*
G02*
X107375000Y-115775000I-162500J0D01*
G01*
X107050000Y-115775000D01*
G75*
G02*
X106887500Y-115612500I0J162500D01*
G01*
X106887500Y-114662500D01*
G75*
G02*
X107050000Y-114500000I162500J0D01*
G01*
G37*
G36*
G01*
X106550000Y-114500000D02*
X106875000Y-114500000D01*
G75*
G02*
X107037500Y-114662500I0J-162500D01*
G01*
X107037500Y-115612500D01*
G75*
G02*
X106875000Y-115775000I-162500J0D01*
G01*
X106550000Y-115775000D01*
G75*
G02*
X106387500Y-115612500I0J162500D01*
G01*
X106387500Y-114662500D01*
G75*
G02*
X106550000Y-114500000I162500J0D01*
G01*
G37*
G36*
G01*
X106050000Y-114500000D02*
X106375000Y-114500000D01*
G75*
G02*
X106537500Y-114662500I0J-162500D01*
G01*
X106537500Y-115612500D01*
G75*
G02*
X106375000Y-115775000I-162500J0D01*
G01*
X106050000Y-115775000D01*
G75*
G02*
X105887500Y-115612500I0J162500D01*
G01*
X105887500Y-114662500D01*
G75*
G02*
X106050000Y-114500000I162500J0D01*
G01*
G37*
G36*
G01*
X105050000Y-114125000D02*
X106000000Y-114125000D01*
G75*
G02*
X106162500Y-114287500I0J-162500D01*
G01*
X106162500Y-114612500D01*
G75*
G02*
X106000000Y-114775000I-162500J0D01*
G01*
X105050000Y-114775000D01*
G75*
G02*
X104887500Y-114612500I0J162500D01*
G01*
X104887500Y-114287500D01*
G75*
G02*
X105050000Y-114125000I162500J0D01*
G01*
G37*
G36*
G01*
X105050000Y-113625000D02*
X106000000Y-113625000D01*
G75*
G02*
X106162500Y-113787500I0J-162500D01*
G01*
X106162500Y-114112500D01*
G75*
G02*
X106000000Y-114275000I-162500J0D01*
G01*
X105050000Y-114275000D01*
G75*
G02*
X104887500Y-114112500I0J162500D01*
G01*
X104887500Y-113787500D01*
G75*
G02*
X105050000Y-113625000I162500J0D01*
G01*
G37*
G36*
G01*
X105050000Y-113125000D02*
X106000000Y-113125000D01*
G75*
G02*
X106162500Y-113287500I0J-162500D01*
G01*
X106162500Y-113612500D01*
G75*
G02*
X106000000Y-113775000I-162500J0D01*
G01*
X105050000Y-113775000D01*
G75*
G02*
X104887500Y-113612500I0J162500D01*
G01*
X104887500Y-113287500D01*
G75*
G02*
X105050000Y-113125000I162500J0D01*
G01*
G37*
G36*
G01*
X105050000Y-112625000D02*
X106000000Y-112625000D01*
G75*
G02*
X106162500Y-112787500I0J-162500D01*
G01*
X106162500Y-113112500D01*
G75*
G02*
X106000000Y-113275000I-162500J0D01*
G01*
X105050000Y-113275000D01*
G75*
G02*
X104887500Y-113112500I0J162500D01*
G01*
X104887500Y-112787500D01*
G75*
G02*
X105050000Y-112625000I162500J0D01*
G01*
G37*
G36*
G01*
X105050000Y-112125000D02*
X106000000Y-112125000D01*
G75*
G02*
X106162500Y-112287500I0J-162500D01*
G01*
X106162500Y-112612500D01*
G75*
G02*
X106000000Y-112775000I-162500J0D01*
G01*
X105050000Y-112775000D01*
G75*
G02*
X104887500Y-112612500I0J162500D01*
G01*
X104887500Y-112287500D01*
G75*
G02*
X105050000Y-112125000I162500J0D01*
G01*
G37*
G36*
G01*
X105050000Y-111625000D02*
X106000000Y-111625000D01*
G75*
G02*
X106162500Y-111787500I0J-162500D01*
G01*
X106162500Y-112112500D01*
G75*
G02*
X106000000Y-112275000I-162500J0D01*
G01*
X105050000Y-112275000D01*
G75*
G02*
X104887500Y-112112500I0J162500D01*
G01*
X104887500Y-111787500D01*
G75*
G02*
X105050000Y-111625000I162500J0D01*
G01*
G37*
G36*
G01*
X105050000Y-111125000D02*
X106000000Y-111125000D01*
G75*
G02*
X106162500Y-111287500I0J-162500D01*
G01*
X106162500Y-111612500D01*
G75*
G02*
X106000000Y-111775000I-162500J0D01*
G01*
X105050000Y-111775000D01*
G75*
G02*
X104887500Y-111612500I0J162500D01*
G01*
X104887500Y-111287500D01*
G75*
G02*
X105050000Y-111125000I162500J0D01*
G01*
G37*
G36*
G01*
X105050000Y-110625000D02*
X106000000Y-110625000D01*
G75*
G02*
X106162500Y-110787500I0J-162500D01*
G01*
X106162500Y-111112500D01*
G75*
G02*
X106000000Y-111275000I-162500J0D01*
G01*
X105050000Y-111275000D01*
G75*
G02*
X104887500Y-111112500I0J162500D01*
G01*
X104887500Y-110787500D01*
G75*
G02*
X105050000Y-110625000I162500J0D01*
G01*
G37*
G36*
G01*
X106050000Y-109625000D02*
X106375000Y-109625000D01*
G75*
G02*
X106537500Y-109787500I0J-162500D01*
G01*
X106537500Y-110737500D01*
G75*
G02*
X106375000Y-110900000I-162500J0D01*
G01*
X106050000Y-110900000D01*
G75*
G02*
X105887500Y-110737500I0J162500D01*
G01*
X105887500Y-109787500D01*
G75*
G02*
X106050000Y-109625000I162500J0D01*
G01*
G37*
G36*
G01*
X106550000Y-109625000D02*
X106875000Y-109625000D01*
G75*
G02*
X107037500Y-109787500I0J-162500D01*
G01*
X107037500Y-110737500D01*
G75*
G02*
X106875000Y-110900000I-162500J0D01*
G01*
X106550000Y-110900000D01*
G75*
G02*
X106387500Y-110737500I0J162500D01*
G01*
X106387500Y-109787500D01*
G75*
G02*
X106550000Y-109625000I162500J0D01*
G01*
G37*
G36*
G01*
X107050000Y-109625000D02*
X107375000Y-109625000D01*
G75*
G02*
X107537500Y-109787500I0J-162500D01*
G01*
X107537500Y-110737500D01*
G75*
G02*
X107375000Y-110900000I-162500J0D01*
G01*
X107050000Y-110900000D01*
G75*
G02*
X106887500Y-110737500I0J162500D01*
G01*
X106887500Y-109787500D01*
G75*
G02*
X107050000Y-109625000I162500J0D01*
G01*
G37*
G36*
G01*
X107550000Y-109625000D02*
X107875000Y-109625000D01*
G75*
G02*
X108037500Y-109787500I0J-162500D01*
G01*
X108037500Y-110737500D01*
G75*
G02*
X107875000Y-110900000I-162500J0D01*
G01*
X107550000Y-110900000D01*
G75*
G02*
X107387500Y-110737500I0J162500D01*
G01*
X107387500Y-109787500D01*
G75*
G02*
X107550000Y-109625000I162500J0D01*
G01*
G37*
G36*
G01*
X108050000Y-109625000D02*
X108375000Y-109625000D01*
G75*
G02*
X108537500Y-109787500I0J-162500D01*
G01*
X108537500Y-110737500D01*
G75*
G02*
X108375000Y-110900000I-162500J0D01*
G01*
X108050000Y-110900000D01*
G75*
G02*
X107887500Y-110737500I0J162500D01*
G01*
X107887500Y-109787500D01*
G75*
G02*
X108050000Y-109625000I162500J0D01*
G01*
G37*
G36*
G01*
X108550000Y-109625000D02*
X108875000Y-109625000D01*
G75*
G02*
X109037500Y-109787500I0J-162500D01*
G01*
X109037500Y-110737500D01*
G75*
G02*
X108875000Y-110900000I-162500J0D01*
G01*
X108550000Y-110900000D01*
G75*
G02*
X108387500Y-110737500I0J162500D01*
G01*
X108387500Y-109787500D01*
G75*
G02*
X108550000Y-109625000I162500J0D01*
G01*
G37*
G36*
G01*
X109050000Y-109625000D02*
X109375000Y-109625000D01*
G75*
G02*
X109537500Y-109787500I0J-162500D01*
G01*
X109537500Y-110737500D01*
G75*
G02*
X109375000Y-110900000I-162500J0D01*
G01*
X109050000Y-110900000D01*
G75*
G02*
X108887500Y-110737500I0J162500D01*
G01*
X108887500Y-109787500D01*
G75*
G02*
X109050000Y-109625000I162500J0D01*
G01*
G37*
G36*
G01*
X109550000Y-109625000D02*
X109875000Y-109625000D01*
G75*
G02*
X110037500Y-109787500I0J-162500D01*
G01*
X110037500Y-110737500D01*
G75*
G02*
X109875000Y-110900000I-162500J0D01*
G01*
X109550000Y-110900000D01*
G75*
G02*
X109387500Y-110737500I0J162500D01*
G01*
X109387500Y-109787500D01*
G75*
G02*
X109550000Y-109625000I162500J0D01*
G01*
G37*
G36*
G01*
X106496000Y-110950000D02*
X109429000Y-110950000D01*
G75*
G02*
X109712500Y-111233500I0J-283500D01*
G01*
X109712500Y-114166500D01*
G75*
G02*
X109429000Y-114450000I-283500J0D01*
G01*
X106496000Y-114450000D01*
G75*
G02*
X106212500Y-114166500I0J283500D01*
G01*
X106212500Y-111233500D01*
G75*
G02*
X106496000Y-110950000I283500J0D01*
G01*
G37*
D14*
X118140000Y-103750000D03*
G36*
G01*
X116450000Y-104800000D02*
X114750000Y-104800000D01*
G75*
G02*
X114550000Y-104600000I0J200000D01*
G01*
X114550000Y-102900000D01*
G75*
G02*
X114750000Y-102700000I200000J0D01*
G01*
X116450000Y-102700000D01*
G75*
G02*
X116650000Y-102900000I0J-200000D01*
G01*
X116650000Y-104600000D01*
G75*
G02*
X116450000Y-104800000I-200000J0D01*
G01*
G37*
X101800000Y-106340000D03*
G36*
G01*
X100750000Y-104650000D02*
X100750000Y-102950000D01*
G75*
G02*
X100950000Y-102750000I200000J0D01*
G01*
X102650000Y-102750000D01*
G75*
G02*
X102850000Y-102950000I0J-200000D01*
G01*
X102850000Y-104650000D01*
G75*
G02*
X102650000Y-104850000I-200000J0D01*
G01*
X100950000Y-104850000D01*
G75*
G02*
X100750000Y-104650000I0J200000D01*
G01*
G37*
G36*
G01*
X130820000Y-114150000D02*
X132520000Y-114150000D01*
G75*
G02*
X132720000Y-114350000I0J-200000D01*
G01*
X132720000Y-116050000D01*
G75*
G02*
X132520000Y-116250000I-200000J0D01*
G01*
X130820000Y-116250000D01*
G75*
G02*
X130620000Y-116050000I0J200000D01*
G01*
X130620000Y-114350000D01*
G75*
G02*
X130820000Y-114150000I200000J0D01*
G01*
G37*
X129130000Y-115200000D03*
X126590000Y-115200000D03*
X124050000Y-115200000D03*
G36*
G01*
X114250000Y-111393750D02*
X114250000Y-112106250D01*
G75*
G02*
X113931250Y-112425000I-318750J0D01*
G01*
X113293750Y-112425000D01*
G75*
G02*
X112975000Y-112106250I0J318750D01*
G01*
X112975000Y-111393750D01*
G75*
G02*
X113293750Y-111075000I318750J0D01*
G01*
X113931250Y-111075000D01*
G75*
G02*
X114250000Y-111393750I0J-318750D01*
G01*
G37*
G36*
G01*
X115825000Y-111393750D02*
X115825000Y-112106250D01*
G75*
G02*
X115506250Y-112425000I-318750J0D01*
G01*
X114868750Y-112425000D01*
G75*
G02*
X114550000Y-112106250I0J318750D01*
G01*
X114550000Y-111393750D01*
G75*
G02*
X114868750Y-111075000I318750J0D01*
G01*
X115506250Y-111075000D01*
G75*
G02*
X115825000Y-111393750I0J-318750D01*
G01*
G37*
G36*
G01*
X113181750Y-114580000D02*
X113894250Y-114580000D01*
G75*
G02*
X114213000Y-114898750I0J-318750D01*
G01*
X114213000Y-115536250D01*
G75*
G02*
X113894250Y-115855000I-318750J0D01*
G01*
X113181750Y-115855000D01*
G75*
G02*
X112863000Y-115536250I0J318750D01*
G01*
X112863000Y-114898750D01*
G75*
G02*
X113181750Y-114580000I318750J0D01*
G01*
G37*
G36*
G01*
X113181750Y-113005000D02*
X113894250Y-113005000D01*
G75*
G02*
X114213000Y-113323750I0J-318750D01*
G01*
X114213000Y-113961250D01*
G75*
G02*
X113894250Y-114280000I-318750J0D01*
G01*
X113181750Y-114280000D01*
G75*
G02*
X112863000Y-113961250I0J318750D01*
G01*
X112863000Y-113323750D01*
G75*
G02*
X113181750Y-113005000I318750J0D01*
G01*
G37*
G36*
G01*
X114959750Y-114580000D02*
X115672250Y-114580000D01*
G75*
G02*
X115991000Y-114898750I0J-318750D01*
G01*
X115991000Y-115536250D01*
G75*
G02*
X115672250Y-115855000I-318750J0D01*
G01*
X114959750Y-115855000D01*
G75*
G02*
X114641000Y-115536250I0J318750D01*
G01*
X114641000Y-114898750D01*
G75*
G02*
X114959750Y-114580000I318750J0D01*
G01*
G37*
G36*
G01*
X114959750Y-113005000D02*
X115672250Y-113005000D01*
G75*
G02*
X115991000Y-113323750I0J-318750D01*
G01*
X115991000Y-113961250D01*
G75*
G02*
X115672250Y-114280000I-318750J0D01*
G01*
X114959750Y-114280000D01*
G75*
G02*
X114641000Y-113961250I0J318750D01*
G01*
X114641000Y-113323750D01*
G75*
G02*
X114959750Y-113005000I318750J0D01*
G01*
G37*
M02*
