G04 #@! TF.GenerationSoftware,KiCad,Pcbnew,(5.1.9)-1*
G04 #@! TF.CreationDate,2021-06-25T11:42:06+10:00*
G04 #@! TF.ProjectId,microBoSL,6d696372-6f42-46f5-934c-2e6b69636164,0.2.3*
G04 #@! TF.SameCoordinates,Original*
G04 #@! TF.FileFunction,Soldermask,Bot*
G04 #@! TF.FilePolarity,Negative*
%FSLAX46Y46*%
G04 Gerber Fmt 4.6, Leading zero omitted, Abs format (unit mm)*
G04 Created by KiCad (PCBNEW (5.1.9)-1) date 2021-06-25 11:42:06*
%MOMM*%
%LPD*%
G01*
G04 APERTURE LIST*
%ADD10O,1.500000X2.600000*%
%ADD11O,1.500000X2.200000*%
%ADD12O,1.400000X1.400000*%
%ADD13O,1.750000X1.750000*%
%ADD14O,2.100000X2.100000*%
%ADD15C,1.250000*%
G04 APERTURE END LIST*
G36*
G01*
X109975000Y-110820000D02*
X109975000Y-110280000D01*
G75*
G02*
X110215000Y-110040000I240000J0D01*
G01*
X110695000Y-110040000D01*
G75*
G02*
X110935000Y-110280000I0J-240000D01*
G01*
X110935000Y-110820000D01*
G75*
G02*
X110695000Y-111060000I-240000J0D01*
G01*
X110215000Y-111060000D01*
G75*
G02*
X109975000Y-110820000I0J240000D01*
G01*
G37*
G36*
G01*
X109015000Y-110820000D02*
X109015000Y-110280000D01*
G75*
G02*
X109255000Y-110040000I240000J0D01*
G01*
X109735000Y-110040000D01*
G75*
G02*
X109975000Y-110280000I0J-240000D01*
G01*
X109975000Y-110820000D01*
G75*
G02*
X109735000Y-111060000I-240000J0D01*
G01*
X109255000Y-111060000D01*
G75*
G02*
X109015000Y-110820000I0J240000D01*
G01*
G37*
G36*
G01*
X112335000Y-108585000D02*
X111765000Y-108585000D01*
G75*
G02*
X111530000Y-108350000I0J235000D01*
G01*
X111530000Y-107880000D01*
G75*
G02*
X111765000Y-107645000I235000J0D01*
G01*
X112335000Y-107645000D01*
G75*
G02*
X112570000Y-107880000I0J-235000D01*
G01*
X112570000Y-108350000D01*
G75*
G02*
X112335000Y-108585000I-235000J0D01*
G01*
G37*
G36*
G01*
X112335000Y-109605000D02*
X111765000Y-109605000D01*
G75*
G02*
X111530000Y-109370000I0J235000D01*
G01*
X111530000Y-108900000D01*
G75*
G02*
X111765000Y-108665000I235000J0D01*
G01*
X112335000Y-108665000D01*
G75*
G02*
X112570000Y-108900000I0J-235000D01*
G01*
X112570000Y-109370000D01*
G75*
G02*
X112335000Y-109605000I-235000J0D01*
G01*
G37*
G36*
G01*
X110225000Y-106775000D02*
X110225000Y-107475000D01*
G75*
G02*
X110025000Y-107675000I-200000J0D01*
G01*
X109575000Y-107675000D01*
G75*
G02*
X109375000Y-107475000I0J200000D01*
G01*
X109375000Y-106775000D01*
G75*
G02*
X109575000Y-106575000I200000J0D01*
G01*
X110025000Y-106575000D01*
G75*
G02*
X110225000Y-106775000I0J-200000D01*
G01*
G37*
G36*
G01*
X109575000Y-108775000D02*
X109575000Y-109475000D01*
G75*
G02*
X109375000Y-109675000I-200000J0D01*
G01*
X108925000Y-109675000D01*
G75*
G02*
X108725000Y-109475000I0J200000D01*
G01*
X108725000Y-108775000D01*
G75*
G02*
X108925000Y-108575000I200000J0D01*
G01*
X109375000Y-108575000D01*
G75*
G02*
X109575000Y-108775000I0J-200000D01*
G01*
G37*
G36*
G01*
X110875000Y-108775000D02*
X110875000Y-109475000D01*
G75*
G02*
X110675000Y-109675000I-200000J0D01*
G01*
X110225000Y-109675000D01*
G75*
G02*
X110025000Y-109475000I0J200000D01*
G01*
X110025000Y-108775000D01*
G75*
G02*
X110225000Y-108575000I200000J0D01*
G01*
X110675000Y-108575000D01*
G75*
G02*
X110875000Y-108775000I0J-200000D01*
G01*
G37*
G36*
G01*
X106050000Y-109175000D02*
X106050000Y-109625000D01*
G75*
G02*
X105850000Y-109825000I-200000J0D01*
G01*
X105250000Y-109825000D01*
G75*
G02*
X105050000Y-109625000I0J200000D01*
G01*
X105050000Y-109175000D01*
G75*
G02*
X105250000Y-108975000I200000J0D01*
G01*
X105850000Y-108975000D01*
G75*
G02*
X106050000Y-109175000I0J-200000D01*
G01*
G37*
G36*
G01*
X108150000Y-109175000D02*
X108150000Y-109625000D01*
G75*
G02*
X107950000Y-109825000I-200000J0D01*
G01*
X107350000Y-109825000D01*
G75*
G02*
X107150000Y-109625000I0J200000D01*
G01*
X107150000Y-109175000D01*
G75*
G02*
X107350000Y-108975000I200000J0D01*
G01*
X107950000Y-108975000D01*
G75*
G02*
X108150000Y-109175000I0J-200000D01*
G01*
G37*
D10*
X101125000Y-112450000D03*
D11*
X103275000Y-115250000D03*
X103275000Y-109650000D03*
G36*
G01*
X131440000Y-109150000D02*
X131440000Y-110450000D01*
G75*
G02*
X131240000Y-110650000I-200000J0D01*
G01*
X129640000Y-110650000D01*
G75*
G02*
X129440000Y-110450000I0J200000D01*
G01*
X129440000Y-109150000D01*
G75*
G02*
X129640000Y-108950000I200000J0D01*
G01*
X131240000Y-108950000D01*
G75*
G02*
X131440000Y-109150000I0J-200000D01*
G01*
G37*
G36*
G01*
X128140000Y-109150000D02*
X128140000Y-110450000D01*
G75*
G02*
X127940000Y-110650000I-200000J0D01*
G01*
X126340000Y-110650000D01*
G75*
G02*
X126140000Y-110450000I0J200000D01*
G01*
X126140000Y-109150000D01*
G75*
G02*
X126340000Y-108950000I200000J0D01*
G01*
X127940000Y-108950000D01*
G75*
G02*
X128140000Y-109150000I0J-200000D01*
G01*
G37*
G36*
G01*
X128140000Y-111150000D02*
X128140000Y-112450000D01*
G75*
G02*
X127940000Y-112650000I-200000J0D01*
G01*
X126340000Y-112650000D01*
G75*
G02*
X126140000Y-112450000I0J200000D01*
G01*
X126140000Y-111150000D01*
G75*
G02*
X126340000Y-110950000I200000J0D01*
G01*
X127940000Y-110950000D01*
G75*
G02*
X128140000Y-111150000I0J-200000D01*
G01*
G37*
G36*
G01*
X131440000Y-111150000D02*
X131440000Y-112450000D01*
G75*
G02*
X131240000Y-112650000I-200000J0D01*
G01*
X129640000Y-112650000D01*
G75*
G02*
X129440000Y-112450000I0J200000D01*
G01*
X129440000Y-111150000D01*
G75*
G02*
X129640000Y-110950000I200000J0D01*
G01*
X131240000Y-110950000D01*
G75*
G02*
X131440000Y-111150000I0J-200000D01*
G01*
G37*
G36*
G01*
X108075000Y-112255000D02*
X107425000Y-112255000D01*
G75*
G02*
X107225000Y-112055000I0J200000D01*
G01*
X107225000Y-110995000D01*
G75*
G02*
X107425000Y-110795000I200000J0D01*
G01*
X108075000Y-110795000D01*
G75*
G02*
X108275000Y-110995000I0J-200000D01*
G01*
X108275000Y-112055000D01*
G75*
G02*
X108075000Y-112255000I-200000J0D01*
G01*
G37*
G36*
G01*
X106175000Y-112255000D02*
X105525000Y-112255000D01*
G75*
G02*
X105325000Y-112055000I0J200000D01*
G01*
X105325000Y-110995000D01*
G75*
G02*
X105525000Y-110795000I200000J0D01*
G01*
X106175000Y-110795000D01*
G75*
G02*
X106375000Y-110995000I0J-200000D01*
G01*
X106375000Y-112055000D01*
G75*
G02*
X106175000Y-112255000I-200000J0D01*
G01*
G37*
G36*
G01*
X106175000Y-114455000D02*
X105525000Y-114455000D01*
G75*
G02*
X105325000Y-114255000I0J200000D01*
G01*
X105325000Y-113195000D01*
G75*
G02*
X105525000Y-112995000I200000J0D01*
G01*
X106175000Y-112995000D01*
G75*
G02*
X106375000Y-113195000I0J-200000D01*
G01*
X106375000Y-114255000D01*
G75*
G02*
X106175000Y-114455000I-200000J0D01*
G01*
G37*
G36*
G01*
X107125000Y-114455000D02*
X106475000Y-114455000D01*
G75*
G02*
X106275000Y-114255000I0J200000D01*
G01*
X106275000Y-113195000D01*
G75*
G02*
X106475000Y-112995000I200000J0D01*
G01*
X107125000Y-112995000D01*
G75*
G02*
X107325000Y-113195000I0J-200000D01*
G01*
X107325000Y-114255000D01*
G75*
G02*
X107125000Y-114455000I-200000J0D01*
G01*
G37*
G36*
G01*
X108075000Y-114455000D02*
X107425000Y-114455000D01*
G75*
G02*
X107225000Y-114255000I0J200000D01*
G01*
X107225000Y-113195000D01*
G75*
G02*
X107425000Y-112995000I200000J0D01*
G01*
X108075000Y-112995000D01*
G75*
G02*
X108275000Y-113195000I0J-200000D01*
G01*
X108275000Y-114255000D01*
G75*
G02*
X108075000Y-114455000I-200000J0D01*
G01*
G37*
D12*
X121500000Y-113500000D03*
X120230000Y-113500000D03*
X118960000Y-113500000D03*
G36*
G01*
X118190000Y-114200000D02*
X117190000Y-114200000D01*
G75*
G02*
X116990000Y-114000000I0J200000D01*
G01*
X116990000Y-113000000D01*
G75*
G02*
X117190000Y-112800000I200000J0D01*
G01*
X118190000Y-112800000D01*
G75*
G02*
X118390000Y-113000000I0J-200000D01*
G01*
X118390000Y-114000000D01*
G75*
G02*
X118190000Y-114200000I-200000J0D01*
G01*
G37*
D13*
X143500000Y-107500000D03*
X143500000Y-105500000D03*
G36*
G01*
X142625000Y-104175000D02*
X142625000Y-102825000D01*
G75*
G02*
X142825000Y-102625000I200000J0D01*
G01*
X144175000Y-102625000D01*
G75*
G02*
X144375000Y-102825000I0J-200000D01*
G01*
X144375000Y-104175000D01*
G75*
G02*
X144175000Y-104375000I-200000J0D01*
G01*
X142825000Y-104375000D01*
G75*
G02*
X142625000Y-104175000I0J200000D01*
G01*
G37*
X141000000Y-107500000D03*
X141000000Y-105500000D03*
G36*
G01*
X140125000Y-104175000D02*
X140125000Y-102825000D01*
G75*
G02*
X140325000Y-102625000I200000J0D01*
G01*
X141675000Y-102625000D01*
G75*
G02*
X141875000Y-102825000I0J-200000D01*
G01*
X141875000Y-104175000D01*
G75*
G02*
X141675000Y-104375000I-200000J0D01*
G01*
X140325000Y-104375000D01*
G75*
G02*
X140125000Y-104175000I0J200000D01*
G01*
G37*
X120700000Y-103500000D03*
X122700000Y-103500000D03*
G36*
G01*
X124025000Y-102625000D02*
X125375000Y-102625000D01*
G75*
G02*
X125575000Y-102825000I0J-200000D01*
G01*
X125575000Y-104175000D01*
G75*
G02*
X125375000Y-104375000I-200000J0D01*
G01*
X124025000Y-104375000D01*
G75*
G02*
X123825000Y-104175000I0J200000D01*
G01*
X123825000Y-102825000D01*
G75*
G02*
X124025000Y-102625000I200000J0D01*
G01*
G37*
X121500000Y-115500000D03*
X119500000Y-115500000D03*
G36*
G01*
X118175000Y-116375000D02*
X116825000Y-116375000D01*
G75*
G02*
X116625000Y-116175000I0J200000D01*
G01*
X116625000Y-114825000D01*
G75*
G02*
X116825000Y-114625000I200000J0D01*
G01*
X118175000Y-114625000D01*
G75*
G02*
X118375000Y-114825000I0J-200000D01*
G01*
X118375000Y-116175000D01*
G75*
G02*
X118175000Y-116375000I-200000J0D01*
G01*
G37*
G36*
G01*
X138905000Y-109700000D02*
X138405000Y-109700000D01*
G75*
G02*
X138155000Y-109450000I0J250000D01*
G01*
X138155000Y-107600000D01*
G75*
G02*
X138405000Y-107350000I250000J0D01*
G01*
X138905000Y-107350000D01*
G75*
G02*
X139155000Y-107600000I0J-250000D01*
G01*
X139155000Y-109450000D01*
G75*
G02*
X138905000Y-109700000I-250000J0D01*
G01*
G37*
G36*
G01*
X137635000Y-109700000D02*
X137135000Y-109700000D01*
G75*
G02*
X136885000Y-109450000I0J250000D01*
G01*
X136885000Y-107600000D01*
G75*
G02*
X137135000Y-107350000I250000J0D01*
G01*
X137635000Y-107350000D01*
G75*
G02*
X137885000Y-107600000I0J-250000D01*
G01*
X137885000Y-109450000D01*
G75*
G02*
X137635000Y-109700000I-250000J0D01*
G01*
G37*
G36*
G01*
X136365000Y-109700000D02*
X135865000Y-109700000D01*
G75*
G02*
X135615000Y-109450000I0J250000D01*
G01*
X135615000Y-107600000D01*
G75*
G02*
X135865000Y-107350000I250000J0D01*
G01*
X136365000Y-107350000D01*
G75*
G02*
X136615000Y-107600000I0J-250000D01*
G01*
X136615000Y-109450000D01*
G75*
G02*
X136365000Y-109700000I-250000J0D01*
G01*
G37*
G36*
G01*
X135095000Y-109700000D02*
X134595000Y-109700000D01*
G75*
G02*
X134345000Y-109450000I0J250000D01*
G01*
X134345000Y-107600000D01*
G75*
G02*
X134595000Y-107350000I250000J0D01*
G01*
X135095000Y-107350000D01*
G75*
G02*
X135345000Y-107600000I0J-250000D01*
G01*
X135345000Y-109450000D01*
G75*
G02*
X135095000Y-109700000I-250000J0D01*
G01*
G37*
G36*
G01*
X135095000Y-114650000D02*
X134595000Y-114650000D01*
G75*
G02*
X134345000Y-114400000I0J250000D01*
G01*
X134345000Y-112550000D01*
G75*
G02*
X134595000Y-112300000I250000J0D01*
G01*
X135095000Y-112300000D01*
G75*
G02*
X135345000Y-112550000I0J-250000D01*
G01*
X135345000Y-114400000D01*
G75*
G02*
X135095000Y-114650000I-250000J0D01*
G01*
G37*
G36*
G01*
X136365000Y-114650000D02*
X135865000Y-114650000D01*
G75*
G02*
X135615000Y-114400000I0J250000D01*
G01*
X135615000Y-112550000D01*
G75*
G02*
X135865000Y-112300000I250000J0D01*
G01*
X136365000Y-112300000D01*
G75*
G02*
X136615000Y-112550000I0J-250000D01*
G01*
X136615000Y-114400000D01*
G75*
G02*
X136365000Y-114650000I-250000J0D01*
G01*
G37*
G36*
G01*
X137635000Y-114650000D02*
X137135000Y-114650000D01*
G75*
G02*
X136885000Y-114400000I0J250000D01*
G01*
X136885000Y-112550000D01*
G75*
G02*
X137135000Y-112300000I250000J0D01*
G01*
X137635000Y-112300000D01*
G75*
G02*
X137885000Y-112550000I0J-250000D01*
G01*
X137885000Y-114400000D01*
G75*
G02*
X137635000Y-114650000I-250000J0D01*
G01*
G37*
G36*
G01*
X138905000Y-114650000D02*
X138405000Y-114650000D01*
G75*
G02*
X138155000Y-114400000I0J250000D01*
G01*
X138155000Y-112550000D01*
G75*
G02*
X138405000Y-112300000I250000J0D01*
G01*
X138905000Y-112300000D01*
G75*
G02*
X139155000Y-112550000I0J-250000D01*
G01*
X139155000Y-114400000D01*
G75*
G02*
X138905000Y-114650000I-250000J0D01*
G01*
G37*
D14*
X143440000Y-115200000D03*
G36*
G01*
X141750000Y-116250000D02*
X140050000Y-116250000D01*
G75*
G02*
X139850000Y-116050000I0J200000D01*
G01*
X139850000Y-114350000D01*
G75*
G02*
X140050000Y-114150000I200000J0D01*
G01*
X141750000Y-114150000D01*
G75*
G02*
X141950000Y-114350000I0J-200000D01*
G01*
X141950000Y-116050000D01*
G75*
G02*
X141750000Y-116250000I-200000J0D01*
G01*
G37*
X143440000Y-111700000D03*
G36*
G01*
X141750000Y-112750000D02*
X140050000Y-112750000D01*
G75*
G02*
X139850000Y-112550000I0J200000D01*
G01*
X139850000Y-110850000D01*
G75*
G02*
X140050000Y-110650000I200000J0D01*
G01*
X141750000Y-110650000D01*
G75*
G02*
X141950000Y-110850000I0J-200000D01*
G01*
X141950000Y-112550000D01*
G75*
G02*
X141750000Y-112750000I-200000J0D01*
G01*
G37*
G36*
G01*
X137850000Y-115620000D02*
X137850000Y-115080000D01*
G75*
G02*
X138090000Y-114840000I240000J0D01*
G01*
X138570000Y-114840000D01*
G75*
G02*
X138810000Y-115080000I0J-240000D01*
G01*
X138810000Y-115620000D01*
G75*
G02*
X138570000Y-115860000I-240000J0D01*
G01*
X138090000Y-115860000D01*
G75*
G02*
X137850000Y-115620000I0J240000D01*
G01*
G37*
G36*
G01*
X136890000Y-115620000D02*
X136890000Y-115080000D01*
G75*
G02*
X137130000Y-114840000I240000J0D01*
G01*
X137610000Y-114840000D01*
G75*
G02*
X137850000Y-115080000I0J-240000D01*
G01*
X137850000Y-115620000D01*
G75*
G02*
X137610000Y-115860000I-240000J0D01*
G01*
X137130000Y-115860000D01*
G75*
G02*
X136890000Y-115620000I0J240000D01*
G01*
G37*
G36*
G01*
X135650000Y-115570000D02*
X135650000Y-115030000D01*
G75*
G02*
X135890000Y-114790000I240000J0D01*
G01*
X136370000Y-114790000D01*
G75*
G02*
X136610000Y-115030000I0J-240000D01*
G01*
X136610000Y-115570000D01*
G75*
G02*
X136370000Y-115810000I-240000J0D01*
G01*
X135890000Y-115810000D01*
G75*
G02*
X135650000Y-115570000I0J240000D01*
G01*
G37*
G36*
G01*
X134690000Y-115570000D02*
X134690000Y-115030000D01*
G75*
G02*
X134930000Y-114790000I240000J0D01*
G01*
X135410000Y-114790000D01*
G75*
G02*
X135650000Y-115030000I0J-240000D01*
G01*
X135650000Y-115570000D01*
G75*
G02*
X135410000Y-115810000I-240000J0D01*
G01*
X134930000Y-115810000D01*
G75*
G02*
X134690000Y-115570000I0J240000D01*
G01*
G37*
D12*
X135860000Y-105200000D03*
X137130000Y-105200000D03*
G36*
G01*
X137900000Y-104500000D02*
X138900000Y-104500000D01*
G75*
G02*
X139100000Y-104700000I0J-200000D01*
G01*
X139100000Y-105700000D01*
G75*
G02*
X138900000Y-105900000I-200000J0D01*
G01*
X137900000Y-105900000D01*
G75*
G02*
X137700000Y-105700000I0J200000D01*
G01*
X137700000Y-104700000D01*
G75*
G02*
X137900000Y-104500000I200000J0D01*
G01*
G37*
X135240000Y-103550000D03*
X136510000Y-103550000D03*
X137780000Y-103550000D03*
G36*
G01*
X138550000Y-102850000D02*
X139550000Y-102850000D01*
G75*
G02*
X139750000Y-103050000I0J-200000D01*
G01*
X139750000Y-104050000D01*
G75*
G02*
X139550000Y-104250000I-200000J0D01*
G01*
X138550000Y-104250000D01*
G75*
G02*
X138350000Y-104050000I0J200000D01*
G01*
X138350000Y-103050000D01*
G75*
G02*
X138550000Y-102850000I200000J0D01*
G01*
G37*
G36*
G01*
X131550000Y-107405000D02*
X131550000Y-106905000D01*
G75*
G02*
X131800000Y-106655000I250000J0D01*
G01*
X133650000Y-106655000D01*
G75*
G02*
X133900000Y-106905000I0J-250000D01*
G01*
X133900000Y-107405000D01*
G75*
G02*
X133650000Y-107655000I-250000J0D01*
G01*
X131800000Y-107655000D01*
G75*
G02*
X131550000Y-107405000I0J250000D01*
G01*
G37*
G36*
G01*
X131550000Y-106135000D02*
X131550000Y-105635000D01*
G75*
G02*
X131800000Y-105385000I250000J0D01*
G01*
X133650000Y-105385000D01*
G75*
G02*
X133900000Y-105635000I0J-250000D01*
G01*
X133900000Y-106135000D01*
G75*
G02*
X133650000Y-106385000I-250000J0D01*
G01*
X131800000Y-106385000D01*
G75*
G02*
X131550000Y-106135000I0J250000D01*
G01*
G37*
G36*
G01*
X131550000Y-104865000D02*
X131550000Y-104365000D01*
G75*
G02*
X131800000Y-104115000I250000J0D01*
G01*
X133650000Y-104115000D01*
G75*
G02*
X133900000Y-104365000I0J-250000D01*
G01*
X133900000Y-104865000D01*
G75*
G02*
X133650000Y-105115000I-250000J0D01*
G01*
X131800000Y-105115000D01*
G75*
G02*
X131550000Y-104865000I0J250000D01*
G01*
G37*
G36*
G01*
X131550000Y-103595000D02*
X131550000Y-103095000D01*
G75*
G02*
X131800000Y-102845000I250000J0D01*
G01*
X133650000Y-102845000D01*
G75*
G02*
X133900000Y-103095000I0J-250000D01*
G01*
X133900000Y-103595000D01*
G75*
G02*
X133650000Y-103845000I-250000J0D01*
G01*
X131800000Y-103845000D01*
G75*
G02*
X131550000Y-103595000I0J250000D01*
G01*
G37*
G36*
G01*
X126600000Y-103595000D02*
X126600000Y-103095000D01*
G75*
G02*
X126850000Y-102845000I250000J0D01*
G01*
X128700000Y-102845000D01*
G75*
G02*
X128950000Y-103095000I0J-250000D01*
G01*
X128950000Y-103595000D01*
G75*
G02*
X128700000Y-103845000I-250000J0D01*
G01*
X126850000Y-103845000D01*
G75*
G02*
X126600000Y-103595000I0J250000D01*
G01*
G37*
G36*
G01*
X126600000Y-104865000D02*
X126600000Y-104365000D01*
G75*
G02*
X126850000Y-104115000I250000J0D01*
G01*
X128700000Y-104115000D01*
G75*
G02*
X128950000Y-104365000I0J-250000D01*
G01*
X128950000Y-104865000D01*
G75*
G02*
X128700000Y-105115000I-250000J0D01*
G01*
X126850000Y-105115000D01*
G75*
G02*
X126600000Y-104865000I0J250000D01*
G01*
G37*
G36*
G01*
X126600000Y-106135000D02*
X126600000Y-105635000D01*
G75*
G02*
X126850000Y-105385000I250000J0D01*
G01*
X128700000Y-105385000D01*
G75*
G02*
X128950000Y-105635000I0J-250000D01*
G01*
X128950000Y-106135000D01*
G75*
G02*
X128700000Y-106385000I-250000J0D01*
G01*
X126850000Y-106385000D01*
G75*
G02*
X126600000Y-106135000I0J250000D01*
G01*
G37*
G36*
G01*
X126600000Y-107405000D02*
X126600000Y-106905000D01*
G75*
G02*
X126850000Y-106655000I250000J0D01*
G01*
X128700000Y-106655000D01*
G75*
G02*
X128950000Y-106905000I0J-250000D01*
G01*
X128950000Y-107405000D01*
G75*
G02*
X128700000Y-107655000I-250000J0D01*
G01*
X126850000Y-107655000D01*
G75*
G02*
X126600000Y-107405000I0J250000D01*
G01*
G37*
D15*
X111450000Y-104650000D03*
X105950000Y-104650000D03*
G36*
G01*
X107670000Y-104600000D02*
X107130000Y-104600000D01*
G75*
G02*
X106890000Y-104360000I0J240000D01*
G01*
X106890000Y-103880000D01*
G75*
G02*
X107130000Y-103640000I240000J0D01*
G01*
X107670000Y-103640000D01*
G75*
G02*
X107910000Y-103880000I0J-240000D01*
G01*
X107910000Y-104360000D01*
G75*
G02*
X107670000Y-104600000I-240000J0D01*
G01*
G37*
G36*
G01*
X107670000Y-105560000D02*
X107130000Y-105560000D01*
G75*
G02*
X106890000Y-105320000I0J240000D01*
G01*
X106890000Y-104840000D01*
G75*
G02*
X107130000Y-104600000I240000J0D01*
G01*
X107670000Y-104600000D01*
G75*
G02*
X107910000Y-104840000I0J-240000D01*
G01*
X107910000Y-105320000D01*
G75*
G02*
X107670000Y-105560000I-240000J0D01*
G01*
G37*
G36*
G01*
X109530000Y-104600000D02*
X110070000Y-104600000D01*
G75*
G02*
X110310000Y-104840000I0J-240000D01*
G01*
X110310000Y-105320000D01*
G75*
G02*
X110070000Y-105560000I-240000J0D01*
G01*
X109530000Y-105560000D01*
G75*
G02*
X109290000Y-105320000I0J240000D01*
G01*
X109290000Y-104840000D01*
G75*
G02*
X109530000Y-104600000I240000J0D01*
G01*
G37*
G36*
G01*
X109530000Y-103640000D02*
X110070000Y-103640000D01*
G75*
G02*
X110310000Y-103880000I0J-240000D01*
G01*
X110310000Y-104360000D01*
G75*
G02*
X110070000Y-104600000I-240000J0D01*
G01*
X109530000Y-104600000D01*
G75*
G02*
X109290000Y-104360000I0J240000D01*
G01*
X109290000Y-103880000D01*
G75*
G02*
X109530000Y-103640000I240000J0D01*
G01*
G37*
G36*
G01*
X104685000Y-104560000D02*
X104115000Y-104560000D01*
G75*
G02*
X103880000Y-104325000I0J235000D01*
G01*
X103880000Y-103855000D01*
G75*
G02*
X104115000Y-103620000I235000J0D01*
G01*
X104685000Y-103620000D01*
G75*
G02*
X104920000Y-103855000I0J-235000D01*
G01*
X104920000Y-104325000D01*
G75*
G02*
X104685000Y-104560000I-235000J0D01*
G01*
G37*
G36*
G01*
X104685000Y-105580000D02*
X104115000Y-105580000D01*
G75*
G02*
X103880000Y-105345000I0J235000D01*
G01*
X103880000Y-104875000D01*
G75*
G02*
X104115000Y-104640000I235000J0D01*
G01*
X104685000Y-104640000D01*
G75*
G02*
X104920000Y-104875000I0J-235000D01*
G01*
X104920000Y-105345000D01*
G75*
G02*
X104685000Y-105580000I-235000J0D01*
G01*
G37*
G36*
G01*
X108050000Y-107450000D02*
X107350000Y-107450000D01*
G75*
G02*
X107150000Y-107250000I0J200000D01*
G01*
X107150000Y-106800000D01*
G75*
G02*
X107350000Y-106600000I200000J0D01*
G01*
X108050000Y-106600000D01*
G75*
G02*
X108250000Y-106800000I0J-200000D01*
G01*
X108250000Y-107250000D01*
G75*
G02*
X108050000Y-107450000I-200000J0D01*
G01*
G37*
G36*
G01*
X106050000Y-106800000D02*
X105350000Y-106800000D01*
G75*
G02*
X105150000Y-106600000I0J200000D01*
G01*
X105150000Y-106150000D01*
G75*
G02*
X105350000Y-105950000I200000J0D01*
G01*
X106050000Y-105950000D01*
G75*
G02*
X106250000Y-106150000I0J-200000D01*
G01*
X106250000Y-106600000D01*
G75*
G02*
X106050000Y-106800000I-200000J0D01*
G01*
G37*
G36*
G01*
X106050000Y-108100000D02*
X105350000Y-108100000D01*
G75*
G02*
X105150000Y-107900000I0J200000D01*
G01*
X105150000Y-107450000D01*
G75*
G02*
X105350000Y-107250000I200000J0D01*
G01*
X106050000Y-107250000D01*
G75*
G02*
X106250000Y-107450000I0J-200000D01*
G01*
X106250000Y-107900000D01*
G75*
G02*
X106050000Y-108100000I-200000J0D01*
G01*
G37*
G36*
G01*
X108870000Y-104600000D02*
X108330000Y-104600000D01*
G75*
G02*
X108090000Y-104360000I0J240000D01*
G01*
X108090000Y-103880000D01*
G75*
G02*
X108330000Y-103640000I240000J0D01*
G01*
X108870000Y-103640000D01*
G75*
G02*
X109110000Y-103880000I0J-240000D01*
G01*
X109110000Y-104360000D01*
G75*
G02*
X108870000Y-104600000I-240000J0D01*
G01*
G37*
G36*
G01*
X108870000Y-105560000D02*
X108330000Y-105560000D01*
G75*
G02*
X108090000Y-105320000I0J240000D01*
G01*
X108090000Y-104840000D01*
G75*
G02*
X108330000Y-104600000I240000J0D01*
G01*
X108870000Y-104600000D01*
G75*
G02*
X109110000Y-104840000I0J-240000D01*
G01*
X109110000Y-105320000D01*
G75*
G02*
X108870000Y-105560000I-240000J0D01*
G01*
G37*
G36*
G01*
X110750000Y-113025000D02*
X110750000Y-114175000D01*
G75*
G02*
X110400000Y-114525000I-350000J0D01*
G01*
X109700000Y-114525000D01*
G75*
G02*
X109350000Y-114175000I0J350000D01*
G01*
X109350000Y-113025000D01*
G75*
G02*
X109700000Y-112675000I350000J0D01*
G01*
X110400000Y-112675000D01*
G75*
G02*
X110750000Y-113025000I0J-350000D01*
G01*
G37*
G36*
G01*
X112650000Y-113025000D02*
X112650000Y-114175000D01*
G75*
G02*
X112300000Y-114525000I-350000J0D01*
G01*
X111600000Y-114525000D01*
G75*
G02*
X111250000Y-114175000I0J350000D01*
G01*
X111250000Y-113025000D01*
G75*
G02*
X111600000Y-112675000I350000J0D01*
G01*
X112300000Y-112675000D01*
G75*
G02*
X112650000Y-113025000I0J-350000D01*
G01*
G37*
G36*
G01*
X113272500Y-104525000D02*
X112727500Y-104525000D01*
G75*
G02*
X112480000Y-104277500I0J247500D01*
G01*
X112480000Y-103782500D01*
G75*
G02*
X112727500Y-103535000I247500J0D01*
G01*
X113272500Y-103535000D01*
G75*
G02*
X113520000Y-103782500I0J-247500D01*
G01*
X113520000Y-104277500D01*
G75*
G02*
X113272500Y-104525000I-247500J0D01*
G01*
G37*
G36*
G01*
X113272500Y-105495000D02*
X112727500Y-105495000D01*
G75*
G02*
X112480000Y-105247500I0J247500D01*
G01*
X112480000Y-104752500D01*
G75*
G02*
X112727500Y-104505000I247500J0D01*
G01*
X113272500Y-104505000D01*
G75*
G02*
X113520000Y-104752500I0J-247500D01*
G01*
X113520000Y-105247500D01*
G75*
G02*
X113272500Y-105495000I-247500J0D01*
G01*
G37*
G36*
G01*
X124998500Y-110738000D02*
X124453500Y-110738000D01*
G75*
G02*
X124206000Y-110490500I0J247500D01*
G01*
X124206000Y-109995500D01*
G75*
G02*
X124453500Y-109748000I247500J0D01*
G01*
X124998500Y-109748000D01*
G75*
G02*
X125246000Y-109995500I0J-247500D01*
G01*
X125246000Y-110490500D01*
G75*
G02*
X124998500Y-110738000I-247500J0D01*
G01*
G37*
G36*
G01*
X124998500Y-111708000D02*
X124453500Y-111708000D01*
G75*
G02*
X124206000Y-111460500I0J247500D01*
G01*
X124206000Y-110965500D01*
G75*
G02*
X124453500Y-110718000I247500J0D01*
G01*
X124998500Y-110718000D01*
G75*
G02*
X125246000Y-110965500I0J-247500D01*
G01*
X125246000Y-111460500D01*
G75*
G02*
X124998500Y-111708000I-247500J0D01*
G01*
G37*
G36*
G01*
X132577500Y-110718000D02*
X133122500Y-110718000D01*
G75*
G02*
X133370000Y-110965500I0J-247500D01*
G01*
X133370000Y-111460500D01*
G75*
G02*
X133122500Y-111708000I-247500J0D01*
G01*
X132577500Y-111708000D01*
G75*
G02*
X132330000Y-111460500I0J247500D01*
G01*
X132330000Y-110965500D01*
G75*
G02*
X132577500Y-110718000I247500J0D01*
G01*
G37*
G36*
G01*
X132577500Y-109748000D02*
X133122500Y-109748000D01*
G75*
G02*
X133370000Y-109995500I0J-247500D01*
G01*
X133370000Y-110490500D01*
G75*
G02*
X133122500Y-110738000I-247500J0D01*
G01*
X132577500Y-110738000D01*
G75*
G02*
X132330000Y-110490500I0J247500D01*
G01*
X132330000Y-109995500D01*
G75*
G02*
X132577500Y-109748000I247500J0D01*
G01*
G37*
G36*
G01*
X117775000Y-107075000D02*
X117775000Y-107525000D01*
G75*
G02*
X117575000Y-107725000I-200000J0D01*
G01*
X116125000Y-107725000D01*
G75*
G02*
X115925000Y-107525000I0J200000D01*
G01*
X115925000Y-107075000D01*
G75*
G02*
X116125000Y-106875000I200000J0D01*
G01*
X117575000Y-106875000D01*
G75*
G02*
X117775000Y-107075000I0J-200000D01*
G01*
G37*
G36*
G01*
X117775000Y-107725000D02*
X117775000Y-108175000D01*
G75*
G02*
X117575000Y-108375000I-200000J0D01*
G01*
X116125000Y-108375000D01*
G75*
G02*
X115925000Y-108175000I0J200000D01*
G01*
X115925000Y-107725000D01*
G75*
G02*
X116125000Y-107525000I200000J0D01*
G01*
X117575000Y-107525000D01*
G75*
G02*
X117775000Y-107725000I0J-200000D01*
G01*
G37*
G36*
G01*
X117775000Y-108375000D02*
X117775000Y-108825000D01*
G75*
G02*
X117575000Y-109025000I-200000J0D01*
G01*
X116125000Y-109025000D01*
G75*
G02*
X115925000Y-108825000I0J200000D01*
G01*
X115925000Y-108375000D01*
G75*
G02*
X116125000Y-108175000I200000J0D01*
G01*
X117575000Y-108175000D01*
G75*
G02*
X117775000Y-108375000I0J-200000D01*
G01*
G37*
G36*
G01*
X117775000Y-109025000D02*
X117775000Y-109475000D01*
G75*
G02*
X117575000Y-109675000I-200000J0D01*
G01*
X116125000Y-109675000D01*
G75*
G02*
X115925000Y-109475000I0J200000D01*
G01*
X115925000Y-109025000D01*
G75*
G02*
X116125000Y-108825000I200000J0D01*
G01*
X117575000Y-108825000D01*
G75*
G02*
X117775000Y-109025000I0J-200000D01*
G01*
G37*
G36*
G01*
X117775000Y-109675000D02*
X117775000Y-110125000D01*
G75*
G02*
X117575000Y-110325000I-200000J0D01*
G01*
X116125000Y-110325000D01*
G75*
G02*
X115925000Y-110125000I0J200000D01*
G01*
X115925000Y-109675000D01*
G75*
G02*
X116125000Y-109475000I200000J0D01*
G01*
X117575000Y-109475000D01*
G75*
G02*
X117775000Y-109675000I0J-200000D01*
G01*
G37*
G36*
G01*
X117775000Y-110325000D02*
X117775000Y-110775000D01*
G75*
G02*
X117575000Y-110975000I-200000J0D01*
G01*
X116125000Y-110975000D01*
G75*
G02*
X115925000Y-110775000I0J200000D01*
G01*
X115925000Y-110325000D01*
G75*
G02*
X116125000Y-110125000I200000J0D01*
G01*
X117575000Y-110125000D01*
G75*
G02*
X117775000Y-110325000I0J-200000D01*
G01*
G37*
G36*
G01*
X117775000Y-110975000D02*
X117775000Y-111425000D01*
G75*
G02*
X117575000Y-111625000I-200000J0D01*
G01*
X116125000Y-111625000D01*
G75*
G02*
X115925000Y-111425000I0J200000D01*
G01*
X115925000Y-110975000D01*
G75*
G02*
X116125000Y-110775000I200000J0D01*
G01*
X117575000Y-110775000D01*
G75*
G02*
X117775000Y-110975000I0J-200000D01*
G01*
G37*
G36*
G01*
X123675000Y-110975000D02*
X123675000Y-111425000D01*
G75*
G02*
X123475000Y-111625000I-200000J0D01*
G01*
X122025000Y-111625000D01*
G75*
G02*
X121825000Y-111425000I0J200000D01*
G01*
X121825000Y-110975000D01*
G75*
G02*
X122025000Y-110775000I200000J0D01*
G01*
X123475000Y-110775000D01*
G75*
G02*
X123675000Y-110975000I0J-200000D01*
G01*
G37*
G36*
G01*
X123675000Y-110325000D02*
X123675000Y-110775000D01*
G75*
G02*
X123475000Y-110975000I-200000J0D01*
G01*
X122025000Y-110975000D01*
G75*
G02*
X121825000Y-110775000I0J200000D01*
G01*
X121825000Y-110325000D01*
G75*
G02*
X122025000Y-110125000I200000J0D01*
G01*
X123475000Y-110125000D01*
G75*
G02*
X123675000Y-110325000I0J-200000D01*
G01*
G37*
G36*
G01*
X123675000Y-109675000D02*
X123675000Y-110125000D01*
G75*
G02*
X123475000Y-110325000I-200000J0D01*
G01*
X122025000Y-110325000D01*
G75*
G02*
X121825000Y-110125000I0J200000D01*
G01*
X121825000Y-109675000D01*
G75*
G02*
X122025000Y-109475000I200000J0D01*
G01*
X123475000Y-109475000D01*
G75*
G02*
X123675000Y-109675000I0J-200000D01*
G01*
G37*
G36*
G01*
X123675000Y-109025000D02*
X123675000Y-109475000D01*
G75*
G02*
X123475000Y-109675000I-200000J0D01*
G01*
X122025000Y-109675000D01*
G75*
G02*
X121825000Y-109475000I0J200000D01*
G01*
X121825000Y-109025000D01*
G75*
G02*
X122025000Y-108825000I200000J0D01*
G01*
X123475000Y-108825000D01*
G75*
G02*
X123675000Y-109025000I0J-200000D01*
G01*
G37*
G36*
G01*
X123675000Y-108375000D02*
X123675000Y-108825000D01*
G75*
G02*
X123475000Y-109025000I-200000J0D01*
G01*
X122025000Y-109025000D01*
G75*
G02*
X121825000Y-108825000I0J200000D01*
G01*
X121825000Y-108375000D01*
G75*
G02*
X122025000Y-108175000I200000J0D01*
G01*
X123475000Y-108175000D01*
G75*
G02*
X123675000Y-108375000I0J-200000D01*
G01*
G37*
G36*
G01*
X123675000Y-107725000D02*
X123675000Y-108175000D01*
G75*
G02*
X123475000Y-108375000I-200000J0D01*
G01*
X122025000Y-108375000D01*
G75*
G02*
X121825000Y-108175000I0J200000D01*
G01*
X121825000Y-107725000D01*
G75*
G02*
X122025000Y-107525000I200000J0D01*
G01*
X123475000Y-107525000D01*
G75*
G02*
X123675000Y-107725000I0J-200000D01*
G01*
G37*
G36*
G01*
X123675000Y-107075000D02*
X123675000Y-107525000D01*
G75*
G02*
X123475000Y-107725000I-200000J0D01*
G01*
X122025000Y-107725000D01*
G75*
G02*
X121825000Y-107525000I0J200000D01*
G01*
X121825000Y-107075000D01*
G75*
G02*
X122025000Y-106875000I200000J0D01*
G01*
X123475000Y-106875000D01*
G75*
G02*
X123675000Y-107075000I0J-200000D01*
G01*
G37*
D14*
X118140000Y-103750000D03*
G36*
G01*
X116450000Y-104800000D02*
X114750000Y-104800000D01*
G75*
G02*
X114550000Y-104600000I0J200000D01*
G01*
X114550000Y-102900000D01*
G75*
G02*
X114750000Y-102700000I200000J0D01*
G01*
X116450000Y-102700000D01*
G75*
G02*
X116650000Y-102900000I0J-200000D01*
G01*
X116650000Y-104600000D01*
G75*
G02*
X116450000Y-104800000I-200000J0D01*
G01*
G37*
X101800000Y-106340000D03*
G36*
G01*
X100750000Y-104650000D02*
X100750000Y-102950000D01*
G75*
G02*
X100950000Y-102750000I200000J0D01*
G01*
X102650000Y-102750000D01*
G75*
G02*
X102850000Y-102950000I0J-200000D01*
G01*
X102850000Y-104650000D01*
G75*
G02*
X102650000Y-104850000I-200000J0D01*
G01*
X100950000Y-104850000D01*
G75*
G02*
X100750000Y-104650000I0J200000D01*
G01*
G37*
G36*
G01*
X130820000Y-114150000D02*
X132520000Y-114150000D01*
G75*
G02*
X132720000Y-114350000I0J-200000D01*
G01*
X132720000Y-116050000D01*
G75*
G02*
X132520000Y-116250000I-200000J0D01*
G01*
X130820000Y-116250000D01*
G75*
G02*
X130620000Y-116050000I0J200000D01*
G01*
X130620000Y-114350000D01*
G75*
G02*
X130820000Y-114150000I200000J0D01*
G01*
G37*
X129130000Y-115200000D03*
X126590000Y-115200000D03*
X124050000Y-115200000D03*
M02*
