G04 #@! TF.GenerationSoftware,KiCad,Pcbnew,(5.1.9)-1*
G04 #@! TF.CreationDate,2021-06-25T11:42:05+10:00*
G04 #@! TF.ProjectId,microBoSL,6d696372-6f42-46f5-934c-2e6b69636164,0.2.3*
G04 #@! TF.SameCoordinates,Original*
G04 #@! TF.FileFunction,Copper,L2,Inr*
G04 #@! TF.FilePolarity,Positive*
%FSLAX46Y46*%
G04 Gerber Fmt 4.6, Leading zero omitted, Abs format (unit mm)*
G04 Created by KiCad (PCBNEW (5.1.9)-1) date 2021-06-25 11:42:05*
%MOMM*%
%LPD*%
G01*
G04 APERTURE LIST*
G04 #@! TA.AperFunction,ComponentPad*
%ADD10O,1.100000X2.200000*%
G04 #@! TD*
G04 #@! TA.AperFunction,ComponentPad*
%ADD11O,1.100000X1.800000*%
G04 #@! TD*
G04 #@! TA.AperFunction,ComponentPad*
%ADD12O,1.000000X1.000000*%
G04 #@! TD*
G04 #@! TA.AperFunction,ComponentPad*
%ADD13R,1.000000X1.000000*%
G04 #@! TD*
G04 #@! TA.AperFunction,ComponentPad*
%ADD14O,1.350000X1.350000*%
G04 #@! TD*
G04 #@! TA.AperFunction,ComponentPad*
%ADD15R,1.350000X1.350000*%
G04 #@! TD*
G04 #@! TA.AperFunction,ComponentPad*
%ADD16O,1.700000X1.700000*%
G04 #@! TD*
G04 #@! TA.AperFunction,ComponentPad*
%ADD17R,1.700000X1.700000*%
G04 #@! TD*
G04 #@! TA.AperFunction,WasherPad*
%ADD18C,0.850000*%
G04 #@! TD*
G04 #@! TA.AperFunction,ViaPad*
%ADD19C,0.600000*%
G04 #@! TD*
G04 #@! TA.AperFunction,ViaPad*
%ADD20C,0.500000*%
G04 #@! TD*
G04 #@! TA.AperFunction,Conductor*
%ADD21C,0.250000*%
G04 #@! TD*
G04 #@! TA.AperFunction,Conductor*
%ADD22C,0.400000*%
G04 #@! TD*
G04 #@! TA.AperFunction,Conductor*
%ADD23C,0.320000*%
G04 #@! TD*
G04 #@! TA.AperFunction,Conductor*
%ADD24C,0.160000*%
G04 #@! TD*
G04 #@! TA.AperFunction,Conductor*
%ADD25C,0.254000*%
G04 #@! TD*
G04 #@! TA.AperFunction,Conductor*
%ADD26C,0.100000*%
G04 #@! TD*
G04 APERTURE END LIST*
D10*
X101125000Y-112450000D03*
D11*
X103275000Y-115250000D03*
X103275000Y-109650000D03*
D12*
X121500000Y-113500000D03*
X120230000Y-113500000D03*
X118960000Y-113500000D03*
D13*
X117690000Y-113500000D03*
D14*
X143500000Y-107500000D03*
X143500000Y-105500000D03*
D15*
X143500000Y-103500000D03*
D14*
X141000000Y-107500000D03*
X141000000Y-105500000D03*
D15*
X141000000Y-103500000D03*
D14*
X120700000Y-103500000D03*
X122700000Y-103500000D03*
D15*
X124700000Y-103500000D03*
D14*
X121500000Y-115500000D03*
X119500000Y-115500000D03*
D15*
X117500000Y-115500000D03*
D16*
X143440000Y-115200000D03*
D17*
X140900000Y-115200000D03*
D16*
X143440000Y-111700000D03*
D17*
X140900000Y-111700000D03*
D12*
X135860000Y-105200000D03*
X137130000Y-105200000D03*
D13*
X138400000Y-105200000D03*
D12*
X135240000Y-103550000D03*
X136510000Y-103550000D03*
X137780000Y-103550000D03*
D13*
X139050000Y-103550000D03*
D18*
X111450000Y-104650000D03*
X105950000Y-104650000D03*
D16*
X118140000Y-103750000D03*
D17*
X115600000Y-103750000D03*
D16*
X101800000Y-106340000D03*
D17*
X101800000Y-103800000D03*
X131670000Y-115200000D03*
D16*
X129130000Y-115200000D03*
X126590000Y-115200000D03*
X124050000Y-115200000D03*
D19*
X106200000Y-103599998D03*
D20*
X101200000Y-114800000D03*
D19*
X107876276Y-112583774D03*
X108982540Y-113607424D03*
X116350000Y-106250000D03*
X124500000Y-112200000D03*
X121958058Y-112158058D03*
X129549823Y-108749871D03*
X130700000Y-103470000D03*
D20*
X140050000Y-109100000D03*
X138100000Y-116250000D03*
D19*
X101400000Y-109550000D03*
X106875000Y-108625000D03*
X136200006Y-111200000D03*
X134050000Y-104750000D03*
D20*
X116200000Y-105450000D03*
D19*
X133569990Y-109380010D03*
D20*
X127145396Y-102525010D03*
X113000000Y-102800000D03*
X106850000Y-116250000D03*
D19*
X104400000Y-110000000D03*
D20*
X124168252Y-106805260D03*
X126293720Y-103229980D03*
X124700000Y-106350000D03*
X125960414Y-102600000D03*
X130552322Y-106362118D03*
X124300000Y-109100000D03*
X121524767Y-110824767D03*
X129848904Y-106362762D03*
X124949061Y-108569293D03*
X104400000Y-111800000D03*
X104400000Y-113600000D03*
X114400000Y-110650000D03*
X111650000Y-112350000D03*
X119500000Y-109800000D03*
X110725000Y-106075000D03*
D19*
X105200000Y-115200000D03*
X114382500Y-115017500D03*
D20*
X114500000Y-107900000D03*
X125476000Y-110243000D03*
X132539921Y-109300158D03*
D19*
X130200000Y-105700010D03*
X137400000Y-111200000D03*
X125818347Y-106300021D03*
X109752785Y-108073607D03*
D20*
X125325221Y-112474770D03*
X133650097Y-111159883D03*
X121100000Y-109350000D03*
X108600000Y-105775000D03*
X112100000Y-111700000D03*
X114294140Y-107230953D03*
D19*
X131000000Y-105600000D03*
D20*
X108800000Y-107549990D03*
X104400000Y-105110000D03*
X110800000Y-115200001D03*
X119100000Y-111150000D03*
X134580332Y-105280332D03*
X132773448Y-112650536D03*
X132375000Y-112075000D03*
X133071921Y-112009288D03*
X134764780Y-107030256D03*
X127775000Y-113050000D03*
X125649710Y-113095020D03*
X128300000Y-103345000D03*
X129326136Y-113051136D03*
X128939987Y-112427843D03*
X132700000Y-103300000D03*
X135300000Y-111900000D03*
X126100000Y-108550000D03*
X125500000Y-107600000D03*
X135450523Y-106889640D03*
X128587697Y-113032747D03*
X132900000Y-108699870D03*
X130075000Y-113075000D03*
D21*
X120050001Y-102499999D02*
X119650000Y-102900000D01*
D22*
X130419999Y-116450001D02*
X131670000Y-115200000D01*
X127840001Y-116450001D02*
X130419999Y-116450001D01*
X126590000Y-115200000D02*
X127840001Y-116450001D01*
D23*
X125254999Y-116535001D02*
X126590000Y-115200000D01*
X120535001Y-116535001D02*
X120885001Y-116535001D01*
X119500000Y-115500000D02*
X120535001Y-116535001D01*
X120885001Y-116535001D02*
X125254999Y-116535001D01*
D21*
X121699999Y-102499999D02*
X122700000Y-103500000D01*
X120050001Y-102499999D02*
X121699999Y-102499999D01*
D22*
X133619016Y-109330984D02*
X133569990Y-109380010D01*
X133619016Y-105180984D02*
X133619016Y-109330984D01*
X134050000Y-104750000D02*
X133619016Y-105180984D01*
D24*
X126300000Y-105375000D02*
X126300000Y-103236260D01*
X126800000Y-105875000D02*
X126300000Y-105375000D01*
X126800000Y-107090598D02*
X126800000Y-105875000D01*
X125760597Y-108130001D02*
X126800000Y-107090598D01*
X126300000Y-103236260D02*
X126293720Y-103229980D01*
X125245599Y-108130001D02*
X125760597Y-108130001D01*
X124168252Y-107052654D02*
X125245599Y-108130001D01*
X124168252Y-106805260D02*
X124168252Y-107052654D01*
X124700000Y-106350000D02*
X125400000Y-107050000D01*
X126420002Y-106021620D02*
X125710415Y-105312033D01*
X125710415Y-105312033D02*
X125710415Y-102849999D01*
X126420002Y-106578422D02*
X126420002Y-106021620D01*
X125948424Y-107050000D02*
X126420002Y-106578422D01*
X125710415Y-102849999D02*
X125960414Y-102600000D01*
X125400000Y-107050000D02*
X125948424Y-107050000D01*
D22*
X124337998Y-105700000D02*
X125218326Y-105700000D01*
X123518251Y-112618251D02*
X123518251Y-106519747D01*
X124645021Y-113745021D02*
X123518251Y-112618251D01*
X127675021Y-113745021D02*
X124645021Y-113745021D01*
X129130000Y-115200000D02*
X127675021Y-113745021D01*
X123518251Y-106519747D02*
X124337998Y-105700000D01*
X125218326Y-105700000D02*
X125818347Y-106300021D01*
X130638243Y-113949999D02*
X134650001Y-113949999D01*
X134650001Y-113949999D02*
X137400000Y-111200000D01*
X129388242Y-115200000D02*
X130638243Y-113949999D01*
X129130000Y-115200000D02*
X129388242Y-115200000D01*
D24*
X134234770Y-105625894D02*
X134580332Y-105280332D01*
X134234770Y-111630841D02*
X134234770Y-111490230D01*
X133215075Y-112650536D02*
X134234770Y-111630841D01*
X132773448Y-112650536D02*
X133215075Y-112650536D01*
X134234770Y-111490230D02*
X134234770Y-105625894D01*
X132775000Y-107175002D02*
X131610011Y-108339991D01*
X134630001Y-102770000D02*
X132775001Y-104625000D01*
X137000000Y-102770000D02*
X134630001Y-102770000D01*
X131610011Y-111310011D02*
X132375000Y-112075000D01*
X131610011Y-108339991D02*
X131610011Y-111310011D01*
X137780000Y-103550000D02*
X137000000Y-102770000D01*
X132775001Y-104625000D02*
X132775000Y-107175002D01*
X138230002Y-104369998D02*
X134578402Y-104369998D01*
X131970022Y-110907389D02*
X133071921Y-112009288D01*
X131970022Y-108489112D02*
X131970022Y-110907389D01*
X133135011Y-104806585D02*
X133135010Y-107324124D01*
X134378402Y-104169998D02*
X133771598Y-104169998D01*
X133135010Y-107324124D02*
X131970022Y-108489112D01*
X134578402Y-104369998D02*
X134378402Y-104169998D01*
X133771598Y-104169998D02*
X133135011Y-104806585D01*
X139050000Y-103550000D02*
X138230002Y-104369998D01*
X128337102Y-113612102D02*
X127775000Y-113050000D01*
X130297302Y-113612102D02*
X128337102Y-113612102D01*
X130439416Y-113469988D02*
X130297302Y-113612102D01*
X132905012Y-113469988D02*
X130439416Y-113469988D01*
X134764780Y-111610220D02*
X132905012Y-113469988D01*
X134764780Y-107030256D02*
X134764780Y-111610220D01*
X128300000Y-103345000D02*
X128300000Y-110815598D01*
X128300000Y-110815598D02*
X129576135Y-112091733D01*
X129576135Y-112091733D02*
X129576135Y-112801137D01*
X129576135Y-112801137D02*
X129326136Y-113051136D01*
X128689988Y-112177844D02*
X128939987Y-112427843D01*
X127625000Y-103175000D02*
X127625000Y-111112856D01*
X128030002Y-102769998D02*
X127625000Y-103175000D01*
X132169998Y-102769998D02*
X128030002Y-102769998D01*
X127625000Y-111112856D02*
X128689988Y-112177844D01*
X132700000Y-103300000D02*
X132169998Y-102769998D01*
X122950000Y-105750000D02*
X120700000Y-103500000D01*
X122950000Y-114050000D02*
X122950000Y-105750000D01*
X121500000Y-115500000D02*
X122950000Y-114050000D01*
D22*
X124700000Y-103500000D02*
X124291002Y-103500000D01*
D24*
X141000000Y-103500000D02*
X143500000Y-103500000D01*
X131250000Y-111900000D02*
X130075000Y-113075000D01*
X131250000Y-108190870D02*
X131250000Y-111900000D01*
X132414990Y-107025880D02*
X131250000Y-108190870D01*
X132414990Y-104475879D02*
X132414990Y-107025880D01*
X139909989Y-102409989D02*
X134480880Y-102409989D01*
X141000000Y-103500000D02*
X139909989Y-102409989D01*
X134480880Y-102409989D02*
X132414990Y-104475879D01*
D25*
X112300938Y-102587942D02*
X112273000Y-102728397D01*
X112273000Y-102871603D01*
X112300938Y-103012058D01*
X112355741Y-103144364D01*
X112435302Y-103263436D01*
X112536564Y-103364698D01*
X112655636Y-103444259D01*
X112787942Y-103499062D01*
X112928397Y-103527000D01*
X113071603Y-103527000D01*
X113212058Y-103499062D01*
X113344364Y-103444259D01*
X113463436Y-103364698D01*
X113564698Y-103263436D01*
X113644259Y-103144364D01*
X113699062Y-103012058D01*
X113727000Y-102871603D01*
X113727000Y-102728397D01*
X113699062Y-102587942D01*
X113684174Y-102552000D01*
X114422142Y-102552000D01*
X114411079Y-102561079D01*
X114351471Y-102633711D01*
X114307178Y-102716577D01*
X114279903Y-102806492D01*
X114270693Y-102900000D01*
X114270693Y-104600000D01*
X114279903Y-104693508D01*
X114307178Y-104783423D01*
X114351471Y-104866289D01*
X114411079Y-104938921D01*
X114483711Y-104998529D01*
X114566577Y-105042822D01*
X114656492Y-105070097D01*
X114750000Y-105079307D01*
X115573333Y-105079307D01*
X115555741Y-105105636D01*
X115500938Y-105237942D01*
X115473000Y-105378397D01*
X115473000Y-105521603D01*
X115500938Y-105662058D01*
X115555741Y-105794364D01*
X115635302Y-105913436D01*
X115736564Y-106014698D01*
X115855636Y-106094259D01*
X115987942Y-106149062D01*
X116128397Y-106177000D01*
X116271603Y-106177000D01*
X116412058Y-106149062D01*
X116544364Y-106094259D01*
X116663436Y-106014698D01*
X116764698Y-105913436D01*
X116844259Y-105794364D01*
X116899062Y-105662058D01*
X116927000Y-105521603D01*
X116927000Y-105378397D01*
X116899062Y-105237942D01*
X116844259Y-105105636D01*
X116764698Y-104986564D01*
X116749449Y-104971315D01*
X116788921Y-104938921D01*
X116848529Y-104866289D01*
X116892822Y-104783423D01*
X116920097Y-104693508D01*
X116929307Y-104600000D01*
X116929307Y-104294746D01*
X116964028Y-104378570D01*
X117109252Y-104595913D01*
X117294087Y-104780748D01*
X117511430Y-104925972D01*
X117752928Y-105026004D01*
X118009302Y-105077000D01*
X118270698Y-105077000D01*
X118527072Y-105026004D01*
X118768570Y-104925972D01*
X118985913Y-104780748D01*
X119170748Y-104595913D01*
X119315972Y-104378570D01*
X119416004Y-104137072D01*
X119467000Y-103880698D01*
X119467000Y-103619302D01*
X119416004Y-103362928D01*
X119315972Y-103121430D01*
X119170748Y-102904087D01*
X118985913Y-102719252D01*
X118768570Y-102574028D01*
X118715390Y-102552000D01*
X120045237Y-102552000D01*
X119965643Y-102605183D01*
X119805183Y-102765643D01*
X119679111Y-102954323D01*
X119592271Y-103163974D01*
X119548000Y-103386538D01*
X119548000Y-103613462D01*
X119592271Y-103836026D01*
X119679111Y-104045677D01*
X119805183Y-104234357D01*
X119965643Y-104394817D01*
X120154323Y-104520889D01*
X120363974Y-104607729D01*
X120586538Y-104652000D01*
X120813462Y-104652000D01*
X121022669Y-104610386D01*
X122393001Y-105980718D01*
X122393000Y-113102870D01*
X122365806Y-113037217D01*
X122258885Y-112877199D01*
X122122801Y-112741115D01*
X121962783Y-112634194D01*
X121784980Y-112560546D01*
X121596226Y-112523000D01*
X121403774Y-112523000D01*
X121215020Y-112560546D01*
X121037217Y-112634194D01*
X120993310Y-112663532D01*
X120972020Y-112641135D01*
X120790206Y-112512877D01*
X120586864Y-112422554D01*
X120531874Y-112405881D01*
X120357000Y-112532046D01*
X120357000Y-113373000D01*
X120377000Y-113373000D01*
X120377000Y-113627000D01*
X120357000Y-113627000D01*
X120357000Y-113647000D01*
X120103000Y-113647000D01*
X120103000Y-113627000D01*
X120083000Y-113627000D01*
X120083000Y-113373000D01*
X120103000Y-113373000D01*
X120103000Y-112532046D01*
X119928126Y-112405881D01*
X119873136Y-112422554D01*
X119669794Y-112512877D01*
X119487980Y-112641135D01*
X119466690Y-112663532D01*
X119422783Y-112634194D01*
X119244980Y-112560546D01*
X119056226Y-112523000D01*
X118863774Y-112523000D01*
X118675020Y-112560546D01*
X118497217Y-112634194D01*
X118496635Y-112634583D01*
X118456289Y-112601471D01*
X118373423Y-112557178D01*
X118283508Y-112529903D01*
X118190000Y-112520693D01*
X117190000Y-112520693D01*
X117096492Y-112529903D01*
X117006577Y-112557178D01*
X116923711Y-112601471D01*
X116851079Y-112661079D01*
X116791471Y-112733711D01*
X116747178Y-112816577D01*
X116719903Y-112906492D01*
X116710693Y-113000000D01*
X116710693Y-114000000D01*
X116719903Y-114093508D01*
X116747178Y-114183423D01*
X116791471Y-114266289D01*
X116851079Y-114338921D01*
X116859331Y-114345693D01*
X116825000Y-114345693D01*
X116731492Y-114354903D01*
X116641577Y-114382178D01*
X116558711Y-114426471D01*
X116486079Y-114486079D01*
X116426471Y-114558711D01*
X116382178Y-114641577D01*
X116354903Y-114731492D01*
X116345693Y-114825000D01*
X116345693Y-116175000D01*
X116354903Y-116268508D01*
X116382178Y-116358423D01*
X116426471Y-116441289D01*
X116431979Y-116448000D01*
X107551858Y-116448000D01*
X107577000Y-116321603D01*
X107577000Y-116178397D01*
X107549062Y-116037942D01*
X107494259Y-115905636D01*
X107414698Y-115786564D01*
X107313436Y-115685302D01*
X107194364Y-115605741D01*
X107062058Y-115550938D01*
X106921603Y-115523000D01*
X106778397Y-115523000D01*
X106637942Y-115550938D01*
X106505636Y-115605741D01*
X106386564Y-115685302D01*
X106285302Y-115786564D01*
X106205741Y-115905636D01*
X106150938Y-116037942D01*
X106123000Y-116178397D01*
X106123000Y-116321603D01*
X106148142Y-116448000D01*
X103860578Y-116448000D01*
X104004712Y-116329712D01*
X104133051Y-116173331D01*
X104228415Y-115994917D01*
X104287140Y-115801327D01*
X104302000Y-115650451D01*
X104302000Y-115123472D01*
X104423000Y-115123472D01*
X104423000Y-115276528D01*
X104452859Y-115426643D01*
X104511431Y-115568048D01*
X104596464Y-115695309D01*
X104704691Y-115803536D01*
X104831952Y-115888569D01*
X104973357Y-115947141D01*
X105123472Y-115977000D01*
X105276528Y-115977000D01*
X105426643Y-115947141D01*
X105568048Y-115888569D01*
X105695309Y-115803536D01*
X105803536Y-115695309D01*
X105888569Y-115568048D01*
X105947141Y-115426643D01*
X105977000Y-115276528D01*
X105977000Y-115128398D01*
X110073000Y-115128398D01*
X110073000Y-115271604D01*
X110100938Y-115412059D01*
X110155741Y-115544365D01*
X110235302Y-115663437D01*
X110336564Y-115764699D01*
X110455636Y-115844260D01*
X110587942Y-115899063D01*
X110728397Y-115927001D01*
X110871603Y-115927001D01*
X111012058Y-115899063D01*
X111144364Y-115844260D01*
X111263436Y-115764699D01*
X111364698Y-115663437D01*
X111444259Y-115544365D01*
X111499062Y-115412059D01*
X111527000Y-115271604D01*
X111527000Y-115128398D01*
X111499062Y-114987943D01*
X111479606Y-114940972D01*
X113605500Y-114940972D01*
X113605500Y-115094028D01*
X113635359Y-115244143D01*
X113693931Y-115385548D01*
X113778964Y-115512809D01*
X113887191Y-115621036D01*
X114014452Y-115706069D01*
X114155857Y-115764641D01*
X114305972Y-115794500D01*
X114459028Y-115794500D01*
X114609143Y-115764641D01*
X114750548Y-115706069D01*
X114877809Y-115621036D01*
X114986036Y-115512809D01*
X115071069Y-115385548D01*
X115129641Y-115244143D01*
X115159500Y-115094028D01*
X115159500Y-114940972D01*
X115129641Y-114790857D01*
X115071069Y-114649452D01*
X114986036Y-114522191D01*
X114877809Y-114413964D01*
X114750548Y-114328931D01*
X114609143Y-114270359D01*
X114459028Y-114240500D01*
X114305972Y-114240500D01*
X114155857Y-114270359D01*
X114014452Y-114328931D01*
X113887191Y-114413964D01*
X113778964Y-114522191D01*
X113693931Y-114649452D01*
X113635359Y-114790857D01*
X113605500Y-114940972D01*
X111479606Y-114940972D01*
X111444259Y-114855637D01*
X111364698Y-114736565D01*
X111263436Y-114635303D01*
X111144364Y-114555742D01*
X111012058Y-114500939D01*
X110871603Y-114473001D01*
X110728397Y-114473001D01*
X110587942Y-114500939D01*
X110455636Y-114555742D01*
X110336564Y-114635303D01*
X110235302Y-114736565D01*
X110155741Y-114855637D01*
X110100938Y-114987943D01*
X110073000Y-115128398D01*
X105977000Y-115128398D01*
X105977000Y-115123472D01*
X105947141Y-114973357D01*
X105888569Y-114831952D01*
X105803536Y-114704691D01*
X105695309Y-114596464D01*
X105568048Y-114511431D01*
X105426643Y-114452859D01*
X105276528Y-114423000D01*
X105123472Y-114423000D01*
X104973357Y-114452859D01*
X104831952Y-114511431D01*
X104704691Y-114596464D01*
X104596464Y-114704691D01*
X104511431Y-114831952D01*
X104452859Y-114973357D01*
X104423000Y-115123472D01*
X104302000Y-115123472D01*
X104302000Y-114849550D01*
X104287140Y-114698674D01*
X104228415Y-114505083D01*
X104133051Y-114326669D01*
X104070457Y-114250398D01*
X104187942Y-114299062D01*
X104328397Y-114327000D01*
X104471603Y-114327000D01*
X104612058Y-114299062D01*
X104744364Y-114244259D01*
X104863436Y-114164698D01*
X104964698Y-114063436D01*
X105044259Y-113944364D01*
X105099062Y-113812058D01*
X105127000Y-113671603D01*
X105127000Y-113528397D01*
X105099062Y-113387942D01*
X105044259Y-113255636D01*
X104964698Y-113136564D01*
X104863436Y-113035302D01*
X104744364Y-112955741D01*
X104612058Y-112900938D01*
X104471603Y-112873000D01*
X104328397Y-112873000D01*
X104187942Y-112900938D01*
X104055636Y-112955741D01*
X103936564Y-113035302D01*
X103835302Y-113136564D01*
X103755741Y-113255636D01*
X103700938Y-113387942D01*
X103673000Y-113528397D01*
X103673000Y-113671603D01*
X103700938Y-113812058D01*
X103755741Y-113944364D01*
X103805730Y-114019178D01*
X103669917Y-113946585D01*
X103476327Y-113887860D01*
X103275000Y-113868031D01*
X103073674Y-113887860D01*
X102880084Y-113946585D01*
X102701670Y-114041949D01*
X102545289Y-114170288D01*
X102416950Y-114326669D01*
X102321586Y-114505083D01*
X102262860Y-114698673D01*
X102248000Y-114849549D01*
X102248000Y-115650450D01*
X102262860Y-115801326D01*
X102321585Y-115994916D01*
X102416949Y-116173331D01*
X102545288Y-116329712D01*
X102689422Y-116448000D01*
X101027001Y-116448000D01*
X100913497Y-116436871D01*
X100830290Y-116411750D01*
X100753544Y-116370943D01*
X100686189Y-116316010D01*
X100630784Y-116249036D01*
X100589447Y-116172584D01*
X100563744Y-116089550D01*
X100552000Y-115977822D01*
X100552000Y-113858228D01*
X100730083Y-113953415D01*
X100923673Y-114012140D01*
X101125000Y-114031969D01*
X101326326Y-114012140D01*
X101519916Y-113953415D01*
X101698331Y-113858051D01*
X101854712Y-113729712D01*
X101983051Y-113573331D01*
X102078415Y-113394917D01*
X102137140Y-113201327D01*
X102152000Y-113050451D01*
X102152000Y-111849549D01*
X102140068Y-111728397D01*
X103673000Y-111728397D01*
X103673000Y-111871603D01*
X103700938Y-112012058D01*
X103755741Y-112144364D01*
X103835302Y-112263436D01*
X103936564Y-112364698D01*
X104055636Y-112444259D01*
X104187942Y-112499062D01*
X104328397Y-112527000D01*
X104471603Y-112527000D01*
X104612058Y-112499062D01*
X104744364Y-112444259D01*
X104863436Y-112364698D01*
X104949737Y-112278397D01*
X110923000Y-112278397D01*
X110923000Y-112421603D01*
X110950938Y-112562058D01*
X111005741Y-112694364D01*
X111085302Y-112813436D01*
X111186564Y-112914698D01*
X111305636Y-112994259D01*
X111437942Y-113049062D01*
X111578397Y-113077000D01*
X111721603Y-113077000D01*
X111862058Y-113049062D01*
X111994364Y-112994259D01*
X112113436Y-112914698D01*
X112214698Y-112813436D01*
X112294259Y-112694364D01*
X112349062Y-112562058D01*
X112377000Y-112421603D01*
X112377000Y-112372162D01*
X112444364Y-112344259D01*
X112563436Y-112264698D01*
X112664698Y-112163436D01*
X112744259Y-112044364D01*
X112799062Y-111912058D01*
X112827000Y-111771603D01*
X112827000Y-111628397D01*
X112799062Y-111487942D01*
X112744259Y-111355636D01*
X112664698Y-111236564D01*
X112563436Y-111135302D01*
X112444364Y-111055741D01*
X112312058Y-111000938D01*
X112171603Y-110973000D01*
X112028397Y-110973000D01*
X111887942Y-111000938D01*
X111755636Y-111055741D01*
X111636564Y-111135302D01*
X111535302Y-111236564D01*
X111455741Y-111355636D01*
X111400938Y-111487942D01*
X111373000Y-111628397D01*
X111373000Y-111677838D01*
X111305636Y-111705741D01*
X111186564Y-111785302D01*
X111085302Y-111886564D01*
X111005741Y-112005636D01*
X110950938Y-112137942D01*
X110923000Y-112278397D01*
X104949737Y-112278397D01*
X104964698Y-112263436D01*
X105044259Y-112144364D01*
X105099062Y-112012058D01*
X105127000Y-111871603D01*
X105127000Y-111728397D01*
X105099062Y-111587942D01*
X105044259Y-111455636D01*
X104964698Y-111336564D01*
X104863436Y-111235302D01*
X104744364Y-111155741D01*
X104612058Y-111100938D01*
X104471603Y-111073000D01*
X104328397Y-111073000D01*
X104187942Y-111100938D01*
X104055636Y-111155741D01*
X103936564Y-111235302D01*
X103835302Y-111336564D01*
X103755741Y-111455636D01*
X103700938Y-111587942D01*
X103673000Y-111728397D01*
X102140068Y-111728397D01*
X102137140Y-111698673D01*
X102078415Y-111505083D01*
X101983051Y-111326669D01*
X101854712Y-111170288D01*
X101698331Y-111041949D01*
X101519917Y-110946585D01*
X101326327Y-110887860D01*
X101125000Y-110868031D01*
X100923674Y-110887860D01*
X100730084Y-110946585D01*
X100552000Y-111041773D01*
X100552000Y-109249549D01*
X102248000Y-109249549D01*
X102248000Y-110050450D01*
X102262860Y-110201326D01*
X102321585Y-110394916D01*
X102416949Y-110573331D01*
X102545288Y-110729712D01*
X102701669Y-110858051D01*
X102880083Y-110953415D01*
X103073673Y-111012140D01*
X103275000Y-111031969D01*
X103476326Y-111012140D01*
X103669916Y-110953415D01*
X103848331Y-110858051D01*
X104004712Y-110729712D01*
X104036822Y-110690586D01*
X104173357Y-110747141D01*
X104323472Y-110777000D01*
X104476528Y-110777000D01*
X104626643Y-110747141D01*
X104768048Y-110688569D01*
X104895309Y-110603536D01*
X104920448Y-110578397D01*
X113673000Y-110578397D01*
X113673000Y-110721603D01*
X113700938Y-110862058D01*
X113755741Y-110994364D01*
X113835302Y-111113436D01*
X113936564Y-111214698D01*
X114055636Y-111294259D01*
X114187942Y-111349062D01*
X114328397Y-111377000D01*
X114471603Y-111377000D01*
X114612058Y-111349062D01*
X114744364Y-111294259D01*
X114863436Y-111214698D01*
X114964698Y-111113436D01*
X114988110Y-111078397D01*
X118373000Y-111078397D01*
X118373000Y-111221603D01*
X118400938Y-111362058D01*
X118455741Y-111494364D01*
X118535302Y-111613436D01*
X118636564Y-111714698D01*
X118755636Y-111794259D01*
X118887942Y-111849062D01*
X119028397Y-111877000D01*
X119171603Y-111877000D01*
X119312058Y-111849062D01*
X119444364Y-111794259D01*
X119563436Y-111714698D01*
X119664698Y-111613436D01*
X119744259Y-111494364D01*
X119799062Y-111362058D01*
X119827000Y-111221603D01*
X119827000Y-111078397D01*
X119799062Y-110937942D01*
X119744259Y-110805636D01*
X119709199Y-110753164D01*
X120797767Y-110753164D01*
X120797767Y-110896370D01*
X120825705Y-111036825D01*
X120880508Y-111169131D01*
X120960069Y-111288203D01*
X121061331Y-111389465D01*
X121180403Y-111469026D01*
X121312709Y-111523829D01*
X121453164Y-111551767D01*
X121596370Y-111551767D01*
X121736825Y-111523829D01*
X121869131Y-111469026D01*
X121988203Y-111389465D01*
X122089465Y-111288203D01*
X122169026Y-111169131D01*
X122223829Y-111036825D01*
X122251767Y-110896370D01*
X122251767Y-110753164D01*
X122223829Y-110612709D01*
X122169026Y-110480403D01*
X122089465Y-110361331D01*
X121988203Y-110260069D01*
X121869131Y-110180508D01*
X121736825Y-110125705D01*
X121596370Y-110097767D01*
X121453164Y-110097767D01*
X121312709Y-110125705D01*
X121180403Y-110180508D01*
X121061331Y-110260069D01*
X120960069Y-110361331D01*
X120880508Y-110480403D01*
X120825705Y-110612709D01*
X120797767Y-110753164D01*
X119709199Y-110753164D01*
X119664698Y-110686564D01*
X119563436Y-110585302D01*
X119476180Y-110527000D01*
X119571603Y-110527000D01*
X119712058Y-110499062D01*
X119844364Y-110444259D01*
X119963436Y-110364698D01*
X120064698Y-110263436D01*
X120144259Y-110144364D01*
X120199062Y-110012058D01*
X120227000Y-109871603D01*
X120227000Y-109728397D01*
X120199062Y-109587942D01*
X120144259Y-109455636D01*
X120064698Y-109336564D01*
X120006531Y-109278397D01*
X120373000Y-109278397D01*
X120373000Y-109421603D01*
X120400938Y-109562058D01*
X120455741Y-109694364D01*
X120535302Y-109813436D01*
X120636564Y-109914698D01*
X120755636Y-109994259D01*
X120887942Y-110049062D01*
X121028397Y-110077000D01*
X121171603Y-110077000D01*
X121312058Y-110049062D01*
X121444364Y-109994259D01*
X121563436Y-109914698D01*
X121664698Y-109813436D01*
X121744259Y-109694364D01*
X121799062Y-109562058D01*
X121827000Y-109421603D01*
X121827000Y-109278397D01*
X121799062Y-109137942D01*
X121744259Y-109005636D01*
X121664698Y-108886564D01*
X121563436Y-108785302D01*
X121444364Y-108705741D01*
X121312058Y-108650938D01*
X121171603Y-108623000D01*
X121028397Y-108623000D01*
X120887942Y-108650938D01*
X120755636Y-108705741D01*
X120636564Y-108785302D01*
X120535302Y-108886564D01*
X120455741Y-109005636D01*
X120400938Y-109137942D01*
X120373000Y-109278397D01*
X120006531Y-109278397D01*
X119963436Y-109235302D01*
X119844364Y-109155741D01*
X119712058Y-109100938D01*
X119571603Y-109073000D01*
X119428397Y-109073000D01*
X119287942Y-109100938D01*
X119155636Y-109155741D01*
X119036564Y-109235302D01*
X118935302Y-109336564D01*
X118855741Y-109455636D01*
X118800938Y-109587942D01*
X118773000Y-109728397D01*
X118773000Y-109871603D01*
X118800938Y-110012058D01*
X118855741Y-110144364D01*
X118935302Y-110263436D01*
X119036564Y-110364698D01*
X119123820Y-110423000D01*
X119028397Y-110423000D01*
X118887942Y-110450938D01*
X118755636Y-110505741D01*
X118636564Y-110585302D01*
X118535302Y-110686564D01*
X118455741Y-110805636D01*
X118400938Y-110937942D01*
X118373000Y-111078397D01*
X114988110Y-111078397D01*
X115044259Y-110994364D01*
X115099062Y-110862058D01*
X115127000Y-110721603D01*
X115127000Y-110578397D01*
X115099062Y-110437942D01*
X115044259Y-110305636D01*
X114964698Y-110186564D01*
X114863436Y-110085302D01*
X114744364Y-110005741D01*
X114612058Y-109950938D01*
X114471603Y-109923000D01*
X114328397Y-109923000D01*
X114187942Y-109950938D01*
X114055636Y-110005741D01*
X113936564Y-110085302D01*
X113835302Y-110186564D01*
X113755741Y-110305636D01*
X113700938Y-110437942D01*
X113673000Y-110578397D01*
X104920448Y-110578397D01*
X105003536Y-110495309D01*
X105088569Y-110368048D01*
X105147141Y-110226643D01*
X105177000Y-110076528D01*
X105177000Y-109923472D01*
X105147141Y-109773357D01*
X105088569Y-109631952D01*
X105003536Y-109504691D01*
X104895309Y-109396464D01*
X104768048Y-109311431D01*
X104626643Y-109252859D01*
X104476528Y-109223000D01*
X104323472Y-109223000D01*
X104299848Y-109227699D01*
X104287140Y-109098674D01*
X104228415Y-108905083D01*
X104133051Y-108726669D01*
X104004712Y-108570288D01*
X103848331Y-108441949D01*
X103669917Y-108346585D01*
X103476327Y-108287860D01*
X103275000Y-108268031D01*
X103073674Y-108287860D01*
X102880084Y-108346585D01*
X102701670Y-108441949D01*
X102545289Y-108570288D01*
X102416950Y-108726669D01*
X102321586Y-108905083D01*
X102262860Y-109098673D01*
X102248000Y-109249549D01*
X100552000Y-109249549D01*
X100552000Y-106794679D01*
X100624028Y-106968570D01*
X100769252Y-107185913D01*
X100954087Y-107370748D01*
X101171430Y-107515972D01*
X101412928Y-107616004D01*
X101669302Y-107667000D01*
X101930698Y-107667000D01*
X102187072Y-107616004D01*
X102428570Y-107515972D01*
X102484819Y-107478387D01*
X108073000Y-107478387D01*
X108073000Y-107621593D01*
X108100938Y-107762048D01*
X108155741Y-107894354D01*
X108235302Y-108013426D01*
X108336564Y-108114688D01*
X108455636Y-108194249D01*
X108587942Y-108249052D01*
X108728397Y-108276990D01*
X108871603Y-108276990D01*
X108996092Y-108252228D01*
X109005644Y-108300250D01*
X109064216Y-108441655D01*
X109149249Y-108568916D01*
X109257476Y-108677143D01*
X109384737Y-108762176D01*
X109526142Y-108820748D01*
X109676257Y-108850607D01*
X109829313Y-108850607D01*
X109979428Y-108820748D01*
X110120833Y-108762176D01*
X110248094Y-108677143D01*
X110356321Y-108568916D01*
X110441354Y-108441655D01*
X110499926Y-108300250D01*
X110529785Y-108150135D01*
X110529785Y-107997079D01*
X110499926Y-107846964D01*
X110441354Y-107705559D01*
X110356321Y-107578298D01*
X110248094Y-107470071D01*
X110120833Y-107385038D01*
X109979428Y-107326466D01*
X109829313Y-107296607D01*
X109676257Y-107296607D01*
X109526142Y-107326466D01*
X109498974Y-107337719D01*
X109444259Y-107205626D01*
X109413339Y-107159350D01*
X113567140Y-107159350D01*
X113567140Y-107302556D01*
X113595078Y-107443011D01*
X113649881Y-107575317D01*
X113729442Y-107694389D01*
X113788007Y-107752954D01*
X113773000Y-107828397D01*
X113773000Y-107971603D01*
X113800938Y-108112058D01*
X113855741Y-108244364D01*
X113935302Y-108363436D01*
X114036564Y-108464698D01*
X114155636Y-108544259D01*
X114287942Y-108599062D01*
X114428397Y-108627000D01*
X114571603Y-108627000D01*
X114712058Y-108599062D01*
X114844364Y-108544259D01*
X114963436Y-108464698D01*
X115064698Y-108363436D01*
X115144259Y-108244364D01*
X115199062Y-108112058D01*
X115227000Y-107971603D01*
X115227000Y-107828397D01*
X115199062Y-107687942D01*
X115144259Y-107555636D01*
X115064698Y-107436564D01*
X115006133Y-107377999D01*
X115021140Y-107302556D01*
X115021140Y-107159350D01*
X114993202Y-107018895D01*
X114938399Y-106886589D01*
X114858838Y-106767517D01*
X114757576Y-106666255D01*
X114638504Y-106586694D01*
X114506198Y-106531891D01*
X114365743Y-106503953D01*
X114222537Y-106503953D01*
X114082082Y-106531891D01*
X113949776Y-106586694D01*
X113830704Y-106666255D01*
X113729442Y-106767517D01*
X113649881Y-106886589D01*
X113595078Y-107018895D01*
X113567140Y-107159350D01*
X109413339Y-107159350D01*
X109364698Y-107086554D01*
X109263436Y-106985292D01*
X109144364Y-106905731D01*
X109012058Y-106850928D01*
X108871603Y-106822990D01*
X108728397Y-106822990D01*
X108587942Y-106850928D01*
X108455636Y-106905731D01*
X108336564Y-106985292D01*
X108235302Y-107086554D01*
X108155741Y-107205626D01*
X108100938Y-107337932D01*
X108073000Y-107478387D01*
X102484819Y-107478387D01*
X102645913Y-107370748D01*
X102830748Y-107185913D01*
X102975972Y-106968570D01*
X103076004Y-106727072D01*
X103127000Y-106470698D01*
X103127000Y-106209302D01*
X103076004Y-105952928D01*
X102975972Y-105711430D01*
X102830748Y-105494087D01*
X102645913Y-105309252D01*
X102613921Y-105287876D01*
X102650000Y-105288072D01*
X102774482Y-105275812D01*
X102894180Y-105239502D01*
X103004494Y-105180537D01*
X103101185Y-105101185D01*
X103152713Y-105038397D01*
X103673000Y-105038397D01*
X103673000Y-105181603D01*
X103700938Y-105322058D01*
X103755741Y-105454364D01*
X103835302Y-105573436D01*
X103936564Y-105674698D01*
X104055636Y-105754259D01*
X104187942Y-105809062D01*
X104328397Y-105837000D01*
X104471603Y-105837000D01*
X104612058Y-105809062D01*
X104744364Y-105754259D01*
X104820484Y-105703397D01*
X107873000Y-105703397D01*
X107873000Y-105846603D01*
X107900938Y-105987058D01*
X107955741Y-106119364D01*
X108035302Y-106238436D01*
X108136564Y-106339698D01*
X108255636Y-106419259D01*
X108387942Y-106474062D01*
X108528397Y-106502000D01*
X108671603Y-106502000D01*
X108812058Y-106474062D01*
X108944364Y-106419259D01*
X109063436Y-106339698D01*
X109164698Y-106238436D01*
X109244259Y-106119364D01*
X109292294Y-106003397D01*
X109998000Y-106003397D01*
X109998000Y-106146603D01*
X110025938Y-106287058D01*
X110080741Y-106419364D01*
X110160302Y-106538436D01*
X110261564Y-106639698D01*
X110380636Y-106719259D01*
X110512942Y-106774062D01*
X110653397Y-106802000D01*
X110796603Y-106802000D01*
X110937058Y-106774062D01*
X111069364Y-106719259D01*
X111188436Y-106639698D01*
X111289698Y-106538436D01*
X111369259Y-106419364D01*
X111424062Y-106287058D01*
X111452000Y-106146603D01*
X111452000Y-106003397D01*
X111424062Y-105862942D01*
X111369259Y-105730636D01*
X111289698Y-105611564D01*
X111197599Y-105519465D01*
X111361161Y-105552000D01*
X111538839Y-105552000D01*
X111713104Y-105517336D01*
X111877257Y-105449342D01*
X112024991Y-105350629D01*
X112150629Y-105224991D01*
X112249342Y-105077257D01*
X112317336Y-104913104D01*
X112352000Y-104738839D01*
X112352000Y-104561161D01*
X112317336Y-104386896D01*
X112249342Y-104222743D01*
X112150629Y-104075009D01*
X112024991Y-103949371D01*
X111877257Y-103850658D01*
X111713104Y-103782664D01*
X111538839Y-103748000D01*
X111361161Y-103748000D01*
X111186896Y-103782664D01*
X111022743Y-103850658D01*
X110875009Y-103949371D01*
X110749371Y-104075009D01*
X110650658Y-104222743D01*
X110582664Y-104386896D01*
X110548000Y-104561161D01*
X110548000Y-104738839D01*
X110582664Y-104913104D01*
X110650658Y-105077257D01*
X110749371Y-105224991D01*
X110875009Y-105350629D01*
X110902641Y-105369092D01*
X110796603Y-105348000D01*
X110653397Y-105348000D01*
X110512942Y-105375938D01*
X110380636Y-105430741D01*
X110261564Y-105510302D01*
X110160302Y-105611564D01*
X110080741Y-105730636D01*
X110025938Y-105862942D01*
X109998000Y-106003397D01*
X109292294Y-106003397D01*
X109299062Y-105987058D01*
X109327000Y-105846603D01*
X109327000Y-105703397D01*
X109299062Y-105562942D01*
X109244259Y-105430636D01*
X109164698Y-105311564D01*
X109063436Y-105210302D01*
X108944364Y-105130741D01*
X108812058Y-105075938D01*
X108671603Y-105048000D01*
X108528397Y-105048000D01*
X108387942Y-105075938D01*
X108255636Y-105130741D01*
X108136564Y-105210302D01*
X108035302Y-105311564D01*
X107955741Y-105430636D01*
X107900938Y-105562942D01*
X107873000Y-105703397D01*
X104820484Y-105703397D01*
X104863436Y-105674698D01*
X104964698Y-105573436D01*
X105044259Y-105454364D01*
X105099062Y-105322058D01*
X105127000Y-105181603D01*
X105127000Y-105038397D01*
X105120014Y-105003275D01*
X105150658Y-105077257D01*
X105249371Y-105224991D01*
X105375009Y-105350629D01*
X105522743Y-105449342D01*
X105686896Y-105517336D01*
X105861161Y-105552000D01*
X106038839Y-105552000D01*
X106213104Y-105517336D01*
X106377257Y-105449342D01*
X106524991Y-105350629D01*
X106650629Y-105224991D01*
X106749342Y-105077257D01*
X106817336Y-104913104D01*
X106852000Y-104738839D01*
X106852000Y-104561161D01*
X106817336Y-104386896D01*
X106749342Y-104222743D01*
X106650629Y-104075009D01*
X106524991Y-103949371D01*
X106377257Y-103850658D01*
X106213104Y-103782664D01*
X106038839Y-103748000D01*
X105861161Y-103748000D01*
X105686896Y-103782664D01*
X105522743Y-103850658D01*
X105375009Y-103949371D01*
X105249371Y-104075009D01*
X105150658Y-104222743D01*
X105082664Y-104386896D01*
X105048000Y-104561161D01*
X105048000Y-104738839D01*
X105061711Y-104807770D01*
X105044259Y-104765636D01*
X104964698Y-104646564D01*
X104863436Y-104545302D01*
X104744364Y-104465741D01*
X104612058Y-104410938D01*
X104471603Y-104383000D01*
X104328397Y-104383000D01*
X104187942Y-104410938D01*
X104055636Y-104465741D01*
X103936564Y-104545302D01*
X103835302Y-104646564D01*
X103755741Y-104765636D01*
X103700938Y-104897942D01*
X103673000Y-105038397D01*
X103152713Y-105038397D01*
X103180537Y-105004494D01*
X103239502Y-104894180D01*
X103275812Y-104774482D01*
X103288072Y-104650000D01*
X103285000Y-104085750D01*
X103126250Y-103927000D01*
X101927000Y-103927000D01*
X101927000Y-103947000D01*
X101673000Y-103947000D01*
X101673000Y-103927000D01*
X101653000Y-103927000D01*
X101653000Y-103673000D01*
X101673000Y-103673000D01*
X101673000Y-103653000D01*
X101927000Y-103653000D01*
X101927000Y-103673000D01*
X103126250Y-103673000D01*
X103285000Y-103514250D01*
X103288072Y-102950000D01*
X103275812Y-102825518D01*
X103239502Y-102705820D01*
X103180537Y-102595506D01*
X103144833Y-102552000D01*
X112315826Y-102552000D01*
X112300938Y-102587942D01*
G04 #@! TA.AperFunction,Conductor*
D26*
G36*
X112300938Y-102587942D02*
G01*
X112273000Y-102728397D01*
X112273000Y-102871603D01*
X112300938Y-103012058D01*
X112355741Y-103144364D01*
X112435302Y-103263436D01*
X112536564Y-103364698D01*
X112655636Y-103444259D01*
X112787942Y-103499062D01*
X112928397Y-103527000D01*
X113071603Y-103527000D01*
X113212058Y-103499062D01*
X113344364Y-103444259D01*
X113463436Y-103364698D01*
X113564698Y-103263436D01*
X113644259Y-103144364D01*
X113699062Y-103012058D01*
X113727000Y-102871603D01*
X113727000Y-102728397D01*
X113699062Y-102587942D01*
X113684174Y-102552000D01*
X114422142Y-102552000D01*
X114411079Y-102561079D01*
X114351471Y-102633711D01*
X114307178Y-102716577D01*
X114279903Y-102806492D01*
X114270693Y-102900000D01*
X114270693Y-104600000D01*
X114279903Y-104693508D01*
X114307178Y-104783423D01*
X114351471Y-104866289D01*
X114411079Y-104938921D01*
X114483711Y-104998529D01*
X114566577Y-105042822D01*
X114656492Y-105070097D01*
X114750000Y-105079307D01*
X115573333Y-105079307D01*
X115555741Y-105105636D01*
X115500938Y-105237942D01*
X115473000Y-105378397D01*
X115473000Y-105521603D01*
X115500938Y-105662058D01*
X115555741Y-105794364D01*
X115635302Y-105913436D01*
X115736564Y-106014698D01*
X115855636Y-106094259D01*
X115987942Y-106149062D01*
X116128397Y-106177000D01*
X116271603Y-106177000D01*
X116412058Y-106149062D01*
X116544364Y-106094259D01*
X116663436Y-106014698D01*
X116764698Y-105913436D01*
X116844259Y-105794364D01*
X116899062Y-105662058D01*
X116927000Y-105521603D01*
X116927000Y-105378397D01*
X116899062Y-105237942D01*
X116844259Y-105105636D01*
X116764698Y-104986564D01*
X116749449Y-104971315D01*
X116788921Y-104938921D01*
X116848529Y-104866289D01*
X116892822Y-104783423D01*
X116920097Y-104693508D01*
X116929307Y-104600000D01*
X116929307Y-104294746D01*
X116964028Y-104378570D01*
X117109252Y-104595913D01*
X117294087Y-104780748D01*
X117511430Y-104925972D01*
X117752928Y-105026004D01*
X118009302Y-105077000D01*
X118270698Y-105077000D01*
X118527072Y-105026004D01*
X118768570Y-104925972D01*
X118985913Y-104780748D01*
X119170748Y-104595913D01*
X119315972Y-104378570D01*
X119416004Y-104137072D01*
X119467000Y-103880698D01*
X119467000Y-103619302D01*
X119416004Y-103362928D01*
X119315972Y-103121430D01*
X119170748Y-102904087D01*
X118985913Y-102719252D01*
X118768570Y-102574028D01*
X118715390Y-102552000D01*
X120045237Y-102552000D01*
X119965643Y-102605183D01*
X119805183Y-102765643D01*
X119679111Y-102954323D01*
X119592271Y-103163974D01*
X119548000Y-103386538D01*
X119548000Y-103613462D01*
X119592271Y-103836026D01*
X119679111Y-104045677D01*
X119805183Y-104234357D01*
X119965643Y-104394817D01*
X120154323Y-104520889D01*
X120363974Y-104607729D01*
X120586538Y-104652000D01*
X120813462Y-104652000D01*
X121022669Y-104610386D01*
X122393001Y-105980718D01*
X122393000Y-113102870D01*
X122365806Y-113037217D01*
X122258885Y-112877199D01*
X122122801Y-112741115D01*
X121962783Y-112634194D01*
X121784980Y-112560546D01*
X121596226Y-112523000D01*
X121403774Y-112523000D01*
X121215020Y-112560546D01*
X121037217Y-112634194D01*
X120993310Y-112663532D01*
X120972020Y-112641135D01*
X120790206Y-112512877D01*
X120586864Y-112422554D01*
X120531874Y-112405881D01*
X120357000Y-112532046D01*
X120357000Y-113373000D01*
X120377000Y-113373000D01*
X120377000Y-113627000D01*
X120357000Y-113627000D01*
X120357000Y-113647000D01*
X120103000Y-113647000D01*
X120103000Y-113627000D01*
X120083000Y-113627000D01*
X120083000Y-113373000D01*
X120103000Y-113373000D01*
X120103000Y-112532046D01*
X119928126Y-112405881D01*
X119873136Y-112422554D01*
X119669794Y-112512877D01*
X119487980Y-112641135D01*
X119466690Y-112663532D01*
X119422783Y-112634194D01*
X119244980Y-112560546D01*
X119056226Y-112523000D01*
X118863774Y-112523000D01*
X118675020Y-112560546D01*
X118497217Y-112634194D01*
X118496635Y-112634583D01*
X118456289Y-112601471D01*
X118373423Y-112557178D01*
X118283508Y-112529903D01*
X118190000Y-112520693D01*
X117190000Y-112520693D01*
X117096492Y-112529903D01*
X117006577Y-112557178D01*
X116923711Y-112601471D01*
X116851079Y-112661079D01*
X116791471Y-112733711D01*
X116747178Y-112816577D01*
X116719903Y-112906492D01*
X116710693Y-113000000D01*
X116710693Y-114000000D01*
X116719903Y-114093508D01*
X116747178Y-114183423D01*
X116791471Y-114266289D01*
X116851079Y-114338921D01*
X116859331Y-114345693D01*
X116825000Y-114345693D01*
X116731492Y-114354903D01*
X116641577Y-114382178D01*
X116558711Y-114426471D01*
X116486079Y-114486079D01*
X116426471Y-114558711D01*
X116382178Y-114641577D01*
X116354903Y-114731492D01*
X116345693Y-114825000D01*
X116345693Y-116175000D01*
X116354903Y-116268508D01*
X116382178Y-116358423D01*
X116426471Y-116441289D01*
X116431979Y-116448000D01*
X107551858Y-116448000D01*
X107577000Y-116321603D01*
X107577000Y-116178397D01*
X107549062Y-116037942D01*
X107494259Y-115905636D01*
X107414698Y-115786564D01*
X107313436Y-115685302D01*
X107194364Y-115605741D01*
X107062058Y-115550938D01*
X106921603Y-115523000D01*
X106778397Y-115523000D01*
X106637942Y-115550938D01*
X106505636Y-115605741D01*
X106386564Y-115685302D01*
X106285302Y-115786564D01*
X106205741Y-115905636D01*
X106150938Y-116037942D01*
X106123000Y-116178397D01*
X106123000Y-116321603D01*
X106148142Y-116448000D01*
X103860578Y-116448000D01*
X104004712Y-116329712D01*
X104133051Y-116173331D01*
X104228415Y-115994917D01*
X104287140Y-115801327D01*
X104302000Y-115650451D01*
X104302000Y-115123472D01*
X104423000Y-115123472D01*
X104423000Y-115276528D01*
X104452859Y-115426643D01*
X104511431Y-115568048D01*
X104596464Y-115695309D01*
X104704691Y-115803536D01*
X104831952Y-115888569D01*
X104973357Y-115947141D01*
X105123472Y-115977000D01*
X105276528Y-115977000D01*
X105426643Y-115947141D01*
X105568048Y-115888569D01*
X105695309Y-115803536D01*
X105803536Y-115695309D01*
X105888569Y-115568048D01*
X105947141Y-115426643D01*
X105977000Y-115276528D01*
X105977000Y-115128398D01*
X110073000Y-115128398D01*
X110073000Y-115271604D01*
X110100938Y-115412059D01*
X110155741Y-115544365D01*
X110235302Y-115663437D01*
X110336564Y-115764699D01*
X110455636Y-115844260D01*
X110587942Y-115899063D01*
X110728397Y-115927001D01*
X110871603Y-115927001D01*
X111012058Y-115899063D01*
X111144364Y-115844260D01*
X111263436Y-115764699D01*
X111364698Y-115663437D01*
X111444259Y-115544365D01*
X111499062Y-115412059D01*
X111527000Y-115271604D01*
X111527000Y-115128398D01*
X111499062Y-114987943D01*
X111479606Y-114940972D01*
X113605500Y-114940972D01*
X113605500Y-115094028D01*
X113635359Y-115244143D01*
X113693931Y-115385548D01*
X113778964Y-115512809D01*
X113887191Y-115621036D01*
X114014452Y-115706069D01*
X114155857Y-115764641D01*
X114305972Y-115794500D01*
X114459028Y-115794500D01*
X114609143Y-115764641D01*
X114750548Y-115706069D01*
X114877809Y-115621036D01*
X114986036Y-115512809D01*
X115071069Y-115385548D01*
X115129641Y-115244143D01*
X115159500Y-115094028D01*
X115159500Y-114940972D01*
X115129641Y-114790857D01*
X115071069Y-114649452D01*
X114986036Y-114522191D01*
X114877809Y-114413964D01*
X114750548Y-114328931D01*
X114609143Y-114270359D01*
X114459028Y-114240500D01*
X114305972Y-114240500D01*
X114155857Y-114270359D01*
X114014452Y-114328931D01*
X113887191Y-114413964D01*
X113778964Y-114522191D01*
X113693931Y-114649452D01*
X113635359Y-114790857D01*
X113605500Y-114940972D01*
X111479606Y-114940972D01*
X111444259Y-114855637D01*
X111364698Y-114736565D01*
X111263436Y-114635303D01*
X111144364Y-114555742D01*
X111012058Y-114500939D01*
X110871603Y-114473001D01*
X110728397Y-114473001D01*
X110587942Y-114500939D01*
X110455636Y-114555742D01*
X110336564Y-114635303D01*
X110235302Y-114736565D01*
X110155741Y-114855637D01*
X110100938Y-114987943D01*
X110073000Y-115128398D01*
X105977000Y-115128398D01*
X105977000Y-115123472D01*
X105947141Y-114973357D01*
X105888569Y-114831952D01*
X105803536Y-114704691D01*
X105695309Y-114596464D01*
X105568048Y-114511431D01*
X105426643Y-114452859D01*
X105276528Y-114423000D01*
X105123472Y-114423000D01*
X104973357Y-114452859D01*
X104831952Y-114511431D01*
X104704691Y-114596464D01*
X104596464Y-114704691D01*
X104511431Y-114831952D01*
X104452859Y-114973357D01*
X104423000Y-115123472D01*
X104302000Y-115123472D01*
X104302000Y-114849550D01*
X104287140Y-114698674D01*
X104228415Y-114505083D01*
X104133051Y-114326669D01*
X104070457Y-114250398D01*
X104187942Y-114299062D01*
X104328397Y-114327000D01*
X104471603Y-114327000D01*
X104612058Y-114299062D01*
X104744364Y-114244259D01*
X104863436Y-114164698D01*
X104964698Y-114063436D01*
X105044259Y-113944364D01*
X105099062Y-113812058D01*
X105127000Y-113671603D01*
X105127000Y-113528397D01*
X105099062Y-113387942D01*
X105044259Y-113255636D01*
X104964698Y-113136564D01*
X104863436Y-113035302D01*
X104744364Y-112955741D01*
X104612058Y-112900938D01*
X104471603Y-112873000D01*
X104328397Y-112873000D01*
X104187942Y-112900938D01*
X104055636Y-112955741D01*
X103936564Y-113035302D01*
X103835302Y-113136564D01*
X103755741Y-113255636D01*
X103700938Y-113387942D01*
X103673000Y-113528397D01*
X103673000Y-113671603D01*
X103700938Y-113812058D01*
X103755741Y-113944364D01*
X103805730Y-114019178D01*
X103669917Y-113946585D01*
X103476327Y-113887860D01*
X103275000Y-113868031D01*
X103073674Y-113887860D01*
X102880084Y-113946585D01*
X102701670Y-114041949D01*
X102545289Y-114170288D01*
X102416950Y-114326669D01*
X102321586Y-114505083D01*
X102262860Y-114698673D01*
X102248000Y-114849549D01*
X102248000Y-115650450D01*
X102262860Y-115801326D01*
X102321585Y-115994916D01*
X102416949Y-116173331D01*
X102545288Y-116329712D01*
X102689422Y-116448000D01*
X101027001Y-116448000D01*
X100913497Y-116436871D01*
X100830290Y-116411750D01*
X100753544Y-116370943D01*
X100686189Y-116316010D01*
X100630784Y-116249036D01*
X100589447Y-116172584D01*
X100563744Y-116089550D01*
X100552000Y-115977822D01*
X100552000Y-113858228D01*
X100730083Y-113953415D01*
X100923673Y-114012140D01*
X101125000Y-114031969D01*
X101326326Y-114012140D01*
X101519916Y-113953415D01*
X101698331Y-113858051D01*
X101854712Y-113729712D01*
X101983051Y-113573331D01*
X102078415Y-113394917D01*
X102137140Y-113201327D01*
X102152000Y-113050451D01*
X102152000Y-111849549D01*
X102140068Y-111728397D01*
X103673000Y-111728397D01*
X103673000Y-111871603D01*
X103700938Y-112012058D01*
X103755741Y-112144364D01*
X103835302Y-112263436D01*
X103936564Y-112364698D01*
X104055636Y-112444259D01*
X104187942Y-112499062D01*
X104328397Y-112527000D01*
X104471603Y-112527000D01*
X104612058Y-112499062D01*
X104744364Y-112444259D01*
X104863436Y-112364698D01*
X104949737Y-112278397D01*
X110923000Y-112278397D01*
X110923000Y-112421603D01*
X110950938Y-112562058D01*
X111005741Y-112694364D01*
X111085302Y-112813436D01*
X111186564Y-112914698D01*
X111305636Y-112994259D01*
X111437942Y-113049062D01*
X111578397Y-113077000D01*
X111721603Y-113077000D01*
X111862058Y-113049062D01*
X111994364Y-112994259D01*
X112113436Y-112914698D01*
X112214698Y-112813436D01*
X112294259Y-112694364D01*
X112349062Y-112562058D01*
X112377000Y-112421603D01*
X112377000Y-112372162D01*
X112444364Y-112344259D01*
X112563436Y-112264698D01*
X112664698Y-112163436D01*
X112744259Y-112044364D01*
X112799062Y-111912058D01*
X112827000Y-111771603D01*
X112827000Y-111628397D01*
X112799062Y-111487942D01*
X112744259Y-111355636D01*
X112664698Y-111236564D01*
X112563436Y-111135302D01*
X112444364Y-111055741D01*
X112312058Y-111000938D01*
X112171603Y-110973000D01*
X112028397Y-110973000D01*
X111887942Y-111000938D01*
X111755636Y-111055741D01*
X111636564Y-111135302D01*
X111535302Y-111236564D01*
X111455741Y-111355636D01*
X111400938Y-111487942D01*
X111373000Y-111628397D01*
X111373000Y-111677838D01*
X111305636Y-111705741D01*
X111186564Y-111785302D01*
X111085302Y-111886564D01*
X111005741Y-112005636D01*
X110950938Y-112137942D01*
X110923000Y-112278397D01*
X104949737Y-112278397D01*
X104964698Y-112263436D01*
X105044259Y-112144364D01*
X105099062Y-112012058D01*
X105127000Y-111871603D01*
X105127000Y-111728397D01*
X105099062Y-111587942D01*
X105044259Y-111455636D01*
X104964698Y-111336564D01*
X104863436Y-111235302D01*
X104744364Y-111155741D01*
X104612058Y-111100938D01*
X104471603Y-111073000D01*
X104328397Y-111073000D01*
X104187942Y-111100938D01*
X104055636Y-111155741D01*
X103936564Y-111235302D01*
X103835302Y-111336564D01*
X103755741Y-111455636D01*
X103700938Y-111587942D01*
X103673000Y-111728397D01*
X102140068Y-111728397D01*
X102137140Y-111698673D01*
X102078415Y-111505083D01*
X101983051Y-111326669D01*
X101854712Y-111170288D01*
X101698331Y-111041949D01*
X101519917Y-110946585D01*
X101326327Y-110887860D01*
X101125000Y-110868031D01*
X100923674Y-110887860D01*
X100730084Y-110946585D01*
X100552000Y-111041773D01*
X100552000Y-109249549D01*
X102248000Y-109249549D01*
X102248000Y-110050450D01*
X102262860Y-110201326D01*
X102321585Y-110394916D01*
X102416949Y-110573331D01*
X102545288Y-110729712D01*
X102701669Y-110858051D01*
X102880083Y-110953415D01*
X103073673Y-111012140D01*
X103275000Y-111031969D01*
X103476326Y-111012140D01*
X103669916Y-110953415D01*
X103848331Y-110858051D01*
X104004712Y-110729712D01*
X104036822Y-110690586D01*
X104173357Y-110747141D01*
X104323472Y-110777000D01*
X104476528Y-110777000D01*
X104626643Y-110747141D01*
X104768048Y-110688569D01*
X104895309Y-110603536D01*
X104920448Y-110578397D01*
X113673000Y-110578397D01*
X113673000Y-110721603D01*
X113700938Y-110862058D01*
X113755741Y-110994364D01*
X113835302Y-111113436D01*
X113936564Y-111214698D01*
X114055636Y-111294259D01*
X114187942Y-111349062D01*
X114328397Y-111377000D01*
X114471603Y-111377000D01*
X114612058Y-111349062D01*
X114744364Y-111294259D01*
X114863436Y-111214698D01*
X114964698Y-111113436D01*
X114988110Y-111078397D01*
X118373000Y-111078397D01*
X118373000Y-111221603D01*
X118400938Y-111362058D01*
X118455741Y-111494364D01*
X118535302Y-111613436D01*
X118636564Y-111714698D01*
X118755636Y-111794259D01*
X118887942Y-111849062D01*
X119028397Y-111877000D01*
X119171603Y-111877000D01*
X119312058Y-111849062D01*
X119444364Y-111794259D01*
X119563436Y-111714698D01*
X119664698Y-111613436D01*
X119744259Y-111494364D01*
X119799062Y-111362058D01*
X119827000Y-111221603D01*
X119827000Y-111078397D01*
X119799062Y-110937942D01*
X119744259Y-110805636D01*
X119709199Y-110753164D01*
X120797767Y-110753164D01*
X120797767Y-110896370D01*
X120825705Y-111036825D01*
X120880508Y-111169131D01*
X120960069Y-111288203D01*
X121061331Y-111389465D01*
X121180403Y-111469026D01*
X121312709Y-111523829D01*
X121453164Y-111551767D01*
X121596370Y-111551767D01*
X121736825Y-111523829D01*
X121869131Y-111469026D01*
X121988203Y-111389465D01*
X122089465Y-111288203D01*
X122169026Y-111169131D01*
X122223829Y-111036825D01*
X122251767Y-110896370D01*
X122251767Y-110753164D01*
X122223829Y-110612709D01*
X122169026Y-110480403D01*
X122089465Y-110361331D01*
X121988203Y-110260069D01*
X121869131Y-110180508D01*
X121736825Y-110125705D01*
X121596370Y-110097767D01*
X121453164Y-110097767D01*
X121312709Y-110125705D01*
X121180403Y-110180508D01*
X121061331Y-110260069D01*
X120960069Y-110361331D01*
X120880508Y-110480403D01*
X120825705Y-110612709D01*
X120797767Y-110753164D01*
X119709199Y-110753164D01*
X119664698Y-110686564D01*
X119563436Y-110585302D01*
X119476180Y-110527000D01*
X119571603Y-110527000D01*
X119712058Y-110499062D01*
X119844364Y-110444259D01*
X119963436Y-110364698D01*
X120064698Y-110263436D01*
X120144259Y-110144364D01*
X120199062Y-110012058D01*
X120227000Y-109871603D01*
X120227000Y-109728397D01*
X120199062Y-109587942D01*
X120144259Y-109455636D01*
X120064698Y-109336564D01*
X120006531Y-109278397D01*
X120373000Y-109278397D01*
X120373000Y-109421603D01*
X120400938Y-109562058D01*
X120455741Y-109694364D01*
X120535302Y-109813436D01*
X120636564Y-109914698D01*
X120755636Y-109994259D01*
X120887942Y-110049062D01*
X121028397Y-110077000D01*
X121171603Y-110077000D01*
X121312058Y-110049062D01*
X121444364Y-109994259D01*
X121563436Y-109914698D01*
X121664698Y-109813436D01*
X121744259Y-109694364D01*
X121799062Y-109562058D01*
X121827000Y-109421603D01*
X121827000Y-109278397D01*
X121799062Y-109137942D01*
X121744259Y-109005636D01*
X121664698Y-108886564D01*
X121563436Y-108785302D01*
X121444364Y-108705741D01*
X121312058Y-108650938D01*
X121171603Y-108623000D01*
X121028397Y-108623000D01*
X120887942Y-108650938D01*
X120755636Y-108705741D01*
X120636564Y-108785302D01*
X120535302Y-108886564D01*
X120455741Y-109005636D01*
X120400938Y-109137942D01*
X120373000Y-109278397D01*
X120006531Y-109278397D01*
X119963436Y-109235302D01*
X119844364Y-109155741D01*
X119712058Y-109100938D01*
X119571603Y-109073000D01*
X119428397Y-109073000D01*
X119287942Y-109100938D01*
X119155636Y-109155741D01*
X119036564Y-109235302D01*
X118935302Y-109336564D01*
X118855741Y-109455636D01*
X118800938Y-109587942D01*
X118773000Y-109728397D01*
X118773000Y-109871603D01*
X118800938Y-110012058D01*
X118855741Y-110144364D01*
X118935302Y-110263436D01*
X119036564Y-110364698D01*
X119123820Y-110423000D01*
X119028397Y-110423000D01*
X118887942Y-110450938D01*
X118755636Y-110505741D01*
X118636564Y-110585302D01*
X118535302Y-110686564D01*
X118455741Y-110805636D01*
X118400938Y-110937942D01*
X118373000Y-111078397D01*
X114988110Y-111078397D01*
X115044259Y-110994364D01*
X115099062Y-110862058D01*
X115127000Y-110721603D01*
X115127000Y-110578397D01*
X115099062Y-110437942D01*
X115044259Y-110305636D01*
X114964698Y-110186564D01*
X114863436Y-110085302D01*
X114744364Y-110005741D01*
X114612058Y-109950938D01*
X114471603Y-109923000D01*
X114328397Y-109923000D01*
X114187942Y-109950938D01*
X114055636Y-110005741D01*
X113936564Y-110085302D01*
X113835302Y-110186564D01*
X113755741Y-110305636D01*
X113700938Y-110437942D01*
X113673000Y-110578397D01*
X104920448Y-110578397D01*
X105003536Y-110495309D01*
X105088569Y-110368048D01*
X105147141Y-110226643D01*
X105177000Y-110076528D01*
X105177000Y-109923472D01*
X105147141Y-109773357D01*
X105088569Y-109631952D01*
X105003536Y-109504691D01*
X104895309Y-109396464D01*
X104768048Y-109311431D01*
X104626643Y-109252859D01*
X104476528Y-109223000D01*
X104323472Y-109223000D01*
X104299848Y-109227699D01*
X104287140Y-109098674D01*
X104228415Y-108905083D01*
X104133051Y-108726669D01*
X104004712Y-108570288D01*
X103848331Y-108441949D01*
X103669917Y-108346585D01*
X103476327Y-108287860D01*
X103275000Y-108268031D01*
X103073674Y-108287860D01*
X102880084Y-108346585D01*
X102701670Y-108441949D01*
X102545289Y-108570288D01*
X102416950Y-108726669D01*
X102321586Y-108905083D01*
X102262860Y-109098673D01*
X102248000Y-109249549D01*
X100552000Y-109249549D01*
X100552000Y-106794679D01*
X100624028Y-106968570D01*
X100769252Y-107185913D01*
X100954087Y-107370748D01*
X101171430Y-107515972D01*
X101412928Y-107616004D01*
X101669302Y-107667000D01*
X101930698Y-107667000D01*
X102187072Y-107616004D01*
X102428570Y-107515972D01*
X102484819Y-107478387D01*
X108073000Y-107478387D01*
X108073000Y-107621593D01*
X108100938Y-107762048D01*
X108155741Y-107894354D01*
X108235302Y-108013426D01*
X108336564Y-108114688D01*
X108455636Y-108194249D01*
X108587942Y-108249052D01*
X108728397Y-108276990D01*
X108871603Y-108276990D01*
X108996092Y-108252228D01*
X109005644Y-108300250D01*
X109064216Y-108441655D01*
X109149249Y-108568916D01*
X109257476Y-108677143D01*
X109384737Y-108762176D01*
X109526142Y-108820748D01*
X109676257Y-108850607D01*
X109829313Y-108850607D01*
X109979428Y-108820748D01*
X110120833Y-108762176D01*
X110248094Y-108677143D01*
X110356321Y-108568916D01*
X110441354Y-108441655D01*
X110499926Y-108300250D01*
X110529785Y-108150135D01*
X110529785Y-107997079D01*
X110499926Y-107846964D01*
X110441354Y-107705559D01*
X110356321Y-107578298D01*
X110248094Y-107470071D01*
X110120833Y-107385038D01*
X109979428Y-107326466D01*
X109829313Y-107296607D01*
X109676257Y-107296607D01*
X109526142Y-107326466D01*
X109498974Y-107337719D01*
X109444259Y-107205626D01*
X109413339Y-107159350D01*
X113567140Y-107159350D01*
X113567140Y-107302556D01*
X113595078Y-107443011D01*
X113649881Y-107575317D01*
X113729442Y-107694389D01*
X113788007Y-107752954D01*
X113773000Y-107828397D01*
X113773000Y-107971603D01*
X113800938Y-108112058D01*
X113855741Y-108244364D01*
X113935302Y-108363436D01*
X114036564Y-108464698D01*
X114155636Y-108544259D01*
X114287942Y-108599062D01*
X114428397Y-108627000D01*
X114571603Y-108627000D01*
X114712058Y-108599062D01*
X114844364Y-108544259D01*
X114963436Y-108464698D01*
X115064698Y-108363436D01*
X115144259Y-108244364D01*
X115199062Y-108112058D01*
X115227000Y-107971603D01*
X115227000Y-107828397D01*
X115199062Y-107687942D01*
X115144259Y-107555636D01*
X115064698Y-107436564D01*
X115006133Y-107377999D01*
X115021140Y-107302556D01*
X115021140Y-107159350D01*
X114993202Y-107018895D01*
X114938399Y-106886589D01*
X114858838Y-106767517D01*
X114757576Y-106666255D01*
X114638504Y-106586694D01*
X114506198Y-106531891D01*
X114365743Y-106503953D01*
X114222537Y-106503953D01*
X114082082Y-106531891D01*
X113949776Y-106586694D01*
X113830704Y-106666255D01*
X113729442Y-106767517D01*
X113649881Y-106886589D01*
X113595078Y-107018895D01*
X113567140Y-107159350D01*
X109413339Y-107159350D01*
X109364698Y-107086554D01*
X109263436Y-106985292D01*
X109144364Y-106905731D01*
X109012058Y-106850928D01*
X108871603Y-106822990D01*
X108728397Y-106822990D01*
X108587942Y-106850928D01*
X108455636Y-106905731D01*
X108336564Y-106985292D01*
X108235302Y-107086554D01*
X108155741Y-107205626D01*
X108100938Y-107337932D01*
X108073000Y-107478387D01*
X102484819Y-107478387D01*
X102645913Y-107370748D01*
X102830748Y-107185913D01*
X102975972Y-106968570D01*
X103076004Y-106727072D01*
X103127000Y-106470698D01*
X103127000Y-106209302D01*
X103076004Y-105952928D01*
X102975972Y-105711430D01*
X102830748Y-105494087D01*
X102645913Y-105309252D01*
X102613921Y-105287876D01*
X102650000Y-105288072D01*
X102774482Y-105275812D01*
X102894180Y-105239502D01*
X103004494Y-105180537D01*
X103101185Y-105101185D01*
X103152713Y-105038397D01*
X103673000Y-105038397D01*
X103673000Y-105181603D01*
X103700938Y-105322058D01*
X103755741Y-105454364D01*
X103835302Y-105573436D01*
X103936564Y-105674698D01*
X104055636Y-105754259D01*
X104187942Y-105809062D01*
X104328397Y-105837000D01*
X104471603Y-105837000D01*
X104612058Y-105809062D01*
X104744364Y-105754259D01*
X104820484Y-105703397D01*
X107873000Y-105703397D01*
X107873000Y-105846603D01*
X107900938Y-105987058D01*
X107955741Y-106119364D01*
X108035302Y-106238436D01*
X108136564Y-106339698D01*
X108255636Y-106419259D01*
X108387942Y-106474062D01*
X108528397Y-106502000D01*
X108671603Y-106502000D01*
X108812058Y-106474062D01*
X108944364Y-106419259D01*
X109063436Y-106339698D01*
X109164698Y-106238436D01*
X109244259Y-106119364D01*
X109292294Y-106003397D01*
X109998000Y-106003397D01*
X109998000Y-106146603D01*
X110025938Y-106287058D01*
X110080741Y-106419364D01*
X110160302Y-106538436D01*
X110261564Y-106639698D01*
X110380636Y-106719259D01*
X110512942Y-106774062D01*
X110653397Y-106802000D01*
X110796603Y-106802000D01*
X110937058Y-106774062D01*
X111069364Y-106719259D01*
X111188436Y-106639698D01*
X111289698Y-106538436D01*
X111369259Y-106419364D01*
X111424062Y-106287058D01*
X111452000Y-106146603D01*
X111452000Y-106003397D01*
X111424062Y-105862942D01*
X111369259Y-105730636D01*
X111289698Y-105611564D01*
X111197599Y-105519465D01*
X111361161Y-105552000D01*
X111538839Y-105552000D01*
X111713104Y-105517336D01*
X111877257Y-105449342D01*
X112024991Y-105350629D01*
X112150629Y-105224991D01*
X112249342Y-105077257D01*
X112317336Y-104913104D01*
X112352000Y-104738839D01*
X112352000Y-104561161D01*
X112317336Y-104386896D01*
X112249342Y-104222743D01*
X112150629Y-104075009D01*
X112024991Y-103949371D01*
X111877257Y-103850658D01*
X111713104Y-103782664D01*
X111538839Y-103748000D01*
X111361161Y-103748000D01*
X111186896Y-103782664D01*
X111022743Y-103850658D01*
X110875009Y-103949371D01*
X110749371Y-104075009D01*
X110650658Y-104222743D01*
X110582664Y-104386896D01*
X110548000Y-104561161D01*
X110548000Y-104738839D01*
X110582664Y-104913104D01*
X110650658Y-105077257D01*
X110749371Y-105224991D01*
X110875009Y-105350629D01*
X110902641Y-105369092D01*
X110796603Y-105348000D01*
X110653397Y-105348000D01*
X110512942Y-105375938D01*
X110380636Y-105430741D01*
X110261564Y-105510302D01*
X110160302Y-105611564D01*
X110080741Y-105730636D01*
X110025938Y-105862942D01*
X109998000Y-106003397D01*
X109292294Y-106003397D01*
X109299062Y-105987058D01*
X109327000Y-105846603D01*
X109327000Y-105703397D01*
X109299062Y-105562942D01*
X109244259Y-105430636D01*
X109164698Y-105311564D01*
X109063436Y-105210302D01*
X108944364Y-105130741D01*
X108812058Y-105075938D01*
X108671603Y-105048000D01*
X108528397Y-105048000D01*
X108387942Y-105075938D01*
X108255636Y-105130741D01*
X108136564Y-105210302D01*
X108035302Y-105311564D01*
X107955741Y-105430636D01*
X107900938Y-105562942D01*
X107873000Y-105703397D01*
X104820484Y-105703397D01*
X104863436Y-105674698D01*
X104964698Y-105573436D01*
X105044259Y-105454364D01*
X105099062Y-105322058D01*
X105127000Y-105181603D01*
X105127000Y-105038397D01*
X105120014Y-105003275D01*
X105150658Y-105077257D01*
X105249371Y-105224991D01*
X105375009Y-105350629D01*
X105522743Y-105449342D01*
X105686896Y-105517336D01*
X105861161Y-105552000D01*
X106038839Y-105552000D01*
X106213104Y-105517336D01*
X106377257Y-105449342D01*
X106524991Y-105350629D01*
X106650629Y-105224991D01*
X106749342Y-105077257D01*
X106817336Y-104913104D01*
X106852000Y-104738839D01*
X106852000Y-104561161D01*
X106817336Y-104386896D01*
X106749342Y-104222743D01*
X106650629Y-104075009D01*
X106524991Y-103949371D01*
X106377257Y-103850658D01*
X106213104Y-103782664D01*
X106038839Y-103748000D01*
X105861161Y-103748000D01*
X105686896Y-103782664D01*
X105522743Y-103850658D01*
X105375009Y-103949371D01*
X105249371Y-104075009D01*
X105150658Y-104222743D01*
X105082664Y-104386896D01*
X105048000Y-104561161D01*
X105048000Y-104738839D01*
X105061711Y-104807770D01*
X105044259Y-104765636D01*
X104964698Y-104646564D01*
X104863436Y-104545302D01*
X104744364Y-104465741D01*
X104612058Y-104410938D01*
X104471603Y-104383000D01*
X104328397Y-104383000D01*
X104187942Y-104410938D01*
X104055636Y-104465741D01*
X103936564Y-104545302D01*
X103835302Y-104646564D01*
X103755741Y-104765636D01*
X103700938Y-104897942D01*
X103673000Y-105038397D01*
X103152713Y-105038397D01*
X103180537Y-105004494D01*
X103239502Y-104894180D01*
X103275812Y-104774482D01*
X103288072Y-104650000D01*
X103285000Y-104085750D01*
X103126250Y-103927000D01*
X101927000Y-103927000D01*
X101927000Y-103947000D01*
X101673000Y-103947000D01*
X101673000Y-103927000D01*
X101653000Y-103927000D01*
X101653000Y-103673000D01*
X101673000Y-103673000D01*
X101673000Y-103653000D01*
X101927000Y-103653000D01*
X101927000Y-103673000D01*
X103126250Y-103673000D01*
X103285000Y-103514250D01*
X103288072Y-102950000D01*
X103275812Y-102825518D01*
X103239502Y-102705820D01*
X103180537Y-102595506D01*
X103144833Y-102552000D01*
X112315826Y-102552000D01*
X112300938Y-102587942D01*
G37*
G04 #@! TD.AperFunction*
D25*
X120605183Y-116234357D02*
X120765643Y-116394817D01*
X120845237Y-116448000D01*
X120399178Y-116448000D01*
X120545344Y-116289537D01*
X120591550Y-116213954D01*
X120605183Y-116234357D01*
G04 #@! TA.AperFunction,Conductor*
D26*
G36*
X120605183Y-116234357D02*
G01*
X120765643Y-116394817D01*
X120845237Y-116448000D01*
X120399178Y-116448000D01*
X120545344Y-116289537D01*
X120591550Y-116213954D01*
X120605183Y-116234357D01*
G37*
G04 #@! TD.AperFunction*
D25*
X130181928Y-116050000D02*
X130194188Y-116174482D01*
X130230498Y-116294180D01*
X130289463Y-116404494D01*
X130325167Y-116448000D01*
X129584679Y-116448000D01*
X129758570Y-116375972D01*
X129975913Y-116230748D01*
X130160748Y-116045913D01*
X130182124Y-116013921D01*
X130181928Y-116050000D01*
G04 #@! TA.AperFunction,Conductor*
D26*
G36*
X130181928Y-116050000D02*
G01*
X130194188Y-116174482D01*
X130230498Y-116294180D01*
X130289463Y-116404494D01*
X130325167Y-116448000D01*
X129584679Y-116448000D01*
X129758570Y-116375972D01*
X129975913Y-116230748D01*
X130160748Y-116045913D01*
X130182124Y-116013921D01*
X130181928Y-116050000D01*
G37*
G04 #@! TD.AperFunction*
D25*
X139926471Y-104441289D02*
X139986079Y-104513921D01*
X140058711Y-104573529D01*
X140073195Y-104581271D01*
X140021697Y-104628773D01*
X139870527Y-104836371D01*
X139762762Y-105069472D01*
X139732090Y-105170600D01*
X139855776Y-105373000D01*
X140873000Y-105373000D01*
X140873000Y-105353000D01*
X141127000Y-105353000D01*
X141127000Y-105373000D01*
X142144224Y-105373000D01*
X142250000Y-105199908D01*
X142355776Y-105373000D01*
X143373000Y-105373000D01*
X143373000Y-105353000D01*
X143627000Y-105353000D01*
X143627000Y-105373000D01*
X143647000Y-105373000D01*
X143647000Y-105627000D01*
X143627000Y-105627000D01*
X143627000Y-105647000D01*
X143373000Y-105647000D01*
X143373000Y-105627000D01*
X142355776Y-105627000D01*
X142250000Y-105800092D01*
X142144224Y-105627000D01*
X141127000Y-105627000D01*
X141127000Y-105647000D01*
X140873000Y-105647000D01*
X140873000Y-105627000D01*
X139855776Y-105627000D01*
X139732090Y-105829400D01*
X139762762Y-105930528D01*
X139870527Y-106163629D01*
X140021697Y-106371227D01*
X140210463Y-106545344D01*
X140286046Y-106591550D01*
X140265643Y-106605183D01*
X140105183Y-106765643D01*
X139979111Y-106954323D01*
X139892271Y-107163974D01*
X139848000Y-107386538D01*
X139848000Y-107613462D01*
X139892271Y-107836026D01*
X139979111Y-108045677D01*
X140105183Y-108234357D01*
X140265643Y-108394817D01*
X140454323Y-108520889D01*
X140663974Y-108607729D01*
X140886538Y-108652000D01*
X141113462Y-108652000D01*
X141336026Y-108607729D01*
X141545677Y-108520889D01*
X141734357Y-108394817D01*
X141894817Y-108234357D01*
X142020889Y-108045677D01*
X142107729Y-107836026D01*
X142152000Y-107613462D01*
X142152000Y-107386538D01*
X142107729Y-107163974D01*
X142020889Y-106954323D01*
X141894817Y-106765643D01*
X141734357Y-106605183D01*
X141713954Y-106591550D01*
X141789537Y-106545344D01*
X141978303Y-106371227D01*
X142129473Y-106163629D01*
X142237238Y-105930528D01*
X142250000Y-105888451D01*
X142262762Y-105930528D01*
X142370527Y-106163629D01*
X142521697Y-106371227D01*
X142710463Y-106545344D01*
X142786046Y-106591550D01*
X142765643Y-106605183D01*
X142605183Y-106765643D01*
X142479111Y-106954323D01*
X142392271Y-107163974D01*
X142348000Y-107386538D01*
X142348000Y-107613462D01*
X142392271Y-107836026D01*
X142479111Y-108045677D01*
X142605183Y-108234357D01*
X142765643Y-108394817D01*
X142954323Y-108520889D01*
X143163974Y-108607729D01*
X143386538Y-108652000D01*
X143613462Y-108652000D01*
X143836026Y-108607729D01*
X144045677Y-108520889D01*
X144234357Y-108394817D01*
X144394817Y-108234357D01*
X144448001Y-108154762D01*
X144448000Y-110831339D01*
X144285913Y-110669252D01*
X144068570Y-110524028D01*
X143827072Y-110423996D01*
X143570698Y-110373000D01*
X143309302Y-110373000D01*
X143052928Y-110423996D01*
X142811430Y-110524028D01*
X142594087Y-110669252D01*
X142409252Y-110854087D01*
X142264028Y-111071430D01*
X142229307Y-111155254D01*
X142229307Y-110850000D01*
X142220097Y-110756492D01*
X142192822Y-110666577D01*
X142148529Y-110583711D01*
X142088921Y-110511079D01*
X142016289Y-110451471D01*
X141933423Y-110407178D01*
X141843508Y-110379903D01*
X141750000Y-110370693D01*
X140050000Y-110370693D01*
X139956492Y-110379903D01*
X139866577Y-110407178D01*
X139783711Y-110451471D01*
X139711079Y-110511079D01*
X139651471Y-110583711D01*
X139607178Y-110666577D01*
X139579903Y-110756492D01*
X139570693Y-110850000D01*
X139570693Y-112550000D01*
X139579903Y-112643508D01*
X139607178Y-112733423D01*
X139651471Y-112816289D01*
X139711079Y-112888921D01*
X139783711Y-112948529D01*
X139866577Y-112992822D01*
X139956492Y-113020097D01*
X140050000Y-113029307D01*
X141750000Y-113029307D01*
X141843508Y-113020097D01*
X141933423Y-112992822D01*
X142016289Y-112948529D01*
X142088921Y-112888921D01*
X142148529Y-112816289D01*
X142192822Y-112733423D01*
X142220097Y-112643508D01*
X142229307Y-112550000D01*
X142229307Y-112244746D01*
X142264028Y-112328570D01*
X142409252Y-112545913D01*
X142594087Y-112730748D01*
X142811430Y-112875972D01*
X143052928Y-112976004D01*
X143309302Y-113027000D01*
X143570698Y-113027000D01*
X143827072Y-112976004D01*
X144068570Y-112875972D01*
X144285913Y-112730748D01*
X144448000Y-112568661D01*
X144448000Y-114331339D01*
X144285913Y-114169252D01*
X144068570Y-114024028D01*
X143827072Y-113923996D01*
X143570698Y-113873000D01*
X143309302Y-113873000D01*
X143052928Y-113923996D01*
X142811430Y-114024028D01*
X142594087Y-114169252D01*
X142409252Y-114354087D01*
X142264028Y-114571430D01*
X142229307Y-114655254D01*
X142229307Y-114350000D01*
X142220097Y-114256492D01*
X142192822Y-114166577D01*
X142148529Y-114083711D01*
X142088921Y-114011079D01*
X142016289Y-113951471D01*
X141933423Y-113907178D01*
X141843508Y-113879903D01*
X141750000Y-113870693D01*
X140050000Y-113870693D01*
X139956492Y-113879903D01*
X139866577Y-113907178D01*
X139783711Y-113951471D01*
X139711079Y-114011079D01*
X139651471Y-114083711D01*
X139607178Y-114166577D01*
X139579903Y-114256492D01*
X139570693Y-114350000D01*
X139570693Y-116050000D01*
X139579903Y-116143508D01*
X139607178Y-116233423D01*
X139651471Y-116316289D01*
X139711079Y-116388921D01*
X139783066Y-116448000D01*
X133014833Y-116448000D01*
X133050537Y-116404494D01*
X133109502Y-116294180D01*
X133145812Y-116174482D01*
X133158072Y-116050000D01*
X133155000Y-115485750D01*
X132996250Y-115327000D01*
X131797000Y-115327000D01*
X131797000Y-115347000D01*
X131543000Y-115347000D01*
X131543000Y-115327000D01*
X131523000Y-115327000D01*
X131523000Y-115073000D01*
X131543000Y-115073000D01*
X131543000Y-115053000D01*
X131797000Y-115053000D01*
X131797000Y-115073000D01*
X132996250Y-115073000D01*
X133155000Y-114914250D01*
X133156564Y-114626999D01*
X134616756Y-114626999D01*
X134650001Y-114630273D01*
X134683246Y-114626999D01*
X134683253Y-114626999D01*
X134782716Y-114617203D01*
X134910331Y-114578491D01*
X135027942Y-114515627D01*
X135131028Y-114431026D01*
X135152227Y-114405195D01*
X137606220Y-111951203D01*
X137626643Y-111947141D01*
X137768048Y-111888569D01*
X137895309Y-111803536D01*
X138003536Y-111695309D01*
X138088569Y-111568048D01*
X138147141Y-111426643D01*
X138177000Y-111276528D01*
X138177000Y-111123472D01*
X138147141Y-110973357D01*
X138088569Y-110831952D01*
X138003536Y-110704691D01*
X137895309Y-110596464D01*
X137768048Y-110511431D01*
X137626643Y-110452859D01*
X137476528Y-110423000D01*
X137323472Y-110423000D01*
X137173357Y-110452859D01*
X137031952Y-110511431D01*
X136904691Y-110596464D01*
X136800003Y-110701152D01*
X136695315Y-110596464D01*
X136568054Y-110511431D01*
X136426649Y-110452859D01*
X136276534Y-110423000D01*
X136123478Y-110423000D01*
X135973363Y-110452859D01*
X135831958Y-110511431D01*
X135704697Y-110596464D01*
X135596470Y-110704691D01*
X135511437Y-110831952D01*
X135452865Y-110973357D01*
X135423006Y-111123472D01*
X135423006Y-111183225D01*
X135371603Y-111173000D01*
X135321780Y-111173000D01*
X135321780Y-107605274D01*
X135378920Y-107616640D01*
X135522126Y-107616640D01*
X135662581Y-107588702D01*
X135794887Y-107533899D01*
X135913959Y-107454338D01*
X136015221Y-107353076D01*
X136094782Y-107234004D01*
X136149585Y-107101698D01*
X136177523Y-106961243D01*
X136177523Y-106818037D01*
X136149585Y-106677582D01*
X136094782Y-106545276D01*
X136015221Y-106426204D01*
X135913959Y-106324942D01*
X135794887Y-106245381D01*
X135662581Y-106190578D01*
X135522126Y-106162640D01*
X135378920Y-106162640D01*
X135238465Y-106190578D01*
X135106159Y-106245381D01*
X134987087Y-106324942D01*
X134979664Y-106332365D01*
X134976838Y-106331194D01*
X134836383Y-106303256D01*
X134791770Y-106303256D01*
X134791770Y-105979517D01*
X134792390Y-105979394D01*
X134924696Y-105924591D01*
X135043768Y-105845030D01*
X135087049Y-105801749D01*
X135101115Y-105822801D01*
X135237199Y-105958885D01*
X135397217Y-106065806D01*
X135575020Y-106139454D01*
X135763774Y-106177000D01*
X135956226Y-106177000D01*
X136144980Y-106139454D01*
X136322783Y-106065806D01*
X136482801Y-105958885D01*
X136495000Y-105946686D01*
X136507199Y-105958885D01*
X136667217Y-106065806D01*
X136845020Y-106139454D01*
X137033774Y-106177000D01*
X137226226Y-106177000D01*
X137414980Y-106139454D01*
X137592783Y-106065806D01*
X137593365Y-106065417D01*
X137633711Y-106098529D01*
X137716577Y-106142822D01*
X137806492Y-106170097D01*
X137900000Y-106179307D01*
X138900000Y-106179307D01*
X138993508Y-106170097D01*
X139083423Y-106142822D01*
X139166289Y-106098529D01*
X139238921Y-106038921D01*
X139298529Y-105966289D01*
X139342822Y-105883423D01*
X139370097Y-105793508D01*
X139379307Y-105700000D01*
X139379307Y-104700000D01*
X139370097Y-104606492D01*
X139346684Y-104529307D01*
X139550000Y-104529307D01*
X139643508Y-104520097D01*
X139733423Y-104492822D01*
X139816289Y-104448529D01*
X139888921Y-104388921D01*
X139894710Y-104381868D01*
X139926471Y-104441289D01*
G04 #@! TA.AperFunction,Conductor*
D26*
G36*
X139926471Y-104441289D02*
G01*
X139986079Y-104513921D01*
X140058711Y-104573529D01*
X140073195Y-104581271D01*
X140021697Y-104628773D01*
X139870527Y-104836371D01*
X139762762Y-105069472D01*
X139732090Y-105170600D01*
X139855776Y-105373000D01*
X140873000Y-105373000D01*
X140873000Y-105353000D01*
X141127000Y-105353000D01*
X141127000Y-105373000D01*
X142144224Y-105373000D01*
X142250000Y-105199908D01*
X142355776Y-105373000D01*
X143373000Y-105373000D01*
X143373000Y-105353000D01*
X143627000Y-105353000D01*
X143627000Y-105373000D01*
X143647000Y-105373000D01*
X143647000Y-105627000D01*
X143627000Y-105627000D01*
X143627000Y-105647000D01*
X143373000Y-105647000D01*
X143373000Y-105627000D01*
X142355776Y-105627000D01*
X142250000Y-105800092D01*
X142144224Y-105627000D01*
X141127000Y-105627000D01*
X141127000Y-105647000D01*
X140873000Y-105647000D01*
X140873000Y-105627000D01*
X139855776Y-105627000D01*
X139732090Y-105829400D01*
X139762762Y-105930528D01*
X139870527Y-106163629D01*
X140021697Y-106371227D01*
X140210463Y-106545344D01*
X140286046Y-106591550D01*
X140265643Y-106605183D01*
X140105183Y-106765643D01*
X139979111Y-106954323D01*
X139892271Y-107163974D01*
X139848000Y-107386538D01*
X139848000Y-107613462D01*
X139892271Y-107836026D01*
X139979111Y-108045677D01*
X140105183Y-108234357D01*
X140265643Y-108394817D01*
X140454323Y-108520889D01*
X140663974Y-108607729D01*
X140886538Y-108652000D01*
X141113462Y-108652000D01*
X141336026Y-108607729D01*
X141545677Y-108520889D01*
X141734357Y-108394817D01*
X141894817Y-108234357D01*
X142020889Y-108045677D01*
X142107729Y-107836026D01*
X142152000Y-107613462D01*
X142152000Y-107386538D01*
X142107729Y-107163974D01*
X142020889Y-106954323D01*
X141894817Y-106765643D01*
X141734357Y-106605183D01*
X141713954Y-106591550D01*
X141789537Y-106545344D01*
X141978303Y-106371227D01*
X142129473Y-106163629D01*
X142237238Y-105930528D01*
X142250000Y-105888451D01*
X142262762Y-105930528D01*
X142370527Y-106163629D01*
X142521697Y-106371227D01*
X142710463Y-106545344D01*
X142786046Y-106591550D01*
X142765643Y-106605183D01*
X142605183Y-106765643D01*
X142479111Y-106954323D01*
X142392271Y-107163974D01*
X142348000Y-107386538D01*
X142348000Y-107613462D01*
X142392271Y-107836026D01*
X142479111Y-108045677D01*
X142605183Y-108234357D01*
X142765643Y-108394817D01*
X142954323Y-108520889D01*
X143163974Y-108607729D01*
X143386538Y-108652000D01*
X143613462Y-108652000D01*
X143836026Y-108607729D01*
X144045677Y-108520889D01*
X144234357Y-108394817D01*
X144394817Y-108234357D01*
X144448001Y-108154762D01*
X144448000Y-110831339D01*
X144285913Y-110669252D01*
X144068570Y-110524028D01*
X143827072Y-110423996D01*
X143570698Y-110373000D01*
X143309302Y-110373000D01*
X143052928Y-110423996D01*
X142811430Y-110524028D01*
X142594087Y-110669252D01*
X142409252Y-110854087D01*
X142264028Y-111071430D01*
X142229307Y-111155254D01*
X142229307Y-110850000D01*
X142220097Y-110756492D01*
X142192822Y-110666577D01*
X142148529Y-110583711D01*
X142088921Y-110511079D01*
X142016289Y-110451471D01*
X141933423Y-110407178D01*
X141843508Y-110379903D01*
X141750000Y-110370693D01*
X140050000Y-110370693D01*
X139956492Y-110379903D01*
X139866577Y-110407178D01*
X139783711Y-110451471D01*
X139711079Y-110511079D01*
X139651471Y-110583711D01*
X139607178Y-110666577D01*
X139579903Y-110756492D01*
X139570693Y-110850000D01*
X139570693Y-112550000D01*
X139579903Y-112643508D01*
X139607178Y-112733423D01*
X139651471Y-112816289D01*
X139711079Y-112888921D01*
X139783711Y-112948529D01*
X139866577Y-112992822D01*
X139956492Y-113020097D01*
X140050000Y-113029307D01*
X141750000Y-113029307D01*
X141843508Y-113020097D01*
X141933423Y-112992822D01*
X142016289Y-112948529D01*
X142088921Y-112888921D01*
X142148529Y-112816289D01*
X142192822Y-112733423D01*
X142220097Y-112643508D01*
X142229307Y-112550000D01*
X142229307Y-112244746D01*
X142264028Y-112328570D01*
X142409252Y-112545913D01*
X142594087Y-112730748D01*
X142811430Y-112875972D01*
X143052928Y-112976004D01*
X143309302Y-113027000D01*
X143570698Y-113027000D01*
X143827072Y-112976004D01*
X144068570Y-112875972D01*
X144285913Y-112730748D01*
X144448000Y-112568661D01*
X144448000Y-114331339D01*
X144285913Y-114169252D01*
X144068570Y-114024028D01*
X143827072Y-113923996D01*
X143570698Y-113873000D01*
X143309302Y-113873000D01*
X143052928Y-113923996D01*
X142811430Y-114024028D01*
X142594087Y-114169252D01*
X142409252Y-114354087D01*
X142264028Y-114571430D01*
X142229307Y-114655254D01*
X142229307Y-114350000D01*
X142220097Y-114256492D01*
X142192822Y-114166577D01*
X142148529Y-114083711D01*
X142088921Y-114011079D01*
X142016289Y-113951471D01*
X141933423Y-113907178D01*
X141843508Y-113879903D01*
X141750000Y-113870693D01*
X140050000Y-113870693D01*
X139956492Y-113879903D01*
X139866577Y-113907178D01*
X139783711Y-113951471D01*
X139711079Y-114011079D01*
X139651471Y-114083711D01*
X139607178Y-114166577D01*
X139579903Y-114256492D01*
X139570693Y-114350000D01*
X139570693Y-116050000D01*
X139579903Y-116143508D01*
X139607178Y-116233423D01*
X139651471Y-116316289D01*
X139711079Y-116388921D01*
X139783066Y-116448000D01*
X133014833Y-116448000D01*
X133050537Y-116404494D01*
X133109502Y-116294180D01*
X133145812Y-116174482D01*
X133158072Y-116050000D01*
X133155000Y-115485750D01*
X132996250Y-115327000D01*
X131797000Y-115327000D01*
X131797000Y-115347000D01*
X131543000Y-115347000D01*
X131543000Y-115327000D01*
X131523000Y-115327000D01*
X131523000Y-115073000D01*
X131543000Y-115073000D01*
X131543000Y-115053000D01*
X131797000Y-115053000D01*
X131797000Y-115073000D01*
X132996250Y-115073000D01*
X133155000Y-114914250D01*
X133156564Y-114626999D01*
X134616756Y-114626999D01*
X134650001Y-114630273D01*
X134683246Y-114626999D01*
X134683253Y-114626999D01*
X134782716Y-114617203D01*
X134910331Y-114578491D01*
X135027942Y-114515627D01*
X135131028Y-114431026D01*
X135152227Y-114405195D01*
X137606220Y-111951203D01*
X137626643Y-111947141D01*
X137768048Y-111888569D01*
X137895309Y-111803536D01*
X138003536Y-111695309D01*
X138088569Y-111568048D01*
X138147141Y-111426643D01*
X138177000Y-111276528D01*
X138177000Y-111123472D01*
X138147141Y-110973357D01*
X138088569Y-110831952D01*
X138003536Y-110704691D01*
X137895309Y-110596464D01*
X137768048Y-110511431D01*
X137626643Y-110452859D01*
X137476528Y-110423000D01*
X137323472Y-110423000D01*
X137173357Y-110452859D01*
X137031952Y-110511431D01*
X136904691Y-110596464D01*
X136800003Y-110701152D01*
X136695315Y-110596464D01*
X136568054Y-110511431D01*
X136426649Y-110452859D01*
X136276534Y-110423000D01*
X136123478Y-110423000D01*
X135973363Y-110452859D01*
X135831958Y-110511431D01*
X135704697Y-110596464D01*
X135596470Y-110704691D01*
X135511437Y-110831952D01*
X135452865Y-110973357D01*
X135423006Y-111123472D01*
X135423006Y-111183225D01*
X135371603Y-111173000D01*
X135321780Y-111173000D01*
X135321780Y-107605274D01*
X135378920Y-107616640D01*
X135522126Y-107616640D01*
X135662581Y-107588702D01*
X135794887Y-107533899D01*
X135913959Y-107454338D01*
X136015221Y-107353076D01*
X136094782Y-107234004D01*
X136149585Y-107101698D01*
X136177523Y-106961243D01*
X136177523Y-106818037D01*
X136149585Y-106677582D01*
X136094782Y-106545276D01*
X136015221Y-106426204D01*
X135913959Y-106324942D01*
X135794887Y-106245381D01*
X135662581Y-106190578D01*
X135522126Y-106162640D01*
X135378920Y-106162640D01*
X135238465Y-106190578D01*
X135106159Y-106245381D01*
X134987087Y-106324942D01*
X134979664Y-106332365D01*
X134976838Y-106331194D01*
X134836383Y-106303256D01*
X134791770Y-106303256D01*
X134791770Y-105979517D01*
X134792390Y-105979394D01*
X134924696Y-105924591D01*
X135043768Y-105845030D01*
X135087049Y-105801749D01*
X135101115Y-105822801D01*
X135237199Y-105958885D01*
X135397217Y-106065806D01*
X135575020Y-106139454D01*
X135763774Y-106177000D01*
X135956226Y-106177000D01*
X136144980Y-106139454D01*
X136322783Y-106065806D01*
X136482801Y-105958885D01*
X136495000Y-105946686D01*
X136507199Y-105958885D01*
X136667217Y-106065806D01*
X136845020Y-106139454D01*
X137033774Y-106177000D01*
X137226226Y-106177000D01*
X137414980Y-106139454D01*
X137592783Y-106065806D01*
X137593365Y-106065417D01*
X137633711Y-106098529D01*
X137716577Y-106142822D01*
X137806492Y-106170097D01*
X137900000Y-106179307D01*
X138900000Y-106179307D01*
X138993508Y-106170097D01*
X139083423Y-106142822D01*
X139166289Y-106098529D01*
X139238921Y-106038921D01*
X139298529Y-105966289D01*
X139342822Y-105883423D01*
X139370097Y-105793508D01*
X139379307Y-105700000D01*
X139379307Y-104700000D01*
X139370097Y-104606492D01*
X139346684Y-104529307D01*
X139550000Y-104529307D01*
X139643508Y-104520097D01*
X139733423Y-104492822D01*
X139816289Y-104448529D01*
X139888921Y-104388921D01*
X139894710Y-104381868D01*
X139926471Y-104441289D01*
G37*
G04 #@! TD.AperFunction*
D25*
X119627000Y-115373000D02*
X119647000Y-115373000D01*
X119647000Y-115627000D01*
X119627000Y-115627000D01*
X119627000Y-115647000D01*
X119373000Y-115647000D01*
X119373000Y-115627000D01*
X119353000Y-115627000D01*
X119353000Y-115373000D01*
X119373000Y-115373000D01*
X119373000Y-115353000D01*
X119627000Y-115353000D01*
X119627000Y-115373000D01*
G04 #@! TA.AperFunction,Conductor*
D26*
G36*
X119627000Y-115373000D02*
G01*
X119647000Y-115373000D01*
X119647000Y-115627000D01*
X119627000Y-115627000D01*
X119627000Y-115647000D01*
X119373000Y-115647000D01*
X119373000Y-115627000D01*
X119353000Y-115627000D01*
X119353000Y-115373000D01*
X119373000Y-115373000D01*
X119373000Y-115353000D01*
X119627000Y-115353000D01*
X119627000Y-115373000D01*
G37*
G04 #@! TD.AperFunction*
D25*
X126717000Y-115073000D02*
X126737000Y-115073000D01*
X126737000Y-115327000D01*
X126717000Y-115327000D01*
X126717000Y-115347000D01*
X126463000Y-115347000D01*
X126463000Y-115327000D01*
X126443000Y-115327000D01*
X126443000Y-115073000D01*
X126463000Y-115073000D01*
X126463000Y-115053000D01*
X126717000Y-115053000D01*
X126717000Y-115073000D01*
G04 #@! TA.AperFunction,Conductor*
D26*
G36*
X126717000Y-115073000D02*
G01*
X126737000Y-115073000D01*
X126737000Y-115327000D01*
X126717000Y-115327000D01*
X126717000Y-115347000D01*
X126463000Y-115347000D01*
X126463000Y-115327000D01*
X126443000Y-115327000D01*
X126443000Y-115073000D01*
X126463000Y-115073000D01*
X126463000Y-115053000D01*
X126717000Y-115053000D01*
X126717000Y-115073000D01*
G37*
G04 #@! TD.AperFunction*
D25*
X127068001Y-111085493D02*
X127065306Y-111112856D01*
X127068001Y-111140219D01*
X127068001Y-111140220D01*
X127076060Y-111222047D01*
X127100663Y-111303153D01*
X127107910Y-111327042D01*
X127159631Y-111423806D01*
X127211324Y-111486793D01*
X127229237Y-111508620D01*
X127250489Y-111526061D01*
X128151924Y-112427497D01*
X128119364Y-112405741D01*
X127987058Y-112350938D01*
X127846603Y-112323000D01*
X127703397Y-112323000D01*
X127562942Y-112350938D01*
X127430636Y-112405741D01*
X127311564Y-112485302D01*
X127210302Y-112586564D01*
X127130741Y-112705636D01*
X127075938Y-112837942D01*
X127048000Y-112978397D01*
X127048000Y-113068021D01*
X126376710Y-113068021D01*
X126376710Y-113023417D01*
X126348772Y-112882962D01*
X126293969Y-112750656D01*
X126214408Y-112631584D01*
X126113146Y-112530322D01*
X126052221Y-112489613D01*
X126052221Y-112403167D01*
X126024283Y-112262712D01*
X125969480Y-112130406D01*
X125889919Y-112011334D01*
X125788657Y-111910072D01*
X125669585Y-111830511D01*
X125537279Y-111775708D01*
X125396824Y-111747770D01*
X125253618Y-111747770D01*
X125113163Y-111775708D01*
X124980857Y-111830511D01*
X124861785Y-111910072D01*
X124760523Y-112011334D01*
X124680962Y-112130406D01*
X124626159Y-112262712D01*
X124598221Y-112403167D01*
X124598221Y-112546373D01*
X124626159Y-112686828D01*
X124680962Y-112819134D01*
X124689834Y-112832412D01*
X124195251Y-112337829D01*
X124195251Y-110171397D01*
X124749000Y-110171397D01*
X124749000Y-110314603D01*
X124776938Y-110455058D01*
X124831741Y-110587364D01*
X124911302Y-110706436D01*
X125012564Y-110807698D01*
X125131636Y-110887259D01*
X125263942Y-110942062D01*
X125404397Y-110970000D01*
X125547603Y-110970000D01*
X125688058Y-110942062D01*
X125820364Y-110887259D01*
X125939436Y-110807698D01*
X126040698Y-110706436D01*
X126120259Y-110587364D01*
X126175062Y-110455058D01*
X126203000Y-110314603D01*
X126203000Y-110171397D01*
X126175062Y-110030942D01*
X126120259Y-109898636D01*
X126040698Y-109779564D01*
X125939436Y-109678302D01*
X125820364Y-109598741D01*
X125688058Y-109543938D01*
X125547603Y-109516000D01*
X125404397Y-109516000D01*
X125263942Y-109543938D01*
X125131636Y-109598741D01*
X125012564Y-109678302D01*
X124911302Y-109779564D01*
X124831741Y-109898636D01*
X124776938Y-110030942D01*
X124749000Y-110171397D01*
X124195251Y-110171397D01*
X124195251Y-109820407D01*
X124228397Y-109827000D01*
X124371603Y-109827000D01*
X124512058Y-109799062D01*
X124644364Y-109744259D01*
X124763436Y-109664698D01*
X124864698Y-109563436D01*
X124944259Y-109444364D01*
X124999062Y-109312058D01*
X125002198Y-109296293D01*
X125020664Y-109296293D01*
X125161119Y-109268355D01*
X125293425Y-109213552D01*
X125412497Y-109133991D01*
X125513759Y-109032729D01*
X125530976Y-109006962D01*
X125535302Y-109013436D01*
X125636564Y-109114698D01*
X125755636Y-109194259D01*
X125887942Y-109249062D01*
X126028397Y-109277000D01*
X126171603Y-109277000D01*
X126312058Y-109249062D01*
X126444364Y-109194259D01*
X126563436Y-109114698D01*
X126664698Y-109013436D01*
X126744259Y-108894364D01*
X126799062Y-108762058D01*
X126827000Y-108621603D01*
X126827000Y-108478397D01*
X126799062Y-108337942D01*
X126744259Y-108205636D01*
X126664698Y-108086564D01*
X126628224Y-108050090D01*
X127068001Y-107610314D01*
X127068001Y-111085493D01*
G04 #@! TA.AperFunction,Conductor*
D26*
G36*
X127068001Y-111085493D02*
G01*
X127065306Y-111112856D01*
X127068001Y-111140219D01*
X127068001Y-111140220D01*
X127076060Y-111222047D01*
X127100663Y-111303153D01*
X127107910Y-111327042D01*
X127159631Y-111423806D01*
X127211324Y-111486793D01*
X127229237Y-111508620D01*
X127250489Y-111526061D01*
X128151924Y-112427497D01*
X128119364Y-112405741D01*
X127987058Y-112350938D01*
X127846603Y-112323000D01*
X127703397Y-112323000D01*
X127562942Y-112350938D01*
X127430636Y-112405741D01*
X127311564Y-112485302D01*
X127210302Y-112586564D01*
X127130741Y-112705636D01*
X127075938Y-112837942D01*
X127048000Y-112978397D01*
X127048000Y-113068021D01*
X126376710Y-113068021D01*
X126376710Y-113023417D01*
X126348772Y-112882962D01*
X126293969Y-112750656D01*
X126214408Y-112631584D01*
X126113146Y-112530322D01*
X126052221Y-112489613D01*
X126052221Y-112403167D01*
X126024283Y-112262712D01*
X125969480Y-112130406D01*
X125889919Y-112011334D01*
X125788657Y-111910072D01*
X125669585Y-111830511D01*
X125537279Y-111775708D01*
X125396824Y-111747770D01*
X125253618Y-111747770D01*
X125113163Y-111775708D01*
X124980857Y-111830511D01*
X124861785Y-111910072D01*
X124760523Y-112011334D01*
X124680962Y-112130406D01*
X124626159Y-112262712D01*
X124598221Y-112403167D01*
X124598221Y-112546373D01*
X124626159Y-112686828D01*
X124680962Y-112819134D01*
X124689834Y-112832412D01*
X124195251Y-112337829D01*
X124195251Y-110171397D01*
X124749000Y-110171397D01*
X124749000Y-110314603D01*
X124776938Y-110455058D01*
X124831741Y-110587364D01*
X124911302Y-110706436D01*
X125012564Y-110807698D01*
X125131636Y-110887259D01*
X125263942Y-110942062D01*
X125404397Y-110970000D01*
X125547603Y-110970000D01*
X125688058Y-110942062D01*
X125820364Y-110887259D01*
X125939436Y-110807698D01*
X126040698Y-110706436D01*
X126120259Y-110587364D01*
X126175062Y-110455058D01*
X126203000Y-110314603D01*
X126203000Y-110171397D01*
X126175062Y-110030942D01*
X126120259Y-109898636D01*
X126040698Y-109779564D01*
X125939436Y-109678302D01*
X125820364Y-109598741D01*
X125688058Y-109543938D01*
X125547603Y-109516000D01*
X125404397Y-109516000D01*
X125263942Y-109543938D01*
X125131636Y-109598741D01*
X125012564Y-109678302D01*
X124911302Y-109779564D01*
X124831741Y-109898636D01*
X124776938Y-110030942D01*
X124749000Y-110171397D01*
X124195251Y-110171397D01*
X124195251Y-109820407D01*
X124228397Y-109827000D01*
X124371603Y-109827000D01*
X124512058Y-109799062D01*
X124644364Y-109744259D01*
X124763436Y-109664698D01*
X124864698Y-109563436D01*
X124944259Y-109444364D01*
X124999062Y-109312058D01*
X125002198Y-109296293D01*
X125020664Y-109296293D01*
X125161119Y-109268355D01*
X125293425Y-109213552D01*
X125412497Y-109133991D01*
X125513759Y-109032729D01*
X125530976Y-109006962D01*
X125535302Y-109013436D01*
X125636564Y-109114698D01*
X125755636Y-109194259D01*
X125887942Y-109249062D01*
X126028397Y-109277000D01*
X126171603Y-109277000D01*
X126312058Y-109249062D01*
X126444364Y-109194259D01*
X126563436Y-109114698D01*
X126664698Y-109013436D01*
X126744259Y-108894364D01*
X126799062Y-108762058D01*
X126827000Y-108621603D01*
X126827000Y-108478397D01*
X126799062Y-108337942D01*
X126744259Y-108205636D01*
X126664698Y-108086564D01*
X126628224Y-108050090D01*
X127068001Y-107610314D01*
X127068001Y-111085493D01*
G37*
G04 #@! TD.AperFunction*
D25*
X131973000Y-103360716D02*
X131973000Y-103371603D01*
X132000938Y-103512058D01*
X132055741Y-103644364D01*
X132135302Y-103763436D01*
X132236564Y-103864698D01*
X132237698Y-103865455D01*
X132040484Y-104062669D01*
X132019226Y-104080115D01*
X131949621Y-104164929D01*
X131897899Y-104261694D01*
X131866049Y-104366689D01*
X131857990Y-104448516D01*
X131857990Y-104448526D01*
X131855296Y-104475879D01*
X131857990Y-104503233D01*
X131857991Y-106795163D01*
X130875494Y-107777660D01*
X130854236Y-107795106D01*
X130784631Y-107879920D01*
X130732909Y-107976685D01*
X130701059Y-108081680D01*
X130693000Y-108163507D01*
X130693000Y-108163517D01*
X130690306Y-108190870D01*
X130693000Y-108218223D01*
X130693001Y-111669282D01*
X130133135Y-112229149D01*
X130133135Y-112119086D01*
X130135829Y-112091732D01*
X130133135Y-112064378D01*
X130133135Y-112064369D01*
X130125076Y-111982542D01*
X130093226Y-111877547D01*
X130068084Y-111830511D01*
X130041504Y-111780782D01*
X129989342Y-111717223D01*
X129989340Y-111717221D01*
X129971899Y-111695969D01*
X129950647Y-111678528D01*
X128857000Y-110584882D01*
X128857000Y-106291159D01*
X129121904Y-106291159D01*
X129121904Y-106434365D01*
X129149842Y-106574820D01*
X129204645Y-106707126D01*
X129284206Y-106826198D01*
X129385468Y-106927460D01*
X129504540Y-107007021D01*
X129636846Y-107061824D01*
X129777301Y-107089762D01*
X129920507Y-107089762D01*
X130060962Y-107061824D01*
X130193268Y-107007021D01*
X130201095Y-107001791D01*
X130207958Y-107006377D01*
X130340264Y-107061180D01*
X130480719Y-107089118D01*
X130623925Y-107089118D01*
X130764380Y-107061180D01*
X130896686Y-107006377D01*
X131015758Y-106926816D01*
X131117020Y-106825554D01*
X131196581Y-106706482D01*
X131251384Y-106574176D01*
X131279322Y-106433721D01*
X131279322Y-106325321D01*
X131368048Y-106288569D01*
X131495309Y-106203536D01*
X131603536Y-106095309D01*
X131688569Y-105968048D01*
X131747141Y-105826643D01*
X131777000Y-105676528D01*
X131777000Y-105523472D01*
X131747141Y-105373357D01*
X131688569Y-105231952D01*
X131603536Y-105104691D01*
X131495309Y-104996464D01*
X131368048Y-104911431D01*
X131226643Y-104852859D01*
X131076528Y-104823000D01*
X130923472Y-104823000D01*
X130773357Y-104852859D01*
X130631952Y-104911431D01*
X130515100Y-104989509D01*
X130426643Y-104952869D01*
X130276528Y-104923010D01*
X130123472Y-104923010D01*
X129973357Y-104952869D01*
X129831952Y-105011441D01*
X129704691Y-105096474D01*
X129596464Y-105204701D01*
X129511431Y-105331962D01*
X129452859Y-105473367D01*
X129423000Y-105623482D01*
X129423000Y-105772986D01*
X129385468Y-105798064D01*
X129284206Y-105899326D01*
X129204645Y-106018398D01*
X129149842Y-106150704D01*
X129121904Y-106291159D01*
X128857000Y-106291159D01*
X128857000Y-103816134D01*
X128864698Y-103808436D01*
X128944259Y-103689364D01*
X128999062Y-103557058D01*
X129027000Y-103416603D01*
X129027000Y-103326998D01*
X131939282Y-103326998D01*
X131973000Y-103360716D01*
G04 #@! TA.AperFunction,Conductor*
D26*
G36*
X131973000Y-103360716D02*
G01*
X131973000Y-103371603D01*
X132000938Y-103512058D01*
X132055741Y-103644364D01*
X132135302Y-103763436D01*
X132236564Y-103864698D01*
X132237698Y-103865455D01*
X132040484Y-104062669D01*
X132019226Y-104080115D01*
X131949621Y-104164929D01*
X131897899Y-104261694D01*
X131866049Y-104366689D01*
X131857990Y-104448516D01*
X131857990Y-104448526D01*
X131855296Y-104475879D01*
X131857990Y-104503233D01*
X131857991Y-106795163D01*
X130875494Y-107777660D01*
X130854236Y-107795106D01*
X130784631Y-107879920D01*
X130732909Y-107976685D01*
X130701059Y-108081680D01*
X130693000Y-108163507D01*
X130693000Y-108163517D01*
X130690306Y-108190870D01*
X130693000Y-108218223D01*
X130693001Y-111669282D01*
X130133135Y-112229149D01*
X130133135Y-112119086D01*
X130135829Y-112091732D01*
X130133135Y-112064378D01*
X130133135Y-112064369D01*
X130125076Y-111982542D01*
X130093226Y-111877547D01*
X130068084Y-111830511D01*
X130041504Y-111780782D01*
X129989342Y-111717223D01*
X129989340Y-111717221D01*
X129971899Y-111695969D01*
X129950647Y-111678528D01*
X128857000Y-110584882D01*
X128857000Y-106291159D01*
X129121904Y-106291159D01*
X129121904Y-106434365D01*
X129149842Y-106574820D01*
X129204645Y-106707126D01*
X129284206Y-106826198D01*
X129385468Y-106927460D01*
X129504540Y-107007021D01*
X129636846Y-107061824D01*
X129777301Y-107089762D01*
X129920507Y-107089762D01*
X130060962Y-107061824D01*
X130193268Y-107007021D01*
X130201095Y-107001791D01*
X130207958Y-107006377D01*
X130340264Y-107061180D01*
X130480719Y-107089118D01*
X130623925Y-107089118D01*
X130764380Y-107061180D01*
X130896686Y-107006377D01*
X131015758Y-106926816D01*
X131117020Y-106825554D01*
X131196581Y-106706482D01*
X131251384Y-106574176D01*
X131279322Y-106433721D01*
X131279322Y-106325321D01*
X131368048Y-106288569D01*
X131495309Y-106203536D01*
X131603536Y-106095309D01*
X131688569Y-105968048D01*
X131747141Y-105826643D01*
X131777000Y-105676528D01*
X131777000Y-105523472D01*
X131747141Y-105373357D01*
X131688569Y-105231952D01*
X131603536Y-105104691D01*
X131495309Y-104996464D01*
X131368048Y-104911431D01*
X131226643Y-104852859D01*
X131076528Y-104823000D01*
X130923472Y-104823000D01*
X130773357Y-104852859D01*
X130631952Y-104911431D01*
X130515100Y-104989509D01*
X130426643Y-104952869D01*
X130276528Y-104923010D01*
X130123472Y-104923010D01*
X129973357Y-104952869D01*
X129831952Y-105011441D01*
X129704691Y-105096474D01*
X129596464Y-105204701D01*
X129511431Y-105331962D01*
X129452859Y-105473367D01*
X129423000Y-105623482D01*
X129423000Y-105772986D01*
X129385468Y-105798064D01*
X129284206Y-105899326D01*
X129204645Y-106018398D01*
X129149842Y-106150704D01*
X129121904Y-106291159D01*
X128857000Y-106291159D01*
X128857000Y-103816134D01*
X128864698Y-103808436D01*
X128944259Y-103689364D01*
X128999062Y-103557058D01*
X129027000Y-103416603D01*
X129027000Y-103326998D01*
X131939282Y-103326998D01*
X131973000Y-103360716D01*
G37*
G04 #@! TD.AperFunction*
D25*
X122827000Y-103373000D02*
X122847000Y-103373000D01*
X122847000Y-103627000D01*
X122827000Y-103627000D01*
X122827000Y-103647000D01*
X122573000Y-103647000D01*
X122573000Y-103627000D01*
X122553000Y-103627000D01*
X122553000Y-103373000D01*
X122573000Y-103373000D01*
X122573000Y-103353000D01*
X122827000Y-103353000D01*
X122827000Y-103373000D01*
G04 #@! TA.AperFunction,Conductor*
D26*
G36*
X122827000Y-103373000D02*
G01*
X122847000Y-103373000D01*
X122847000Y-103627000D01*
X122827000Y-103627000D01*
X122827000Y-103647000D01*
X122573000Y-103647000D01*
X122573000Y-103627000D01*
X122553000Y-103627000D01*
X122553000Y-103373000D01*
X122573000Y-103373000D01*
X122573000Y-103353000D01*
X122827000Y-103353000D01*
X122827000Y-103373000D01*
G37*
G04 #@! TD.AperFunction*
D25*
X121654656Y-102710463D02*
X121608450Y-102786046D01*
X121594817Y-102765643D01*
X121434357Y-102605183D01*
X121354763Y-102552000D01*
X121800822Y-102552000D01*
X121654656Y-102710463D01*
G04 #@! TA.AperFunction,Conductor*
D26*
G36*
X121654656Y-102710463D02*
G01*
X121608450Y-102786046D01*
X121594817Y-102765643D01*
X121434357Y-102605183D01*
X121354763Y-102552000D01*
X121800822Y-102552000D01*
X121654656Y-102710463D01*
G37*
G04 #@! TD.AperFunction*
M02*
