G04 #@! TF.GenerationSoftware,KiCad,Pcbnew,(5.1.5)-3*
G04 #@! TF.CreationDate,2020-12-08T16:20:54+11:00*
G04 #@! TF.ProjectId,microBoSL,6d696372-6f42-46f5-934c-2e6b69636164,0.1.0*
G04 #@! TF.SameCoordinates,Original*
G04 #@! TF.FileFunction,Legend,Top*
G04 #@! TF.FilePolarity,Positive*
%FSLAX46Y46*%
G04 Gerber Fmt 4.6, Leading zero omitted, Abs format (unit mm)*
G04 Created by KiCad (PCBNEW (5.1.5)-3) date 2020-12-08 16:20:54*
%MOMM*%
%LPD*%
G04 APERTURE LIST*
%ADD10C,0.125000*%
%ADD11C,0.150000*%
%ADD12C,0.100000*%
%ADD13C,0.120000*%
G04 APERTURE END LIST*
D10*
X112304761Y-114802380D02*
X112376190Y-114826190D01*
X112495238Y-114826190D01*
X112542857Y-114802380D01*
X112566666Y-114778571D01*
X112590476Y-114730952D01*
X112590476Y-114683333D01*
X112566666Y-114635714D01*
X112542857Y-114611904D01*
X112495238Y-114588095D01*
X112400000Y-114564285D01*
X112352380Y-114540476D01*
X112328571Y-114516666D01*
X112304761Y-114469047D01*
X112304761Y-114421428D01*
X112328571Y-114373809D01*
X112352380Y-114350000D01*
X112400000Y-114326190D01*
X112519047Y-114326190D01*
X112590476Y-114350000D01*
X113090476Y-114778571D02*
X113066666Y-114802380D01*
X112995238Y-114826190D01*
X112947619Y-114826190D01*
X112876190Y-114802380D01*
X112828571Y-114754761D01*
X112804761Y-114707142D01*
X112780952Y-114611904D01*
X112780952Y-114540476D01*
X112804761Y-114445238D01*
X112828571Y-114397619D01*
X112876190Y-114350000D01*
X112947619Y-114326190D01*
X112995238Y-114326190D01*
X113066666Y-114350000D01*
X113090476Y-114373809D01*
X113542857Y-114826190D02*
X113304761Y-114826190D01*
X113304761Y-114326190D01*
X114892857Y-114802380D02*
X114964285Y-114826190D01*
X115083333Y-114826190D01*
X115130952Y-114802380D01*
X115154761Y-114778571D01*
X115178571Y-114730952D01*
X115178571Y-114683333D01*
X115154761Y-114635714D01*
X115130952Y-114611904D01*
X115083333Y-114588095D01*
X114988095Y-114564285D01*
X114940476Y-114540476D01*
X114916666Y-114516666D01*
X114892857Y-114469047D01*
X114892857Y-114421428D01*
X114916666Y-114373809D01*
X114940476Y-114350000D01*
X114988095Y-114326190D01*
X115107142Y-114326190D01*
X115178571Y-114350000D01*
X115392857Y-114826190D02*
X115392857Y-114326190D01*
X115511904Y-114326190D01*
X115583333Y-114350000D01*
X115630952Y-114397619D01*
X115654761Y-114445238D01*
X115678571Y-114540476D01*
X115678571Y-114611904D01*
X115654761Y-114707142D01*
X115630952Y-114754761D01*
X115583333Y-114802380D01*
X115511904Y-114826190D01*
X115392857Y-114826190D01*
X115869047Y-114683333D02*
X116107142Y-114683333D01*
X115821428Y-114826190D02*
X115988095Y-114326190D01*
X116154761Y-114826190D01*
X117719047Y-114350000D02*
X117671428Y-114326190D01*
X117600000Y-114326190D01*
X117528571Y-114350000D01*
X117480952Y-114397619D01*
X117457142Y-114445238D01*
X117433333Y-114540476D01*
X117433333Y-114611904D01*
X117457142Y-114707142D01*
X117480952Y-114754761D01*
X117528571Y-114802380D01*
X117600000Y-114826190D01*
X117647619Y-114826190D01*
X117719047Y-114802380D01*
X117742857Y-114778571D01*
X117742857Y-114611904D01*
X117647619Y-114611904D01*
X117957142Y-114826190D02*
X117957142Y-114326190D01*
X118242857Y-114826190D01*
X118242857Y-114326190D01*
X118480952Y-114826190D02*
X118480952Y-114326190D01*
X118600000Y-114326190D01*
X118671428Y-114350000D01*
X118719047Y-114397619D01*
X118742857Y-114445238D01*
X118766666Y-114540476D01*
X118766666Y-114611904D01*
X118742857Y-114707142D01*
X118719047Y-114754761D01*
X118671428Y-114802380D01*
X118600000Y-114826190D01*
X118480952Y-114826190D01*
X119980952Y-114326190D02*
X120290476Y-114326190D01*
X120123809Y-114516666D01*
X120195238Y-114516666D01*
X120242857Y-114540476D01*
X120266666Y-114564285D01*
X120290476Y-114611904D01*
X120290476Y-114730952D01*
X120266666Y-114778571D01*
X120242857Y-114802380D01*
X120195238Y-114826190D01*
X120052380Y-114826190D01*
X120004761Y-114802380D01*
X119980952Y-114778571D01*
X120433333Y-114326190D02*
X120600000Y-114826190D01*
X120766666Y-114326190D01*
X120885714Y-114326190D02*
X121195238Y-114326190D01*
X121028571Y-114516666D01*
X121100000Y-114516666D01*
X121147619Y-114540476D01*
X121171428Y-114564285D01*
X121195238Y-114611904D01*
X121195238Y-114730952D01*
X121171428Y-114778571D01*
X121147619Y-114802380D01*
X121100000Y-114826190D01*
X120957142Y-114826190D01*
X120909523Y-114802380D01*
X120885714Y-114778571D01*
X123580952Y-114326190D02*
X123890476Y-114326190D01*
X123723809Y-114516666D01*
X123795238Y-114516666D01*
X123842857Y-114540476D01*
X123866666Y-114564285D01*
X123890476Y-114611904D01*
X123890476Y-114730952D01*
X123866666Y-114778571D01*
X123842857Y-114802380D01*
X123795238Y-114826190D01*
X123652380Y-114826190D01*
X123604761Y-114802380D01*
X123580952Y-114778571D01*
X124033333Y-114326190D02*
X124200000Y-114826190D01*
X124366666Y-114326190D01*
X124485714Y-114326190D02*
X124795238Y-114326190D01*
X124628571Y-114516666D01*
X124700000Y-114516666D01*
X124747619Y-114540476D01*
X124771428Y-114564285D01*
X124795238Y-114611904D01*
X124795238Y-114730952D01*
X124771428Y-114778571D01*
X124747619Y-114802380D01*
X124700000Y-114826190D01*
X124557142Y-114826190D01*
X124509523Y-114802380D01*
X124485714Y-114778571D01*
X126419047Y-114350000D02*
X126371428Y-114326190D01*
X126300000Y-114326190D01*
X126228571Y-114350000D01*
X126180952Y-114397619D01*
X126157142Y-114445238D01*
X126133333Y-114540476D01*
X126133333Y-114611904D01*
X126157142Y-114707142D01*
X126180952Y-114754761D01*
X126228571Y-114802380D01*
X126300000Y-114826190D01*
X126347619Y-114826190D01*
X126419047Y-114802380D01*
X126442857Y-114778571D01*
X126442857Y-114611904D01*
X126347619Y-114611904D01*
X126657142Y-114826190D02*
X126657142Y-114326190D01*
X126942857Y-114826190D01*
X126942857Y-114326190D01*
X127180952Y-114826190D02*
X127180952Y-114326190D01*
X127300000Y-114326190D01*
X127371428Y-114350000D01*
X127419047Y-114397619D01*
X127442857Y-114445238D01*
X127466666Y-114540476D01*
X127466666Y-114611904D01*
X127442857Y-114707142D01*
X127419047Y-114754761D01*
X127371428Y-114802380D01*
X127300000Y-114826190D01*
X127180952Y-114826190D01*
X128923809Y-114226190D02*
X129090476Y-114726190D01*
X129257142Y-114226190D01*
X129423809Y-114535714D02*
X129804761Y-114535714D01*
X129614285Y-114726190D02*
X129614285Y-114345238D01*
X131519047Y-114250000D02*
X131471428Y-114226190D01*
X131400000Y-114226190D01*
X131328571Y-114250000D01*
X131280952Y-114297619D01*
X131257142Y-114345238D01*
X131233333Y-114440476D01*
X131233333Y-114511904D01*
X131257142Y-114607142D01*
X131280952Y-114654761D01*
X131328571Y-114702380D01*
X131400000Y-114726190D01*
X131447619Y-114726190D01*
X131519047Y-114702380D01*
X131542857Y-114678571D01*
X131542857Y-114511904D01*
X131447619Y-114511904D01*
X131757142Y-114726190D02*
X131757142Y-114226190D01*
X132042857Y-114726190D01*
X132042857Y-114226190D01*
X132280952Y-114726190D02*
X132280952Y-114226190D01*
X132400000Y-114226190D01*
X132471428Y-114250000D01*
X132519047Y-114297619D01*
X132542857Y-114345238D01*
X132566666Y-114440476D01*
X132566666Y-114511904D01*
X132542857Y-114607142D01*
X132519047Y-114654761D01*
X132471428Y-114702380D01*
X132400000Y-114726190D01*
X132280952Y-114726190D01*
X139569047Y-110626190D02*
X139569047Y-110126190D01*
X139759523Y-110126190D01*
X139807142Y-110150000D01*
X139830952Y-110173809D01*
X139854761Y-110221428D01*
X139854761Y-110292857D01*
X139830952Y-110340476D01*
X139807142Y-110364285D01*
X139759523Y-110388095D01*
X139569047Y-110388095D01*
X139550000Y-108380952D02*
X139526190Y-108428571D01*
X139526190Y-108500000D01*
X139550000Y-108571428D01*
X139597619Y-108619047D01*
X139645238Y-108642857D01*
X139740476Y-108666666D01*
X139811904Y-108666666D01*
X139907142Y-108642857D01*
X139954761Y-108619047D01*
X140002380Y-108571428D01*
X140026190Y-108500000D01*
X140026190Y-108452380D01*
X140002380Y-108380952D01*
X139978571Y-108357142D01*
X139811904Y-108357142D01*
X139811904Y-108452380D01*
X140026190Y-108142857D02*
X139526190Y-108142857D01*
X140026190Y-107857142D01*
X139526190Y-107857142D01*
X140026190Y-107619047D02*
X139526190Y-107619047D01*
X139526190Y-107500000D01*
X139550000Y-107428571D01*
X139597619Y-107380952D01*
X139645238Y-107357142D01*
X139740476Y-107333333D01*
X139811904Y-107333333D01*
X139907142Y-107357142D01*
X139954761Y-107380952D01*
X140002380Y-107428571D01*
X140026190Y-107500000D01*
X140026190Y-107619047D01*
X139557142Y-113202380D02*
X139628571Y-113226190D01*
X139747619Y-113226190D01*
X139795238Y-113202380D01*
X139819047Y-113178571D01*
X139842857Y-113130952D01*
X139842857Y-113083333D01*
X139819047Y-113035714D01*
X139795238Y-113011904D01*
X139747619Y-112988095D01*
X139652380Y-112964285D01*
X139604761Y-112940476D01*
X139580952Y-112916666D01*
X139557142Y-112869047D01*
X139557142Y-112821428D01*
X139580952Y-112773809D01*
X139604761Y-112750000D01*
X139652380Y-112726190D01*
X139771428Y-112726190D01*
X139842857Y-112750000D01*
X133657142Y-113402380D02*
X133728571Y-113426190D01*
X133847619Y-113426190D01*
X133895238Y-113402380D01*
X133919047Y-113378571D01*
X133942857Y-113330952D01*
X133942857Y-113283333D01*
X133919047Y-113235714D01*
X133895238Y-113211904D01*
X133847619Y-113188095D01*
X133752380Y-113164285D01*
X133704761Y-113140476D01*
X133680952Y-113116666D01*
X133657142Y-113069047D01*
X133657142Y-113021428D01*
X133680952Y-112973809D01*
X133704761Y-112950000D01*
X133752380Y-112926190D01*
X133871428Y-112926190D01*
X133942857Y-112950000D01*
X133669047Y-110826190D02*
X133669047Y-110326190D01*
X133859523Y-110326190D01*
X133907142Y-110350000D01*
X133930952Y-110373809D01*
X133954761Y-110421428D01*
X133954761Y-110492857D01*
X133930952Y-110540476D01*
X133907142Y-110564285D01*
X133859523Y-110588095D01*
X133669047Y-110588095D01*
X132919047Y-107750000D02*
X132871428Y-107726190D01*
X132800000Y-107726190D01*
X132728571Y-107750000D01*
X132680952Y-107797619D01*
X132657142Y-107845238D01*
X132633333Y-107940476D01*
X132633333Y-108011904D01*
X132657142Y-108107142D01*
X132680952Y-108154761D01*
X132728571Y-108202380D01*
X132800000Y-108226190D01*
X132847619Y-108226190D01*
X132919047Y-108202380D01*
X132942857Y-108178571D01*
X132942857Y-108011904D01*
X132847619Y-108011904D01*
X133157142Y-108226190D02*
X133157142Y-107726190D01*
X133442857Y-108226190D01*
X133442857Y-107726190D01*
X133680952Y-108226190D02*
X133680952Y-107726190D01*
X133800000Y-107726190D01*
X133871428Y-107750000D01*
X133919047Y-107797619D01*
X133942857Y-107845238D01*
X133966666Y-107940476D01*
X133966666Y-108011904D01*
X133942857Y-108107142D01*
X133919047Y-108154761D01*
X133871428Y-108202380D01*
X133800000Y-108226190D01*
X133680952Y-108226190D01*
X139878571Y-106297619D02*
X139902380Y-106321428D01*
X139926190Y-106392857D01*
X139926190Y-106440476D01*
X139902380Y-106511904D01*
X139854761Y-106559523D01*
X139807142Y-106583333D01*
X139711904Y-106607142D01*
X139640476Y-106607142D01*
X139545238Y-106583333D01*
X139497619Y-106559523D01*
X139450000Y-106511904D01*
X139426190Y-106440476D01*
X139426190Y-106392857D01*
X139450000Y-106321428D01*
X139473809Y-106297619D01*
X139926190Y-106083333D02*
X139426190Y-106083333D01*
X139926190Y-105797619D01*
X139426190Y-105797619D01*
X139426190Y-105630952D02*
X139426190Y-105345238D01*
X139926190Y-105488095D02*
X139426190Y-105488095D01*
X133026190Y-106790476D02*
X133526190Y-106671428D01*
X133169047Y-106576190D01*
X133526190Y-106480952D01*
X133026190Y-106361904D01*
X133526190Y-106171428D02*
X133026190Y-106171428D01*
X133526190Y-105885714D02*
X133240476Y-106100000D01*
X133026190Y-105885714D02*
X133311904Y-106171428D01*
X133264285Y-105671428D02*
X133264285Y-105504761D01*
X133526190Y-105433333D02*
X133526190Y-105671428D01*
X133026190Y-105671428D01*
X133026190Y-105433333D01*
D11*
X137290476Y-105600000D02*
X137214285Y-105561904D01*
X137100000Y-105561904D01*
X136985714Y-105600000D01*
X136909523Y-105676190D01*
X136871428Y-105752380D01*
X136833333Y-105904761D01*
X136833333Y-106019047D01*
X136871428Y-106171428D01*
X136909523Y-106247619D01*
X136985714Y-106323809D01*
X137100000Y-106361904D01*
X137176190Y-106361904D01*
X137290476Y-106323809D01*
X137328571Y-106285714D01*
X137328571Y-106019047D01*
X137176190Y-106019047D01*
X137671428Y-106361904D02*
X137671428Y-105561904D01*
X138128571Y-106361904D01*
X138128571Y-105561904D01*
X138509523Y-106361904D02*
X138509523Y-105561904D01*
X138700000Y-105561904D01*
X138814285Y-105600000D01*
X138890476Y-105676190D01*
X138928571Y-105752380D01*
X138966666Y-105904761D01*
X138966666Y-106019047D01*
X138928571Y-106171428D01*
X138890476Y-106247619D01*
X138814285Y-106323809D01*
X138700000Y-106361904D01*
X138509523Y-106361904D01*
X134838095Y-106361904D02*
X134838095Y-105561904D01*
X135104761Y-106133333D01*
X135371428Y-105561904D01*
X135371428Y-106361904D01*
X135752380Y-106057142D02*
X136361904Y-106057142D01*
D10*
X132242857Y-102483333D02*
X132480952Y-102483333D01*
X132195238Y-102626190D02*
X132361904Y-102126190D01*
X132528571Y-102626190D01*
X132647619Y-102126190D02*
X132957142Y-102126190D01*
X132790476Y-102316666D01*
X132861904Y-102316666D01*
X132909523Y-102340476D01*
X132933333Y-102364285D01*
X132957142Y-102411904D01*
X132957142Y-102530952D01*
X132933333Y-102578571D01*
X132909523Y-102602380D01*
X132861904Y-102626190D01*
X132719047Y-102626190D01*
X132671428Y-102602380D01*
X132647619Y-102578571D01*
X131042857Y-102483333D02*
X131280952Y-102483333D01*
X130995238Y-102626190D02*
X131161904Y-102126190D01*
X131328571Y-102626190D01*
X131757142Y-102626190D02*
X131471428Y-102626190D01*
X131614285Y-102626190D02*
X131614285Y-102126190D01*
X131566666Y-102197619D01*
X131519047Y-102245238D01*
X131471428Y-102269047D01*
D12*
X130023809Y-102626190D02*
X129795238Y-102626190D01*
X129909523Y-102626190D02*
X129909523Y-102126190D01*
X129871428Y-102197619D01*
X129833333Y-102245238D01*
X129795238Y-102269047D01*
X130157142Y-102126190D02*
X130404761Y-102126190D01*
X130271428Y-102316666D01*
X130328571Y-102316666D01*
X130366666Y-102340476D01*
X130385714Y-102364285D01*
X130404761Y-102411904D01*
X130404761Y-102530952D01*
X130385714Y-102578571D01*
X130366666Y-102602380D01*
X130328571Y-102626190D01*
X130214285Y-102626190D01*
X130176190Y-102602380D01*
X130157142Y-102578571D01*
X128723809Y-102626190D02*
X128495238Y-102626190D01*
X128609523Y-102626190D02*
X128609523Y-102126190D01*
X128571428Y-102197619D01*
X128533333Y-102245238D01*
X128495238Y-102269047D01*
X128876190Y-102173809D02*
X128895238Y-102150000D01*
X128933333Y-102126190D01*
X129028571Y-102126190D01*
X129066666Y-102150000D01*
X129085714Y-102173809D01*
X129104761Y-102221428D01*
X129104761Y-102269047D01*
X129085714Y-102340476D01*
X128857142Y-102626190D01*
X129104761Y-102626190D01*
X127423809Y-102626190D02*
X127195238Y-102626190D01*
X127309523Y-102626190D02*
X127309523Y-102126190D01*
X127271428Y-102197619D01*
X127233333Y-102245238D01*
X127195238Y-102269047D01*
X127804761Y-102626190D02*
X127576190Y-102626190D01*
X127690476Y-102626190D02*
X127690476Y-102126190D01*
X127652380Y-102197619D01*
X127614285Y-102245238D01*
X127576190Y-102269047D01*
X126223809Y-102626190D02*
X125995238Y-102626190D01*
X126109523Y-102626190D02*
X126109523Y-102126190D01*
X126071428Y-102197619D01*
X126033333Y-102245238D01*
X125995238Y-102269047D01*
X126471428Y-102126190D02*
X126509523Y-102126190D01*
X126547619Y-102150000D01*
X126566666Y-102173809D01*
X126585714Y-102221428D01*
X126604761Y-102316666D01*
X126604761Y-102435714D01*
X126585714Y-102530952D01*
X126566666Y-102578571D01*
X126547619Y-102602380D01*
X126509523Y-102626190D01*
X126471428Y-102626190D01*
X126433333Y-102602380D01*
X126414285Y-102578571D01*
X126395238Y-102530952D01*
X126376190Y-102435714D01*
X126376190Y-102316666D01*
X126395238Y-102221428D01*
X126414285Y-102173809D01*
X126433333Y-102150000D01*
X126471428Y-102126190D01*
X124952380Y-102340476D02*
X124904761Y-102316666D01*
X124880952Y-102292857D01*
X124857142Y-102245238D01*
X124857142Y-102221428D01*
X124880952Y-102173809D01*
X124904761Y-102150000D01*
X124952380Y-102126190D01*
X125047619Y-102126190D01*
X125095238Y-102150000D01*
X125119047Y-102173809D01*
X125142857Y-102221428D01*
X125142857Y-102245238D01*
X125119047Y-102292857D01*
X125095238Y-102316666D01*
X125047619Y-102340476D01*
X124952380Y-102340476D01*
X124904761Y-102364285D01*
X124880952Y-102388095D01*
X124857142Y-102435714D01*
X124857142Y-102530952D01*
X124880952Y-102578571D01*
X124904761Y-102602380D01*
X124952380Y-102626190D01*
X125047619Y-102626190D01*
X125095238Y-102602380D01*
X125119047Y-102578571D01*
X125142857Y-102530952D01*
X125142857Y-102435714D01*
X125119047Y-102388095D01*
X125095238Y-102364285D01*
X125047619Y-102340476D01*
D10*
X123633333Y-102126190D02*
X123966666Y-102126190D01*
X123752380Y-102626190D01*
X122595238Y-102292857D02*
X122595238Y-102626190D01*
X122476190Y-102102380D02*
X122357142Y-102459523D01*
X122666666Y-102459523D01*
X121033333Y-102126190D02*
X121342857Y-102126190D01*
X121176190Y-102316666D01*
X121247619Y-102316666D01*
X121295238Y-102340476D01*
X121319047Y-102364285D01*
X121342857Y-102411904D01*
X121342857Y-102530952D01*
X121319047Y-102578571D01*
X121295238Y-102602380D01*
X121247619Y-102626190D01*
X121104761Y-102626190D01*
X121057142Y-102602380D01*
X121033333Y-102578571D01*
D12*
X118695238Y-102150000D02*
X118657142Y-102126190D01*
X118600000Y-102126190D01*
X118542857Y-102150000D01*
X118504761Y-102197619D01*
X118485714Y-102245238D01*
X118466666Y-102340476D01*
X118466666Y-102411904D01*
X118485714Y-102507142D01*
X118504761Y-102554761D01*
X118542857Y-102602380D01*
X118600000Y-102626190D01*
X118638095Y-102626190D01*
X118695238Y-102602380D01*
X118714285Y-102578571D01*
X118714285Y-102411904D01*
X118638095Y-102411904D01*
X118885714Y-102626190D02*
X118885714Y-102126190D01*
X119114285Y-102626190D01*
X119114285Y-102126190D01*
X119304761Y-102626190D02*
X119304761Y-102126190D01*
X119400000Y-102126190D01*
X119457142Y-102150000D01*
X119495238Y-102197619D01*
X119514285Y-102245238D01*
X119533333Y-102340476D01*
X119533333Y-102411904D01*
X119514285Y-102507142D01*
X119495238Y-102554761D01*
X119457142Y-102602380D01*
X119400000Y-102626190D01*
X119304761Y-102626190D01*
X117580952Y-102626190D02*
X117447619Y-102388095D01*
X117352380Y-102626190D02*
X117352380Y-102126190D01*
X117504761Y-102126190D01*
X117542857Y-102150000D01*
X117561904Y-102173809D01*
X117580952Y-102221428D01*
X117580952Y-102292857D01*
X117561904Y-102340476D01*
X117542857Y-102364285D01*
X117504761Y-102388095D01*
X117352380Y-102388095D01*
X117733333Y-102602380D02*
X117790476Y-102626190D01*
X117885714Y-102626190D01*
X117923809Y-102602380D01*
X117942857Y-102578571D01*
X117961904Y-102530952D01*
X117961904Y-102483333D01*
X117942857Y-102435714D01*
X117923809Y-102411904D01*
X117885714Y-102388095D01*
X117809523Y-102364285D01*
X117771428Y-102340476D01*
X117752380Y-102316666D01*
X117733333Y-102269047D01*
X117733333Y-102221428D01*
X117752380Y-102173809D01*
X117771428Y-102150000D01*
X117809523Y-102126190D01*
X117904761Y-102126190D01*
X117961904Y-102150000D01*
X118076190Y-102126190D02*
X118304761Y-102126190D01*
X118190476Y-102626190D02*
X118190476Y-102126190D01*
D10*
X116516666Y-102626190D02*
X116350000Y-102388095D01*
X116230952Y-102626190D02*
X116230952Y-102126190D01*
X116421428Y-102126190D01*
X116469047Y-102150000D01*
X116492857Y-102173809D01*
X116516666Y-102221428D01*
X116516666Y-102292857D01*
X116492857Y-102340476D01*
X116469047Y-102364285D01*
X116421428Y-102388095D01*
X116230952Y-102388095D01*
X116683333Y-102126190D02*
X117016666Y-102626190D01*
X117016666Y-102126190D02*
X116683333Y-102626190D01*
X114919047Y-102126190D02*
X115204761Y-102126190D01*
X115061904Y-102626190D02*
X115061904Y-102126190D01*
X115323809Y-102126190D02*
X115657142Y-102626190D01*
X115657142Y-102126190D02*
X115323809Y-102626190D01*
D11*
X103790476Y-105400000D02*
X103714285Y-105361904D01*
X103600000Y-105361904D01*
X103485714Y-105400000D01*
X103409523Y-105476190D01*
X103371428Y-105552380D01*
X103333333Y-105704761D01*
X103333333Y-105819047D01*
X103371428Y-105971428D01*
X103409523Y-106047619D01*
X103485714Y-106123809D01*
X103600000Y-106161904D01*
X103676190Y-106161904D01*
X103790476Y-106123809D01*
X103828571Y-106085714D01*
X103828571Y-105819047D01*
X103676190Y-105819047D01*
X104171428Y-106161904D02*
X104171428Y-105361904D01*
X104628571Y-106161904D01*
X104628571Y-105361904D01*
X105009523Y-106161904D02*
X105009523Y-105361904D01*
X105200000Y-105361904D01*
X105314285Y-105400000D01*
X105390476Y-105476190D01*
X105428571Y-105552380D01*
X105466666Y-105704761D01*
X105466666Y-105819047D01*
X105428571Y-105971428D01*
X105390476Y-106047619D01*
X105314285Y-106123809D01*
X105200000Y-106161904D01*
X105009523Y-106161904D01*
X101338095Y-105361904D02*
X101604761Y-106161904D01*
X101871428Y-105361904D01*
X102138095Y-105857142D02*
X102747619Y-105857142D01*
X102442857Y-106161904D02*
X102442857Y-105552380D01*
X120650000Y-105475000D02*
X123625000Y-105475000D01*
X121475000Y-107725000D02*
X123625000Y-107725000D01*
D13*
X120410000Y-104760000D02*
X120410000Y-103650000D01*
X121170000Y-104760000D02*
X120410000Y-104760000D01*
X121930000Y-103086529D02*
X121930000Y-102540000D01*
X121930000Y-104760000D02*
X121930000Y-104213471D01*
X121930000Y-102540000D02*
X133295000Y-102540000D01*
X121930000Y-104760000D02*
X133295000Y-104760000D01*
X133295000Y-103342470D02*
X133295000Y-102540000D01*
X133295000Y-104760000D02*
X133295000Y-103957530D01*
X119860000Y-102540000D02*
X119860000Y-103650000D01*
X119100000Y-102540000D02*
X119860000Y-102540000D01*
X118340000Y-104213471D02*
X118340000Y-104760000D01*
X118340000Y-102540000D02*
X118340000Y-103086529D01*
X118340000Y-104760000D02*
X114595000Y-104760000D01*
X118340000Y-102540000D02*
X114595000Y-102540000D01*
X114595000Y-103957530D02*
X114595000Y-104760000D01*
X114595000Y-102540000D02*
X114595000Y-103342470D01*
X134230000Y-106690000D02*
X135560000Y-106690000D01*
X134230000Y-108020000D02*
X134230000Y-106690000D01*
X136830000Y-106690000D02*
X139430000Y-106690000D01*
X136830000Y-109290000D02*
X136830000Y-106690000D01*
X134230000Y-109290000D02*
X136830000Y-109290000D01*
X139430000Y-106690000D02*
X139430000Y-114430000D01*
X134230000Y-109290000D02*
X134230000Y-114430000D01*
X134230000Y-114430000D02*
X139430000Y-114430000D01*
X119800000Y-105400000D02*
X118000000Y-105400000D01*
X117950000Y-106800000D02*
X117950000Y-107900000D01*
X119850000Y-106800000D02*
X119850000Y-107900000D01*
X110572500Y-109165000D02*
X110572500Y-108690000D01*
X105352500Y-113910000D02*
X105827500Y-113910000D01*
X105352500Y-113435000D02*
X105352500Y-113910000D01*
X105352500Y-108690000D02*
X105827500Y-108690000D01*
X105352500Y-109165000D02*
X105352500Y-108690000D01*
X110572500Y-113910000D02*
X110097500Y-113910000D01*
X110572500Y-113435000D02*
X110572500Y-113910000D01*
X127715000Y-106340000D02*
X127340000Y-106340000D01*
X131560000Y-110560000D02*
X131560000Y-110185000D01*
X131185000Y-110560000D02*
X131560000Y-110560000D01*
X127340000Y-110560000D02*
X127340000Y-110185000D01*
X127715000Y-110560000D02*
X127340000Y-110560000D01*
X131560000Y-106340000D02*
X131560000Y-106715000D01*
X131185000Y-106340000D02*
X131560000Y-106340000D01*
X104050000Y-112400000D02*
X104050000Y-114550000D01*
X100500000Y-114550000D02*
X100500000Y-111650000D01*
X104050000Y-106250000D02*
X100500000Y-106250000D01*
X100500000Y-106250000D02*
X100500000Y-109150000D01*
X104050000Y-114550000D02*
X100500000Y-114550000D01*
X104050000Y-108400000D02*
X104050000Y-106250000D01*
X104050000Y-108700000D02*
X104050000Y-109300000D01*
X103300000Y-108700000D02*
X104050000Y-108700000D01*
X134230000Y-105230000D02*
X134230000Y-103900000D01*
X135560000Y-105230000D02*
X134230000Y-105230000D01*
X136830000Y-105230000D02*
X136830000Y-102570000D01*
X136830000Y-102570000D02*
X139430000Y-102570000D01*
X136830000Y-105230000D02*
X139430000Y-105230000D01*
X139430000Y-105230000D02*
X139430000Y-102570000D01*
X105770000Y-102570000D02*
X105770000Y-103900000D01*
X104440000Y-102570000D02*
X105770000Y-102570000D01*
X103170000Y-102570000D02*
X103170000Y-105230000D01*
X103170000Y-105230000D02*
X100570000Y-105230000D01*
X103170000Y-102570000D02*
X100570000Y-102570000D01*
X100570000Y-102570000D02*
X100570000Y-105230000D01*
X133230000Y-111770000D02*
X133230000Y-113100000D01*
X131900000Y-111770000D02*
X133230000Y-111770000D01*
X130630000Y-111770000D02*
X130630000Y-114430000D01*
X130630000Y-114430000D02*
X122950000Y-114430000D01*
X130630000Y-111770000D02*
X122950000Y-111770000D01*
X122950000Y-111770000D02*
X122950000Y-114430000D01*
X111650000Y-114430000D02*
X111650000Y-113100000D01*
X112980000Y-114430000D02*
X111650000Y-114430000D01*
X114250000Y-114430000D02*
X114250000Y-111770000D01*
X114250000Y-111770000D02*
X121930000Y-111770000D01*
X114250000Y-114430000D02*
X121930000Y-114430000D01*
X121930000Y-114430000D02*
X121930000Y-111770000D01*
X113215000Y-107835000D02*
X115500000Y-107835000D01*
X113215000Y-106365000D02*
X113215000Y-107835000D01*
X115500000Y-106365000D02*
X113215000Y-106365000D01*
X112865000Y-108115000D02*
X112865000Y-110400000D01*
X114335000Y-108115000D02*
X112865000Y-108115000D01*
X114335000Y-110400000D02*
X114335000Y-108115000D01*
X114965000Y-108115000D02*
X114965000Y-110400000D01*
X116435000Y-108115000D02*
X114965000Y-108115000D01*
X116435000Y-110400000D02*
X116435000Y-108115000D01*
X106175279Y-106190000D02*
X105849721Y-106190000D01*
X106175279Y-107210000D02*
X105849721Y-107210000D01*
D10*
X120919047Y-104826190D02*
X120919047Y-105230952D01*
X120942857Y-105278571D01*
X120966666Y-105302380D01*
X121014285Y-105326190D01*
X121109523Y-105326190D01*
X121157142Y-105302380D01*
X121180952Y-105278571D01*
X121204761Y-105230952D01*
X121204761Y-104826190D01*
X121680952Y-104826190D02*
X121442857Y-104826190D01*
X121419047Y-105064285D01*
X121442857Y-105040476D01*
X121490476Y-105016666D01*
X121609523Y-105016666D01*
X121657142Y-105040476D01*
X121680952Y-105064285D01*
X121704761Y-105111904D01*
X121704761Y-105230952D01*
X121680952Y-105278571D01*
X121657142Y-105302380D01*
X121609523Y-105326190D01*
X121490476Y-105326190D01*
X121442857Y-105302380D01*
X121419047Y-105278571D01*
X120233333Y-104826190D02*
X120233333Y-105183333D01*
X120209523Y-105254761D01*
X120161904Y-105302380D01*
X120090476Y-105326190D01*
X120042857Y-105326190D01*
X120685714Y-104826190D02*
X120590476Y-104826190D01*
X120542857Y-104850000D01*
X120519047Y-104873809D01*
X120471428Y-104945238D01*
X120447619Y-105040476D01*
X120447619Y-105230952D01*
X120471428Y-105278571D01*
X120495238Y-105302380D01*
X120542857Y-105326190D01*
X120638095Y-105326190D01*
X120685714Y-105302380D01*
X120709523Y-105278571D01*
X120733333Y-105230952D01*
X120733333Y-105111904D01*
X120709523Y-105064285D01*
X120685714Y-105040476D01*
X120638095Y-105016666D01*
X120542857Y-105016666D01*
X120495238Y-105040476D01*
X120471428Y-105064285D01*
X120447619Y-105111904D01*
X113526190Y-105783333D02*
X113288095Y-105950000D01*
X113526190Y-106069047D02*
X113026190Y-106069047D01*
X113026190Y-105878571D01*
X113050000Y-105830952D01*
X113073809Y-105807142D01*
X113121428Y-105783333D01*
X113192857Y-105783333D01*
X113240476Y-105807142D01*
X113264285Y-105830952D01*
X113288095Y-105878571D01*
X113288095Y-106069047D01*
X113240476Y-105497619D02*
X113216666Y-105545238D01*
X113192857Y-105569047D01*
X113145238Y-105592857D01*
X113121428Y-105592857D01*
X113073809Y-105569047D01*
X113050000Y-105545238D01*
X113026190Y-105497619D01*
X113026190Y-105402380D01*
X113050000Y-105354761D01*
X113073809Y-105330952D01*
X113121428Y-105307142D01*
X113145238Y-105307142D01*
X113192857Y-105330952D01*
X113216666Y-105354761D01*
X113240476Y-105402380D01*
X113240476Y-105497619D01*
X113264285Y-105545238D01*
X113288095Y-105569047D01*
X113335714Y-105592857D01*
X113430952Y-105592857D01*
X113478571Y-105569047D01*
X113502380Y-105545238D01*
X113526190Y-105497619D01*
X113526190Y-105402380D01*
X113502380Y-105354761D01*
X113478571Y-105330952D01*
X113430952Y-105307142D01*
X113335714Y-105307142D01*
X113288095Y-105330952D01*
X113264285Y-105354761D01*
X113240476Y-105402380D01*
X112226190Y-110883333D02*
X111988095Y-111050000D01*
X112226190Y-111169047D02*
X111726190Y-111169047D01*
X111726190Y-110978571D01*
X111750000Y-110930952D01*
X111773809Y-110907142D01*
X111821428Y-110883333D01*
X111892857Y-110883333D01*
X111940476Y-110907142D01*
X111964285Y-110930952D01*
X111988095Y-110978571D01*
X111988095Y-111169047D01*
X111726190Y-110716666D02*
X111726190Y-110383333D01*
X112226190Y-110597619D01*
X117326190Y-110983333D02*
X117088095Y-111150000D01*
X117326190Y-111269047D02*
X116826190Y-111269047D01*
X116826190Y-111078571D01*
X116850000Y-111030952D01*
X116873809Y-111007142D01*
X116921428Y-110983333D01*
X116992857Y-110983333D01*
X117040476Y-111007142D01*
X117064285Y-111030952D01*
X117088095Y-111078571D01*
X117088095Y-111269047D01*
X116826190Y-110554761D02*
X116826190Y-110650000D01*
X116850000Y-110697619D01*
X116873809Y-110721428D01*
X116945238Y-110769047D01*
X117040476Y-110792857D01*
X117230952Y-110792857D01*
X117278571Y-110769047D01*
X117302380Y-110745238D01*
X117326190Y-110697619D01*
X117326190Y-110602380D01*
X117302380Y-110554761D01*
X117278571Y-110530952D01*
X117230952Y-110507142D01*
X117111904Y-110507142D01*
X117064285Y-110530952D01*
X117040476Y-110554761D01*
X117016666Y-110602380D01*
X117016666Y-110697619D01*
X117040476Y-110745238D01*
X117064285Y-110769047D01*
X117111904Y-110792857D01*
X110526190Y-106583333D02*
X110288095Y-106750000D01*
X110526190Y-106869047D02*
X110026190Y-106869047D01*
X110026190Y-106678571D01*
X110050000Y-106630952D01*
X110073809Y-106607142D01*
X110121428Y-106583333D01*
X110192857Y-106583333D01*
X110240476Y-106607142D01*
X110264285Y-106630952D01*
X110288095Y-106678571D01*
X110288095Y-106869047D01*
X110026190Y-106130952D02*
X110026190Y-106369047D01*
X110264285Y-106392857D01*
X110240476Y-106369047D01*
X110216666Y-106321428D01*
X110216666Y-106202380D01*
X110240476Y-106154761D01*
X110264285Y-106130952D01*
X110311904Y-106107142D01*
X110430952Y-106107142D01*
X110478571Y-106130952D01*
X110502380Y-106154761D01*
X110526190Y-106202380D01*
X110526190Y-106321428D01*
X110502380Y-106369047D01*
X110478571Y-106392857D01*
X124516666Y-109126190D02*
X124350000Y-108888095D01*
X124230952Y-109126190D02*
X124230952Y-108626190D01*
X124421428Y-108626190D01*
X124469047Y-108650000D01*
X124492857Y-108673809D01*
X124516666Y-108721428D01*
X124516666Y-108792857D01*
X124492857Y-108840476D01*
X124469047Y-108864285D01*
X124421428Y-108888095D01*
X124230952Y-108888095D01*
X124945238Y-108792857D02*
X124945238Y-109126190D01*
X124826190Y-108602380D02*
X124707142Y-108959523D01*
X125016666Y-108959523D01*
X124516666Y-110426190D02*
X124350000Y-110188095D01*
X124230952Y-110426190D02*
X124230952Y-109926190D01*
X124421428Y-109926190D01*
X124469047Y-109950000D01*
X124492857Y-109973809D01*
X124516666Y-110021428D01*
X124516666Y-110092857D01*
X124492857Y-110140476D01*
X124469047Y-110164285D01*
X124421428Y-110188095D01*
X124230952Y-110188095D01*
X124683333Y-109926190D02*
X124992857Y-109926190D01*
X124826190Y-110116666D01*
X124897619Y-110116666D01*
X124945238Y-110140476D01*
X124969047Y-110164285D01*
X124992857Y-110211904D01*
X124992857Y-110330952D01*
X124969047Y-110378571D01*
X124945238Y-110402380D01*
X124897619Y-110426190D01*
X124754761Y-110426190D01*
X124707142Y-110402380D01*
X124683333Y-110378571D01*
X118881666Y-111278571D02*
X118857857Y-111302380D01*
X118786428Y-111326190D01*
X118738809Y-111326190D01*
X118667380Y-111302380D01*
X118619761Y-111254761D01*
X118595952Y-111207142D01*
X118572142Y-111111904D01*
X118572142Y-111040476D01*
X118595952Y-110945238D01*
X118619761Y-110897619D01*
X118667380Y-110850000D01*
X118738809Y-110826190D01*
X118786428Y-110826190D01*
X118857857Y-110850000D01*
X118881666Y-110873809D01*
X119334047Y-110826190D02*
X119095952Y-110826190D01*
X119072142Y-111064285D01*
X119095952Y-111040476D01*
X119143571Y-111016666D01*
X119262619Y-111016666D01*
X119310238Y-111040476D01*
X119334047Y-111064285D01*
X119357857Y-111111904D01*
X119357857Y-111230952D01*
X119334047Y-111278571D01*
X119310238Y-111302380D01*
X119262619Y-111326190D01*
X119143571Y-111326190D01*
X119095952Y-111302380D01*
X119072142Y-111278571D01*
X116916666Y-105378571D02*
X116892857Y-105402380D01*
X116821428Y-105426190D01*
X116773809Y-105426190D01*
X116702380Y-105402380D01*
X116654761Y-105354761D01*
X116630952Y-105307142D01*
X116607142Y-105211904D01*
X116607142Y-105140476D01*
X116630952Y-105045238D01*
X116654761Y-104997619D01*
X116702380Y-104950000D01*
X116773809Y-104926190D01*
X116821428Y-104926190D01*
X116892857Y-104950000D01*
X116916666Y-104973809D01*
X117345238Y-105092857D02*
X117345238Y-105426190D01*
X117226190Y-104902380D02*
X117107142Y-105259523D01*
X117416666Y-105259523D01*
X109533333Y-104002380D02*
X109604761Y-104026190D01*
X109723809Y-104026190D01*
X109771428Y-104002380D01*
X109795238Y-103978571D01*
X109819047Y-103930952D01*
X109819047Y-103883333D01*
X109795238Y-103835714D01*
X109771428Y-103811904D01*
X109723809Y-103788095D01*
X109628571Y-103764285D01*
X109580952Y-103740476D01*
X109557142Y-103716666D01*
X109533333Y-103669047D01*
X109533333Y-103621428D01*
X109557142Y-103573809D01*
X109580952Y-103550000D01*
X109628571Y-103526190D01*
X109747619Y-103526190D01*
X109819047Y-103550000D01*
X109985714Y-103526190D02*
X110104761Y-104026190D01*
X110200000Y-103669047D01*
X110295238Y-104026190D01*
X110414285Y-103526190D01*
X110866666Y-104026190D02*
X110580952Y-104026190D01*
X110723809Y-104026190D02*
X110723809Y-103526190D01*
X110676190Y-103597619D01*
X110628571Y-103645238D01*
X110580952Y-103669047D01*
X118933333Y-104726190D02*
X118933333Y-105083333D01*
X118909523Y-105154761D01*
X118861904Y-105202380D01*
X118790476Y-105226190D01*
X118742857Y-105226190D01*
X119123809Y-104726190D02*
X119433333Y-104726190D01*
X119266666Y-104916666D01*
X119338095Y-104916666D01*
X119385714Y-104940476D01*
X119409523Y-104964285D01*
X119433333Y-105011904D01*
X119433333Y-105130952D01*
X119409523Y-105178571D01*
X119385714Y-105202380D01*
X119338095Y-105226190D01*
X119195238Y-105226190D01*
X119147619Y-105202380D01*
X119123809Y-105178571D01*
X134033333Y-106026190D02*
X134033333Y-106383333D01*
X134009523Y-106454761D01*
X133961904Y-106502380D01*
X133890476Y-106526190D01*
X133842857Y-106526190D01*
X134247619Y-106073809D02*
X134271428Y-106050000D01*
X134319047Y-106026190D01*
X134438095Y-106026190D01*
X134485714Y-106050000D01*
X134509523Y-106073809D01*
X134533333Y-106121428D01*
X134533333Y-106169047D01*
X134509523Y-106240476D01*
X134223809Y-106526190D01*
X134533333Y-106526190D01*
X120488095Y-108738095D02*
X120726190Y-108738095D01*
X120226190Y-108904761D02*
X120488095Y-108738095D01*
X120226190Y-108571428D01*
X120273809Y-108428571D02*
X120250000Y-108404761D01*
X120226190Y-108357142D01*
X120226190Y-108238095D01*
X120250000Y-108190476D01*
X120273809Y-108166666D01*
X120321428Y-108142857D01*
X120369047Y-108142857D01*
X120440476Y-108166666D01*
X120726190Y-108452380D01*
X120726190Y-108142857D01*
X110119047Y-107526190D02*
X110119047Y-107930952D01*
X110142857Y-107978571D01*
X110166666Y-108002380D01*
X110214285Y-108026190D01*
X110309523Y-108026190D01*
X110357142Y-108002380D01*
X110380952Y-107978571D01*
X110404761Y-107930952D01*
X110404761Y-107526190D01*
X110595238Y-107526190D02*
X110928571Y-107526190D01*
X110714285Y-108026190D01*
X126226190Y-107080952D02*
X126630952Y-107080952D01*
X126678571Y-107057142D01*
X126702380Y-107033333D01*
X126726190Y-106985714D01*
X126726190Y-106890476D01*
X126702380Y-106842857D01*
X126678571Y-106819047D01*
X126630952Y-106795238D01*
X126226190Y-106795238D01*
X126392857Y-106342857D02*
X126726190Y-106342857D01*
X126202380Y-106461904D02*
X126559523Y-106580952D01*
X126559523Y-106271428D01*
X100926190Y-107866666D02*
X101283333Y-107866666D01*
X101354761Y-107890476D01*
X101402380Y-107938095D01*
X101426190Y-108009523D01*
X101426190Y-108057142D01*
X101140476Y-107557142D02*
X101116666Y-107604761D01*
X101092857Y-107628571D01*
X101045238Y-107652380D01*
X101021428Y-107652380D01*
X100973809Y-107628571D01*
X100950000Y-107604761D01*
X100926190Y-107557142D01*
X100926190Y-107461904D01*
X100950000Y-107414285D01*
X100973809Y-107390476D01*
X101021428Y-107366666D01*
X101045238Y-107366666D01*
X101092857Y-107390476D01*
X101116666Y-107414285D01*
X101140476Y-107461904D01*
X101140476Y-107557142D01*
X101164285Y-107604761D01*
X101188095Y-107628571D01*
X101235714Y-107652380D01*
X101330952Y-107652380D01*
X101378571Y-107628571D01*
X101402380Y-107604761D01*
X101426190Y-107557142D01*
X101426190Y-107461904D01*
X101402380Y-107414285D01*
X101378571Y-107390476D01*
X101330952Y-107366666D01*
X101235714Y-107366666D01*
X101188095Y-107390476D01*
X101164285Y-107414285D01*
X101140476Y-107461904D01*
X133526190Y-104066666D02*
X133883333Y-104066666D01*
X133954761Y-104090476D01*
X134002380Y-104138095D01*
X134026190Y-104209523D01*
X134026190Y-104257142D01*
X133526190Y-103876190D02*
X133526190Y-103542857D01*
X134026190Y-103757142D01*
X106233333Y-102626190D02*
X106233333Y-102983333D01*
X106209523Y-103054761D01*
X106161904Y-103102380D01*
X106090476Y-103126190D01*
X106042857Y-103126190D01*
X106709523Y-102626190D02*
X106471428Y-102626190D01*
X106447619Y-102864285D01*
X106471428Y-102840476D01*
X106519047Y-102816666D01*
X106638095Y-102816666D01*
X106685714Y-102840476D01*
X106709523Y-102864285D01*
X106733333Y-102911904D01*
X106733333Y-103030952D01*
X106709523Y-103078571D01*
X106685714Y-103102380D01*
X106638095Y-103126190D01*
X106519047Y-103126190D01*
X106471428Y-103102380D01*
X106447619Y-103078571D01*
X131833333Y-110926190D02*
X131833333Y-111283333D01*
X131809523Y-111354761D01*
X131761904Y-111402380D01*
X131690476Y-111426190D01*
X131642857Y-111426190D01*
X132285714Y-111092857D02*
X132285714Y-111426190D01*
X132166666Y-110902380D02*
X132047619Y-111259523D01*
X132357142Y-111259523D01*
X110926190Y-113266666D02*
X111283333Y-113266666D01*
X111354761Y-113290476D01*
X111402380Y-113338095D01*
X111426190Y-113409523D01*
X111426190Y-113457142D01*
X111426190Y-112766666D02*
X111426190Y-113052380D01*
X111426190Y-112909523D02*
X110926190Y-112909523D01*
X110997619Y-112957142D01*
X111045238Y-113004761D01*
X111069047Y-113052380D01*
X113026190Y-107369047D02*
X112526190Y-107369047D01*
X112526190Y-107250000D01*
X112550000Y-107178571D01*
X112597619Y-107130952D01*
X112645238Y-107107142D01*
X112740476Y-107083333D01*
X112811904Y-107083333D01*
X112907142Y-107107142D01*
X112954761Y-107130952D01*
X113002380Y-107178571D01*
X113026190Y-107250000D01*
X113026190Y-107369047D01*
X112526190Y-106916666D02*
X112526190Y-106607142D01*
X112716666Y-106773809D01*
X112716666Y-106702380D01*
X112740476Y-106654761D01*
X112764285Y-106630952D01*
X112811904Y-106607142D01*
X112930952Y-106607142D01*
X112978571Y-106630952D01*
X113002380Y-106654761D01*
X113026190Y-106702380D01*
X113026190Y-106845238D01*
X113002380Y-106892857D01*
X112978571Y-106916666D01*
X113330952Y-111626190D02*
X113330952Y-111126190D01*
X113450000Y-111126190D01*
X113521428Y-111150000D01*
X113569047Y-111197619D01*
X113592857Y-111245238D01*
X113616666Y-111340476D01*
X113616666Y-111411904D01*
X113592857Y-111507142D01*
X113569047Y-111554761D01*
X113521428Y-111602380D01*
X113450000Y-111626190D01*
X113330952Y-111626190D01*
X113807142Y-111173809D02*
X113830952Y-111150000D01*
X113878571Y-111126190D01*
X113997619Y-111126190D01*
X114045238Y-111150000D01*
X114069047Y-111173809D01*
X114092857Y-111221428D01*
X114092857Y-111269047D01*
X114069047Y-111340476D01*
X113783333Y-111626190D01*
X114092857Y-111626190D01*
X115330952Y-111626190D02*
X115330952Y-111126190D01*
X115450000Y-111126190D01*
X115521428Y-111150000D01*
X115569047Y-111197619D01*
X115592857Y-111245238D01*
X115616666Y-111340476D01*
X115616666Y-111411904D01*
X115592857Y-111507142D01*
X115569047Y-111554761D01*
X115521428Y-111602380D01*
X115450000Y-111626190D01*
X115330952Y-111626190D01*
X116092857Y-111626190D02*
X115807142Y-111626190D01*
X115950000Y-111626190D02*
X115950000Y-111126190D01*
X115902380Y-111197619D01*
X115854761Y-111245238D01*
X115807142Y-111269047D01*
X105116666Y-107978571D02*
X105092857Y-108002380D01*
X105021428Y-108026190D01*
X104973809Y-108026190D01*
X104902380Y-108002380D01*
X104854761Y-107954761D01*
X104830952Y-107907142D01*
X104807142Y-107811904D01*
X104807142Y-107740476D01*
X104830952Y-107645238D01*
X104854761Y-107597619D01*
X104902380Y-107550000D01*
X104973809Y-107526190D01*
X105021428Y-107526190D01*
X105092857Y-107550000D01*
X105116666Y-107573809D01*
X105545238Y-107526190D02*
X105450000Y-107526190D01*
X105402380Y-107550000D01*
X105378571Y-107573809D01*
X105330952Y-107645238D01*
X105307142Y-107740476D01*
X105307142Y-107930952D01*
X105330952Y-107978571D01*
X105354761Y-108002380D01*
X105402380Y-108026190D01*
X105497619Y-108026190D01*
X105545238Y-108002380D01*
X105569047Y-107978571D01*
X105592857Y-107930952D01*
X105592857Y-107811904D01*
X105569047Y-107764285D01*
X105545238Y-107740476D01*
X105497619Y-107716666D01*
X105402380Y-107716666D01*
X105354761Y-107740476D01*
X105330952Y-107764285D01*
X105307142Y-107811904D01*
M02*
