M48
; DRILL file {KiCad (6.0.4)} date Mon Jun 20 11:50:07 2022
; FORMAT={-:-/ absolute / inch / decimal}
; #@! TF.CreationDate,2022-06-20T11:50:07+10:00
; #@! TF.GenerationSoftware,Kicad,Pcbnew,(6.0.4)
; #@! TF.FileFunction,Plated,1,4,PTH
FMAT,2
INCH
; #@! TA.AperFunction,Plated,PTH,ComponentDrill
T1C0.0079
; #@! TA.AperFunction,Plated,PTH,ViaDrill
T2C0.0118
; #@! TA.AperFunction,Plated,PTH,ViaDrill
T3C0.0157
; #@! TA.AperFunction,Plated,PTH,ComponentDrill
T4C0.0197
; #@! TA.AperFunction,Plated,PTH,ComponentDrill
T5C0.0256
; #@! TA.AperFunction,Plated,PTH,ComponentDrill
T6C0.0394
%
G90
G05
T1
X5.3124Y-4.1118
X5.3124Y-4.1945
X5.3951Y-4.1118
X5.3951Y-4.1945
T2
X4.0Y-4.2205
X4.1023Y-4.1276
X4.1079Y-4.3228
X4.1083Y-4.2953
X4.1115Y-4.3901
X4.1257Y-4.4747
X4.1437Y-4.4539
X4.2177Y-4.4912
X4.2205Y-4.1693
X4.2638Y-4.2083
X4.2701Y-4.1413
X4.2953Y-4.0906
X4.3146Y-4.1925
X4.3307Y-3.9764
X4.3583Y-4.4724
X4.3701Y-3.9921
X4.3858Y-4.4646
X4.3898Y-4.3749
X4.4019Y-4.3457
X4.4173Y-4.0945
X4.4862Y-4.2417
X4.4961Y-4.2047
X4.5492Y-4.2014
X4.5669Y-4.3346
X4.5862Y-4.0594
X4.6087Y-4.087
X4.6536Y-4.1772
X4.6707Y-4.2523
X4.6724Y-4.2811
X4.714Y-4.102
X4.7229Y-4.1952
X4.7406Y-4.1094
X4.768Y-4.1122
X4.7896Y-4.1871
X4.8591Y-4.3765
X4.878Y-4.437
X4.9015Y-4.3785
X4.9161Y-4.3551
X4.9167Y-4.2987
X4.919Y-4.1143
X4.9193Y-4.3262
X4.924Y-4.1417
X4.943Y-4.3492
X4.9705Y-4.3555
X4.9955Y-4.3429
X4.9996Y-4.1894
X5.0264Y-4.0886
X5.0457Y-4.0669
X5.0583Y-4.3461
X5.0787Y-4.0512
X5.1Y-3.9947
X5.126Y-4.3189
X5.1476Y-4.0551
X5.1614Y-4.4843
X5.165Y-4.4382
X5.1761Y-4.3239
X5.185Y-4.2913
X5.191Y-4.2638
X5.2362Y-4.0551
X5.2402Y-4.3583
X5.2835Y-4.2421
X5.4291Y-4.2913
X5.4331Y-4.2323
X5.4358Y-4.0697
X5.4626Y-4.2323
X5.4685Y-4.3248
X5.4797Y-3.9691
X5.4874Y-4.0008
X5.4921Y-4.2323
X5.5217Y-4.0059
X5.5276Y-4.311
X5.5512Y-4.0059
X5.5512Y-4.0354
X5.5512Y-4.065
X5.5807Y-4.0059
X5.5807Y-4.2323
X5.6004Y-4.1831
X5.6004Y-4.2126
X5.6102Y-4.0059
X5.6201Y-4.1634
X5.6398Y-4.0059
X5.6398Y-4.1142
X5.6398Y-4.1437
X5.6693Y-4.0059
X5.6693Y-4.1142
X5.6988Y-4.0059
X5.6988Y-4.1142
X5.7283Y-4.0059
X5.7283Y-4.1142
X5.7579Y-4.0059
X5.7579Y-4.1142
X5.7874Y-4.0059
X5.7874Y-4.1142
X5.8169Y-4.0059
X5.8169Y-4.1142
X5.8465Y-4.0059
X5.8465Y-4.1142
T3
X5.3154Y-4.1528
X5.3543Y-4.1516
X5.3543Y-4.1929
X5.3547Y-4.1142
X5.3925Y-4.1531
T5
X4.5726Y-4.002
X4.6226Y-4.002
X4.6726Y-4.002
X4.7226Y-4.002
T6
X4.0118Y-4.0118
X4.1118Y-4.0118
X4.448Y-4.4642
X4.548Y-4.4642
X4.648Y-4.4642
X4.748Y-4.4642
X4.8404Y-4.0094
X4.9404Y-4.0094
X5.248Y-4.4642
X5.348Y-4.4642
X5.448Y-4.4642
X5.548Y-4.4642
X5.7087Y-4.2628
X5.7087Y-4.3628
X5.7087Y-4.4628
X5.815Y-4.2628
X5.815Y-4.3628
X5.815Y-4.4628
X5.9189Y-4.0789
X5.9213Y-4.2628
X5.9213Y-4.3628
X5.9213Y-4.4628
T4
G00X3.9823Y-4.3248
M15
G01X3.9823Y-4.3681
M16
G05
G00X4.0669Y-4.2224
M15
G01X4.0669Y-4.25
M16
G05
G00X4.0669Y-4.4429
M15
G01X4.0669Y-4.4705
M16
G05
T0
M30
