G04 #@! TF.GenerationSoftware,KiCad,Pcbnew,(5.1.5)-3*
G04 #@! TF.CreationDate,2020-12-08T16:20:55+11:00*
G04 #@! TF.ProjectId,microBoSL,6d696372-6f42-46f5-934c-2e6b69636164,0.1.0*
G04 #@! TF.SameCoordinates,Original*
G04 #@! TF.FileFunction,Soldermask,Bot*
G04 #@! TF.FilePolarity,Negative*
%FSLAX46Y46*%
G04 Gerber Fmt 4.6, Leading zero omitted, Abs format (unit mm)*
G04 Created by KiCad (PCBNEW (5.1.5)-3) date 2020-12-08 16:20:55*
%MOMM*%
%LPD*%
G04 APERTURE LIST*
%ADD10O,1.400000X1.400000*%
%ADD11R,1.400000X1.400000*%
%ADD12R,1.700000X1.400000*%
%ADD13C,0.100000*%
%ADD14C,0.240000*%
%ADD15O,2.100000X2.100000*%
%ADD16R,2.100000X2.100000*%
%ADD17R,1.850000X0.850000*%
%ADD18R,1.300000X1.200000*%
%ADD19R,1.200000X1.300000*%
%ADD20O,1.500000X2.600000*%
%ADD21O,1.500000X2.200000*%
G04 APERTURE END LIST*
D10*
X132600000Y-103650000D03*
X131330000Y-103650000D03*
X130060000Y-103650000D03*
X128790000Y-103650000D03*
X127520000Y-103650000D03*
X126250000Y-103650000D03*
X124980000Y-103650000D03*
X123710000Y-103650000D03*
X122440000Y-103650000D03*
D11*
X121170000Y-103650000D03*
D12*
X129050000Y-108600000D03*
X126850000Y-108600000D03*
X126850000Y-110400000D03*
X129050000Y-110400000D03*
D13*
G36*
X133096759Y-108956192D02*
G01*
X133120785Y-108959756D01*
X133144345Y-108965657D01*
X133167214Y-108973840D01*
X133189171Y-108984224D01*
X133210004Y-108996711D01*
X133229512Y-109011180D01*
X133247509Y-109027491D01*
X133263820Y-109045488D01*
X133278289Y-109064996D01*
X133290776Y-109085829D01*
X133301160Y-109107786D01*
X133309343Y-109130655D01*
X133315244Y-109154215D01*
X133318808Y-109178241D01*
X133320000Y-109202500D01*
X133320000Y-109697500D01*
X133318808Y-109721759D01*
X133315244Y-109745785D01*
X133309343Y-109769345D01*
X133301160Y-109792214D01*
X133290776Y-109814171D01*
X133278289Y-109835004D01*
X133263820Y-109854512D01*
X133247509Y-109872509D01*
X133229512Y-109888820D01*
X133210004Y-109903289D01*
X133189171Y-109915776D01*
X133167214Y-109926160D01*
X133144345Y-109934343D01*
X133120785Y-109940244D01*
X133096759Y-109943808D01*
X133072500Y-109945000D01*
X132527500Y-109945000D01*
X132503241Y-109943808D01*
X132479215Y-109940244D01*
X132455655Y-109934343D01*
X132432786Y-109926160D01*
X132410829Y-109915776D01*
X132389996Y-109903289D01*
X132370488Y-109888820D01*
X132352491Y-109872509D01*
X132336180Y-109854512D01*
X132321711Y-109835004D01*
X132309224Y-109814171D01*
X132298840Y-109792214D01*
X132290657Y-109769345D01*
X132284756Y-109745785D01*
X132281192Y-109721759D01*
X132280000Y-109697500D01*
X132280000Y-109202500D01*
X132281192Y-109178241D01*
X132284756Y-109154215D01*
X132290657Y-109130655D01*
X132298840Y-109107786D01*
X132309224Y-109085829D01*
X132321711Y-109064996D01*
X132336180Y-109045488D01*
X132352491Y-109027491D01*
X132370488Y-109011180D01*
X132389996Y-108996711D01*
X132410829Y-108984224D01*
X132432786Y-108973840D01*
X132455655Y-108965657D01*
X132479215Y-108959756D01*
X132503241Y-108956192D01*
X132527500Y-108955000D01*
X133072500Y-108955000D01*
X133096759Y-108956192D01*
G37*
G36*
X133096759Y-109926192D02*
G01*
X133120785Y-109929756D01*
X133144345Y-109935657D01*
X133167214Y-109943840D01*
X133189171Y-109954224D01*
X133210004Y-109966711D01*
X133229512Y-109981180D01*
X133247509Y-109997491D01*
X133263820Y-110015488D01*
X133278289Y-110034996D01*
X133290776Y-110055829D01*
X133301160Y-110077786D01*
X133309343Y-110100655D01*
X133315244Y-110124215D01*
X133318808Y-110148241D01*
X133320000Y-110172500D01*
X133320000Y-110667500D01*
X133318808Y-110691759D01*
X133315244Y-110715785D01*
X133309343Y-110739345D01*
X133301160Y-110762214D01*
X133290776Y-110784171D01*
X133278289Y-110805004D01*
X133263820Y-110824512D01*
X133247509Y-110842509D01*
X133229512Y-110858820D01*
X133210004Y-110873289D01*
X133189171Y-110885776D01*
X133167214Y-110896160D01*
X133144345Y-110904343D01*
X133120785Y-110910244D01*
X133096759Y-110913808D01*
X133072500Y-110915000D01*
X132527500Y-110915000D01*
X132503241Y-110913808D01*
X132479215Y-110910244D01*
X132455655Y-110904343D01*
X132432786Y-110896160D01*
X132410829Y-110885776D01*
X132389996Y-110873289D01*
X132370488Y-110858820D01*
X132352491Y-110842509D01*
X132336180Y-110824512D01*
X132321711Y-110805004D01*
X132309224Y-110784171D01*
X132298840Y-110762214D01*
X132290657Y-110739345D01*
X132284756Y-110715785D01*
X132281192Y-110691759D01*
X132280000Y-110667500D01*
X132280000Y-110172500D01*
X132281192Y-110148241D01*
X132284756Y-110124215D01*
X132290657Y-110100655D01*
X132298840Y-110077786D01*
X132309224Y-110055829D01*
X132321711Y-110034996D01*
X132336180Y-110015488D01*
X132352491Y-109997491D01*
X132370488Y-109981180D01*
X132389996Y-109966711D01*
X132410829Y-109954224D01*
X132432786Y-109943840D01*
X132455655Y-109935657D01*
X132479215Y-109929756D01*
X132503241Y-109926192D01*
X132527500Y-109925000D01*
X133072500Y-109925000D01*
X133096759Y-109926192D01*
G37*
G36*
X112746759Y-103031192D02*
G01*
X112770785Y-103034756D01*
X112794345Y-103040657D01*
X112817214Y-103048840D01*
X112839171Y-103059224D01*
X112860004Y-103071711D01*
X112879512Y-103086180D01*
X112897509Y-103102491D01*
X112913820Y-103120488D01*
X112928289Y-103139996D01*
X112940776Y-103160829D01*
X112951160Y-103182786D01*
X112959343Y-103205655D01*
X112965244Y-103229215D01*
X112968808Y-103253241D01*
X112970000Y-103277500D01*
X112970000Y-103822500D01*
X112968808Y-103846759D01*
X112965244Y-103870785D01*
X112959343Y-103894345D01*
X112951160Y-103917214D01*
X112940776Y-103939171D01*
X112928289Y-103960004D01*
X112913820Y-103979512D01*
X112897509Y-103997509D01*
X112879512Y-104013820D01*
X112860004Y-104028289D01*
X112839171Y-104040776D01*
X112817214Y-104051160D01*
X112794345Y-104059343D01*
X112770785Y-104065244D01*
X112746759Y-104068808D01*
X112722500Y-104070000D01*
X112227500Y-104070000D01*
X112203241Y-104068808D01*
X112179215Y-104065244D01*
X112155655Y-104059343D01*
X112132786Y-104051160D01*
X112110829Y-104040776D01*
X112089996Y-104028289D01*
X112070488Y-104013820D01*
X112052491Y-103997509D01*
X112036180Y-103979512D01*
X112021711Y-103960004D01*
X112009224Y-103939171D01*
X111998840Y-103917214D01*
X111990657Y-103894345D01*
X111984756Y-103870785D01*
X111981192Y-103846759D01*
X111980000Y-103822500D01*
X111980000Y-103277500D01*
X111981192Y-103253241D01*
X111984756Y-103229215D01*
X111990657Y-103205655D01*
X111998840Y-103182786D01*
X112009224Y-103160829D01*
X112021711Y-103139996D01*
X112036180Y-103120488D01*
X112052491Y-103102491D01*
X112070488Y-103086180D01*
X112089996Y-103071711D01*
X112110829Y-103059224D01*
X112132786Y-103048840D01*
X112155655Y-103040657D01*
X112179215Y-103034756D01*
X112203241Y-103031192D01*
X112227500Y-103030000D01*
X112722500Y-103030000D01*
X112746759Y-103031192D01*
G37*
G36*
X111776759Y-103031192D02*
G01*
X111800785Y-103034756D01*
X111824345Y-103040657D01*
X111847214Y-103048840D01*
X111869171Y-103059224D01*
X111890004Y-103071711D01*
X111909512Y-103086180D01*
X111927509Y-103102491D01*
X111943820Y-103120488D01*
X111958289Y-103139996D01*
X111970776Y-103160829D01*
X111981160Y-103182786D01*
X111989343Y-103205655D01*
X111995244Y-103229215D01*
X111998808Y-103253241D01*
X112000000Y-103277500D01*
X112000000Y-103822500D01*
X111998808Y-103846759D01*
X111995244Y-103870785D01*
X111989343Y-103894345D01*
X111981160Y-103917214D01*
X111970776Y-103939171D01*
X111958289Y-103960004D01*
X111943820Y-103979512D01*
X111927509Y-103997509D01*
X111909512Y-104013820D01*
X111890004Y-104028289D01*
X111869171Y-104040776D01*
X111847214Y-104051160D01*
X111824345Y-104059343D01*
X111800785Y-104065244D01*
X111776759Y-104068808D01*
X111752500Y-104070000D01*
X111257500Y-104070000D01*
X111233241Y-104068808D01*
X111209215Y-104065244D01*
X111185655Y-104059343D01*
X111162786Y-104051160D01*
X111140829Y-104040776D01*
X111119996Y-104028289D01*
X111100488Y-104013820D01*
X111082491Y-103997509D01*
X111066180Y-103979512D01*
X111051711Y-103960004D01*
X111039224Y-103939171D01*
X111028840Y-103917214D01*
X111020657Y-103894345D01*
X111014756Y-103870785D01*
X111011192Y-103846759D01*
X111010000Y-103822500D01*
X111010000Y-103277500D01*
X111011192Y-103253241D01*
X111014756Y-103229215D01*
X111020657Y-103205655D01*
X111028840Y-103182786D01*
X111039224Y-103160829D01*
X111051711Y-103139996D01*
X111066180Y-103120488D01*
X111082491Y-103102491D01*
X111100488Y-103086180D01*
X111119996Y-103071711D01*
X111140829Y-103059224D01*
X111162786Y-103048840D01*
X111185655Y-103040657D01*
X111209215Y-103034756D01*
X111233241Y-103031192D01*
X111257500Y-103030000D01*
X111752500Y-103030000D01*
X111776759Y-103031192D01*
G37*
G36*
X125546759Y-108656192D02*
G01*
X125570785Y-108659756D01*
X125594345Y-108665657D01*
X125617214Y-108673840D01*
X125639171Y-108684224D01*
X125660004Y-108696711D01*
X125679512Y-108711180D01*
X125697509Y-108727491D01*
X125713820Y-108745488D01*
X125728289Y-108764996D01*
X125740776Y-108785829D01*
X125751160Y-108807786D01*
X125759343Y-108830655D01*
X125765244Y-108854215D01*
X125768808Y-108878241D01*
X125770000Y-108902500D01*
X125770000Y-109397500D01*
X125768808Y-109421759D01*
X125765244Y-109445785D01*
X125759343Y-109469345D01*
X125751160Y-109492214D01*
X125740776Y-109514171D01*
X125728289Y-109535004D01*
X125713820Y-109554512D01*
X125697509Y-109572509D01*
X125679512Y-109588820D01*
X125660004Y-109603289D01*
X125639171Y-109615776D01*
X125617214Y-109626160D01*
X125594345Y-109634343D01*
X125570785Y-109640244D01*
X125546759Y-109643808D01*
X125522500Y-109645000D01*
X124977500Y-109645000D01*
X124953241Y-109643808D01*
X124929215Y-109640244D01*
X124905655Y-109634343D01*
X124882786Y-109626160D01*
X124860829Y-109615776D01*
X124839996Y-109603289D01*
X124820488Y-109588820D01*
X124802491Y-109572509D01*
X124786180Y-109554512D01*
X124771711Y-109535004D01*
X124759224Y-109514171D01*
X124748840Y-109492214D01*
X124740657Y-109469345D01*
X124734756Y-109445785D01*
X124731192Y-109421759D01*
X124730000Y-109397500D01*
X124730000Y-108902500D01*
X124731192Y-108878241D01*
X124734756Y-108854215D01*
X124740657Y-108830655D01*
X124748840Y-108807786D01*
X124759224Y-108785829D01*
X124771711Y-108764996D01*
X124786180Y-108745488D01*
X124802491Y-108727491D01*
X124820488Y-108711180D01*
X124839996Y-108696711D01*
X124860829Y-108684224D01*
X124882786Y-108673840D01*
X124905655Y-108665657D01*
X124929215Y-108659756D01*
X124953241Y-108656192D01*
X124977500Y-108655000D01*
X125522500Y-108655000D01*
X125546759Y-108656192D01*
G37*
G36*
X125546759Y-109626192D02*
G01*
X125570785Y-109629756D01*
X125594345Y-109635657D01*
X125617214Y-109643840D01*
X125639171Y-109654224D01*
X125660004Y-109666711D01*
X125679512Y-109681180D01*
X125697509Y-109697491D01*
X125713820Y-109715488D01*
X125728289Y-109734996D01*
X125740776Y-109755829D01*
X125751160Y-109777786D01*
X125759343Y-109800655D01*
X125765244Y-109824215D01*
X125768808Y-109848241D01*
X125770000Y-109872500D01*
X125770000Y-110367500D01*
X125768808Y-110391759D01*
X125765244Y-110415785D01*
X125759343Y-110439345D01*
X125751160Y-110462214D01*
X125740776Y-110484171D01*
X125728289Y-110505004D01*
X125713820Y-110524512D01*
X125697509Y-110542509D01*
X125679512Y-110558820D01*
X125660004Y-110573289D01*
X125639171Y-110585776D01*
X125617214Y-110596160D01*
X125594345Y-110604343D01*
X125570785Y-110610244D01*
X125546759Y-110613808D01*
X125522500Y-110615000D01*
X124977500Y-110615000D01*
X124953241Y-110613808D01*
X124929215Y-110610244D01*
X124905655Y-110604343D01*
X124882786Y-110596160D01*
X124860829Y-110585776D01*
X124839996Y-110573289D01*
X124820488Y-110558820D01*
X124802491Y-110542509D01*
X124786180Y-110524512D01*
X124771711Y-110505004D01*
X124759224Y-110484171D01*
X124748840Y-110462214D01*
X124740657Y-110439345D01*
X124734756Y-110415785D01*
X124731192Y-110391759D01*
X124730000Y-110367500D01*
X124730000Y-109872500D01*
X124731192Y-109848241D01*
X124734756Y-109824215D01*
X124740657Y-109800655D01*
X124748840Y-109777786D01*
X124759224Y-109755829D01*
X124771711Y-109734996D01*
X124786180Y-109715488D01*
X124802491Y-109697491D01*
X124820488Y-109681180D01*
X124839996Y-109666711D01*
X124860829Y-109654224D01*
X124882786Y-109643840D01*
X124905655Y-109635657D01*
X124929215Y-109629756D01*
X124953241Y-109626192D01*
X124977500Y-109625000D01*
X125522500Y-109625000D01*
X125546759Y-109626192D01*
G37*
G36*
X131146759Y-110006192D02*
G01*
X131170785Y-110009756D01*
X131194345Y-110015657D01*
X131217214Y-110023840D01*
X131239171Y-110034224D01*
X131260004Y-110046711D01*
X131279512Y-110061180D01*
X131297509Y-110077491D01*
X131313820Y-110095488D01*
X131328289Y-110114996D01*
X131340776Y-110135829D01*
X131351160Y-110157786D01*
X131359343Y-110180655D01*
X131365244Y-110204215D01*
X131368808Y-110228241D01*
X131370000Y-110252500D01*
X131370000Y-110747500D01*
X131368808Y-110771759D01*
X131365244Y-110795785D01*
X131359343Y-110819345D01*
X131351160Y-110842214D01*
X131340776Y-110864171D01*
X131328289Y-110885004D01*
X131313820Y-110904512D01*
X131297509Y-110922509D01*
X131279512Y-110938820D01*
X131260004Y-110953289D01*
X131239171Y-110965776D01*
X131217214Y-110976160D01*
X131194345Y-110984343D01*
X131170785Y-110990244D01*
X131146759Y-110993808D01*
X131122500Y-110995000D01*
X130577500Y-110995000D01*
X130553241Y-110993808D01*
X130529215Y-110990244D01*
X130505655Y-110984343D01*
X130482786Y-110976160D01*
X130460829Y-110965776D01*
X130439996Y-110953289D01*
X130420488Y-110938820D01*
X130402491Y-110922509D01*
X130386180Y-110904512D01*
X130371711Y-110885004D01*
X130359224Y-110864171D01*
X130348840Y-110842214D01*
X130340657Y-110819345D01*
X130334756Y-110795785D01*
X130331192Y-110771759D01*
X130330000Y-110747500D01*
X130330000Y-110252500D01*
X130331192Y-110228241D01*
X130334756Y-110204215D01*
X130340657Y-110180655D01*
X130348840Y-110157786D01*
X130359224Y-110135829D01*
X130371711Y-110114996D01*
X130386180Y-110095488D01*
X130402491Y-110077491D01*
X130420488Y-110061180D01*
X130439996Y-110046711D01*
X130460829Y-110034224D01*
X130482786Y-110023840D01*
X130505655Y-110015657D01*
X130529215Y-110009756D01*
X130553241Y-110006192D01*
X130577500Y-110005000D01*
X131122500Y-110005000D01*
X131146759Y-110006192D01*
G37*
G36*
X131146759Y-109036192D02*
G01*
X131170785Y-109039756D01*
X131194345Y-109045657D01*
X131217214Y-109053840D01*
X131239171Y-109064224D01*
X131260004Y-109076711D01*
X131279512Y-109091180D01*
X131297509Y-109107491D01*
X131313820Y-109125488D01*
X131328289Y-109144996D01*
X131340776Y-109165829D01*
X131351160Y-109187786D01*
X131359343Y-109210655D01*
X131365244Y-109234215D01*
X131368808Y-109258241D01*
X131370000Y-109282500D01*
X131370000Y-109777500D01*
X131368808Y-109801759D01*
X131365244Y-109825785D01*
X131359343Y-109849345D01*
X131351160Y-109872214D01*
X131340776Y-109894171D01*
X131328289Y-109915004D01*
X131313820Y-109934512D01*
X131297509Y-109952509D01*
X131279512Y-109968820D01*
X131260004Y-109983289D01*
X131239171Y-109995776D01*
X131217214Y-110006160D01*
X131194345Y-110014343D01*
X131170785Y-110020244D01*
X131146759Y-110023808D01*
X131122500Y-110025000D01*
X130577500Y-110025000D01*
X130553241Y-110023808D01*
X130529215Y-110020244D01*
X130505655Y-110014343D01*
X130482786Y-110006160D01*
X130460829Y-109995776D01*
X130439996Y-109983289D01*
X130420488Y-109968820D01*
X130402491Y-109952509D01*
X130386180Y-109934512D01*
X130371711Y-109915004D01*
X130359224Y-109894171D01*
X130348840Y-109872214D01*
X130340657Y-109849345D01*
X130334756Y-109825785D01*
X130331192Y-109801759D01*
X130330000Y-109777500D01*
X130330000Y-109282500D01*
X130331192Y-109258241D01*
X130334756Y-109234215D01*
X130340657Y-109210655D01*
X130348840Y-109187786D01*
X130359224Y-109165829D01*
X130371711Y-109144996D01*
X130386180Y-109125488D01*
X130402491Y-109107491D01*
X130420488Y-109091180D01*
X130439996Y-109076711D01*
X130460829Y-109064224D01*
X130482786Y-109053840D01*
X130505655Y-109045657D01*
X130529215Y-109039756D01*
X130553241Y-109036192D01*
X130577500Y-109035000D01*
X131122500Y-109035000D01*
X131146759Y-109036192D01*
G37*
D14*
X106500000Y-111550000D03*
X106850000Y-111550000D03*
X106500000Y-111200000D03*
X106850000Y-111200000D03*
X106500000Y-108200000D03*
X106850000Y-108200000D03*
X106500000Y-107850000D03*
X106850000Y-107850000D03*
D10*
X115290000Y-103650000D03*
X116560000Y-103650000D03*
X117830000Y-103650000D03*
D11*
X119100000Y-103650000D03*
D15*
X138100000Y-113100000D03*
X135560000Y-113100000D03*
X138100000Y-110560000D03*
X135560000Y-110560000D03*
X138100000Y-108020000D03*
D16*
X135560000Y-108020000D03*
D17*
X116775000Y-106150000D03*
X116775000Y-106800000D03*
X116775000Y-107450000D03*
X116775000Y-108100000D03*
X116775000Y-108750000D03*
X116775000Y-109400000D03*
X116775000Y-110050000D03*
X122675000Y-110050000D03*
X122675000Y-109400000D03*
X122675000Y-108750000D03*
X122675000Y-108100000D03*
X122675000Y-107450000D03*
X122675000Y-106800000D03*
X122675000Y-106150000D03*
D18*
X107150000Y-104850000D03*
X109150000Y-105800000D03*
X109150000Y-103900000D03*
D19*
X131850000Y-106100000D03*
X130900000Y-108100000D03*
X132800000Y-108100000D03*
D20*
X101150000Y-110400000D03*
D21*
X103300000Y-113200000D03*
X103300000Y-107600000D03*
D15*
X138100000Y-103900000D03*
D16*
X135560000Y-103900000D03*
D15*
X101900000Y-103900000D03*
D16*
X104440000Y-103900000D03*
D15*
X124280000Y-113100000D03*
X126820000Y-113100000D03*
X129360000Y-113100000D03*
D16*
X131900000Y-113100000D03*
D15*
X120600000Y-113100000D03*
X118060000Y-113100000D03*
X115520000Y-113100000D03*
D16*
X112980000Y-113100000D03*
D13*
G36*
X111174993Y-104426535D02*
G01*
X111205935Y-104431125D01*
X111236278Y-104438725D01*
X111265730Y-104449263D01*
X111294008Y-104462638D01*
X111320838Y-104478719D01*
X111345963Y-104497353D01*
X111369140Y-104518360D01*
X111390147Y-104541537D01*
X111408781Y-104566662D01*
X111424862Y-104593492D01*
X111438237Y-104621770D01*
X111448775Y-104651222D01*
X111456375Y-104681565D01*
X111460965Y-104712507D01*
X111462500Y-104743750D01*
X111462500Y-105456250D01*
X111460965Y-105487493D01*
X111456375Y-105518435D01*
X111448775Y-105548778D01*
X111438237Y-105578230D01*
X111424862Y-105606508D01*
X111408781Y-105633338D01*
X111390147Y-105658463D01*
X111369140Y-105681640D01*
X111345963Y-105702647D01*
X111320838Y-105721281D01*
X111294008Y-105737362D01*
X111265730Y-105750737D01*
X111236278Y-105761275D01*
X111205935Y-105768875D01*
X111174993Y-105773465D01*
X111143750Y-105775000D01*
X110506250Y-105775000D01*
X110475007Y-105773465D01*
X110444065Y-105768875D01*
X110413722Y-105761275D01*
X110384270Y-105750737D01*
X110355992Y-105737362D01*
X110329162Y-105721281D01*
X110304037Y-105702647D01*
X110280860Y-105681640D01*
X110259853Y-105658463D01*
X110241219Y-105633338D01*
X110225138Y-105606508D01*
X110211763Y-105578230D01*
X110201225Y-105548778D01*
X110193625Y-105518435D01*
X110189035Y-105487493D01*
X110187500Y-105456250D01*
X110187500Y-104743750D01*
X110189035Y-104712507D01*
X110193625Y-104681565D01*
X110201225Y-104651222D01*
X110211763Y-104621770D01*
X110225138Y-104593492D01*
X110241219Y-104566662D01*
X110259853Y-104541537D01*
X110280860Y-104518360D01*
X110304037Y-104497353D01*
X110329162Y-104478719D01*
X110355992Y-104462638D01*
X110384270Y-104449263D01*
X110413722Y-104438725D01*
X110444065Y-104431125D01*
X110475007Y-104426535D01*
X110506250Y-104425000D01*
X111143750Y-104425000D01*
X111174993Y-104426535D01*
G37*
G36*
X112749993Y-104426535D02*
G01*
X112780935Y-104431125D01*
X112811278Y-104438725D01*
X112840730Y-104449263D01*
X112869008Y-104462638D01*
X112895838Y-104478719D01*
X112920963Y-104497353D01*
X112944140Y-104518360D01*
X112965147Y-104541537D01*
X112983781Y-104566662D01*
X112999862Y-104593492D01*
X113013237Y-104621770D01*
X113023775Y-104651222D01*
X113031375Y-104681565D01*
X113035965Y-104712507D01*
X113037500Y-104743750D01*
X113037500Y-105456250D01*
X113035965Y-105487493D01*
X113031375Y-105518435D01*
X113023775Y-105548778D01*
X113013237Y-105578230D01*
X112999862Y-105606508D01*
X112983781Y-105633338D01*
X112965147Y-105658463D01*
X112944140Y-105681640D01*
X112920963Y-105702647D01*
X112895838Y-105721281D01*
X112869008Y-105737362D01*
X112840730Y-105750737D01*
X112811278Y-105761275D01*
X112780935Y-105768875D01*
X112749993Y-105773465D01*
X112718750Y-105775000D01*
X112081250Y-105775000D01*
X112050007Y-105773465D01*
X112019065Y-105768875D01*
X111988722Y-105761275D01*
X111959270Y-105750737D01*
X111930992Y-105737362D01*
X111904162Y-105721281D01*
X111879037Y-105702647D01*
X111855860Y-105681640D01*
X111834853Y-105658463D01*
X111816219Y-105633338D01*
X111800138Y-105606508D01*
X111786763Y-105578230D01*
X111776225Y-105548778D01*
X111768625Y-105518435D01*
X111764035Y-105487493D01*
X111762500Y-105456250D01*
X111762500Y-104743750D01*
X111764035Y-104712507D01*
X111768625Y-104681565D01*
X111776225Y-104651222D01*
X111786763Y-104621770D01*
X111800138Y-104593492D01*
X111816219Y-104566662D01*
X111834853Y-104541537D01*
X111855860Y-104518360D01*
X111879037Y-104497353D01*
X111904162Y-104478719D01*
X111930992Y-104462638D01*
X111959270Y-104449263D01*
X111988722Y-104438725D01*
X112019065Y-104431125D01*
X112050007Y-104426535D01*
X112081250Y-104425000D01*
X112718750Y-104425000D01*
X112749993Y-104426535D01*
G37*
G36*
X110127346Y-109576589D02*
G01*
X110159380Y-109581341D01*
X110190794Y-109589210D01*
X110221286Y-109600120D01*
X110250561Y-109613966D01*
X110278338Y-109630615D01*
X110304350Y-109649907D01*
X110328345Y-109671655D01*
X110350093Y-109695650D01*
X110369385Y-109721662D01*
X110386034Y-109749439D01*
X110399880Y-109778714D01*
X110410790Y-109809206D01*
X110418659Y-109840620D01*
X110423411Y-109872654D01*
X110425000Y-109905000D01*
X110425000Y-110895000D01*
X110423411Y-110927346D01*
X110418659Y-110959380D01*
X110410790Y-110990794D01*
X110399880Y-111021286D01*
X110386034Y-111050561D01*
X110369385Y-111078338D01*
X110350093Y-111104350D01*
X110328345Y-111128345D01*
X110304350Y-111150093D01*
X110278338Y-111169385D01*
X110250561Y-111186034D01*
X110221286Y-111199880D01*
X110190794Y-111210790D01*
X110159380Y-111218659D01*
X110127346Y-111223411D01*
X110095000Y-111225000D01*
X108605000Y-111225000D01*
X108572654Y-111223411D01*
X108540620Y-111218659D01*
X108509206Y-111210790D01*
X108478714Y-111199880D01*
X108449439Y-111186034D01*
X108421662Y-111169385D01*
X108395650Y-111150093D01*
X108371655Y-111128345D01*
X108349907Y-111104350D01*
X108330615Y-111078338D01*
X108313966Y-111050561D01*
X108300120Y-111021286D01*
X108289210Y-110990794D01*
X108281341Y-110959380D01*
X108276589Y-110927346D01*
X108275000Y-110895000D01*
X108275000Y-109905000D01*
X108276589Y-109872654D01*
X108281341Y-109840620D01*
X108289210Y-109809206D01*
X108300120Y-109778714D01*
X108313966Y-109749439D01*
X108330615Y-109721662D01*
X108349907Y-109695650D01*
X108371655Y-109671655D01*
X108395650Y-109649907D01*
X108421662Y-109630615D01*
X108449439Y-109613966D01*
X108478714Y-109600120D01*
X108509206Y-109589210D01*
X108540620Y-109581341D01*
X108572654Y-109576589D01*
X108605000Y-109575000D01*
X110095000Y-109575000D01*
X110127346Y-109576589D01*
G37*
G36*
X110127346Y-106776589D02*
G01*
X110159380Y-106781341D01*
X110190794Y-106789210D01*
X110221286Y-106800120D01*
X110250561Y-106813966D01*
X110278338Y-106830615D01*
X110304350Y-106849907D01*
X110328345Y-106871655D01*
X110350093Y-106895650D01*
X110369385Y-106921662D01*
X110386034Y-106949439D01*
X110399880Y-106978714D01*
X110410790Y-107009206D01*
X110418659Y-107040620D01*
X110423411Y-107072654D01*
X110425000Y-107105000D01*
X110425000Y-108095000D01*
X110423411Y-108127346D01*
X110418659Y-108159380D01*
X110410790Y-108190794D01*
X110399880Y-108221286D01*
X110386034Y-108250561D01*
X110369385Y-108278338D01*
X110350093Y-108304350D01*
X110328345Y-108328345D01*
X110304350Y-108350093D01*
X110278338Y-108369385D01*
X110250561Y-108386034D01*
X110221286Y-108399880D01*
X110190794Y-108410790D01*
X110159380Y-108418659D01*
X110127346Y-108423411D01*
X110095000Y-108425000D01*
X108605000Y-108425000D01*
X108572654Y-108423411D01*
X108540620Y-108418659D01*
X108509206Y-108410790D01*
X108478714Y-108399880D01*
X108449439Y-108386034D01*
X108421662Y-108369385D01*
X108395650Y-108350093D01*
X108371655Y-108328345D01*
X108349907Y-108304350D01*
X108330615Y-108278338D01*
X108313966Y-108250561D01*
X108300120Y-108221286D01*
X108289210Y-108190794D01*
X108281341Y-108159380D01*
X108276589Y-108127346D01*
X108275000Y-108095000D01*
X108275000Y-107105000D01*
X108276589Y-107072654D01*
X108281341Y-107040620D01*
X108289210Y-107009206D01*
X108300120Y-106978714D01*
X108313966Y-106949439D01*
X108330615Y-106921662D01*
X108349907Y-106895650D01*
X108371655Y-106871655D01*
X108395650Y-106849907D01*
X108421662Y-106830615D01*
X108449439Y-106813966D01*
X108478714Y-106800120D01*
X108509206Y-106789210D01*
X108540620Y-106781341D01*
X108572654Y-106776589D01*
X108605000Y-106775000D01*
X110095000Y-106775000D01*
X110127346Y-106776589D01*
G37*
M02*
