M48
; DRILL file {KiCad (5.1.5)-3} date 2020/12/08 16:20:57
; FORMAT={-:-/ absolute / inch / decimal}
; #@! TF.CreationDate,2020-12-08T16:20:57+11:00
; #@! TF.GenerationSoftware,Kicad,Pcbnew,(5.1.5)-3
FMAT,2
INCH
T1C0.0118
T2C0.0157
T3C0.0197
T4C0.0256
T5C0.0394
%
G90
G05
T1
X3.9862Y-4.437
X4.1181Y-4.4656
X4.2589Y-4.5069
X4.2953Y-4.3543
X4.3538Y-4.2776
X4.378Y-4.2244
X4.3781Y-4.1816
X4.4154Y-4.3203
X4.4232Y-4.3671
X4.4252Y-4.1831
X4.5468Y-4.2165
X4.5721Y-4.1458
X4.628Y-4.3622
X4.6732Y-4.2323
X4.7067Y-4.2264
X4.7382Y-4.137
X4.7554Y-4.2985
X4.7763Y-4.2677
X4.811Y-4.3799
X4.8953Y-4.311
X4.935Y-4.2067
X4.939Y-4.3957
X4.9469Y-4.3642
X4.9547Y-4.185
X4.9646Y-4.1409
X4.9843Y-4.2756
X5.0044Y-4.1835
X5.0175Y-4.1588
X5.0329Y-4.4041
X5.0411Y-4.1445
X5.063Y-4.4035
X5.0685Y-4.1474
X5.0807Y-4.2756
X5.089Y-4.3944
X5.0948Y-4.1393
X5.122Y-4.135
X5.1329Y-4.3986
X5.1417Y-4.4892
X5.1457Y-4.1496
X5.176Y-4.381
X5.2Y-4.3674
X5.2146Y-4.3917
X5.2393Y-4.2167
T2
X4.1142Y-4.3346
X4.1154Y-4.4278
X4.124Y-4.5049
X4.128Y-4.2756
X4.2047Y-4.3425
T4
X4.7705Y-4.0807
X4.8205Y-4.0807
X4.8705Y-4.0807
X4.9205Y-4.0807
X4.9705Y-4.0807
X5.0205Y-4.0807
X5.0705Y-4.0807
X5.1205Y-4.0807
X5.1705Y-4.0807
X5.2205Y-4.0807
X4.539Y-4.0807
X4.589Y-4.0807
X4.639Y-4.0807
X4.689Y-4.0807
T5
X5.337Y-4.0906
X5.437Y-4.0906
X4.8929Y-4.4528
X4.9929Y-4.4528
X5.0929Y-4.4528
X5.1929Y-4.4528
X5.337Y-4.2528
X5.337Y-4.3528
X5.337Y-4.4528
X5.437Y-4.2528
X5.437Y-4.3528
X5.437Y-4.4528
X4.448Y-4.4528
X4.548Y-4.4528
X4.648Y-4.4528
X4.748Y-4.4528
X4.0118Y-4.0906
X4.1118Y-4.0906
T3
G00X3.9823Y-4.3248
M15
G01X3.9823Y-4.3681
M16
G05
G00X4.0669Y-4.2224
M15
G01X4.0669Y-4.25
M16
G05
G00X4.0669Y-4.4429
M15
G01X4.0669Y-4.4705
M16
G05
T0
M30
