G04 #@! TF.GenerationSoftware,KiCad,Pcbnew,(5.1.9)-1*
G04 #@! TF.CreationDate,2021-06-25T11:42:06+10:00*
G04 #@! TF.ProjectId,microBoSL,6d696372-6f42-46f5-934c-2e6b69636164,0.2.3*
G04 #@! TF.SameCoordinates,Original*
G04 #@! TF.FileFunction,Copper,L4,Bot*
G04 #@! TF.FilePolarity,Positive*
%FSLAX46Y46*%
G04 Gerber Fmt 4.6, Leading zero omitted, Abs format (unit mm)*
G04 Created by KiCad (PCBNEW (5.1.9)-1) date 2021-06-25 11:42:06*
%MOMM*%
%LPD*%
G01*
G04 APERTURE LIST*
G04 #@! TA.AperFunction,SMDPad,CuDef*
%ADD10R,0.450000X0.700000*%
G04 #@! TD*
G04 #@! TA.AperFunction,SMDPad,CuDef*
%ADD11R,0.600000X0.450000*%
G04 #@! TD*
G04 #@! TA.AperFunction,ComponentPad*
%ADD12O,1.100000X2.200000*%
G04 #@! TD*
G04 #@! TA.AperFunction,ComponentPad*
%ADD13O,1.100000X1.800000*%
G04 #@! TD*
G04 #@! TA.AperFunction,SMDPad,CuDef*
%ADD14R,1.600000X1.300000*%
G04 #@! TD*
G04 #@! TA.AperFunction,SMDPad,CuDef*
%ADD15R,0.650000X1.060000*%
G04 #@! TD*
G04 #@! TA.AperFunction,ComponentPad*
%ADD16O,1.000000X1.000000*%
G04 #@! TD*
G04 #@! TA.AperFunction,ComponentPad*
%ADD17R,1.000000X1.000000*%
G04 #@! TD*
G04 #@! TA.AperFunction,ComponentPad*
%ADD18O,1.350000X1.350000*%
G04 #@! TD*
G04 #@! TA.AperFunction,ComponentPad*
%ADD19R,1.350000X1.350000*%
G04 #@! TD*
G04 #@! TA.AperFunction,ComponentPad*
%ADD20O,1.700000X1.700000*%
G04 #@! TD*
G04 #@! TA.AperFunction,ComponentPad*
%ADD21R,1.700000X1.700000*%
G04 #@! TD*
G04 #@! TA.AperFunction,WasherPad*
%ADD22C,0.850000*%
G04 #@! TD*
G04 #@! TA.AperFunction,SMDPad,CuDef*
%ADD23R,0.700000X0.450000*%
G04 #@! TD*
G04 #@! TA.AperFunction,SMDPad,CuDef*
%ADD24R,1.450000X0.450000*%
G04 #@! TD*
G04 #@! TA.AperFunction,ViaPad*
%ADD25C,0.600000*%
G04 #@! TD*
G04 #@! TA.AperFunction,ViaPad*
%ADD26C,0.500000*%
G04 #@! TD*
G04 #@! TA.AperFunction,Conductor*
%ADD27C,0.250000*%
G04 #@! TD*
G04 #@! TA.AperFunction,Conductor*
%ADD28C,0.160000*%
G04 #@! TD*
G04 #@! TA.AperFunction,Conductor*
%ADD29C,0.400000*%
G04 #@! TD*
G04 #@! TA.AperFunction,Conductor*
%ADD30C,0.320000*%
G04 #@! TD*
G04 #@! TA.AperFunction,Conductor*
%ADD31C,0.200000*%
G04 #@! TD*
G04 #@! TA.AperFunction,Conductor*
%ADD32C,0.254000*%
G04 #@! TD*
G04 #@! TA.AperFunction,Conductor*
%ADD33C,0.100000*%
G04 #@! TD*
G04 APERTURE END LIST*
G04 #@! TA.AperFunction,SMDPad,CuDef*
G36*
G01*
X110175000Y-110720000D02*
X110175000Y-110380000D01*
G75*
G02*
X110315000Y-110240000I140000J0D01*
G01*
X110595000Y-110240000D01*
G75*
G02*
X110735000Y-110380000I0J-140000D01*
G01*
X110735000Y-110720000D01*
G75*
G02*
X110595000Y-110860000I-140000J0D01*
G01*
X110315000Y-110860000D01*
G75*
G02*
X110175000Y-110720000I0J140000D01*
G01*
G37*
G04 #@! TD.AperFunction*
G04 #@! TA.AperFunction,SMDPad,CuDef*
G36*
G01*
X109215000Y-110720000D02*
X109215000Y-110380000D01*
G75*
G02*
X109355000Y-110240000I140000J0D01*
G01*
X109635000Y-110240000D01*
G75*
G02*
X109775000Y-110380000I0J-140000D01*
G01*
X109775000Y-110720000D01*
G75*
G02*
X109635000Y-110860000I-140000J0D01*
G01*
X109355000Y-110860000D01*
G75*
G02*
X109215000Y-110720000I0J140000D01*
G01*
G37*
G04 #@! TD.AperFunction*
G04 #@! TA.AperFunction,SMDPad,CuDef*
G36*
G01*
X112235000Y-108385000D02*
X111865000Y-108385000D01*
G75*
G02*
X111730000Y-108250000I0J135000D01*
G01*
X111730000Y-107980000D01*
G75*
G02*
X111865000Y-107845000I135000J0D01*
G01*
X112235000Y-107845000D01*
G75*
G02*
X112370000Y-107980000I0J-135000D01*
G01*
X112370000Y-108250000D01*
G75*
G02*
X112235000Y-108385000I-135000J0D01*
G01*
G37*
G04 #@! TD.AperFunction*
G04 #@! TA.AperFunction,SMDPad,CuDef*
G36*
G01*
X112235000Y-109405000D02*
X111865000Y-109405000D01*
G75*
G02*
X111730000Y-109270000I0J135000D01*
G01*
X111730000Y-109000000D01*
G75*
G02*
X111865000Y-108865000I135000J0D01*
G01*
X112235000Y-108865000D01*
G75*
G02*
X112370000Y-109000000I0J-135000D01*
G01*
X112370000Y-109270000D01*
G75*
G02*
X112235000Y-109405000I-135000J0D01*
G01*
G37*
G04 #@! TD.AperFunction*
D10*
X109800000Y-107125000D03*
X109150000Y-109125000D03*
X110450000Y-109125000D03*
D11*
X105550000Y-109400000D03*
X107650000Y-109400000D03*
D12*
X101125000Y-112450000D03*
D13*
X103275000Y-115250000D03*
X103275000Y-109650000D03*
D14*
X130440000Y-109800000D03*
X127140000Y-109800000D03*
X127140000Y-111800000D03*
X130440000Y-111800000D03*
D15*
X107750000Y-111525000D03*
X105850000Y-111525000D03*
X105850000Y-113725000D03*
X106800000Y-113725000D03*
X107750000Y-113725000D03*
D16*
X121500000Y-113500000D03*
X120230000Y-113500000D03*
X118960000Y-113500000D03*
D17*
X117690000Y-113500000D03*
D18*
X143500000Y-107500000D03*
X143500000Y-105500000D03*
D19*
X143500000Y-103500000D03*
D18*
X141000000Y-107500000D03*
X141000000Y-105500000D03*
D19*
X141000000Y-103500000D03*
D18*
X120700000Y-103500000D03*
X122700000Y-103500000D03*
D19*
X124700000Y-103500000D03*
D18*
X121500000Y-115500000D03*
X119500000Y-115500000D03*
D19*
X117500000Y-115500000D03*
G04 #@! TA.AperFunction,SMDPad,CuDef*
G36*
G01*
X138805000Y-109500000D02*
X138505000Y-109500000D01*
G75*
G02*
X138355000Y-109350000I0J150000D01*
G01*
X138355000Y-107700000D01*
G75*
G02*
X138505000Y-107550000I150000J0D01*
G01*
X138805000Y-107550000D01*
G75*
G02*
X138955000Y-107700000I0J-150000D01*
G01*
X138955000Y-109350000D01*
G75*
G02*
X138805000Y-109500000I-150000J0D01*
G01*
G37*
G04 #@! TD.AperFunction*
G04 #@! TA.AperFunction,SMDPad,CuDef*
G36*
G01*
X137535000Y-109500000D02*
X137235000Y-109500000D01*
G75*
G02*
X137085000Y-109350000I0J150000D01*
G01*
X137085000Y-107700000D01*
G75*
G02*
X137235000Y-107550000I150000J0D01*
G01*
X137535000Y-107550000D01*
G75*
G02*
X137685000Y-107700000I0J-150000D01*
G01*
X137685000Y-109350000D01*
G75*
G02*
X137535000Y-109500000I-150000J0D01*
G01*
G37*
G04 #@! TD.AperFunction*
G04 #@! TA.AperFunction,SMDPad,CuDef*
G36*
G01*
X136265000Y-109500000D02*
X135965000Y-109500000D01*
G75*
G02*
X135815000Y-109350000I0J150000D01*
G01*
X135815000Y-107700000D01*
G75*
G02*
X135965000Y-107550000I150000J0D01*
G01*
X136265000Y-107550000D01*
G75*
G02*
X136415000Y-107700000I0J-150000D01*
G01*
X136415000Y-109350000D01*
G75*
G02*
X136265000Y-109500000I-150000J0D01*
G01*
G37*
G04 #@! TD.AperFunction*
G04 #@! TA.AperFunction,SMDPad,CuDef*
G36*
G01*
X134995000Y-109500000D02*
X134695000Y-109500000D01*
G75*
G02*
X134545000Y-109350000I0J150000D01*
G01*
X134545000Y-107700000D01*
G75*
G02*
X134695000Y-107550000I150000J0D01*
G01*
X134995000Y-107550000D01*
G75*
G02*
X135145000Y-107700000I0J-150000D01*
G01*
X135145000Y-109350000D01*
G75*
G02*
X134995000Y-109500000I-150000J0D01*
G01*
G37*
G04 #@! TD.AperFunction*
G04 #@! TA.AperFunction,SMDPad,CuDef*
G36*
G01*
X134995000Y-114450000D02*
X134695000Y-114450000D01*
G75*
G02*
X134545000Y-114300000I0J150000D01*
G01*
X134545000Y-112650000D01*
G75*
G02*
X134695000Y-112500000I150000J0D01*
G01*
X134995000Y-112500000D01*
G75*
G02*
X135145000Y-112650000I0J-150000D01*
G01*
X135145000Y-114300000D01*
G75*
G02*
X134995000Y-114450000I-150000J0D01*
G01*
G37*
G04 #@! TD.AperFunction*
G04 #@! TA.AperFunction,SMDPad,CuDef*
G36*
G01*
X136265000Y-114450000D02*
X135965000Y-114450000D01*
G75*
G02*
X135815000Y-114300000I0J150000D01*
G01*
X135815000Y-112650000D01*
G75*
G02*
X135965000Y-112500000I150000J0D01*
G01*
X136265000Y-112500000D01*
G75*
G02*
X136415000Y-112650000I0J-150000D01*
G01*
X136415000Y-114300000D01*
G75*
G02*
X136265000Y-114450000I-150000J0D01*
G01*
G37*
G04 #@! TD.AperFunction*
G04 #@! TA.AperFunction,SMDPad,CuDef*
G36*
G01*
X137535000Y-114450000D02*
X137235000Y-114450000D01*
G75*
G02*
X137085000Y-114300000I0J150000D01*
G01*
X137085000Y-112650000D01*
G75*
G02*
X137235000Y-112500000I150000J0D01*
G01*
X137535000Y-112500000D01*
G75*
G02*
X137685000Y-112650000I0J-150000D01*
G01*
X137685000Y-114300000D01*
G75*
G02*
X137535000Y-114450000I-150000J0D01*
G01*
G37*
G04 #@! TD.AperFunction*
G04 #@! TA.AperFunction,SMDPad,CuDef*
G36*
G01*
X138805000Y-114450000D02*
X138505000Y-114450000D01*
G75*
G02*
X138355000Y-114300000I0J150000D01*
G01*
X138355000Y-112650000D01*
G75*
G02*
X138505000Y-112500000I150000J0D01*
G01*
X138805000Y-112500000D01*
G75*
G02*
X138955000Y-112650000I0J-150000D01*
G01*
X138955000Y-114300000D01*
G75*
G02*
X138805000Y-114450000I-150000J0D01*
G01*
G37*
G04 #@! TD.AperFunction*
D20*
X143440000Y-115200000D03*
D21*
X140900000Y-115200000D03*
D20*
X143440000Y-111700000D03*
D21*
X140900000Y-111700000D03*
G04 #@! TA.AperFunction,SMDPad,CuDef*
G36*
G01*
X138050000Y-115520000D02*
X138050000Y-115180000D01*
G75*
G02*
X138190000Y-115040000I140000J0D01*
G01*
X138470000Y-115040000D01*
G75*
G02*
X138610000Y-115180000I0J-140000D01*
G01*
X138610000Y-115520000D01*
G75*
G02*
X138470000Y-115660000I-140000J0D01*
G01*
X138190000Y-115660000D01*
G75*
G02*
X138050000Y-115520000I0J140000D01*
G01*
G37*
G04 #@! TD.AperFunction*
G04 #@! TA.AperFunction,SMDPad,CuDef*
G36*
G01*
X137090000Y-115520000D02*
X137090000Y-115180000D01*
G75*
G02*
X137230000Y-115040000I140000J0D01*
G01*
X137510000Y-115040000D01*
G75*
G02*
X137650000Y-115180000I0J-140000D01*
G01*
X137650000Y-115520000D01*
G75*
G02*
X137510000Y-115660000I-140000J0D01*
G01*
X137230000Y-115660000D01*
G75*
G02*
X137090000Y-115520000I0J140000D01*
G01*
G37*
G04 #@! TD.AperFunction*
G04 #@! TA.AperFunction,SMDPad,CuDef*
G36*
G01*
X135850000Y-115470000D02*
X135850000Y-115130000D01*
G75*
G02*
X135990000Y-114990000I140000J0D01*
G01*
X136270000Y-114990000D01*
G75*
G02*
X136410000Y-115130000I0J-140000D01*
G01*
X136410000Y-115470000D01*
G75*
G02*
X136270000Y-115610000I-140000J0D01*
G01*
X135990000Y-115610000D01*
G75*
G02*
X135850000Y-115470000I0J140000D01*
G01*
G37*
G04 #@! TD.AperFunction*
G04 #@! TA.AperFunction,SMDPad,CuDef*
G36*
G01*
X134890000Y-115470000D02*
X134890000Y-115130000D01*
G75*
G02*
X135030000Y-114990000I140000J0D01*
G01*
X135310000Y-114990000D01*
G75*
G02*
X135450000Y-115130000I0J-140000D01*
G01*
X135450000Y-115470000D01*
G75*
G02*
X135310000Y-115610000I-140000J0D01*
G01*
X135030000Y-115610000D01*
G75*
G02*
X134890000Y-115470000I0J140000D01*
G01*
G37*
G04 #@! TD.AperFunction*
D16*
X135860000Y-105200000D03*
X137130000Y-105200000D03*
D17*
X138400000Y-105200000D03*
D16*
X135240000Y-103550000D03*
X136510000Y-103550000D03*
X137780000Y-103550000D03*
D17*
X139050000Y-103550000D03*
G04 #@! TA.AperFunction,SMDPad,CuDef*
G36*
G01*
X131750000Y-107305000D02*
X131750000Y-107005000D01*
G75*
G02*
X131900000Y-106855000I150000J0D01*
G01*
X133550000Y-106855000D01*
G75*
G02*
X133700000Y-107005000I0J-150000D01*
G01*
X133700000Y-107305000D01*
G75*
G02*
X133550000Y-107455000I-150000J0D01*
G01*
X131900000Y-107455000D01*
G75*
G02*
X131750000Y-107305000I0J150000D01*
G01*
G37*
G04 #@! TD.AperFunction*
G04 #@! TA.AperFunction,SMDPad,CuDef*
G36*
G01*
X131750000Y-106035000D02*
X131750000Y-105735000D01*
G75*
G02*
X131900000Y-105585000I150000J0D01*
G01*
X133550000Y-105585000D01*
G75*
G02*
X133700000Y-105735000I0J-150000D01*
G01*
X133700000Y-106035000D01*
G75*
G02*
X133550000Y-106185000I-150000J0D01*
G01*
X131900000Y-106185000D01*
G75*
G02*
X131750000Y-106035000I0J150000D01*
G01*
G37*
G04 #@! TD.AperFunction*
G04 #@! TA.AperFunction,SMDPad,CuDef*
G36*
G01*
X131750000Y-104765000D02*
X131750000Y-104465000D01*
G75*
G02*
X131900000Y-104315000I150000J0D01*
G01*
X133550000Y-104315000D01*
G75*
G02*
X133700000Y-104465000I0J-150000D01*
G01*
X133700000Y-104765000D01*
G75*
G02*
X133550000Y-104915000I-150000J0D01*
G01*
X131900000Y-104915000D01*
G75*
G02*
X131750000Y-104765000I0J150000D01*
G01*
G37*
G04 #@! TD.AperFunction*
G04 #@! TA.AperFunction,SMDPad,CuDef*
G36*
G01*
X131750000Y-103495000D02*
X131750000Y-103195000D01*
G75*
G02*
X131900000Y-103045000I150000J0D01*
G01*
X133550000Y-103045000D01*
G75*
G02*
X133700000Y-103195000I0J-150000D01*
G01*
X133700000Y-103495000D01*
G75*
G02*
X133550000Y-103645000I-150000J0D01*
G01*
X131900000Y-103645000D01*
G75*
G02*
X131750000Y-103495000I0J150000D01*
G01*
G37*
G04 #@! TD.AperFunction*
G04 #@! TA.AperFunction,SMDPad,CuDef*
G36*
G01*
X126800000Y-103495000D02*
X126800000Y-103195000D01*
G75*
G02*
X126950000Y-103045000I150000J0D01*
G01*
X128600000Y-103045000D01*
G75*
G02*
X128750000Y-103195000I0J-150000D01*
G01*
X128750000Y-103495000D01*
G75*
G02*
X128600000Y-103645000I-150000J0D01*
G01*
X126950000Y-103645000D01*
G75*
G02*
X126800000Y-103495000I0J150000D01*
G01*
G37*
G04 #@! TD.AperFunction*
G04 #@! TA.AperFunction,SMDPad,CuDef*
G36*
G01*
X126800000Y-104765000D02*
X126800000Y-104465000D01*
G75*
G02*
X126950000Y-104315000I150000J0D01*
G01*
X128600000Y-104315000D01*
G75*
G02*
X128750000Y-104465000I0J-150000D01*
G01*
X128750000Y-104765000D01*
G75*
G02*
X128600000Y-104915000I-150000J0D01*
G01*
X126950000Y-104915000D01*
G75*
G02*
X126800000Y-104765000I0J150000D01*
G01*
G37*
G04 #@! TD.AperFunction*
G04 #@! TA.AperFunction,SMDPad,CuDef*
G36*
G01*
X126800000Y-106035000D02*
X126800000Y-105735000D01*
G75*
G02*
X126950000Y-105585000I150000J0D01*
G01*
X128600000Y-105585000D01*
G75*
G02*
X128750000Y-105735000I0J-150000D01*
G01*
X128750000Y-106035000D01*
G75*
G02*
X128600000Y-106185000I-150000J0D01*
G01*
X126950000Y-106185000D01*
G75*
G02*
X126800000Y-106035000I0J150000D01*
G01*
G37*
G04 #@! TD.AperFunction*
G04 #@! TA.AperFunction,SMDPad,CuDef*
G36*
G01*
X126800000Y-107305000D02*
X126800000Y-107005000D01*
G75*
G02*
X126950000Y-106855000I150000J0D01*
G01*
X128600000Y-106855000D01*
G75*
G02*
X128750000Y-107005000I0J-150000D01*
G01*
X128750000Y-107305000D01*
G75*
G02*
X128600000Y-107455000I-150000J0D01*
G01*
X126950000Y-107455000D01*
G75*
G02*
X126800000Y-107305000I0J150000D01*
G01*
G37*
G04 #@! TD.AperFunction*
D22*
X111450000Y-104650000D03*
X105950000Y-104650000D03*
G04 #@! TA.AperFunction,SMDPad,CuDef*
G36*
G01*
X107570000Y-104400000D02*
X107230000Y-104400000D01*
G75*
G02*
X107090000Y-104260000I0J140000D01*
G01*
X107090000Y-103980000D01*
G75*
G02*
X107230000Y-103840000I140000J0D01*
G01*
X107570000Y-103840000D01*
G75*
G02*
X107710000Y-103980000I0J-140000D01*
G01*
X107710000Y-104260000D01*
G75*
G02*
X107570000Y-104400000I-140000J0D01*
G01*
G37*
G04 #@! TD.AperFunction*
G04 #@! TA.AperFunction,SMDPad,CuDef*
G36*
G01*
X107570000Y-105360000D02*
X107230000Y-105360000D01*
G75*
G02*
X107090000Y-105220000I0J140000D01*
G01*
X107090000Y-104940000D01*
G75*
G02*
X107230000Y-104800000I140000J0D01*
G01*
X107570000Y-104800000D01*
G75*
G02*
X107710000Y-104940000I0J-140000D01*
G01*
X107710000Y-105220000D01*
G75*
G02*
X107570000Y-105360000I-140000J0D01*
G01*
G37*
G04 #@! TD.AperFunction*
G04 #@! TA.AperFunction,SMDPad,CuDef*
G36*
G01*
X109630000Y-104800000D02*
X109970000Y-104800000D01*
G75*
G02*
X110110000Y-104940000I0J-140000D01*
G01*
X110110000Y-105220000D01*
G75*
G02*
X109970000Y-105360000I-140000J0D01*
G01*
X109630000Y-105360000D01*
G75*
G02*
X109490000Y-105220000I0J140000D01*
G01*
X109490000Y-104940000D01*
G75*
G02*
X109630000Y-104800000I140000J0D01*
G01*
G37*
G04 #@! TD.AperFunction*
G04 #@! TA.AperFunction,SMDPad,CuDef*
G36*
G01*
X109630000Y-103840000D02*
X109970000Y-103840000D01*
G75*
G02*
X110110000Y-103980000I0J-140000D01*
G01*
X110110000Y-104260000D01*
G75*
G02*
X109970000Y-104400000I-140000J0D01*
G01*
X109630000Y-104400000D01*
G75*
G02*
X109490000Y-104260000I0J140000D01*
G01*
X109490000Y-103980000D01*
G75*
G02*
X109630000Y-103840000I140000J0D01*
G01*
G37*
G04 #@! TD.AperFunction*
G04 #@! TA.AperFunction,SMDPad,CuDef*
G36*
G01*
X104585000Y-104360000D02*
X104215000Y-104360000D01*
G75*
G02*
X104080000Y-104225000I0J135000D01*
G01*
X104080000Y-103955000D01*
G75*
G02*
X104215000Y-103820000I135000J0D01*
G01*
X104585000Y-103820000D01*
G75*
G02*
X104720000Y-103955000I0J-135000D01*
G01*
X104720000Y-104225000D01*
G75*
G02*
X104585000Y-104360000I-135000J0D01*
G01*
G37*
G04 #@! TD.AperFunction*
G04 #@! TA.AperFunction,SMDPad,CuDef*
G36*
G01*
X104585000Y-105380000D02*
X104215000Y-105380000D01*
G75*
G02*
X104080000Y-105245000I0J135000D01*
G01*
X104080000Y-104975000D01*
G75*
G02*
X104215000Y-104840000I135000J0D01*
G01*
X104585000Y-104840000D01*
G75*
G02*
X104720000Y-104975000I0J-135000D01*
G01*
X104720000Y-105245000D01*
G75*
G02*
X104585000Y-105380000I-135000J0D01*
G01*
G37*
G04 #@! TD.AperFunction*
D23*
X107700000Y-107025000D03*
X105700000Y-106375000D03*
X105700000Y-107675000D03*
G04 #@! TA.AperFunction,SMDPad,CuDef*
G36*
G01*
X108770000Y-104400000D02*
X108430000Y-104400000D01*
G75*
G02*
X108290000Y-104260000I0J140000D01*
G01*
X108290000Y-103980000D01*
G75*
G02*
X108430000Y-103840000I140000J0D01*
G01*
X108770000Y-103840000D01*
G75*
G02*
X108910000Y-103980000I0J-140000D01*
G01*
X108910000Y-104260000D01*
G75*
G02*
X108770000Y-104400000I-140000J0D01*
G01*
G37*
G04 #@! TD.AperFunction*
G04 #@! TA.AperFunction,SMDPad,CuDef*
G36*
G01*
X108770000Y-105360000D02*
X108430000Y-105360000D01*
G75*
G02*
X108290000Y-105220000I0J140000D01*
G01*
X108290000Y-104940000D01*
G75*
G02*
X108430000Y-104800000I140000J0D01*
G01*
X108770000Y-104800000D01*
G75*
G02*
X108910000Y-104940000I0J-140000D01*
G01*
X108910000Y-105220000D01*
G75*
G02*
X108770000Y-105360000I-140000J0D01*
G01*
G37*
G04 #@! TD.AperFunction*
G04 #@! TA.AperFunction,SMDPad,CuDef*
G36*
G01*
X110550000Y-113125000D02*
X110550000Y-114075000D01*
G75*
G02*
X110300000Y-114325000I-250000J0D01*
G01*
X109800000Y-114325000D01*
G75*
G02*
X109550000Y-114075000I0J250000D01*
G01*
X109550000Y-113125000D01*
G75*
G02*
X109800000Y-112875000I250000J0D01*
G01*
X110300000Y-112875000D01*
G75*
G02*
X110550000Y-113125000I0J-250000D01*
G01*
G37*
G04 #@! TD.AperFunction*
G04 #@! TA.AperFunction,SMDPad,CuDef*
G36*
G01*
X112450000Y-113125000D02*
X112450000Y-114075000D01*
G75*
G02*
X112200000Y-114325000I-250000J0D01*
G01*
X111700000Y-114325000D01*
G75*
G02*
X111450000Y-114075000I0J250000D01*
G01*
X111450000Y-113125000D01*
G75*
G02*
X111700000Y-112875000I250000J0D01*
G01*
X112200000Y-112875000D01*
G75*
G02*
X112450000Y-113125000I0J-250000D01*
G01*
G37*
G04 #@! TD.AperFunction*
G04 #@! TA.AperFunction,SMDPad,CuDef*
G36*
G01*
X113172500Y-104325000D02*
X112827500Y-104325000D01*
G75*
G02*
X112680000Y-104177500I0J147500D01*
G01*
X112680000Y-103882500D01*
G75*
G02*
X112827500Y-103735000I147500J0D01*
G01*
X113172500Y-103735000D01*
G75*
G02*
X113320000Y-103882500I0J-147500D01*
G01*
X113320000Y-104177500D01*
G75*
G02*
X113172500Y-104325000I-147500J0D01*
G01*
G37*
G04 #@! TD.AperFunction*
G04 #@! TA.AperFunction,SMDPad,CuDef*
G36*
G01*
X113172500Y-105295000D02*
X112827500Y-105295000D01*
G75*
G02*
X112680000Y-105147500I0J147500D01*
G01*
X112680000Y-104852500D01*
G75*
G02*
X112827500Y-104705000I147500J0D01*
G01*
X113172500Y-104705000D01*
G75*
G02*
X113320000Y-104852500I0J-147500D01*
G01*
X113320000Y-105147500D01*
G75*
G02*
X113172500Y-105295000I-147500J0D01*
G01*
G37*
G04 #@! TD.AperFunction*
G04 #@! TA.AperFunction,SMDPad,CuDef*
G36*
G01*
X124898500Y-110538000D02*
X124553500Y-110538000D01*
G75*
G02*
X124406000Y-110390500I0J147500D01*
G01*
X124406000Y-110095500D01*
G75*
G02*
X124553500Y-109948000I147500J0D01*
G01*
X124898500Y-109948000D01*
G75*
G02*
X125046000Y-110095500I0J-147500D01*
G01*
X125046000Y-110390500D01*
G75*
G02*
X124898500Y-110538000I-147500J0D01*
G01*
G37*
G04 #@! TD.AperFunction*
G04 #@! TA.AperFunction,SMDPad,CuDef*
G36*
G01*
X124898500Y-111508000D02*
X124553500Y-111508000D01*
G75*
G02*
X124406000Y-111360500I0J147500D01*
G01*
X124406000Y-111065500D01*
G75*
G02*
X124553500Y-110918000I147500J0D01*
G01*
X124898500Y-110918000D01*
G75*
G02*
X125046000Y-111065500I0J-147500D01*
G01*
X125046000Y-111360500D01*
G75*
G02*
X124898500Y-111508000I-147500J0D01*
G01*
G37*
G04 #@! TD.AperFunction*
G04 #@! TA.AperFunction,SMDPad,CuDef*
G36*
G01*
X132677500Y-110918000D02*
X133022500Y-110918000D01*
G75*
G02*
X133170000Y-111065500I0J-147500D01*
G01*
X133170000Y-111360500D01*
G75*
G02*
X133022500Y-111508000I-147500J0D01*
G01*
X132677500Y-111508000D01*
G75*
G02*
X132530000Y-111360500I0J147500D01*
G01*
X132530000Y-111065500D01*
G75*
G02*
X132677500Y-110918000I147500J0D01*
G01*
G37*
G04 #@! TD.AperFunction*
G04 #@! TA.AperFunction,SMDPad,CuDef*
G36*
G01*
X132677500Y-109948000D02*
X133022500Y-109948000D01*
G75*
G02*
X133170000Y-110095500I0J-147500D01*
G01*
X133170000Y-110390500D01*
G75*
G02*
X133022500Y-110538000I-147500J0D01*
G01*
X132677500Y-110538000D01*
G75*
G02*
X132530000Y-110390500I0J147500D01*
G01*
X132530000Y-110095500D01*
G75*
G02*
X132677500Y-109948000I147500J0D01*
G01*
G37*
G04 #@! TD.AperFunction*
D24*
X116850000Y-107300000D03*
X116850000Y-107950000D03*
X116850000Y-108600000D03*
X116850000Y-109250000D03*
X116850000Y-109900000D03*
X116850000Y-110550000D03*
X116850000Y-111200000D03*
X122750000Y-111200000D03*
X122750000Y-110550000D03*
X122750000Y-109900000D03*
X122750000Y-109250000D03*
X122750000Y-108600000D03*
X122750000Y-107950000D03*
X122750000Y-107300000D03*
D20*
X118140000Y-103750000D03*
D21*
X115600000Y-103750000D03*
D20*
X101800000Y-106340000D03*
D21*
X101800000Y-103800000D03*
X131670000Y-115200000D03*
D20*
X129130000Y-115200000D03*
X126590000Y-115200000D03*
X124050000Y-115200000D03*
D25*
X106200000Y-103599998D03*
D26*
X101200000Y-114800000D03*
D25*
X107876276Y-112583774D03*
X108982540Y-113607424D03*
X116350000Y-106250000D03*
X124500000Y-112200000D03*
X121958058Y-112158058D03*
X129549823Y-108749871D03*
X130700000Y-103470000D03*
D26*
X140050000Y-109100000D03*
X138100000Y-116250000D03*
D25*
X101400000Y-109550000D03*
X106875000Y-108625000D03*
X136200006Y-111200000D03*
X134050000Y-104750000D03*
D26*
X116200000Y-105450000D03*
D25*
X133569990Y-109380010D03*
D26*
X127145396Y-102525010D03*
X113000000Y-102800000D03*
X106850000Y-116250000D03*
D25*
X104400000Y-110000000D03*
D26*
X124168252Y-106805260D03*
X126293720Y-103229980D03*
X124700000Y-106350000D03*
X125960414Y-102600000D03*
X130552322Y-106362118D03*
X124300000Y-109100000D03*
X121524767Y-110824767D03*
X129848904Y-106362762D03*
X124949061Y-108569293D03*
X104400000Y-111800000D03*
X104400000Y-113600000D03*
X114400000Y-110650000D03*
X111650000Y-112350000D03*
X119500000Y-109800000D03*
X110725000Y-106075000D03*
D25*
X105200000Y-115200000D03*
X114382500Y-115017500D03*
D26*
X114500000Y-107900000D03*
X125476000Y-110243000D03*
X132539921Y-109300158D03*
D25*
X130200000Y-105700010D03*
X137400000Y-111200000D03*
X125818347Y-106300021D03*
X109752785Y-108073607D03*
D26*
X125325221Y-112474770D03*
X133650097Y-111159883D03*
X121100000Y-109350000D03*
X108600000Y-105775000D03*
X112100000Y-111700000D03*
X114294140Y-107230953D03*
D25*
X131000000Y-105600000D03*
D26*
X108800000Y-107549990D03*
X104400000Y-105110000D03*
X110800000Y-115200001D03*
X119100000Y-111150000D03*
X134580332Y-105280332D03*
X132773448Y-112650536D03*
X132375000Y-112075000D03*
X133071921Y-112009288D03*
X134764780Y-107030256D03*
X127775000Y-113050000D03*
X125649710Y-113095020D03*
X128300000Y-103345000D03*
X129326136Y-113051136D03*
X128939987Y-112427843D03*
X132700000Y-103300000D03*
X135300000Y-111900000D03*
X126100000Y-108550000D03*
X125500000Y-107600000D03*
X135450523Y-106889640D03*
X128587697Y-113032747D03*
X132900000Y-108699870D03*
X130075000Y-113075000D03*
D27*
X107400000Y-104120000D02*
X106720002Y-104120000D01*
X106720002Y-104120000D02*
X106200000Y-103599998D01*
D28*
X110050000Y-113600000D02*
X109615116Y-113600000D01*
D29*
X110050000Y-113600000D02*
X108989964Y-113600000D01*
X108989964Y-113600000D02*
X108982540Y-113607424D01*
X108167684Y-112583774D02*
X107876276Y-112583774D01*
X108876477Y-111874981D02*
X108167684Y-112583774D01*
X109692022Y-111874980D02*
X108876477Y-111874981D01*
D27*
X124713000Y-111200000D02*
X124726000Y-111213000D01*
X124726000Y-111974000D02*
X124500000Y-112200000D01*
X124726000Y-111213000D02*
X124726000Y-111974000D01*
X122750000Y-107300000D02*
X121868768Y-107300000D01*
X121864998Y-109250000D02*
X122750000Y-109250000D01*
X121550000Y-108935002D02*
X121864998Y-109250000D01*
X121550000Y-107618768D02*
X121550000Y-108935002D01*
X121868768Y-107300000D02*
X121550000Y-107618768D01*
X121550000Y-108948998D02*
X121550000Y-108935002D01*
X121675001Y-109073999D02*
X121550000Y-108948998D01*
X120651002Y-111101002D02*
X120651002Y-110650000D01*
X120651002Y-110650000D02*
X121675001Y-109626001D01*
X120949768Y-111399768D02*
X120651002Y-111101002D01*
X121800768Y-111399768D02*
X120949768Y-111399768D01*
X122000536Y-111200000D02*
X121800768Y-111399768D01*
X121675001Y-109626001D02*
X121675001Y-109073999D01*
X122750000Y-111200000D02*
X122000536Y-111200000D01*
X121199768Y-111399768D02*
X120949768Y-111399768D01*
X121958058Y-112158058D02*
X121199768Y-111399768D01*
D28*
X132850000Y-110243000D02*
X132698361Y-110243000D01*
X132009920Y-109554559D02*
X132009920Y-109259920D01*
X131499871Y-108749871D02*
X129549823Y-108749871D01*
X132009920Y-109259920D02*
X131499871Y-108749871D01*
D29*
X139475000Y-108525000D02*
X140050000Y-109100000D01*
X138655000Y-108525000D02*
X139475000Y-108525000D01*
X138330000Y-116020000D02*
X138100000Y-116250000D01*
X138330000Y-115350000D02*
X138330000Y-116020000D01*
X135170000Y-115300000D02*
X135170000Y-115920000D01*
X135500000Y-116250000D02*
X138100000Y-116250000D01*
X135170000Y-115920000D02*
X135500000Y-116250000D01*
D30*
X132725000Y-107155000D02*
X133201139Y-107155000D01*
X134346148Y-106009990D02*
X135473677Y-106009990D01*
X138655000Y-107550000D02*
X138655000Y-108525000D01*
X135473677Y-106009990D02*
X136013687Y-106550000D01*
X136013687Y-106550000D02*
X137655000Y-106550000D01*
X137655000Y-106550000D02*
X138655000Y-107550000D01*
X133201139Y-107155000D02*
X134346148Y-106009990D01*
D27*
X108600000Y-104120000D02*
X107400000Y-104120000D01*
D29*
X107116226Y-112583774D02*
X107876276Y-112583774D01*
X106800000Y-112900000D02*
X107116226Y-112583774D01*
X106800000Y-113700000D02*
X106800000Y-112900000D01*
D28*
X132009920Y-109554559D02*
X132009920Y-109565080D01*
X132009920Y-109565080D02*
X131875000Y-109700000D01*
X129549823Y-108749871D02*
X129050129Y-108749871D01*
X127140000Y-111800000D02*
X128325000Y-111800000D01*
X128325000Y-111800000D02*
X128500000Y-111625000D01*
D29*
X110824990Y-112474990D02*
X111950000Y-113600000D01*
X111950000Y-113600000D02*
X111950000Y-113450000D01*
X136115000Y-115285000D02*
X136130000Y-115300000D01*
X136115000Y-113475000D02*
X136115000Y-115285000D01*
X136115000Y-111285006D02*
X136200006Y-111200000D01*
X136115000Y-113475000D02*
X136115000Y-111285006D01*
X136115000Y-111114994D02*
X136200006Y-111200000D01*
X136115000Y-108525000D02*
X136115000Y-111114994D01*
X132710000Y-104600000D02*
X132725000Y-104615000D01*
X131000000Y-104600000D02*
X132710000Y-104600000D01*
X130699998Y-104299998D02*
X131000000Y-104600000D01*
X129600002Y-104299998D02*
X130699998Y-104299998D01*
X129285000Y-104615000D02*
X129600002Y-104299998D01*
X127775000Y-104615000D02*
X129285000Y-104615000D01*
X132725000Y-104615000D02*
X133915000Y-104615000D01*
X133915000Y-104615000D02*
X134050000Y-104750000D01*
X123200000Y-115200000D02*
X121500000Y-113500000D01*
X124050000Y-115200000D02*
X123200000Y-115200000D01*
D28*
X115700000Y-107300000D02*
X114400000Y-106000000D01*
X116850000Y-107300000D02*
X115700000Y-107300000D01*
D29*
X115399999Y-105000001D02*
X114400000Y-106000000D01*
X126455000Y-104615000D02*
X126069999Y-105000001D01*
X127775000Y-104615000D02*
X126455000Y-104615000D01*
D28*
X116200000Y-105150000D02*
X116349999Y-105000001D01*
X116200000Y-105450000D02*
X116200000Y-105150000D01*
D29*
X116349999Y-105000001D02*
X115399999Y-105000001D01*
X126069999Y-105000001D02*
X116349999Y-105000001D01*
D28*
X113400000Y-105000000D02*
X114400000Y-106000000D01*
X113000000Y-105000000D02*
X113400000Y-105000000D01*
D29*
X121500000Y-113500000D02*
X121500000Y-112792894D01*
X121500000Y-112792894D02*
X120957106Y-112250000D01*
X120957106Y-112250000D02*
X116650000Y-112250000D01*
X108350002Y-115850002D02*
X107750000Y-115250000D01*
X116650000Y-112250000D02*
X115500001Y-113399999D01*
X115500001Y-113399999D02*
X115500001Y-114936001D01*
X115500001Y-114936001D02*
X114586000Y-115850002D01*
X114586000Y-115850002D02*
X108350002Y-115850002D01*
X107750000Y-115250000D02*
X107750000Y-113700000D01*
X107900000Y-113700000D02*
X109125010Y-112474990D01*
X107750000Y-113700000D02*
X107900000Y-113700000D01*
X113350000Y-107050000D02*
X114400000Y-106000000D01*
X113350000Y-109550000D02*
X113350000Y-107050000D01*
X111975000Y-110925000D02*
X113350000Y-109550000D01*
X110824990Y-111775010D02*
X111675000Y-110925000D01*
X111675000Y-110925000D02*
X111975000Y-110925000D01*
X110824990Y-112474990D02*
X110824990Y-111775010D01*
X110125010Y-112474990D02*
X110824990Y-111775010D01*
X109125010Y-112474990D02*
X110125010Y-112474990D01*
D28*
X101800000Y-106340000D02*
X102660000Y-106340000D01*
X102660000Y-106340000D02*
X103400000Y-105600000D01*
X103400000Y-105600000D02*
X103400000Y-104600000D01*
X103910000Y-104090000D02*
X104400000Y-104090000D01*
X103400000Y-104600000D02*
X103910000Y-104090000D01*
D29*
X101800000Y-106340000D02*
X102320000Y-106340000D01*
D28*
X109800000Y-103550000D02*
X109800000Y-104120000D01*
X109050000Y-102800000D02*
X109800000Y-103550000D01*
X105690000Y-102800000D02*
X109050000Y-102800000D01*
X104400000Y-104090000D02*
X105690000Y-102800000D01*
D29*
X101835000Y-106375000D02*
X101800000Y-106340000D01*
X105700000Y-106375000D02*
X101835000Y-106375000D01*
D28*
X113000000Y-102800000D02*
X113000000Y-104030000D01*
X118755010Y-102355010D02*
X113444990Y-102355010D01*
X119500000Y-103100000D02*
X118755010Y-102355010D01*
X119500000Y-104150000D02*
X119500000Y-103100000D01*
X119850000Y-104500000D02*
X119500000Y-104150000D01*
X125700000Y-104500000D02*
X119850000Y-104500000D01*
X126200000Y-104000000D02*
X125700000Y-104500000D01*
X128813108Y-104000000D02*
X126200000Y-104000000D01*
X129030010Y-103783098D02*
X128813108Y-104000000D01*
X129030010Y-103016882D02*
X129030010Y-103783098D01*
X113444990Y-102355010D02*
X113000000Y-102800000D01*
X128538138Y-102525010D02*
X129030010Y-103016882D01*
X127145396Y-102525010D02*
X128538138Y-102525010D01*
D29*
X104400000Y-110000000D02*
X104625000Y-109775000D01*
X103749999Y-111462133D02*
X104400000Y-110812132D01*
X104475000Y-115511002D02*
X104475000Y-114637002D01*
X103749999Y-113912001D02*
X103749999Y-111462133D01*
X105213998Y-116250000D02*
X104475000Y-115511002D01*
X104400000Y-110812132D02*
X104400000Y-110000000D01*
X104475000Y-114637002D02*
X103749999Y-113912001D01*
X106850000Y-116250000D02*
X105213998Y-116250000D01*
X105000000Y-109400000D02*
X104625000Y-109775000D01*
X105550000Y-109400000D02*
X105000000Y-109400000D01*
D28*
X105100000Y-109400000D02*
X105550000Y-109400000D01*
X104700000Y-109000000D02*
X105100000Y-109400000D01*
X104700000Y-107475000D02*
X104700000Y-109000000D01*
X105175000Y-107000000D02*
X104700000Y-107475000D01*
X106425000Y-107000000D02*
X105175000Y-107000000D01*
X107055009Y-106369991D02*
X106425000Y-107000000D01*
X110123993Y-106369991D02*
X107055009Y-106369991D01*
X111869002Y-108115000D02*
X110123993Y-106369991D01*
X112050000Y-108115000D02*
X111869002Y-108115000D01*
X116850000Y-111200000D02*
X118275600Y-111200000D01*
X122040737Y-106555261D02*
X123918253Y-106555261D01*
X118275600Y-111200000D02*
X119145599Y-110330001D01*
X119145599Y-110330001D02*
X119754401Y-110330001D01*
X123918253Y-106555261D02*
X124168252Y-106805260D01*
X119754401Y-110330001D02*
X120400000Y-109684402D01*
X120400000Y-108195998D02*
X122040737Y-106555261D01*
X120400000Y-109684402D02*
X120400000Y-108195998D01*
X124450001Y-106100001D02*
X124700000Y-106350000D01*
X121924999Y-106100001D02*
X124450001Y-106100001D01*
X119425000Y-108600000D02*
X121924999Y-106100001D01*
X116850000Y-108600000D02*
X119425000Y-108600000D01*
X104400000Y-111800000D02*
X104400000Y-113600000D01*
X114500000Y-110550000D02*
X114400000Y-110650000D01*
X116850000Y-110550000D02*
X114500000Y-110550000D01*
X112350000Y-112350000D02*
X111650000Y-112350000D01*
X114050000Y-110650000D02*
X112350000Y-112350000D01*
X114400000Y-110650000D02*
X114050000Y-110650000D01*
X116850000Y-109250000D02*
X118950000Y-109250000D01*
X118950000Y-109250000D02*
X119500000Y-109800000D01*
X116800000Y-107900000D02*
X116850000Y-107950000D01*
X114500000Y-107900000D02*
X116800000Y-107900000D01*
X114500000Y-108435000D02*
X114500000Y-107900000D01*
X115965000Y-109900000D02*
X114500000Y-108435000D01*
X116850000Y-109900000D02*
X115965000Y-109900000D01*
D27*
X125476000Y-110243000D02*
X127133000Y-110243000D01*
D28*
X125476000Y-110243000D02*
X124726000Y-110243000D01*
D29*
X129198894Y-105976842D02*
X129475726Y-105700010D01*
X129198894Y-106706106D02*
X129198894Y-105976842D01*
X129475726Y-105700010D02*
X130200000Y-105700010D01*
X128750000Y-107155000D02*
X129198894Y-106706106D01*
X127775000Y-107155000D02*
X128750000Y-107155000D01*
X137385000Y-115335000D02*
X137370000Y-115350000D01*
X137385000Y-113475000D02*
X137385000Y-115335000D01*
X137400000Y-113460000D02*
X137385000Y-113475000D01*
X137400000Y-111200000D02*
X137400000Y-113460000D01*
X127775000Y-105885000D02*
X126233368Y-105885000D01*
X126233368Y-105885000D02*
X125818347Y-106300021D01*
X109337012Y-107125000D02*
X109062012Y-106850000D01*
X109800000Y-107125000D02*
X109337012Y-107125000D01*
X108537988Y-106850000D02*
X109062012Y-106850000D01*
X108362988Y-107025000D02*
X108537988Y-106850000D01*
X107700000Y-107025000D02*
X108362988Y-107025000D01*
X109800000Y-108026392D02*
X109752785Y-108073607D01*
X109800000Y-107125000D02*
X109800000Y-108026392D01*
D27*
X131798998Y-111800000D02*
X130440000Y-111800000D01*
X132385998Y-111213000D02*
X131798998Y-111800000D01*
X132850000Y-111213000D02*
X132385998Y-111213000D01*
X132850000Y-111213000D02*
X133596980Y-111213000D01*
X133596980Y-111213000D02*
X133650097Y-111159883D01*
X133650097Y-111159892D02*
X133650097Y-111159883D01*
X133609989Y-111200000D02*
X133650097Y-111159892D01*
X107400000Y-105080000D02*
X109800000Y-105080000D01*
D28*
X108600000Y-105080000D02*
X108600000Y-105775000D01*
X113830010Y-107695083D02*
X114294140Y-107230953D01*
X113830010Y-109969990D02*
X113830010Y-107695083D01*
X112100000Y-111700000D02*
X113830010Y-109969990D01*
D29*
X131285000Y-105885000D02*
X131000000Y-105600000D01*
X132725000Y-105885000D02*
X131285000Y-105885000D01*
D28*
X108674990Y-107675000D02*
X108800000Y-107549990D01*
X105700000Y-107675000D02*
X108674990Y-107675000D01*
X118544999Y-111705001D02*
X119100000Y-111150000D01*
X114295000Y-111705001D02*
X118544999Y-111705001D01*
X113025000Y-112975001D02*
X114295000Y-111705001D01*
X113025000Y-114475000D02*
X113025000Y-112975001D01*
X112299999Y-115200001D02*
X113025000Y-114475000D01*
X110800000Y-115200001D02*
X112299999Y-115200001D01*
X136510000Y-103550000D02*
X136355598Y-103550000D01*
X134625266Y-105280332D02*
X134580332Y-105280332D01*
X136355598Y-103550000D02*
X134625266Y-105280332D01*
D29*
X141665000Y-113425000D02*
X143440000Y-115200000D01*
X139450000Y-112860001D02*
X140014999Y-113425000D01*
X139450000Y-112050000D02*
X139450000Y-112860001D01*
X137385000Y-109985000D02*
X139450000Y-112050000D01*
X140014999Y-113425000D02*
X141665000Y-113425000D01*
X137385000Y-108525000D02*
X137385000Y-109985000D01*
X140900000Y-115200000D02*
X139800000Y-115200000D01*
X139800000Y-115200000D02*
X139400000Y-114800000D01*
X138655000Y-113475000D02*
X139075000Y-113475000D01*
X139400000Y-113800000D02*
X139400000Y-114800000D01*
X139075000Y-113475000D02*
X139400000Y-113800000D01*
D28*
X134850000Y-108350000D02*
X134700000Y-108200000D01*
X134845000Y-107110476D02*
X134764780Y-107030256D01*
X134845000Y-108525000D02*
X134845000Y-107110476D01*
X125325000Y-113419730D02*
X125649710Y-113095020D01*
X125925000Y-116475000D02*
X125325000Y-115875000D01*
X132775000Y-116475000D02*
X125925000Y-116475000D01*
X133300000Y-115950000D02*
X132775000Y-116475000D01*
X125325000Y-115875000D02*
X125325000Y-113419730D01*
X133300000Y-113850000D02*
X133300000Y-115950000D01*
X133675000Y-113475000D02*
X133300000Y-113850000D01*
X134845000Y-113475000D02*
X133675000Y-113475000D01*
X132725000Y-103325000D02*
X132700000Y-103300000D01*
X132725000Y-103345000D02*
X132725000Y-103325000D01*
X133725000Y-108150000D02*
X126500000Y-108150000D01*
X134150000Y-108575000D02*
X133725000Y-108150000D01*
X134150000Y-110750000D02*
X134150000Y-108575000D01*
X135300000Y-111900000D02*
X134150000Y-110750000D01*
X126500000Y-108150000D02*
X126100000Y-108550000D01*
X135010884Y-106450001D02*
X135450523Y-106889640D01*
X125500000Y-107600000D02*
X125650000Y-107750000D01*
X134528406Y-106450001D02*
X135010884Y-106450001D01*
X133713128Y-107750000D02*
X134182213Y-107280915D01*
X125650000Y-107750000D02*
X133713128Y-107750000D01*
X134182213Y-106796194D02*
X134528406Y-106450001D01*
X134182213Y-107280915D02*
X134182213Y-106796194D01*
D31*
X105850000Y-113700000D02*
X105698998Y-113851002D01*
D29*
X105850000Y-113725000D02*
X105850000Y-112975000D01*
X105850000Y-112975000D02*
X106775000Y-112050000D01*
X106775000Y-112050000D02*
X106775000Y-110525000D01*
X106775000Y-110525000D02*
X106775000Y-110425000D01*
X106775000Y-110275000D02*
X107650000Y-109400000D01*
X106775000Y-110525000D02*
X106775000Y-110275000D01*
X108275000Y-109400000D02*
X107650000Y-109400000D01*
X108550000Y-109125000D02*
X108275000Y-109400000D01*
X109150000Y-109125000D02*
X108550000Y-109125000D01*
D28*
X110455000Y-109130000D02*
X110450000Y-109125000D01*
X110455000Y-110550000D02*
X110455000Y-109130000D01*
X112040000Y-109125000D02*
X112050000Y-109135000D01*
X110450000Y-109125000D02*
X112040000Y-109125000D01*
D32*
X134065693Y-114300000D02*
X134077785Y-114422772D01*
X134113596Y-114540825D01*
X134171750Y-114649624D01*
X134250013Y-114744987D01*
X134290522Y-114778233D01*
X134263625Y-114868387D01*
X134251935Y-114992923D01*
X134255000Y-115014250D01*
X134413750Y-115173000D01*
X135043000Y-115173000D01*
X135043000Y-115153000D01*
X135297000Y-115153000D01*
X135297000Y-115173000D01*
X135317000Y-115173000D01*
X135317000Y-115427000D01*
X135297000Y-115427000D01*
X135297000Y-116086250D01*
X135455750Y-116245000D01*
X135577348Y-116235235D01*
X135696878Y-116198377D01*
X135806921Y-116138908D01*
X135879890Y-116078462D01*
X135990000Y-116089307D01*
X136270000Y-116089307D01*
X136390821Y-116077407D01*
X136506999Y-116042165D01*
X136614069Y-115984935D01*
X136707916Y-115907916D01*
X136729483Y-115881637D01*
X136792084Y-115957916D01*
X136885931Y-116034935D01*
X136993001Y-116092165D01*
X137109179Y-116127407D01*
X137230000Y-116139307D01*
X137510000Y-116139307D01*
X137620110Y-116128462D01*
X137693079Y-116188908D01*
X137803122Y-116248377D01*
X137922652Y-116285235D01*
X138044250Y-116295000D01*
X138203000Y-116136250D01*
X138203000Y-115477000D01*
X138183000Y-115477000D01*
X138183000Y-115223000D01*
X138203000Y-115223000D01*
X138203000Y-115203000D01*
X138457000Y-115203000D01*
X138457000Y-115223000D01*
X138477000Y-115223000D01*
X138477000Y-115477000D01*
X138457000Y-115477000D01*
X138457000Y-116136250D01*
X138615750Y-116295000D01*
X138737348Y-116285235D01*
X138856878Y-116248377D01*
X138966921Y-116188908D01*
X139063247Y-116109113D01*
X139142156Y-116012059D01*
X139200614Y-115901476D01*
X139236375Y-115781613D01*
X139248065Y-115657077D01*
X139245000Y-115635750D01*
X139086252Y-115477002D01*
X139119580Y-115477002D01*
X139297769Y-115655191D01*
X139318973Y-115681027D01*
X139422059Y-115765628D01*
X139539670Y-115828492D01*
X139570693Y-115837903D01*
X139570693Y-116050000D01*
X139579903Y-116143508D01*
X139607178Y-116233423D01*
X139651471Y-116316289D01*
X139711079Y-116388921D01*
X139783066Y-116448000D01*
X133589717Y-116448000D01*
X133674511Y-116363206D01*
X133695764Y-116345764D01*
X133713207Y-116324510D01*
X133765369Y-116260951D01*
X133795537Y-116204511D01*
X133817091Y-116164186D01*
X133848941Y-116059191D01*
X133857000Y-115977364D01*
X133857000Y-115977354D01*
X133859694Y-115950001D01*
X133857000Y-115922647D01*
X133857000Y-115607077D01*
X134251935Y-115607077D01*
X134263625Y-115731613D01*
X134299386Y-115851476D01*
X134357844Y-115962059D01*
X134436753Y-116059113D01*
X134533079Y-116138908D01*
X134643122Y-116198377D01*
X134762652Y-116235235D01*
X134884250Y-116245000D01*
X135043000Y-116086250D01*
X135043000Y-115427000D01*
X134413750Y-115427000D01*
X134255000Y-115585750D01*
X134251935Y-115607077D01*
X133857000Y-115607077D01*
X133857000Y-114080716D01*
X133905717Y-114032000D01*
X134065693Y-114032000D01*
X134065693Y-114300000D01*
G04 #@! TA.AperFunction,Conductor*
D33*
G36*
X134065693Y-114300000D02*
G01*
X134077785Y-114422772D01*
X134113596Y-114540825D01*
X134171750Y-114649624D01*
X134250013Y-114744987D01*
X134290522Y-114778233D01*
X134263625Y-114868387D01*
X134251935Y-114992923D01*
X134255000Y-115014250D01*
X134413750Y-115173000D01*
X135043000Y-115173000D01*
X135043000Y-115153000D01*
X135297000Y-115153000D01*
X135297000Y-115173000D01*
X135317000Y-115173000D01*
X135317000Y-115427000D01*
X135297000Y-115427000D01*
X135297000Y-116086250D01*
X135455750Y-116245000D01*
X135577348Y-116235235D01*
X135696878Y-116198377D01*
X135806921Y-116138908D01*
X135879890Y-116078462D01*
X135990000Y-116089307D01*
X136270000Y-116089307D01*
X136390821Y-116077407D01*
X136506999Y-116042165D01*
X136614069Y-115984935D01*
X136707916Y-115907916D01*
X136729483Y-115881637D01*
X136792084Y-115957916D01*
X136885931Y-116034935D01*
X136993001Y-116092165D01*
X137109179Y-116127407D01*
X137230000Y-116139307D01*
X137510000Y-116139307D01*
X137620110Y-116128462D01*
X137693079Y-116188908D01*
X137803122Y-116248377D01*
X137922652Y-116285235D01*
X138044250Y-116295000D01*
X138203000Y-116136250D01*
X138203000Y-115477000D01*
X138183000Y-115477000D01*
X138183000Y-115223000D01*
X138203000Y-115223000D01*
X138203000Y-115203000D01*
X138457000Y-115203000D01*
X138457000Y-115223000D01*
X138477000Y-115223000D01*
X138477000Y-115477000D01*
X138457000Y-115477000D01*
X138457000Y-116136250D01*
X138615750Y-116295000D01*
X138737348Y-116285235D01*
X138856878Y-116248377D01*
X138966921Y-116188908D01*
X139063247Y-116109113D01*
X139142156Y-116012059D01*
X139200614Y-115901476D01*
X139236375Y-115781613D01*
X139248065Y-115657077D01*
X139245000Y-115635750D01*
X139086252Y-115477002D01*
X139119580Y-115477002D01*
X139297769Y-115655191D01*
X139318973Y-115681027D01*
X139422059Y-115765628D01*
X139539670Y-115828492D01*
X139570693Y-115837903D01*
X139570693Y-116050000D01*
X139579903Y-116143508D01*
X139607178Y-116233423D01*
X139651471Y-116316289D01*
X139711079Y-116388921D01*
X139783066Y-116448000D01*
X133589717Y-116448000D01*
X133674511Y-116363206D01*
X133695764Y-116345764D01*
X133713207Y-116324510D01*
X133765369Y-116260951D01*
X133795537Y-116204511D01*
X133817091Y-116164186D01*
X133848941Y-116059191D01*
X133857000Y-115977364D01*
X133857000Y-115977354D01*
X133859694Y-115950001D01*
X133857000Y-115922647D01*
X133857000Y-115607077D01*
X134251935Y-115607077D01*
X134263625Y-115731613D01*
X134299386Y-115851476D01*
X134357844Y-115962059D01*
X134436753Y-116059113D01*
X134533079Y-116138908D01*
X134643122Y-116198377D01*
X134762652Y-116235235D01*
X134884250Y-116245000D01*
X135043000Y-116086250D01*
X135043000Y-115427000D01*
X134413750Y-115427000D01*
X134255000Y-115585750D01*
X134251935Y-115607077D01*
X133857000Y-115607077D01*
X133857000Y-114080716D01*
X133905717Y-114032000D01*
X134065693Y-114032000D01*
X134065693Y-114300000D01*
G37*
G04 #@! TD.AperFunction*
D32*
X100624028Y-106968570D02*
X100769252Y-107185913D01*
X100954087Y-107370748D01*
X101171430Y-107515972D01*
X101412928Y-107616004D01*
X101669302Y-107667000D01*
X101930698Y-107667000D01*
X102187072Y-107616004D01*
X102428570Y-107515972D01*
X102645913Y-107370748D01*
X102830748Y-107185913D01*
X102920226Y-107052000D01*
X104335284Y-107052000D01*
X104325493Y-107061790D01*
X104304236Y-107079236D01*
X104234631Y-107164050D01*
X104182909Y-107260815D01*
X104151059Y-107365810D01*
X104143000Y-107447637D01*
X104143000Y-107447647D01*
X104140306Y-107475000D01*
X104143000Y-107502354D01*
X104143001Y-108745284D01*
X104133051Y-108726669D01*
X104004712Y-108570288D01*
X103848331Y-108441949D01*
X103669917Y-108346585D01*
X103476327Y-108287860D01*
X103275000Y-108268031D01*
X103073674Y-108287860D01*
X102880084Y-108346585D01*
X102701670Y-108441949D01*
X102545289Y-108570288D01*
X102416950Y-108726669D01*
X102321586Y-108905083D01*
X102262860Y-109098673D01*
X102248000Y-109249549D01*
X102248000Y-110050450D01*
X102262860Y-110201326D01*
X102321585Y-110394916D01*
X102416949Y-110573331D01*
X102545288Y-110729712D01*
X102701669Y-110858051D01*
X102880083Y-110953415D01*
X103073673Y-111012140D01*
X103230803Y-111027616D01*
X103184371Y-111084193D01*
X103121507Y-111201804D01*
X103082795Y-111329419D01*
X103069725Y-111462133D01*
X103073000Y-111495387D01*
X103072999Y-113878756D01*
X103072054Y-113888351D01*
X102880084Y-113946585D01*
X102701670Y-114041949D01*
X102545289Y-114170288D01*
X102416950Y-114326669D01*
X102321586Y-114505083D01*
X102262860Y-114698673D01*
X102248000Y-114849549D01*
X102248000Y-115650450D01*
X102262860Y-115801326D01*
X102321585Y-115994916D01*
X102416949Y-116173331D01*
X102545288Y-116329712D01*
X102689422Y-116448000D01*
X101027001Y-116448000D01*
X100913497Y-116436871D01*
X100830290Y-116411750D01*
X100753544Y-116370943D01*
X100686189Y-116316010D01*
X100630784Y-116249036D01*
X100589447Y-116172584D01*
X100563744Y-116089550D01*
X100552000Y-115977822D01*
X100552000Y-113858228D01*
X100730083Y-113953415D01*
X100923673Y-114012140D01*
X101125000Y-114031969D01*
X101326326Y-114012140D01*
X101519916Y-113953415D01*
X101698331Y-113858051D01*
X101854712Y-113729712D01*
X101983051Y-113573331D01*
X102078415Y-113394917D01*
X102137140Y-113201327D01*
X102152000Y-113050451D01*
X102152000Y-111849549D01*
X102137140Y-111698673D01*
X102078415Y-111505083D01*
X101983051Y-111326669D01*
X101854712Y-111170288D01*
X101698331Y-111041949D01*
X101519917Y-110946585D01*
X101326327Y-110887860D01*
X101125000Y-110868031D01*
X100923674Y-110887860D01*
X100730084Y-110946585D01*
X100552000Y-111041773D01*
X100552000Y-106794679D01*
X100624028Y-106968570D01*
G04 #@! TA.AperFunction,Conductor*
D33*
G36*
X100624028Y-106968570D02*
G01*
X100769252Y-107185913D01*
X100954087Y-107370748D01*
X101171430Y-107515972D01*
X101412928Y-107616004D01*
X101669302Y-107667000D01*
X101930698Y-107667000D01*
X102187072Y-107616004D01*
X102428570Y-107515972D01*
X102645913Y-107370748D01*
X102830748Y-107185913D01*
X102920226Y-107052000D01*
X104335284Y-107052000D01*
X104325493Y-107061790D01*
X104304236Y-107079236D01*
X104234631Y-107164050D01*
X104182909Y-107260815D01*
X104151059Y-107365810D01*
X104143000Y-107447637D01*
X104143000Y-107447647D01*
X104140306Y-107475000D01*
X104143000Y-107502354D01*
X104143001Y-108745284D01*
X104133051Y-108726669D01*
X104004712Y-108570288D01*
X103848331Y-108441949D01*
X103669917Y-108346585D01*
X103476327Y-108287860D01*
X103275000Y-108268031D01*
X103073674Y-108287860D01*
X102880084Y-108346585D01*
X102701670Y-108441949D01*
X102545289Y-108570288D01*
X102416950Y-108726669D01*
X102321586Y-108905083D01*
X102262860Y-109098673D01*
X102248000Y-109249549D01*
X102248000Y-110050450D01*
X102262860Y-110201326D01*
X102321585Y-110394916D01*
X102416949Y-110573331D01*
X102545288Y-110729712D01*
X102701669Y-110858051D01*
X102880083Y-110953415D01*
X103073673Y-111012140D01*
X103230803Y-111027616D01*
X103184371Y-111084193D01*
X103121507Y-111201804D01*
X103082795Y-111329419D01*
X103069725Y-111462133D01*
X103073000Y-111495387D01*
X103072999Y-113878756D01*
X103072054Y-113888351D01*
X102880084Y-113946585D01*
X102701670Y-114041949D01*
X102545289Y-114170288D01*
X102416950Y-114326669D01*
X102321586Y-114505083D01*
X102262860Y-114698673D01*
X102248000Y-114849549D01*
X102248000Y-115650450D01*
X102262860Y-115801326D01*
X102321585Y-115994916D01*
X102416949Y-116173331D01*
X102545288Y-116329712D01*
X102689422Y-116448000D01*
X101027001Y-116448000D01*
X100913497Y-116436871D01*
X100830290Y-116411750D01*
X100753544Y-116370943D01*
X100686189Y-116316010D01*
X100630784Y-116249036D01*
X100589447Y-116172584D01*
X100563744Y-116089550D01*
X100552000Y-115977822D01*
X100552000Y-113858228D01*
X100730083Y-113953415D01*
X100923673Y-114012140D01*
X101125000Y-114031969D01*
X101326326Y-114012140D01*
X101519916Y-113953415D01*
X101698331Y-113858051D01*
X101854712Y-113729712D01*
X101983051Y-113573331D01*
X102078415Y-113394917D01*
X102137140Y-113201327D01*
X102152000Y-113050451D01*
X102152000Y-111849549D01*
X102137140Y-111698673D01*
X102078415Y-111505083D01*
X101983051Y-111326669D01*
X101854712Y-111170288D01*
X101698331Y-111041949D01*
X101519917Y-110946585D01*
X101326327Y-110887860D01*
X101125000Y-110868031D01*
X100923674Y-110887860D01*
X100730084Y-110946585D01*
X100552000Y-111041773D01*
X100552000Y-106794679D01*
X100624028Y-106968570D01*
G37*
G04 #@! TD.AperFunction*
D32*
X119627000Y-115373000D02*
X119647000Y-115373000D01*
X119647000Y-115627000D01*
X119627000Y-115627000D01*
X119627000Y-115647000D01*
X119373000Y-115647000D01*
X119373000Y-115627000D01*
X119353000Y-115627000D01*
X119353000Y-115373000D01*
X119373000Y-115373000D01*
X119373000Y-115353000D01*
X119627000Y-115353000D01*
X119627000Y-115373000D01*
G04 #@! TA.AperFunction,Conductor*
D33*
G36*
X119627000Y-115373000D02*
G01*
X119647000Y-115373000D01*
X119647000Y-115627000D01*
X119627000Y-115627000D01*
X119627000Y-115647000D01*
X119373000Y-115647000D01*
X119373000Y-115627000D01*
X119353000Y-115627000D01*
X119353000Y-115373000D01*
X119373000Y-115373000D01*
X119373000Y-115353000D01*
X119627000Y-115353000D01*
X119627000Y-115373000D01*
G37*
G04 #@! TD.AperFunction*
D32*
X106927000Y-113598000D02*
X106945693Y-113598000D01*
X106945693Y-113852000D01*
X106927000Y-113852000D01*
X106927000Y-114731250D01*
X107073000Y-114877250D01*
X107073000Y-115216755D01*
X107069726Y-115250000D01*
X107073000Y-115283245D01*
X107073000Y-115283251D01*
X107077309Y-115327000D01*
X107082796Y-115382714D01*
X107121508Y-115510329D01*
X107166291Y-115594113D01*
X107062058Y-115550938D01*
X106921603Y-115523000D01*
X106778397Y-115523000D01*
X106637942Y-115550938D01*
X106584680Y-115573000D01*
X105885260Y-115573000D01*
X105888569Y-115568048D01*
X105947141Y-115426643D01*
X105977000Y-115276528D01*
X105977000Y-115123472D01*
X105947141Y-114973357D01*
X105888569Y-114831952D01*
X105823325Y-114734307D01*
X106058082Y-114734307D01*
X106120506Y-114785537D01*
X106230820Y-114844502D01*
X106350518Y-114880812D01*
X106475000Y-114893072D01*
X106514250Y-114890000D01*
X106673000Y-114731250D01*
X106673000Y-113852000D01*
X106654307Y-113852000D01*
X106654307Y-113598000D01*
X106673000Y-113598000D01*
X106673000Y-113578000D01*
X106927000Y-113578000D01*
X106927000Y-113598000D01*
G04 #@! TA.AperFunction,Conductor*
D33*
G36*
X106927000Y-113598000D02*
G01*
X106945693Y-113598000D01*
X106945693Y-113852000D01*
X106927000Y-113852000D01*
X106927000Y-114731250D01*
X107073000Y-114877250D01*
X107073000Y-115216755D01*
X107069726Y-115250000D01*
X107073000Y-115283245D01*
X107073000Y-115283251D01*
X107077309Y-115327000D01*
X107082796Y-115382714D01*
X107121508Y-115510329D01*
X107166291Y-115594113D01*
X107062058Y-115550938D01*
X106921603Y-115523000D01*
X106778397Y-115523000D01*
X106637942Y-115550938D01*
X106584680Y-115573000D01*
X105885260Y-115573000D01*
X105888569Y-115568048D01*
X105947141Y-115426643D01*
X105977000Y-115276528D01*
X105977000Y-115123472D01*
X105947141Y-114973357D01*
X105888569Y-114831952D01*
X105823325Y-114734307D01*
X106058082Y-114734307D01*
X106120506Y-114785537D01*
X106230820Y-114844502D01*
X106350518Y-114880812D01*
X106475000Y-114893072D01*
X106514250Y-114890000D01*
X106673000Y-114731250D01*
X106673000Y-113852000D01*
X106654307Y-113852000D01*
X106654307Y-113598000D01*
X106673000Y-113598000D01*
X106673000Y-113578000D01*
X106927000Y-113578000D01*
X106927000Y-113598000D01*
G37*
G04 #@! TD.AperFunction*
D32*
X131730741Y-112419364D02*
X131810302Y-112538436D01*
X131911564Y-112639698D01*
X132030636Y-112719259D01*
X132047243Y-112726138D01*
X132074386Y-112862594D01*
X132129189Y-112994900D01*
X132208750Y-113113972D01*
X132310012Y-113215234D01*
X132429084Y-113294795D01*
X132561390Y-113349598D01*
X132701845Y-113377536D01*
X132845051Y-113377536D01*
X132985506Y-113349598D01*
X133031905Y-113330379D01*
X132925493Y-113436791D01*
X132904236Y-113454236D01*
X132834631Y-113539050D01*
X132782909Y-113635815D01*
X132751059Y-113740810D01*
X132749557Y-113756062D01*
X132644482Y-113724188D01*
X132520000Y-113711928D01*
X131955750Y-113715000D01*
X131797000Y-113873750D01*
X131797000Y-115073000D01*
X131817000Y-115073000D01*
X131817000Y-115327000D01*
X131797000Y-115327000D01*
X131797000Y-115347000D01*
X131543000Y-115347000D01*
X131543000Y-115327000D01*
X131523000Y-115327000D01*
X131523000Y-115073000D01*
X131543000Y-115073000D01*
X131543000Y-113873750D01*
X131384250Y-113715000D01*
X130820000Y-113711928D01*
X130695518Y-113724188D01*
X130575820Y-113760498D01*
X130465506Y-113819463D01*
X130368815Y-113898815D01*
X130289463Y-113995506D01*
X130230498Y-114105820D01*
X130194188Y-114225518D01*
X130181928Y-114350000D01*
X130182124Y-114386079D01*
X130160748Y-114354087D01*
X129975913Y-114169252D01*
X129758570Y-114024028D01*
X129517072Y-113923996D01*
X129260698Y-113873000D01*
X128999302Y-113873000D01*
X128742928Y-113923996D01*
X128501430Y-114024028D01*
X128284087Y-114169252D01*
X128099252Y-114354087D01*
X127954028Y-114571430D01*
X127943836Y-114596035D01*
X127934157Y-114568748D01*
X127785178Y-114318645D01*
X127590269Y-114102412D01*
X127356920Y-113928359D01*
X127094099Y-113803175D01*
X126946890Y-113758524D01*
X126717000Y-113879845D01*
X126717000Y-115073000D01*
X126737000Y-115073000D01*
X126737000Y-115327000D01*
X126717000Y-115327000D01*
X126717000Y-115347000D01*
X126463000Y-115347000D01*
X126463000Y-115327000D01*
X126443000Y-115327000D01*
X126443000Y-115073000D01*
X126463000Y-115073000D01*
X126463000Y-113879845D01*
X126233110Y-113758524D01*
X126085901Y-113803175D01*
X125882000Y-113900295D01*
X125882000Y-113785702D01*
X125994074Y-113739279D01*
X126113146Y-113659718D01*
X126214408Y-113558456D01*
X126293969Y-113439384D01*
X126348772Y-113307078D01*
X126376710Y-113166623D01*
X126376710Y-113087853D01*
X126854250Y-113085000D01*
X127012998Y-112926252D01*
X127012998Y-113085000D01*
X127048000Y-113085000D01*
X127048000Y-113121603D01*
X127075938Y-113262058D01*
X127130741Y-113394364D01*
X127210302Y-113513436D01*
X127311564Y-113614698D01*
X127430636Y-113694259D01*
X127562942Y-113749062D01*
X127703397Y-113777000D01*
X127846603Y-113777000D01*
X127987058Y-113749062D01*
X128119364Y-113694259D01*
X128194259Y-113644216D01*
X128243333Y-113677006D01*
X128375639Y-113731809D01*
X128516094Y-113759747D01*
X128659300Y-113759747D01*
X128799755Y-113731809D01*
X128932061Y-113677006D01*
X128943156Y-113669593D01*
X128981772Y-113695395D01*
X129114078Y-113750198D01*
X129254533Y-113778136D01*
X129397739Y-113778136D01*
X129538194Y-113750198D01*
X129670500Y-113695395D01*
X129682710Y-113687236D01*
X129730636Y-113719259D01*
X129862942Y-113774062D01*
X130003397Y-113802000D01*
X130146603Y-113802000D01*
X130287058Y-113774062D01*
X130419364Y-113719259D01*
X130538436Y-113639698D01*
X130639698Y-113538436D01*
X130719259Y-113419364D01*
X130774062Y-113287058D01*
X130802000Y-113146603D01*
X130802000Y-113003397D01*
X130787263Y-112929307D01*
X131240000Y-112929307D01*
X131333508Y-112920097D01*
X131423423Y-112892822D01*
X131506289Y-112848529D01*
X131578921Y-112788921D01*
X131638529Y-112716289D01*
X131682822Y-112633423D01*
X131710097Y-112543508D01*
X131719307Y-112450000D01*
X131719307Y-112402000D01*
X131723549Y-112402000D01*
X131730741Y-112419364D01*
G04 #@! TA.AperFunction,Conductor*
D33*
G36*
X131730741Y-112419364D02*
G01*
X131810302Y-112538436D01*
X131911564Y-112639698D01*
X132030636Y-112719259D01*
X132047243Y-112726138D01*
X132074386Y-112862594D01*
X132129189Y-112994900D01*
X132208750Y-113113972D01*
X132310012Y-113215234D01*
X132429084Y-113294795D01*
X132561390Y-113349598D01*
X132701845Y-113377536D01*
X132845051Y-113377536D01*
X132985506Y-113349598D01*
X133031905Y-113330379D01*
X132925493Y-113436791D01*
X132904236Y-113454236D01*
X132834631Y-113539050D01*
X132782909Y-113635815D01*
X132751059Y-113740810D01*
X132749557Y-113756062D01*
X132644482Y-113724188D01*
X132520000Y-113711928D01*
X131955750Y-113715000D01*
X131797000Y-113873750D01*
X131797000Y-115073000D01*
X131817000Y-115073000D01*
X131817000Y-115327000D01*
X131797000Y-115327000D01*
X131797000Y-115347000D01*
X131543000Y-115347000D01*
X131543000Y-115327000D01*
X131523000Y-115327000D01*
X131523000Y-115073000D01*
X131543000Y-115073000D01*
X131543000Y-113873750D01*
X131384250Y-113715000D01*
X130820000Y-113711928D01*
X130695518Y-113724188D01*
X130575820Y-113760498D01*
X130465506Y-113819463D01*
X130368815Y-113898815D01*
X130289463Y-113995506D01*
X130230498Y-114105820D01*
X130194188Y-114225518D01*
X130181928Y-114350000D01*
X130182124Y-114386079D01*
X130160748Y-114354087D01*
X129975913Y-114169252D01*
X129758570Y-114024028D01*
X129517072Y-113923996D01*
X129260698Y-113873000D01*
X128999302Y-113873000D01*
X128742928Y-113923996D01*
X128501430Y-114024028D01*
X128284087Y-114169252D01*
X128099252Y-114354087D01*
X127954028Y-114571430D01*
X127943836Y-114596035D01*
X127934157Y-114568748D01*
X127785178Y-114318645D01*
X127590269Y-114102412D01*
X127356920Y-113928359D01*
X127094099Y-113803175D01*
X126946890Y-113758524D01*
X126717000Y-113879845D01*
X126717000Y-115073000D01*
X126737000Y-115073000D01*
X126737000Y-115327000D01*
X126717000Y-115327000D01*
X126717000Y-115347000D01*
X126463000Y-115347000D01*
X126463000Y-115327000D01*
X126443000Y-115327000D01*
X126443000Y-115073000D01*
X126463000Y-115073000D01*
X126463000Y-113879845D01*
X126233110Y-113758524D01*
X126085901Y-113803175D01*
X125882000Y-113900295D01*
X125882000Y-113785702D01*
X125994074Y-113739279D01*
X126113146Y-113659718D01*
X126214408Y-113558456D01*
X126293969Y-113439384D01*
X126348772Y-113307078D01*
X126376710Y-113166623D01*
X126376710Y-113087853D01*
X126854250Y-113085000D01*
X127012998Y-112926252D01*
X127012998Y-113085000D01*
X127048000Y-113085000D01*
X127048000Y-113121603D01*
X127075938Y-113262058D01*
X127130741Y-113394364D01*
X127210302Y-113513436D01*
X127311564Y-113614698D01*
X127430636Y-113694259D01*
X127562942Y-113749062D01*
X127703397Y-113777000D01*
X127846603Y-113777000D01*
X127987058Y-113749062D01*
X128119364Y-113694259D01*
X128194259Y-113644216D01*
X128243333Y-113677006D01*
X128375639Y-113731809D01*
X128516094Y-113759747D01*
X128659300Y-113759747D01*
X128799755Y-113731809D01*
X128932061Y-113677006D01*
X128943156Y-113669593D01*
X128981772Y-113695395D01*
X129114078Y-113750198D01*
X129254533Y-113778136D01*
X129397739Y-113778136D01*
X129538194Y-113750198D01*
X129670500Y-113695395D01*
X129682710Y-113687236D01*
X129730636Y-113719259D01*
X129862942Y-113774062D01*
X130003397Y-113802000D01*
X130146603Y-113802000D01*
X130287058Y-113774062D01*
X130419364Y-113719259D01*
X130538436Y-113639698D01*
X130639698Y-113538436D01*
X130719259Y-113419364D01*
X130774062Y-113287058D01*
X130802000Y-113146603D01*
X130802000Y-113003397D01*
X130787263Y-112929307D01*
X131240000Y-112929307D01*
X131333508Y-112920097D01*
X131423423Y-112892822D01*
X131506289Y-112848529D01*
X131578921Y-112788921D01*
X131638529Y-112716289D01*
X131682822Y-112633423D01*
X131710097Y-112543508D01*
X131719307Y-112450000D01*
X131719307Y-112402000D01*
X131723549Y-112402000D01*
X131730741Y-112419364D01*
G37*
G04 #@! TD.AperFunction*
D32*
X110177000Y-113473000D02*
X110197000Y-113473000D01*
X110197000Y-113727000D01*
X110177000Y-113727000D01*
X110177000Y-114801250D01*
X110186040Y-114810290D01*
X110155741Y-114855637D01*
X110100938Y-114987943D01*
X110073000Y-115128398D01*
X110073000Y-115173002D01*
X108630425Y-115173002D01*
X108427000Y-114969578D01*
X108427000Y-114577984D01*
X108473529Y-114521289D01*
X108517822Y-114438423D01*
X108545097Y-114348508D01*
X108554307Y-114255000D01*
X108554307Y-114003115D01*
X108915000Y-113642423D01*
X108915000Y-113727002D01*
X109073748Y-113727002D01*
X108915000Y-113885750D01*
X108911928Y-114325000D01*
X108924188Y-114449482D01*
X108960498Y-114569180D01*
X109019463Y-114679494D01*
X109098815Y-114776185D01*
X109195506Y-114855537D01*
X109305820Y-114914502D01*
X109425518Y-114950812D01*
X109550000Y-114963072D01*
X109764250Y-114960000D01*
X109923000Y-114801250D01*
X109923000Y-113727000D01*
X109903000Y-113727000D01*
X109903000Y-113473000D01*
X109923000Y-113473000D01*
X109923000Y-113453000D01*
X110177000Y-113453000D01*
X110177000Y-113473000D01*
G04 #@! TA.AperFunction,Conductor*
D33*
G36*
X110177000Y-113473000D02*
G01*
X110197000Y-113473000D01*
X110197000Y-113727000D01*
X110177000Y-113727000D01*
X110177000Y-114801250D01*
X110186040Y-114810290D01*
X110155741Y-114855637D01*
X110100938Y-114987943D01*
X110073000Y-115128398D01*
X110073000Y-115173002D01*
X108630425Y-115173002D01*
X108427000Y-114969578D01*
X108427000Y-114577984D01*
X108473529Y-114521289D01*
X108517822Y-114438423D01*
X108545097Y-114348508D01*
X108554307Y-114255000D01*
X108554307Y-114003115D01*
X108915000Y-113642423D01*
X108915000Y-113727002D01*
X109073748Y-113727002D01*
X108915000Y-113885750D01*
X108911928Y-114325000D01*
X108924188Y-114449482D01*
X108960498Y-114569180D01*
X109019463Y-114679494D01*
X109098815Y-114776185D01*
X109195506Y-114855537D01*
X109305820Y-114914502D01*
X109425518Y-114950812D01*
X109550000Y-114963072D01*
X109764250Y-114960000D01*
X109923000Y-114801250D01*
X109923000Y-113727000D01*
X109903000Y-113727000D01*
X109903000Y-113473000D01*
X109923000Y-113473000D01*
X109923000Y-113453000D01*
X110177000Y-113453000D01*
X110177000Y-113473000D01*
G37*
G04 #@! TD.AperFunction*
D32*
X121545693Y-110097767D02*
X121453164Y-110097767D01*
X121312709Y-110125705D01*
X121180403Y-110180508D01*
X121061331Y-110260069D01*
X120960069Y-110361331D01*
X120880508Y-110480403D01*
X120825705Y-110612709D01*
X120797767Y-110753164D01*
X120797767Y-110896370D01*
X120825705Y-111036825D01*
X120880508Y-111169131D01*
X120960069Y-111288203D01*
X121061331Y-111389465D01*
X121180403Y-111469026D01*
X121312709Y-111523829D01*
X121399196Y-111541032D01*
X121401156Y-111558996D01*
X121439285Y-111678127D01*
X121499922Y-111787531D01*
X121580737Y-111883003D01*
X121678625Y-111960874D01*
X121789825Y-112018151D01*
X121910061Y-112052634D01*
X122034715Y-112062998D01*
X122464250Y-112060000D01*
X122623000Y-111901250D01*
X122623000Y-111298000D01*
X122603000Y-111298000D01*
X122603000Y-111254307D01*
X123475000Y-111254307D01*
X123568508Y-111245097D01*
X123658423Y-111217822D01*
X123741289Y-111173529D01*
X123813921Y-111113921D01*
X123823704Y-111102000D01*
X123951250Y-111102000D01*
X123967250Y-111086000D01*
X124599000Y-111086000D01*
X124599000Y-111066000D01*
X124853000Y-111066000D01*
X124853000Y-111086000D01*
X125522250Y-111086000D01*
X125660758Y-110947492D01*
X125688058Y-110942062D01*
X125746897Y-110917690D01*
X125714188Y-111025518D01*
X125701928Y-111150000D01*
X125705000Y-111514250D01*
X125863750Y-111673000D01*
X127013000Y-111673000D01*
X127013000Y-111653000D01*
X127267000Y-111653000D01*
X127267000Y-111673000D01*
X127287000Y-111673000D01*
X127287000Y-111927000D01*
X127267000Y-111927000D01*
X127267000Y-111947000D01*
X127013000Y-111947000D01*
X127013000Y-111927000D01*
X125863750Y-111927000D01*
X125834668Y-111956083D01*
X125788657Y-111910072D01*
X125669585Y-111830511D01*
X125607401Y-111804753D01*
X125635502Y-111752180D01*
X125671812Y-111632482D01*
X125684072Y-111508000D01*
X125681000Y-111498750D01*
X125522250Y-111340000D01*
X124853000Y-111340000D01*
X124853000Y-111360000D01*
X124599000Y-111360000D01*
X124599000Y-111340000D01*
X123993250Y-111340000D01*
X123951250Y-111298000D01*
X122877000Y-111298000D01*
X122877000Y-111901250D01*
X123035750Y-112060000D01*
X123465285Y-112062998D01*
X123589939Y-112052634D01*
X123710175Y-112018151D01*
X123821375Y-111960874D01*
X123902947Y-111895983D01*
X123954815Y-111959185D01*
X124051506Y-112038537D01*
X124161820Y-112097502D01*
X124281518Y-112133812D01*
X124406000Y-112146072D01*
X124440250Y-112143000D01*
X124598998Y-111984252D01*
X124598998Y-112143000D01*
X124675745Y-112143000D01*
X124626159Y-112262712D01*
X124598221Y-112403167D01*
X124598221Y-112546373D01*
X124626159Y-112686828D01*
X124680962Y-112819134D01*
X124760523Y-112938206D01*
X124861785Y-113039468D01*
X124897132Y-113063086D01*
X124859631Y-113108780D01*
X124807910Y-113205544D01*
X124776060Y-113310539D01*
X124769908Y-113373000D01*
X124765306Y-113419730D01*
X124768001Y-113447093D01*
X124768001Y-114083784D01*
X124678570Y-114024028D01*
X124437072Y-113923996D01*
X124180698Y-113873000D01*
X123919302Y-113873000D01*
X123662928Y-113923996D01*
X123421430Y-114024028D01*
X123204087Y-114169252D01*
X123165381Y-114207959D01*
X122477000Y-113519578D01*
X122477000Y-113403774D01*
X122439454Y-113215020D01*
X122365806Y-113037217D01*
X122258885Y-112877199D01*
X122179763Y-112798077D01*
X122180274Y-112792893D01*
X122177000Y-112759651D01*
X122177000Y-112759642D01*
X122167204Y-112660179D01*
X122128492Y-112532564D01*
X122065628Y-112414953D01*
X121981027Y-112311867D01*
X121955196Y-112290668D01*
X121459332Y-111794804D01*
X121438133Y-111768973D01*
X121335047Y-111684372D01*
X121217436Y-111621508D01*
X121089821Y-111582796D01*
X120990358Y-111573000D01*
X120990351Y-111573000D01*
X120957106Y-111569726D01*
X120923861Y-111573000D01*
X119691716Y-111573000D01*
X119744259Y-111494364D01*
X119799062Y-111362058D01*
X119827000Y-111221603D01*
X119827000Y-111078397D01*
X119799062Y-110937942D01*
X119778110Y-110887360D01*
X119781754Y-110887001D01*
X119781765Y-110887001D01*
X119863592Y-110878942D01*
X119968587Y-110847092D01*
X120065351Y-110795370D01*
X120150165Y-110725765D01*
X120167611Y-110704507D01*
X120774511Y-110097608D01*
X120795764Y-110080166D01*
X120813372Y-110058711D01*
X120838200Y-110028458D01*
X120887942Y-110049062D01*
X121028397Y-110077000D01*
X121171603Y-110077000D01*
X121312058Y-110049062D01*
X121444364Y-109994259D01*
X121545693Y-109926553D01*
X121545693Y-110097767D01*
G04 #@! TA.AperFunction,Conductor*
D33*
G36*
X121545693Y-110097767D02*
G01*
X121453164Y-110097767D01*
X121312709Y-110125705D01*
X121180403Y-110180508D01*
X121061331Y-110260069D01*
X120960069Y-110361331D01*
X120880508Y-110480403D01*
X120825705Y-110612709D01*
X120797767Y-110753164D01*
X120797767Y-110896370D01*
X120825705Y-111036825D01*
X120880508Y-111169131D01*
X120960069Y-111288203D01*
X121061331Y-111389465D01*
X121180403Y-111469026D01*
X121312709Y-111523829D01*
X121399196Y-111541032D01*
X121401156Y-111558996D01*
X121439285Y-111678127D01*
X121499922Y-111787531D01*
X121580737Y-111883003D01*
X121678625Y-111960874D01*
X121789825Y-112018151D01*
X121910061Y-112052634D01*
X122034715Y-112062998D01*
X122464250Y-112060000D01*
X122623000Y-111901250D01*
X122623000Y-111298000D01*
X122603000Y-111298000D01*
X122603000Y-111254307D01*
X123475000Y-111254307D01*
X123568508Y-111245097D01*
X123658423Y-111217822D01*
X123741289Y-111173529D01*
X123813921Y-111113921D01*
X123823704Y-111102000D01*
X123951250Y-111102000D01*
X123967250Y-111086000D01*
X124599000Y-111086000D01*
X124599000Y-111066000D01*
X124853000Y-111066000D01*
X124853000Y-111086000D01*
X125522250Y-111086000D01*
X125660758Y-110947492D01*
X125688058Y-110942062D01*
X125746897Y-110917690D01*
X125714188Y-111025518D01*
X125701928Y-111150000D01*
X125705000Y-111514250D01*
X125863750Y-111673000D01*
X127013000Y-111673000D01*
X127013000Y-111653000D01*
X127267000Y-111653000D01*
X127267000Y-111673000D01*
X127287000Y-111673000D01*
X127287000Y-111927000D01*
X127267000Y-111927000D01*
X127267000Y-111947000D01*
X127013000Y-111947000D01*
X127013000Y-111927000D01*
X125863750Y-111927000D01*
X125834668Y-111956083D01*
X125788657Y-111910072D01*
X125669585Y-111830511D01*
X125607401Y-111804753D01*
X125635502Y-111752180D01*
X125671812Y-111632482D01*
X125684072Y-111508000D01*
X125681000Y-111498750D01*
X125522250Y-111340000D01*
X124853000Y-111340000D01*
X124853000Y-111360000D01*
X124599000Y-111360000D01*
X124599000Y-111340000D01*
X123993250Y-111340000D01*
X123951250Y-111298000D01*
X122877000Y-111298000D01*
X122877000Y-111901250D01*
X123035750Y-112060000D01*
X123465285Y-112062998D01*
X123589939Y-112052634D01*
X123710175Y-112018151D01*
X123821375Y-111960874D01*
X123902947Y-111895983D01*
X123954815Y-111959185D01*
X124051506Y-112038537D01*
X124161820Y-112097502D01*
X124281518Y-112133812D01*
X124406000Y-112146072D01*
X124440250Y-112143000D01*
X124598998Y-111984252D01*
X124598998Y-112143000D01*
X124675745Y-112143000D01*
X124626159Y-112262712D01*
X124598221Y-112403167D01*
X124598221Y-112546373D01*
X124626159Y-112686828D01*
X124680962Y-112819134D01*
X124760523Y-112938206D01*
X124861785Y-113039468D01*
X124897132Y-113063086D01*
X124859631Y-113108780D01*
X124807910Y-113205544D01*
X124776060Y-113310539D01*
X124769908Y-113373000D01*
X124765306Y-113419730D01*
X124768001Y-113447093D01*
X124768001Y-114083784D01*
X124678570Y-114024028D01*
X124437072Y-113923996D01*
X124180698Y-113873000D01*
X123919302Y-113873000D01*
X123662928Y-113923996D01*
X123421430Y-114024028D01*
X123204087Y-114169252D01*
X123165381Y-114207959D01*
X122477000Y-113519578D01*
X122477000Y-113403774D01*
X122439454Y-113215020D01*
X122365806Y-113037217D01*
X122258885Y-112877199D01*
X122179763Y-112798077D01*
X122180274Y-112792893D01*
X122177000Y-112759651D01*
X122177000Y-112759642D01*
X122167204Y-112660179D01*
X122128492Y-112532564D01*
X122065628Y-112414953D01*
X121981027Y-112311867D01*
X121955196Y-112290668D01*
X121459332Y-111794804D01*
X121438133Y-111768973D01*
X121335047Y-111684372D01*
X121217436Y-111621508D01*
X121089821Y-111582796D01*
X120990358Y-111573000D01*
X120990351Y-111573000D01*
X120957106Y-111569726D01*
X120923861Y-111573000D01*
X119691716Y-111573000D01*
X119744259Y-111494364D01*
X119799062Y-111362058D01*
X119827000Y-111221603D01*
X119827000Y-111078397D01*
X119799062Y-110937942D01*
X119778110Y-110887360D01*
X119781754Y-110887001D01*
X119781765Y-110887001D01*
X119863592Y-110878942D01*
X119968587Y-110847092D01*
X120065351Y-110795370D01*
X120150165Y-110725765D01*
X120167611Y-110704507D01*
X120774511Y-110097608D01*
X120795764Y-110080166D01*
X120813372Y-110058711D01*
X120838200Y-110028458D01*
X120887942Y-110049062D01*
X121028397Y-110077000D01*
X121171603Y-110077000D01*
X121312058Y-110049062D01*
X121444364Y-109994259D01*
X121545693Y-109926553D01*
X121545693Y-110097767D01*
G37*
G04 #@! TD.AperFunction*
D32*
X120357000Y-113373000D02*
X120377000Y-113373000D01*
X120377000Y-113627000D01*
X120357000Y-113627000D01*
X120357000Y-113647000D01*
X120103000Y-113647000D01*
X120103000Y-113627000D01*
X120083000Y-113627000D01*
X120083000Y-113373000D01*
X120103000Y-113373000D01*
X120103000Y-113353000D01*
X120357000Y-113353000D01*
X120357000Y-113373000D01*
G04 #@! TA.AperFunction,Conductor*
D33*
G36*
X120357000Y-113373000D02*
G01*
X120377000Y-113373000D01*
X120377000Y-113627000D01*
X120357000Y-113627000D01*
X120357000Y-113647000D01*
X120103000Y-113647000D01*
X120103000Y-113627000D01*
X120083000Y-113627000D01*
X120083000Y-113373000D01*
X120103000Y-113373000D01*
X120103000Y-113353000D01*
X120357000Y-113353000D01*
X120357000Y-113373000D01*
G37*
G04 #@! TD.AperFunction*
D32*
X107331492Y-112525097D02*
X107425000Y-112534307D01*
X108075000Y-112534307D01*
X108111905Y-112530672D01*
X107926885Y-112715693D01*
X107541918Y-112715693D01*
X107479494Y-112664463D01*
X107369180Y-112605498D01*
X107249482Y-112569188D01*
X107216485Y-112565938D01*
X107230205Y-112552218D01*
X107256026Y-112531027D01*
X107274965Y-112507950D01*
X107331492Y-112525097D01*
G04 #@! TA.AperFunction,Conductor*
D33*
G36*
X107331492Y-112525097D02*
G01*
X107425000Y-112534307D01*
X108075000Y-112534307D01*
X108111905Y-112530672D01*
X107926885Y-112715693D01*
X107541918Y-112715693D01*
X107479494Y-112664463D01*
X107369180Y-112605498D01*
X107249482Y-112569188D01*
X107216485Y-112565938D01*
X107230205Y-112552218D01*
X107256026Y-112531027D01*
X107274965Y-112507950D01*
X107331492Y-112525097D01*
G37*
G04 #@! TD.AperFunction*
D32*
X108624386Y-109998524D02*
X108588625Y-110118387D01*
X108576935Y-110242923D01*
X108580000Y-110264250D01*
X108738750Y-110423000D01*
X109368000Y-110423000D01*
X109368000Y-110403000D01*
X109622000Y-110403000D01*
X109622000Y-110423000D01*
X109642000Y-110423000D01*
X109642000Y-110677000D01*
X109622000Y-110677000D01*
X109622000Y-111336250D01*
X109780750Y-111495000D01*
X109902348Y-111485235D01*
X110021878Y-111448377D01*
X110131921Y-111388908D01*
X110204890Y-111328462D01*
X110304323Y-111338255D01*
X109844588Y-111797990D01*
X109158262Y-111797990D01*
X109125010Y-111794715D01*
X108992295Y-111807786D01*
X108864680Y-111846498D01*
X108747069Y-111909362D01*
X108671229Y-111971603D01*
X108643983Y-111993963D01*
X108622788Y-112019789D01*
X108550672Y-112091905D01*
X108554307Y-112055000D01*
X108554307Y-110995000D01*
X108545097Y-110901492D01*
X108531625Y-110857077D01*
X108576935Y-110857077D01*
X108588625Y-110981613D01*
X108624386Y-111101476D01*
X108682844Y-111212059D01*
X108761753Y-111309113D01*
X108858079Y-111388908D01*
X108968122Y-111448377D01*
X109087652Y-111485235D01*
X109209250Y-111495000D01*
X109368000Y-111336250D01*
X109368000Y-110677000D01*
X108738750Y-110677000D01*
X108580000Y-110835750D01*
X108576935Y-110857077D01*
X108531625Y-110857077D01*
X108517822Y-110811577D01*
X108473529Y-110728711D01*
X108413921Y-110656079D01*
X108341289Y-110596471D01*
X108258423Y-110552178D01*
X108168508Y-110524903D01*
X108075000Y-110515693D01*
X107491729Y-110515693D01*
X107903116Y-110104307D01*
X107950000Y-110104307D01*
X108043508Y-110095097D01*
X108103167Y-110077000D01*
X108241755Y-110077000D01*
X108275000Y-110080274D01*
X108308245Y-110077000D01*
X108308252Y-110077000D01*
X108407715Y-110067204D01*
X108535330Y-110028492D01*
X108637379Y-109973946D01*
X108624386Y-109998524D01*
G04 #@! TA.AperFunction,Conductor*
D33*
G36*
X108624386Y-109998524D02*
G01*
X108588625Y-110118387D01*
X108576935Y-110242923D01*
X108580000Y-110264250D01*
X108738750Y-110423000D01*
X109368000Y-110423000D01*
X109368000Y-110403000D01*
X109622000Y-110403000D01*
X109622000Y-110423000D01*
X109642000Y-110423000D01*
X109642000Y-110677000D01*
X109622000Y-110677000D01*
X109622000Y-111336250D01*
X109780750Y-111495000D01*
X109902348Y-111485235D01*
X110021878Y-111448377D01*
X110131921Y-111388908D01*
X110204890Y-111328462D01*
X110304323Y-111338255D01*
X109844588Y-111797990D01*
X109158262Y-111797990D01*
X109125010Y-111794715D01*
X108992295Y-111807786D01*
X108864680Y-111846498D01*
X108747069Y-111909362D01*
X108671229Y-111971603D01*
X108643983Y-111993963D01*
X108622788Y-112019789D01*
X108550672Y-112091905D01*
X108554307Y-112055000D01*
X108554307Y-110995000D01*
X108545097Y-110901492D01*
X108531625Y-110857077D01*
X108576935Y-110857077D01*
X108588625Y-110981613D01*
X108624386Y-111101476D01*
X108682844Y-111212059D01*
X108761753Y-111309113D01*
X108858079Y-111388908D01*
X108968122Y-111448377D01*
X109087652Y-111485235D01*
X109209250Y-111495000D01*
X109368000Y-111336250D01*
X109368000Y-110677000D01*
X108738750Y-110677000D01*
X108580000Y-110835750D01*
X108576935Y-110857077D01*
X108531625Y-110857077D01*
X108517822Y-110811577D01*
X108473529Y-110728711D01*
X108413921Y-110656079D01*
X108341289Y-110596471D01*
X108258423Y-110552178D01*
X108168508Y-110524903D01*
X108075000Y-110515693D01*
X107491729Y-110515693D01*
X107903116Y-110104307D01*
X107950000Y-110104307D01*
X108043508Y-110095097D01*
X108103167Y-110077000D01*
X108241755Y-110077000D01*
X108275000Y-110080274D01*
X108308245Y-110077000D01*
X108308252Y-110077000D01*
X108407715Y-110067204D01*
X108535330Y-110028492D01*
X108637379Y-109973946D01*
X108624386Y-109998524D01*
G37*
G04 #@! TD.AperFunction*
D32*
X129109463Y-108795506D02*
X129050498Y-108905820D01*
X129014188Y-109025518D01*
X129001928Y-109150000D01*
X129005000Y-109514250D01*
X129163750Y-109673000D01*
X130313000Y-109673000D01*
X130313000Y-109653000D01*
X130567000Y-109653000D01*
X130567000Y-109673000D01*
X131716250Y-109673000D01*
X131851454Y-109537796D01*
X131895662Y-109644522D01*
X131938870Y-109709187D01*
X131904188Y-109823518D01*
X131891928Y-109948000D01*
X131895000Y-109957250D01*
X132053750Y-110116000D01*
X132723000Y-110116000D01*
X132723000Y-110096000D01*
X132977000Y-110096000D01*
X132977000Y-110116000D01*
X132997000Y-110116000D01*
X132997000Y-110370000D01*
X132977000Y-110370000D01*
X132977000Y-110390000D01*
X132723000Y-110390000D01*
X132723000Y-110370000D01*
X132053750Y-110370000D01*
X131895000Y-110528750D01*
X131891928Y-110538000D01*
X131904188Y-110662482D01*
X131940498Y-110782180D01*
X131948502Y-110797154D01*
X131939418Y-110808223D01*
X131705687Y-111041955D01*
X131682822Y-110966577D01*
X131661077Y-110925894D01*
X131691185Y-110901185D01*
X131770537Y-110804494D01*
X131829502Y-110694180D01*
X131865812Y-110574482D01*
X131878072Y-110450000D01*
X131875000Y-110085750D01*
X131716250Y-109927000D01*
X130567000Y-109927000D01*
X130567000Y-109947000D01*
X130313000Y-109947000D01*
X130313000Y-109927000D01*
X129163750Y-109927000D01*
X129005000Y-110085750D01*
X129001928Y-110450000D01*
X129014188Y-110574482D01*
X129050498Y-110694180D01*
X129109463Y-110804494D01*
X129188815Y-110901185D01*
X129218923Y-110925894D01*
X129197178Y-110966577D01*
X129169903Y-111056492D01*
X129160693Y-111150000D01*
X129160693Y-111732363D01*
X129152045Y-111728781D01*
X129011590Y-111700843D01*
X128868384Y-111700843D01*
X128727929Y-111728781D01*
X128595623Y-111783584D01*
X128575000Y-111797364D01*
X128575000Y-111672998D01*
X128416252Y-111672998D01*
X128575000Y-111514250D01*
X128578072Y-111150000D01*
X128565812Y-111025518D01*
X128529502Y-110905820D01*
X128470537Y-110795506D01*
X128391185Y-110698815D01*
X128361077Y-110674106D01*
X128382822Y-110633423D01*
X128410097Y-110543508D01*
X128419307Y-110450000D01*
X128419307Y-109150000D01*
X128410097Y-109056492D01*
X128382822Y-108966577D01*
X128338529Y-108883711D01*
X128278921Y-108811079D01*
X128206289Y-108751471D01*
X128123423Y-108707178D01*
X128122836Y-108707000D01*
X129182098Y-108707000D01*
X129109463Y-108795506D01*
G04 #@! TA.AperFunction,Conductor*
D33*
G36*
X129109463Y-108795506D02*
G01*
X129050498Y-108905820D01*
X129014188Y-109025518D01*
X129001928Y-109150000D01*
X129005000Y-109514250D01*
X129163750Y-109673000D01*
X130313000Y-109673000D01*
X130313000Y-109653000D01*
X130567000Y-109653000D01*
X130567000Y-109673000D01*
X131716250Y-109673000D01*
X131851454Y-109537796D01*
X131895662Y-109644522D01*
X131938870Y-109709187D01*
X131904188Y-109823518D01*
X131891928Y-109948000D01*
X131895000Y-109957250D01*
X132053750Y-110116000D01*
X132723000Y-110116000D01*
X132723000Y-110096000D01*
X132977000Y-110096000D01*
X132977000Y-110116000D01*
X132997000Y-110116000D01*
X132997000Y-110370000D01*
X132977000Y-110370000D01*
X132977000Y-110390000D01*
X132723000Y-110390000D01*
X132723000Y-110370000D01*
X132053750Y-110370000D01*
X131895000Y-110528750D01*
X131891928Y-110538000D01*
X131904188Y-110662482D01*
X131940498Y-110782180D01*
X131948502Y-110797154D01*
X131939418Y-110808223D01*
X131705687Y-111041955D01*
X131682822Y-110966577D01*
X131661077Y-110925894D01*
X131691185Y-110901185D01*
X131770537Y-110804494D01*
X131829502Y-110694180D01*
X131865812Y-110574482D01*
X131878072Y-110450000D01*
X131875000Y-110085750D01*
X131716250Y-109927000D01*
X130567000Y-109927000D01*
X130567000Y-109947000D01*
X130313000Y-109947000D01*
X130313000Y-109927000D01*
X129163750Y-109927000D01*
X129005000Y-110085750D01*
X129001928Y-110450000D01*
X129014188Y-110574482D01*
X129050498Y-110694180D01*
X129109463Y-110804494D01*
X129188815Y-110901185D01*
X129218923Y-110925894D01*
X129197178Y-110966577D01*
X129169903Y-111056492D01*
X129160693Y-111150000D01*
X129160693Y-111732363D01*
X129152045Y-111728781D01*
X129011590Y-111700843D01*
X128868384Y-111700843D01*
X128727929Y-111728781D01*
X128595623Y-111783584D01*
X128575000Y-111797364D01*
X128575000Y-111672998D01*
X128416252Y-111672998D01*
X128575000Y-111514250D01*
X128578072Y-111150000D01*
X128565812Y-111025518D01*
X128529502Y-110905820D01*
X128470537Y-110795506D01*
X128391185Y-110698815D01*
X128361077Y-110674106D01*
X128382822Y-110633423D01*
X128410097Y-110543508D01*
X128419307Y-110450000D01*
X128419307Y-109150000D01*
X128410097Y-109056492D01*
X128382822Y-108966577D01*
X128338529Y-108883711D01*
X128278921Y-108811079D01*
X128206289Y-108751471D01*
X128123423Y-108707178D01*
X128122836Y-108707000D01*
X129182098Y-108707000D01*
X129109463Y-108795506D01*
G37*
G04 #@! TD.AperFunction*
D32*
X139926471Y-104441289D02*
X139986079Y-104513921D01*
X140058711Y-104573529D01*
X140073195Y-104581271D01*
X140021697Y-104628773D01*
X139870527Y-104836371D01*
X139762762Y-105069472D01*
X139732090Y-105170600D01*
X139855776Y-105373000D01*
X140873000Y-105373000D01*
X140873000Y-105353000D01*
X141127000Y-105353000D01*
X141127000Y-105373000D01*
X142144224Y-105373000D01*
X142250000Y-105199908D01*
X142355776Y-105373000D01*
X143373000Y-105373000D01*
X143373000Y-105353000D01*
X143627000Y-105353000D01*
X143627000Y-105373000D01*
X143647000Y-105373000D01*
X143647000Y-105627000D01*
X143627000Y-105627000D01*
X143627000Y-105647000D01*
X143373000Y-105647000D01*
X143373000Y-105627000D01*
X142355776Y-105627000D01*
X142250000Y-105800092D01*
X142144224Y-105627000D01*
X141127000Y-105627000D01*
X141127000Y-105647000D01*
X140873000Y-105647000D01*
X140873000Y-105627000D01*
X139855776Y-105627000D01*
X139732090Y-105829400D01*
X139762762Y-105930528D01*
X139870527Y-106163629D01*
X140021697Y-106371227D01*
X140210463Y-106545344D01*
X140286046Y-106591550D01*
X140265643Y-106605183D01*
X140105183Y-106765643D01*
X139979111Y-106954323D01*
X139892271Y-107163974D01*
X139848000Y-107386538D01*
X139848000Y-107613462D01*
X139892271Y-107836026D01*
X139979111Y-108045677D01*
X140105183Y-108234357D01*
X140265643Y-108394817D01*
X140454323Y-108520889D01*
X140663974Y-108607729D01*
X140886538Y-108652000D01*
X141113462Y-108652000D01*
X141336026Y-108607729D01*
X141545677Y-108520889D01*
X141734357Y-108394817D01*
X141894817Y-108234357D01*
X142020889Y-108045677D01*
X142107729Y-107836026D01*
X142152000Y-107613462D01*
X142152000Y-107386538D01*
X142107729Y-107163974D01*
X142020889Y-106954323D01*
X141894817Y-106765643D01*
X141734357Y-106605183D01*
X141713954Y-106591550D01*
X141789537Y-106545344D01*
X141978303Y-106371227D01*
X142129473Y-106163629D01*
X142237238Y-105930528D01*
X142250000Y-105888451D01*
X142262762Y-105930528D01*
X142370527Y-106163629D01*
X142521697Y-106371227D01*
X142710463Y-106545344D01*
X142786046Y-106591550D01*
X142765643Y-106605183D01*
X142605183Y-106765643D01*
X142479111Y-106954323D01*
X142392271Y-107163974D01*
X142348000Y-107386538D01*
X142348000Y-107613462D01*
X142392271Y-107836026D01*
X142479111Y-108045677D01*
X142605183Y-108234357D01*
X142765643Y-108394817D01*
X142954323Y-108520889D01*
X143163974Y-108607729D01*
X143386538Y-108652000D01*
X143613462Y-108652000D01*
X143836026Y-108607729D01*
X144045677Y-108520889D01*
X144234357Y-108394817D01*
X144394817Y-108234357D01*
X144448001Y-108154762D01*
X144448000Y-110831339D01*
X144285913Y-110669252D01*
X144068570Y-110524028D01*
X143827072Y-110423996D01*
X143570698Y-110373000D01*
X143309302Y-110373000D01*
X143052928Y-110423996D01*
X142811430Y-110524028D01*
X142594087Y-110669252D01*
X142409252Y-110854087D01*
X142264028Y-111071430D01*
X142229307Y-111155254D01*
X142229307Y-110850000D01*
X142220097Y-110756492D01*
X142192822Y-110666577D01*
X142148529Y-110583711D01*
X142088921Y-110511079D01*
X142016289Y-110451471D01*
X141933423Y-110407178D01*
X141843508Y-110379903D01*
X141750000Y-110370693D01*
X140050000Y-110370693D01*
X139956492Y-110379903D01*
X139866577Y-110407178D01*
X139783711Y-110451471D01*
X139711079Y-110511079D01*
X139651471Y-110583711D01*
X139607178Y-110666577D01*
X139579903Y-110756492D01*
X139570693Y-110850000D01*
X139570693Y-111213270D01*
X138430836Y-110073414D01*
X138528000Y-109976250D01*
X138528000Y-108652000D01*
X138782000Y-108652000D01*
X138782000Y-109976250D01*
X138940750Y-110135000D01*
X138955000Y-110138072D01*
X139079482Y-110125812D01*
X139199180Y-110089502D01*
X139309494Y-110030537D01*
X139406185Y-109951185D01*
X139485537Y-109854494D01*
X139544502Y-109744180D01*
X139580812Y-109624482D01*
X139593072Y-109500000D01*
X139590000Y-108810750D01*
X139431250Y-108652000D01*
X138782000Y-108652000D01*
X138528000Y-108652000D01*
X138508000Y-108652000D01*
X138508000Y-108398000D01*
X138528000Y-108398000D01*
X138528000Y-107073750D01*
X138782000Y-107073750D01*
X138782000Y-108398000D01*
X139431250Y-108398000D01*
X139590000Y-108239250D01*
X139593072Y-107550000D01*
X139580812Y-107425518D01*
X139544502Y-107305820D01*
X139485537Y-107195506D01*
X139406185Y-107098815D01*
X139309494Y-107019463D01*
X139199180Y-106960498D01*
X139079482Y-106924188D01*
X138955000Y-106911928D01*
X138940750Y-106915000D01*
X138782000Y-107073750D01*
X138528000Y-107073750D01*
X138369250Y-106915000D01*
X138355000Y-106911928D01*
X138230518Y-106924188D01*
X138110820Y-106960498D01*
X138000506Y-107019463D01*
X137903815Y-107098815D01*
X137853506Y-107160117D01*
X137775825Y-107118596D01*
X137657772Y-107082785D01*
X137535000Y-107070693D01*
X137235000Y-107070693D01*
X137112228Y-107082785D01*
X136994175Y-107118596D01*
X136885376Y-107176750D01*
X136790013Y-107255013D01*
X136750000Y-107303769D01*
X136709987Y-107255013D01*
X136614624Y-107176750D01*
X136505825Y-107118596D01*
X136387772Y-107082785D01*
X136265000Y-107070693D01*
X136155752Y-107070693D01*
X136177523Y-106961243D01*
X136177523Y-106818037D01*
X136149585Y-106677582D01*
X136094782Y-106545276D01*
X136015221Y-106426204D01*
X135913959Y-106324942D01*
X135794887Y-106245381D01*
X135662581Y-106190578D01*
X135522126Y-106162640D01*
X135511239Y-106162640D01*
X135426559Y-106077960D01*
X135575020Y-106139454D01*
X135763774Y-106177000D01*
X135956226Y-106177000D01*
X136144980Y-106139454D01*
X136322783Y-106065806D01*
X136482801Y-105958885D01*
X136495000Y-105946686D01*
X136507199Y-105958885D01*
X136667217Y-106065806D01*
X136845020Y-106139454D01*
X137033774Y-106177000D01*
X137226226Y-106177000D01*
X137414980Y-106139454D01*
X137592783Y-106065806D01*
X137593365Y-106065417D01*
X137633711Y-106098529D01*
X137716577Y-106142822D01*
X137806492Y-106170097D01*
X137900000Y-106179307D01*
X138900000Y-106179307D01*
X138993508Y-106170097D01*
X139083423Y-106142822D01*
X139166289Y-106098529D01*
X139238921Y-106038921D01*
X139298529Y-105966289D01*
X139342822Y-105883423D01*
X139370097Y-105793508D01*
X139379307Y-105700000D01*
X139379307Y-104700000D01*
X139370097Y-104606492D01*
X139346684Y-104529307D01*
X139550000Y-104529307D01*
X139643508Y-104520097D01*
X139733423Y-104492822D01*
X139816289Y-104448529D01*
X139888921Y-104388921D01*
X139894710Y-104381868D01*
X139926471Y-104441289D01*
G04 #@! TA.AperFunction,Conductor*
D33*
G36*
X139926471Y-104441289D02*
G01*
X139986079Y-104513921D01*
X140058711Y-104573529D01*
X140073195Y-104581271D01*
X140021697Y-104628773D01*
X139870527Y-104836371D01*
X139762762Y-105069472D01*
X139732090Y-105170600D01*
X139855776Y-105373000D01*
X140873000Y-105373000D01*
X140873000Y-105353000D01*
X141127000Y-105353000D01*
X141127000Y-105373000D01*
X142144224Y-105373000D01*
X142250000Y-105199908D01*
X142355776Y-105373000D01*
X143373000Y-105373000D01*
X143373000Y-105353000D01*
X143627000Y-105353000D01*
X143627000Y-105373000D01*
X143647000Y-105373000D01*
X143647000Y-105627000D01*
X143627000Y-105627000D01*
X143627000Y-105647000D01*
X143373000Y-105647000D01*
X143373000Y-105627000D01*
X142355776Y-105627000D01*
X142250000Y-105800092D01*
X142144224Y-105627000D01*
X141127000Y-105627000D01*
X141127000Y-105647000D01*
X140873000Y-105647000D01*
X140873000Y-105627000D01*
X139855776Y-105627000D01*
X139732090Y-105829400D01*
X139762762Y-105930528D01*
X139870527Y-106163629D01*
X140021697Y-106371227D01*
X140210463Y-106545344D01*
X140286046Y-106591550D01*
X140265643Y-106605183D01*
X140105183Y-106765643D01*
X139979111Y-106954323D01*
X139892271Y-107163974D01*
X139848000Y-107386538D01*
X139848000Y-107613462D01*
X139892271Y-107836026D01*
X139979111Y-108045677D01*
X140105183Y-108234357D01*
X140265643Y-108394817D01*
X140454323Y-108520889D01*
X140663974Y-108607729D01*
X140886538Y-108652000D01*
X141113462Y-108652000D01*
X141336026Y-108607729D01*
X141545677Y-108520889D01*
X141734357Y-108394817D01*
X141894817Y-108234357D01*
X142020889Y-108045677D01*
X142107729Y-107836026D01*
X142152000Y-107613462D01*
X142152000Y-107386538D01*
X142107729Y-107163974D01*
X142020889Y-106954323D01*
X141894817Y-106765643D01*
X141734357Y-106605183D01*
X141713954Y-106591550D01*
X141789537Y-106545344D01*
X141978303Y-106371227D01*
X142129473Y-106163629D01*
X142237238Y-105930528D01*
X142250000Y-105888451D01*
X142262762Y-105930528D01*
X142370527Y-106163629D01*
X142521697Y-106371227D01*
X142710463Y-106545344D01*
X142786046Y-106591550D01*
X142765643Y-106605183D01*
X142605183Y-106765643D01*
X142479111Y-106954323D01*
X142392271Y-107163974D01*
X142348000Y-107386538D01*
X142348000Y-107613462D01*
X142392271Y-107836026D01*
X142479111Y-108045677D01*
X142605183Y-108234357D01*
X142765643Y-108394817D01*
X142954323Y-108520889D01*
X143163974Y-108607729D01*
X143386538Y-108652000D01*
X143613462Y-108652000D01*
X143836026Y-108607729D01*
X144045677Y-108520889D01*
X144234357Y-108394817D01*
X144394817Y-108234357D01*
X144448001Y-108154762D01*
X144448000Y-110831339D01*
X144285913Y-110669252D01*
X144068570Y-110524028D01*
X143827072Y-110423996D01*
X143570698Y-110373000D01*
X143309302Y-110373000D01*
X143052928Y-110423996D01*
X142811430Y-110524028D01*
X142594087Y-110669252D01*
X142409252Y-110854087D01*
X142264028Y-111071430D01*
X142229307Y-111155254D01*
X142229307Y-110850000D01*
X142220097Y-110756492D01*
X142192822Y-110666577D01*
X142148529Y-110583711D01*
X142088921Y-110511079D01*
X142016289Y-110451471D01*
X141933423Y-110407178D01*
X141843508Y-110379903D01*
X141750000Y-110370693D01*
X140050000Y-110370693D01*
X139956492Y-110379903D01*
X139866577Y-110407178D01*
X139783711Y-110451471D01*
X139711079Y-110511079D01*
X139651471Y-110583711D01*
X139607178Y-110666577D01*
X139579903Y-110756492D01*
X139570693Y-110850000D01*
X139570693Y-111213270D01*
X138430836Y-110073414D01*
X138528000Y-109976250D01*
X138528000Y-108652000D01*
X138782000Y-108652000D01*
X138782000Y-109976250D01*
X138940750Y-110135000D01*
X138955000Y-110138072D01*
X139079482Y-110125812D01*
X139199180Y-110089502D01*
X139309494Y-110030537D01*
X139406185Y-109951185D01*
X139485537Y-109854494D01*
X139544502Y-109744180D01*
X139580812Y-109624482D01*
X139593072Y-109500000D01*
X139590000Y-108810750D01*
X139431250Y-108652000D01*
X138782000Y-108652000D01*
X138528000Y-108652000D01*
X138508000Y-108652000D01*
X138508000Y-108398000D01*
X138528000Y-108398000D01*
X138528000Y-107073750D01*
X138782000Y-107073750D01*
X138782000Y-108398000D01*
X139431250Y-108398000D01*
X139590000Y-108239250D01*
X139593072Y-107550000D01*
X139580812Y-107425518D01*
X139544502Y-107305820D01*
X139485537Y-107195506D01*
X139406185Y-107098815D01*
X139309494Y-107019463D01*
X139199180Y-106960498D01*
X139079482Y-106924188D01*
X138955000Y-106911928D01*
X138940750Y-106915000D01*
X138782000Y-107073750D01*
X138528000Y-107073750D01*
X138369250Y-106915000D01*
X138355000Y-106911928D01*
X138230518Y-106924188D01*
X138110820Y-106960498D01*
X138000506Y-107019463D01*
X137903815Y-107098815D01*
X137853506Y-107160117D01*
X137775825Y-107118596D01*
X137657772Y-107082785D01*
X137535000Y-107070693D01*
X137235000Y-107070693D01*
X137112228Y-107082785D01*
X136994175Y-107118596D01*
X136885376Y-107176750D01*
X136790013Y-107255013D01*
X136750000Y-107303769D01*
X136709987Y-107255013D01*
X136614624Y-107176750D01*
X136505825Y-107118596D01*
X136387772Y-107082785D01*
X136265000Y-107070693D01*
X136155752Y-107070693D01*
X136177523Y-106961243D01*
X136177523Y-106818037D01*
X136149585Y-106677582D01*
X136094782Y-106545276D01*
X136015221Y-106426204D01*
X135913959Y-106324942D01*
X135794887Y-106245381D01*
X135662581Y-106190578D01*
X135522126Y-106162640D01*
X135511239Y-106162640D01*
X135426559Y-106077960D01*
X135575020Y-106139454D01*
X135763774Y-106177000D01*
X135956226Y-106177000D01*
X136144980Y-106139454D01*
X136322783Y-106065806D01*
X136482801Y-105958885D01*
X136495000Y-105946686D01*
X136507199Y-105958885D01*
X136667217Y-106065806D01*
X136845020Y-106139454D01*
X137033774Y-106177000D01*
X137226226Y-106177000D01*
X137414980Y-106139454D01*
X137592783Y-106065806D01*
X137593365Y-106065417D01*
X137633711Y-106098529D01*
X137716577Y-106142822D01*
X137806492Y-106170097D01*
X137900000Y-106179307D01*
X138900000Y-106179307D01*
X138993508Y-106170097D01*
X139083423Y-106142822D01*
X139166289Y-106098529D01*
X139238921Y-106038921D01*
X139298529Y-105966289D01*
X139342822Y-105883423D01*
X139370097Y-105793508D01*
X139379307Y-105700000D01*
X139379307Y-104700000D01*
X139370097Y-104606492D01*
X139346684Y-104529307D01*
X139550000Y-104529307D01*
X139643508Y-104520097D01*
X139733423Y-104492822D01*
X139816289Y-104448529D01*
X139888921Y-104388921D01*
X139894710Y-104381868D01*
X139926471Y-104441289D01*
G37*
G04 #@! TD.AperFunction*
D32*
X108587942Y-108249052D02*
X108728397Y-108276990D01*
X108871603Y-108276990D01*
X108996092Y-108252228D01*
X109004738Y-108295693D01*
X108925000Y-108295693D01*
X108831492Y-108304903D01*
X108741577Y-108332178D01*
X108658711Y-108376471D01*
X108586079Y-108436079D01*
X108576816Y-108447366D01*
X108550000Y-108444725D01*
X108480734Y-108451547D01*
X108417285Y-108457796D01*
X108289670Y-108496508D01*
X108172059Y-108559372D01*
X108068973Y-108643973D01*
X108047774Y-108669804D01*
X108015440Y-108702138D01*
X107950000Y-108695693D01*
X107350000Y-108695693D01*
X107256492Y-108704903D01*
X107166577Y-108732178D01*
X107083711Y-108776471D01*
X107011079Y-108836079D01*
X106951471Y-108908711D01*
X106907178Y-108991577D01*
X106879903Y-109081492D01*
X106870693Y-109175000D01*
X106870693Y-109221884D01*
X106319800Y-109772778D01*
X106298276Y-109790442D01*
X106320097Y-109718508D01*
X106329307Y-109625000D01*
X106329307Y-109175000D01*
X106320097Y-109081492D01*
X106292822Y-108991577D01*
X106248529Y-108908711D01*
X106188921Y-108836079D01*
X106116289Y-108776471D01*
X106033423Y-108732178D01*
X105943508Y-108704903D01*
X105850000Y-108695693D01*
X105257000Y-108695693D01*
X105257000Y-108370147D01*
X105350000Y-108379307D01*
X106050000Y-108379307D01*
X106143508Y-108370097D01*
X106233423Y-108342822D01*
X106316289Y-108298529D01*
X106388921Y-108238921D01*
X106394601Y-108232000D01*
X108546775Y-108232000D01*
X108587942Y-108249052D01*
G04 #@! TA.AperFunction,Conductor*
D33*
G36*
X108587942Y-108249052D02*
G01*
X108728397Y-108276990D01*
X108871603Y-108276990D01*
X108996092Y-108252228D01*
X109004738Y-108295693D01*
X108925000Y-108295693D01*
X108831492Y-108304903D01*
X108741577Y-108332178D01*
X108658711Y-108376471D01*
X108586079Y-108436079D01*
X108576816Y-108447366D01*
X108550000Y-108444725D01*
X108480734Y-108451547D01*
X108417285Y-108457796D01*
X108289670Y-108496508D01*
X108172059Y-108559372D01*
X108068973Y-108643973D01*
X108047774Y-108669804D01*
X108015440Y-108702138D01*
X107950000Y-108695693D01*
X107350000Y-108695693D01*
X107256492Y-108704903D01*
X107166577Y-108732178D01*
X107083711Y-108776471D01*
X107011079Y-108836079D01*
X106951471Y-108908711D01*
X106907178Y-108991577D01*
X106879903Y-109081492D01*
X106870693Y-109175000D01*
X106870693Y-109221884D01*
X106319800Y-109772778D01*
X106298276Y-109790442D01*
X106320097Y-109718508D01*
X106329307Y-109625000D01*
X106329307Y-109175000D01*
X106320097Y-109081492D01*
X106292822Y-108991577D01*
X106248529Y-108908711D01*
X106188921Y-108836079D01*
X106116289Y-108776471D01*
X106033423Y-108732178D01*
X105943508Y-108704903D01*
X105850000Y-108695693D01*
X105257000Y-108695693D01*
X105257000Y-108370147D01*
X105350000Y-108379307D01*
X106050000Y-108379307D01*
X106143508Y-108370097D01*
X106233423Y-108342822D01*
X106316289Y-108298529D01*
X106388921Y-108238921D01*
X106394601Y-108232000D01*
X108546775Y-108232000D01*
X108587942Y-108249052D01*
G37*
G04 #@! TD.AperFunction*
D32*
X121550489Y-105686794D02*
X121529235Y-105704237D01*
X121511794Y-105725489D01*
X119194284Y-108043000D01*
X118054307Y-108043000D01*
X118054307Y-107725000D01*
X118045097Y-107631492D01*
X118043128Y-107625000D01*
X118045097Y-107618508D01*
X118054307Y-107525000D01*
X118054307Y-107075000D01*
X118045097Y-106981492D01*
X118017822Y-106891577D01*
X117973529Y-106808711D01*
X117913921Y-106736079D01*
X117841289Y-106676471D01*
X117758423Y-106632178D01*
X117668508Y-106604903D01*
X117575000Y-106595693D01*
X116125000Y-106595693D01*
X116031492Y-106604903D01*
X115941577Y-106632178D01*
X115862280Y-106674563D01*
X115272569Y-106084853D01*
X115558672Y-105798750D01*
X115635302Y-105913436D01*
X115736564Y-106014698D01*
X115855636Y-106094259D01*
X115987942Y-106149062D01*
X116128397Y-106177000D01*
X116271603Y-106177000D01*
X116412058Y-106149062D01*
X116544364Y-106094259D01*
X116663436Y-106014698D01*
X116764698Y-105913436D01*
X116844259Y-105794364D01*
X116892872Y-105677001D01*
X121562422Y-105677001D01*
X121550489Y-105686794D01*
G04 #@! TA.AperFunction,Conductor*
D33*
G36*
X121550489Y-105686794D02*
G01*
X121529235Y-105704237D01*
X121511794Y-105725489D01*
X119194284Y-108043000D01*
X118054307Y-108043000D01*
X118054307Y-107725000D01*
X118045097Y-107631492D01*
X118043128Y-107625000D01*
X118045097Y-107618508D01*
X118054307Y-107525000D01*
X118054307Y-107075000D01*
X118045097Y-106981492D01*
X118017822Y-106891577D01*
X117973529Y-106808711D01*
X117913921Y-106736079D01*
X117841289Y-106676471D01*
X117758423Y-106632178D01*
X117668508Y-106604903D01*
X117575000Y-106595693D01*
X116125000Y-106595693D01*
X116031492Y-106604903D01*
X115941577Y-106632178D01*
X115862280Y-106674563D01*
X115272569Y-106084853D01*
X115558672Y-105798750D01*
X115635302Y-105913436D01*
X115736564Y-106014698D01*
X115855636Y-106094259D01*
X115987942Y-106149062D01*
X116128397Y-106177000D01*
X116271603Y-106177000D01*
X116412058Y-106149062D01*
X116544364Y-106094259D01*
X116663436Y-106014698D01*
X116764698Y-105913436D01*
X116844259Y-105794364D01*
X116892872Y-105677001D01*
X121562422Y-105677001D01*
X121550489Y-105686794D01*
G37*
G04 #@! TD.AperFunction*
D32*
X131111928Y-106855000D02*
X131115000Y-106869250D01*
X131273750Y-107028000D01*
X132598000Y-107028000D01*
X132598000Y-107008000D01*
X132852000Y-107008000D01*
X132852000Y-107028000D01*
X132872000Y-107028000D01*
X132872000Y-107193000D01*
X129672771Y-107193000D01*
X129679920Y-107187133D01*
X129702722Y-107159350D01*
X129762283Y-107086775D01*
X129777301Y-107089762D01*
X129920507Y-107089762D01*
X130060962Y-107061824D01*
X130193268Y-107007021D01*
X130201095Y-107001791D01*
X130207958Y-107006377D01*
X130340264Y-107061180D01*
X130480719Y-107089118D01*
X130623925Y-107089118D01*
X130764380Y-107061180D01*
X130896686Y-107006377D01*
X131015758Y-106926816D01*
X131114589Y-106827985D01*
X131111928Y-106855000D01*
G04 #@! TA.AperFunction,Conductor*
D33*
G36*
X131111928Y-106855000D02*
G01*
X131115000Y-106869250D01*
X131273750Y-107028000D01*
X132598000Y-107028000D01*
X132598000Y-107008000D01*
X132852000Y-107008000D01*
X132852000Y-107028000D01*
X132872000Y-107028000D01*
X132872000Y-107193000D01*
X129672771Y-107193000D01*
X129679920Y-107187133D01*
X129702722Y-107159350D01*
X129762283Y-107086775D01*
X129777301Y-107089762D01*
X129920507Y-107089762D01*
X130060962Y-107061824D01*
X130193268Y-107007021D01*
X130201095Y-107001791D01*
X130207958Y-107006377D01*
X130340264Y-107061180D01*
X130480719Y-107089118D01*
X130623925Y-107089118D01*
X130764380Y-107061180D01*
X130896686Y-107006377D01*
X131015758Y-106926816D01*
X131114589Y-106827985D01*
X131111928Y-106855000D01*
G37*
G04 #@! TD.AperFunction*
D32*
X134235968Y-105924591D02*
X134288823Y-105946484D01*
X134217455Y-105984632D01*
X134180820Y-106014698D01*
X134179307Y-106015940D01*
X134179307Y-105886732D01*
X134235968Y-105924591D01*
G04 #@! TA.AperFunction,Conductor*
D33*
G36*
X134235968Y-105924591D02*
G01*
X134288823Y-105946484D01*
X134217455Y-105984632D01*
X134180820Y-106014698D01*
X134179307Y-106015940D01*
X134179307Y-105886732D01*
X134235968Y-105924591D01*
G37*
G04 #@! TD.AperFunction*
D32*
X107527000Y-103993000D02*
X108473000Y-103993000D01*
X108473000Y-103973000D01*
X108727000Y-103973000D01*
X108727000Y-103993000D01*
X108747000Y-103993000D01*
X108747000Y-104247000D01*
X108727000Y-104247000D01*
X108727000Y-104267000D01*
X108473000Y-104267000D01*
X108473000Y-104247000D01*
X107527000Y-104247000D01*
X107527000Y-104267000D01*
X107273000Y-104267000D01*
X107273000Y-104247000D01*
X107253000Y-104247000D01*
X107253000Y-103993000D01*
X107273000Y-103993000D01*
X107273000Y-103973000D01*
X107527000Y-103973000D01*
X107527000Y-103993000D01*
G04 #@! TA.AperFunction,Conductor*
D33*
G36*
X107527000Y-103993000D02*
G01*
X108473000Y-103993000D01*
X108473000Y-103973000D01*
X108727000Y-103973000D01*
X108727000Y-103993000D01*
X108747000Y-103993000D01*
X108747000Y-104247000D01*
X108727000Y-104247000D01*
X108727000Y-104267000D01*
X108473000Y-104267000D01*
X108473000Y-104247000D01*
X107527000Y-104247000D01*
X107527000Y-104267000D01*
X107273000Y-104267000D01*
X107273000Y-104247000D01*
X107253000Y-104247000D01*
X107253000Y-103993000D01*
X107273000Y-103993000D01*
X107273000Y-103973000D01*
X107527000Y-103973000D01*
X107527000Y-103993000D01*
G37*
G04 #@! TD.AperFunction*
D32*
X106640887Y-103386753D02*
X106561092Y-103483079D01*
X106501623Y-103593122D01*
X106464765Y-103712652D01*
X106455000Y-103834250D01*
X106613748Y-103992998D01*
X106568618Y-103992998D01*
X106524991Y-103949371D01*
X106377257Y-103850658D01*
X106213104Y-103782664D01*
X106038839Y-103748000D01*
X105861161Y-103748000D01*
X105686896Y-103782664D01*
X105522743Y-103850658D01*
X105375009Y-103949371D01*
X105249371Y-104075009D01*
X105199307Y-104149935D01*
X105199307Y-104078409D01*
X105920717Y-103357000D01*
X106677482Y-103357000D01*
X106640887Y-103386753D01*
G04 #@! TA.AperFunction,Conductor*
D33*
G36*
X106640887Y-103386753D02*
G01*
X106561092Y-103483079D01*
X106501623Y-103593122D01*
X106464765Y-103712652D01*
X106455000Y-103834250D01*
X106613748Y-103992998D01*
X106568618Y-103992998D01*
X106524991Y-103949371D01*
X106377257Y-103850658D01*
X106213104Y-103782664D01*
X106038839Y-103748000D01*
X105861161Y-103748000D01*
X105686896Y-103782664D01*
X105522743Y-103850658D01*
X105375009Y-103949371D01*
X105249371Y-104075009D01*
X105199307Y-104149935D01*
X105199307Y-104078409D01*
X105920717Y-103357000D01*
X106677482Y-103357000D01*
X106640887Y-103386753D01*
G37*
G04 #@! TD.AperFunction*
D32*
X139926471Y-102558711D02*
X139882178Y-102641577D01*
X139866642Y-102692795D01*
X139816289Y-102651471D01*
X139733423Y-102607178D01*
X139643508Y-102579903D01*
X139550000Y-102570693D01*
X138550000Y-102570693D01*
X138456492Y-102579903D01*
X138366577Y-102607178D01*
X138283711Y-102651471D01*
X138243365Y-102684583D01*
X138242783Y-102684194D01*
X138064980Y-102610546D01*
X137876226Y-102573000D01*
X137683774Y-102573000D01*
X137495020Y-102610546D01*
X137317217Y-102684194D01*
X137157199Y-102791115D01*
X137145000Y-102803314D01*
X137132801Y-102791115D01*
X136972783Y-102684194D01*
X136794980Y-102610546D01*
X136606226Y-102573000D01*
X136413774Y-102573000D01*
X136225020Y-102610546D01*
X136047217Y-102684194D01*
X135887199Y-102791115D01*
X135875000Y-102803314D01*
X135862801Y-102791115D01*
X135702783Y-102684194D01*
X135524980Y-102610546D01*
X135336226Y-102573000D01*
X135143774Y-102573000D01*
X134955020Y-102610546D01*
X134777217Y-102684194D01*
X134617199Y-102791115D01*
X134481115Y-102927199D01*
X134374194Y-103087217D01*
X134300546Y-103265020D01*
X134263000Y-103453774D01*
X134263000Y-103646226D01*
X134300546Y-103834980D01*
X134374194Y-104012783D01*
X134402357Y-104054931D01*
X134276643Y-104002859D01*
X134138938Y-103975468D01*
X134047715Y-103947796D01*
X133992141Y-103942323D01*
X133994987Y-103939987D01*
X134073250Y-103844624D01*
X134131404Y-103735825D01*
X134167215Y-103617772D01*
X134179307Y-103495000D01*
X134179307Y-103195000D01*
X134167215Y-103072228D01*
X134131404Y-102954175D01*
X134073250Y-102845376D01*
X133994987Y-102750013D01*
X133899624Y-102671750D01*
X133790825Y-102613596D01*
X133672772Y-102577785D01*
X133550000Y-102565693D01*
X131900000Y-102565693D01*
X131777228Y-102577785D01*
X131659175Y-102613596D01*
X131550376Y-102671750D01*
X131455013Y-102750013D01*
X131376750Y-102845376D01*
X131318596Y-102954175D01*
X131282785Y-103072228D01*
X131270693Y-103195000D01*
X131270693Y-103495000D01*
X131282785Y-103617772D01*
X131318596Y-103735825D01*
X131376750Y-103844624D01*
X131441072Y-103923000D01*
X131280422Y-103923000D01*
X131202224Y-103844802D01*
X131181025Y-103818971D01*
X131077939Y-103734370D01*
X130960328Y-103671506D01*
X130832713Y-103632794D01*
X130733250Y-103622998D01*
X130733243Y-103622998D01*
X130699998Y-103619724D01*
X130666753Y-103622998D01*
X129633243Y-103622998D01*
X129600001Y-103619724D01*
X129587010Y-103621003D01*
X129587010Y-103044235D01*
X129589704Y-103016881D01*
X129587010Y-102989528D01*
X129587010Y-102989518D01*
X129578951Y-102907691D01*
X129547101Y-102802696D01*
X129514242Y-102741221D01*
X129495379Y-102705931D01*
X129443217Y-102642372D01*
X129443215Y-102642370D01*
X129425774Y-102621118D01*
X129404521Y-102603676D01*
X129352845Y-102552000D01*
X139931979Y-102552000D01*
X139926471Y-102558711D01*
G04 #@! TA.AperFunction,Conductor*
D33*
G36*
X139926471Y-102558711D02*
G01*
X139882178Y-102641577D01*
X139866642Y-102692795D01*
X139816289Y-102651471D01*
X139733423Y-102607178D01*
X139643508Y-102579903D01*
X139550000Y-102570693D01*
X138550000Y-102570693D01*
X138456492Y-102579903D01*
X138366577Y-102607178D01*
X138283711Y-102651471D01*
X138243365Y-102684583D01*
X138242783Y-102684194D01*
X138064980Y-102610546D01*
X137876226Y-102573000D01*
X137683774Y-102573000D01*
X137495020Y-102610546D01*
X137317217Y-102684194D01*
X137157199Y-102791115D01*
X137145000Y-102803314D01*
X137132801Y-102791115D01*
X136972783Y-102684194D01*
X136794980Y-102610546D01*
X136606226Y-102573000D01*
X136413774Y-102573000D01*
X136225020Y-102610546D01*
X136047217Y-102684194D01*
X135887199Y-102791115D01*
X135875000Y-102803314D01*
X135862801Y-102791115D01*
X135702783Y-102684194D01*
X135524980Y-102610546D01*
X135336226Y-102573000D01*
X135143774Y-102573000D01*
X134955020Y-102610546D01*
X134777217Y-102684194D01*
X134617199Y-102791115D01*
X134481115Y-102927199D01*
X134374194Y-103087217D01*
X134300546Y-103265020D01*
X134263000Y-103453774D01*
X134263000Y-103646226D01*
X134300546Y-103834980D01*
X134374194Y-104012783D01*
X134402357Y-104054931D01*
X134276643Y-104002859D01*
X134138938Y-103975468D01*
X134047715Y-103947796D01*
X133992141Y-103942323D01*
X133994987Y-103939987D01*
X134073250Y-103844624D01*
X134131404Y-103735825D01*
X134167215Y-103617772D01*
X134179307Y-103495000D01*
X134179307Y-103195000D01*
X134167215Y-103072228D01*
X134131404Y-102954175D01*
X134073250Y-102845376D01*
X133994987Y-102750013D01*
X133899624Y-102671750D01*
X133790825Y-102613596D01*
X133672772Y-102577785D01*
X133550000Y-102565693D01*
X131900000Y-102565693D01*
X131777228Y-102577785D01*
X131659175Y-102613596D01*
X131550376Y-102671750D01*
X131455013Y-102750013D01*
X131376750Y-102845376D01*
X131318596Y-102954175D01*
X131282785Y-103072228D01*
X131270693Y-103195000D01*
X131270693Y-103495000D01*
X131282785Y-103617772D01*
X131318596Y-103735825D01*
X131376750Y-103844624D01*
X131441072Y-103923000D01*
X131280422Y-103923000D01*
X131202224Y-103844802D01*
X131181025Y-103818971D01*
X131077939Y-103734370D01*
X130960328Y-103671506D01*
X130832713Y-103632794D01*
X130733250Y-103622998D01*
X130733243Y-103622998D01*
X130699998Y-103619724D01*
X130666753Y-103622998D01*
X129633243Y-103622998D01*
X129600001Y-103619724D01*
X129587010Y-103621003D01*
X129587010Y-103044235D01*
X129589704Y-103016881D01*
X129587010Y-102989528D01*
X129587010Y-102989518D01*
X129578951Y-102907691D01*
X129547101Y-102802696D01*
X129514242Y-102741221D01*
X129495379Y-102705931D01*
X129443217Y-102642372D01*
X129443215Y-102642370D01*
X129425774Y-102621118D01*
X129404521Y-102603676D01*
X129352845Y-102552000D01*
X139931979Y-102552000D01*
X139926471Y-102558711D01*
G37*
G04 #@! TD.AperFunction*
D32*
X104361591Y-103340693D02*
X104215000Y-103340693D01*
X104095155Y-103352497D01*
X103979915Y-103387454D01*
X103873709Y-103444222D01*
X103780619Y-103520619D01*
X103751592Y-103555989D01*
X103695814Y-103572909D01*
X103663267Y-103590306D01*
X103599049Y-103624631D01*
X103538273Y-103674509D01*
X103514236Y-103694236D01*
X103496794Y-103715489D01*
X103205767Y-104006517D01*
X103126250Y-103927000D01*
X101927000Y-103927000D01*
X101927000Y-103947000D01*
X101673000Y-103947000D01*
X101673000Y-103927000D01*
X101653000Y-103927000D01*
X101653000Y-103673000D01*
X101673000Y-103673000D01*
X101673000Y-103653000D01*
X101927000Y-103653000D01*
X101927000Y-103673000D01*
X103126250Y-103673000D01*
X103285000Y-103514250D01*
X103288072Y-102950000D01*
X103275812Y-102825518D01*
X103239502Y-102705820D01*
X103180537Y-102595506D01*
X103144833Y-102552000D01*
X105150283Y-102552000D01*
X104361591Y-103340693D01*
G04 #@! TA.AperFunction,Conductor*
D33*
G36*
X104361591Y-103340693D02*
G01*
X104215000Y-103340693D01*
X104095155Y-103352497D01*
X103979915Y-103387454D01*
X103873709Y-103444222D01*
X103780619Y-103520619D01*
X103751592Y-103555989D01*
X103695814Y-103572909D01*
X103663267Y-103590306D01*
X103599049Y-103624631D01*
X103538273Y-103674509D01*
X103514236Y-103694236D01*
X103496794Y-103715489D01*
X103205767Y-104006517D01*
X103126250Y-103927000D01*
X101927000Y-103927000D01*
X101927000Y-103947000D01*
X101673000Y-103947000D01*
X101673000Y-103927000D01*
X101653000Y-103927000D01*
X101653000Y-103673000D01*
X101673000Y-103673000D01*
X101673000Y-103653000D01*
X101927000Y-103653000D01*
X101927000Y-103673000D01*
X103126250Y-103673000D01*
X103285000Y-103514250D01*
X103288072Y-102950000D01*
X103275812Y-102825518D01*
X103239502Y-102705820D01*
X103180537Y-102595506D01*
X103144833Y-102552000D01*
X105150283Y-102552000D01*
X104361591Y-103340693D01*
G37*
G04 #@! TD.AperFunction*
D32*
X122827000Y-103373000D02*
X122847000Y-103373000D01*
X122847000Y-103627000D01*
X122827000Y-103627000D01*
X122827000Y-103647000D01*
X122573000Y-103647000D01*
X122573000Y-103627000D01*
X122553000Y-103627000D01*
X122553000Y-103373000D01*
X122573000Y-103373000D01*
X122573000Y-103353000D01*
X122827000Y-103353000D01*
X122827000Y-103373000D01*
G04 #@! TA.AperFunction,Conductor*
D33*
G36*
X122827000Y-103373000D02*
G01*
X122847000Y-103373000D01*
X122847000Y-103627000D01*
X122827000Y-103627000D01*
X122827000Y-103647000D01*
X122573000Y-103647000D01*
X122573000Y-103627000D01*
X122553000Y-103627000D01*
X122553000Y-103373000D01*
X122573000Y-103373000D01*
X122573000Y-103353000D01*
X122827000Y-103353000D01*
X122827000Y-103373000D01*
G37*
G04 #@! TD.AperFunction*
M02*
