G04 #@! TF.GenerationSoftware,KiCad,Pcbnew,(5.1.9)-1*
G04 #@! TF.CreationDate,2021-06-24T13:46:27+10:00*
G04 #@! TF.ProjectId,microBoSL,6d696372-6f42-46f5-934c-2e6b69636164,0.2.0*
G04 #@! TF.SameCoordinates,Original*
G04 #@! TF.FileFunction,Legend,Top*
G04 #@! TF.FilePolarity,Positive*
%FSLAX46Y46*%
G04 Gerber Fmt 4.6, Leading zero omitted, Abs format (unit mm)*
G04 Created by KiCad (PCBNEW (5.1.9)-1) date 2021-06-24 13:46:27*
%MOMM*%
%LPD*%
G01*
G04 APERTURE LIST*
%ADD10C,0.125000*%
%ADD11C,0.150000*%
%ADD12C,0.100000*%
%ADD13C,0.075000*%
%ADD14C,0.120000*%
G04 APERTURE END LIST*
D10*
X110629761Y-102186904D02*
X110782142Y-102186904D01*
X110858333Y-102225000D01*
X110934523Y-102301190D01*
X110972619Y-102453571D01*
X110972619Y-102720238D01*
X110934523Y-102872619D01*
X110858333Y-102948809D01*
X110782142Y-102986904D01*
X110629761Y-102986904D01*
X110553571Y-102948809D01*
X110477380Y-102872619D01*
X110439285Y-102720238D01*
X110439285Y-102453571D01*
X110477380Y-102301190D01*
X110553571Y-102225000D01*
X110629761Y-102186904D01*
X111315476Y-102986904D02*
X111315476Y-102186904D01*
X111772619Y-102986904D01*
X111772619Y-102186904D01*
D11*
X115014285Y-105933333D02*
X115395238Y-105933333D01*
X114938095Y-106161904D02*
X115204761Y-105361904D01*
X115471428Y-106161904D01*
X115738095Y-105857142D02*
X116347619Y-105857142D01*
X116042857Y-106161904D02*
X116042857Y-105552380D01*
D10*
X142500000Y-103169047D02*
X142523809Y-103121428D01*
X142523809Y-103050000D01*
X142500000Y-102978571D01*
X142452380Y-102930952D01*
X142404761Y-102907142D01*
X142309523Y-102883333D01*
X142238095Y-102883333D01*
X142142857Y-102907142D01*
X142095238Y-102930952D01*
X142047619Y-102978571D01*
X142023809Y-103050000D01*
X142023809Y-103097619D01*
X142047619Y-103169047D01*
X142071428Y-103192857D01*
X142238095Y-103192857D01*
X142238095Y-103097619D01*
X142023809Y-103407142D02*
X142523809Y-103407142D01*
X142023809Y-103692857D01*
X142523809Y-103692857D01*
X142023809Y-103930952D02*
X142523809Y-103930952D01*
X142523809Y-104050000D01*
X142500000Y-104121428D01*
X142452380Y-104169047D01*
X142404761Y-104192857D01*
X142309523Y-104216666D01*
X142238095Y-104216666D01*
X142142857Y-104192857D01*
X142095238Y-104169047D01*
X142047619Y-104121428D01*
X142023809Y-104050000D01*
X142023809Y-103930952D01*
X122192857Y-105352380D02*
X122264285Y-105376190D01*
X122383333Y-105376190D01*
X122430952Y-105352380D01*
X122454761Y-105328571D01*
X122478571Y-105280952D01*
X122478571Y-105233333D01*
X122454761Y-105185714D01*
X122430952Y-105161904D01*
X122383333Y-105138095D01*
X122288095Y-105114285D01*
X122240476Y-105090476D01*
X122216666Y-105066666D01*
X122192857Y-105019047D01*
X122192857Y-104971428D01*
X122216666Y-104923809D01*
X122240476Y-104900000D01*
X122288095Y-104876190D01*
X122407142Y-104876190D01*
X122478571Y-104900000D01*
X122669047Y-105233333D02*
X122907142Y-105233333D01*
X122621428Y-105376190D02*
X122788095Y-104876190D01*
X122954761Y-105376190D01*
X120469047Y-105376190D02*
X120469047Y-104876190D01*
X120659523Y-104876190D01*
X120707142Y-104900000D01*
X120730952Y-104923809D01*
X120754761Y-104971428D01*
X120754761Y-105042857D01*
X120730952Y-105090476D01*
X120707142Y-105114285D01*
X120659523Y-105138095D01*
X120469047Y-105138095D01*
X139347619Y-105157142D02*
X139323809Y-105228571D01*
X139323809Y-105347619D01*
X139347619Y-105395238D01*
X139371428Y-105419047D01*
X139419047Y-105442857D01*
X139466666Y-105442857D01*
X139514285Y-105419047D01*
X139538095Y-105395238D01*
X139561904Y-105347619D01*
X139585714Y-105252380D01*
X139609523Y-105204761D01*
X139633333Y-105180952D01*
X139680952Y-105157142D01*
X139728571Y-105157142D01*
X139776190Y-105180952D01*
X139800000Y-105204761D01*
X139823809Y-105252380D01*
X139823809Y-105371428D01*
X139800000Y-105442857D01*
X139585714Y-105823809D02*
X139561904Y-105895238D01*
X139538095Y-105919047D01*
X139490476Y-105942857D01*
X139419047Y-105942857D01*
X139371428Y-105919047D01*
X139347619Y-105895238D01*
X139323809Y-105847619D01*
X139323809Y-105657142D01*
X139823809Y-105657142D01*
X139823809Y-105823809D01*
X139800000Y-105871428D01*
X139776190Y-105895238D01*
X139728571Y-105919047D01*
X139680952Y-105919047D01*
X139633333Y-105895238D01*
X139609523Y-105871428D01*
X139585714Y-105823809D01*
X139585714Y-105657142D01*
X142023809Y-107319047D02*
X142523809Y-107319047D01*
X142523809Y-107509523D01*
X142500000Y-107557142D01*
X142476190Y-107580952D01*
X142428571Y-107604761D01*
X142357142Y-107604761D01*
X142309523Y-107580952D01*
X142285714Y-107557142D01*
X142261904Y-107509523D01*
X142261904Y-107319047D01*
X124119047Y-104900000D02*
X124071428Y-104876190D01*
X124000000Y-104876190D01*
X123928571Y-104900000D01*
X123880952Y-104947619D01*
X123857142Y-104995238D01*
X123833333Y-105090476D01*
X123833333Y-105161904D01*
X123857142Y-105257142D01*
X123880952Y-105304761D01*
X123928571Y-105352380D01*
X124000000Y-105376190D01*
X124047619Y-105376190D01*
X124119047Y-105352380D01*
X124142857Y-105328571D01*
X124142857Y-105161904D01*
X124047619Y-105161904D01*
X124357142Y-105376190D02*
X124357142Y-104876190D01*
X124642857Y-105376190D01*
X124642857Y-104876190D01*
X124880952Y-105376190D02*
X124880952Y-104876190D01*
X125000000Y-104876190D01*
X125071428Y-104900000D01*
X125119047Y-104947619D01*
X125142857Y-104995238D01*
X125166666Y-105090476D01*
X125166666Y-105161904D01*
X125142857Y-105257142D01*
X125119047Y-105304761D01*
X125071428Y-105352380D01*
X125000000Y-105376190D01*
X124880952Y-105376190D01*
X139323809Y-107369047D02*
X139823809Y-107369047D01*
X139823809Y-107559523D01*
X139800000Y-107607142D01*
X139776190Y-107630952D01*
X139728571Y-107654761D01*
X139657142Y-107654761D01*
X139609523Y-107630952D01*
X139585714Y-107607142D01*
X139561904Y-107559523D01*
X139561904Y-107369047D01*
D11*
X117514285Y-106033333D02*
X117895238Y-106033333D01*
X117438095Y-106261904D02*
X117704761Y-105461904D01*
X117971428Y-106261904D01*
X118238095Y-105957142D02*
X118847619Y-105957142D01*
D10*
X142047619Y-105107142D02*
X142023809Y-105178571D01*
X142023809Y-105297619D01*
X142047619Y-105345238D01*
X142071428Y-105369047D01*
X142119047Y-105392857D01*
X142166666Y-105392857D01*
X142214285Y-105369047D01*
X142238095Y-105345238D01*
X142261904Y-105297619D01*
X142285714Y-105202380D01*
X142309523Y-105154761D01*
X142333333Y-105130952D01*
X142380952Y-105107142D01*
X142428571Y-105107142D01*
X142476190Y-105130952D01*
X142500000Y-105154761D01*
X142523809Y-105202380D01*
X142523809Y-105321428D01*
X142500000Y-105392857D01*
X142071428Y-105892857D02*
X142047619Y-105869047D01*
X142023809Y-105797619D01*
X142023809Y-105750000D01*
X142047619Y-105678571D01*
X142095238Y-105630952D01*
X142142857Y-105607142D01*
X142238095Y-105583333D01*
X142309523Y-105583333D01*
X142404761Y-105607142D01*
X142452380Y-105630952D01*
X142500000Y-105678571D01*
X142523809Y-105750000D01*
X142523809Y-105797619D01*
X142500000Y-105869047D01*
X142476190Y-105892857D01*
D11*
X143011904Y-109692857D02*
X143126190Y-109730952D01*
X143164285Y-109769047D01*
X143202380Y-109845238D01*
X143202380Y-109959523D01*
X143164285Y-110035714D01*
X143126190Y-110073809D01*
X143050000Y-110111904D01*
X142745238Y-110111904D01*
X142745238Y-109311904D01*
X143011904Y-109311904D01*
X143088095Y-109350000D01*
X143126190Y-109388095D01*
X143164285Y-109464285D01*
X143164285Y-109540476D01*
X143126190Y-109616666D01*
X143088095Y-109654761D01*
X143011904Y-109692857D01*
X142745238Y-109692857D01*
X143545238Y-109807142D02*
X144154761Y-109807142D01*
X140561904Y-109742857D02*
X140676190Y-109780952D01*
X140714285Y-109819047D01*
X140752380Y-109895238D01*
X140752380Y-110009523D01*
X140714285Y-110085714D01*
X140676190Y-110123809D01*
X140600000Y-110161904D01*
X140295238Y-110161904D01*
X140295238Y-109361904D01*
X140561904Y-109361904D01*
X140638095Y-109400000D01*
X140676190Y-109438095D01*
X140714285Y-109514285D01*
X140714285Y-109590476D01*
X140676190Y-109666666D01*
X140638095Y-109704761D01*
X140561904Y-109742857D01*
X140295238Y-109742857D01*
X141095238Y-109857142D02*
X141704761Y-109857142D01*
X141400000Y-110161904D02*
X141400000Y-109552380D01*
D10*
X117219047Y-114150000D02*
X117171428Y-114126190D01*
X117100000Y-114126190D01*
X117028571Y-114150000D01*
X116980952Y-114197619D01*
X116957142Y-114245238D01*
X116933333Y-114340476D01*
X116933333Y-114411904D01*
X116957142Y-114507142D01*
X116980952Y-114554761D01*
X117028571Y-114602380D01*
X117100000Y-114626190D01*
X117147619Y-114626190D01*
X117219047Y-114602380D01*
X117242857Y-114578571D01*
X117242857Y-114411904D01*
X117147619Y-114411904D01*
X117457142Y-114626190D02*
X117457142Y-114126190D01*
X117742857Y-114626190D01*
X117742857Y-114126190D01*
X117980952Y-114626190D02*
X117980952Y-114126190D01*
X118100000Y-114126190D01*
X118171428Y-114150000D01*
X118219047Y-114197619D01*
X118242857Y-114245238D01*
X118266666Y-114340476D01*
X118266666Y-114411904D01*
X118242857Y-114507142D01*
X118219047Y-114554761D01*
X118171428Y-114602380D01*
X118100000Y-114626190D01*
X117980952Y-114626190D01*
X118859523Y-114126190D02*
X118978571Y-114626190D01*
X119073809Y-114269047D01*
X119169047Y-114626190D01*
X119288095Y-114126190D01*
X119478571Y-114626190D02*
X119478571Y-114126190D01*
X119764285Y-114626190D02*
X119550000Y-114340476D01*
X119764285Y-114126190D02*
X119478571Y-114411904D01*
X119978571Y-114364285D02*
X120145238Y-114364285D01*
X120216666Y-114626190D02*
X119978571Y-114626190D01*
X119978571Y-114126190D01*
X120216666Y-114126190D01*
X121369047Y-114626190D02*
X121369047Y-114126190D01*
X121559523Y-114126190D01*
X121607142Y-114150000D01*
X121630952Y-114173809D01*
X121654761Y-114221428D01*
X121654761Y-114292857D01*
X121630952Y-114340476D01*
X121607142Y-114364285D01*
X121559523Y-114388095D01*
X121369047Y-114388095D01*
D11*
X140702380Y-113735714D02*
X140664285Y-113773809D01*
X140550000Y-113811904D01*
X140473809Y-113811904D01*
X140359523Y-113773809D01*
X140283333Y-113697619D01*
X140245238Y-113621428D01*
X140207142Y-113469047D01*
X140207142Y-113354761D01*
X140245238Y-113202380D01*
X140283333Y-113126190D01*
X140359523Y-113050000D01*
X140473809Y-113011904D01*
X140550000Y-113011904D01*
X140664285Y-113050000D01*
X140702380Y-113088095D01*
X141045238Y-113507142D02*
X141654761Y-113507142D01*
X141350000Y-113811904D02*
X141350000Y-113202380D01*
X143202380Y-113785714D02*
X143164285Y-113823809D01*
X143050000Y-113861904D01*
X142973809Y-113861904D01*
X142859523Y-113823809D01*
X142783333Y-113747619D01*
X142745238Y-113671428D01*
X142707142Y-113519047D01*
X142707142Y-113404761D01*
X142745238Y-113252380D01*
X142783333Y-113176190D01*
X142859523Y-113100000D01*
X142973809Y-113061904D01*
X143050000Y-113061904D01*
X143164285Y-113100000D01*
X143202380Y-113138095D01*
X143545238Y-113557142D02*
X144154761Y-113557142D01*
D12*
X114995238Y-116130952D02*
X115223809Y-116130952D01*
X115109523Y-116530952D02*
X115109523Y-116130952D01*
X115319047Y-116130952D02*
X115585714Y-116530952D01*
X115585714Y-116130952D02*
X115319047Y-116530952D01*
X113483333Y-116530952D02*
X113350000Y-116340476D01*
X113254761Y-116530952D02*
X113254761Y-116130952D01*
X113407142Y-116130952D01*
X113445238Y-116150000D01*
X113464285Y-116169047D01*
X113483333Y-116207142D01*
X113483333Y-116264285D01*
X113464285Y-116302380D01*
X113445238Y-116321428D01*
X113407142Y-116340476D01*
X113254761Y-116340476D01*
X113616666Y-116130952D02*
X113883333Y-116530952D01*
X113883333Y-116130952D02*
X113616666Y-116530952D01*
X111466666Y-111980952D02*
X111466666Y-111580952D01*
X111619047Y-111580952D01*
X111657142Y-111600000D01*
X111676190Y-111619047D01*
X111695238Y-111657142D01*
X111695238Y-111714285D01*
X111676190Y-111752380D01*
X111657142Y-111771428D01*
X111619047Y-111790476D01*
X111466666Y-111790476D01*
X111828571Y-111580952D02*
X111923809Y-111980952D01*
X112000000Y-111695238D01*
X112076190Y-111980952D01*
X112171428Y-111580952D01*
X112552380Y-111980952D02*
X112419047Y-111790476D01*
X112323809Y-111980952D02*
X112323809Y-111580952D01*
X112476190Y-111580952D01*
X112514285Y-111600000D01*
X112533333Y-111619047D01*
X112552380Y-111657142D01*
X112552380Y-111714285D01*
X112533333Y-111752380D01*
X112514285Y-111771428D01*
X112476190Y-111790476D01*
X112323809Y-111790476D01*
D13*
X138542857Y-102652380D02*
X138585714Y-102676190D01*
X138657142Y-102676190D01*
X138685714Y-102652380D01*
X138700000Y-102628571D01*
X138714285Y-102580952D01*
X138714285Y-102533333D01*
X138700000Y-102485714D01*
X138685714Y-102461904D01*
X138657142Y-102438095D01*
X138600000Y-102414285D01*
X138571428Y-102390476D01*
X138557142Y-102366666D01*
X138542857Y-102319047D01*
X138542857Y-102271428D01*
X138557142Y-102223809D01*
X138571428Y-102200000D01*
X138600000Y-102176190D01*
X138671428Y-102176190D01*
X138714285Y-102200000D01*
X139014285Y-102628571D02*
X139000000Y-102652380D01*
X138957142Y-102676190D01*
X138928571Y-102676190D01*
X138885714Y-102652380D01*
X138857142Y-102604761D01*
X138842857Y-102557142D01*
X138828571Y-102461904D01*
X138828571Y-102390476D01*
X138842857Y-102295238D01*
X138857142Y-102247619D01*
X138885714Y-102200000D01*
X138928571Y-102176190D01*
X138957142Y-102176190D01*
X139000000Y-102200000D01*
X139014285Y-102223809D01*
X139285714Y-102676190D02*
X139142857Y-102676190D01*
X139142857Y-102176190D01*
X139385714Y-102676190D02*
X139385714Y-102176190D01*
X139557142Y-102676190D02*
X139428571Y-102390476D01*
X139557142Y-102176190D02*
X139385714Y-102461904D01*
X137328571Y-102676190D02*
X137328571Y-102176190D01*
X137428571Y-102533333D01*
X137528571Y-102176190D01*
X137528571Y-102676190D01*
X137671428Y-102676190D02*
X137671428Y-102176190D01*
X137800000Y-102652380D02*
X137842857Y-102676190D01*
X137914285Y-102676190D01*
X137942857Y-102652380D01*
X137957142Y-102628571D01*
X137971428Y-102580952D01*
X137971428Y-102533333D01*
X137957142Y-102485714D01*
X137942857Y-102461904D01*
X137914285Y-102438095D01*
X137857142Y-102414285D01*
X137828571Y-102390476D01*
X137814285Y-102366666D01*
X137800000Y-102319047D01*
X137800000Y-102271428D01*
X137814285Y-102223809D01*
X137828571Y-102200000D01*
X137857142Y-102176190D01*
X137928571Y-102176190D01*
X137971428Y-102200000D01*
X138157142Y-102176190D02*
X138214285Y-102176190D01*
X138242857Y-102200000D01*
X138271428Y-102247619D01*
X138285714Y-102342857D01*
X138285714Y-102509523D01*
X138271428Y-102604761D01*
X138242857Y-102652380D01*
X138214285Y-102676190D01*
X138157142Y-102676190D01*
X138128571Y-102652380D01*
X138100000Y-102604761D01*
X138085714Y-102509523D01*
X138085714Y-102342857D01*
X138100000Y-102247619D01*
X138128571Y-102200000D01*
X138157142Y-102176190D01*
X136028571Y-102676190D02*
X136028571Y-102176190D01*
X136128571Y-102533333D01*
X136228571Y-102176190D01*
X136228571Y-102676190D01*
X136428571Y-102176190D02*
X136485714Y-102176190D01*
X136514285Y-102200000D01*
X136542857Y-102247619D01*
X136557142Y-102342857D01*
X136557142Y-102509523D01*
X136542857Y-102604761D01*
X136514285Y-102652380D01*
X136485714Y-102676190D01*
X136428571Y-102676190D01*
X136400000Y-102652380D01*
X136371428Y-102604761D01*
X136357142Y-102509523D01*
X136357142Y-102342857D01*
X136371428Y-102247619D01*
X136400000Y-102200000D01*
X136428571Y-102176190D01*
X136671428Y-102652380D02*
X136714285Y-102676190D01*
X136785714Y-102676190D01*
X136814285Y-102652380D01*
X136828571Y-102628571D01*
X136842857Y-102580952D01*
X136842857Y-102533333D01*
X136828571Y-102485714D01*
X136814285Y-102461904D01*
X136785714Y-102438095D01*
X136728571Y-102414285D01*
X136700000Y-102390476D01*
X136685714Y-102366666D01*
X136671428Y-102319047D01*
X136671428Y-102271428D01*
X136685714Y-102223809D01*
X136700000Y-102200000D01*
X136728571Y-102176190D01*
X136800000Y-102176190D01*
X136842857Y-102200000D01*
X136971428Y-102676190D02*
X136971428Y-102176190D01*
D12*
X117223809Y-112186904D02*
X117280952Y-112205952D01*
X117376190Y-112205952D01*
X117414285Y-112186904D01*
X117433333Y-112167857D01*
X117452380Y-112129761D01*
X117452380Y-112091666D01*
X117433333Y-112053571D01*
X117414285Y-112034523D01*
X117376190Y-112015476D01*
X117300000Y-111996428D01*
X117261904Y-111977380D01*
X117242857Y-111958333D01*
X117223809Y-111920238D01*
X117223809Y-111882142D01*
X117242857Y-111844047D01*
X117261904Y-111825000D01*
X117300000Y-111805952D01*
X117395238Y-111805952D01*
X117452380Y-111825000D01*
X117852380Y-112167857D02*
X117833333Y-112186904D01*
X117776190Y-112205952D01*
X117738095Y-112205952D01*
X117680952Y-112186904D01*
X117642857Y-112148809D01*
X117623809Y-112110714D01*
X117604761Y-112034523D01*
X117604761Y-111977380D01*
X117623809Y-111901190D01*
X117642857Y-111863095D01*
X117680952Y-111825000D01*
X117738095Y-111805952D01*
X117776190Y-111805952D01*
X117833333Y-111825000D01*
X117852380Y-111844047D01*
X118214285Y-112205952D02*
X118023809Y-112205952D01*
X118023809Y-111805952D01*
X118464285Y-112186904D02*
X118521428Y-112205952D01*
X118616666Y-112205952D01*
X118654761Y-112186904D01*
X118673809Y-112167857D01*
X118692857Y-112129761D01*
X118692857Y-112091666D01*
X118673809Y-112053571D01*
X118654761Y-112034523D01*
X118616666Y-112015476D01*
X118540476Y-111996428D01*
X118502380Y-111977380D01*
X118483333Y-111958333D01*
X118464285Y-111920238D01*
X118464285Y-111882142D01*
X118483333Y-111844047D01*
X118502380Y-111825000D01*
X118540476Y-111805952D01*
X118635714Y-111805952D01*
X118692857Y-111825000D01*
X118864285Y-112205952D02*
X118864285Y-111805952D01*
X118959523Y-111805952D01*
X119016666Y-111825000D01*
X119054761Y-111863095D01*
X119073809Y-111901190D01*
X119092857Y-111977380D01*
X119092857Y-112034523D01*
X119073809Y-112110714D01*
X119054761Y-112148809D01*
X119016666Y-112186904D01*
X118959523Y-112205952D01*
X118864285Y-112205952D01*
X119245238Y-112091666D02*
X119435714Y-112091666D01*
X119207142Y-112205952D02*
X119340476Y-111805952D01*
X119473809Y-112205952D01*
X119945238Y-111825000D02*
X119907142Y-111805952D01*
X119850000Y-111805952D01*
X119792857Y-111825000D01*
X119754761Y-111863095D01*
X119735714Y-111901190D01*
X119716666Y-111977380D01*
X119716666Y-112034523D01*
X119735714Y-112110714D01*
X119754761Y-112148809D01*
X119792857Y-112186904D01*
X119850000Y-112205952D01*
X119888095Y-112205952D01*
X119945238Y-112186904D01*
X119964285Y-112167857D01*
X119964285Y-112034523D01*
X119888095Y-112034523D01*
X120135714Y-112205952D02*
X120135714Y-111805952D01*
X120364285Y-112205952D01*
X120364285Y-111805952D01*
X120554761Y-112205952D02*
X120554761Y-111805952D01*
X120650000Y-111805952D01*
X120707142Y-111825000D01*
X120745238Y-111863095D01*
X120764285Y-111901190D01*
X120783333Y-111977380D01*
X120783333Y-112034523D01*
X120764285Y-112110714D01*
X120745238Y-112148809D01*
X120707142Y-112186904D01*
X120650000Y-112205952D01*
X120554761Y-112205952D01*
X121004761Y-111755952D02*
X121252380Y-111755952D01*
X121119047Y-111908333D01*
X121176190Y-111908333D01*
X121214285Y-111927380D01*
X121233333Y-111946428D01*
X121252380Y-111984523D01*
X121252380Y-112079761D01*
X121233333Y-112117857D01*
X121214285Y-112136904D01*
X121176190Y-112155952D01*
X121061904Y-112155952D01*
X121023809Y-112136904D01*
X121004761Y-112117857D01*
X121366666Y-111755952D02*
X121500000Y-112155952D01*
X121633333Y-111755952D01*
X121728571Y-111755952D02*
X121976190Y-111755952D01*
X121842857Y-111908333D01*
X121900000Y-111908333D01*
X121938095Y-111927380D01*
X121957142Y-111946428D01*
X121976190Y-111984523D01*
X121976190Y-112079761D01*
X121957142Y-112117857D01*
X121938095Y-112136904D01*
X121900000Y-112155952D01*
X121785714Y-112155952D01*
X121747619Y-112136904D01*
X121728571Y-112117857D01*
D10*
X124855879Y-112918654D02*
X125074746Y-113137521D01*
X124822208Y-113154356D01*
X124872715Y-113204864D01*
X124889551Y-113255372D01*
X124889551Y-113289043D01*
X124872715Y-113339551D01*
X124788536Y-113423730D01*
X124738028Y-113440566D01*
X124704356Y-113440566D01*
X124653849Y-113423730D01*
X124552834Y-113322715D01*
X124535998Y-113272208D01*
X124535998Y-113238536D01*
X125175761Y-113238536D02*
X124940059Y-113709940D01*
X125411463Y-113474238D01*
X125495643Y-113558417D02*
X125714509Y-113777284D01*
X125461971Y-113794120D01*
X125512478Y-113844627D01*
X125529314Y-113895135D01*
X125529314Y-113928807D01*
X125512478Y-113979314D01*
X125428299Y-114063494D01*
X125377791Y-114080330D01*
X125344120Y-114080330D01*
X125293612Y-114063494D01*
X125192597Y-113962478D01*
X125175761Y-113911971D01*
X125175761Y-113878299D01*
X126219047Y-113075000D02*
X126171428Y-113051190D01*
X126100000Y-113051190D01*
X126028571Y-113075000D01*
X125980952Y-113122619D01*
X125957142Y-113170238D01*
X125933333Y-113265476D01*
X125933333Y-113336904D01*
X125957142Y-113432142D01*
X125980952Y-113479761D01*
X126028571Y-113527380D01*
X126100000Y-113551190D01*
X126147619Y-113551190D01*
X126219047Y-113527380D01*
X126242857Y-113503571D01*
X126242857Y-113336904D01*
X126147619Y-113336904D01*
X126457142Y-113551190D02*
X126457142Y-113051190D01*
X126742857Y-113551190D01*
X126742857Y-113051190D01*
X126980952Y-113551190D02*
X126980952Y-113051190D01*
X127100000Y-113051190D01*
X127171428Y-113075000D01*
X127219047Y-113122619D01*
X127242857Y-113170238D01*
X127266666Y-113265476D01*
X127266666Y-113336904D01*
X127242857Y-113432142D01*
X127219047Y-113479761D01*
X127171428Y-113527380D01*
X127100000Y-113551190D01*
X126980952Y-113551190D01*
X128723809Y-113001190D02*
X128890476Y-113501190D01*
X129057142Y-113001190D01*
X129223809Y-113310714D02*
X129604761Y-113310714D01*
X129414285Y-113501190D02*
X129414285Y-113120238D01*
X131169047Y-113050000D02*
X131121428Y-113026190D01*
X131050000Y-113026190D01*
X130978571Y-113050000D01*
X130930952Y-113097619D01*
X130907142Y-113145238D01*
X130883333Y-113240476D01*
X130883333Y-113311904D01*
X130907142Y-113407142D01*
X130930952Y-113454761D01*
X130978571Y-113502380D01*
X131050000Y-113526190D01*
X131097619Y-113526190D01*
X131169047Y-113502380D01*
X131192857Y-113478571D01*
X131192857Y-113311904D01*
X131097619Y-113311904D01*
X131407142Y-113526190D02*
X131407142Y-113026190D01*
X131692857Y-113526190D01*
X131692857Y-113026190D01*
X131930952Y-113526190D02*
X131930952Y-113026190D01*
X132050000Y-113026190D01*
X132121428Y-113050000D01*
X132169047Y-113097619D01*
X132192857Y-113145238D01*
X132216666Y-113240476D01*
X132216666Y-113311904D01*
X132192857Y-113407142D01*
X132169047Y-113454761D01*
X132121428Y-113502380D01*
X132050000Y-113526190D01*
X131930952Y-113526190D01*
D12*
X135030952Y-102676190D02*
X134897619Y-102438095D01*
X134802380Y-102676190D02*
X134802380Y-102176190D01*
X134954761Y-102176190D01*
X134992857Y-102200000D01*
X135011904Y-102223809D01*
X135030952Y-102271428D01*
X135030952Y-102342857D01*
X135011904Y-102390476D01*
X134992857Y-102414285D01*
X134954761Y-102438095D01*
X134802380Y-102438095D01*
X135183333Y-102652380D02*
X135240476Y-102676190D01*
X135335714Y-102676190D01*
X135373809Y-102652380D01*
X135392857Y-102628571D01*
X135411904Y-102580952D01*
X135411904Y-102533333D01*
X135392857Y-102485714D01*
X135373809Y-102461904D01*
X135335714Y-102438095D01*
X135259523Y-102414285D01*
X135221428Y-102390476D01*
X135202380Y-102366666D01*
X135183333Y-102319047D01*
X135183333Y-102271428D01*
X135202380Y-102223809D01*
X135221428Y-102200000D01*
X135259523Y-102176190D01*
X135354761Y-102176190D01*
X135411904Y-102200000D01*
X135526190Y-102176190D02*
X135754761Y-102176190D01*
X135640476Y-102676190D02*
X135640476Y-102176190D01*
X138180952Y-106926190D02*
X138047619Y-106688095D01*
X137952380Y-106926190D02*
X137952380Y-106426190D01*
X138104761Y-106426190D01*
X138142857Y-106450000D01*
X138161904Y-106473809D01*
X138180952Y-106521428D01*
X138180952Y-106592857D01*
X138161904Y-106640476D01*
X138142857Y-106664285D01*
X138104761Y-106688095D01*
X137952380Y-106688095D01*
X138333333Y-106902380D02*
X138390476Y-106926190D01*
X138485714Y-106926190D01*
X138523809Y-106902380D01*
X138542857Y-106878571D01*
X138561904Y-106830952D01*
X138561904Y-106783333D01*
X138542857Y-106735714D01*
X138523809Y-106711904D01*
X138485714Y-106688095D01*
X138409523Y-106664285D01*
X138371428Y-106640476D01*
X138352380Y-106616666D01*
X138333333Y-106569047D01*
X138333333Y-106521428D01*
X138352380Y-106473809D01*
X138371428Y-106450000D01*
X138409523Y-106426190D01*
X138504761Y-106426190D01*
X138561904Y-106450000D01*
X138676190Y-106426190D02*
X138904761Y-106426190D01*
X138790476Y-106926190D02*
X138790476Y-106426190D01*
D10*
X137116666Y-106926190D02*
X136950000Y-106688095D01*
X136830952Y-106926190D02*
X136830952Y-106426190D01*
X137021428Y-106426190D01*
X137069047Y-106450000D01*
X137092857Y-106473809D01*
X137116666Y-106521428D01*
X137116666Y-106592857D01*
X137092857Y-106640476D01*
X137069047Y-106664285D01*
X137021428Y-106688095D01*
X136830952Y-106688095D01*
X137283333Y-106426190D02*
X137616666Y-106926190D01*
X137616666Y-106426190D02*
X137283333Y-106926190D01*
X135519047Y-106426190D02*
X135804761Y-106426190D01*
X135661904Y-106926190D02*
X135661904Y-106426190D01*
X135923809Y-106426190D02*
X136257142Y-106926190D01*
X136257142Y-106426190D02*
X135923809Y-106926190D01*
D11*
X103715476Y-102200000D02*
X103639285Y-102161904D01*
X103525000Y-102161904D01*
X103410714Y-102200000D01*
X103334523Y-102276190D01*
X103296428Y-102352380D01*
X103258333Y-102504761D01*
X103258333Y-102619047D01*
X103296428Y-102771428D01*
X103334523Y-102847619D01*
X103410714Y-102923809D01*
X103525000Y-102961904D01*
X103601190Y-102961904D01*
X103715476Y-102923809D01*
X103753571Y-102885714D01*
X103753571Y-102619047D01*
X103601190Y-102619047D01*
X104096428Y-102961904D02*
X104096428Y-102161904D01*
X104553571Y-102961904D01*
X104553571Y-102161904D01*
X104934523Y-102961904D02*
X104934523Y-102161904D01*
X105125000Y-102161904D01*
X105239285Y-102200000D01*
X105315476Y-102276190D01*
X105353571Y-102352380D01*
X105391666Y-102504761D01*
X105391666Y-102619047D01*
X105353571Y-102771428D01*
X105315476Y-102847619D01*
X105239285Y-102923809D01*
X105125000Y-102961904D01*
X104934523Y-102961904D01*
X104088095Y-106463095D02*
X103288095Y-106729761D01*
X104088095Y-106996428D01*
X103592857Y-107263095D02*
X103592857Y-107872619D01*
X103288095Y-107567857D02*
X103897619Y-107567857D01*
X125633333Y-106616666D02*
X126100000Y-106616666D01*
X126033333Y-106616666D02*
X126066666Y-106650000D01*
X126100000Y-106716666D01*
X126100000Y-106816666D01*
X126066666Y-106883333D01*
X126000000Y-106916666D01*
X125633333Y-106916666D01*
X126000000Y-106916666D02*
X126066666Y-106950000D01*
X126100000Y-107016666D01*
X126100000Y-107116666D01*
X126066666Y-107183333D01*
X126000000Y-107216666D01*
X125633333Y-107216666D01*
X125633333Y-107550000D02*
X126100000Y-107550000D01*
X126333333Y-107550000D02*
X126300000Y-107516666D01*
X126266666Y-107550000D01*
X126300000Y-107583333D01*
X126333333Y-107550000D01*
X126266666Y-107550000D01*
X125666666Y-108183333D02*
X125633333Y-108116666D01*
X125633333Y-107983333D01*
X125666666Y-107916666D01*
X125700000Y-107883333D01*
X125766666Y-107850000D01*
X125966666Y-107850000D01*
X126033333Y-107883333D01*
X126066666Y-107916666D01*
X126100000Y-107983333D01*
X126100000Y-108116666D01*
X126066666Y-108183333D01*
X125633333Y-108483333D02*
X126100000Y-108483333D01*
X125966666Y-108483333D02*
X126033333Y-108516666D01*
X126066666Y-108550000D01*
X126100000Y-108616666D01*
X126100000Y-108683333D01*
X125633333Y-109016666D02*
X125666666Y-108950000D01*
X125700000Y-108916666D01*
X125766666Y-108883333D01*
X125966666Y-108883333D01*
X126033333Y-108916666D01*
X126066666Y-108950000D01*
X126100000Y-109016666D01*
X126100000Y-109116666D01*
X126066666Y-109183333D01*
X126033333Y-109216666D01*
X125966666Y-109250000D01*
X125766666Y-109250000D01*
X125700000Y-109216666D01*
X125666666Y-109183333D01*
X125633333Y-109116666D01*
X125633333Y-109016666D01*
X126000000Y-109783333D02*
X125966666Y-109883333D01*
X125933333Y-109916666D01*
X125866666Y-109950000D01*
X125766666Y-109950000D01*
X125700000Y-109916666D01*
X125666666Y-109883333D01*
X125633333Y-109816666D01*
X125633333Y-109550000D01*
X126333333Y-109550000D01*
X126333333Y-109783333D01*
X126300000Y-109850000D01*
X126266666Y-109883333D01*
X126200000Y-109916666D01*
X126133333Y-109916666D01*
X126066666Y-109883333D01*
X126033333Y-109850000D01*
X126000000Y-109783333D01*
X126000000Y-109550000D01*
X125633333Y-110350000D02*
X125666666Y-110283333D01*
X125700000Y-110250000D01*
X125766666Y-110216666D01*
X125966666Y-110216666D01*
X126033333Y-110250000D01*
X126066666Y-110283333D01*
X126100000Y-110350000D01*
X126100000Y-110450000D01*
X126066666Y-110516666D01*
X126033333Y-110550000D01*
X125966666Y-110583333D01*
X125766666Y-110583333D01*
X125700000Y-110550000D01*
X125666666Y-110516666D01*
X125633333Y-110450000D01*
X125633333Y-110350000D01*
X125666666Y-110850000D02*
X125633333Y-110950000D01*
X125633333Y-111116666D01*
X125666666Y-111183333D01*
X125700000Y-111216666D01*
X125766666Y-111250000D01*
X125833333Y-111250000D01*
X125900000Y-111216666D01*
X125933333Y-111183333D01*
X125966666Y-111116666D01*
X126000000Y-110983333D01*
X126033333Y-110916666D01*
X126066666Y-110883333D01*
X126133333Y-110850000D01*
X126200000Y-110850000D01*
X126266666Y-110883333D01*
X126300000Y-110916666D01*
X126333333Y-110983333D01*
X126333333Y-111150000D01*
X126300000Y-111250000D01*
X125633333Y-111883333D02*
X125633333Y-111550000D01*
X126333333Y-111550000D01*
X124433333Y-106983333D02*
X124900000Y-106983333D01*
X124766666Y-106983333D02*
X124833333Y-107016666D01*
X124866666Y-107050000D01*
X124900000Y-107116666D01*
X124900000Y-107183333D01*
X124466666Y-107683333D02*
X124433333Y-107616666D01*
X124433333Y-107483333D01*
X124466666Y-107416666D01*
X124533333Y-107383333D01*
X124800000Y-107383333D01*
X124866666Y-107416666D01*
X124900000Y-107483333D01*
X124900000Y-107616666D01*
X124866666Y-107683333D01*
X124800000Y-107716666D01*
X124733333Y-107716666D01*
X124666666Y-107383333D01*
X124900000Y-107950000D02*
X124433333Y-108116666D01*
X124900000Y-108283333D01*
X125133333Y-109216666D02*
X125133333Y-109283333D01*
X125100000Y-109350000D01*
X125066666Y-109383333D01*
X125000000Y-109416666D01*
X124866666Y-109450000D01*
X124700000Y-109450000D01*
X124566666Y-109416666D01*
X124500000Y-109383333D01*
X124466666Y-109350000D01*
X124433333Y-109283333D01*
X124433333Y-109216666D01*
X124466666Y-109150000D01*
X124500000Y-109116666D01*
X124566666Y-109083333D01*
X124700000Y-109050000D01*
X124866666Y-109050000D01*
X125000000Y-109083333D01*
X125066666Y-109116666D01*
X125100000Y-109150000D01*
X125133333Y-109216666D01*
X124500000Y-109750000D02*
X124466666Y-109783333D01*
X124433333Y-109750000D01*
X124466666Y-109716666D01*
X124500000Y-109750000D01*
X124433333Y-109750000D01*
X125066666Y-110050000D02*
X125100000Y-110083333D01*
X125133333Y-110150000D01*
X125133333Y-110316666D01*
X125100000Y-110383333D01*
X125066666Y-110416666D01*
X125000000Y-110450000D01*
X124933333Y-110450000D01*
X124833333Y-110416666D01*
X124433333Y-110016666D01*
X124433333Y-110450000D01*
X124500000Y-110750000D02*
X124466666Y-110783333D01*
X124433333Y-110750000D01*
X124466666Y-110716666D01*
X124500000Y-110750000D01*
X124433333Y-110750000D01*
X125133333Y-111216666D02*
X125133333Y-111283333D01*
X125100000Y-111350000D01*
X125066666Y-111383333D01*
X125000000Y-111416666D01*
X124866666Y-111450000D01*
X124700000Y-111450000D01*
X124566666Y-111416666D01*
X124500000Y-111383333D01*
X124466666Y-111350000D01*
X124433333Y-111283333D01*
X124433333Y-111216666D01*
X124466666Y-111150000D01*
X124500000Y-111116666D01*
X124566666Y-111083333D01*
X124700000Y-111050000D01*
X124866666Y-111050000D01*
X125000000Y-111083333D01*
X125066666Y-111116666D01*
X125100000Y-111150000D01*
X125133333Y-111216666D01*
D14*
X103275000Y-110750000D02*
X104025000Y-110750000D01*
X104025000Y-110750000D02*
X104025000Y-111350000D01*
X104025000Y-110450000D02*
X104025000Y-108300000D01*
X104025000Y-116600000D02*
X100475000Y-116600000D01*
X100475000Y-108300000D02*
X100475000Y-111200000D01*
X104025000Y-108300000D02*
X100475000Y-108300000D01*
X100475000Y-116600000D02*
X100475000Y-113700000D01*
X104025000Y-114450000D02*
X104025000Y-116600000D01*
X122195000Y-114610000D02*
X122195000Y-113807530D01*
X122195000Y-113192470D02*
X122195000Y-112390000D01*
X118450000Y-114610000D02*
X122195000Y-114610000D01*
X118450000Y-112390000D02*
X122195000Y-112390000D01*
X118450000Y-114610000D02*
X118450000Y-114063471D01*
X118450000Y-112936529D02*
X118450000Y-112390000D01*
X117690000Y-114610000D02*
X116930000Y-114610000D01*
X116930000Y-114610000D02*
X116930000Y-113500000D01*
X142440000Y-102440000D02*
X143500000Y-102440000D01*
X142440000Y-103500000D02*
X142440000Y-102440000D01*
X142440000Y-104500000D02*
X144560000Y-104500000D01*
X144560000Y-104500000D02*
X144560000Y-108560000D01*
X142440000Y-104500000D02*
X142440000Y-108560000D01*
X142440000Y-108560000D02*
X144560000Y-108560000D01*
X139940000Y-102440000D02*
X141000000Y-102440000D01*
X139940000Y-103500000D02*
X139940000Y-102440000D01*
X139940000Y-104500000D02*
X142060000Y-104500000D01*
X142060000Y-104500000D02*
X142060000Y-108560000D01*
X139940000Y-104500000D02*
X139940000Y-108560000D01*
X139940000Y-108560000D02*
X142060000Y-108560000D01*
X125760000Y-102440000D02*
X125760000Y-103500000D01*
X124700000Y-102440000D02*
X125760000Y-102440000D01*
X123700000Y-102440000D02*
X123700000Y-104560000D01*
X123700000Y-104560000D02*
X119640000Y-104560000D01*
X123700000Y-102440000D02*
X119640000Y-102440000D01*
X119640000Y-102440000D02*
X119640000Y-104560000D01*
X116440000Y-116560000D02*
X116440000Y-115500000D01*
X117500000Y-116560000D02*
X116440000Y-116560000D01*
X118500000Y-116560000D02*
X118500000Y-114440000D01*
X118500000Y-114440000D02*
X122560000Y-114440000D01*
X118500000Y-116560000D02*
X122560000Y-116560000D01*
X122560000Y-116560000D02*
X122560000Y-114440000D01*
X139310000Y-112000000D02*
X139310000Y-108550000D01*
X139310000Y-112000000D02*
X139310000Y-113950000D01*
X134190000Y-112000000D02*
X134190000Y-110050000D01*
X134190000Y-112000000D02*
X134190000Y-113950000D01*
X139570000Y-116530000D02*
X139570000Y-115200000D01*
X140900000Y-116530000D02*
X139570000Y-116530000D01*
X142170000Y-116530000D02*
X142170000Y-113870000D01*
X142170000Y-113870000D02*
X144770000Y-113870000D01*
X142170000Y-116530000D02*
X144770000Y-116530000D01*
X144770000Y-116530000D02*
X144770000Y-113870000D01*
X139570000Y-113030000D02*
X139570000Y-111700000D01*
X140900000Y-113030000D02*
X139570000Y-113030000D01*
X142170000Y-113030000D02*
X142170000Y-110370000D01*
X142170000Y-110370000D02*
X144770000Y-110370000D01*
X142170000Y-113030000D02*
X144770000Y-113030000D01*
X144770000Y-113030000D02*
X144770000Y-110370000D01*
X138642164Y-107860000D02*
X138857836Y-107860000D01*
X138642164Y-107140000D02*
X138857836Y-107140000D01*
X136757836Y-107140000D02*
X136542164Y-107140000D01*
X136757836Y-107860000D02*
X136542164Y-107860000D01*
X135165000Y-104090000D02*
X135165000Y-104892470D01*
X135165000Y-105507530D02*
X135165000Y-106310000D01*
X137640000Y-104090000D02*
X135165000Y-104090000D01*
X137640000Y-106310000D02*
X135165000Y-106310000D01*
X137640000Y-104090000D02*
X137640000Y-104636529D01*
X137640000Y-105763471D02*
X137640000Y-106310000D01*
X138400000Y-104090000D02*
X139160000Y-104090000D01*
X139160000Y-104090000D02*
X139160000Y-105200000D01*
X134545000Y-102440000D02*
X134545000Y-103242470D01*
X134545000Y-103857530D02*
X134545000Y-104660000D01*
X138290000Y-102440000D02*
X134545000Y-102440000D01*
X138290000Y-104660000D02*
X134545000Y-104660000D01*
X138290000Y-102440000D02*
X138290000Y-102986529D01*
X138290000Y-104113471D02*
X138290000Y-104660000D01*
X139050000Y-102440000D02*
X139810000Y-102440000D01*
X139810000Y-102440000D02*
X139810000Y-103550000D01*
X119000000Y-108900000D02*
X119000000Y-106500000D01*
X119000000Y-106500000D02*
X117400000Y-106500000D01*
X117400000Y-106500000D02*
X117400000Y-108900000D01*
X131185000Y-107340000D02*
X131560000Y-107340000D01*
X131560000Y-107340000D02*
X131560000Y-107715000D01*
X127715000Y-111560000D02*
X127340000Y-111560000D01*
X127340000Y-111560000D02*
X127340000Y-111185000D01*
X131185000Y-111560000D02*
X131560000Y-111560000D01*
X131560000Y-111560000D02*
X131560000Y-111185000D01*
X127715000Y-107340000D02*
X127340000Y-107340000D01*
X113600000Y-106150000D02*
X113600000Y-103150000D01*
X113600000Y-103150000D02*
X103800000Y-103150000D01*
X103800000Y-103150000D02*
X103800000Y-106150000D01*
X103800000Y-106150000D02*
X113600000Y-106150000D01*
X108700000Y-103150000D02*
X108700000Y-102150000D01*
X108700000Y-102150000D02*
X110200000Y-102150000D01*
X110200000Y-102150000D02*
X110200000Y-103150000D01*
X131450000Y-102950000D02*
X131450000Y-103550000D01*
X129350000Y-102250000D02*
X130750000Y-102250000D01*
X128650000Y-103550000D02*
X128650000Y-102950000D01*
X130750000Y-104250000D02*
X129350000Y-104250000D01*
X131450000Y-103550000D02*
G75*
G02*
X130750000Y-104250000I-700000J0D01*
G01*
X130750000Y-102250000D02*
G75*
G02*
X131450000Y-102950000I0J-700000D01*
G01*
X128650000Y-102950000D02*
G75*
G02*
X129350000Y-102250000I700000J0D01*
G01*
X129350000Y-104250000D02*
G75*
G02*
X128650000Y-103550000I0J700000D01*
G01*
X114877836Y-106560000D02*
X114662164Y-106560000D01*
X114877836Y-105840000D02*
X114662164Y-105840000D01*
X111640000Y-109627836D02*
X111640000Y-109412164D01*
X112360000Y-109627836D02*
X112360000Y-109412164D01*
X126440000Y-104907836D02*
X126440000Y-104692164D01*
X127160000Y-104907836D02*
X127160000Y-104692164D01*
X133260000Y-104692164D02*
X133260000Y-104907836D01*
X132540000Y-104692164D02*
X132540000Y-104907836D01*
D11*
X120775000Y-108725000D02*
X122925000Y-108725000D01*
X119950000Y-106475000D02*
X122925000Y-106475000D01*
D14*
X110572500Y-114835000D02*
X110572500Y-115310000D01*
X110572500Y-115310000D02*
X110097500Y-115310000D01*
X105352500Y-110565000D02*
X105352500Y-110090000D01*
X105352500Y-110090000D02*
X105827500Y-110090000D01*
X105352500Y-114835000D02*
X105352500Y-115310000D01*
X105352500Y-115310000D02*
X105827500Y-115310000D01*
X110572500Y-110565000D02*
X110572500Y-110090000D01*
X119470000Y-105080000D02*
X119470000Y-102420000D01*
X116870000Y-105080000D02*
X119470000Y-105080000D01*
X116870000Y-102420000D02*
X119470000Y-102420000D01*
X116870000Y-105080000D02*
X116870000Y-102420000D01*
X115600000Y-105080000D02*
X114270000Y-105080000D01*
X114270000Y-105080000D02*
X114270000Y-103750000D01*
X100470000Y-107670000D02*
X103130000Y-107670000D01*
X100470000Y-105070000D02*
X100470000Y-107670000D01*
X103130000Y-105070000D02*
X103130000Y-107670000D01*
X100470000Y-105070000D02*
X103130000Y-105070000D01*
X100470000Y-103800000D02*
X100470000Y-102470000D01*
X100470000Y-102470000D02*
X101800000Y-102470000D01*
X133000000Y-113870000D02*
X133000000Y-115200000D01*
X131670000Y-113870000D02*
X133000000Y-113870000D01*
X130400000Y-113870000D02*
X130400000Y-116530000D01*
X130400000Y-116530000D02*
X122720000Y-116530000D01*
X130400000Y-113870000D02*
X122720000Y-113870000D01*
X122720000Y-113870000D02*
X122720000Y-116530000D01*
X113600000Y-112485000D02*
X115885000Y-112485000D01*
X115885000Y-112485000D02*
X115885000Y-111015000D01*
X115885000Y-111015000D02*
X113600000Y-111015000D01*
X114273000Y-115230000D02*
X114273000Y-112945000D01*
X114273000Y-112945000D02*
X112803000Y-112945000D01*
X112803000Y-112945000D02*
X112803000Y-115230000D01*
X116051000Y-115230000D02*
X116051000Y-112945000D01*
X116051000Y-112945000D02*
X114581000Y-112945000D01*
X114581000Y-112945000D02*
X114581000Y-115230000D01*
D10*
X139476190Y-109480952D02*
X139880952Y-109480952D01*
X139928571Y-109457142D01*
X139952380Y-109433333D01*
X139976190Y-109385714D01*
X139976190Y-109290476D01*
X139952380Y-109242857D01*
X139928571Y-109219047D01*
X139880952Y-109195238D01*
X139476190Y-109195238D01*
X139690476Y-108885714D02*
X139666666Y-108933333D01*
X139642857Y-108957142D01*
X139595238Y-108980952D01*
X139571428Y-108980952D01*
X139523809Y-108957142D01*
X139500000Y-108933333D01*
X139476190Y-108885714D01*
X139476190Y-108790476D01*
X139500000Y-108742857D01*
X139523809Y-108719047D01*
X139571428Y-108695238D01*
X139595238Y-108695238D01*
X139642857Y-108719047D01*
X139666666Y-108742857D01*
X139690476Y-108790476D01*
X139690476Y-108885714D01*
X139714285Y-108933333D01*
X139738095Y-108957142D01*
X139785714Y-108980952D01*
X139880952Y-108980952D01*
X139928571Y-108957142D01*
X139952380Y-108933333D01*
X139976190Y-108885714D01*
X139976190Y-108790476D01*
X139952380Y-108742857D01*
X139928571Y-108719047D01*
X139880952Y-108695238D01*
X139785714Y-108695238D01*
X139738095Y-108719047D01*
X139714285Y-108742857D01*
X139690476Y-108790476D01*
X127019047Y-106226190D02*
X127019047Y-106630952D01*
X127042857Y-106678571D01*
X127066666Y-106702380D01*
X127114285Y-106726190D01*
X127209523Y-106726190D01*
X127257142Y-106702380D01*
X127280952Y-106678571D01*
X127304761Y-106630952D01*
X127304761Y-106226190D01*
X127495238Y-106226190D02*
X127804761Y-106226190D01*
X127638095Y-106416666D01*
X127709523Y-106416666D01*
X127757142Y-106440476D01*
X127780952Y-106464285D01*
X127804761Y-106511904D01*
X127804761Y-106630952D01*
X127780952Y-106678571D01*
X127757142Y-106702380D01*
X127709523Y-106726190D01*
X127566666Y-106726190D01*
X127519047Y-106702380D01*
X127495238Y-106678571D01*
D11*
X129016666Y-105133333D02*
X129116666Y-105166666D01*
X129283333Y-105166666D01*
X129350000Y-105133333D01*
X129383333Y-105100000D01*
X129416666Y-105033333D01*
X129416666Y-104966666D01*
X129383333Y-104900000D01*
X129350000Y-104866666D01*
X129283333Y-104833333D01*
X129150000Y-104800000D01*
X129083333Y-104766666D01*
X129050000Y-104733333D01*
X129016666Y-104666666D01*
X129016666Y-104600000D01*
X129050000Y-104533333D01*
X129083333Y-104500000D01*
X129150000Y-104466666D01*
X129316666Y-104466666D01*
X129416666Y-104500000D01*
X129650000Y-104466666D02*
X129816666Y-105166666D01*
X129950000Y-104666666D01*
X130083333Y-105166666D01*
X130250000Y-104466666D01*
X130883333Y-105166666D02*
X130483333Y-105166666D01*
X130683333Y-105166666D02*
X130683333Y-104466666D01*
X130616666Y-104566666D01*
X130550000Y-104633333D01*
X130483333Y-104666666D01*
D10*
X120019047Y-105826190D02*
X120019047Y-106230952D01*
X120042857Y-106278571D01*
X120066666Y-106302380D01*
X120114285Y-106326190D01*
X120209523Y-106326190D01*
X120257142Y-106302380D01*
X120280952Y-106278571D01*
X120304761Y-106230952D01*
X120304761Y-105826190D01*
X120757142Y-105826190D02*
X120661904Y-105826190D01*
X120614285Y-105850000D01*
X120590476Y-105873809D01*
X120542857Y-105945238D01*
X120519047Y-106040476D01*
X120519047Y-106230952D01*
X120542857Y-106278571D01*
X120566666Y-106302380D01*
X120614285Y-106326190D01*
X120709523Y-106326190D01*
X120757142Y-106302380D01*
X120780952Y-106278571D01*
X120804761Y-106230952D01*
X120804761Y-106111904D01*
X120780952Y-106064285D01*
X120757142Y-106040476D01*
X120709523Y-106016666D01*
X120614285Y-106016666D01*
X120566666Y-106040476D01*
X120542857Y-106064285D01*
X120519047Y-106111904D01*
X110119047Y-108926190D02*
X110119047Y-109330952D01*
X110142857Y-109378571D01*
X110166666Y-109402380D01*
X110214285Y-109426190D01*
X110309523Y-109426190D01*
X110357142Y-109402380D01*
X110380952Y-109378571D01*
X110404761Y-109330952D01*
X110404761Y-108926190D01*
X110595238Y-108926190D02*
X110928571Y-108926190D01*
X110714285Y-109426190D01*
M02*
