M48
; DRILL file {KiCad (5.1.9)-1} date 06/25/21 11:42:09
; FORMAT={-:-/ absolute / inch / decimal}
; #@! TF.CreationDate,2021-06-25T11:42:09+10:00
; #@! TF.GenerationSoftware,Kicad,Pcbnew,(5.1.9)-1
FMAT,2
INCH
T1C0.0118
T2C0.0157
T3C0.0197
T4C0.0256
T5C0.0315
T6C0.0394
T7C0.0300
%
G90
G05
T1
X3.9843Y-4.5197
X4.1102Y-4.1382
X4.1102Y-4.4016
X4.1102Y-4.4724
X4.2067Y-4.5768
X4.2756Y-4.1644
X4.2835Y-4.2343
X4.3593Y-4.1762
X4.3622Y-4.5354
X4.3957Y-4.4232
X4.4134Y-4.3976
X4.4488Y-4.0472
X4.4998Y-4.2217
X4.5039Y-4.3563
X4.5079Y-4.248
X4.5748Y-4.1516
X4.689Y-4.376
X4.7047Y-4.3228
X4.7677Y-4.3051
X4.7844Y-4.3632
X4.8885Y-4.2049
X4.8937Y-4.2953
X4.9094Y-4.187
X4.9193Y-4.2744
X4.9341Y-4.4281
X4.94Y-4.3403
X4.9409Y-4.2362
X4.9468Y-4.4526
X4.9591Y-4.0394
X4.9646Y-4.2736
X4.9722Y-4.0642
X5.0057Y-4.0364
X5.0305Y-4.4508
X5.0512Y-4.0687
X5.0625Y-4.4501
X5.0764Y-4.4263
X5.0916Y-4.4508
X5.1122Y-4.1875
X5.1211Y-4.4518
X5.1399Y-4.1875
X5.2116Y-4.4124
X5.2181Y-4.3032
X5.2244Y-4.0669
X5.2273Y-4.4351
X5.2323Y-4.2795
X5.2391Y-4.4098
X5.2618Y-4.3764
X5.2984Y-4.1449
X5.3057Y-4.2138
X5.3268Y-4.4055
X5.3327Y-4.2083
X5.437Y-4.5768
X5.5138Y-4.2953
T2
X3.9921Y-4.313
X4.1102Y-4.3307
X4.1417Y-4.5354
X4.1811Y-4.0787
X4.2077Y-4.2766
X4.2471Y-4.4324
X4.2907Y-4.4727
X4.321Y-4.2549
X4.5032Y-4.5282
X4.5807Y-4.1831
X4.8015Y-4.4157
X4.9016Y-4.4173
X4.9535Y-4.185
X5.1004Y-4.2815
X5.126Y-4.1614
X5.1457Y-4.0736
X5.1575Y-4.1575
X5.2587Y-4.3063
X5.2776Y-4.124
X5.3622Y-4.378
X5.4094Y-4.378
T4
X4.6335Y-4.4685
X4.6835Y-4.4685
X4.7335Y-4.4685
X4.7835Y-4.4685
X5.3244Y-4.0768
X5.3488Y-4.1417
X5.3744Y-4.0768
X5.3988Y-4.1417
X5.4244Y-4.0768
X5.4488Y-4.1417
X5.4744Y-4.0768
T5
X4.626Y-4.5472
X4.7047Y-4.5472
X4.752Y-4.0748
X4.7835Y-4.5472
X4.8307Y-4.0748
X4.9094Y-4.0748
X5.5512Y-4.0748
X5.5512Y-4.1535
X5.5512Y-4.2323
X5.6496Y-4.0748
X5.6496Y-4.1535
X5.6496Y-4.2323
T6
X4.0079Y-4.0866
X4.0079Y-4.1866
X4.5512Y-4.0846
X4.6512Y-4.0846
X4.8839Y-4.5354
X4.9839Y-4.5354
X5.0839Y-4.5354
X5.1839Y-4.5354
X5.5472Y-4.3976
X5.5472Y-4.5354
X5.6472Y-4.3976
X5.6472Y-4.5354
T7
X4.1713Y-4.1201
X4.3878Y-4.1201
T3
G00X3.9813Y-4.4055
M15
G01X3.9813Y-4.4488
M16
G05
G00X4.0659Y-4.3031
M15
G01X4.0659Y-4.3307
M16
G05
G00X4.0659Y-4.5236
M15
G01X4.0659Y-4.5512
M16
G05
T0
M30
