G04 #@! TF.GenerationSoftware,KiCad,Pcbnew,(6.0.4)*
G04 #@! TF.CreationDate,2022-06-20T11:49:59+10:00*
G04 #@! TF.ProjectId,microBoSL,6d696372-6f42-46f5-934c-2e6b69636164,0.3.0R*
G04 #@! TF.SameCoordinates,Original*
G04 #@! TF.FileFunction,Copper,L4,Bot*
G04 #@! TF.FilePolarity,Positive*
%FSLAX46Y46*%
G04 Gerber Fmt 4.6, Leading zero omitted, Abs format (unit mm)*
G04 Created by KiCad (PCBNEW (6.0.4)) date 2022-06-20 11:49:59*
%MOMM*%
%LPD*%
G01*
G04 APERTURE LIST*
G04 Aperture macros list*
%AMRoundRect*
0 Rectangle with rounded corners*
0 $1 Rounding radius*
0 $2 $3 $4 $5 $6 $7 $8 $9 X,Y pos of 4 corners*
0 Add a 4 corners polygon primitive as box body*
4,1,4,$2,$3,$4,$5,$6,$7,$8,$9,$2,$3,0*
0 Add four circle primitives for the rounded corners*
1,1,$1+$1,$2,$3*
1,1,$1+$1,$4,$5*
1,1,$1+$1,$6,$7*
1,1,$1+$1,$8,$9*
0 Add four rect primitives between the rounded corners*
20,1,$1+$1,$2,$3,$4,$5,0*
20,1,$1+$1,$4,$5,$6,$7,0*
20,1,$1+$1,$6,$7,$8,$9,0*
20,1,$1+$1,$8,$9,$2,$3,0*%
%AMFreePoly0*
4,1,22,0.500000,-0.750000,0.000000,-0.750000,0.000000,-0.745033,-0.079941,-0.743568,-0.215256,-0.701293,-0.333266,-0.622738,-0.424486,-0.514219,-0.481581,-0.384460,-0.499164,-0.250000,-0.500000,-0.250000,-0.500000,0.250000,-0.499164,0.250000,-0.499963,0.256109,-0.478152,0.396186,-0.417904,0.524511,-0.324060,0.630769,-0.204165,0.706417,-0.067858,0.745374,0.000000,0.744959,0.000000,0.750000,
0.500000,0.750000,0.500000,-0.750000,0.500000,-0.750000,$1*%
%AMFreePoly1*
4,1,20,0.000000,0.744959,0.073905,0.744508,0.209726,0.703889,0.328688,0.626782,0.421226,0.519385,0.479903,0.390333,0.500000,0.250000,0.500000,-0.250000,0.499851,-0.262216,0.476331,-0.402017,0.414519,-0.529596,0.319384,-0.634700,0.198574,-0.708877,0.061801,-0.746166,0.000000,-0.745033,0.000000,-0.750000,-0.500000,-0.750000,-0.500000,0.750000,0.000000,0.750000,0.000000,0.744959,
0.000000,0.744959,$1*%
G04 Aperture macros list end*
G04 #@! TA.AperFunction,ComponentPad*
%ADD10R,1.700000X1.700000*%
G04 #@! TD*
G04 #@! TA.AperFunction,ComponentPad*
%ADD11O,1.700000X1.700000*%
G04 #@! TD*
G04 #@! TA.AperFunction,ComponentPad*
%ADD12O,1.100000X1.800000*%
G04 #@! TD*
G04 #@! TA.AperFunction,ComponentPad*
%ADD13O,1.100000X2.200000*%
G04 #@! TD*
G04 #@! TA.AperFunction,ComponentPad*
%ADD14R,1.000000X1.000000*%
G04 #@! TD*
G04 #@! TA.AperFunction,ComponentPad*
%ADD15O,1.000000X1.000000*%
G04 #@! TD*
G04 #@! TA.AperFunction,WasherPad*
%ADD16C,1.100000*%
G04 #@! TD*
G04 #@! TA.AperFunction,ComponentPad*
%ADD17C,0.500000*%
G04 #@! TD*
G04 #@! TA.AperFunction,SMDPad,CuDef*
%ADD18R,2.600000X2.600000*%
G04 #@! TD*
G04 #@! TA.AperFunction,SMDPad,CuDef*
%ADD19RoundRect,0.250000X0.250000X0.475000X-0.250000X0.475000X-0.250000X-0.475000X0.250000X-0.475000X0*%
G04 #@! TD*
G04 #@! TA.AperFunction,SMDPad,CuDef*
%ADD20RoundRect,0.147500X-0.147500X-0.172500X0.147500X-0.172500X0.147500X0.172500X-0.147500X0.172500X0*%
G04 #@! TD*
G04 #@! TA.AperFunction,SMDPad,CuDef*
%ADD21RoundRect,0.140000X-0.140000X-0.170000X0.140000X-0.170000X0.140000X0.170000X-0.140000X0.170000X0*%
G04 #@! TD*
G04 #@! TA.AperFunction,SMDPad,CuDef*
%ADD22R,0.700000X0.450000*%
G04 #@! TD*
G04 #@! TA.AperFunction,SMDPad,CuDef*
%ADD23RoundRect,0.147500X0.147500X0.172500X-0.147500X0.172500X-0.147500X-0.172500X0.147500X-0.172500X0*%
G04 #@! TD*
G04 #@! TA.AperFunction,SMDPad,CuDef*
%ADD24RoundRect,0.147500X-0.172500X0.147500X-0.172500X-0.147500X0.172500X-0.147500X0.172500X0.147500X0*%
G04 #@! TD*
G04 #@! TA.AperFunction,SMDPad,CuDef*
%ADD25RoundRect,0.140000X-0.170000X0.140000X-0.170000X-0.140000X0.170000X-0.140000X0.170000X0.140000X0*%
G04 #@! TD*
G04 #@! TA.AperFunction,SMDPad,CuDef*
%ADD26FreePoly0,0.000000*%
G04 #@! TD*
G04 #@! TA.AperFunction,SMDPad,CuDef*
%ADD27FreePoly1,0.000000*%
G04 #@! TD*
G04 #@! TA.AperFunction,SMDPad,CuDef*
%ADD28R,1.450000X0.450000*%
G04 #@! TD*
G04 #@! TA.AperFunction,SMDPad,CuDef*
%ADD29RoundRect,0.150000X-0.150000X0.825000X-0.150000X-0.825000X0.150000X-0.825000X0.150000X0.825000X0*%
G04 #@! TD*
G04 #@! TA.AperFunction,SMDPad,CuDef*
%ADD30RoundRect,0.150000X0.150000X-0.512500X0.150000X0.512500X-0.150000X0.512500X-0.150000X-0.512500X0*%
G04 #@! TD*
G04 #@! TA.AperFunction,SMDPad,CuDef*
%ADD31RoundRect,0.250001X0.462499X0.624999X-0.462499X0.624999X-0.462499X-0.624999X0.462499X-0.624999X0*%
G04 #@! TD*
G04 #@! TA.AperFunction,SMDPad,CuDef*
%ADD32R,0.450000X0.700000*%
G04 #@! TD*
G04 #@! TA.AperFunction,SMDPad,CuDef*
%ADD33RoundRect,0.140000X0.170000X-0.140000X0.170000X0.140000X-0.170000X0.140000X-0.170000X-0.140000X0*%
G04 #@! TD*
G04 #@! TA.AperFunction,SMDPad,CuDef*
%ADD34R,0.600000X0.450000*%
G04 #@! TD*
G04 #@! TA.AperFunction,ViaPad*
%ADD35C,0.500000*%
G04 #@! TD*
G04 #@! TA.AperFunction,ViaPad*
%ADD36C,0.600000*%
G04 #@! TD*
G04 #@! TA.AperFunction,Conductor*
%ADD37C,0.200000*%
G04 #@! TD*
G04 #@! TA.AperFunction,Conductor*
%ADD38C,0.400000*%
G04 #@! TD*
G04 #@! TA.AperFunction,Conductor*
%ADD39C,0.600000*%
G04 #@! TD*
G04 APERTURE END LIST*
D10*
X112980000Y-113390000D03*
D11*
X115520000Y-113390000D03*
X118060000Y-113390000D03*
X120600000Y-113390000D03*
D10*
X140920000Y-113390000D03*
D11*
X138380000Y-113390000D03*
X135840000Y-113390000D03*
X133300000Y-113390000D03*
D10*
X145000000Y-108275000D03*
D11*
X145000000Y-110815000D03*
X145000000Y-113355000D03*
D12*
X103300000Y-107600000D03*
D13*
X101150000Y-110400000D03*
D12*
X103300000Y-113200000D03*
D10*
X150400000Y-108275000D03*
D11*
X150400000Y-110815000D03*
X150400000Y-113355000D03*
D14*
X119955000Y-101650000D03*
D15*
X118685000Y-101650000D03*
X117415000Y-101650000D03*
X116145000Y-101650000D03*
D10*
X147700000Y-108275000D03*
D11*
X147700000Y-110815000D03*
X147700000Y-113355000D03*
D10*
X104440000Y-101900000D03*
D11*
X101900000Y-101900000D03*
D16*
X112210000Y-102740000D03*
X109210000Y-102740000D03*
D17*
X137035000Y-104440000D03*
X137035000Y-106540000D03*
X134935000Y-104440000D03*
X134935000Y-106540000D03*
D18*
X135985000Y-105490000D03*
D10*
X150340000Y-103605000D03*
X125485000Y-101840000D03*
D11*
X122945000Y-101840000D03*
D19*
X113160000Y-109040000D03*
X111260000Y-109040000D03*
D20*
X129725000Y-108640000D03*
X130695000Y-108640000D03*
D21*
X105470000Y-112670000D03*
X106430000Y-112670000D03*
X114550000Y-103610000D03*
X115510000Y-103610000D03*
D22*
X107210000Y-107990000D03*
X107210000Y-106690000D03*
X109210000Y-107340000D03*
D23*
X115495000Y-105140000D03*
X114525000Y-105140000D03*
D24*
X105360000Y-108755000D03*
X105360000Y-109725000D03*
D25*
X105350000Y-106580000D03*
X105350000Y-107540000D03*
D20*
X105465000Y-111520000D03*
X106435000Y-111520000D03*
D26*
X113160000Y-101140000D03*
D27*
X114460000Y-101140000D03*
D28*
X122960000Y-105390000D03*
X122960000Y-106040000D03*
X122960000Y-106690000D03*
X122960000Y-107340000D03*
X122960000Y-107990000D03*
X122960000Y-108640000D03*
X122960000Y-109290000D03*
X117060000Y-109290000D03*
X117060000Y-108640000D03*
X117060000Y-107990000D03*
X117060000Y-107340000D03*
X117060000Y-106690000D03*
X117060000Y-106040000D03*
X117060000Y-105390000D03*
D29*
X128270000Y-101465000D03*
X129540000Y-101465000D03*
X130810000Y-101465000D03*
X132080000Y-101465000D03*
X132080000Y-106415000D03*
X130810000Y-106415000D03*
X129540000Y-106415000D03*
X128270000Y-106415000D03*
D23*
X107495000Y-104840000D03*
X106525000Y-104840000D03*
D30*
X113160000Y-106977500D03*
X112210000Y-106977500D03*
X111260000Y-106977500D03*
X111260000Y-104702500D03*
X113160000Y-104702500D03*
D31*
X104197500Y-104840000D03*
X101222500Y-104840000D03*
D32*
X107760000Y-103440000D03*
X106460000Y-103440000D03*
X107110000Y-101440000D03*
D25*
X127300000Y-112820000D03*
X127300000Y-113780000D03*
D33*
X128500000Y-113780000D03*
X128500000Y-112820000D03*
D34*
X109160000Y-109640000D03*
X107060000Y-109640000D03*
D25*
X126100000Y-112820000D03*
X126100000Y-113780000D03*
D35*
X146250000Y-104500000D03*
D36*
X135010000Y-105480000D03*
D35*
X142500000Y-101750000D03*
X147000000Y-104500000D03*
X145500000Y-101750000D03*
X144750000Y-104500000D03*
X145500000Y-104500000D03*
X146250000Y-101750000D03*
D36*
X136970000Y-105490000D03*
D35*
X141000000Y-101750000D03*
X142250000Y-107000000D03*
X142250000Y-106250000D03*
X137900000Y-109000000D03*
X111500347Y-111122541D03*
X142750000Y-105750000D03*
X123900000Y-112700000D03*
X148500000Y-104500000D03*
D36*
X136000000Y-106500000D03*
X136000000Y-105450000D03*
D35*
X140400000Y-109500000D03*
X126990000Y-106410000D03*
X143250000Y-104500000D03*
X141000000Y-103250000D03*
X131190000Y-112730000D03*
X147750000Y-101750000D03*
X101600000Y-107200000D03*
X143250000Y-101750000D03*
X119961876Y-106558788D03*
X138750000Y-107500000D03*
X140250000Y-101750000D03*
X144750000Y-101750000D03*
X111000000Y-101400000D03*
X141750000Y-107500000D03*
X104792039Y-113658316D03*
X133100000Y-110700000D03*
X147000000Y-101750000D03*
X141750000Y-101750000D03*
X147750000Y-104500000D03*
X141000000Y-102500000D03*
X143250000Y-105250000D03*
D36*
X136010000Y-104500000D03*
D35*
X138070000Y-103370000D03*
X144000000Y-104500000D03*
X108300000Y-106890243D03*
X148500000Y-101750000D03*
X144000000Y-101750000D03*
X139500000Y-107500000D03*
X126885511Y-110310000D03*
X130750000Y-103000000D03*
X139380000Y-101620000D03*
X112200000Y-104000000D03*
X117060000Y-103810000D03*
X139185000Y-100815000D03*
X130200000Y-109700000D03*
X104197500Y-104840000D03*
X131100000Y-113900000D03*
X124499011Y-111213016D03*
X104350500Y-109100000D03*
X107130000Y-114075980D03*
X124870000Y-110620000D03*
X124950986Y-109884317D03*
X128160000Y-103300500D03*
X138900000Y-109850980D03*
X125069020Y-105200000D03*
X131700000Y-109000000D03*
X124942167Y-104503344D03*
X118680000Y-108740500D03*
X121106444Y-104449020D03*
X118634901Y-108008488D03*
X120410579Y-104377773D03*
X104340500Y-109800000D03*
X104430932Y-111508044D03*
X116000000Y-110100000D03*
X107200000Y-105900000D03*
X115550500Y-106715689D03*
X111809500Y-110380000D03*
X109590734Y-106490734D03*
X105250500Y-113130000D03*
X118201470Y-106100000D03*
X111400000Y-113400000D03*
X114200000Y-106800000D03*
X116490000Y-103110000D03*
X131472880Y-109827119D03*
X127670000Y-103850000D03*
X129000000Y-102900011D03*
X128480000Y-110390000D03*
X110700000Y-113600000D03*
X113950500Y-107740000D03*
X119736724Y-104190096D03*
X124884401Y-109187991D03*
X138000000Y-107500000D03*
X126250000Y-110630000D03*
X125553116Y-110469483D03*
X133000000Y-103000000D03*
X121655944Y-106351843D03*
X129540000Y-101465000D03*
X110000000Y-101000000D03*
X123420000Y-111163050D03*
X109100000Y-103900000D03*
X108460000Y-105190000D03*
X134200000Y-107749500D03*
X131850500Y-108300000D03*
D37*
X126100000Y-113780000D02*
X124980000Y-113780000D01*
X121814119Y-105390000D02*
X122960000Y-105390000D01*
X104792039Y-113658316D02*
X105001689Y-113658316D01*
X126995000Y-106415000D02*
X128270000Y-106415000D01*
X106435000Y-111520000D02*
X106435000Y-112665000D01*
X111260000Y-110882194D02*
X111260000Y-109040000D01*
X124980000Y-113780000D02*
X123900000Y-112700000D01*
X121041212Y-106558788D02*
X121100000Y-106500000D01*
X119961876Y-106558788D02*
X121041212Y-106558788D01*
X121960000Y-107340000D02*
X122960000Y-107340000D01*
X121100000Y-106104119D02*
X121814119Y-105390000D01*
X106230489Y-113679511D02*
X106430000Y-113480000D01*
X122035000Y-109290000D02*
X121800000Y-109055000D01*
D38*
X111260000Y-109040000D02*
X112210000Y-108090000D01*
D37*
X126990000Y-106410000D02*
X126995000Y-106415000D01*
X121100000Y-106500000D02*
X121100000Y-106104119D01*
X105022884Y-113679511D02*
X106230489Y-113679511D01*
X122960000Y-109290000D02*
X122035000Y-109290000D01*
X105350000Y-106580000D02*
X104970000Y-106200000D01*
X121100000Y-106800000D02*
X121100000Y-106500000D01*
X105001689Y-113658316D02*
X105022884Y-113679511D01*
X121800000Y-107500000D02*
X121100000Y-106800000D01*
X111000000Y-101400000D02*
X112900000Y-101400000D01*
X121800000Y-109055000D02*
X121800000Y-107500000D01*
X126100000Y-113780000D02*
X127300000Y-113780000D01*
X104970000Y-106200000D02*
X102150000Y-106200000D01*
X121800000Y-107500000D02*
X121960000Y-107340000D01*
X128270000Y-107185000D02*
X129725000Y-108640000D01*
X102150000Y-106200000D02*
X101600000Y-106750000D01*
X111500347Y-111122541D02*
X111260000Y-110882194D01*
X101600000Y-106750000D02*
X101600000Y-107200000D01*
X106430000Y-113480000D02*
X106430000Y-112670000D01*
D38*
X112210000Y-108090000D02*
X112210000Y-106977500D01*
D37*
X115840000Y-105140000D02*
X116090000Y-105390000D01*
X116090000Y-105390000D02*
X117060000Y-105390000D01*
X117060000Y-103810000D02*
X117060000Y-105390000D01*
X130695000Y-109205000D02*
X130200000Y-109700000D01*
X130695000Y-108640000D02*
X130695000Y-109205000D01*
X130750000Y-103000000D02*
X130750000Y-101525000D01*
X115495000Y-105140000D02*
X115840000Y-105140000D01*
D38*
X112200000Y-105300000D02*
X112200000Y-104000000D01*
X113160000Y-109040000D02*
X113160000Y-106977500D01*
X112200000Y-105300000D02*
X113160000Y-106260000D01*
X113160000Y-106977500D02*
X113160000Y-106260000D01*
D37*
X130810000Y-106415000D02*
X130810000Y-108525000D01*
D38*
X106460000Y-103440000D02*
X106460000Y-104775000D01*
X104197500Y-104840000D02*
X106525000Y-104840000D01*
D37*
X128620000Y-113900000D02*
X131100000Y-113900000D01*
X125225995Y-111940000D02*
X126880000Y-111940000D01*
X122875486Y-103210480D02*
X119916458Y-103210480D01*
X124499011Y-111213016D02*
X125225995Y-111940000D01*
X127900000Y-109000000D02*
X124519520Y-105619520D01*
X124519519Y-104854513D02*
X122875486Y-103210480D01*
X115100000Y-100500000D02*
X114460000Y-101140000D01*
X114550000Y-103610000D02*
X114550000Y-101230000D01*
X118685000Y-100985000D02*
X118200000Y-100500000D01*
X124519520Y-105619520D02*
X124519519Y-104854513D01*
X126880000Y-111940000D02*
X127900000Y-110920000D01*
X118200000Y-100500000D02*
X115100000Y-100500000D01*
X118685000Y-101650000D02*
X118685000Y-100985000D01*
X114525000Y-105140000D02*
X114525000Y-103635000D01*
X119916458Y-103210480D02*
X118685000Y-101979022D01*
X127900000Y-110920000D02*
X127900000Y-109000000D01*
X107130000Y-114075980D02*
X107260000Y-113945980D01*
X104450000Y-109100000D02*
X105075000Y-109725000D01*
X107060000Y-110760000D02*
X107060000Y-109640000D01*
X107260000Y-110960000D02*
X107060000Y-110760000D01*
D38*
X105360000Y-109725000D02*
X106975000Y-109725000D01*
D37*
X105075000Y-109725000D02*
X105360000Y-109725000D01*
X104350500Y-109100000D02*
X104450000Y-109100000D01*
X107260000Y-113945980D02*
X107260000Y-110960000D01*
X124120000Y-105020000D02*
X122710000Y-103610000D01*
X124870000Y-110620000D02*
X124917127Y-110620000D01*
X124917127Y-110620000D02*
X125827127Y-111530000D01*
X124120000Y-105785006D02*
X124120000Y-105020000D01*
X124870000Y-110620000D02*
X124863550Y-110613550D01*
X118770000Y-103610000D02*
X117415000Y-102255000D01*
X119610000Y-109290000D02*
X117060000Y-109290000D01*
X122710000Y-103610000D02*
X118770000Y-103610000D01*
X125827127Y-111530000D02*
X126724994Y-111530000D01*
X127435011Y-109100017D02*
X124120000Y-105785006D01*
X120933550Y-110613550D02*
X119610000Y-109290000D01*
X127435011Y-110819983D02*
X127435011Y-109100017D01*
X117415000Y-102255000D02*
X117415000Y-101650000D01*
X126724994Y-111530000D02*
X127435011Y-110819983D01*
X124863550Y-110613550D02*
X120933550Y-110613550D01*
X121114030Y-110214030D02*
X119360970Y-108460970D01*
X124599520Y-109764508D02*
X124149998Y-110214030D01*
X119360970Y-107300000D02*
X118750970Y-106690000D01*
X118750970Y-104560970D02*
X118750970Y-106690000D01*
X124950986Y-109884317D02*
X124831177Y-109764508D01*
X119360970Y-108460970D02*
X119360970Y-107300000D01*
X116145000Y-101955000D02*
X118750970Y-104560970D01*
X124149998Y-110214030D02*
X121114030Y-110214030D01*
X124831177Y-109764508D02*
X124599520Y-109764508D01*
X118750970Y-106690000D02*
X117060000Y-106690000D01*
X128540500Y-103300500D02*
X129840481Y-104600481D01*
X132565487Y-104600481D02*
X133200000Y-105234994D01*
X133200000Y-105234994D02*
X133200000Y-108800000D01*
X128160000Y-103300500D02*
X128540500Y-103300500D01*
X138548580Y-110202400D02*
X138900000Y-109850980D01*
X129840481Y-104600481D02*
X132565487Y-104600481D01*
X133200000Y-108800000D02*
X134602400Y-110202400D01*
X134602400Y-110202400D02*
X138548580Y-110202400D01*
X125069020Y-105604014D02*
X131245975Y-111780969D01*
X125069020Y-105200000D02*
X125069020Y-105604014D01*
X131245975Y-111780969D02*
X131583102Y-111780969D01*
X131602613Y-111800480D02*
X142500480Y-111800480D01*
X144055000Y-113355000D02*
X145000000Y-113355000D01*
X131583102Y-111780969D02*
X131602613Y-111800480D01*
X142500480Y-111800480D02*
X144055000Y-113355000D01*
X134178567Y-111001440D02*
X141098560Y-111001440D01*
X131700000Y-109265006D02*
X132585482Y-110150488D01*
X132585482Y-110150488D02*
X133327616Y-110150489D01*
X131700000Y-109000000D02*
X131700000Y-109265006D01*
X141098560Y-111001440D02*
X143825000Y-108275000D01*
X143825000Y-108275000D02*
X145000000Y-108275000D01*
X133327616Y-110150489D02*
X134178567Y-111001440D01*
X104430932Y-111508044D02*
X104340500Y-111417612D01*
X104340500Y-111417612D02*
X104340500Y-109800000D01*
X116000000Y-110100000D02*
X115900000Y-110000000D01*
X115900000Y-108900000D02*
X116160000Y-108640000D01*
X116160000Y-108640000D02*
X117060000Y-108640000D01*
X115900000Y-110000000D02*
X115900000Y-108900000D01*
X116174811Y-107340000D02*
X117060000Y-107340000D01*
X115550500Y-106715689D02*
X116174811Y-107340000D01*
X118201470Y-106100000D02*
X117120000Y-106100000D01*
X115449062Y-106040000D02*
X117060000Y-106040000D01*
X105250500Y-113130000D02*
X105470000Y-112910500D01*
X117060000Y-107990000D02*
X115640000Y-107990000D01*
X115000989Y-107350989D02*
X115000989Y-106488073D01*
X105470000Y-112910500D02*
X105470000Y-112670000D01*
X115640000Y-107990000D02*
X115000989Y-107350989D01*
X105470000Y-112670000D02*
X105470000Y-111525000D01*
X115000989Y-106488073D02*
X115449062Y-106040000D01*
X114560000Y-107160000D02*
X114560000Y-110405006D01*
X111400000Y-112670978D02*
X111400000Y-113400000D01*
X113065486Y-111899520D02*
X112171458Y-111899520D01*
X112171458Y-111899520D02*
X111400000Y-112670978D01*
X114560000Y-110405006D02*
X113065486Y-111899520D01*
X114200000Y-106800000D02*
X114560000Y-107160000D01*
X116490000Y-103110000D02*
X115990000Y-103610000D01*
X115990000Y-103610000D02*
X115510000Y-103610000D01*
X131472880Y-109850007D02*
X133023833Y-111400960D01*
X142665966Y-111400960D02*
X143365006Y-112100000D01*
X143365006Y-112100000D02*
X146445000Y-112100000D01*
X133023833Y-111400960D02*
X142665966Y-111400960D01*
X146445000Y-112100000D02*
X147700000Y-113355000D01*
X131472880Y-109827119D02*
X131472880Y-109850007D01*
X140933074Y-110601920D02*
X143500000Y-108034994D01*
X147290000Y-106800000D02*
X147700000Y-107210000D01*
X132800480Y-109000480D02*
X134401920Y-110601920D01*
X128524994Y-103850000D02*
X129674994Y-105000000D01*
X147700000Y-107210000D02*
X147700000Y-108275000D01*
X143500000Y-108034994D02*
X143500000Y-107200000D01*
X132400000Y-105000000D02*
X132800480Y-105400480D01*
X132800480Y-105400480D02*
X132800480Y-109000480D01*
X129674994Y-105000000D02*
X132400000Y-105000000D01*
X134401920Y-110601920D02*
X140933074Y-110601920D01*
X143900000Y-106800000D02*
X147290000Y-106800000D01*
X143500000Y-107200000D02*
X143900000Y-106800000D01*
X127670000Y-103850000D02*
X128524994Y-103850000D01*
X138170973Y-109802880D02*
X138672384Y-109301469D01*
X129000000Y-102900011D02*
X130300950Y-104200961D01*
X138672384Y-109301469D02*
X139127616Y-109301469D01*
X143084994Y-107884994D02*
X143084994Y-107050000D01*
X134802400Y-109802880D02*
X138170973Y-109802880D01*
X143084994Y-107050000D02*
X143734514Y-106400480D01*
X132730973Y-104200961D02*
X133650489Y-105120477D01*
X133650489Y-105120477D02*
X133650489Y-108650969D01*
X133650489Y-108650969D02*
X134802400Y-109802880D01*
X149540480Y-106400480D02*
X150400000Y-107260000D01*
X139127616Y-109301469D02*
X140028547Y-110202400D01*
X130300950Y-104200961D02*
X132730973Y-104200961D01*
X140767588Y-110202400D02*
X143084994Y-107884994D01*
X140028547Y-110202400D02*
X140767588Y-110202400D01*
X150400000Y-107260000D02*
X150400000Y-108275000D01*
X143734514Y-106400480D02*
X149540480Y-106400480D01*
X131437127Y-112200000D02*
X142300000Y-112200000D01*
X144400000Y-114700000D02*
X149055000Y-114700000D01*
X142300000Y-112200000D02*
X142800000Y-112700000D01*
X142800000Y-113100000D02*
X144400000Y-114700000D01*
X128480000Y-110390000D02*
X129290000Y-110390000D01*
X131417616Y-112180489D02*
X131437127Y-112200000D01*
X149055000Y-114700000D02*
X150400000Y-113355000D01*
X131080489Y-112180489D02*
X131417616Y-112180489D01*
X129290000Y-110390000D02*
X131080489Y-112180489D01*
X142800000Y-112700000D02*
X142800000Y-113100000D01*
X110700000Y-112700000D02*
X111900000Y-111500000D01*
X110700000Y-113600000D02*
X110700000Y-112700000D01*
X114160480Y-110239520D02*
X114160480Y-107949980D01*
X111900000Y-111500000D02*
X112900000Y-111500000D01*
X112900000Y-111500000D02*
X114160480Y-110239520D01*
X114160480Y-107949980D02*
X113950500Y-107740000D01*
X119412365Y-104514455D02*
X119412365Y-106786389D01*
X121279517Y-109814511D02*
X123984511Y-109814511D01*
X124611031Y-109187991D02*
X124884401Y-109187991D01*
X119760490Y-107134514D02*
X119760490Y-108295484D01*
X119760490Y-108295484D02*
X121279517Y-109814511D01*
X123984511Y-109814511D02*
X124611031Y-109187991D01*
X119412365Y-106786389D02*
X119760490Y-107134514D01*
X119736724Y-104190096D02*
X119412365Y-104514455D01*
D38*
X109660000Y-107340000D02*
X109210000Y-107340000D01*
D39*
X109560000Y-101440000D02*
X110000000Y-101000000D01*
D38*
X110400000Y-102400000D02*
X110400000Y-106600000D01*
X110400000Y-106600000D02*
X109660000Y-107340000D01*
X109440000Y-101440000D02*
X110400000Y-102400000D01*
X107110000Y-101440000D02*
X109440000Y-101440000D01*
X109440000Y-101440000D02*
X109560000Y-101440000D01*
D37*
X128500000Y-112820000D02*
X127300000Y-112820000D01*
X126100000Y-112820000D02*
X127300000Y-112820000D01*
X125070000Y-112820000D02*
X126100000Y-112820000D01*
X123420000Y-111170000D02*
X125070000Y-112820000D01*
X123420000Y-111163050D02*
X123420000Y-111170000D01*
D38*
X107210000Y-106690000D02*
X107210000Y-106718791D01*
X109160000Y-108660000D02*
X109187850Y-108660000D01*
X109187850Y-108660000D02*
X110870350Y-106977500D01*
X107210000Y-106718791D02*
X109151209Y-108660000D01*
X109151209Y-108660000D02*
X109160000Y-108660000D01*
X109160000Y-108660000D02*
X109160000Y-109640000D01*
X110870350Y-106977500D02*
X111260000Y-106977500D01*
D37*
X109160000Y-108660000D02*
X109160000Y-108640000D01*
D38*
X101000000Y-102800000D02*
X101000000Y-104617500D01*
X101900000Y-101900000D02*
X101000000Y-102800000D01*
X125485000Y-101840000D02*
X127895000Y-101840000D01*
X127895000Y-101840000D02*
X128270000Y-101465000D01*
X129540000Y-105571434D02*
X129540000Y-106415000D01*
X126190598Y-103290598D02*
X127399511Y-104499511D01*
X127399511Y-104499511D02*
X128468077Y-104499511D01*
X128468077Y-104499511D02*
X129540000Y-105571434D01*
X122945000Y-102145000D02*
X124090598Y-103290598D01*
X124090598Y-103290598D02*
X126190598Y-103290598D01*
D37*
X106290000Y-107990000D02*
X107210000Y-107990000D01*
X105350000Y-108745000D02*
X105350000Y-107540000D01*
X105840000Y-107540000D02*
X106290000Y-107990000D01*
X105350000Y-107540000D02*
X105840000Y-107540000D01*
X108700000Y-103900000D02*
X108240000Y-103440000D01*
X109100000Y-103900000D02*
X108700000Y-103900000D01*
X108240000Y-103440000D02*
X107760000Y-103440000D01*
X108110000Y-104840000D02*
X108460000Y-105190000D01*
X107495000Y-104840000D02*
X108110000Y-104840000D01*
X134200000Y-107749500D02*
X134200000Y-105100000D01*
X134200000Y-105100000D02*
X132080000Y-102980000D01*
X132080000Y-102980000D02*
X132080000Y-101465000D01*
X131850500Y-108300000D02*
X132080000Y-108070500D01*
X132080000Y-108070500D02*
X132080000Y-106415000D01*
M02*
