G04 #@! TF.GenerationSoftware,KiCad,Pcbnew,(5.1.5)-3*
G04 #@! TF.CreationDate,2020-12-08T16:20:55+11:00*
G04 #@! TF.ProjectId,microBoSL,6d696372-6f42-46f5-934c-2e6b69636164,0.1.0*
G04 #@! TF.SameCoordinates,Original*
G04 #@! TF.FileFunction,Soldermask,Top*
G04 #@! TF.FilePolarity,Negative*
%FSLAX46Y46*%
G04 Gerber Fmt 4.6, Leading zero omitted, Abs format (unit mm)*
G04 Created by KiCad (PCBNEW (5.1.5)-3) date 2020-12-08 16:20:55*
%MOMM*%
%LPD*%
G04 APERTURE LIST*
%ADD10R,1.700000X1.900000*%
%ADD11R,1.150000X0.700000*%
%ADD12O,1.400000X1.400000*%
%ADD13R,1.400000X1.400000*%
%ADD14C,0.100000*%
%ADD15R,1.300000X1.800000*%
%ADD16O,2.100000X2.100000*%
%ADD17R,2.100000X2.100000*%
%ADD18R,2.200000X1.400000*%
%ADD19O,1.500000X2.600000*%
%ADD20O,1.500000X2.200000*%
%ADD21R,1.900000X0.850000*%
G04 APERTURE END LIST*
D10*
X122550000Y-106600000D03*
D11*
X124000000Y-105850000D03*
X124000000Y-106350000D03*
X124000000Y-106850000D03*
X124000000Y-107350000D03*
X121100000Y-107350000D03*
X121100000Y-106850000D03*
X121100000Y-106350000D03*
X121100000Y-105850000D03*
D12*
X132600000Y-103650000D03*
X131330000Y-103650000D03*
X130060000Y-103650000D03*
X128790000Y-103650000D03*
X127520000Y-103650000D03*
X126250000Y-103650000D03*
X124980000Y-103650000D03*
X123710000Y-103650000D03*
X122440000Y-103650000D03*
D13*
X121170000Y-103650000D03*
D14*
G36*
X115471759Y-105231192D02*
G01*
X115495785Y-105234756D01*
X115519345Y-105240657D01*
X115542214Y-105248840D01*
X115564171Y-105259224D01*
X115585004Y-105271711D01*
X115604512Y-105286180D01*
X115622509Y-105302491D01*
X115638820Y-105320488D01*
X115653289Y-105339996D01*
X115665776Y-105360829D01*
X115676160Y-105382786D01*
X115684343Y-105405655D01*
X115690244Y-105429215D01*
X115693808Y-105453241D01*
X115695000Y-105477500D01*
X115695000Y-106022500D01*
X115693808Y-106046759D01*
X115690244Y-106070785D01*
X115684343Y-106094345D01*
X115676160Y-106117214D01*
X115665776Y-106139171D01*
X115653289Y-106160004D01*
X115638820Y-106179512D01*
X115622509Y-106197509D01*
X115604512Y-106213820D01*
X115585004Y-106228289D01*
X115564171Y-106240776D01*
X115542214Y-106251160D01*
X115519345Y-106259343D01*
X115495785Y-106265244D01*
X115471759Y-106268808D01*
X115447500Y-106270000D01*
X114952500Y-106270000D01*
X114928241Y-106268808D01*
X114904215Y-106265244D01*
X114880655Y-106259343D01*
X114857786Y-106251160D01*
X114835829Y-106240776D01*
X114814996Y-106228289D01*
X114795488Y-106213820D01*
X114777491Y-106197509D01*
X114761180Y-106179512D01*
X114746711Y-106160004D01*
X114734224Y-106139171D01*
X114723840Y-106117214D01*
X114715657Y-106094345D01*
X114709756Y-106070785D01*
X114706192Y-106046759D01*
X114705000Y-106022500D01*
X114705000Y-105477500D01*
X114706192Y-105453241D01*
X114709756Y-105429215D01*
X114715657Y-105405655D01*
X114723840Y-105382786D01*
X114734224Y-105360829D01*
X114746711Y-105339996D01*
X114761180Y-105320488D01*
X114777491Y-105302491D01*
X114795488Y-105286180D01*
X114814996Y-105271711D01*
X114835829Y-105259224D01*
X114857786Y-105248840D01*
X114880655Y-105240657D01*
X114904215Y-105234756D01*
X114928241Y-105231192D01*
X114952500Y-105230000D01*
X115447500Y-105230000D01*
X115471759Y-105231192D01*
G37*
G36*
X114501759Y-105231192D02*
G01*
X114525785Y-105234756D01*
X114549345Y-105240657D01*
X114572214Y-105248840D01*
X114594171Y-105259224D01*
X114615004Y-105271711D01*
X114634512Y-105286180D01*
X114652509Y-105302491D01*
X114668820Y-105320488D01*
X114683289Y-105339996D01*
X114695776Y-105360829D01*
X114706160Y-105382786D01*
X114714343Y-105405655D01*
X114720244Y-105429215D01*
X114723808Y-105453241D01*
X114725000Y-105477500D01*
X114725000Y-106022500D01*
X114723808Y-106046759D01*
X114720244Y-106070785D01*
X114714343Y-106094345D01*
X114706160Y-106117214D01*
X114695776Y-106139171D01*
X114683289Y-106160004D01*
X114668820Y-106179512D01*
X114652509Y-106197509D01*
X114634512Y-106213820D01*
X114615004Y-106228289D01*
X114594171Y-106240776D01*
X114572214Y-106251160D01*
X114549345Y-106259343D01*
X114525785Y-106265244D01*
X114501759Y-106268808D01*
X114477500Y-106270000D01*
X113982500Y-106270000D01*
X113958241Y-106268808D01*
X113934215Y-106265244D01*
X113910655Y-106259343D01*
X113887786Y-106251160D01*
X113865829Y-106240776D01*
X113844996Y-106228289D01*
X113825488Y-106213820D01*
X113807491Y-106197509D01*
X113791180Y-106179512D01*
X113776711Y-106160004D01*
X113764224Y-106139171D01*
X113753840Y-106117214D01*
X113745657Y-106094345D01*
X113739756Y-106070785D01*
X113736192Y-106046759D01*
X113735000Y-106022500D01*
X113735000Y-105477500D01*
X113736192Y-105453241D01*
X113739756Y-105429215D01*
X113745657Y-105405655D01*
X113753840Y-105382786D01*
X113764224Y-105360829D01*
X113776711Y-105339996D01*
X113791180Y-105320488D01*
X113807491Y-105302491D01*
X113825488Y-105286180D01*
X113844996Y-105271711D01*
X113865829Y-105259224D01*
X113887786Y-105248840D01*
X113910655Y-105240657D01*
X113934215Y-105234756D01*
X113958241Y-105231192D01*
X113982500Y-105230000D01*
X114477500Y-105230000D01*
X114501759Y-105231192D01*
G37*
G36*
X112446759Y-109241192D02*
G01*
X112470785Y-109244756D01*
X112494345Y-109250657D01*
X112517214Y-109258840D01*
X112539171Y-109269224D01*
X112560004Y-109281711D01*
X112579512Y-109296180D01*
X112597509Y-109312491D01*
X112613820Y-109330488D01*
X112628289Y-109349996D01*
X112640776Y-109370829D01*
X112651160Y-109392786D01*
X112659343Y-109415655D01*
X112665244Y-109439215D01*
X112668808Y-109463241D01*
X112670000Y-109487500D01*
X112670000Y-109982500D01*
X112668808Y-110006759D01*
X112665244Y-110030785D01*
X112659343Y-110054345D01*
X112651160Y-110077214D01*
X112640776Y-110099171D01*
X112628289Y-110120004D01*
X112613820Y-110139512D01*
X112597509Y-110157509D01*
X112579512Y-110173820D01*
X112560004Y-110188289D01*
X112539171Y-110200776D01*
X112517214Y-110211160D01*
X112494345Y-110219343D01*
X112470785Y-110225244D01*
X112446759Y-110228808D01*
X112422500Y-110230000D01*
X111877500Y-110230000D01*
X111853241Y-110228808D01*
X111829215Y-110225244D01*
X111805655Y-110219343D01*
X111782786Y-110211160D01*
X111760829Y-110200776D01*
X111739996Y-110188289D01*
X111720488Y-110173820D01*
X111702491Y-110157509D01*
X111686180Y-110139512D01*
X111671711Y-110120004D01*
X111659224Y-110099171D01*
X111648840Y-110077214D01*
X111640657Y-110054345D01*
X111634756Y-110030785D01*
X111631192Y-110006759D01*
X111630000Y-109982500D01*
X111630000Y-109487500D01*
X111631192Y-109463241D01*
X111634756Y-109439215D01*
X111640657Y-109415655D01*
X111648840Y-109392786D01*
X111659224Y-109370829D01*
X111671711Y-109349996D01*
X111686180Y-109330488D01*
X111702491Y-109312491D01*
X111720488Y-109296180D01*
X111739996Y-109281711D01*
X111760829Y-109269224D01*
X111782786Y-109258840D01*
X111805655Y-109250657D01*
X111829215Y-109244756D01*
X111853241Y-109241192D01*
X111877500Y-109240000D01*
X112422500Y-109240000D01*
X112446759Y-109241192D01*
G37*
G36*
X112446759Y-108271192D02*
G01*
X112470785Y-108274756D01*
X112494345Y-108280657D01*
X112517214Y-108288840D01*
X112539171Y-108299224D01*
X112560004Y-108311711D01*
X112579512Y-108326180D01*
X112597509Y-108342491D01*
X112613820Y-108360488D01*
X112628289Y-108379996D01*
X112640776Y-108400829D01*
X112651160Y-108422786D01*
X112659343Y-108445655D01*
X112665244Y-108469215D01*
X112668808Y-108493241D01*
X112670000Y-108517500D01*
X112670000Y-109012500D01*
X112668808Y-109036759D01*
X112665244Y-109060785D01*
X112659343Y-109084345D01*
X112651160Y-109107214D01*
X112640776Y-109129171D01*
X112628289Y-109150004D01*
X112613820Y-109169512D01*
X112597509Y-109187509D01*
X112579512Y-109203820D01*
X112560004Y-109218289D01*
X112539171Y-109230776D01*
X112517214Y-109241160D01*
X112494345Y-109249343D01*
X112470785Y-109255244D01*
X112446759Y-109258808D01*
X112422500Y-109260000D01*
X111877500Y-109260000D01*
X111853241Y-109258808D01*
X111829215Y-109255244D01*
X111805655Y-109249343D01*
X111782786Y-109241160D01*
X111760829Y-109230776D01*
X111739996Y-109218289D01*
X111720488Y-109203820D01*
X111702491Y-109187509D01*
X111686180Y-109169512D01*
X111671711Y-109150004D01*
X111659224Y-109129171D01*
X111648840Y-109107214D01*
X111640657Y-109084345D01*
X111634756Y-109060785D01*
X111631192Y-109036759D01*
X111630000Y-109012500D01*
X111630000Y-108517500D01*
X111631192Y-108493241D01*
X111634756Y-108469215D01*
X111640657Y-108445655D01*
X111648840Y-108422786D01*
X111659224Y-108400829D01*
X111671711Y-108379996D01*
X111686180Y-108360488D01*
X111702491Y-108342491D01*
X111720488Y-108326180D01*
X111739996Y-108311711D01*
X111760829Y-108299224D01*
X111782786Y-108288840D01*
X111805655Y-108280657D01*
X111829215Y-108274756D01*
X111853241Y-108271192D01*
X111877500Y-108270000D01*
X112422500Y-108270000D01*
X112446759Y-108271192D01*
G37*
G36*
X117396759Y-109306192D02*
G01*
X117420785Y-109309756D01*
X117444345Y-109315657D01*
X117467214Y-109323840D01*
X117489171Y-109334224D01*
X117510004Y-109346711D01*
X117529512Y-109361180D01*
X117547509Y-109377491D01*
X117563820Y-109395488D01*
X117578289Y-109414996D01*
X117590776Y-109435829D01*
X117601160Y-109457786D01*
X117609343Y-109480655D01*
X117615244Y-109504215D01*
X117618808Y-109528241D01*
X117620000Y-109552500D01*
X117620000Y-110047500D01*
X117618808Y-110071759D01*
X117615244Y-110095785D01*
X117609343Y-110119345D01*
X117601160Y-110142214D01*
X117590776Y-110164171D01*
X117578289Y-110185004D01*
X117563820Y-110204512D01*
X117547509Y-110222509D01*
X117529512Y-110238820D01*
X117510004Y-110253289D01*
X117489171Y-110265776D01*
X117467214Y-110276160D01*
X117444345Y-110284343D01*
X117420785Y-110290244D01*
X117396759Y-110293808D01*
X117372500Y-110295000D01*
X116827500Y-110295000D01*
X116803241Y-110293808D01*
X116779215Y-110290244D01*
X116755655Y-110284343D01*
X116732786Y-110276160D01*
X116710829Y-110265776D01*
X116689996Y-110253289D01*
X116670488Y-110238820D01*
X116652491Y-110222509D01*
X116636180Y-110204512D01*
X116621711Y-110185004D01*
X116609224Y-110164171D01*
X116598840Y-110142214D01*
X116590657Y-110119345D01*
X116584756Y-110095785D01*
X116581192Y-110071759D01*
X116580000Y-110047500D01*
X116580000Y-109552500D01*
X116581192Y-109528241D01*
X116584756Y-109504215D01*
X116590657Y-109480655D01*
X116598840Y-109457786D01*
X116609224Y-109435829D01*
X116621711Y-109414996D01*
X116636180Y-109395488D01*
X116652491Y-109377491D01*
X116670488Y-109361180D01*
X116689996Y-109346711D01*
X116710829Y-109334224D01*
X116732786Y-109323840D01*
X116755655Y-109315657D01*
X116779215Y-109309756D01*
X116803241Y-109306192D01*
X116827500Y-109305000D01*
X117372500Y-109305000D01*
X117396759Y-109306192D01*
G37*
G36*
X117396759Y-108336192D02*
G01*
X117420785Y-108339756D01*
X117444345Y-108345657D01*
X117467214Y-108353840D01*
X117489171Y-108364224D01*
X117510004Y-108376711D01*
X117529512Y-108391180D01*
X117547509Y-108407491D01*
X117563820Y-108425488D01*
X117578289Y-108444996D01*
X117590776Y-108465829D01*
X117601160Y-108487786D01*
X117609343Y-108510655D01*
X117615244Y-108534215D01*
X117618808Y-108558241D01*
X117620000Y-108582500D01*
X117620000Y-109077500D01*
X117618808Y-109101759D01*
X117615244Y-109125785D01*
X117609343Y-109149345D01*
X117601160Y-109172214D01*
X117590776Y-109194171D01*
X117578289Y-109215004D01*
X117563820Y-109234512D01*
X117547509Y-109252509D01*
X117529512Y-109268820D01*
X117510004Y-109283289D01*
X117489171Y-109295776D01*
X117467214Y-109306160D01*
X117444345Y-109314343D01*
X117420785Y-109320244D01*
X117396759Y-109323808D01*
X117372500Y-109325000D01*
X116827500Y-109325000D01*
X116803241Y-109323808D01*
X116779215Y-109320244D01*
X116755655Y-109314343D01*
X116732786Y-109306160D01*
X116710829Y-109295776D01*
X116689996Y-109283289D01*
X116670488Y-109268820D01*
X116652491Y-109252509D01*
X116636180Y-109234512D01*
X116621711Y-109215004D01*
X116609224Y-109194171D01*
X116598840Y-109172214D01*
X116590657Y-109149345D01*
X116584756Y-109125785D01*
X116581192Y-109101759D01*
X116580000Y-109077500D01*
X116580000Y-108582500D01*
X116581192Y-108558241D01*
X116584756Y-108534215D01*
X116590657Y-108510655D01*
X116598840Y-108487786D01*
X116609224Y-108465829D01*
X116621711Y-108444996D01*
X116636180Y-108425488D01*
X116652491Y-108407491D01*
X116670488Y-108391180D01*
X116689996Y-108376711D01*
X116710829Y-108364224D01*
X116732786Y-108353840D01*
X116755655Y-108345657D01*
X116779215Y-108339756D01*
X116803241Y-108336192D01*
X116827500Y-108335000D01*
X117372500Y-108335000D01*
X117396759Y-108336192D01*
G37*
G36*
X109571759Y-105931192D02*
G01*
X109595785Y-105934756D01*
X109619345Y-105940657D01*
X109642214Y-105948840D01*
X109664171Y-105959224D01*
X109685004Y-105971711D01*
X109704512Y-105986180D01*
X109722509Y-106002491D01*
X109738820Y-106020488D01*
X109753289Y-106039996D01*
X109765776Y-106060829D01*
X109776160Y-106082786D01*
X109784343Y-106105655D01*
X109790244Y-106129215D01*
X109793808Y-106153241D01*
X109795000Y-106177500D01*
X109795000Y-106722500D01*
X109793808Y-106746759D01*
X109790244Y-106770785D01*
X109784343Y-106794345D01*
X109776160Y-106817214D01*
X109765776Y-106839171D01*
X109753289Y-106860004D01*
X109738820Y-106879512D01*
X109722509Y-106897509D01*
X109704512Y-106913820D01*
X109685004Y-106928289D01*
X109664171Y-106940776D01*
X109642214Y-106951160D01*
X109619345Y-106959343D01*
X109595785Y-106965244D01*
X109571759Y-106968808D01*
X109547500Y-106970000D01*
X109052500Y-106970000D01*
X109028241Y-106968808D01*
X109004215Y-106965244D01*
X108980655Y-106959343D01*
X108957786Y-106951160D01*
X108935829Y-106940776D01*
X108914996Y-106928289D01*
X108895488Y-106913820D01*
X108877491Y-106897509D01*
X108861180Y-106879512D01*
X108846711Y-106860004D01*
X108834224Y-106839171D01*
X108823840Y-106817214D01*
X108815657Y-106794345D01*
X108809756Y-106770785D01*
X108806192Y-106746759D01*
X108805000Y-106722500D01*
X108805000Y-106177500D01*
X108806192Y-106153241D01*
X108809756Y-106129215D01*
X108815657Y-106105655D01*
X108823840Y-106082786D01*
X108834224Y-106060829D01*
X108846711Y-106039996D01*
X108861180Y-106020488D01*
X108877491Y-106002491D01*
X108895488Y-105986180D01*
X108914996Y-105971711D01*
X108935829Y-105959224D01*
X108957786Y-105948840D01*
X108980655Y-105940657D01*
X109004215Y-105934756D01*
X109028241Y-105931192D01*
X109052500Y-105930000D01*
X109547500Y-105930000D01*
X109571759Y-105931192D01*
G37*
G36*
X108601759Y-105931192D02*
G01*
X108625785Y-105934756D01*
X108649345Y-105940657D01*
X108672214Y-105948840D01*
X108694171Y-105959224D01*
X108715004Y-105971711D01*
X108734512Y-105986180D01*
X108752509Y-106002491D01*
X108768820Y-106020488D01*
X108783289Y-106039996D01*
X108795776Y-106060829D01*
X108806160Y-106082786D01*
X108814343Y-106105655D01*
X108820244Y-106129215D01*
X108823808Y-106153241D01*
X108825000Y-106177500D01*
X108825000Y-106722500D01*
X108823808Y-106746759D01*
X108820244Y-106770785D01*
X108814343Y-106794345D01*
X108806160Y-106817214D01*
X108795776Y-106839171D01*
X108783289Y-106860004D01*
X108768820Y-106879512D01*
X108752509Y-106897509D01*
X108734512Y-106913820D01*
X108715004Y-106928289D01*
X108694171Y-106940776D01*
X108672214Y-106951160D01*
X108649345Y-106959343D01*
X108625785Y-106965244D01*
X108601759Y-106968808D01*
X108577500Y-106970000D01*
X108082500Y-106970000D01*
X108058241Y-106968808D01*
X108034215Y-106965244D01*
X108010655Y-106959343D01*
X107987786Y-106951160D01*
X107965829Y-106940776D01*
X107944996Y-106928289D01*
X107925488Y-106913820D01*
X107907491Y-106897509D01*
X107891180Y-106879512D01*
X107876711Y-106860004D01*
X107864224Y-106839171D01*
X107853840Y-106817214D01*
X107845657Y-106794345D01*
X107839756Y-106770785D01*
X107836192Y-106746759D01*
X107835000Y-106722500D01*
X107835000Y-106177500D01*
X107836192Y-106153241D01*
X107839756Y-106129215D01*
X107845657Y-106105655D01*
X107853840Y-106082786D01*
X107864224Y-106060829D01*
X107876711Y-106039996D01*
X107891180Y-106020488D01*
X107907491Y-106002491D01*
X107925488Y-105986180D01*
X107944996Y-105971711D01*
X107965829Y-105959224D01*
X107987786Y-105948840D01*
X108010655Y-105940657D01*
X108034215Y-105934756D01*
X108058241Y-105931192D01*
X108082500Y-105930000D01*
X108577500Y-105930000D01*
X108601759Y-105931192D01*
G37*
G36*
X122801759Y-108331192D02*
G01*
X122825785Y-108334756D01*
X122849345Y-108340657D01*
X122872214Y-108348840D01*
X122894171Y-108359224D01*
X122915004Y-108371711D01*
X122934512Y-108386180D01*
X122952509Y-108402491D01*
X122968820Y-108420488D01*
X122983289Y-108439996D01*
X122995776Y-108460829D01*
X123006160Y-108482786D01*
X123014343Y-108505655D01*
X123020244Y-108529215D01*
X123023808Y-108553241D01*
X123025000Y-108577500D01*
X123025000Y-109122500D01*
X123023808Y-109146759D01*
X123020244Y-109170785D01*
X123014343Y-109194345D01*
X123006160Y-109217214D01*
X122995776Y-109239171D01*
X122983289Y-109260004D01*
X122968820Y-109279512D01*
X122952509Y-109297509D01*
X122934512Y-109313820D01*
X122915004Y-109328289D01*
X122894171Y-109340776D01*
X122872214Y-109351160D01*
X122849345Y-109359343D01*
X122825785Y-109365244D01*
X122801759Y-109368808D01*
X122777500Y-109370000D01*
X122282500Y-109370000D01*
X122258241Y-109368808D01*
X122234215Y-109365244D01*
X122210655Y-109359343D01*
X122187786Y-109351160D01*
X122165829Y-109340776D01*
X122144996Y-109328289D01*
X122125488Y-109313820D01*
X122107491Y-109297509D01*
X122091180Y-109279512D01*
X122076711Y-109260004D01*
X122064224Y-109239171D01*
X122053840Y-109217214D01*
X122045657Y-109194345D01*
X122039756Y-109170785D01*
X122036192Y-109146759D01*
X122035000Y-109122500D01*
X122035000Y-108577500D01*
X122036192Y-108553241D01*
X122039756Y-108529215D01*
X122045657Y-108505655D01*
X122053840Y-108482786D01*
X122064224Y-108460829D01*
X122076711Y-108439996D01*
X122091180Y-108420488D01*
X122107491Y-108402491D01*
X122125488Y-108386180D01*
X122144996Y-108371711D01*
X122165829Y-108359224D01*
X122187786Y-108348840D01*
X122210655Y-108340657D01*
X122234215Y-108334756D01*
X122258241Y-108331192D01*
X122282500Y-108330000D01*
X122777500Y-108330000D01*
X122801759Y-108331192D01*
G37*
G36*
X123771759Y-108331192D02*
G01*
X123795785Y-108334756D01*
X123819345Y-108340657D01*
X123842214Y-108348840D01*
X123864171Y-108359224D01*
X123885004Y-108371711D01*
X123904512Y-108386180D01*
X123922509Y-108402491D01*
X123938820Y-108420488D01*
X123953289Y-108439996D01*
X123965776Y-108460829D01*
X123976160Y-108482786D01*
X123984343Y-108505655D01*
X123990244Y-108529215D01*
X123993808Y-108553241D01*
X123995000Y-108577500D01*
X123995000Y-109122500D01*
X123993808Y-109146759D01*
X123990244Y-109170785D01*
X123984343Y-109194345D01*
X123976160Y-109217214D01*
X123965776Y-109239171D01*
X123953289Y-109260004D01*
X123938820Y-109279512D01*
X123922509Y-109297509D01*
X123904512Y-109313820D01*
X123885004Y-109328289D01*
X123864171Y-109340776D01*
X123842214Y-109351160D01*
X123819345Y-109359343D01*
X123795785Y-109365244D01*
X123771759Y-109368808D01*
X123747500Y-109370000D01*
X123252500Y-109370000D01*
X123228241Y-109368808D01*
X123204215Y-109365244D01*
X123180655Y-109359343D01*
X123157786Y-109351160D01*
X123135829Y-109340776D01*
X123114996Y-109328289D01*
X123095488Y-109313820D01*
X123077491Y-109297509D01*
X123061180Y-109279512D01*
X123046711Y-109260004D01*
X123034224Y-109239171D01*
X123023840Y-109217214D01*
X123015657Y-109194345D01*
X123009756Y-109170785D01*
X123006192Y-109146759D01*
X123005000Y-109122500D01*
X123005000Y-108577500D01*
X123006192Y-108553241D01*
X123009756Y-108529215D01*
X123015657Y-108505655D01*
X123023840Y-108482786D01*
X123034224Y-108460829D01*
X123046711Y-108439996D01*
X123061180Y-108420488D01*
X123077491Y-108402491D01*
X123095488Y-108386180D01*
X123114996Y-108371711D01*
X123135829Y-108359224D01*
X123157786Y-108348840D01*
X123180655Y-108340657D01*
X123204215Y-108334756D01*
X123228241Y-108331192D01*
X123252500Y-108330000D01*
X123747500Y-108330000D01*
X123771759Y-108331192D01*
G37*
G36*
X123771759Y-109631192D02*
G01*
X123795785Y-109634756D01*
X123819345Y-109640657D01*
X123842214Y-109648840D01*
X123864171Y-109659224D01*
X123885004Y-109671711D01*
X123904512Y-109686180D01*
X123922509Y-109702491D01*
X123938820Y-109720488D01*
X123953289Y-109739996D01*
X123965776Y-109760829D01*
X123976160Y-109782786D01*
X123984343Y-109805655D01*
X123990244Y-109829215D01*
X123993808Y-109853241D01*
X123995000Y-109877500D01*
X123995000Y-110422500D01*
X123993808Y-110446759D01*
X123990244Y-110470785D01*
X123984343Y-110494345D01*
X123976160Y-110517214D01*
X123965776Y-110539171D01*
X123953289Y-110560004D01*
X123938820Y-110579512D01*
X123922509Y-110597509D01*
X123904512Y-110613820D01*
X123885004Y-110628289D01*
X123864171Y-110640776D01*
X123842214Y-110651160D01*
X123819345Y-110659343D01*
X123795785Y-110665244D01*
X123771759Y-110668808D01*
X123747500Y-110670000D01*
X123252500Y-110670000D01*
X123228241Y-110668808D01*
X123204215Y-110665244D01*
X123180655Y-110659343D01*
X123157786Y-110651160D01*
X123135829Y-110640776D01*
X123114996Y-110628289D01*
X123095488Y-110613820D01*
X123077491Y-110597509D01*
X123061180Y-110579512D01*
X123046711Y-110560004D01*
X123034224Y-110539171D01*
X123023840Y-110517214D01*
X123015657Y-110494345D01*
X123009756Y-110470785D01*
X123006192Y-110446759D01*
X123005000Y-110422500D01*
X123005000Y-109877500D01*
X123006192Y-109853241D01*
X123009756Y-109829215D01*
X123015657Y-109805655D01*
X123023840Y-109782786D01*
X123034224Y-109760829D01*
X123046711Y-109739996D01*
X123061180Y-109720488D01*
X123077491Y-109702491D01*
X123095488Y-109686180D01*
X123114996Y-109671711D01*
X123135829Y-109659224D01*
X123157786Y-109648840D01*
X123180655Y-109640657D01*
X123204215Y-109634756D01*
X123228241Y-109631192D01*
X123252500Y-109630000D01*
X123747500Y-109630000D01*
X123771759Y-109631192D01*
G37*
G36*
X122801759Y-109631192D02*
G01*
X122825785Y-109634756D01*
X122849345Y-109640657D01*
X122872214Y-109648840D01*
X122894171Y-109659224D01*
X122915004Y-109671711D01*
X122934512Y-109686180D01*
X122952509Y-109702491D01*
X122968820Y-109720488D01*
X122983289Y-109739996D01*
X122995776Y-109760829D01*
X123006160Y-109782786D01*
X123014343Y-109805655D01*
X123020244Y-109829215D01*
X123023808Y-109853241D01*
X123025000Y-109877500D01*
X123025000Y-110422500D01*
X123023808Y-110446759D01*
X123020244Y-110470785D01*
X123014343Y-110494345D01*
X123006160Y-110517214D01*
X122995776Y-110539171D01*
X122983289Y-110560004D01*
X122968820Y-110579512D01*
X122952509Y-110597509D01*
X122934512Y-110613820D01*
X122915004Y-110628289D01*
X122894171Y-110640776D01*
X122872214Y-110651160D01*
X122849345Y-110659343D01*
X122825785Y-110665244D01*
X122801759Y-110668808D01*
X122777500Y-110670000D01*
X122282500Y-110670000D01*
X122258241Y-110668808D01*
X122234215Y-110665244D01*
X122210655Y-110659343D01*
X122187786Y-110651160D01*
X122165829Y-110640776D01*
X122144996Y-110628289D01*
X122125488Y-110613820D01*
X122107491Y-110597509D01*
X122091180Y-110579512D01*
X122076711Y-110560004D01*
X122064224Y-110539171D01*
X122053840Y-110517214D01*
X122045657Y-110494345D01*
X122039756Y-110470785D01*
X122036192Y-110446759D01*
X122035000Y-110422500D01*
X122035000Y-109877500D01*
X122036192Y-109853241D01*
X122039756Y-109829215D01*
X122045657Y-109805655D01*
X122053840Y-109782786D01*
X122064224Y-109760829D01*
X122076711Y-109739996D01*
X122091180Y-109720488D01*
X122107491Y-109702491D01*
X122125488Y-109686180D01*
X122144996Y-109671711D01*
X122165829Y-109659224D01*
X122187786Y-109648840D01*
X122210655Y-109640657D01*
X122234215Y-109634756D01*
X122258241Y-109631192D01*
X122282500Y-109630000D01*
X122777500Y-109630000D01*
X122801759Y-109631192D01*
G37*
G36*
X119721759Y-109531192D02*
G01*
X119745785Y-109534756D01*
X119769345Y-109540657D01*
X119792214Y-109548840D01*
X119814171Y-109559224D01*
X119835004Y-109571711D01*
X119854512Y-109586180D01*
X119872509Y-109602491D01*
X119888820Y-109620488D01*
X119903289Y-109639996D01*
X119915776Y-109660829D01*
X119926160Y-109682786D01*
X119934343Y-109705655D01*
X119940244Y-109729215D01*
X119943808Y-109753241D01*
X119945000Y-109777500D01*
X119945000Y-110322500D01*
X119943808Y-110346759D01*
X119940244Y-110370785D01*
X119934343Y-110394345D01*
X119926160Y-110417214D01*
X119915776Y-110439171D01*
X119903289Y-110460004D01*
X119888820Y-110479512D01*
X119872509Y-110497509D01*
X119854512Y-110513820D01*
X119835004Y-110528289D01*
X119814171Y-110540776D01*
X119792214Y-110551160D01*
X119769345Y-110559343D01*
X119745785Y-110565244D01*
X119721759Y-110568808D01*
X119697500Y-110570000D01*
X119202500Y-110570000D01*
X119178241Y-110568808D01*
X119154215Y-110565244D01*
X119130655Y-110559343D01*
X119107786Y-110551160D01*
X119085829Y-110540776D01*
X119064996Y-110528289D01*
X119045488Y-110513820D01*
X119027491Y-110497509D01*
X119011180Y-110479512D01*
X118996711Y-110460004D01*
X118984224Y-110439171D01*
X118973840Y-110417214D01*
X118965657Y-110394345D01*
X118959756Y-110370785D01*
X118956192Y-110346759D01*
X118955000Y-110322500D01*
X118955000Y-109777500D01*
X118956192Y-109753241D01*
X118959756Y-109729215D01*
X118965657Y-109705655D01*
X118973840Y-109682786D01*
X118984224Y-109660829D01*
X118996711Y-109639996D01*
X119011180Y-109620488D01*
X119027491Y-109602491D01*
X119045488Y-109586180D01*
X119064996Y-109571711D01*
X119085829Y-109559224D01*
X119107786Y-109548840D01*
X119130655Y-109540657D01*
X119154215Y-109534756D01*
X119178241Y-109531192D01*
X119202500Y-109530000D01*
X119697500Y-109530000D01*
X119721759Y-109531192D01*
G37*
G36*
X118751759Y-109531192D02*
G01*
X118775785Y-109534756D01*
X118799345Y-109540657D01*
X118822214Y-109548840D01*
X118844171Y-109559224D01*
X118865004Y-109571711D01*
X118884512Y-109586180D01*
X118902509Y-109602491D01*
X118918820Y-109620488D01*
X118933289Y-109639996D01*
X118945776Y-109660829D01*
X118956160Y-109682786D01*
X118964343Y-109705655D01*
X118970244Y-109729215D01*
X118973808Y-109753241D01*
X118975000Y-109777500D01*
X118975000Y-110322500D01*
X118973808Y-110346759D01*
X118970244Y-110370785D01*
X118964343Y-110394345D01*
X118956160Y-110417214D01*
X118945776Y-110439171D01*
X118933289Y-110460004D01*
X118918820Y-110479512D01*
X118902509Y-110497509D01*
X118884512Y-110513820D01*
X118865004Y-110528289D01*
X118844171Y-110540776D01*
X118822214Y-110551160D01*
X118799345Y-110559343D01*
X118775785Y-110565244D01*
X118751759Y-110568808D01*
X118727500Y-110570000D01*
X118232500Y-110570000D01*
X118208241Y-110568808D01*
X118184215Y-110565244D01*
X118160655Y-110559343D01*
X118137786Y-110551160D01*
X118115829Y-110540776D01*
X118094996Y-110528289D01*
X118075488Y-110513820D01*
X118057491Y-110497509D01*
X118041180Y-110479512D01*
X118026711Y-110460004D01*
X118014224Y-110439171D01*
X118003840Y-110417214D01*
X117995657Y-110394345D01*
X117989756Y-110370785D01*
X117986192Y-110346759D01*
X117985000Y-110322500D01*
X117985000Y-109777500D01*
X117986192Y-109753241D01*
X117989756Y-109729215D01*
X117995657Y-109705655D01*
X118003840Y-109682786D01*
X118014224Y-109660829D01*
X118026711Y-109639996D01*
X118041180Y-109620488D01*
X118057491Y-109602491D01*
X118075488Y-109586180D01*
X118094996Y-109571711D01*
X118115829Y-109559224D01*
X118137786Y-109548840D01*
X118160655Y-109540657D01*
X118184215Y-109534756D01*
X118208241Y-109531192D01*
X118232500Y-109530000D01*
X118727500Y-109530000D01*
X118751759Y-109531192D01*
G37*
G36*
X117296759Y-105586192D02*
G01*
X117320785Y-105589756D01*
X117344345Y-105595657D01*
X117367214Y-105603840D01*
X117389171Y-105614224D01*
X117410004Y-105626711D01*
X117429512Y-105641180D01*
X117447509Y-105657491D01*
X117463820Y-105675488D01*
X117478289Y-105694996D01*
X117490776Y-105715829D01*
X117501160Y-105737786D01*
X117509343Y-105760655D01*
X117515244Y-105784215D01*
X117518808Y-105808241D01*
X117520000Y-105832500D01*
X117520000Y-106327500D01*
X117518808Y-106351759D01*
X117515244Y-106375785D01*
X117509343Y-106399345D01*
X117501160Y-106422214D01*
X117490776Y-106444171D01*
X117478289Y-106465004D01*
X117463820Y-106484512D01*
X117447509Y-106502509D01*
X117429512Y-106518820D01*
X117410004Y-106533289D01*
X117389171Y-106545776D01*
X117367214Y-106556160D01*
X117344345Y-106564343D01*
X117320785Y-106570244D01*
X117296759Y-106573808D01*
X117272500Y-106575000D01*
X116727500Y-106575000D01*
X116703241Y-106573808D01*
X116679215Y-106570244D01*
X116655655Y-106564343D01*
X116632786Y-106556160D01*
X116610829Y-106545776D01*
X116589996Y-106533289D01*
X116570488Y-106518820D01*
X116552491Y-106502509D01*
X116536180Y-106484512D01*
X116521711Y-106465004D01*
X116509224Y-106444171D01*
X116498840Y-106422214D01*
X116490657Y-106399345D01*
X116484756Y-106375785D01*
X116481192Y-106351759D01*
X116480000Y-106327500D01*
X116480000Y-105832500D01*
X116481192Y-105808241D01*
X116484756Y-105784215D01*
X116490657Y-105760655D01*
X116498840Y-105737786D01*
X116509224Y-105715829D01*
X116521711Y-105694996D01*
X116536180Y-105675488D01*
X116552491Y-105657491D01*
X116570488Y-105641180D01*
X116589996Y-105626711D01*
X116610829Y-105614224D01*
X116632786Y-105603840D01*
X116655655Y-105595657D01*
X116679215Y-105589756D01*
X116703241Y-105586192D01*
X116727500Y-105585000D01*
X117272500Y-105585000D01*
X117296759Y-105586192D01*
G37*
G36*
X117296759Y-106556192D02*
G01*
X117320785Y-106559756D01*
X117344345Y-106565657D01*
X117367214Y-106573840D01*
X117389171Y-106584224D01*
X117410004Y-106596711D01*
X117429512Y-106611180D01*
X117447509Y-106627491D01*
X117463820Y-106645488D01*
X117478289Y-106664996D01*
X117490776Y-106685829D01*
X117501160Y-106707786D01*
X117509343Y-106730655D01*
X117515244Y-106754215D01*
X117518808Y-106778241D01*
X117520000Y-106802500D01*
X117520000Y-107297500D01*
X117518808Y-107321759D01*
X117515244Y-107345785D01*
X117509343Y-107369345D01*
X117501160Y-107392214D01*
X117490776Y-107414171D01*
X117478289Y-107435004D01*
X117463820Y-107454512D01*
X117447509Y-107472509D01*
X117429512Y-107488820D01*
X117410004Y-107503289D01*
X117389171Y-107515776D01*
X117367214Y-107526160D01*
X117344345Y-107534343D01*
X117320785Y-107540244D01*
X117296759Y-107543808D01*
X117272500Y-107545000D01*
X116727500Y-107545000D01*
X116703241Y-107543808D01*
X116679215Y-107540244D01*
X116655655Y-107534343D01*
X116632786Y-107526160D01*
X116610829Y-107515776D01*
X116589996Y-107503289D01*
X116570488Y-107488820D01*
X116552491Y-107472509D01*
X116536180Y-107454512D01*
X116521711Y-107435004D01*
X116509224Y-107414171D01*
X116498840Y-107392214D01*
X116490657Y-107369345D01*
X116484756Y-107345785D01*
X116481192Y-107321759D01*
X116480000Y-107297500D01*
X116480000Y-106802500D01*
X116481192Y-106778241D01*
X116484756Y-106754215D01*
X116490657Y-106730655D01*
X116498840Y-106707786D01*
X116509224Y-106685829D01*
X116521711Y-106664996D01*
X116536180Y-106645488D01*
X116552491Y-106627491D01*
X116570488Y-106611180D01*
X116589996Y-106596711D01*
X116610829Y-106584224D01*
X116632786Y-106573840D01*
X116655655Y-106565657D01*
X116679215Y-106559756D01*
X116703241Y-106556192D01*
X116727500Y-106555000D01*
X117272500Y-106555000D01*
X117296759Y-106556192D01*
G37*
D15*
X113450000Y-103900000D03*
X106950000Y-103900000D03*
D12*
X115290000Y-103650000D03*
X116560000Y-103650000D03*
X117830000Y-103650000D03*
D13*
X119100000Y-103650000D03*
D16*
X138100000Y-113100000D03*
X135560000Y-113100000D03*
X138100000Y-110560000D03*
X135560000Y-110560000D03*
X138100000Y-108020000D03*
D17*
X135560000Y-108020000D03*
D18*
X118900000Y-108600000D03*
X118900000Y-106100000D03*
D14*
G36*
X110890928Y-109225782D02*
G01*
X110906702Y-109228122D01*
X110922171Y-109231997D01*
X110937186Y-109237370D01*
X110951602Y-109244188D01*
X110965280Y-109252386D01*
X110978089Y-109261886D01*
X110989905Y-109272595D01*
X111000614Y-109284411D01*
X111010114Y-109297220D01*
X111018312Y-109310898D01*
X111025130Y-109325314D01*
X111030503Y-109340329D01*
X111034378Y-109355798D01*
X111036718Y-109371572D01*
X111037500Y-109387500D01*
X111037500Y-109712500D01*
X111036718Y-109728428D01*
X111034378Y-109744202D01*
X111030503Y-109759671D01*
X111025130Y-109774686D01*
X111018312Y-109789102D01*
X111010114Y-109802780D01*
X111000614Y-109815589D01*
X110989905Y-109827405D01*
X110978089Y-109838114D01*
X110965280Y-109847614D01*
X110951602Y-109855812D01*
X110937186Y-109862630D01*
X110922171Y-109868003D01*
X110906702Y-109871878D01*
X110890928Y-109874218D01*
X110875000Y-109875000D01*
X109925000Y-109875000D01*
X109909072Y-109874218D01*
X109893298Y-109871878D01*
X109877829Y-109868003D01*
X109862814Y-109862630D01*
X109848398Y-109855812D01*
X109834720Y-109847614D01*
X109821911Y-109838114D01*
X109810095Y-109827405D01*
X109799386Y-109815589D01*
X109789886Y-109802780D01*
X109781688Y-109789102D01*
X109774870Y-109774686D01*
X109769497Y-109759671D01*
X109765622Y-109744202D01*
X109763282Y-109728428D01*
X109762500Y-109712500D01*
X109762500Y-109387500D01*
X109763282Y-109371572D01*
X109765622Y-109355798D01*
X109769497Y-109340329D01*
X109774870Y-109325314D01*
X109781688Y-109310898D01*
X109789886Y-109297220D01*
X109799386Y-109284411D01*
X109810095Y-109272595D01*
X109821911Y-109261886D01*
X109834720Y-109252386D01*
X109848398Y-109244188D01*
X109862814Y-109237370D01*
X109877829Y-109231997D01*
X109893298Y-109228122D01*
X109909072Y-109225782D01*
X109925000Y-109225000D01*
X110875000Y-109225000D01*
X110890928Y-109225782D01*
G37*
G36*
X110890928Y-109725782D02*
G01*
X110906702Y-109728122D01*
X110922171Y-109731997D01*
X110937186Y-109737370D01*
X110951602Y-109744188D01*
X110965280Y-109752386D01*
X110978089Y-109761886D01*
X110989905Y-109772595D01*
X111000614Y-109784411D01*
X111010114Y-109797220D01*
X111018312Y-109810898D01*
X111025130Y-109825314D01*
X111030503Y-109840329D01*
X111034378Y-109855798D01*
X111036718Y-109871572D01*
X111037500Y-109887500D01*
X111037500Y-110212500D01*
X111036718Y-110228428D01*
X111034378Y-110244202D01*
X111030503Y-110259671D01*
X111025130Y-110274686D01*
X111018312Y-110289102D01*
X111010114Y-110302780D01*
X111000614Y-110315589D01*
X110989905Y-110327405D01*
X110978089Y-110338114D01*
X110965280Y-110347614D01*
X110951602Y-110355812D01*
X110937186Y-110362630D01*
X110922171Y-110368003D01*
X110906702Y-110371878D01*
X110890928Y-110374218D01*
X110875000Y-110375000D01*
X109925000Y-110375000D01*
X109909072Y-110374218D01*
X109893298Y-110371878D01*
X109877829Y-110368003D01*
X109862814Y-110362630D01*
X109848398Y-110355812D01*
X109834720Y-110347614D01*
X109821911Y-110338114D01*
X109810095Y-110327405D01*
X109799386Y-110315589D01*
X109789886Y-110302780D01*
X109781688Y-110289102D01*
X109774870Y-110274686D01*
X109769497Y-110259671D01*
X109765622Y-110244202D01*
X109763282Y-110228428D01*
X109762500Y-110212500D01*
X109762500Y-109887500D01*
X109763282Y-109871572D01*
X109765622Y-109855798D01*
X109769497Y-109840329D01*
X109774870Y-109825314D01*
X109781688Y-109810898D01*
X109789886Y-109797220D01*
X109799386Y-109784411D01*
X109810095Y-109772595D01*
X109821911Y-109761886D01*
X109834720Y-109752386D01*
X109848398Y-109744188D01*
X109862814Y-109737370D01*
X109877829Y-109731997D01*
X109893298Y-109728122D01*
X109909072Y-109725782D01*
X109925000Y-109725000D01*
X110875000Y-109725000D01*
X110890928Y-109725782D01*
G37*
G36*
X110890928Y-110225782D02*
G01*
X110906702Y-110228122D01*
X110922171Y-110231997D01*
X110937186Y-110237370D01*
X110951602Y-110244188D01*
X110965280Y-110252386D01*
X110978089Y-110261886D01*
X110989905Y-110272595D01*
X111000614Y-110284411D01*
X111010114Y-110297220D01*
X111018312Y-110310898D01*
X111025130Y-110325314D01*
X111030503Y-110340329D01*
X111034378Y-110355798D01*
X111036718Y-110371572D01*
X111037500Y-110387500D01*
X111037500Y-110712500D01*
X111036718Y-110728428D01*
X111034378Y-110744202D01*
X111030503Y-110759671D01*
X111025130Y-110774686D01*
X111018312Y-110789102D01*
X111010114Y-110802780D01*
X111000614Y-110815589D01*
X110989905Y-110827405D01*
X110978089Y-110838114D01*
X110965280Y-110847614D01*
X110951602Y-110855812D01*
X110937186Y-110862630D01*
X110922171Y-110868003D01*
X110906702Y-110871878D01*
X110890928Y-110874218D01*
X110875000Y-110875000D01*
X109925000Y-110875000D01*
X109909072Y-110874218D01*
X109893298Y-110871878D01*
X109877829Y-110868003D01*
X109862814Y-110862630D01*
X109848398Y-110855812D01*
X109834720Y-110847614D01*
X109821911Y-110838114D01*
X109810095Y-110827405D01*
X109799386Y-110815589D01*
X109789886Y-110802780D01*
X109781688Y-110789102D01*
X109774870Y-110774686D01*
X109769497Y-110759671D01*
X109765622Y-110744202D01*
X109763282Y-110728428D01*
X109762500Y-110712500D01*
X109762500Y-110387500D01*
X109763282Y-110371572D01*
X109765622Y-110355798D01*
X109769497Y-110340329D01*
X109774870Y-110325314D01*
X109781688Y-110310898D01*
X109789886Y-110297220D01*
X109799386Y-110284411D01*
X109810095Y-110272595D01*
X109821911Y-110261886D01*
X109834720Y-110252386D01*
X109848398Y-110244188D01*
X109862814Y-110237370D01*
X109877829Y-110231997D01*
X109893298Y-110228122D01*
X109909072Y-110225782D01*
X109925000Y-110225000D01*
X110875000Y-110225000D01*
X110890928Y-110225782D01*
G37*
G36*
X110890928Y-110725782D02*
G01*
X110906702Y-110728122D01*
X110922171Y-110731997D01*
X110937186Y-110737370D01*
X110951602Y-110744188D01*
X110965280Y-110752386D01*
X110978089Y-110761886D01*
X110989905Y-110772595D01*
X111000614Y-110784411D01*
X111010114Y-110797220D01*
X111018312Y-110810898D01*
X111025130Y-110825314D01*
X111030503Y-110840329D01*
X111034378Y-110855798D01*
X111036718Y-110871572D01*
X111037500Y-110887500D01*
X111037500Y-111212500D01*
X111036718Y-111228428D01*
X111034378Y-111244202D01*
X111030503Y-111259671D01*
X111025130Y-111274686D01*
X111018312Y-111289102D01*
X111010114Y-111302780D01*
X111000614Y-111315589D01*
X110989905Y-111327405D01*
X110978089Y-111338114D01*
X110965280Y-111347614D01*
X110951602Y-111355812D01*
X110937186Y-111362630D01*
X110922171Y-111368003D01*
X110906702Y-111371878D01*
X110890928Y-111374218D01*
X110875000Y-111375000D01*
X109925000Y-111375000D01*
X109909072Y-111374218D01*
X109893298Y-111371878D01*
X109877829Y-111368003D01*
X109862814Y-111362630D01*
X109848398Y-111355812D01*
X109834720Y-111347614D01*
X109821911Y-111338114D01*
X109810095Y-111327405D01*
X109799386Y-111315589D01*
X109789886Y-111302780D01*
X109781688Y-111289102D01*
X109774870Y-111274686D01*
X109769497Y-111259671D01*
X109765622Y-111244202D01*
X109763282Y-111228428D01*
X109762500Y-111212500D01*
X109762500Y-110887500D01*
X109763282Y-110871572D01*
X109765622Y-110855798D01*
X109769497Y-110840329D01*
X109774870Y-110825314D01*
X109781688Y-110810898D01*
X109789886Y-110797220D01*
X109799386Y-110784411D01*
X109810095Y-110772595D01*
X109821911Y-110761886D01*
X109834720Y-110752386D01*
X109848398Y-110744188D01*
X109862814Y-110737370D01*
X109877829Y-110731997D01*
X109893298Y-110728122D01*
X109909072Y-110725782D01*
X109925000Y-110725000D01*
X110875000Y-110725000D01*
X110890928Y-110725782D01*
G37*
G36*
X110890928Y-111225782D02*
G01*
X110906702Y-111228122D01*
X110922171Y-111231997D01*
X110937186Y-111237370D01*
X110951602Y-111244188D01*
X110965280Y-111252386D01*
X110978089Y-111261886D01*
X110989905Y-111272595D01*
X111000614Y-111284411D01*
X111010114Y-111297220D01*
X111018312Y-111310898D01*
X111025130Y-111325314D01*
X111030503Y-111340329D01*
X111034378Y-111355798D01*
X111036718Y-111371572D01*
X111037500Y-111387500D01*
X111037500Y-111712500D01*
X111036718Y-111728428D01*
X111034378Y-111744202D01*
X111030503Y-111759671D01*
X111025130Y-111774686D01*
X111018312Y-111789102D01*
X111010114Y-111802780D01*
X111000614Y-111815589D01*
X110989905Y-111827405D01*
X110978089Y-111838114D01*
X110965280Y-111847614D01*
X110951602Y-111855812D01*
X110937186Y-111862630D01*
X110922171Y-111868003D01*
X110906702Y-111871878D01*
X110890928Y-111874218D01*
X110875000Y-111875000D01*
X109925000Y-111875000D01*
X109909072Y-111874218D01*
X109893298Y-111871878D01*
X109877829Y-111868003D01*
X109862814Y-111862630D01*
X109848398Y-111855812D01*
X109834720Y-111847614D01*
X109821911Y-111838114D01*
X109810095Y-111827405D01*
X109799386Y-111815589D01*
X109789886Y-111802780D01*
X109781688Y-111789102D01*
X109774870Y-111774686D01*
X109769497Y-111759671D01*
X109765622Y-111744202D01*
X109763282Y-111728428D01*
X109762500Y-111712500D01*
X109762500Y-111387500D01*
X109763282Y-111371572D01*
X109765622Y-111355798D01*
X109769497Y-111340329D01*
X109774870Y-111325314D01*
X109781688Y-111310898D01*
X109789886Y-111297220D01*
X109799386Y-111284411D01*
X109810095Y-111272595D01*
X109821911Y-111261886D01*
X109834720Y-111252386D01*
X109848398Y-111244188D01*
X109862814Y-111237370D01*
X109877829Y-111231997D01*
X109893298Y-111228122D01*
X109909072Y-111225782D01*
X109925000Y-111225000D01*
X110875000Y-111225000D01*
X110890928Y-111225782D01*
G37*
G36*
X110890928Y-111725782D02*
G01*
X110906702Y-111728122D01*
X110922171Y-111731997D01*
X110937186Y-111737370D01*
X110951602Y-111744188D01*
X110965280Y-111752386D01*
X110978089Y-111761886D01*
X110989905Y-111772595D01*
X111000614Y-111784411D01*
X111010114Y-111797220D01*
X111018312Y-111810898D01*
X111025130Y-111825314D01*
X111030503Y-111840329D01*
X111034378Y-111855798D01*
X111036718Y-111871572D01*
X111037500Y-111887500D01*
X111037500Y-112212500D01*
X111036718Y-112228428D01*
X111034378Y-112244202D01*
X111030503Y-112259671D01*
X111025130Y-112274686D01*
X111018312Y-112289102D01*
X111010114Y-112302780D01*
X111000614Y-112315589D01*
X110989905Y-112327405D01*
X110978089Y-112338114D01*
X110965280Y-112347614D01*
X110951602Y-112355812D01*
X110937186Y-112362630D01*
X110922171Y-112368003D01*
X110906702Y-112371878D01*
X110890928Y-112374218D01*
X110875000Y-112375000D01*
X109925000Y-112375000D01*
X109909072Y-112374218D01*
X109893298Y-112371878D01*
X109877829Y-112368003D01*
X109862814Y-112362630D01*
X109848398Y-112355812D01*
X109834720Y-112347614D01*
X109821911Y-112338114D01*
X109810095Y-112327405D01*
X109799386Y-112315589D01*
X109789886Y-112302780D01*
X109781688Y-112289102D01*
X109774870Y-112274686D01*
X109769497Y-112259671D01*
X109765622Y-112244202D01*
X109763282Y-112228428D01*
X109762500Y-112212500D01*
X109762500Y-111887500D01*
X109763282Y-111871572D01*
X109765622Y-111855798D01*
X109769497Y-111840329D01*
X109774870Y-111825314D01*
X109781688Y-111810898D01*
X109789886Y-111797220D01*
X109799386Y-111784411D01*
X109810095Y-111772595D01*
X109821911Y-111761886D01*
X109834720Y-111752386D01*
X109848398Y-111744188D01*
X109862814Y-111737370D01*
X109877829Y-111731997D01*
X109893298Y-111728122D01*
X109909072Y-111725782D01*
X109925000Y-111725000D01*
X110875000Y-111725000D01*
X110890928Y-111725782D01*
G37*
G36*
X110890928Y-112225782D02*
G01*
X110906702Y-112228122D01*
X110922171Y-112231997D01*
X110937186Y-112237370D01*
X110951602Y-112244188D01*
X110965280Y-112252386D01*
X110978089Y-112261886D01*
X110989905Y-112272595D01*
X111000614Y-112284411D01*
X111010114Y-112297220D01*
X111018312Y-112310898D01*
X111025130Y-112325314D01*
X111030503Y-112340329D01*
X111034378Y-112355798D01*
X111036718Y-112371572D01*
X111037500Y-112387500D01*
X111037500Y-112712500D01*
X111036718Y-112728428D01*
X111034378Y-112744202D01*
X111030503Y-112759671D01*
X111025130Y-112774686D01*
X111018312Y-112789102D01*
X111010114Y-112802780D01*
X111000614Y-112815589D01*
X110989905Y-112827405D01*
X110978089Y-112838114D01*
X110965280Y-112847614D01*
X110951602Y-112855812D01*
X110937186Y-112862630D01*
X110922171Y-112868003D01*
X110906702Y-112871878D01*
X110890928Y-112874218D01*
X110875000Y-112875000D01*
X109925000Y-112875000D01*
X109909072Y-112874218D01*
X109893298Y-112871878D01*
X109877829Y-112868003D01*
X109862814Y-112862630D01*
X109848398Y-112855812D01*
X109834720Y-112847614D01*
X109821911Y-112838114D01*
X109810095Y-112827405D01*
X109799386Y-112815589D01*
X109789886Y-112802780D01*
X109781688Y-112789102D01*
X109774870Y-112774686D01*
X109769497Y-112759671D01*
X109765622Y-112744202D01*
X109763282Y-112728428D01*
X109762500Y-112712500D01*
X109762500Y-112387500D01*
X109763282Y-112371572D01*
X109765622Y-112355798D01*
X109769497Y-112340329D01*
X109774870Y-112325314D01*
X109781688Y-112310898D01*
X109789886Y-112297220D01*
X109799386Y-112284411D01*
X109810095Y-112272595D01*
X109821911Y-112261886D01*
X109834720Y-112252386D01*
X109848398Y-112244188D01*
X109862814Y-112237370D01*
X109877829Y-112231997D01*
X109893298Y-112228122D01*
X109909072Y-112225782D01*
X109925000Y-112225000D01*
X110875000Y-112225000D01*
X110890928Y-112225782D01*
G37*
G36*
X110890928Y-112725782D02*
G01*
X110906702Y-112728122D01*
X110922171Y-112731997D01*
X110937186Y-112737370D01*
X110951602Y-112744188D01*
X110965280Y-112752386D01*
X110978089Y-112761886D01*
X110989905Y-112772595D01*
X111000614Y-112784411D01*
X111010114Y-112797220D01*
X111018312Y-112810898D01*
X111025130Y-112825314D01*
X111030503Y-112840329D01*
X111034378Y-112855798D01*
X111036718Y-112871572D01*
X111037500Y-112887500D01*
X111037500Y-113212500D01*
X111036718Y-113228428D01*
X111034378Y-113244202D01*
X111030503Y-113259671D01*
X111025130Y-113274686D01*
X111018312Y-113289102D01*
X111010114Y-113302780D01*
X111000614Y-113315589D01*
X110989905Y-113327405D01*
X110978089Y-113338114D01*
X110965280Y-113347614D01*
X110951602Y-113355812D01*
X110937186Y-113362630D01*
X110922171Y-113368003D01*
X110906702Y-113371878D01*
X110890928Y-113374218D01*
X110875000Y-113375000D01*
X109925000Y-113375000D01*
X109909072Y-113374218D01*
X109893298Y-113371878D01*
X109877829Y-113368003D01*
X109862814Y-113362630D01*
X109848398Y-113355812D01*
X109834720Y-113347614D01*
X109821911Y-113338114D01*
X109810095Y-113327405D01*
X109799386Y-113315589D01*
X109789886Y-113302780D01*
X109781688Y-113289102D01*
X109774870Y-113274686D01*
X109769497Y-113259671D01*
X109765622Y-113244202D01*
X109763282Y-113228428D01*
X109762500Y-113212500D01*
X109762500Y-112887500D01*
X109763282Y-112871572D01*
X109765622Y-112855798D01*
X109769497Y-112840329D01*
X109774870Y-112825314D01*
X109781688Y-112810898D01*
X109789886Y-112797220D01*
X109799386Y-112784411D01*
X109810095Y-112772595D01*
X109821911Y-112761886D01*
X109834720Y-112752386D01*
X109848398Y-112744188D01*
X109862814Y-112737370D01*
X109877829Y-112731997D01*
X109893298Y-112728122D01*
X109909072Y-112725782D01*
X109925000Y-112725000D01*
X110875000Y-112725000D01*
X110890928Y-112725782D01*
G37*
G36*
X109890928Y-113100782D02*
G01*
X109906702Y-113103122D01*
X109922171Y-113106997D01*
X109937186Y-113112370D01*
X109951602Y-113119188D01*
X109965280Y-113127386D01*
X109978089Y-113136886D01*
X109989905Y-113147595D01*
X110000614Y-113159411D01*
X110010114Y-113172220D01*
X110018312Y-113185898D01*
X110025130Y-113200314D01*
X110030503Y-113215329D01*
X110034378Y-113230798D01*
X110036718Y-113246572D01*
X110037500Y-113262500D01*
X110037500Y-114212500D01*
X110036718Y-114228428D01*
X110034378Y-114244202D01*
X110030503Y-114259671D01*
X110025130Y-114274686D01*
X110018312Y-114289102D01*
X110010114Y-114302780D01*
X110000614Y-114315589D01*
X109989905Y-114327405D01*
X109978089Y-114338114D01*
X109965280Y-114347614D01*
X109951602Y-114355812D01*
X109937186Y-114362630D01*
X109922171Y-114368003D01*
X109906702Y-114371878D01*
X109890928Y-114374218D01*
X109875000Y-114375000D01*
X109550000Y-114375000D01*
X109534072Y-114374218D01*
X109518298Y-114371878D01*
X109502829Y-114368003D01*
X109487814Y-114362630D01*
X109473398Y-114355812D01*
X109459720Y-114347614D01*
X109446911Y-114338114D01*
X109435095Y-114327405D01*
X109424386Y-114315589D01*
X109414886Y-114302780D01*
X109406688Y-114289102D01*
X109399870Y-114274686D01*
X109394497Y-114259671D01*
X109390622Y-114244202D01*
X109388282Y-114228428D01*
X109387500Y-114212500D01*
X109387500Y-113262500D01*
X109388282Y-113246572D01*
X109390622Y-113230798D01*
X109394497Y-113215329D01*
X109399870Y-113200314D01*
X109406688Y-113185898D01*
X109414886Y-113172220D01*
X109424386Y-113159411D01*
X109435095Y-113147595D01*
X109446911Y-113136886D01*
X109459720Y-113127386D01*
X109473398Y-113119188D01*
X109487814Y-113112370D01*
X109502829Y-113106997D01*
X109518298Y-113103122D01*
X109534072Y-113100782D01*
X109550000Y-113100000D01*
X109875000Y-113100000D01*
X109890928Y-113100782D01*
G37*
G36*
X109390928Y-113100782D02*
G01*
X109406702Y-113103122D01*
X109422171Y-113106997D01*
X109437186Y-113112370D01*
X109451602Y-113119188D01*
X109465280Y-113127386D01*
X109478089Y-113136886D01*
X109489905Y-113147595D01*
X109500614Y-113159411D01*
X109510114Y-113172220D01*
X109518312Y-113185898D01*
X109525130Y-113200314D01*
X109530503Y-113215329D01*
X109534378Y-113230798D01*
X109536718Y-113246572D01*
X109537500Y-113262500D01*
X109537500Y-114212500D01*
X109536718Y-114228428D01*
X109534378Y-114244202D01*
X109530503Y-114259671D01*
X109525130Y-114274686D01*
X109518312Y-114289102D01*
X109510114Y-114302780D01*
X109500614Y-114315589D01*
X109489905Y-114327405D01*
X109478089Y-114338114D01*
X109465280Y-114347614D01*
X109451602Y-114355812D01*
X109437186Y-114362630D01*
X109422171Y-114368003D01*
X109406702Y-114371878D01*
X109390928Y-114374218D01*
X109375000Y-114375000D01*
X109050000Y-114375000D01*
X109034072Y-114374218D01*
X109018298Y-114371878D01*
X109002829Y-114368003D01*
X108987814Y-114362630D01*
X108973398Y-114355812D01*
X108959720Y-114347614D01*
X108946911Y-114338114D01*
X108935095Y-114327405D01*
X108924386Y-114315589D01*
X108914886Y-114302780D01*
X108906688Y-114289102D01*
X108899870Y-114274686D01*
X108894497Y-114259671D01*
X108890622Y-114244202D01*
X108888282Y-114228428D01*
X108887500Y-114212500D01*
X108887500Y-113262500D01*
X108888282Y-113246572D01*
X108890622Y-113230798D01*
X108894497Y-113215329D01*
X108899870Y-113200314D01*
X108906688Y-113185898D01*
X108914886Y-113172220D01*
X108924386Y-113159411D01*
X108935095Y-113147595D01*
X108946911Y-113136886D01*
X108959720Y-113127386D01*
X108973398Y-113119188D01*
X108987814Y-113112370D01*
X109002829Y-113106997D01*
X109018298Y-113103122D01*
X109034072Y-113100782D01*
X109050000Y-113100000D01*
X109375000Y-113100000D01*
X109390928Y-113100782D01*
G37*
G36*
X108890928Y-113100782D02*
G01*
X108906702Y-113103122D01*
X108922171Y-113106997D01*
X108937186Y-113112370D01*
X108951602Y-113119188D01*
X108965280Y-113127386D01*
X108978089Y-113136886D01*
X108989905Y-113147595D01*
X109000614Y-113159411D01*
X109010114Y-113172220D01*
X109018312Y-113185898D01*
X109025130Y-113200314D01*
X109030503Y-113215329D01*
X109034378Y-113230798D01*
X109036718Y-113246572D01*
X109037500Y-113262500D01*
X109037500Y-114212500D01*
X109036718Y-114228428D01*
X109034378Y-114244202D01*
X109030503Y-114259671D01*
X109025130Y-114274686D01*
X109018312Y-114289102D01*
X109010114Y-114302780D01*
X109000614Y-114315589D01*
X108989905Y-114327405D01*
X108978089Y-114338114D01*
X108965280Y-114347614D01*
X108951602Y-114355812D01*
X108937186Y-114362630D01*
X108922171Y-114368003D01*
X108906702Y-114371878D01*
X108890928Y-114374218D01*
X108875000Y-114375000D01*
X108550000Y-114375000D01*
X108534072Y-114374218D01*
X108518298Y-114371878D01*
X108502829Y-114368003D01*
X108487814Y-114362630D01*
X108473398Y-114355812D01*
X108459720Y-114347614D01*
X108446911Y-114338114D01*
X108435095Y-114327405D01*
X108424386Y-114315589D01*
X108414886Y-114302780D01*
X108406688Y-114289102D01*
X108399870Y-114274686D01*
X108394497Y-114259671D01*
X108390622Y-114244202D01*
X108388282Y-114228428D01*
X108387500Y-114212500D01*
X108387500Y-113262500D01*
X108388282Y-113246572D01*
X108390622Y-113230798D01*
X108394497Y-113215329D01*
X108399870Y-113200314D01*
X108406688Y-113185898D01*
X108414886Y-113172220D01*
X108424386Y-113159411D01*
X108435095Y-113147595D01*
X108446911Y-113136886D01*
X108459720Y-113127386D01*
X108473398Y-113119188D01*
X108487814Y-113112370D01*
X108502829Y-113106997D01*
X108518298Y-113103122D01*
X108534072Y-113100782D01*
X108550000Y-113100000D01*
X108875000Y-113100000D01*
X108890928Y-113100782D01*
G37*
G36*
X108390928Y-113100782D02*
G01*
X108406702Y-113103122D01*
X108422171Y-113106997D01*
X108437186Y-113112370D01*
X108451602Y-113119188D01*
X108465280Y-113127386D01*
X108478089Y-113136886D01*
X108489905Y-113147595D01*
X108500614Y-113159411D01*
X108510114Y-113172220D01*
X108518312Y-113185898D01*
X108525130Y-113200314D01*
X108530503Y-113215329D01*
X108534378Y-113230798D01*
X108536718Y-113246572D01*
X108537500Y-113262500D01*
X108537500Y-114212500D01*
X108536718Y-114228428D01*
X108534378Y-114244202D01*
X108530503Y-114259671D01*
X108525130Y-114274686D01*
X108518312Y-114289102D01*
X108510114Y-114302780D01*
X108500614Y-114315589D01*
X108489905Y-114327405D01*
X108478089Y-114338114D01*
X108465280Y-114347614D01*
X108451602Y-114355812D01*
X108437186Y-114362630D01*
X108422171Y-114368003D01*
X108406702Y-114371878D01*
X108390928Y-114374218D01*
X108375000Y-114375000D01*
X108050000Y-114375000D01*
X108034072Y-114374218D01*
X108018298Y-114371878D01*
X108002829Y-114368003D01*
X107987814Y-114362630D01*
X107973398Y-114355812D01*
X107959720Y-114347614D01*
X107946911Y-114338114D01*
X107935095Y-114327405D01*
X107924386Y-114315589D01*
X107914886Y-114302780D01*
X107906688Y-114289102D01*
X107899870Y-114274686D01*
X107894497Y-114259671D01*
X107890622Y-114244202D01*
X107888282Y-114228428D01*
X107887500Y-114212500D01*
X107887500Y-113262500D01*
X107888282Y-113246572D01*
X107890622Y-113230798D01*
X107894497Y-113215329D01*
X107899870Y-113200314D01*
X107906688Y-113185898D01*
X107914886Y-113172220D01*
X107924386Y-113159411D01*
X107935095Y-113147595D01*
X107946911Y-113136886D01*
X107959720Y-113127386D01*
X107973398Y-113119188D01*
X107987814Y-113112370D01*
X108002829Y-113106997D01*
X108018298Y-113103122D01*
X108034072Y-113100782D01*
X108050000Y-113100000D01*
X108375000Y-113100000D01*
X108390928Y-113100782D01*
G37*
G36*
X107890928Y-113100782D02*
G01*
X107906702Y-113103122D01*
X107922171Y-113106997D01*
X107937186Y-113112370D01*
X107951602Y-113119188D01*
X107965280Y-113127386D01*
X107978089Y-113136886D01*
X107989905Y-113147595D01*
X108000614Y-113159411D01*
X108010114Y-113172220D01*
X108018312Y-113185898D01*
X108025130Y-113200314D01*
X108030503Y-113215329D01*
X108034378Y-113230798D01*
X108036718Y-113246572D01*
X108037500Y-113262500D01*
X108037500Y-114212500D01*
X108036718Y-114228428D01*
X108034378Y-114244202D01*
X108030503Y-114259671D01*
X108025130Y-114274686D01*
X108018312Y-114289102D01*
X108010114Y-114302780D01*
X108000614Y-114315589D01*
X107989905Y-114327405D01*
X107978089Y-114338114D01*
X107965280Y-114347614D01*
X107951602Y-114355812D01*
X107937186Y-114362630D01*
X107922171Y-114368003D01*
X107906702Y-114371878D01*
X107890928Y-114374218D01*
X107875000Y-114375000D01*
X107550000Y-114375000D01*
X107534072Y-114374218D01*
X107518298Y-114371878D01*
X107502829Y-114368003D01*
X107487814Y-114362630D01*
X107473398Y-114355812D01*
X107459720Y-114347614D01*
X107446911Y-114338114D01*
X107435095Y-114327405D01*
X107424386Y-114315589D01*
X107414886Y-114302780D01*
X107406688Y-114289102D01*
X107399870Y-114274686D01*
X107394497Y-114259671D01*
X107390622Y-114244202D01*
X107388282Y-114228428D01*
X107387500Y-114212500D01*
X107387500Y-113262500D01*
X107388282Y-113246572D01*
X107390622Y-113230798D01*
X107394497Y-113215329D01*
X107399870Y-113200314D01*
X107406688Y-113185898D01*
X107414886Y-113172220D01*
X107424386Y-113159411D01*
X107435095Y-113147595D01*
X107446911Y-113136886D01*
X107459720Y-113127386D01*
X107473398Y-113119188D01*
X107487814Y-113112370D01*
X107502829Y-113106997D01*
X107518298Y-113103122D01*
X107534072Y-113100782D01*
X107550000Y-113100000D01*
X107875000Y-113100000D01*
X107890928Y-113100782D01*
G37*
G36*
X107390928Y-113100782D02*
G01*
X107406702Y-113103122D01*
X107422171Y-113106997D01*
X107437186Y-113112370D01*
X107451602Y-113119188D01*
X107465280Y-113127386D01*
X107478089Y-113136886D01*
X107489905Y-113147595D01*
X107500614Y-113159411D01*
X107510114Y-113172220D01*
X107518312Y-113185898D01*
X107525130Y-113200314D01*
X107530503Y-113215329D01*
X107534378Y-113230798D01*
X107536718Y-113246572D01*
X107537500Y-113262500D01*
X107537500Y-114212500D01*
X107536718Y-114228428D01*
X107534378Y-114244202D01*
X107530503Y-114259671D01*
X107525130Y-114274686D01*
X107518312Y-114289102D01*
X107510114Y-114302780D01*
X107500614Y-114315589D01*
X107489905Y-114327405D01*
X107478089Y-114338114D01*
X107465280Y-114347614D01*
X107451602Y-114355812D01*
X107437186Y-114362630D01*
X107422171Y-114368003D01*
X107406702Y-114371878D01*
X107390928Y-114374218D01*
X107375000Y-114375000D01*
X107050000Y-114375000D01*
X107034072Y-114374218D01*
X107018298Y-114371878D01*
X107002829Y-114368003D01*
X106987814Y-114362630D01*
X106973398Y-114355812D01*
X106959720Y-114347614D01*
X106946911Y-114338114D01*
X106935095Y-114327405D01*
X106924386Y-114315589D01*
X106914886Y-114302780D01*
X106906688Y-114289102D01*
X106899870Y-114274686D01*
X106894497Y-114259671D01*
X106890622Y-114244202D01*
X106888282Y-114228428D01*
X106887500Y-114212500D01*
X106887500Y-113262500D01*
X106888282Y-113246572D01*
X106890622Y-113230798D01*
X106894497Y-113215329D01*
X106899870Y-113200314D01*
X106906688Y-113185898D01*
X106914886Y-113172220D01*
X106924386Y-113159411D01*
X106935095Y-113147595D01*
X106946911Y-113136886D01*
X106959720Y-113127386D01*
X106973398Y-113119188D01*
X106987814Y-113112370D01*
X107002829Y-113106997D01*
X107018298Y-113103122D01*
X107034072Y-113100782D01*
X107050000Y-113100000D01*
X107375000Y-113100000D01*
X107390928Y-113100782D01*
G37*
G36*
X106890928Y-113100782D02*
G01*
X106906702Y-113103122D01*
X106922171Y-113106997D01*
X106937186Y-113112370D01*
X106951602Y-113119188D01*
X106965280Y-113127386D01*
X106978089Y-113136886D01*
X106989905Y-113147595D01*
X107000614Y-113159411D01*
X107010114Y-113172220D01*
X107018312Y-113185898D01*
X107025130Y-113200314D01*
X107030503Y-113215329D01*
X107034378Y-113230798D01*
X107036718Y-113246572D01*
X107037500Y-113262500D01*
X107037500Y-114212500D01*
X107036718Y-114228428D01*
X107034378Y-114244202D01*
X107030503Y-114259671D01*
X107025130Y-114274686D01*
X107018312Y-114289102D01*
X107010114Y-114302780D01*
X107000614Y-114315589D01*
X106989905Y-114327405D01*
X106978089Y-114338114D01*
X106965280Y-114347614D01*
X106951602Y-114355812D01*
X106937186Y-114362630D01*
X106922171Y-114368003D01*
X106906702Y-114371878D01*
X106890928Y-114374218D01*
X106875000Y-114375000D01*
X106550000Y-114375000D01*
X106534072Y-114374218D01*
X106518298Y-114371878D01*
X106502829Y-114368003D01*
X106487814Y-114362630D01*
X106473398Y-114355812D01*
X106459720Y-114347614D01*
X106446911Y-114338114D01*
X106435095Y-114327405D01*
X106424386Y-114315589D01*
X106414886Y-114302780D01*
X106406688Y-114289102D01*
X106399870Y-114274686D01*
X106394497Y-114259671D01*
X106390622Y-114244202D01*
X106388282Y-114228428D01*
X106387500Y-114212500D01*
X106387500Y-113262500D01*
X106388282Y-113246572D01*
X106390622Y-113230798D01*
X106394497Y-113215329D01*
X106399870Y-113200314D01*
X106406688Y-113185898D01*
X106414886Y-113172220D01*
X106424386Y-113159411D01*
X106435095Y-113147595D01*
X106446911Y-113136886D01*
X106459720Y-113127386D01*
X106473398Y-113119188D01*
X106487814Y-113112370D01*
X106502829Y-113106997D01*
X106518298Y-113103122D01*
X106534072Y-113100782D01*
X106550000Y-113100000D01*
X106875000Y-113100000D01*
X106890928Y-113100782D01*
G37*
G36*
X106390928Y-113100782D02*
G01*
X106406702Y-113103122D01*
X106422171Y-113106997D01*
X106437186Y-113112370D01*
X106451602Y-113119188D01*
X106465280Y-113127386D01*
X106478089Y-113136886D01*
X106489905Y-113147595D01*
X106500614Y-113159411D01*
X106510114Y-113172220D01*
X106518312Y-113185898D01*
X106525130Y-113200314D01*
X106530503Y-113215329D01*
X106534378Y-113230798D01*
X106536718Y-113246572D01*
X106537500Y-113262500D01*
X106537500Y-114212500D01*
X106536718Y-114228428D01*
X106534378Y-114244202D01*
X106530503Y-114259671D01*
X106525130Y-114274686D01*
X106518312Y-114289102D01*
X106510114Y-114302780D01*
X106500614Y-114315589D01*
X106489905Y-114327405D01*
X106478089Y-114338114D01*
X106465280Y-114347614D01*
X106451602Y-114355812D01*
X106437186Y-114362630D01*
X106422171Y-114368003D01*
X106406702Y-114371878D01*
X106390928Y-114374218D01*
X106375000Y-114375000D01*
X106050000Y-114375000D01*
X106034072Y-114374218D01*
X106018298Y-114371878D01*
X106002829Y-114368003D01*
X105987814Y-114362630D01*
X105973398Y-114355812D01*
X105959720Y-114347614D01*
X105946911Y-114338114D01*
X105935095Y-114327405D01*
X105924386Y-114315589D01*
X105914886Y-114302780D01*
X105906688Y-114289102D01*
X105899870Y-114274686D01*
X105894497Y-114259671D01*
X105890622Y-114244202D01*
X105888282Y-114228428D01*
X105887500Y-114212500D01*
X105887500Y-113262500D01*
X105888282Y-113246572D01*
X105890622Y-113230798D01*
X105894497Y-113215329D01*
X105899870Y-113200314D01*
X105906688Y-113185898D01*
X105914886Y-113172220D01*
X105924386Y-113159411D01*
X105935095Y-113147595D01*
X105946911Y-113136886D01*
X105959720Y-113127386D01*
X105973398Y-113119188D01*
X105987814Y-113112370D01*
X106002829Y-113106997D01*
X106018298Y-113103122D01*
X106034072Y-113100782D01*
X106050000Y-113100000D01*
X106375000Y-113100000D01*
X106390928Y-113100782D01*
G37*
G36*
X106015928Y-112725782D02*
G01*
X106031702Y-112728122D01*
X106047171Y-112731997D01*
X106062186Y-112737370D01*
X106076602Y-112744188D01*
X106090280Y-112752386D01*
X106103089Y-112761886D01*
X106114905Y-112772595D01*
X106125614Y-112784411D01*
X106135114Y-112797220D01*
X106143312Y-112810898D01*
X106150130Y-112825314D01*
X106155503Y-112840329D01*
X106159378Y-112855798D01*
X106161718Y-112871572D01*
X106162500Y-112887500D01*
X106162500Y-113212500D01*
X106161718Y-113228428D01*
X106159378Y-113244202D01*
X106155503Y-113259671D01*
X106150130Y-113274686D01*
X106143312Y-113289102D01*
X106135114Y-113302780D01*
X106125614Y-113315589D01*
X106114905Y-113327405D01*
X106103089Y-113338114D01*
X106090280Y-113347614D01*
X106076602Y-113355812D01*
X106062186Y-113362630D01*
X106047171Y-113368003D01*
X106031702Y-113371878D01*
X106015928Y-113374218D01*
X106000000Y-113375000D01*
X105050000Y-113375000D01*
X105034072Y-113374218D01*
X105018298Y-113371878D01*
X105002829Y-113368003D01*
X104987814Y-113362630D01*
X104973398Y-113355812D01*
X104959720Y-113347614D01*
X104946911Y-113338114D01*
X104935095Y-113327405D01*
X104924386Y-113315589D01*
X104914886Y-113302780D01*
X104906688Y-113289102D01*
X104899870Y-113274686D01*
X104894497Y-113259671D01*
X104890622Y-113244202D01*
X104888282Y-113228428D01*
X104887500Y-113212500D01*
X104887500Y-112887500D01*
X104888282Y-112871572D01*
X104890622Y-112855798D01*
X104894497Y-112840329D01*
X104899870Y-112825314D01*
X104906688Y-112810898D01*
X104914886Y-112797220D01*
X104924386Y-112784411D01*
X104935095Y-112772595D01*
X104946911Y-112761886D01*
X104959720Y-112752386D01*
X104973398Y-112744188D01*
X104987814Y-112737370D01*
X105002829Y-112731997D01*
X105018298Y-112728122D01*
X105034072Y-112725782D01*
X105050000Y-112725000D01*
X106000000Y-112725000D01*
X106015928Y-112725782D01*
G37*
G36*
X106015928Y-112225782D02*
G01*
X106031702Y-112228122D01*
X106047171Y-112231997D01*
X106062186Y-112237370D01*
X106076602Y-112244188D01*
X106090280Y-112252386D01*
X106103089Y-112261886D01*
X106114905Y-112272595D01*
X106125614Y-112284411D01*
X106135114Y-112297220D01*
X106143312Y-112310898D01*
X106150130Y-112325314D01*
X106155503Y-112340329D01*
X106159378Y-112355798D01*
X106161718Y-112371572D01*
X106162500Y-112387500D01*
X106162500Y-112712500D01*
X106161718Y-112728428D01*
X106159378Y-112744202D01*
X106155503Y-112759671D01*
X106150130Y-112774686D01*
X106143312Y-112789102D01*
X106135114Y-112802780D01*
X106125614Y-112815589D01*
X106114905Y-112827405D01*
X106103089Y-112838114D01*
X106090280Y-112847614D01*
X106076602Y-112855812D01*
X106062186Y-112862630D01*
X106047171Y-112868003D01*
X106031702Y-112871878D01*
X106015928Y-112874218D01*
X106000000Y-112875000D01*
X105050000Y-112875000D01*
X105034072Y-112874218D01*
X105018298Y-112871878D01*
X105002829Y-112868003D01*
X104987814Y-112862630D01*
X104973398Y-112855812D01*
X104959720Y-112847614D01*
X104946911Y-112838114D01*
X104935095Y-112827405D01*
X104924386Y-112815589D01*
X104914886Y-112802780D01*
X104906688Y-112789102D01*
X104899870Y-112774686D01*
X104894497Y-112759671D01*
X104890622Y-112744202D01*
X104888282Y-112728428D01*
X104887500Y-112712500D01*
X104887500Y-112387500D01*
X104888282Y-112371572D01*
X104890622Y-112355798D01*
X104894497Y-112340329D01*
X104899870Y-112325314D01*
X104906688Y-112310898D01*
X104914886Y-112297220D01*
X104924386Y-112284411D01*
X104935095Y-112272595D01*
X104946911Y-112261886D01*
X104959720Y-112252386D01*
X104973398Y-112244188D01*
X104987814Y-112237370D01*
X105002829Y-112231997D01*
X105018298Y-112228122D01*
X105034072Y-112225782D01*
X105050000Y-112225000D01*
X106000000Y-112225000D01*
X106015928Y-112225782D01*
G37*
G36*
X106015928Y-111725782D02*
G01*
X106031702Y-111728122D01*
X106047171Y-111731997D01*
X106062186Y-111737370D01*
X106076602Y-111744188D01*
X106090280Y-111752386D01*
X106103089Y-111761886D01*
X106114905Y-111772595D01*
X106125614Y-111784411D01*
X106135114Y-111797220D01*
X106143312Y-111810898D01*
X106150130Y-111825314D01*
X106155503Y-111840329D01*
X106159378Y-111855798D01*
X106161718Y-111871572D01*
X106162500Y-111887500D01*
X106162500Y-112212500D01*
X106161718Y-112228428D01*
X106159378Y-112244202D01*
X106155503Y-112259671D01*
X106150130Y-112274686D01*
X106143312Y-112289102D01*
X106135114Y-112302780D01*
X106125614Y-112315589D01*
X106114905Y-112327405D01*
X106103089Y-112338114D01*
X106090280Y-112347614D01*
X106076602Y-112355812D01*
X106062186Y-112362630D01*
X106047171Y-112368003D01*
X106031702Y-112371878D01*
X106015928Y-112374218D01*
X106000000Y-112375000D01*
X105050000Y-112375000D01*
X105034072Y-112374218D01*
X105018298Y-112371878D01*
X105002829Y-112368003D01*
X104987814Y-112362630D01*
X104973398Y-112355812D01*
X104959720Y-112347614D01*
X104946911Y-112338114D01*
X104935095Y-112327405D01*
X104924386Y-112315589D01*
X104914886Y-112302780D01*
X104906688Y-112289102D01*
X104899870Y-112274686D01*
X104894497Y-112259671D01*
X104890622Y-112244202D01*
X104888282Y-112228428D01*
X104887500Y-112212500D01*
X104887500Y-111887500D01*
X104888282Y-111871572D01*
X104890622Y-111855798D01*
X104894497Y-111840329D01*
X104899870Y-111825314D01*
X104906688Y-111810898D01*
X104914886Y-111797220D01*
X104924386Y-111784411D01*
X104935095Y-111772595D01*
X104946911Y-111761886D01*
X104959720Y-111752386D01*
X104973398Y-111744188D01*
X104987814Y-111737370D01*
X105002829Y-111731997D01*
X105018298Y-111728122D01*
X105034072Y-111725782D01*
X105050000Y-111725000D01*
X106000000Y-111725000D01*
X106015928Y-111725782D01*
G37*
G36*
X106015928Y-111225782D02*
G01*
X106031702Y-111228122D01*
X106047171Y-111231997D01*
X106062186Y-111237370D01*
X106076602Y-111244188D01*
X106090280Y-111252386D01*
X106103089Y-111261886D01*
X106114905Y-111272595D01*
X106125614Y-111284411D01*
X106135114Y-111297220D01*
X106143312Y-111310898D01*
X106150130Y-111325314D01*
X106155503Y-111340329D01*
X106159378Y-111355798D01*
X106161718Y-111371572D01*
X106162500Y-111387500D01*
X106162500Y-111712500D01*
X106161718Y-111728428D01*
X106159378Y-111744202D01*
X106155503Y-111759671D01*
X106150130Y-111774686D01*
X106143312Y-111789102D01*
X106135114Y-111802780D01*
X106125614Y-111815589D01*
X106114905Y-111827405D01*
X106103089Y-111838114D01*
X106090280Y-111847614D01*
X106076602Y-111855812D01*
X106062186Y-111862630D01*
X106047171Y-111868003D01*
X106031702Y-111871878D01*
X106015928Y-111874218D01*
X106000000Y-111875000D01*
X105050000Y-111875000D01*
X105034072Y-111874218D01*
X105018298Y-111871878D01*
X105002829Y-111868003D01*
X104987814Y-111862630D01*
X104973398Y-111855812D01*
X104959720Y-111847614D01*
X104946911Y-111838114D01*
X104935095Y-111827405D01*
X104924386Y-111815589D01*
X104914886Y-111802780D01*
X104906688Y-111789102D01*
X104899870Y-111774686D01*
X104894497Y-111759671D01*
X104890622Y-111744202D01*
X104888282Y-111728428D01*
X104887500Y-111712500D01*
X104887500Y-111387500D01*
X104888282Y-111371572D01*
X104890622Y-111355798D01*
X104894497Y-111340329D01*
X104899870Y-111325314D01*
X104906688Y-111310898D01*
X104914886Y-111297220D01*
X104924386Y-111284411D01*
X104935095Y-111272595D01*
X104946911Y-111261886D01*
X104959720Y-111252386D01*
X104973398Y-111244188D01*
X104987814Y-111237370D01*
X105002829Y-111231997D01*
X105018298Y-111228122D01*
X105034072Y-111225782D01*
X105050000Y-111225000D01*
X106000000Y-111225000D01*
X106015928Y-111225782D01*
G37*
G36*
X106015928Y-110725782D02*
G01*
X106031702Y-110728122D01*
X106047171Y-110731997D01*
X106062186Y-110737370D01*
X106076602Y-110744188D01*
X106090280Y-110752386D01*
X106103089Y-110761886D01*
X106114905Y-110772595D01*
X106125614Y-110784411D01*
X106135114Y-110797220D01*
X106143312Y-110810898D01*
X106150130Y-110825314D01*
X106155503Y-110840329D01*
X106159378Y-110855798D01*
X106161718Y-110871572D01*
X106162500Y-110887500D01*
X106162500Y-111212500D01*
X106161718Y-111228428D01*
X106159378Y-111244202D01*
X106155503Y-111259671D01*
X106150130Y-111274686D01*
X106143312Y-111289102D01*
X106135114Y-111302780D01*
X106125614Y-111315589D01*
X106114905Y-111327405D01*
X106103089Y-111338114D01*
X106090280Y-111347614D01*
X106076602Y-111355812D01*
X106062186Y-111362630D01*
X106047171Y-111368003D01*
X106031702Y-111371878D01*
X106015928Y-111374218D01*
X106000000Y-111375000D01*
X105050000Y-111375000D01*
X105034072Y-111374218D01*
X105018298Y-111371878D01*
X105002829Y-111368003D01*
X104987814Y-111362630D01*
X104973398Y-111355812D01*
X104959720Y-111347614D01*
X104946911Y-111338114D01*
X104935095Y-111327405D01*
X104924386Y-111315589D01*
X104914886Y-111302780D01*
X104906688Y-111289102D01*
X104899870Y-111274686D01*
X104894497Y-111259671D01*
X104890622Y-111244202D01*
X104888282Y-111228428D01*
X104887500Y-111212500D01*
X104887500Y-110887500D01*
X104888282Y-110871572D01*
X104890622Y-110855798D01*
X104894497Y-110840329D01*
X104899870Y-110825314D01*
X104906688Y-110810898D01*
X104914886Y-110797220D01*
X104924386Y-110784411D01*
X104935095Y-110772595D01*
X104946911Y-110761886D01*
X104959720Y-110752386D01*
X104973398Y-110744188D01*
X104987814Y-110737370D01*
X105002829Y-110731997D01*
X105018298Y-110728122D01*
X105034072Y-110725782D01*
X105050000Y-110725000D01*
X106000000Y-110725000D01*
X106015928Y-110725782D01*
G37*
G36*
X106015928Y-110225782D02*
G01*
X106031702Y-110228122D01*
X106047171Y-110231997D01*
X106062186Y-110237370D01*
X106076602Y-110244188D01*
X106090280Y-110252386D01*
X106103089Y-110261886D01*
X106114905Y-110272595D01*
X106125614Y-110284411D01*
X106135114Y-110297220D01*
X106143312Y-110310898D01*
X106150130Y-110325314D01*
X106155503Y-110340329D01*
X106159378Y-110355798D01*
X106161718Y-110371572D01*
X106162500Y-110387500D01*
X106162500Y-110712500D01*
X106161718Y-110728428D01*
X106159378Y-110744202D01*
X106155503Y-110759671D01*
X106150130Y-110774686D01*
X106143312Y-110789102D01*
X106135114Y-110802780D01*
X106125614Y-110815589D01*
X106114905Y-110827405D01*
X106103089Y-110838114D01*
X106090280Y-110847614D01*
X106076602Y-110855812D01*
X106062186Y-110862630D01*
X106047171Y-110868003D01*
X106031702Y-110871878D01*
X106015928Y-110874218D01*
X106000000Y-110875000D01*
X105050000Y-110875000D01*
X105034072Y-110874218D01*
X105018298Y-110871878D01*
X105002829Y-110868003D01*
X104987814Y-110862630D01*
X104973398Y-110855812D01*
X104959720Y-110847614D01*
X104946911Y-110838114D01*
X104935095Y-110827405D01*
X104924386Y-110815589D01*
X104914886Y-110802780D01*
X104906688Y-110789102D01*
X104899870Y-110774686D01*
X104894497Y-110759671D01*
X104890622Y-110744202D01*
X104888282Y-110728428D01*
X104887500Y-110712500D01*
X104887500Y-110387500D01*
X104888282Y-110371572D01*
X104890622Y-110355798D01*
X104894497Y-110340329D01*
X104899870Y-110325314D01*
X104906688Y-110310898D01*
X104914886Y-110297220D01*
X104924386Y-110284411D01*
X104935095Y-110272595D01*
X104946911Y-110261886D01*
X104959720Y-110252386D01*
X104973398Y-110244188D01*
X104987814Y-110237370D01*
X105002829Y-110231997D01*
X105018298Y-110228122D01*
X105034072Y-110225782D01*
X105050000Y-110225000D01*
X106000000Y-110225000D01*
X106015928Y-110225782D01*
G37*
G36*
X106015928Y-109725782D02*
G01*
X106031702Y-109728122D01*
X106047171Y-109731997D01*
X106062186Y-109737370D01*
X106076602Y-109744188D01*
X106090280Y-109752386D01*
X106103089Y-109761886D01*
X106114905Y-109772595D01*
X106125614Y-109784411D01*
X106135114Y-109797220D01*
X106143312Y-109810898D01*
X106150130Y-109825314D01*
X106155503Y-109840329D01*
X106159378Y-109855798D01*
X106161718Y-109871572D01*
X106162500Y-109887500D01*
X106162500Y-110212500D01*
X106161718Y-110228428D01*
X106159378Y-110244202D01*
X106155503Y-110259671D01*
X106150130Y-110274686D01*
X106143312Y-110289102D01*
X106135114Y-110302780D01*
X106125614Y-110315589D01*
X106114905Y-110327405D01*
X106103089Y-110338114D01*
X106090280Y-110347614D01*
X106076602Y-110355812D01*
X106062186Y-110362630D01*
X106047171Y-110368003D01*
X106031702Y-110371878D01*
X106015928Y-110374218D01*
X106000000Y-110375000D01*
X105050000Y-110375000D01*
X105034072Y-110374218D01*
X105018298Y-110371878D01*
X105002829Y-110368003D01*
X104987814Y-110362630D01*
X104973398Y-110355812D01*
X104959720Y-110347614D01*
X104946911Y-110338114D01*
X104935095Y-110327405D01*
X104924386Y-110315589D01*
X104914886Y-110302780D01*
X104906688Y-110289102D01*
X104899870Y-110274686D01*
X104894497Y-110259671D01*
X104890622Y-110244202D01*
X104888282Y-110228428D01*
X104887500Y-110212500D01*
X104887500Y-109887500D01*
X104888282Y-109871572D01*
X104890622Y-109855798D01*
X104894497Y-109840329D01*
X104899870Y-109825314D01*
X104906688Y-109810898D01*
X104914886Y-109797220D01*
X104924386Y-109784411D01*
X104935095Y-109772595D01*
X104946911Y-109761886D01*
X104959720Y-109752386D01*
X104973398Y-109744188D01*
X104987814Y-109737370D01*
X105002829Y-109731997D01*
X105018298Y-109728122D01*
X105034072Y-109725782D01*
X105050000Y-109725000D01*
X106000000Y-109725000D01*
X106015928Y-109725782D01*
G37*
G36*
X106015928Y-109225782D02*
G01*
X106031702Y-109228122D01*
X106047171Y-109231997D01*
X106062186Y-109237370D01*
X106076602Y-109244188D01*
X106090280Y-109252386D01*
X106103089Y-109261886D01*
X106114905Y-109272595D01*
X106125614Y-109284411D01*
X106135114Y-109297220D01*
X106143312Y-109310898D01*
X106150130Y-109325314D01*
X106155503Y-109340329D01*
X106159378Y-109355798D01*
X106161718Y-109371572D01*
X106162500Y-109387500D01*
X106162500Y-109712500D01*
X106161718Y-109728428D01*
X106159378Y-109744202D01*
X106155503Y-109759671D01*
X106150130Y-109774686D01*
X106143312Y-109789102D01*
X106135114Y-109802780D01*
X106125614Y-109815589D01*
X106114905Y-109827405D01*
X106103089Y-109838114D01*
X106090280Y-109847614D01*
X106076602Y-109855812D01*
X106062186Y-109862630D01*
X106047171Y-109868003D01*
X106031702Y-109871878D01*
X106015928Y-109874218D01*
X106000000Y-109875000D01*
X105050000Y-109875000D01*
X105034072Y-109874218D01*
X105018298Y-109871878D01*
X105002829Y-109868003D01*
X104987814Y-109862630D01*
X104973398Y-109855812D01*
X104959720Y-109847614D01*
X104946911Y-109838114D01*
X104935095Y-109827405D01*
X104924386Y-109815589D01*
X104914886Y-109802780D01*
X104906688Y-109789102D01*
X104899870Y-109774686D01*
X104894497Y-109759671D01*
X104890622Y-109744202D01*
X104888282Y-109728428D01*
X104887500Y-109712500D01*
X104887500Y-109387500D01*
X104888282Y-109371572D01*
X104890622Y-109355798D01*
X104894497Y-109340329D01*
X104899870Y-109325314D01*
X104906688Y-109310898D01*
X104914886Y-109297220D01*
X104924386Y-109284411D01*
X104935095Y-109272595D01*
X104946911Y-109261886D01*
X104959720Y-109252386D01*
X104973398Y-109244188D01*
X104987814Y-109237370D01*
X105002829Y-109231997D01*
X105018298Y-109228122D01*
X105034072Y-109225782D01*
X105050000Y-109225000D01*
X106000000Y-109225000D01*
X106015928Y-109225782D01*
G37*
G36*
X106390928Y-108225782D02*
G01*
X106406702Y-108228122D01*
X106422171Y-108231997D01*
X106437186Y-108237370D01*
X106451602Y-108244188D01*
X106465280Y-108252386D01*
X106478089Y-108261886D01*
X106489905Y-108272595D01*
X106500614Y-108284411D01*
X106510114Y-108297220D01*
X106518312Y-108310898D01*
X106525130Y-108325314D01*
X106530503Y-108340329D01*
X106534378Y-108355798D01*
X106536718Y-108371572D01*
X106537500Y-108387500D01*
X106537500Y-109337500D01*
X106536718Y-109353428D01*
X106534378Y-109369202D01*
X106530503Y-109384671D01*
X106525130Y-109399686D01*
X106518312Y-109414102D01*
X106510114Y-109427780D01*
X106500614Y-109440589D01*
X106489905Y-109452405D01*
X106478089Y-109463114D01*
X106465280Y-109472614D01*
X106451602Y-109480812D01*
X106437186Y-109487630D01*
X106422171Y-109493003D01*
X106406702Y-109496878D01*
X106390928Y-109499218D01*
X106375000Y-109500000D01*
X106050000Y-109500000D01*
X106034072Y-109499218D01*
X106018298Y-109496878D01*
X106002829Y-109493003D01*
X105987814Y-109487630D01*
X105973398Y-109480812D01*
X105959720Y-109472614D01*
X105946911Y-109463114D01*
X105935095Y-109452405D01*
X105924386Y-109440589D01*
X105914886Y-109427780D01*
X105906688Y-109414102D01*
X105899870Y-109399686D01*
X105894497Y-109384671D01*
X105890622Y-109369202D01*
X105888282Y-109353428D01*
X105887500Y-109337500D01*
X105887500Y-108387500D01*
X105888282Y-108371572D01*
X105890622Y-108355798D01*
X105894497Y-108340329D01*
X105899870Y-108325314D01*
X105906688Y-108310898D01*
X105914886Y-108297220D01*
X105924386Y-108284411D01*
X105935095Y-108272595D01*
X105946911Y-108261886D01*
X105959720Y-108252386D01*
X105973398Y-108244188D01*
X105987814Y-108237370D01*
X106002829Y-108231997D01*
X106018298Y-108228122D01*
X106034072Y-108225782D01*
X106050000Y-108225000D01*
X106375000Y-108225000D01*
X106390928Y-108225782D01*
G37*
G36*
X106890928Y-108225782D02*
G01*
X106906702Y-108228122D01*
X106922171Y-108231997D01*
X106937186Y-108237370D01*
X106951602Y-108244188D01*
X106965280Y-108252386D01*
X106978089Y-108261886D01*
X106989905Y-108272595D01*
X107000614Y-108284411D01*
X107010114Y-108297220D01*
X107018312Y-108310898D01*
X107025130Y-108325314D01*
X107030503Y-108340329D01*
X107034378Y-108355798D01*
X107036718Y-108371572D01*
X107037500Y-108387500D01*
X107037500Y-109337500D01*
X107036718Y-109353428D01*
X107034378Y-109369202D01*
X107030503Y-109384671D01*
X107025130Y-109399686D01*
X107018312Y-109414102D01*
X107010114Y-109427780D01*
X107000614Y-109440589D01*
X106989905Y-109452405D01*
X106978089Y-109463114D01*
X106965280Y-109472614D01*
X106951602Y-109480812D01*
X106937186Y-109487630D01*
X106922171Y-109493003D01*
X106906702Y-109496878D01*
X106890928Y-109499218D01*
X106875000Y-109500000D01*
X106550000Y-109500000D01*
X106534072Y-109499218D01*
X106518298Y-109496878D01*
X106502829Y-109493003D01*
X106487814Y-109487630D01*
X106473398Y-109480812D01*
X106459720Y-109472614D01*
X106446911Y-109463114D01*
X106435095Y-109452405D01*
X106424386Y-109440589D01*
X106414886Y-109427780D01*
X106406688Y-109414102D01*
X106399870Y-109399686D01*
X106394497Y-109384671D01*
X106390622Y-109369202D01*
X106388282Y-109353428D01*
X106387500Y-109337500D01*
X106387500Y-108387500D01*
X106388282Y-108371572D01*
X106390622Y-108355798D01*
X106394497Y-108340329D01*
X106399870Y-108325314D01*
X106406688Y-108310898D01*
X106414886Y-108297220D01*
X106424386Y-108284411D01*
X106435095Y-108272595D01*
X106446911Y-108261886D01*
X106459720Y-108252386D01*
X106473398Y-108244188D01*
X106487814Y-108237370D01*
X106502829Y-108231997D01*
X106518298Y-108228122D01*
X106534072Y-108225782D01*
X106550000Y-108225000D01*
X106875000Y-108225000D01*
X106890928Y-108225782D01*
G37*
G36*
X107390928Y-108225782D02*
G01*
X107406702Y-108228122D01*
X107422171Y-108231997D01*
X107437186Y-108237370D01*
X107451602Y-108244188D01*
X107465280Y-108252386D01*
X107478089Y-108261886D01*
X107489905Y-108272595D01*
X107500614Y-108284411D01*
X107510114Y-108297220D01*
X107518312Y-108310898D01*
X107525130Y-108325314D01*
X107530503Y-108340329D01*
X107534378Y-108355798D01*
X107536718Y-108371572D01*
X107537500Y-108387500D01*
X107537500Y-109337500D01*
X107536718Y-109353428D01*
X107534378Y-109369202D01*
X107530503Y-109384671D01*
X107525130Y-109399686D01*
X107518312Y-109414102D01*
X107510114Y-109427780D01*
X107500614Y-109440589D01*
X107489905Y-109452405D01*
X107478089Y-109463114D01*
X107465280Y-109472614D01*
X107451602Y-109480812D01*
X107437186Y-109487630D01*
X107422171Y-109493003D01*
X107406702Y-109496878D01*
X107390928Y-109499218D01*
X107375000Y-109500000D01*
X107050000Y-109500000D01*
X107034072Y-109499218D01*
X107018298Y-109496878D01*
X107002829Y-109493003D01*
X106987814Y-109487630D01*
X106973398Y-109480812D01*
X106959720Y-109472614D01*
X106946911Y-109463114D01*
X106935095Y-109452405D01*
X106924386Y-109440589D01*
X106914886Y-109427780D01*
X106906688Y-109414102D01*
X106899870Y-109399686D01*
X106894497Y-109384671D01*
X106890622Y-109369202D01*
X106888282Y-109353428D01*
X106887500Y-109337500D01*
X106887500Y-108387500D01*
X106888282Y-108371572D01*
X106890622Y-108355798D01*
X106894497Y-108340329D01*
X106899870Y-108325314D01*
X106906688Y-108310898D01*
X106914886Y-108297220D01*
X106924386Y-108284411D01*
X106935095Y-108272595D01*
X106946911Y-108261886D01*
X106959720Y-108252386D01*
X106973398Y-108244188D01*
X106987814Y-108237370D01*
X107002829Y-108231997D01*
X107018298Y-108228122D01*
X107034072Y-108225782D01*
X107050000Y-108225000D01*
X107375000Y-108225000D01*
X107390928Y-108225782D01*
G37*
G36*
X107890928Y-108225782D02*
G01*
X107906702Y-108228122D01*
X107922171Y-108231997D01*
X107937186Y-108237370D01*
X107951602Y-108244188D01*
X107965280Y-108252386D01*
X107978089Y-108261886D01*
X107989905Y-108272595D01*
X108000614Y-108284411D01*
X108010114Y-108297220D01*
X108018312Y-108310898D01*
X108025130Y-108325314D01*
X108030503Y-108340329D01*
X108034378Y-108355798D01*
X108036718Y-108371572D01*
X108037500Y-108387500D01*
X108037500Y-109337500D01*
X108036718Y-109353428D01*
X108034378Y-109369202D01*
X108030503Y-109384671D01*
X108025130Y-109399686D01*
X108018312Y-109414102D01*
X108010114Y-109427780D01*
X108000614Y-109440589D01*
X107989905Y-109452405D01*
X107978089Y-109463114D01*
X107965280Y-109472614D01*
X107951602Y-109480812D01*
X107937186Y-109487630D01*
X107922171Y-109493003D01*
X107906702Y-109496878D01*
X107890928Y-109499218D01*
X107875000Y-109500000D01*
X107550000Y-109500000D01*
X107534072Y-109499218D01*
X107518298Y-109496878D01*
X107502829Y-109493003D01*
X107487814Y-109487630D01*
X107473398Y-109480812D01*
X107459720Y-109472614D01*
X107446911Y-109463114D01*
X107435095Y-109452405D01*
X107424386Y-109440589D01*
X107414886Y-109427780D01*
X107406688Y-109414102D01*
X107399870Y-109399686D01*
X107394497Y-109384671D01*
X107390622Y-109369202D01*
X107388282Y-109353428D01*
X107387500Y-109337500D01*
X107387500Y-108387500D01*
X107388282Y-108371572D01*
X107390622Y-108355798D01*
X107394497Y-108340329D01*
X107399870Y-108325314D01*
X107406688Y-108310898D01*
X107414886Y-108297220D01*
X107424386Y-108284411D01*
X107435095Y-108272595D01*
X107446911Y-108261886D01*
X107459720Y-108252386D01*
X107473398Y-108244188D01*
X107487814Y-108237370D01*
X107502829Y-108231997D01*
X107518298Y-108228122D01*
X107534072Y-108225782D01*
X107550000Y-108225000D01*
X107875000Y-108225000D01*
X107890928Y-108225782D01*
G37*
G36*
X108390928Y-108225782D02*
G01*
X108406702Y-108228122D01*
X108422171Y-108231997D01*
X108437186Y-108237370D01*
X108451602Y-108244188D01*
X108465280Y-108252386D01*
X108478089Y-108261886D01*
X108489905Y-108272595D01*
X108500614Y-108284411D01*
X108510114Y-108297220D01*
X108518312Y-108310898D01*
X108525130Y-108325314D01*
X108530503Y-108340329D01*
X108534378Y-108355798D01*
X108536718Y-108371572D01*
X108537500Y-108387500D01*
X108537500Y-109337500D01*
X108536718Y-109353428D01*
X108534378Y-109369202D01*
X108530503Y-109384671D01*
X108525130Y-109399686D01*
X108518312Y-109414102D01*
X108510114Y-109427780D01*
X108500614Y-109440589D01*
X108489905Y-109452405D01*
X108478089Y-109463114D01*
X108465280Y-109472614D01*
X108451602Y-109480812D01*
X108437186Y-109487630D01*
X108422171Y-109493003D01*
X108406702Y-109496878D01*
X108390928Y-109499218D01*
X108375000Y-109500000D01*
X108050000Y-109500000D01*
X108034072Y-109499218D01*
X108018298Y-109496878D01*
X108002829Y-109493003D01*
X107987814Y-109487630D01*
X107973398Y-109480812D01*
X107959720Y-109472614D01*
X107946911Y-109463114D01*
X107935095Y-109452405D01*
X107924386Y-109440589D01*
X107914886Y-109427780D01*
X107906688Y-109414102D01*
X107899870Y-109399686D01*
X107894497Y-109384671D01*
X107890622Y-109369202D01*
X107888282Y-109353428D01*
X107887500Y-109337500D01*
X107887500Y-108387500D01*
X107888282Y-108371572D01*
X107890622Y-108355798D01*
X107894497Y-108340329D01*
X107899870Y-108325314D01*
X107906688Y-108310898D01*
X107914886Y-108297220D01*
X107924386Y-108284411D01*
X107935095Y-108272595D01*
X107946911Y-108261886D01*
X107959720Y-108252386D01*
X107973398Y-108244188D01*
X107987814Y-108237370D01*
X108002829Y-108231997D01*
X108018298Y-108228122D01*
X108034072Y-108225782D01*
X108050000Y-108225000D01*
X108375000Y-108225000D01*
X108390928Y-108225782D01*
G37*
G36*
X108890928Y-108225782D02*
G01*
X108906702Y-108228122D01*
X108922171Y-108231997D01*
X108937186Y-108237370D01*
X108951602Y-108244188D01*
X108965280Y-108252386D01*
X108978089Y-108261886D01*
X108989905Y-108272595D01*
X109000614Y-108284411D01*
X109010114Y-108297220D01*
X109018312Y-108310898D01*
X109025130Y-108325314D01*
X109030503Y-108340329D01*
X109034378Y-108355798D01*
X109036718Y-108371572D01*
X109037500Y-108387500D01*
X109037500Y-109337500D01*
X109036718Y-109353428D01*
X109034378Y-109369202D01*
X109030503Y-109384671D01*
X109025130Y-109399686D01*
X109018312Y-109414102D01*
X109010114Y-109427780D01*
X109000614Y-109440589D01*
X108989905Y-109452405D01*
X108978089Y-109463114D01*
X108965280Y-109472614D01*
X108951602Y-109480812D01*
X108937186Y-109487630D01*
X108922171Y-109493003D01*
X108906702Y-109496878D01*
X108890928Y-109499218D01*
X108875000Y-109500000D01*
X108550000Y-109500000D01*
X108534072Y-109499218D01*
X108518298Y-109496878D01*
X108502829Y-109493003D01*
X108487814Y-109487630D01*
X108473398Y-109480812D01*
X108459720Y-109472614D01*
X108446911Y-109463114D01*
X108435095Y-109452405D01*
X108424386Y-109440589D01*
X108414886Y-109427780D01*
X108406688Y-109414102D01*
X108399870Y-109399686D01*
X108394497Y-109384671D01*
X108390622Y-109369202D01*
X108388282Y-109353428D01*
X108387500Y-109337500D01*
X108387500Y-108387500D01*
X108388282Y-108371572D01*
X108390622Y-108355798D01*
X108394497Y-108340329D01*
X108399870Y-108325314D01*
X108406688Y-108310898D01*
X108414886Y-108297220D01*
X108424386Y-108284411D01*
X108435095Y-108272595D01*
X108446911Y-108261886D01*
X108459720Y-108252386D01*
X108473398Y-108244188D01*
X108487814Y-108237370D01*
X108502829Y-108231997D01*
X108518298Y-108228122D01*
X108534072Y-108225782D01*
X108550000Y-108225000D01*
X108875000Y-108225000D01*
X108890928Y-108225782D01*
G37*
G36*
X109390928Y-108225782D02*
G01*
X109406702Y-108228122D01*
X109422171Y-108231997D01*
X109437186Y-108237370D01*
X109451602Y-108244188D01*
X109465280Y-108252386D01*
X109478089Y-108261886D01*
X109489905Y-108272595D01*
X109500614Y-108284411D01*
X109510114Y-108297220D01*
X109518312Y-108310898D01*
X109525130Y-108325314D01*
X109530503Y-108340329D01*
X109534378Y-108355798D01*
X109536718Y-108371572D01*
X109537500Y-108387500D01*
X109537500Y-109337500D01*
X109536718Y-109353428D01*
X109534378Y-109369202D01*
X109530503Y-109384671D01*
X109525130Y-109399686D01*
X109518312Y-109414102D01*
X109510114Y-109427780D01*
X109500614Y-109440589D01*
X109489905Y-109452405D01*
X109478089Y-109463114D01*
X109465280Y-109472614D01*
X109451602Y-109480812D01*
X109437186Y-109487630D01*
X109422171Y-109493003D01*
X109406702Y-109496878D01*
X109390928Y-109499218D01*
X109375000Y-109500000D01*
X109050000Y-109500000D01*
X109034072Y-109499218D01*
X109018298Y-109496878D01*
X109002829Y-109493003D01*
X108987814Y-109487630D01*
X108973398Y-109480812D01*
X108959720Y-109472614D01*
X108946911Y-109463114D01*
X108935095Y-109452405D01*
X108924386Y-109440589D01*
X108914886Y-109427780D01*
X108906688Y-109414102D01*
X108899870Y-109399686D01*
X108894497Y-109384671D01*
X108890622Y-109369202D01*
X108888282Y-109353428D01*
X108887500Y-109337500D01*
X108887500Y-108387500D01*
X108888282Y-108371572D01*
X108890622Y-108355798D01*
X108894497Y-108340329D01*
X108899870Y-108325314D01*
X108906688Y-108310898D01*
X108914886Y-108297220D01*
X108924386Y-108284411D01*
X108935095Y-108272595D01*
X108946911Y-108261886D01*
X108959720Y-108252386D01*
X108973398Y-108244188D01*
X108987814Y-108237370D01*
X109002829Y-108231997D01*
X109018298Y-108228122D01*
X109034072Y-108225782D01*
X109050000Y-108225000D01*
X109375000Y-108225000D01*
X109390928Y-108225782D01*
G37*
G36*
X109890928Y-108225782D02*
G01*
X109906702Y-108228122D01*
X109922171Y-108231997D01*
X109937186Y-108237370D01*
X109951602Y-108244188D01*
X109965280Y-108252386D01*
X109978089Y-108261886D01*
X109989905Y-108272595D01*
X110000614Y-108284411D01*
X110010114Y-108297220D01*
X110018312Y-108310898D01*
X110025130Y-108325314D01*
X110030503Y-108340329D01*
X110034378Y-108355798D01*
X110036718Y-108371572D01*
X110037500Y-108387500D01*
X110037500Y-109337500D01*
X110036718Y-109353428D01*
X110034378Y-109369202D01*
X110030503Y-109384671D01*
X110025130Y-109399686D01*
X110018312Y-109414102D01*
X110010114Y-109427780D01*
X110000614Y-109440589D01*
X109989905Y-109452405D01*
X109978089Y-109463114D01*
X109965280Y-109472614D01*
X109951602Y-109480812D01*
X109937186Y-109487630D01*
X109922171Y-109493003D01*
X109906702Y-109496878D01*
X109890928Y-109499218D01*
X109875000Y-109500000D01*
X109550000Y-109500000D01*
X109534072Y-109499218D01*
X109518298Y-109496878D01*
X109502829Y-109493003D01*
X109487814Y-109487630D01*
X109473398Y-109480812D01*
X109459720Y-109472614D01*
X109446911Y-109463114D01*
X109435095Y-109452405D01*
X109424386Y-109440589D01*
X109414886Y-109427780D01*
X109406688Y-109414102D01*
X109399870Y-109399686D01*
X109394497Y-109384671D01*
X109390622Y-109369202D01*
X109388282Y-109353428D01*
X109387500Y-109337500D01*
X109387500Y-108387500D01*
X109388282Y-108371572D01*
X109390622Y-108355798D01*
X109394497Y-108340329D01*
X109399870Y-108325314D01*
X109406688Y-108310898D01*
X109414886Y-108297220D01*
X109424386Y-108284411D01*
X109435095Y-108272595D01*
X109446911Y-108261886D01*
X109459720Y-108252386D01*
X109473398Y-108244188D01*
X109487814Y-108237370D01*
X109502829Y-108231997D01*
X109518298Y-108228122D01*
X109534072Y-108225782D01*
X109550000Y-108225000D01*
X109875000Y-108225000D01*
X109890928Y-108225782D01*
G37*
G36*
X109456788Y-109551365D02*
G01*
X109484308Y-109555447D01*
X109511296Y-109562207D01*
X109537491Y-109571580D01*
X109562641Y-109583475D01*
X109586504Y-109597778D01*
X109608850Y-109614352D01*
X109629465Y-109633035D01*
X109648148Y-109653650D01*
X109664722Y-109675996D01*
X109679025Y-109699859D01*
X109690920Y-109725009D01*
X109700293Y-109751204D01*
X109707053Y-109778192D01*
X109711135Y-109805712D01*
X109712500Y-109833500D01*
X109712500Y-112766500D01*
X109711135Y-112794288D01*
X109707053Y-112821808D01*
X109700293Y-112848796D01*
X109690920Y-112874991D01*
X109679025Y-112900141D01*
X109664722Y-112924004D01*
X109648148Y-112946350D01*
X109629465Y-112966965D01*
X109608850Y-112985648D01*
X109586504Y-113002222D01*
X109562641Y-113016525D01*
X109537491Y-113028420D01*
X109511296Y-113037793D01*
X109484308Y-113044553D01*
X109456788Y-113048635D01*
X109429000Y-113050000D01*
X106496000Y-113050000D01*
X106468212Y-113048635D01*
X106440692Y-113044553D01*
X106413704Y-113037793D01*
X106387509Y-113028420D01*
X106362359Y-113016525D01*
X106338496Y-113002222D01*
X106316150Y-112985648D01*
X106295535Y-112966965D01*
X106276852Y-112946350D01*
X106260278Y-112924004D01*
X106245975Y-112900141D01*
X106234080Y-112874991D01*
X106224707Y-112848796D01*
X106217947Y-112821808D01*
X106213865Y-112794288D01*
X106212500Y-112766500D01*
X106212500Y-109833500D01*
X106213865Y-109805712D01*
X106217947Y-109778192D01*
X106224707Y-109751204D01*
X106234080Y-109725009D01*
X106245975Y-109699859D01*
X106260278Y-109675996D01*
X106276852Y-109653650D01*
X106295535Y-109633035D01*
X106316150Y-109614352D01*
X106338496Y-109597778D01*
X106362359Y-109583475D01*
X106387509Y-109571580D01*
X106413704Y-109562207D01*
X106440692Y-109555447D01*
X106468212Y-109551365D01*
X106496000Y-109550000D01*
X109429000Y-109550000D01*
X109456788Y-109551365D01*
G37*
G36*
X128182105Y-105900963D02*
G01*
X128194298Y-105902164D01*
X128232754Y-105909814D01*
X128244479Y-105913371D01*
X128280692Y-105928371D01*
X128291497Y-105934146D01*
X128324105Y-105955934D01*
X128333576Y-105963707D01*
X128361293Y-105991424D01*
X128369066Y-106000895D01*
X128390854Y-106033503D01*
X128396629Y-106044308D01*
X128411629Y-106080521D01*
X128415186Y-106092246D01*
X128422836Y-106130702D01*
X128424037Y-106142895D01*
X128425000Y-106162500D01*
X128425000Y-106837500D01*
X128424037Y-106857105D01*
X128422836Y-106869298D01*
X128415186Y-106907754D01*
X128411629Y-106919479D01*
X128396629Y-106955692D01*
X128390854Y-106966497D01*
X128369066Y-106999105D01*
X128361293Y-107008576D01*
X128333576Y-107036293D01*
X128324105Y-107044066D01*
X128291497Y-107065854D01*
X128280692Y-107071629D01*
X128244479Y-107086629D01*
X128232754Y-107090186D01*
X128194298Y-107097836D01*
X128182105Y-107099037D01*
X128162500Y-107100000D01*
X128100888Y-107100000D01*
X128081283Y-107099037D01*
X128069090Y-107097836D01*
X128030634Y-107090186D01*
X128018909Y-107086629D01*
X127982696Y-107071629D01*
X127971891Y-107065854D01*
X127939283Y-107044066D01*
X127929812Y-107036293D01*
X127915273Y-107023115D01*
X127851885Y-106959727D01*
X127838707Y-106945188D01*
X127830934Y-106935717D01*
X127809146Y-106903109D01*
X127803371Y-106892304D01*
X127788371Y-106856091D01*
X127784814Y-106844366D01*
X127777164Y-106805910D01*
X127775963Y-106793717D01*
X127775000Y-106774112D01*
X127775000Y-106162500D01*
X127775963Y-106142895D01*
X127777164Y-106130702D01*
X127784814Y-106092246D01*
X127788371Y-106080521D01*
X127803371Y-106044308D01*
X127809146Y-106033503D01*
X127830934Y-106000895D01*
X127838707Y-105991424D01*
X127866424Y-105963707D01*
X127875895Y-105955934D01*
X127908503Y-105934146D01*
X127919308Y-105928371D01*
X127955521Y-105913371D01*
X127967246Y-105909814D01*
X128005702Y-105902164D01*
X128017895Y-105900963D01*
X128037500Y-105900000D01*
X128162500Y-105900000D01*
X128182105Y-105900963D01*
G37*
G36*
X128728428Y-105900782D02*
G01*
X128744202Y-105903122D01*
X128759671Y-105906997D01*
X128774686Y-105912370D01*
X128789102Y-105919188D01*
X128802780Y-105927386D01*
X128815589Y-105936886D01*
X128827405Y-105947595D01*
X128838114Y-105959411D01*
X128847614Y-105972220D01*
X128855812Y-105985898D01*
X128862630Y-106000314D01*
X128868003Y-106015329D01*
X128871878Y-106030798D01*
X128874218Y-106046572D01*
X128875000Y-106062500D01*
X128875000Y-106937500D01*
X128874218Y-106953428D01*
X128871878Y-106969202D01*
X128868003Y-106984671D01*
X128862630Y-106999686D01*
X128855812Y-107014102D01*
X128847614Y-107027780D01*
X128838114Y-107040589D01*
X128827405Y-107052405D01*
X128815589Y-107063114D01*
X128802780Y-107072614D01*
X128789102Y-107080812D01*
X128774686Y-107087630D01*
X128759671Y-107093003D01*
X128744202Y-107096878D01*
X128728428Y-107099218D01*
X128712500Y-107100000D01*
X128387500Y-107100000D01*
X128371572Y-107099218D01*
X128355798Y-107096878D01*
X128340329Y-107093003D01*
X128325314Y-107087630D01*
X128310898Y-107080812D01*
X128297220Y-107072614D01*
X128284411Y-107063114D01*
X128272595Y-107052405D01*
X128261886Y-107040589D01*
X128252386Y-107027780D01*
X128244188Y-107014102D01*
X128237370Y-106999686D01*
X128231997Y-106984671D01*
X128228122Y-106969202D01*
X128225782Y-106953428D01*
X128225000Y-106937500D01*
X128225000Y-106062500D01*
X128225782Y-106046572D01*
X128228122Y-106030798D01*
X128231997Y-106015329D01*
X128237370Y-106000314D01*
X128244188Y-105985898D01*
X128252386Y-105972220D01*
X128261886Y-105959411D01*
X128272595Y-105947595D01*
X128284411Y-105936886D01*
X128297220Y-105927386D01*
X128310898Y-105919188D01*
X128325314Y-105912370D01*
X128340329Y-105906997D01*
X128355798Y-105903122D01*
X128371572Y-105900782D01*
X128387500Y-105900000D01*
X128712500Y-105900000D01*
X128728428Y-105900782D01*
G37*
G36*
X129178428Y-105900782D02*
G01*
X129194202Y-105903122D01*
X129209671Y-105906997D01*
X129224686Y-105912370D01*
X129239102Y-105919188D01*
X129252780Y-105927386D01*
X129265589Y-105936886D01*
X129277405Y-105947595D01*
X129288114Y-105959411D01*
X129297614Y-105972220D01*
X129305812Y-105985898D01*
X129312630Y-106000314D01*
X129318003Y-106015329D01*
X129321878Y-106030798D01*
X129324218Y-106046572D01*
X129325000Y-106062500D01*
X129325000Y-106937500D01*
X129324218Y-106953428D01*
X129321878Y-106969202D01*
X129318003Y-106984671D01*
X129312630Y-106999686D01*
X129305812Y-107014102D01*
X129297614Y-107027780D01*
X129288114Y-107040589D01*
X129277405Y-107052405D01*
X129265589Y-107063114D01*
X129252780Y-107072614D01*
X129239102Y-107080812D01*
X129224686Y-107087630D01*
X129209671Y-107093003D01*
X129194202Y-107096878D01*
X129178428Y-107099218D01*
X129162500Y-107100000D01*
X128837500Y-107100000D01*
X128821572Y-107099218D01*
X128805798Y-107096878D01*
X128790329Y-107093003D01*
X128775314Y-107087630D01*
X128760898Y-107080812D01*
X128747220Y-107072614D01*
X128734411Y-107063114D01*
X128722595Y-107052405D01*
X128711886Y-107040589D01*
X128702386Y-107027780D01*
X128694188Y-107014102D01*
X128687370Y-106999686D01*
X128681997Y-106984671D01*
X128678122Y-106969202D01*
X128675782Y-106953428D01*
X128675000Y-106937500D01*
X128675000Y-106062500D01*
X128675782Y-106046572D01*
X128678122Y-106030798D01*
X128681997Y-106015329D01*
X128687370Y-106000314D01*
X128694188Y-105985898D01*
X128702386Y-105972220D01*
X128711886Y-105959411D01*
X128722595Y-105947595D01*
X128734411Y-105936886D01*
X128747220Y-105927386D01*
X128760898Y-105919188D01*
X128775314Y-105912370D01*
X128790329Y-105906997D01*
X128805798Y-105903122D01*
X128821572Y-105900782D01*
X128837500Y-105900000D01*
X129162500Y-105900000D01*
X129178428Y-105900782D01*
G37*
G36*
X129628428Y-105900782D02*
G01*
X129644202Y-105903122D01*
X129659671Y-105906997D01*
X129674686Y-105912370D01*
X129689102Y-105919188D01*
X129702780Y-105927386D01*
X129715589Y-105936886D01*
X129727405Y-105947595D01*
X129738114Y-105959411D01*
X129747614Y-105972220D01*
X129755812Y-105985898D01*
X129762630Y-106000314D01*
X129768003Y-106015329D01*
X129771878Y-106030798D01*
X129774218Y-106046572D01*
X129775000Y-106062500D01*
X129775000Y-106937500D01*
X129774218Y-106953428D01*
X129771878Y-106969202D01*
X129768003Y-106984671D01*
X129762630Y-106999686D01*
X129755812Y-107014102D01*
X129747614Y-107027780D01*
X129738114Y-107040589D01*
X129727405Y-107052405D01*
X129715589Y-107063114D01*
X129702780Y-107072614D01*
X129689102Y-107080812D01*
X129674686Y-107087630D01*
X129659671Y-107093003D01*
X129644202Y-107096878D01*
X129628428Y-107099218D01*
X129612500Y-107100000D01*
X129287500Y-107100000D01*
X129271572Y-107099218D01*
X129255798Y-107096878D01*
X129240329Y-107093003D01*
X129225314Y-107087630D01*
X129210898Y-107080812D01*
X129197220Y-107072614D01*
X129184411Y-107063114D01*
X129172595Y-107052405D01*
X129161886Y-107040589D01*
X129152386Y-107027780D01*
X129144188Y-107014102D01*
X129137370Y-106999686D01*
X129131997Y-106984671D01*
X129128122Y-106969202D01*
X129125782Y-106953428D01*
X129125000Y-106937500D01*
X129125000Y-106062500D01*
X129125782Y-106046572D01*
X129128122Y-106030798D01*
X129131997Y-106015329D01*
X129137370Y-106000314D01*
X129144188Y-105985898D01*
X129152386Y-105972220D01*
X129161886Y-105959411D01*
X129172595Y-105947595D01*
X129184411Y-105936886D01*
X129197220Y-105927386D01*
X129210898Y-105919188D01*
X129225314Y-105912370D01*
X129240329Y-105906997D01*
X129255798Y-105903122D01*
X129271572Y-105900782D01*
X129287500Y-105900000D01*
X129612500Y-105900000D01*
X129628428Y-105900782D01*
G37*
G36*
X130078428Y-105900782D02*
G01*
X130094202Y-105903122D01*
X130109671Y-105906997D01*
X130124686Y-105912370D01*
X130139102Y-105919188D01*
X130152780Y-105927386D01*
X130165589Y-105936886D01*
X130177405Y-105947595D01*
X130188114Y-105959411D01*
X130197614Y-105972220D01*
X130205812Y-105985898D01*
X130212630Y-106000314D01*
X130218003Y-106015329D01*
X130221878Y-106030798D01*
X130224218Y-106046572D01*
X130225000Y-106062500D01*
X130225000Y-106937500D01*
X130224218Y-106953428D01*
X130221878Y-106969202D01*
X130218003Y-106984671D01*
X130212630Y-106999686D01*
X130205812Y-107014102D01*
X130197614Y-107027780D01*
X130188114Y-107040589D01*
X130177405Y-107052405D01*
X130165589Y-107063114D01*
X130152780Y-107072614D01*
X130139102Y-107080812D01*
X130124686Y-107087630D01*
X130109671Y-107093003D01*
X130094202Y-107096878D01*
X130078428Y-107099218D01*
X130062500Y-107100000D01*
X129737500Y-107100000D01*
X129721572Y-107099218D01*
X129705798Y-107096878D01*
X129690329Y-107093003D01*
X129675314Y-107087630D01*
X129660898Y-107080812D01*
X129647220Y-107072614D01*
X129634411Y-107063114D01*
X129622595Y-107052405D01*
X129611886Y-107040589D01*
X129602386Y-107027780D01*
X129594188Y-107014102D01*
X129587370Y-106999686D01*
X129581997Y-106984671D01*
X129578122Y-106969202D01*
X129575782Y-106953428D01*
X129575000Y-106937500D01*
X129575000Y-106062500D01*
X129575782Y-106046572D01*
X129578122Y-106030798D01*
X129581997Y-106015329D01*
X129587370Y-106000314D01*
X129594188Y-105985898D01*
X129602386Y-105972220D01*
X129611886Y-105959411D01*
X129622595Y-105947595D01*
X129634411Y-105936886D01*
X129647220Y-105927386D01*
X129660898Y-105919188D01*
X129675314Y-105912370D01*
X129690329Y-105906997D01*
X129705798Y-105903122D01*
X129721572Y-105900782D01*
X129737500Y-105900000D01*
X130062500Y-105900000D01*
X130078428Y-105900782D01*
G37*
G36*
X130528428Y-105900782D02*
G01*
X130544202Y-105903122D01*
X130559671Y-105906997D01*
X130574686Y-105912370D01*
X130589102Y-105919188D01*
X130602780Y-105927386D01*
X130615589Y-105936886D01*
X130627405Y-105947595D01*
X130638114Y-105959411D01*
X130647614Y-105972220D01*
X130655812Y-105985898D01*
X130662630Y-106000314D01*
X130668003Y-106015329D01*
X130671878Y-106030798D01*
X130674218Y-106046572D01*
X130675000Y-106062500D01*
X130675000Y-106937500D01*
X130674218Y-106953428D01*
X130671878Y-106969202D01*
X130668003Y-106984671D01*
X130662630Y-106999686D01*
X130655812Y-107014102D01*
X130647614Y-107027780D01*
X130638114Y-107040589D01*
X130627405Y-107052405D01*
X130615589Y-107063114D01*
X130602780Y-107072614D01*
X130589102Y-107080812D01*
X130574686Y-107087630D01*
X130559671Y-107093003D01*
X130544202Y-107096878D01*
X130528428Y-107099218D01*
X130512500Y-107100000D01*
X130187500Y-107100000D01*
X130171572Y-107099218D01*
X130155798Y-107096878D01*
X130140329Y-107093003D01*
X130125314Y-107087630D01*
X130110898Y-107080812D01*
X130097220Y-107072614D01*
X130084411Y-107063114D01*
X130072595Y-107052405D01*
X130061886Y-107040589D01*
X130052386Y-107027780D01*
X130044188Y-107014102D01*
X130037370Y-106999686D01*
X130031997Y-106984671D01*
X130028122Y-106969202D01*
X130025782Y-106953428D01*
X130025000Y-106937500D01*
X130025000Y-106062500D01*
X130025782Y-106046572D01*
X130028122Y-106030798D01*
X130031997Y-106015329D01*
X130037370Y-106000314D01*
X130044188Y-105985898D01*
X130052386Y-105972220D01*
X130061886Y-105959411D01*
X130072595Y-105947595D01*
X130084411Y-105936886D01*
X130097220Y-105927386D01*
X130110898Y-105919188D01*
X130125314Y-105912370D01*
X130140329Y-105906997D01*
X130155798Y-105903122D01*
X130171572Y-105900782D01*
X130187500Y-105900000D01*
X130512500Y-105900000D01*
X130528428Y-105900782D01*
G37*
G36*
X130882105Y-105900963D02*
G01*
X130894298Y-105902164D01*
X130932754Y-105909814D01*
X130944479Y-105913371D01*
X130980692Y-105928371D01*
X130991497Y-105934146D01*
X131024105Y-105955934D01*
X131033576Y-105963707D01*
X131061293Y-105991424D01*
X131069066Y-106000895D01*
X131090854Y-106033503D01*
X131096629Y-106044308D01*
X131111629Y-106080521D01*
X131115186Y-106092246D01*
X131122836Y-106130702D01*
X131124037Y-106142895D01*
X131125000Y-106162500D01*
X131125000Y-106774112D01*
X131124037Y-106793717D01*
X131122836Y-106805910D01*
X131115186Y-106844366D01*
X131111629Y-106856091D01*
X131096629Y-106892304D01*
X131090854Y-106903109D01*
X131069066Y-106935717D01*
X131061293Y-106945188D01*
X131048115Y-106959727D01*
X130984727Y-107023115D01*
X130970188Y-107036293D01*
X130960717Y-107044066D01*
X130928109Y-107065854D01*
X130917304Y-107071629D01*
X130881091Y-107086629D01*
X130869366Y-107090186D01*
X130830910Y-107097836D01*
X130818717Y-107099037D01*
X130799112Y-107100000D01*
X130737500Y-107100000D01*
X130717895Y-107099037D01*
X130705702Y-107097836D01*
X130667246Y-107090186D01*
X130655521Y-107086629D01*
X130619308Y-107071629D01*
X130608503Y-107065854D01*
X130575895Y-107044066D01*
X130566424Y-107036293D01*
X130538707Y-107008576D01*
X130530934Y-106999105D01*
X130509146Y-106966497D01*
X130503371Y-106955692D01*
X130488371Y-106919479D01*
X130484814Y-106907754D01*
X130477164Y-106869298D01*
X130475963Y-106857105D01*
X130475000Y-106837500D01*
X130475000Y-106162500D01*
X130475963Y-106142895D01*
X130477164Y-106130702D01*
X130484814Y-106092246D01*
X130488371Y-106080521D01*
X130503371Y-106044308D01*
X130509146Y-106033503D01*
X130530934Y-106000895D01*
X130538707Y-105991424D01*
X130566424Y-105963707D01*
X130575895Y-105955934D01*
X130608503Y-105934146D01*
X130619308Y-105928371D01*
X130655521Y-105913371D01*
X130667246Y-105909814D01*
X130705702Y-105902164D01*
X130717895Y-105900963D01*
X130737500Y-105900000D01*
X130862500Y-105900000D01*
X130882105Y-105900963D01*
G37*
G36*
X131757105Y-106775963D02*
G01*
X131769298Y-106777164D01*
X131807754Y-106784814D01*
X131819479Y-106788371D01*
X131855692Y-106803371D01*
X131866497Y-106809146D01*
X131899105Y-106830934D01*
X131908576Y-106838707D01*
X131936293Y-106866424D01*
X131944066Y-106875895D01*
X131965854Y-106908503D01*
X131971629Y-106919308D01*
X131986629Y-106955521D01*
X131990186Y-106967246D01*
X131997836Y-107005702D01*
X131999037Y-107017895D01*
X132000000Y-107037500D01*
X132000000Y-107162500D01*
X131999037Y-107182105D01*
X131997836Y-107194298D01*
X131990186Y-107232754D01*
X131986629Y-107244479D01*
X131971629Y-107280692D01*
X131965854Y-107291497D01*
X131944066Y-107324105D01*
X131936293Y-107333576D01*
X131908576Y-107361293D01*
X131899105Y-107369066D01*
X131866497Y-107390854D01*
X131855692Y-107396629D01*
X131819479Y-107411629D01*
X131807754Y-107415186D01*
X131769298Y-107422836D01*
X131757105Y-107424037D01*
X131737500Y-107425000D01*
X131062500Y-107425000D01*
X131042895Y-107424037D01*
X131030702Y-107422836D01*
X130992246Y-107415186D01*
X130980521Y-107411629D01*
X130944308Y-107396629D01*
X130933503Y-107390854D01*
X130900895Y-107369066D01*
X130891424Y-107361293D01*
X130863707Y-107333576D01*
X130855934Y-107324105D01*
X130834146Y-107291497D01*
X130828371Y-107280692D01*
X130813371Y-107244479D01*
X130809814Y-107232754D01*
X130802164Y-107194298D01*
X130800963Y-107182105D01*
X130800000Y-107162500D01*
X130800000Y-107100888D01*
X130800963Y-107081283D01*
X130802164Y-107069090D01*
X130809814Y-107030634D01*
X130813371Y-107018909D01*
X130828371Y-106982696D01*
X130834146Y-106971891D01*
X130855934Y-106939283D01*
X130863707Y-106929812D01*
X130876885Y-106915273D01*
X130940273Y-106851885D01*
X130954812Y-106838707D01*
X130964283Y-106830934D01*
X130996891Y-106809146D01*
X131007696Y-106803371D01*
X131043909Y-106788371D01*
X131055634Y-106784814D01*
X131094090Y-106777164D01*
X131106283Y-106775963D01*
X131125888Y-106775000D01*
X131737500Y-106775000D01*
X131757105Y-106775963D01*
G37*
G36*
X131853428Y-107225782D02*
G01*
X131869202Y-107228122D01*
X131884671Y-107231997D01*
X131899686Y-107237370D01*
X131914102Y-107244188D01*
X131927780Y-107252386D01*
X131940589Y-107261886D01*
X131952405Y-107272595D01*
X131963114Y-107284411D01*
X131972614Y-107297220D01*
X131980812Y-107310898D01*
X131987630Y-107325314D01*
X131993003Y-107340329D01*
X131996878Y-107355798D01*
X131999218Y-107371572D01*
X132000000Y-107387500D01*
X132000000Y-107712500D01*
X131999218Y-107728428D01*
X131996878Y-107744202D01*
X131993003Y-107759671D01*
X131987630Y-107774686D01*
X131980812Y-107789102D01*
X131972614Y-107802780D01*
X131963114Y-107815589D01*
X131952405Y-107827405D01*
X131940589Y-107838114D01*
X131927780Y-107847614D01*
X131914102Y-107855812D01*
X131899686Y-107862630D01*
X131884671Y-107868003D01*
X131869202Y-107871878D01*
X131853428Y-107874218D01*
X131837500Y-107875000D01*
X130962500Y-107875000D01*
X130946572Y-107874218D01*
X130930798Y-107871878D01*
X130915329Y-107868003D01*
X130900314Y-107862630D01*
X130885898Y-107855812D01*
X130872220Y-107847614D01*
X130859411Y-107838114D01*
X130847595Y-107827405D01*
X130836886Y-107815589D01*
X130827386Y-107802780D01*
X130819188Y-107789102D01*
X130812370Y-107774686D01*
X130806997Y-107759671D01*
X130803122Y-107744202D01*
X130800782Y-107728428D01*
X130800000Y-107712500D01*
X130800000Y-107387500D01*
X130800782Y-107371572D01*
X130803122Y-107355798D01*
X130806997Y-107340329D01*
X130812370Y-107325314D01*
X130819188Y-107310898D01*
X130827386Y-107297220D01*
X130836886Y-107284411D01*
X130847595Y-107272595D01*
X130859411Y-107261886D01*
X130872220Y-107252386D01*
X130885898Y-107244188D01*
X130900314Y-107237370D01*
X130915329Y-107231997D01*
X130930798Y-107228122D01*
X130946572Y-107225782D01*
X130962500Y-107225000D01*
X131837500Y-107225000D01*
X131853428Y-107225782D01*
G37*
G36*
X131853428Y-107675782D02*
G01*
X131869202Y-107678122D01*
X131884671Y-107681997D01*
X131899686Y-107687370D01*
X131914102Y-107694188D01*
X131927780Y-107702386D01*
X131940589Y-107711886D01*
X131952405Y-107722595D01*
X131963114Y-107734411D01*
X131972614Y-107747220D01*
X131980812Y-107760898D01*
X131987630Y-107775314D01*
X131993003Y-107790329D01*
X131996878Y-107805798D01*
X131999218Y-107821572D01*
X132000000Y-107837500D01*
X132000000Y-108162500D01*
X131999218Y-108178428D01*
X131996878Y-108194202D01*
X131993003Y-108209671D01*
X131987630Y-108224686D01*
X131980812Y-108239102D01*
X131972614Y-108252780D01*
X131963114Y-108265589D01*
X131952405Y-108277405D01*
X131940589Y-108288114D01*
X131927780Y-108297614D01*
X131914102Y-108305812D01*
X131899686Y-108312630D01*
X131884671Y-108318003D01*
X131869202Y-108321878D01*
X131853428Y-108324218D01*
X131837500Y-108325000D01*
X130962500Y-108325000D01*
X130946572Y-108324218D01*
X130930798Y-108321878D01*
X130915329Y-108318003D01*
X130900314Y-108312630D01*
X130885898Y-108305812D01*
X130872220Y-108297614D01*
X130859411Y-108288114D01*
X130847595Y-108277405D01*
X130836886Y-108265589D01*
X130827386Y-108252780D01*
X130819188Y-108239102D01*
X130812370Y-108224686D01*
X130806997Y-108209671D01*
X130803122Y-108194202D01*
X130800782Y-108178428D01*
X130800000Y-108162500D01*
X130800000Y-107837500D01*
X130800782Y-107821572D01*
X130803122Y-107805798D01*
X130806997Y-107790329D01*
X130812370Y-107775314D01*
X130819188Y-107760898D01*
X130827386Y-107747220D01*
X130836886Y-107734411D01*
X130847595Y-107722595D01*
X130859411Y-107711886D01*
X130872220Y-107702386D01*
X130885898Y-107694188D01*
X130900314Y-107687370D01*
X130915329Y-107681997D01*
X130930798Y-107678122D01*
X130946572Y-107675782D01*
X130962500Y-107675000D01*
X131837500Y-107675000D01*
X131853428Y-107675782D01*
G37*
G36*
X131853428Y-108125782D02*
G01*
X131869202Y-108128122D01*
X131884671Y-108131997D01*
X131899686Y-108137370D01*
X131914102Y-108144188D01*
X131927780Y-108152386D01*
X131940589Y-108161886D01*
X131952405Y-108172595D01*
X131963114Y-108184411D01*
X131972614Y-108197220D01*
X131980812Y-108210898D01*
X131987630Y-108225314D01*
X131993003Y-108240329D01*
X131996878Y-108255798D01*
X131999218Y-108271572D01*
X132000000Y-108287500D01*
X132000000Y-108612500D01*
X131999218Y-108628428D01*
X131996878Y-108644202D01*
X131993003Y-108659671D01*
X131987630Y-108674686D01*
X131980812Y-108689102D01*
X131972614Y-108702780D01*
X131963114Y-108715589D01*
X131952405Y-108727405D01*
X131940589Y-108738114D01*
X131927780Y-108747614D01*
X131914102Y-108755812D01*
X131899686Y-108762630D01*
X131884671Y-108768003D01*
X131869202Y-108771878D01*
X131853428Y-108774218D01*
X131837500Y-108775000D01*
X130962500Y-108775000D01*
X130946572Y-108774218D01*
X130930798Y-108771878D01*
X130915329Y-108768003D01*
X130900314Y-108762630D01*
X130885898Y-108755812D01*
X130872220Y-108747614D01*
X130859411Y-108738114D01*
X130847595Y-108727405D01*
X130836886Y-108715589D01*
X130827386Y-108702780D01*
X130819188Y-108689102D01*
X130812370Y-108674686D01*
X130806997Y-108659671D01*
X130803122Y-108644202D01*
X130800782Y-108628428D01*
X130800000Y-108612500D01*
X130800000Y-108287500D01*
X130800782Y-108271572D01*
X130803122Y-108255798D01*
X130806997Y-108240329D01*
X130812370Y-108225314D01*
X130819188Y-108210898D01*
X130827386Y-108197220D01*
X130836886Y-108184411D01*
X130847595Y-108172595D01*
X130859411Y-108161886D01*
X130872220Y-108152386D01*
X130885898Y-108144188D01*
X130900314Y-108137370D01*
X130915329Y-108131997D01*
X130930798Y-108128122D01*
X130946572Y-108125782D01*
X130962500Y-108125000D01*
X131837500Y-108125000D01*
X131853428Y-108125782D01*
G37*
G36*
X131853428Y-108575782D02*
G01*
X131869202Y-108578122D01*
X131884671Y-108581997D01*
X131899686Y-108587370D01*
X131914102Y-108594188D01*
X131927780Y-108602386D01*
X131940589Y-108611886D01*
X131952405Y-108622595D01*
X131963114Y-108634411D01*
X131972614Y-108647220D01*
X131980812Y-108660898D01*
X131987630Y-108675314D01*
X131993003Y-108690329D01*
X131996878Y-108705798D01*
X131999218Y-108721572D01*
X132000000Y-108737500D01*
X132000000Y-109062500D01*
X131999218Y-109078428D01*
X131996878Y-109094202D01*
X131993003Y-109109671D01*
X131987630Y-109124686D01*
X131980812Y-109139102D01*
X131972614Y-109152780D01*
X131963114Y-109165589D01*
X131952405Y-109177405D01*
X131940589Y-109188114D01*
X131927780Y-109197614D01*
X131914102Y-109205812D01*
X131899686Y-109212630D01*
X131884671Y-109218003D01*
X131869202Y-109221878D01*
X131853428Y-109224218D01*
X131837500Y-109225000D01*
X130962500Y-109225000D01*
X130946572Y-109224218D01*
X130930798Y-109221878D01*
X130915329Y-109218003D01*
X130900314Y-109212630D01*
X130885898Y-109205812D01*
X130872220Y-109197614D01*
X130859411Y-109188114D01*
X130847595Y-109177405D01*
X130836886Y-109165589D01*
X130827386Y-109152780D01*
X130819188Y-109139102D01*
X130812370Y-109124686D01*
X130806997Y-109109671D01*
X130803122Y-109094202D01*
X130800782Y-109078428D01*
X130800000Y-109062500D01*
X130800000Y-108737500D01*
X130800782Y-108721572D01*
X130803122Y-108705798D01*
X130806997Y-108690329D01*
X130812370Y-108675314D01*
X130819188Y-108660898D01*
X130827386Y-108647220D01*
X130836886Y-108634411D01*
X130847595Y-108622595D01*
X130859411Y-108611886D01*
X130872220Y-108602386D01*
X130885898Y-108594188D01*
X130900314Y-108587370D01*
X130915329Y-108581997D01*
X130930798Y-108578122D01*
X130946572Y-108575782D01*
X130962500Y-108575000D01*
X131837500Y-108575000D01*
X131853428Y-108575782D01*
G37*
G36*
X131853428Y-109025782D02*
G01*
X131869202Y-109028122D01*
X131884671Y-109031997D01*
X131899686Y-109037370D01*
X131914102Y-109044188D01*
X131927780Y-109052386D01*
X131940589Y-109061886D01*
X131952405Y-109072595D01*
X131963114Y-109084411D01*
X131972614Y-109097220D01*
X131980812Y-109110898D01*
X131987630Y-109125314D01*
X131993003Y-109140329D01*
X131996878Y-109155798D01*
X131999218Y-109171572D01*
X132000000Y-109187500D01*
X132000000Y-109512500D01*
X131999218Y-109528428D01*
X131996878Y-109544202D01*
X131993003Y-109559671D01*
X131987630Y-109574686D01*
X131980812Y-109589102D01*
X131972614Y-109602780D01*
X131963114Y-109615589D01*
X131952405Y-109627405D01*
X131940589Y-109638114D01*
X131927780Y-109647614D01*
X131914102Y-109655812D01*
X131899686Y-109662630D01*
X131884671Y-109668003D01*
X131869202Y-109671878D01*
X131853428Y-109674218D01*
X131837500Y-109675000D01*
X130962500Y-109675000D01*
X130946572Y-109674218D01*
X130930798Y-109671878D01*
X130915329Y-109668003D01*
X130900314Y-109662630D01*
X130885898Y-109655812D01*
X130872220Y-109647614D01*
X130859411Y-109638114D01*
X130847595Y-109627405D01*
X130836886Y-109615589D01*
X130827386Y-109602780D01*
X130819188Y-109589102D01*
X130812370Y-109574686D01*
X130806997Y-109559671D01*
X130803122Y-109544202D01*
X130800782Y-109528428D01*
X130800000Y-109512500D01*
X130800000Y-109187500D01*
X130800782Y-109171572D01*
X130803122Y-109155798D01*
X130806997Y-109140329D01*
X130812370Y-109125314D01*
X130819188Y-109110898D01*
X130827386Y-109097220D01*
X130836886Y-109084411D01*
X130847595Y-109072595D01*
X130859411Y-109061886D01*
X130872220Y-109052386D01*
X130885898Y-109044188D01*
X130900314Y-109037370D01*
X130915329Y-109031997D01*
X130930798Y-109028122D01*
X130946572Y-109025782D01*
X130962500Y-109025000D01*
X131837500Y-109025000D01*
X131853428Y-109025782D01*
G37*
G36*
X131757105Y-109475963D02*
G01*
X131769298Y-109477164D01*
X131807754Y-109484814D01*
X131819479Y-109488371D01*
X131855692Y-109503371D01*
X131866497Y-109509146D01*
X131899105Y-109530934D01*
X131908576Y-109538707D01*
X131936293Y-109566424D01*
X131944066Y-109575895D01*
X131965854Y-109608503D01*
X131971629Y-109619308D01*
X131986629Y-109655521D01*
X131990186Y-109667246D01*
X131997836Y-109705702D01*
X131999037Y-109717895D01*
X132000000Y-109737500D01*
X132000000Y-109862500D01*
X131999037Y-109882105D01*
X131997836Y-109894298D01*
X131990186Y-109932754D01*
X131986629Y-109944479D01*
X131971629Y-109980692D01*
X131965854Y-109991497D01*
X131944066Y-110024105D01*
X131936293Y-110033576D01*
X131908576Y-110061293D01*
X131899105Y-110069066D01*
X131866497Y-110090854D01*
X131855692Y-110096629D01*
X131819479Y-110111629D01*
X131807754Y-110115186D01*
X131769298Y-110122836D01*
X131757105Y-110124037D01*
X131737500Y-110125000D01*
X131125888Y-110125000D01*
X131106283Y-110124037D01*
X131094090Y-110122836D01*
X131055634Y-110115186D01*
X131043909Y-110111629D01*
X131007696Y-110096629D01*
X130996891Y-110090854D01*
X130964283Y-110069066D01*
X130954812Y-110061293D01*
X130940273Y-110048115D01*
X130876885Y-109984727D01*
X130863707Y-109970188D01*
X130855934Y-109960717D01*
X130834146Y-109928109D01*
X130828371Y-109917304D01*
X130813371Y-109881091D01*
X130809814Y-109869366D01*
X130802164Y-109830910D01*
X130800963Y-109818717D01*
X130800000Y-109799112D01*
X130800000Y-109737500D01*
X130800963Y-109717895D01*
X130802164Y-109705702D01*
X130809814Y-109667246D01*
X130813371Y-109655521D01*
X130828371Y-109619308D01*
X130834146Y-109608503D01*
X130855934Y-109575895D01*
X130863707Y-109566424D01*
X130891424Y-109538707D01*
X130900895Y-109530934D01*
X130933503Y-109509146D01*
X130944308Y-109503371D01*
X130980521Y-109488371D01*
X130992246Y-109484814D01*
X131030702Y-109477164D01*
X131042895Y-109475963D01*
X131062500Y-109475000D01*
X131737500Y-109475000D01*
X131757105Y-109475963D01*
G37*
G36*
X130818717Y-109800963D02*
G01*
X130830910Y-109802164D01*
X130869366Y-109809814D01*
X130881091Y-109813371D01*
X130917304Y-109828371D01*
X130928109Y-109834146D01*
X130960717Y-109855934D01*
X130970188Y-109863707D01*
X130984727Y-109876885D01*
X131048115Y-109940273D01*
X131061293Y-109954812D01*
X131069066Y-109964283D01*
X131090854Y-109996891D01*
X131096629Y-110007696D01*
X131111629Y-110043909D01*
X131115186Y-110055634D01*
X131122836Y-110094090D01*
X131124037Y-110106283D01*
X131125000Y-110125888D01*
X131125000Y-110737500D01*
X131124037Y-110757105D01*
X131122836Y-110769298D01*
X131115186Y-110807754D01*
X131111629Y-110819479D01*
X131096629Y-110855692D01*
X131090854Y-110866497D01*
X131069066Y-110899105D01*
X131061293Y-110908576D01*
X131033576Y-110936293D01*
X131024105Y-110944066D01*
X130991497Y-110965854D01*
X130980692Y-110971629D01*
X130944479Y-110986629D01*
X130932754Y-110990186D01*
X130894298Y-110997836D01*
X130882105Y-110999037D01*
X130862500Y-111000000D01*
X130737500Y-111000000D01*
X130717895Y-110999037D01*
X130705702Y-110997836D01*
X130667246Y-110990186D01*
X130655521Y-110986629D01*
X130619308Y-110971629D01*
X130608503Y-110965854D01*
X130575895Y-110944066D01*
X130566424Y-110936293D01*
X130538707Y-110908576D01*
X130530934Y-110899105D01*
X130509146Y-110866497D01*
X130503371Y-110855692D01*
X130488371Y-110819479D01*
X130484814Y-110807754D01*
X130477164Y-110769298D01*
X130475963Y-110757105D01*
X130475000Y-110737500D01*
X130475000Y-110062500D01*
X130475963Y-110042895D01*
X130477164Y-110030702D01*
X130484814Y-109992246D01*
X130488371Y-109980521D01*
X130503371Y-109944308D01*
X130509146Y-109933503D01*
X130530934Y-109900895D01*
X130538707Y-109891424D01*
X130566424Y-109863707D01*
X130575895Y-109855934D01*
X130608503Y-109834146D01*
X130619308Y-109828371D01*
X130655521Y-109813371D01*
X130667246Y-109809814D01*
X130705702Y-109802164D01*
X130717895Y-109800963D01*
X130737500Y-109800000D01*
X130799112Y-109800000D01*
X130818717Y-109800963D01*
G37*
G36*
X130528428Y-109800782D02*
G01*
X130544202Y-109803122D01*
X130559671Y-109806997D01*
X130574686Y-109812370D01*
X130589102Y-109819188D01*
X130602780Y-109827386D01*
X130615589Y-109836886D01*
X130627405Y-109847595D01*
X130638114Y-109859411D01*
X130647614Y-109872220D01*
X130655812Y-109885898D01*
X130662630Y-109900314D01*
X130668003Y-109915329D01*
X130671878Y-109930798D01*
X130674218Y-109946572D01*
X130675000Y-109962500D01*
X130675000Y-110837500D01*
X130674218Y-110853428D01*
X130671878Y-110869202D01*
X130668003Y-110884671D01*
X130662630Y-110899686D01*
X130655812Y-110914102D01*
X130647614Y-110927780D01*
X130638114Y-110940589D01*
X130627405Y-110952405D01*
X130615589Y-110963114D01*
X130602780Y-110972614D01*
X130589102Y-110980812D01*
X130574686Y-110987630D01*
X130559671Y-110993003D01*
X130544202Y-110996878D01*
X130528428Y-110999218D01*
X130512500Y-111000000D01*
X130187500Y-111000000D01*
X130171572Y-110999218D01*
X130155798Y-110996878D01*
X130140329Y-110993003D01*
X130125314Y-110987630D01*
X130110898Y-110980812D01*
X130097220Y-110972614D01*
X130084411Y-110963114D01*
X130072595Y-110952405D01*
X130061886Y-110940589D01*
X130052386Y-110927780D01*
X130044188Y-110914102D01*
X130037370Y-110899686D01*
X130031997Y-110884671D01*
X130028122Y-110869202D01*
X130025782Y-110853428D01*
X130025000Y-110837500D01*
X130025000Y-109962500D01*
X130025782Y-109946572D01*
X130028122Y-109930798D01*
X130031997Y-109915329D01*
X130037370Y-109900314D01*
X130044188Y-109885898D01*
X130052386Y-109872220D01*
X130061886Y-109859411D01*
X130072595Y-109847595D01*
X130084411Y-109836886D01*
X130097220Y-109827386D01*
X130110898Y-109819188D01*
X130125314Y-109812370D01*
X130140329Y-109806997D01*
X130155798Y-109803122D01*
X130171572Y-109800782D01*
X130187500Y-109800000D01*
X130512500Y-109800000D01*
X130528428Y-109800782D01*
G37*
G36*
X130078428Y-109800782D02*
G01*
X130094202Y-109803122D01*
X130109671Y-109806997D01*
X130124686Y-109812370D01*
X130139102Y-109819188D01*
X130152780Y-109827386D01*
X130165589Y-109836886D01*
X130177405Y-109847595D01*
X130188114Y-109859411D01*
X130197614Y-109872220D01*
X130205812Y-109885898D01*
X130212630Y-109900314D01*
X130218003Y-109915329D01*
X130221878Y-109930798D01*
X130224218Y-109946572D01*
X130225000Y-109962500D01*
X130225000Y-110837500D01*
X130224218Y-110853428D01*
X130221878Y-110869202D01*
X130218003Y-110884671D01*
X130212630Y-110899686D01*
X130205812Y-110914102D01*
X130197614Y-110927780D01*
X130188114Y-110940589D01*
X130177405Y-110952405D01*
X130165589Y-110963114D01*
X130152780Y-110972614D01*
X130139102Y-110980812D01*
X130124686Y-110987630D01*
X130109671Y-110993003D01*
X130094202Y-110996878D01*
X130078428Y-110999218D01*
X130062500Y-111000000D01*
X129737500Y-111000000D01*
X129721572Y-110999218D01*
X129705798Y-110996878D01*
X129690329Y-110993003D01*
X129675314Y-110987630D01*
X129660898Y-110980812D01*
X129647220Y-110972614D01*
X129634411Y-110963114D01*
X129622595Y-110952405D01*
X129611886Y-110940589D01*
X129602386Y-110927780D01*
X129594188Y-110914102D01*
X129587370Y-110899686D01*
X129581997Y-110884671D01*
X129578122Y-110869202D01*
X129575782Y-110853428D01*
X129575000Y-110837500D01*
X129575000Y-109962500D01*
X129575782Y-109946572D01*
X129578122Y-109930798D01*
X129581997Y-109915329D01*
X129587370Y-109900314D01*
X129594188Y-109885898D01*
X129602386Y-109872220D01*
X129611886Y-109859411D01*
X129622595Y-109847595D01*
X129634411Y-109836886D01*
X129647220Y-109827386D01*
X129660898Y-109819188D01*
X129675314Y-109812370D01*
X129690329Y-109806997D01*
X129705798Y-109803122D01*
X129721572Y-109800782D01*
X129737500Y-109800000D01*
X130062500Y-109800000D01*
X130078428Y-109800782D01*
G37*
G36*
X129628428Y-109800782D02*
G01*
X129644202Y-109803122D01*
X129659671Y-109806997D01*
X129674686Y-109812370D01*
X129689102Y-109819188D01*
X129702780Y-109827386D01*
X129715589Y-109836886D01*
X129727405Y-109847595D01*
X129738114Y-109859411D01*
X129747614Y-109872220D01*
X129755812Y-109885898D01*
X129762630Y-109900314D01*
X129768003Y-109915329D01*
X129771878Y-109930798D01*
X129774218Y-109946572D01*
X129775000Y-109962500D01*
X129775000Y-110837500D01*
X129774218Y-110853428D01*
X129771878Y-110869202D01*
X129768003Y-110884671D01*
X129762630Y-110899686D01*
X129755812Y-110914102D01*
X129747614Y-110927780D01*
X129738114Y-110940589D01*
X129727405Y-110952405D01*
X129715589Y-110963114D01*
X129702780Y-110972614D01*
X129689102Y-110980812D01*
X129674686Y-110987630D01*
X129659671Y-110993003D01*
X129644202Y-110996878D01*
X129628428Y-110999218D01*
X129612500Y-111000000D01*
X129287500Y-111000000D01*
X129271572Y-110999218D01*
X129255798Y-110996878D01*
X129240329Y-110993003D01*
X129225314Y-110987630D01*
X129210898Y-110980812D01*
X129197220Y-110972614D01*
X129184411Y-110963114D01*
X129172595Y-110952405D01*
X129161886Y-110940589D01*
X129152386Y-110927780D01*
X129144188Y-110914102D01*
X129137370Y-110899686D01*
X129131997Y-110884671D01*
X129128122Y-110869202D01*
X129125782Y-110853428D01*
X129125000Y-110837500D01*
X129125000Y-109962500D01*
X129125782Y-109946572D01*
X129128122Y-109930798D01*
X129131997Y-109915329D01*
X129137370Y-109900314D01*
X129144188Y-109885898D01*
X129152386Y-109872220D01*
X129161886Y-109859411D01*
X129172595Y-109847595D01*
X129184411Y-109836886D01*
X129197220Y-109827386D01*
X129210898Y-109819188D01*
X129225314Y-109812370D01*
X129240329Y-109806997D01*
X129255798Y-109803122D01*
X129271572Y-109800782D01*
X129287500Y-109800000D01*
X129612500Y-109800000D01*
X129628428Y-109800782D01*
G37*
G36*
X129178428Y-109800782D02*
G01*
X129194202Y-109803122D01*
X129209671Y-109806997D01*
X129224686Y-109812370D01*
X129239102Y-109819188D01*
X129252780Y-109827386D01*
X129265589Y-109836886D01*
X129277405Y-109847595D01*
X129288114Y-109859411D01*
X129297614Y-109872220D01*
X129305812Y-109885898D01*
X129312630Y-109900314D01*
X129318003Y-109915329D01*
X129321878Y-109930798D01*
X129324218Y-109946572D01*
X129325000Y-109962500D01*
X129325000Y-110837500D01*
X129324218Y-110853428D01*
X129321878Y-110869202D01*
X129318003Y-110884671D01*
X129312630Y-110899686D01*
X129305812Y-110914102D01*
X129297614Y-110927780D01*
X129288114Y-110940589D01*
X129277405Y-110952405D01*
X129265589Y-110963114D01*
X129252780Y-110972614D01*
X129239102Y-110980812D01*
X129224686Y-110987630D01*
X129209671Y-110993003D01*
X129194202Y-110996878D01*
X129178428Y-110999218D01*
X129162500Y-111000000D01*
X128837500Y-111000000D01*
X128821572Y-110999218D01*
X128805798Y-110996878D01*
X128790329Y-110993003D01*
X128775314Y-110987630D01*
X128760898Y-110980812D01*
X128747220Y-110972614D01*
X128734411Y-110963114D01*
X128722595Y-110952405D01*
X128711886Y-110940589D01*
X128702386Y-110927780D01*
X128694188Y-110914102D01*
X128687370Y-110899686D01*
X128681997Y-110884671D01*
X128678122Y-110869202D01*
X128675782Y-110853428D01*
X128675000Y-110837500D01*
X128675000Y-109962500D01*
X128675782Y-109946572D01*
X128678122Y-109930798D01*
X128681997Y-109915329D01*
X128687370Y-109900314D01*
X128694188Y-109885898D01*
X128702386Y-109872220D01*
X128711886Y-109859411D01*
X128722595Y-109847595D01*
X128734411Y-109836886D01*
X128747220Y-109827386D01*
X128760898Y-109819188D01*
X128775314Y-109812370D01*
X128790329Y-109806997D01*
X128805798Y-109803122D01*
X128821572Y-109800782D01*
X128837500Y-109800000D01*
X129162500Y-109800000D01*
X129178428Y-109800782D01*
G37*
G36*
X128728428Y-109800782D02*
G01*
X128744202Y-109803122D01*
X128759671Y-109806997D01*
X128774686Y-109812370D01*
X128789102Y-109819188D01*
X128802780Y-109827386D01*
X128815589Y-109836886D01*
X128827405Y-109847595D01*
X128838114Y-109859411D01*
X128847614Y-109872220D01*
X128855812Y-109885898D01*
X128862630Y-109900314D01*
X128868003Y-109915329D01*
X128871878Y-109930798D01*
X128874218Y-109946572D01*
X128875000Y-109962500D01*
X128875000Y-110837500D01*
X128874218Y-110853428D01*
X128871878Y-110869202D01*
X128868003Y-110884671D01*
X128862630Y-110899686D01*
X128855812Y-110914102D01*
X128847614Y-110927780D01*
X128838114Y-110940589D01*
X128827405Y-110952405D01*
X128815589Y-110963114D01*
X128802780Y-110972614D01*
X128789102Y-110980812D01*
X128774686Y-110987630D01*
X128759671Y-110993003D01*
X128744202Y-110996878D01*
X128728428Y-110999218D01*
X128712500Y-111000000D01*
X128387500Y-111000000D01*
X128371572Y-110999218D01*
X128355798Y-110996878D01*
X128340329Y-110993003D01*
X128325314Y-110987630D01*
X128310898Y-110980812D01*
X128297220Y-110972614D01*
X128284411Y-110963114D01*
X128272595Y-110952405D01*
X128261886Y-110940589D01*
X128252386Y-110927780D01*
X128244188Y-110914102D01*
X128237370Y-110899686D01*
X128231997Y-110884671D01*
X128228122Y-110869202D01*
X128225782Y-110853428D01*
X128225000Y-110837500D01*
X128225000Y-109962500D01*
X128225782Y-109946572D01*
X128228122Y-109930798D01*
X128231997Y-109915329D01*
X128237370Y-109900314D01*
X128244188Y-109885898D01*
X128252386Y-109872220D01*
X128261886Y-109859411D01*
X128272595Y-109847595D01*
X128284411Y-109836886D01*
X128297220Y-109827386D01*
X128310898Y-109819188D01*
X128325314Y-109812370D01*
X128340329Y-109806997D01*
X128355798Y-109803122D01*
X128371572Y-109800782D01*
X128387500Y-109800000D01*
X128712500Y-109800000D01*
X128728428Y-109800782D01*
G37*
G36*
X128182105Y-109800963D02*
G01*
X128194298Y-109802164D01*
X128232754Y-109809814D01*
X128244479Y-109813371D01*
X128280692Y-109828371D01*
X128291497Y-109834146D01*
X128324105Y-109855934D01*
X128333576Y-109863707D01*
X128361293Y-109891424D01*
X128369066Y-109900895D01*
X128390854Y-109933503D01*
X128396629Y-109944308D01*
X128411629Y-109980521D01*
X128415186Y-109992246D01*
X128422836Y-110030702D01*
X128424037Y-110042895D01*
X128425000Y-110062500D01*
X128425000Y-110737500D01*
X128424037Y-110757105D01*
X128422836Y-110769298D01*
X128415186Y-110807754D01*
X128411629Y-110819479D01*
X128396629Y-110855692D01*
X128390854Y-110866497D01*
X128369066Y-110899105D01*
X128361293Y-110908576D01*
X128333576Y-110936293D01*
X128324105Y-110944066D01*
X128291497Y-110965854D01*
X128280692Y-110971629D01*
X128244479Y-110986629D01*
X128232754Y-110990186D01*
X128194298Y-110997836D01*
X128182105Y-110999037D01*
X128162500Y-111000000D01*
X128037500Y-111000000D01*
X128017895Y-110999037D01*
X128005702Y-110997836D01*
X127967246Y-110990186D01*
X127955521Y-110986629D01*
X127919308Y-110971629D01*
X127908503Y-110965854D01*
X127875895Y-110944066D01*
X127866424Y-110936293D01*
X127838707Y-110908576D01*
X127830934Y-110899105D01*
X127809146Y-110866497D01*
X127803371Y-110855692D01*
X127788371Y-110819479D01*
X127784814Y-110807754D01*
X127777164Y-110769298D01*
X127775963Y-110757105D01*
X127775000Y-110737500D01*
X127775000Y-110125888D01*
X127775963Y-110106283D01*
X127777164Y-110094090D01*
X127784814Y-110055634D01*
X127788371Y-110043909D01*
X127803371Y-110007696D01*
X127809146Y-109996891D01*
X127830934Y-109964283D01*
X127838707Y-109954812D01*
X127851885Y-109940273D01*
X127915273Y-109876885D01*
X127929812Y-109863707D01*
X127939283Y-109855934D01*
X127971891Y-109834146D01*
X127982696Y-109828371D01*
X128018909Y-109813371D01*
X128030634Y-109809814D01*
X128069090Y-109802164D01*
X128081283Y-109800963D01*
X128100888Y-109800000D01*
X128162500Y-109800000D01*
X128182105Y-109800963D01*
G37*
G36*
X127857105Y-109475963D02*
G01*
X127869298Y-109477164D01*
X127907754Y-109484814D01*
X127919479Y-109488371D01*
X127955692Y-109503371D01*
X127966497Y-109509146D01*
X127999105Y-109530934D01*
X128008576Y-109538707D01*
X128036293Y-109566424D01*
X128044066Y-109575895D01*
X128065854Y-109608503D01*
X128071629Y-109619308D01*
X128086629Y-109655521D01*
X128090186Y-109667246D01*
X128097836Y-109705702D01*
X128099037Y-109717895D01*
X128100000Y-109737500D01*
X128100000Y-109799112D01*
X128099037Y-109818717D01*
X128097836Y-109830910D01*
X128090186Y-109869366D01*
X128086629Y-109881091D01*
X128071629Y-109917304D01*
X128065854Y-109928109D01*
X128044066Y-109960717D01*
X128036293Y-109970188D01*
X128023115Y-109984727D01*
X127959727Y-110048115D01*
X127945188Y-110061293D01*
X127935717Y-110069066D01*
X127903109Y-110090854D01*
X127892304Y-110096629D01*
X127856091Y-110111629D01*
X127844366Y-110115186D01*
X127805910Y-110122836D01*
X127793717Y-110124037D01*
X127774112Y-110125000D01*
X127162500Y-110125000D01*
X127142895Y-110124037D01*
X127130702Y-110122836D01*
X127092246Y-110115186D01*
X127080521Y-110111629D01*
X127044308Y-110096629D01*
X127033503Y-110090854D01*
X127000895Y-110069066D01*
X126991424Y-110061293D01*
X126963707Y-110033576D01*
X126955934Y-110024105D01*
X126934146Y-109991497D01*
X126928371Y-109980692D01*
X126913371Y-109944479D01*
X126909814Y-109932754D01*
X126902164Y-109894298D01*
X126900963Y-109882105D01*
X126900000Y-109862500D01*
X126900000Y-109737500D01*
X126900963Y-109717895D01*
X126902164Y-109705702D01*
X126909814Y-109667246D01*
X126913371Y-109655521D01*
X126928371Y-109619308D01*
X126934146Y-109608503D01*
X126955934Y-109575895D01*
X126963707Y-109566424D01*
X126991424Y-109538707D01*
X127000895Y-109530934D01*
X127033503Y-109509146D01*
X127044308Y-109503371D01*
X127080521Y-109488371D01*
X127092246Y-109484814D01*
X127130702Y-109477164D01*
X127142895Y-109475963D01*
X127162500Y-109475000D01*
X127837500Y-109475000D01*
X127857105Y-109475963D01*
G37*
G36*
X127953428Y-109025782D02*
G01*
X127969202Y-109028122D01*
X127984671Y-109031997D01*
X127999686Y-109037370D01*
X128014102Y-109044188D01*
X128027780Y-109052386D01*
X128040589Y-109061886D01*
X128052405Y-109072595D01*
X128063114Y-109084411D01*
X128072614Y-109097220D01*
X128080812Y-109110898D01*
X128087630Y-109125314D01*
X128093003Y-109140329D01*
X128096878Y-109155798D01*
X128099218Y-109171572D01*
X128100000Y-109187500D01*
X128100000Y-109512500D01*
X128099218Y-109528428D01*
X128096878Y-109544202D01*
X128093003Y-109559671D01*
X128087630Y-109574686D01*
X128080812Y-109589102D01*
X128072614Y-109602780D01*
X128063114Y-109615589D01*
X128052405Y-109627405D01*
X128040589Y-109638114D01*
X128027780Y-109647614D01*
X128014102Y-109655812D01*
X127999686Y-109662630D01*
X127984671Y-109668003D01*
X127969202Y-109671878D01*
X127953428Y-109674218D01*
X127937500Y-109675000D01*
X127062500Y-109675000D01*
X127046572Y-109674218D01*
X127030798Y-109671878D01*
X127015329Y-109668003D01*
X127000314Y-109662630D01*
X126985898Y-109655812D01*
X126972220Y-109647614D01*
X126959411Y-109638114D01*
X126947595Y-109627405D01*
X126936886Y-109615589D01*
X126927386Y-109602780D01*
X126919188Y-109589102D01*
X126912370Y-109574686D01*
X126906997Y-109559671D01*
X126903122Y-109544202D01*
X126900782Y-109528428D01*
X126900000Y-109512500D01*
X126900000Y-109187500D01*
X126900782Y-109171572D01*
X126903122Y-109155798D01*
X126906997Y-109140329D01*
X126912370Y-109125314D01*
X126919188Y-109110898D01*
X126927386Y-109097220D01*
X126936886Y-109084411D01*
X126947595Y-109072595D01*
X126959411Y-109061886D01*
X126972220Y-109052386D01*
X126985898Y-109044188D01*
X127000314Y-109037370D01*
X127015329Y-109031997D01*
X127030798Y-109028122D01*
X127046572Y-109025782D01*
X127062500Y-109025000D01*
X127937500Y-109025000D01*
X127953428Y-109025782D01*
G37*
G36*
X127953428Y-108575782D02*
G01*
X127969202Y-108578122D01*
X127984671Y-108581997D01*
X127999686Y-108587370D01*
X128014102Y-108594188D01*
X128027780Y-108602386D01*
X128040589Y-108611886D01*
X128052405Y-108622595D01*
X128063114Y-108634411D01*
X128072614Y-108647220D01*
X128080812Y-108660898D01*
X128087630Y-108675314D01*
X128093003Y-108690329D01*
X128096878Y-108705798D01*
X128099218Y-108721572D01*
X128100000Y-108737500D01*
X128100000Y-109062500D01*
X128099218Y-109078428D01*
X128096878Y-109094202D01*
X128093003Y-109109671D01*
X128087630Y-109124686D01*
X128080812Y-109139102D01*
X128072614Y-109152780D01*
X128063114Y-109165589D01*
X128052405Y-109177405D01*
X128040589Y-109188114D01*
X128027780Y-109197614D01*
X128014102Y-109205812D01*
X127999686Y-109212630D01*
X127984671Y-109218003D01*
X127969202Y-109221878D01*
X127953428Y-109224218D01*
X127937500Y-109225000D01*
X127062500Y-109225000D01*
X127046572Y-109224218D01*
X127030798Y-109221878D01*
X127015329Y-109218003D01*
X127000314Y-109212630D01*
X126985898Y-109205812D01*
X126972220Y-109197614D01*
X126959411Y-109188114D01*
X126947595Y-109177405D01*
X126936886Y-109165589D01*
X126927386Y-109152780D01*
X126919188Y-109139102D01*
X126912370Y-109124686D01*
X126906997Y-109109671D01*
X126903122Y-109094202D01*
X126900782Y-109078428D01*
X126900000Y-109062500D01*
X126900000Y-108737500D01*
X126900782Y-108721572D01*
X126903122Y-108705798D01*
X126906997Y-108690329D01*
X126912370Y-108675314D01*
X126919188Y-108660898D01*
X126927386Y-108647220D01*
X126936886Y-108634411D01*
X126947595Y-108622595D01*
X126959411Y-108611886D01*
X126972220Y-108602386D01*
X126985898Y-108594188D01*
X127000314Y-108587370D01*
X127015329Y-108581997D01*
X127030798Y-108578122D01*
X127046572Y-108575782D01*
X127062500Y-108575000D01*
X127937500Y-108575000D01*
X127953428Y-108575782D01*
G37*
G36*
X127953428Y-108125782D02*
G01*
X127969202Y-108128122D01*
X127984671Y-108131997D01*
X127999686Y-108137370D01*
X128014102Y-108144188D01*
X128027780Y-108152386D01*
X128040589Y-108161886D01*
X128052405Y-108172595D01*
X128063114Y-108184411D01*
X128072614Y-108197220D01*
X128080812Y-108210898D01*
X128087630Y-108225314D01*
X128093003Y-108240329D01*
X128096878Y-108255798D01*
X128099218Y-108271572D01*
X128100000Y-108287500D01*
X128100000Y-108612500D01*
X128099218Y-108628428D01*
X128096878Y-108644202D01*
X128093003Y-108659671D01*
X128087630Y-108674686D01*
X128080812Y-108689102D01*
X128072614Y-108702780D01*
X128063114Y-108715589D01*
X128052405Y-108727405D01*
X128040589Y-108738114D01*
X128027780Y-108747614D01*
X128014102Y-108755812D01*
X127999686Y-108762630D01*
X127984671Y-108768003D01*
X127969202Y-108771878D01*
X127953428Y-108774218D01*
X127937500Y-108775000D01*
X127062500Y-108775000D01*
X127046572Y-108774218D01*
X127030798Y-108771878D01*
X127015329Y-108768003D01*
X127000314Y-108762630D01*
X126985898Y-108755812D01*
X126972220Y-108747614D01*
X126959411Y-108738114D01*
X126947595Y-108727405D01*
X126936886Y-108715589D01*
X126927386Y-108702780D01*
X126919188Y-108689102D01*
X126912370Y-108674686D01*
X126906997Y-108659671D01*
X126903122Y-108644202D01*
X126900782Y-108628428D01*
X126900000Y-108612500D01*
X126900000Y-108287500D01*
X126900782Y-108271572D01*
X126903122Y-108255798D01*
X126906997Y-108240329D01*
X126912370Y-108225314D01*
X126919188Y-108210898D01*
X126927386Y-108197220D01*
X126936886Y-108184411D01*
X126947595Y-108172595D01*
X126959411Y-108161886D01*
X126972220Y-108152386D01*
X126985898Y-108144188D01*
X127000314Y-108137370D01*
X127015329Y-108131997D01*
X127030798Y-108128122D01*
X127046572Y-108125782D01*
X127062500Y-108125000D01*
X127937500Y-108125000D01*
X127953428Y-108125782D01*
G37*
G36*
X127953428Y-107675782D02*
G01*
X127969202Y-107678122D01*
X127984671Y-107681997D01*
X127999686Y-107687370D01*
X128014102Y-107694188D01*
X128027780Y-107702386D01*
X128040589Y-107711886D01*
X128052405Y-107722595D01*
X128063114Y-107734411D01*
X128072614Y-107747220D01*
X128080812Y-107760898D01*
X128087630Y-107775314D01*
X128093003Y-107790329D01*
X128096878Y-107805798D01*
X128099218Y-107821572D01*
X128100000Y-107837500D01*
X128100000Y-108162500D01*
X128099218Y-108178428D01*
X128096878Y-108194202D01*
X128093003Y-108209671D01*
X128087630Y-108224686D01*
X128080812Y-108239102D01*
X128072614Y-108252780D01*
X128063114Y-108265589D01*
X128052405Y-108277405D01*
X128040589Y-108288114D01*
X128027780Y-108297614D01*
X128014102Y-108305812D01*
X127999686Y-108312630D01*
X127984671Y-108318003D01*
X127969202Y-108321878D01*
X127953428Y-108324218D01*
X127937500Y-108325000D01*
X127062500Y-108325000D01*
X127046572Y-108324218D01*
X127030798Y-108321878D01*
X127015329Y-108318003D01*
X127000314Y-108312630D01*
X126985898Y-108305812D01*
X126972220Y-108297614D01*
X126959411Y-108288114D01*
X126947595Y-108277405D01*
X126936886Y-108265589D01*
X126927386Y-108252780D01*
X126919188Y-108239102D01*
X126912370Y-108224686D01*
X126906997Y-108209671D01*
X126903122Y-108194202D01*
X126900782Y-108178428D01*
X126900000Y-108162500D01*
X126900000Y-107837500D01*
X126900782Y-107821572D01*
X126903122Y-107805798D01*
X126906997Y-107790329D01*
X126912370Y-107775314D01*
X126919188Y-107760898D01*
X126927386Y-107747220D01*
X126936886Y-107734411D01*
X126947595Y-107722595D01*
X126959411Y-107711886D01*
X126972220Y-107702386D01*
X126985898Y-107694188D01*
X127000314Y-107687370D01*
X127015329Y-107681997D01*
X127030798Y-107678122D01*
X127046572Y-107675782D01*
X127062500Y-107675000D01*
X127937500Y-107675000D01*
X127953428Y-107675782D01*
G37*
G36*
X127953428Y-107225782D02*
G01*
X127969202Y-107228122D01*
X127984671Y-107231997D01*
X127999686Y-107237370D01*
X128014102Y-107244188D01*
X128027780Y-107252386D01*
X128040589Y-107261886D01*
X128052405Y-107272595D01*
X128063114Y-107284411D01*
X128072614Y-107297220D01*
X128080812Y-107310898D01*
X128087630Y-107325314D01*
X128093003Y-107340329D01*
X128096878Y-107355798D01*
X128099218Y-107371572D01*
X128100000Y-107387500D01*
X128100000Y-107712500D01*
X128099218Y-107728428D01*
X128096878Y-107744202D01*
X128093003Y-107759671D01*
X128087630Y-107774686D01*
X128080812Y-107789102D01*
X128072614Y-107802780D01*
X128063114Y-107815589D01*
X128052405Y-107827405D01*
X128040589Y-107838114D01*
X128027780Y-107847614D01*
X128014102Y-107855812D01*
X127999686Y-107862630D01*
X127984671Y-107868003D01*
X127969202Y-107871878D01*
X127953428Y-107874218D01*
X127937500Y-107875000D01*
X127062500Y-107875000D01*
X127046572Y-107874218D01*
X127030798Y-107871878D01*
X127015329Y-107868003D01*
X127000314Y-107862630D01*
X126985898Y-107855812D01*
X126972220Y-107847614D01*
X126959411Y-107838114D01*
X126947595Y-107827405D01*
X126936886Y-107815589D01*
X126927386Y-107802780D01*
X126919188Y-107789102D01*
X126912370Y-107774686D01*
X126906997Y-107759671D01*
X126903122Y-107744202D01*
X126900782Y-107728428D01*
X126900000Y-107712500D01*
X126900000Y-107387500D01*
X126900782Y-107371572D01*
X126903122Y-107355798D01*
X126906997Y-107340329D01*
X126912370Y-107325314D01*
X126919188Y-107310898D01*
X126927386Y-107297220D01*
X126936886Y-107284411D01*
X126947595Y-107272595D01*
X126959411Y-107261886D01*
X126972220Y-107252386D01*
X126985898Y-107244188D01*
X127000314Y-107237370D01*
X127015329Y-107231997D01*
X127030798Y-107228122D01*
X127046572Y-107225782D01*
X127062500Y-107225000D01*
X127937500Y-107225000D01*
X127953428Y-107225782D01*
G37*
G36*
X127793717Y-106775963D02*
G01*
X127805910Y-106777164D01*
X127844366Y-106784814D01*
X127856091Y-106788371D01*
X127892304Y-106803371D01*
X127903109Y-106809146D01*
X127935717Y-106830934D01*
X127945188Y-106838707D01*
X127959727Y-106851885D01*
X128023115Y-106915273D01*
X128036293Y-106929812D01*
X128044066Y-106939283D01*
X128065854Y-106971891D01*
X128071629Y-106982696D01*
X128086629Y-107018909D01*
X128090186Y-107030634D01*
X128097836Y-107069090D01*
X128099037Y-107081283D01*
X128100000Y-107100888D01*
X128100000Y-107162500D01*
X128099037Y-107182105D01*
X128097836Y-107194298D01*
X128090186Y-107232754D01*
X128086629Y-107244479D01*
X128071629Y-107280692D01*
X128065854Y-107291497D01*
X128044066Y-107324105D01*
X128036293Y-107333576D01*
X128008576Y-107361293D01*
X127999105Y-107369066D01*
X127966497Y-107390854D01*
X127955692Y-107396629D01*
X127919479Y-107411629D01*
X127907754Y-107415186D01*
X127869298Y-107422836D01*
X127857105Y-107424037D01*
X127837500Y-107425000D01*
X127162500Y-107425000D01*
X127142895Y-107424037D01*
X127130702Y-107422836D01*
X127092246Y-107415186D01*
X127080521Y-107411629D01*
X127044308Y-107396629D01*
X127033503Y-107390854D01*
X127000895Y-107369066D01*
X126991424Y-107361293D01*
X126963707Y-107333576D01*
X126955934Y-107324105D01*
X126934146Y-107291497D01*
X126928371Y-107280692D01*
X126913371Y-107244479D01*
X126909814Y-107232754D01*
X126902164Y-107194298D01*
X126900963Y-107182105D01*
X126900000Y-107162500D01*
X126900000Y-107037500D01*
X126900963Y-107017895D01*
X126902164Y-107005702D01*
X126909814Y-106967246D01*
X126913371Y-106955521D01*
X126928371Y-106919308D01*
X126934146Y-106908503D01*
X126955934Y-106875895D01*
X126963707Y-106866424D01*
X126991424Y-106838707D01*
X127000895Y-106830934D01*
X127033503Y-106809146D01*
X127044308Y-106803371D01*
X127080521Y-106788371D01*
X127092246Y-106784814D01*
X127130702Y-106777164D01*
X127142895Y-106775963D01*
X127162500Y-106775000D01*
X127774112Y-106775000D01*
X127793717Y-106775963D01*
G37*
G36*
X130586921Y-107051404D02*
G01*
X130615234Y-107055604D01*
X130642999Y-107062559D01*
X130669949Y-107072202D01*
X130695824Y-107084440D01*
X130720375Y-107099155D01*
X130743365Y-107116205D01*
X130764573Y-107135427D01*
X130783795Y-107156635D01*
X130800845Y-107179625D01*
X130815560Y-107204176D01*
X130827798Y-107230051D01*
X130837441Y-107257001D01*
X130844396Y-107284766D01*
X130848596Y-107313079D01*
X130850000Y-107341667D01*
X130850000Y-109558333D01*
X130848596Y-109586921D01*
X130844396Y-109615234D01*
X130837441Y-109642999D01*
X130827798Y-109669949D01*
X130815560Y-109695824D01*
X130800845Y-109720375D01*
X130783795Y-109743365D01*
X130764573Y-109764573D01*
X130743365Y-109783795D01*
X130720375Y-109800845D01*
X130695824Y-109815560D01*
X130669949Y-109827798D01*
X130642999Y-109837441D01*
X130615234Y-109844396D01*
X130586921Y-109848596D01*
X130558333Y-109850000D01*
X128341667Y-109850000D01*
X128313079Y-109848596D01*
X128284766Y-109844396D01*
X128257001Y-109837441D01*
X128230051Y-109827798D01*
X128204176Y-109815560D01*
X128179625Y-109800845D01*
X128156635Y-109783795D01*
X128135427Y-109764573D01*
X128116205Y-109743365D01*
X128099155Y-109720375D01*
X128084440Y-109695824D01*
X128072202Y-109669949D01*
X128062559Y-109642999D01*
X128055604Y-109615234D01*
X128051404Y-109586921D01*
X128050000Y-109558333D01*
X128050000Y-107341667D01*
X128051404Y-107313079D01*
X128055604Y-107284766D01*
X128062559Y-107257001D01*
X128072202Y-107230051D01*
X128084440Y-107204176D01*
X128099155Y-107179625D01*
X128116205Y-107156635D01*
X128135427Y-107135427D01*
X128156635Y-107116205D01*
X128179625Y-107099155D01*
X128204176Y-107084440D01*
X128230051Y-107072202D01*
X128257001Y-107062559D01*
X128284766Y-107055604D01*
X128313079Y-107051404D01*
X128341667Y-107050000D01*
X130558333Y-107050000D01*
X130586921Y-107051404D01*
G37*
D19*
X101150000Y-110400000D03*
D20*
X103300000Y-113200000D03*
X103300000Y-107600000D03*
D21*
X103050000Y-109100000D03*
X103050000Y-111700000D03*
X103050000Y-109750000D03*
X103050000Y-111050000D03*
X103050000Y-110400000D03*
D16*
X138100000Y-103900000D03*
D17*
X135560000Y-103900000D03*
D16*
X101900000Y-103900000D03*
D17*
X104440000Y-103900000D03*
D16*
X124280000Y-113100000D03*
X126820000Y-113100000D03*
X129360000Y-113100000D03*
D17*
X131900000Y-113100000D03*
D16*
X120600000Y-113100000D03*
X118060000Y-113100000D03*
X115520000Y-113100000D03*
D17*
X112980000Y-113100000D03*
D14*
G36*
X115837493Y-106426535D02*
G01*
X115868435Y-106431125D01*
X115898778Y-106438725D01*
X115928230Y-106449263D01*
X115956508Y-106462638D01*
X115983338Y-106478719D01*
X116008463Y-106497353D01*
X116031640Y-106518360D01*
X116052647Y-106541537D01*
X116071281Y-106566662D01*
X116087362Y-106593492D01*
X116100737Y-106621770D01*
X116111275Y-106651222D01*
X116118875Y-106681565D01*
X116123465Y-106712507D01*
X116125000Y-106743750D01*
X116125000Y-107456250D01*
X116123465Y-107487493D01*
X116118875Y-107518435D01*
X116111275Y-107548778D01*
X116100737Y-107578230D01*
X116087362Y-107606508D01*
X116071281Y-107633338D01*
X116052647Y-107658463D01*
X116031640Y-107681640D01*
X116008463Y-107702647D01*
X115983338Y-107721281D01*
X115956508Y-107737362D01*
X115928230Y-107750737D01*
X115898778Y-107761275D01*
X115868435Y-107768875D01*
X115837493Y-107773465D01*
X115806250Y-107775000D01*
X115168750Y-107775000D01*
X115137507Y-107773465D01*
X115106565Y-107768875D01*
X115076222Y-107761275D01*
X115046770Y-107750737D01*
X115018492Y-107737362D01*
X114991662Y-107721281D01*
X114966537Y-107702647D01*
X114943360Y-107681640D01*
X114922353Y-107658463D01*
X114903719Y-107633338D01*
X114887638Y-107606508D01*
X114874263Y-107578230D01*
X114863725Y-107548778D01*
X114856125Y-107518435D01*
X114851535Y-107487493D01*
X114850000Y-107456250D01*
X114850000Y-106743750D01*
X114851535Y-106712507D01*
X114856125Y-106681565D01*
X114863725Y-106651222D01*
X114874263Y-106621770D01*
X114887638Y-106593492D01*
X114903719Y-106566662D01*
X114922353Y-106541537D01*
X114943360Y-106518360D01*
X114966537Y-106497353D01*
X114991662Y-106478719D01*
X115018492Y-106462638D01*
X115046770Y-106449263D01*
X115076222Y-106438725D01*
X115106565Y-106431125D01*
X115137507Y-106426535D01*
X115168750Y-106425000D01*
X115806250Y-106425000D01*
X115837493Y-106426535D01*
G37*
G36*
X114262493Y-106426535D02*
G01*
X114293435Y-106431125D01*
X114323778Y-106438725D01*
X114353230Y-106449263D01*
X114381508Y-106462638D01*
X114408338Y-106478719D01*
X114433463Y-106497353D01*
X114456640Y-106518360D01*
X114477647Y-106541537D01*
X114496281Y-106566662D01*
X114512362Y-106593492D01*
X114525737Y-106621770D01*
X114536275Y-106651222D01*
X114543875Y-106681565D01*
X114548465Y-106712507D01*
X114550000Y-106743750D01*
X114550000Y-107456250D01*
X114548465Y-107487493D01*
X114543875Y-107518435D01*
X114536275Y-107548778D01*
X114525737Y-107578230D01*
X114512362Y-107606508D01*
X114496281Y-107633338D01*
X114477647Y-107658463D01*
X114456640Y-107681640D01*
X114433463Y-107702647D01*
X114408338Y-107721281D01*
X114381508Y-107737362D01*
X114353230Y-107750737D01*
X114323778Y-107761275D01*
X114293435Y-107768875D01*
X114262493Y-107773465D01*
X114231250Y-107775000D01*
X113593750Y-107775000D01*
X113562507Y-107773465D01*
X113531565Y-107768875D01*
X113501222Y-107761275D01*
X113471770Y-107750737D01*
X113443492Y-107737362D01*
X113416662Y-107721281D01*
X113391537Y-107702647D01*
X113368360Y-107681640D01*
X113347353Y-107658463D01*
X113328719Y-107633338D01*
X113312638Y-107606508D01*
X113299263Y-107578230D01*
X113288725Y-107548778D01*
X113281125Y-107518435D01*
X113276535Y-107487493D01*
X113275000Y-107456250D01*
X113275000Y-106743750D01*
X113276535Y-106712507D01*
X113281125Y-106681565D01*
X113288725Y-106651222D01*
X113299263Y-106621770D01*
X113312638Y-106593492D01*
X113328719Y-106566662D01*
X113347353Y-106541537D01*
X113368360Y-106518360D01*
X113391537Y-106497353D01*
X113416662Y-106478719D01*
X113443492Y-106462638D01*
X113471770Y-106449263D01*
X113501222Y-106438725D01*
X113531565Y-106431125D01*
X113562507Y-106426535D01*
X113593750Y-106425000D01*
X114231250Y-106425000D01*
X114262493Y-106426535D01*
G37*
G36*
X113987493Y-109751535D02*
G01*
X114018435Y-109756125D01*
X114048778Y-109763725D01*
X114078230Y-109774263D01*
X114106508Y-109787638D01*
X114133338Y-109803719D01*
X114158463Y-109822353D01*
X114181640Y-109843360D01*
X114202647Y-109866537D01*
X114221281Y-109891662D01*
X114237362Y-109918492D01*
X114250737Y-109946770D01*
X114261275Y-109976222D01*
X114268875Y-110006565D01*
X114273465Y-110037507D01*
X114275000Y-110068750D01*
X114275000Y-110706250D01*
X114273465Y-110737493D01*
X114268875Y-110768435D01*
X114261275Y-110798778D01*
X114250737Y-110828230D01*
X114237362Y-110856508D01*
X114221281Y-110883338D01*
X114202647Y-110908463D01*
X114181640Y-110931640D01*
X114158463Y-110952647D01*
X114133338Y-110971281D01*
X114106508Y-110987362D01*
X114078230Y-111000737D01*
X114048778Y-111011275D01*
X114018435Y-111018875D01*
X113987493Y-111023465D01*
X113956250Y-111025000D01*
X113243750Y-111025000D01*
X113212507Y-111023465D01*
X113181565Y-111018875D01*
X113151222Y-111011275D01*
X113121770Y-111000737D01*
X113093492Y-110987362D01*
X113066662Y-110971281D01*
X113041537Y-110952647D01*
X113018360Y-110931640D01*
X112997353Y-110908463D01*
X112978719Y-110883338D01*
X112962638Y-110856508D01*
X112949263Y-110828230D01*
X112938725Y-110798778D01*
X112931125Y-110768435D01*
X112926535Y-110737493D01*
X112925000Y-110706250D01*
X112925000Y-110068750D01*
X112926535Y-110037507D01*
X112931125Y-110006565D01*
X112938725Y-109976222D01*
X112949263Y-109946770D01*
X112962638Y-109918492D01*
X112978719Y-109891662D01*
X112997353Y-109866537D01*
X113018360Y-109843360D01*
X113041537Y-109822353D01*
X113066662Y-109803719D01*
X113093492Y-109787638D01*
X113121770Y-109774263D01*
X113151222Y-109763725D01*
X113181565Y-109756125D01*
X113212507Y-109751535D01*
X113243750Y-109750000D01*
X113956250Y-109750000D01*
X113987493Y-109751535D01*
G37*
G36*
X113987493Y-108176535D02*
G01*
X114018435Y-108181125D01*
X114048778Y-108188725D01*
X114078230Y-108199263D01*
X114106508Y-108212638D01*
X114133338Y-108228719D01*
X114158463Y-108247353D01*
X114181640Y-108268360D01*
X114202647Y-108291537D01*
X114221281Y-108316662D01*
X114237362Y-108343492D01*
X114250737Y-108371770D01*
X114261275Y-108401222D01*
X114268875Y-108431565D01*
X114273465Y-108462507D01*
X114275000Y-108493750D01*
X114275000Y-109131250D01*
X114273465Y-109162493D01*
X114268875Y-109193435D01*
X114261275Y-109223778D01*
X114250737Y-109253230D01*
X114237362Y-109281508D01*
X114221281Y-109308338D01*
X114202647Y-109333463D01*
X114181640Y-109356640D01*
X114158463Y-109377647D01*
X114133338Y-109396281D01*
X114106508Y-109412362D01*
X114078230Y-109425737D01*
X114048778Y-109436275D01*
X114018435Y-109443875D01*
X113987493Y-109448465D01*
X113956250Y-109450000D01*
X113243750Y-109450000D01*
X113212507Y-109448465D01*
X113181565Y-109443875D01*
X113151222Y-109436275D01*
X113121770Y-109425737D01*
X113093492Y-109412362D01*
X113066662Y-109396281D01*
X113041537Y-109377647D01*
X113018360Y-109356640D01*
X112997353Y-109333463D01*
X112978719Y-109308338D01*
X112962638Y-109281508D01*
X112949263Y-109253230D01*
X112938725Y-109223778D01*
X112931125Y-109193435D01*
X112926535Y-109162493D01*
X112925000Y-109131250D01*
X112925000Y-108493750D01*
X112926535Y-108462507D01*
X112931125Y-108431565D01*
X112938725Y-108401222D01*
X112949263Y-108371770D01*
X112962638Y-108343492D01*
X112978719Y-108316662D01*
X112997353Y-108291537D01*
X113018360Y-108268360D01*
X113041537Y-108247353D01*
X113066662Y-108228719D01*
X113093492Y-108212638D01*
X113121770Y-108199263D01*
X113151222Y-108188725D01*
X113181565Y-108181125D01*
X113212507Y-108176535D01*
X113243750Y-108175000D01*
X113956250Y-108175000D01*
X113987493Y-108176535D01*
G37*
G36*
X116087493Y-109751535D02*
G01*
X116118435Y-109756125D01*
X116148778Y-109763725D01*
X116178230Y-109774263D01*
X116206508Y-109787638D01*
X116233338Y-109803719D01*
X116258463Y-109822353D01*
X116281640Y-109843360D01*
X116302647Y-109866537D01*
X116321281Y-109891662D01*
X116337362Y-109918492D01*
X116350737Y-109946770D01*
X116361275Y-109976222D01*
X116368875Y-110006565D01*
X116373465Y-110037507D01*
X116375000Y-110068750D01*
X116375000Y-110706250D01*
X116373465Y-110737493D01*
X116368875Y-110768435D01*
X116361275Y-110798778D01*
X116350737Y-110828230D01*
X116337362Y-110856508D01*
X116321281Y-110883338D01*
X116302647Y-110908463D01*
X116281640Y-110931640D01*
X116258463Y-110952647D01*
X116233338Y-110971281D01*
X116206508Y-110987362D01*
X116178230Y-111000737D01*
X116148778Y-111011275D01*
X116118435Y-111018875D01*
X116087493Y-111023465D01*
X116056250Y-111025000D01*
X115343750Y-111025000D01*
X115312507Y-111023465D01*
X115281565Y-111018875D01*
X115251222Y-111011275D01*
X115221770Y-111000737D01*
X115193492Y-110987362D01*
X115166662Y-110971281D01*
X115141537Y-110952647D01*
X115118360Y-110931640D01*
X115097353Y-110908463D01*
X115078719Y-110883338D01*
X115062638Y-110856508D01*
X115049263Y-110828230D01*
X115038725Y-110798778D01*
X115031125Y-110768435D01*
X115026535Y-110737493D01*
X115025000Y-110706250D01*
X115025000Y-110068750D01*
X115026535Y-110037507D01*
X115031125Y-110006565D01*
X115038725Y-109976222D01*
X115049263Y-109946770D01*
X115062638Y-109918492D01*
X115078719Y-109891662D01*
X115097353Y-109866537D01*
X115118360Y-109843360D01*
X115141537Y-109822353D01*
X115166662Y-109803719D01*
X115193492Y-109787638D01*
X115221770Y-109774263D01*
X115251222Y-109763725D01*
X115281565Y-109756125D01*
X115312507Y-109751535D01*
X115343750Y-109750000D01*
X116056250Y-109750000D01*
X116087493Y-109751535D01*
G37*
G36*
X116087493Y-108176535D02*
G01*
X116118435Y-108181125D01*
X116148778Y-108188725D01*
X116178230Y-108199263D01*
X116206508Y-108212638D01*
X116233338Y-108228719D01*
X116258463Y-108247353D01*
X116281640Y-108268360D01*
X116302647Y-108291537D01*
X116321281Y-108316662D01*
X116337362Y-108343492D01*
X116350737Y-108371770D01*
X116361275Y-108401222D01*
X116368875Y-108431565D01*
X116373465Y-108462507D01*
X116375000Y-108493750D01*
X116375000Y-109131250D01*
X116373465Y-109162493D01*
X116368875Y-109193435D01*
X116361275Y-109223778D01*
X116350737Y-109253230D01*
X116337362Y-109281508D01*
X116321281Y-109308338D01*
X116302647Y-109333463D01*
X116281640Y-109356640D01*
X116258463Y-109377647D01*
X116233338Y-109396281D01*
X116206508Y-109412362D01*
X116178230Y-109425737D01*
X116148778Y-109436275D01*
X116118435Y-109443875D01*
X116087493Y-109448465D01*
X116056250Y-109450000D01*
X115343750Y-109450000D01*
X115312507Y-109448465D01*
X115281565Y-109443875D01*
X115251222Y-109436275D01*
X115221770Y-109425737D01*
X115193492Y-109412362D01*
X115166662Y-109396281D01*
X115141537Y-109377647D01*
X115118360Y-109356640D01*
X115097353Y-109333463D01*
X115078719Y-109308338D01*
X115062638Y-109281508D01*
X115049263Y-109253230D01*
X115038725Y-109223778D01*
X115031125Y-109193435D01*
X115026535Y-109162493D01*
X115025000Y-109131250D01*
X115025000Y-108493750D01*
X115026535Y-108462507D01*
X115031125Y-108431565D01*
X115038725Y-108401222D01*
X115049263Y-108371770D01*
X115062638Y-108343492D01*
X115078719Y-108316662D01*
X115097353Y-108291537D01*
X115118360Y-108268360D01*
X115141537Y-108247353D01*
X115166662Y-108228719D01*
X115193492Y-108212638D01*
X115221770Y-108199263D01*
X115251222Y-108188725D01*
X115281565Y-108181125D01*
X115312507Y-108176535D01*
X115343750Y-108175000D01*
X116056250Y-108175000D01*
X116087493Y-108176535D01*
G37*
G36*
X105574993Y-106026535D02*
G01*
X105605935Y-106031125D01*
X105636278Y-106038725D01*
X105665730Y-106049263D01*
X105694008Y-106062638D01*
X105720838Y-106078719D01*
X105745963Y-106097353D01*
X105769140Y-106118360D01*
X105790147Y-106141537D01*
X105808781Y-106166662D01*
X105824862Y-106193492D01*
X105838237Y-106221770D01*
X105848775Y-106251222D01*
X105856375Y-106281565D01*
X105860965Y-106312507D01*
X105862500Y-106343750D01*
X105862500Y-107056250D01*
X105860965Y-107087493D01*
X105856375Y-107118435D01*
X105848775Y-107148778D01*
X105838237Y-107178230D01*
X105824862Y-107206508D01*
X105808781Y-107233338D01*
X105790147Y-107258463D01*
X105769140Y-107281640D01*
X105745963Y-107302647D01*
X105720838Y-107321281D01*
X105694008Y-107337362D01*
X105665730Y-107350737D01*
X105636278Y-107361275D01*
X105605935Y-107368875D01*
X105574993Y-107373465D01*
X105543750Y-107375000D01*
X104906250Y-107375000D01*
X104875007Y-107373465D01*
X104844065Y-107368875D01*
X104813722Y-107361275D01*
X104784270Y-107350737D01*
X104755992Y-107337362D01*
X104729162Y-107321281D01*
X104704037Y-107302647D01*
X104680860Y-107281640D01*
X104659853Y-107258463D01*
X104641219Y-107233338D01*
X104625138Y-107206508D01*
X104611763Y-107178230D01*
X104601225Y-107148778D01*
X104593625Y-107118435D01*
X104589035Y-107087493D01*
X104587500Y-107056250D01*
X104587500Y-106343750D01*
X104589035Y-106312507D01*
X104593625Y-106281565D01*
X104601225Y-106251222D01*
X104611763Y-106221770D01*
X104625138Y-106193492D01*
X104641219Y-106166662D01*
X104659853Y-106141537D01*
X104680860Y-106118360D01*
X104704037Y-106097353D01*
X104729162Y-106078719D01*
X104755992Y-106062638D01*
X104784270Y-106049263D01*
X104813722Y-106038725D01*
X104844065Y-106031125D01*
X104875007Y-106026535D01*
X104906250Y-106025000D01*
X105543750Y-106025000D01*
X105574993Y-106026535D01*
G37*
G36*
X107149993Y-106026535D02*
G01*
X107180935Y-106031125D01*
X107211278Y-106038725D01*
X107240730Y-106049263D01*
X107269008Y-106062638D01*
X107295838Y-106078719D01*
X107320963Y-106097353D01*
X107344140Y-106118360D01*
X107365147Y-106141537D01*
X107383781Y-106166662D01*
X107399862Y-106193492D01*
X107413237Y-106221770D01*
X107423775Y-106251222D01*
X107431375Y-106281565D01*
X107435965Y-106312507D01*
X107437500Y-106343750D01*
X107437500Y-107056250D01*
X107435965Y-107087493D01*
X107431375Y-107118435D01*
X107423775Y-107148778D01*
X107413237Y-107178230D01*
X107399862Y-107206508D01*
X107383781Y-107233338D01*
X107365147Y-107258463D01*
X107344140Y-107281640D01*
X107320963Y-107302647D01*
X107295838Y-107321281D01*
X107269008Y-107337362D01*
X107240730Y-107350737D01*
X107211278Y-107361275D01*
X107180935Y-107368875D01*
X107149993Y-107373465D01*
X107118750Y-107375000D01*
X106481250Y-107375000D01*
X106450007Y-107373465D01*
X106419065Y-107368875D01*
X106388722Y-107361275D01*
X106359270Y-107350737D01*
X106330992Y-107337362D01*
X106304162Y-107321281D01*
X106279037Y-107302647D01*
X106255860Y-107281640D01*
X106234853Y-107258463D01*
X106216219Y-107233338D01*
X106200138Y-107206508D01*
X106186763Y-107178230D01*
X106176225Y-107148778D01*
X106168625Y-107118435D01*
X106164035Y-107087493D01*
X106162500Y-107056250D01*
X106162500Y-106343750D01*
X106164035Y-106312507D01*
X106168625Y-106281565D01*
X106176225Y-106251222D01*
X106186763Y-106221770D01*
X106200138Y-106193492D01*
X106216219Y-106166662D01*
X106234853Y-106141537D01*
X106255860Y-106118360D01*
X106279037Y-106097353D01*
X106304162Y-106078719D01*
X106330992Y-106062638D01*
X106359270Y-106049263D01*
X106388722Y-106038725D01*
X106419065Y-106031125D01*
X106450007Y-106026535D01*
X106481250Y-106025000D01*
X107118750Y-106025000D01*
X107149993Y-106026535D01*
G37*
M02*
