G04 #@! TF.GenerationSoftware,KiCad,Pcbnew,(5.1.5)-3*
G04 #@! TF.CreationDate,2020-12-08T16:20:54+11:00*
G04 #@! TF.ProjectId,microBoSL,6d696372-6f42-46f5-934c-2e6b69636164,0.1.0*
G04 #@! TF.SameCoordinates,Original*
G04 #@! TF.FileFunction,Copper,L4,Bot*
G04 #@! TF.FilePolarity,Positive*
%FSLAX46Y46*%
G04 Gerber Fmt 4.6, Leading zero omitted, Abs format (unit mm)*
G04 Created by KiCad (PCBNEW (5.1.5)-3) date 2020-12-08 16:20:54*
%MOMM*%
%LPD*%
G04 APERTURE LIST*
%ADD10O,1.000000X1.000000*%
%ADD11R,1.000000X1.000000*%
%ADD12R,1.300000X1.000000*%
%ADD13C,0.100000*%
%ADD14C,0.200000*%
%ADD15O,1.700000X1.700000*%
%ADD16R,1.700000X1.700000*%
%ADD17R,1.450000X0.450000*%
%ADD18R,0.900000X0.800000*%
%ADD19R,0.800000X0.900000*%
%ADD20O,1.100000X2.200000*%
%ADD21O,1.100000X1.800000*%
%ADD22C,0.500000*%
%ADD23C,0.600000*%
%ADD24C,0.160000*%
%ADD25C,0.600000*%
%ADD26C,0.250000*%
%ADD27C,0.800000*%
%ADD28C,0.400000*%
%ADD29C,0.200000*%
G04 APERTURE END LIST*
D10*
X132600000Y-103650000D03*
X131330000Y-103650000D03*
X130060000Y-103650000D03*
X128790000Y-103650000D03*
X127520000Y-103650000D03*
X126250000Y-103650000D03*
X124980000Y-103650000D03*
X123710000Y-103650000D03*
X122440000Y-103650000D03*
D11*
X121170000Y-103650000D03*
D12*
X129050000Y-108600000D03*
X126850000Y-108600000D03*
X126850000Y-110400000D03*
X129050000Y-110400000D03*
G04 #@! TA.AperFunction,SMDPad,CuDef*
D13*
G36*
X132986958Y-109155710D02*
G01*
X133001276Y-109157834D01*
X133015317Y-109161351D01*
X133028946Y-109166228D01*
X133042031Y-109172417D01*
X133054447Y-109179858D01*
X133066073Y-109188481D01*
X133076798Y-109198202D01*
X133086519Y-109208927D01*
X133095142Y-109220553D01*
X133102583Y-109232969D01*
X133108772Y-109246054D01*
X133113649Y-109259683D01*
X133117166Y-109273724D01*
X133119290Y-109288042D01*
X133120000Y-109302500D01*
X133120000Y-109597500D01*
X133119290Y-109611958D01*
X133117166Y-109626276D01*
X133113649Y-109640317D01*
X133108772Y-109653946D01*
X133102583Y-109667031D01*
X133095142Y-109679447D01*
X133086519Y-109691073D01*
X133076798Y-109701798D01*
X133066073Y-109711519D01*
X133054447Y-109720142D01*
X133042031Y-109727583D01*
X133028946Y-109733772D01*
X133015317Y-109738649D01*
X133001276Y-109742166D01*
X132986958Y-109744290D01*
X132972500Y-109745000D01*
X132627500Y-109745000D01*
X132613042Y-109744290D01*
X132598724Y-109742166D01*
X132584683Y-109738649D01*
X132571054Y-109733772D01*
X132557969Y-109727583D01*
X132545553Y-109720142D01*
X132533927Y-109711519D01*
X132523202Y-109701798D01*
X132513481Y-109691073D01*
X132504858Y-109679447D01*
X132497417Y-109667031D01*
X132491228Y-109653946D01*
X132486351Y-109640317D01*
X132482834Y-109626276D01*
X132480710Y-109611958D01*
X132480000Y-109597500D01*
X132480000Y-109302500D01*
X132480710Y-109288042D01*
X132482834Y-109273724D01*
X132486351Y-109259683D01*
X132491228Y-109246054D01*
X132497417Y-109232969D01*
X132504858Y-109220553D01*
X132513481Y-109208927D01*
X132523202Y-109198202D01*
X132533927Y-109188481D01*
X132545553Y-109179858D01*
X132557969Y-109172417D01*
X132571054Y-109166228D01*
X132584683Y-109161351D01*
X132598724Y-109157834D01*
X132613042Y-109155710D01*
X132627500Y-109155000D01*
X132972500Y-109155000D01*
X132986958Y-109155710D01*
G37*
G04 #@! TD.AperFunction*
G04 #@! TA.AperFunction,SMDPad,CuDef*
G36*
X132986958Y-110125710D02*
G01*
X133001276Y-110127834D01*
X133015317Y-110131351D01*
X133028946Y-110136228D01*
X133042031Y-110142417D01*
X133054447Y-110149858D01*
X133066073Y-110158481D01*
X133076798Y-110168202D01*
X133086519Y-110178927D01*
X133095142Y-110190553D01*
X133102583Y-110202969D01*
X133108772Y-110216054D01*
X133113649Y-110229683D01*
X133117166Y-110243724D01*
X133119290Y-110258042D01*
X133120000Y-110272500D01*
X133120000Y-110567500D01*
X133119290Y-110581958D01*
X133117166Y-110596276D01*
X133113649Y-110610317D01*
X133108772Y-110623946D01*
X133102583Y-110637031D01*
X133095142Y-110649447D01*
X133086519Y-110661073D01*
X133076798Y-110671798D01*
X133066073Y-110681519D01*
X133054447Y-110690142D01*
X133042031Y-110697583D01*
X133028946Y-110703772D01*
X133015317Y-110708649D01*
X133001276Y-110712166D01*
X132986958Y-110714290D01*
X132972500Y-110715000D01*
X132627500Y-110715000D01*
X132613042Y-110714290D01*
X132598724Y-110712166D01*
X132584683Y-110708649D01*
X132571054Y-110703772D01*
X132557969Y-110697583D01*
X132545553Y-110690142D01*
X132533927Y-110681519D01*
X132523202Y-110671798D01*
X132513481Y-110661073D01*
X132504858Y-110649447D01*
X132497417Y-110637031D01*
X132491228Y-110623946D01*
X132486351Y-110610317D01*
X132482834Y-110596276D01*
X132480710Y-110581958D01*
X132480000Y-110567500D01*
X132480000Y-110272500D01*
X132480710Y-110258042D01*
X132482834Y-110243724D01*
X132486351Y-110229683D01*
X132491228Y-110216054D01*
X132497417Y-110202969D01*
X132504858Y-110190553D01*
X132513481Y-110178927D01*
X132523202Y-110168202D01*
X132533927Y-110158481D01*
X132545553Y-110149858D01*
X132557969Y-110142417D01*
X132571054Y-110136228D01*
X132584683Y-110131351D01*
X132598724Y-110127834D01*
X132613042Y-110125710D01*
X132627500Y-110125000D01*
X132972500Y-110125000D01*
X132986958Y-110125710D01*
G37*
G04 #@! TD.AperFunction*
G04 #@! TA.AperFunction,SMDPad,CuDef*
G36*
X112636958Y-103230710D02*
G01*
X112651276Y-103232834D01*
X112665317Y-103236351D01*
X112678946Y-103241228D01*
X112692031Y-103247417D01*
X112704447Y-103254858D01*
X112716073Y-103263481D01*
X112726798Y-103273202D01*
X112736519Y-103283927D01*
X112745142Y-103295553D01*
X112752583Y-103307969D01*
X112758772Y-103321054D01*
X112763649Y-103334683D01*
X112767166Y-103348724D01*
X112769290Y-103363042D01*
X112770000Y-103377500D01*
X112770000Y-103722500D01*
X112769290Y-103736958D01*
X112767166Y-103751276D01*
X112763649Y-103765317D01*
X112758772Y-103778946D01*
X112752583Y-103792031D01*
X112745142Y-103804447D01*
X112736519Y-103816073D01*
X112726798Y-103826798D01*
X112716073Y-103836519D01*
X112704447Y-103845142D01*
X112692031Y-103852583D01*
X112678946Y-103858772D01*
X112665317Y-103863649D01*
X112651276Y-103867166D01*
X112636958Y-103869290D01*
X112622500Y-103870000D01*
X112327500Y-103870000D01*
X112313042Y-103869290D01*
X112298724Y-103867166D01*
X112284683Y-103863649D01*
X112271054Y-103858772D01*
X112257969Y-103852583D01*
X112245553Y-103845142D01*
X112233927Y-103836519D01*
X112223202Y-103826798D01*
X112213481Y-103816073D01*
X112204858Y-103804447D01*
X112197417Y-103792031D01*
X112191228Y-103778946D01*
X112186351Y-103765317D01*
X112182834Y-103751276D01*
X112180710Y-103736958D01*
X112180000Y-103722500D01*
X112180000Y-103377500D01*
X112180710Y-103363042D01*
X112182834Y-103348724D01*
X112186351Y-103334683D01*
X112191228Y-103321054D01*
X112197417Y-103307969D01*
X112204858Y-103295553D01*
X112213481Y-103283927D01*
X112223202Y-103273202D01*
X112233927Y-103263481D01*
X112245553Y-103254858D01*
X112257969Y-103247417D01*
X112271054Y-103241228D01*
X112284683Y-103236351D01*
X112298724Y-103232834D01*
X112313042Y-103230710D01*
X112327500Y-103230000D01*
X112622500Y-103230000D01*
X112636958Y-103230710D01*
G37*
G04 #@! TD.AperFunction*
G04 #@! TA.AperFunction,SMDPad,CuDef*
G36*
X111666958Y-103230710D02*
G01*
X111681276Y-103232834D01*
X111695317Y-103236351D01*
X111708946Y-103241228D01*
X111722031Y-103247417D01*
X111734447Y-103254858D01*
X111746073Y-103263481D01*
X111756798Y-103273202D01*
X111766519Y-103283927D01*
X111775142Y-103295553D01*
X111782583Y-103307969D01*
X111788772Y-103321054D01*
X111793649Y-103334683D01*
X111797166Y-103348724D01*
X111799290Y-103363042D01*
X111800000Y-103377500D01*
X111800000Y-103722500D01*
X111799290Y-103736958D01*
X111797166Y-103751276D01*
X111793649Y-103765317D01*
X111788772Y-103778946D01*
X111782583Y-103792031D01*
X111775142Y-103804447D01*
X111766519Y-103816073D01*
X111756798Y-103826798D01*
X111746073Y-103836519D01*
X111734447Y-103845142D01*
X111722031Y-103852583D01*
X111708946Y-103858772D01*
X111695317Y-103863649D01*
X111681276Y-103867166D01*
X111666958Y-103869290D01*
X111652500Y-103870000D01*
X111357500Y-103870000D01*
X111343042Y-103869290D01*
X111328724Y-103867166D01*
X111314683Y-103863649D01*
X111301054Y-103858772D01*
X111287969Y-103852583D01*
X111275553Y-103845142D01*
X111263927Y-103836519D01*
X111253202Y-103826798D01*
X111243481Y-103816073D01*
X111234858Y-103804447D01*
X111227417Y-103792031D01*
X111221228Y-103778946D01*
X111216351Y-103765317D01*
X111212834Y-103751276D01*
X111210710Y-103736958D01*
X111210000Y-103722500D01*
X111210000Y-103377500D01*
X111210710Y-103363042D01*
X111212834Y-103348724D01*
X111216351Y-103334683D01*
X111221228Y-103321054D01*
X111227417Y-103307969D01*
X111234858Y-103295553D01*
X111243481Y-103283927D01*
X111253202Y-103273202D01*
X111263927Y-103263481D01*
X111275553Y-103254858D01*
X111287969Y-103247417D01*
X111301054Y-103241228D01*
X111314683Y-103236351D01*
X111328724Y-103232834D01*
X111343042Y-103230710D01*
X111357500Y-103230000D01*
X111652500Y-103230000D01*
X111666958Y-103230710D01*
G37*
G04 #@! TD.AperFunction*
G04 #@! TA.AperFunction,SMDPad,CuDef*
G36*
X125436958Y-108855710D02*
G01*
X125451276Y-108857834D01*
X125465317Y-108861351D01*
X125478946Y-108866228D01*
X125492031Y-108872417D01*
X125504447Y-108879858D01*
X125516073Y-108888481D01*
X125526798Y-108898202D01*
X125536519Y-108908927D01*
X125545142Y-108920553D01*
X125552583Y-108932969D01*
X125558772Y-108946054D01*
X125563649Y-108959683D01*
X125567166Y-108973724D01*
X125569290Y-108988042D01*
X125570000Y-109002500D01*
X125570000Y-109297500D01*
X125569290Y-109311958D01*
X125567166Y-109326276D01*
X125563649Y-109340317D01*
X125558772Y-109353946D01*
X125552583Y-109367031D01*
X125545142Y-109379447D01*
X125536519Y-109391073D01*
X125526798Y-109401798D01*
X125516073Y-109411519D01*
X125504447Y-109420142D01*
X125492031Y-109427583D01*
X125478946Y-109433772D01*
X125465317Y-109438649D01*
X125451276Y-109442166D01*
X125436958Y-109444290D01*
X125422500Y-109445000D01*
X125077500Y-109445000D01*
X125063042Y-109444290D01*
X125048724Y-109442166D01*
X125034683Y-109438649D01*
X125021054Y-109433772D01*
X125007969Y-109427583D01*
X124995553Y-109420142D01*
X124983927Y-109411519D01*
X124973202Y-109401798D01*
X124963481Y-109391073D01*
X124954858Y-109379447D01*
X124947417Y-109367031D01*
X124941228Y-109353946D01*
X124936351Y-109340317D01*
X124932834Y-109326276D01*
X124930710Y-109311958D01*
X124930000Y-109297500D01*
X124930000Y-109002500D01*
X124930710Y-108988042D01*
X124932834Y-108973724D01*
X124936351Y-108959683D01*
X124941228Y-108946054D01*
X124947417Y-108932969D01*
X124954858Y-108920553D01*
X124963481Y-108908927D01*
X124973202Y-108898202D01*
X124983927Y-108888481D01*
X124995553Y-108879858D01*
X125007969Y-108872417D01*
X125021054Y-108866228D01*
X125034683Y-108861351D01*
X125048724Y-108857834D01*
X125063042Y-108855710D01*
X125077500Y-108855000D01*
X125422500Y-108855000D01*
X125436958Y-108855710D01*
G37*
G04 #@! TD.AperFunction*
G04 #@! TA.AperFunction,SMDPad,CuDef*
G36*
X125436958Y-109825710D02*
G01*
X125451276Y-109827834D01*
X125465317Y-109831351D01*
X125478946Y-109836228D01*
X125492031Y-109842417D01*
X125504447Y-109849858D01*
X125516073Y-109858481D01*
X125526798Y-109868202D01*
X125536519Y-109878927D01*
X125545142Y-109890553D01*
X125552583Y-109902969D01*
X125558772Y-109916054D01*
X125563649Y-109929683D01*
X125567166Y-109943724D01*
X125569290Y-109958042D01*
X125570000Y-109972500D01*
X125570000Y-110267500D01*
X125569290Y-110281958D01*
X125567166Y-110296276D01*
X125563649Y-110310317D01*
X125558772Y-110323946D01*
X125552583Y-110337031D01*
X125545142Y-110349447D01*
X125536519Y-110361073D01*
X125526798Y-110371798D01*
X125516073Y-110381519D01*
X125504447Y-110390142D01*
X125492031Y-110397583D01*
X125478946Y-110403772D01*
X125465317Y-110408649D01*
X125451276Y-110412166D01*
X125436958Y-110414290D01*
X125422500Y-110415000D01*
X125077500Y-110415000D01*
X125063042Y-110414290D01*
X125048724Y-110412166D01*
X125034683Y-110408649D01*
X125021054Y-110403772D01*
X125007969Y-110397583D01*
X124995553Y-110390142D01*
X124983927Y-110381519D01*
X124973202Y-110371798D01*
X124963481Y-110361073D01*
X124954858Y-110349447D01*
X124947417Y-110337031D01*
X124941228Y-110323946D01*
X124936351Y-110310317D01*
X124932834Y-110296276D01*
X124930710Y-110281958D01*
X124930000Y-110267500D01*
X124930000Y-109972500D01*
X124930710Y-109958042D01*
X124932834Y-109943724D01*
X124936351Y-109929683D01*
X124941228Y-109916054D01*
X124947417Y-109902969D01*
X124954858Y-109890553D01*
X124963481Y-109878927D01*
X124973202Y-109868202D01*
X124983927Y-109858481D01*
X124995553Y-109849858D01*
X125007969Y-109842417D01*
X125021054Y-109836228D01*
X125034683Y-109831351D01*
X125048724Y-109827834D01*
X125063042Y-109825710D01*
X125077500Y-109825000D01*
X125422500Y-109825000D01*
X125436958Y-109825710D01*
G37*
G04 #@! TD.AperFunction*
G04 #@! TA.AperFunction,SMDPad,CuDef*
G36*
X131036958Y-110205710D02*
G01*
X131051276Y-110207834D01*
X131065317Y-110211351D01*
X131078946Y-110216228D01*
X131092031Y-110222417D01*
X131104447Y-110229858D01*
X131116073Y-110238481D01*
X131126798Y-110248202D01*
X131136519Y-110258927D01*
X131145142Y-110270553D01*
X131152583Y-110282969D01*
X131158772Y-110296054D01*
X131163649Y-110309683D01*
X131167166Y-110323724D01*
X131169290Y-110338042D01*
X131170000Y-110352500D01*
X131170000Y-110647500D01*
X131169290Y-110661958D01*
X131167166Y-110676276D01*
X131163649Y-110690317D01*
X131158772Y-110703946D01*
X131152583Y-110717031D01*
X131145142Y-110729447D01*
X131136519Y-110741073D01*
X131126798Y-110751798D01*
X131116073Y-110761519D01*
X131104447Y-110770142D01*
X131092031Y-110777583D01*
X131078946Y-110783772D01*
X131065317Y-110788649D01*
X131051276Y-110792166D01*
X131036958Y-110794290D01*
X131022500Y-110795000D01*
X130677500Y-110795000D01*
X130663042Y-110794290D01*
X130648724Y-110792166D01*
X130634683Y-110788649D01*
X130621054Y-110783772D01*
X130607969Y-110777583D01*
X130595553Y-110770142D01*
X130583927Y-110761519D01*
X130573202Y-110751798D01*
X130563481Y-110741073D01*
X130554858Y-110729447D01*
X130547417Y-110717031D01*
X130541228Y-110703946D01*
X130536351Y-110690317D01*
X130532834Y-110676276D01*
X130530710Y-110661958D01*
X130530000Y-110647500D01*
X130530000Y-110352500D01*
X130530710Y-110338042D01*
X130532834Y-110323724D01*
X130536351Y-110309683D01*
X130541228Y-110296054D01*
X130547417Y-110282969D01*
X130554858Y-110270553D01*
X130563481Y-110258927D01*
X130573202Y-110248202D01*
X130583927Y-110238481D01*
X130595553Y-110229858D01*
X130607969Y-110222417D01*
X130621054Y-110216228D01*
X130634683Y-110211351D01*
X130648724Y-110207834D01*
X130663042Y-110205710D01*
X130677500Y-110205000D01*
X131022500Y-110205000D01*
X131036958Y-110205710D01*
G37*
G04 #@! TD.AperFunction*
G04 #@! TA.AperFunction,SMDPad,CuDef*
G36*
X131036958Y-109235710D02*
G01*
X131051276Y-109237834D01*
X131065317Y-109241351D01*
X131078946Y-109246228D01*
X131092031Y-109252417D01*
X131104447Y-109259858D01*
X131116073Y-109268481D01*
X131126798Y-109278202D01*
X131136519Y-109288927D01*
X131145142Y-109300553D01*
X131152583Y-109312969D01*
X131158772Y-109326054D01*
X131163649Y-109339683D01*
X131167166Y-109353724D01*
X131169290Y-109368042D01*
X131170000Y-109382500D01*
X131170000Y-109677500D01*
X131169290Y-109691958D01*
X131167166Y-109706276D01*
X131163649Y-109720317D01*
X131158772Y-109733946D01*
X131152583Y-109747031D01*
X131145142Y-109759447D01*
X131136519Y-109771073D01*
X131126798Y-109781798D01*
X131116073Y-109791519D01*
X131104447Y-109800142D01*
X131092031Y-109807583D01*
X131078946Y-109813772D01*
X131065317Y-109818649D01*
X131051276Y-109822166D01*
X131036958Y-109824290D01*
X131022500Y-109825000D01*
X130677500Y-109825000D01*
X130663042Y-109824290D01*
X130648724Y-109822166D01*
X130634683Y-109818649D01*
X130621054Y-109813772D01*
X130607969Y-109807583D01*
X130595553Y-109800142D01*
X130583927Y-109791519D01*
X130573202Y-109781798D01*
X130563481Y-109771073D01*
X130554858Y-109759447D01*
X130547417Y-109747031D01*
X130541228Y-109733946D01*
X130536351Y-109720317D01*
X130532834Y-109706276D01*
X130530710Y-109691958D01*
X130530000Y-109677500D01*
X130530000Y-109382500D01*
X130530710Y-109368042D01*
X130532834Y-109353724D01*
X130536351Y-109339683D01*
X130541228Y-109326054D01*
X130547417Y-109312969D01*
X130554858Y-109300553D01*
X130563481Y-109288927D01*
X130573202Y-109278202D01*
X130583927Y-109268481D01*
X130595553Y-109259858D01*
X130607969Y-109252417D01*
X130621054Y-109246228D01*
X130634683Y-109241351D01*
X130648724Y-109237834D01*
X130663042Y-109235710D01*
X130677500Y-109235000D01*
X131022500Y-109235000D01*
X131036958Y-109235710D01*
G37*
G04 #@! TD.AperFunction*
D14*
X106500000Y-111550000D03*
X106850000Y-111550000D03*
X106500000Y-111200000D03*
X106850000Y-111200000D03*
X106500000Y-108200000D03*
X106850000Y-108200000D03*
X106500000Y-107850000D03*
X106850000Y-107850000D03*
D10*
X115290000Y-103650000D03*
X116560000Y-103650000D03*
X117830000Y-103650000D03*
D11*
X119100000Y-103650000D03*
D15*
X138100000Y-113100000D03*
X135560000Y-113100000D03*
X138100000Y-110560000D03*
X135560000Y-110560000D03*
X138100000Y-108020000D03*
D16*
X135560000Y-108020000D03*
D17*
X116775000Y-106150000D03*
X116775000Y-106800000D03*
X116775000Y-107450000D03*
X116775000Y-108100000D03*
X116775000Y-108750000D03*
X116775000Y-109400000D03*
X116775000Y-110050000D03*
X122675000Y-110050000D03*
X122675000Y-109400000D03*
X122675000Y-108750000D03*
X122675000Y-108100000D03*
X122675000Y-107450000D03*
X122675000Y-106800000D03*
X122675000Y-106150000D03*
D18*
X107150000Y-104850000D03*
X109150000Y-105800000D03*
X109150000Y-103900000D03*
D19*
X131850000Y-106100000D03*
X130900000Y-108100000D03*
X132800000Y-108100000D03*
D20*
X101150000Y-110400000D03*
D21*
X103300000Y-113200000D03*
X103300000Y-107600000D03*
D15*
X138100000Y-103900000D03*
D16*
X135560000Y-103900000D03*
D15*
X101900000Y-103900000D03*
D16*
X104440000Y-103900000D03*
D15*
X124280000Y-113100000D03*
X126820000Y-113100000D03*
X129360000Y-113100000D03*
D16*
X131900000Y-113100000D03*
D15*
X120600000Y-113100000D03*
X118060000Y-113100000D03*
X115520000Y-113100000D03*
D16*
X112980000Y-113100000D03*
G04 #@! TA.AperFunction,SMDPad,CuDef*
D13*
G36*
X111065191Y-104626053D02*
G01*
X111086426Y-104629203D01*
X111107250Y-104634419D01*
X111127462Y-104641651D01*
X111146868Y-104650830D01*
X111165281Y-104661866D01*
X111182524Y-104674654D01*
X111198430Y-104689070D01*
X111212846Y-104704976D01*
X111225634Y-104722219D01*
X111236670Y-104740632D01*
X111245849Y-104760038D01*
X111253081Y-104780250D01*
X111258297Y-104801074D01*
X111261447Y-104822309D01*
X111262500Y-104843750D01*
X111262500Y-105356250D01*
X111261447Y-105377691D01*
X111258297Y-105398926D01*
X111253081Y-105419750D01*
X111245849Y-105439962D01*
X111236670Y-105459368D01*
X111225634Y-105477781D01*
X111212846Y-105495024D01*
X111198430Y-105510930D01*
X111182524Y-105525346D01*
X111165281Y-105538134D01*
X111146868Y-105549170D01*
X111127462Y-105558349D01*
X111107250Y-105565581D01*
X111086426Y-105570797D01*
X111065191Y-105573947D01*
X111043750Y-105575000D01*
X110606250Y-105575000D01*
X110584809Y-105573947D01*
X110563574Y-105570797D01*
X110542750Y-105565581D01*
X110522538Y-105558349D01*
X110503132Y-105549170D01*
X110484719Y-105538134D01*
X110467476Y-105525346D01*
X110451570Y-105510930D01*
X110437154Y-105495024D01*
X110424366Y-105477781D01*
X110413330Y-105459368D01*
X110404151Y-105439962D01*
X110396919Y-105419750D01*
X110391703Y-105398926D01*
X110388553Y-105377691D01*
X110387500Y-105356250D01*
X110387500Y-104843750D01*
X110388553Y-104822309D01*
X110391703Y-104801074D01*
X110396919Y-104780250D01*
X110404151Y-104760038D01*
X110413330Y-104740632D01*
X110424366Y-104722219D01*
X110437154Y-104704976D01*
X110451570Y-104689070D01*
X110467476Y-104674654D01*
X110484719Y-104661866D01*
X110503132Y-104650830D01*
X110522538Y-104641651D01*
X110542750Y-104634419D01*
X110563574Y-104629203D01*
X110584809Y-104626053D01*
X110606250Y-104625000D01*
X111043750Y-104625000D01*
X111065191Y-104626053D01*
G37*
G04 #@! TD.AperFunction*
G04 #@! TA.AperFunction,SMDPad,CuDef*
G36*
X112640191Y-104626053D02*
G01*
X112661426Y-104629203D01*
X112682250Y-104634419D01*
X112702462Y-104641651D01*
X112721868Y-104650830D01*
X112740281Y-104661866D01*
X112757524Y-104674654D01*
X112773430Y-104689070D01*
X112787846Y-104704976D01*
X112800634Y-104722219D01*
X112811670Y-104740632D01*
X112820849Y-104760038D01*
X112828081Y-104780250D01*
X112833297Y-104801074D01*
X112836447Y-104822309D01*
X112837500Y-104843750D01*
X112837500Y-105356250D01*
X112836447Y-105377691D01*
X112833297Y-105398926D01*
X112828081Y-105419750D01*
X112820849Y-105439962D01*
X112811670Y-105459368D01*
X112800634Y-105477781D01*
X112787846Y-105495024D01*
X112773430Y-105510930D01*
X112757524Y-105525346D01*
X112740281Y-105538134D01*
X112721868Y-105549170D01*
X112702462Y-105558349D01*
X112682250Y-105565581D01*
X112661426Y-105570797D01*
X112640191Y-105573947D01*
X112618750Y-105575000D01*
X112181250Y-105575000D01*
X112159809Y-105573947D01*
X112138574Y-105570797D01*
X112117750Y-105565581D01*
X112097538Y-105558349D01*
X112078132Y-105549170D01*
X112059719Y-105538134D01*
X112042476Y-105525346D01*
X112026570Y-105510930D01*
X112012154Y-105495024D01*
X111999366Y-105477781D01*
X111988330Y-105459368D01*
X111979151Y-105439962D01*
X111971919Y-105419750D01*
X111966703Y-105398926D01*
X111963553Y-105377691D01*
X111962500Y-105356250D01*
X111962500Y-104843750D01*
X111963553Y-104822309D01*
X111966703Y-104801074D01*
X111971919Y-104780250D01*
X111979151Y-104760038D01*
X111988330Y-104740632D01*
X111999366Y-104722219D01*
X112012154Y-104704976D01*
X112026570Y-104689070D01*
X112042476Y-104674654D01*
X112059719Y-104661866D01*
X112078132Y-104650830D01*
X112097538Y-104641651D01*
X112117750Y-104634419D01*
X112138574Y-104629203D01*
X112159809Y-104626053D01*
X112181250Y-104625000D01*
X112618750Y-104625000D01*
X112640191Y-104626053D01*
G37*
G04 #@! TD.AperFunction*
G04 #@! TA.AperFunction,SMDPad,CuDef*
G36*
X109999504Y-109776204D02*
G01*
X110023773Y-109779804D01*
X110047571Y-109785765D01*
X110070671Y-109794030D01*
X110092849Y-109804520D01*
X110113893Y-109817133D01*
X110133598Y-109831747D01*
X110151777Y-109848223D01*
X110168253Y-109866402D01*
X110182867Y-109886107D01*
X110195480Y-109907151D01*
X110205970Y-109929329D01*
X110214235Y-109952429D01*
X110220196Y-109976227D01*
X110223796Y-110000496D01*
X110225000Y-110025000D01*
X110225000Y-110775000D01*
X110223796Y-110799504D01*
X110220196Y-110823773D01*
X110214235Y-110847571D01*
X110205970Y-110870671D01*
X110195480Y-110892849D01*
X110182867Y-110913893D01*
X110168253Y-110933598D01*
X110151777Y-110951777D01*
X110133598Y-110968253D01*
X110113893Y-110982867D01*
X110092849Y-110995480D01*
X110070671Y-111005970D01*
X110047571Y-111014235D01*
X110023773Y-111020196D01*
X109999504Y-111023796D01*
X109975000Y-111025000D01*
X108725000Y-111025000D01*
X108700496Y-111023796D01*
X108676227Y-111020196D01*
X108652429Y-111014235D01*
X108629329Y-111005970D01*
X108607151Y-110995480D01*
X108586107Y-110982867D01*
X108566402Y-110968253D01*
X108548223Y-110951777D01*
X108531747Y-110933598D01*
X108517133Y-110913893D01*
X108504520Y-110892849D01*
X108494030Y-110870671D01*
X108485765Y-110847571D01*
X108479804Y-110823773D01*
X108476204Y-110799504D01*
X108475000Y-110775000D01*
X108475000Y-110025000D01*
X108476204Y-110000496D01*
X108479804Y-109976227D01*
X108485765Y-109952429D01*
X108494030Y-109929329D01*
X108504520Y-109907151D01*
X108517133Y-109886107D01*
X108531747Y-109866402D01*
X108548223Y-109848223D01*
X108566402Y-109831747D01*
X108586107Y-109817133D01*
X108607151Y-109804520D01*
X108629329Y-109794030D01*
X108652429Y-109785765D01*
X108676227Y-109779804D01*
X108700496Y-109776204D01*
X108725000Y-109775000D01*
X109975000Y-109775000D01*
X109999504Y-109776204D01*
G37*
G04 #@! TD.AperFunction*
G04 #@! TA.AperFunction,SMDPad,CuDef*
G36*
X109999504Y-106976204D02*
G01*
X110023773Y-106979804D01*
X110047571Y-106985765D01*
X110070671Y-106994030D01*
X110092849Y-107004520D01*
X110113893Y-107017133D01*
X110133598Y-107031747D01*
X110151777Y-107048223D01*
X110168253Y-107066402D01*
X110182867Y-107086107D01*
X110195480Y-107107151D01*
X110205970Y-107129329D01*
X110214235Y-107152429D01*
X110220196Y-107176227D01*
X110223796Y-107200496D01*
X110225000Y-107225000D01*
X110225000Y-107975000D01*
X110223796Y-107999504D01*
X110220196Y-108023773D01*
X110214235Y-108047571D01*
X110205970Y-108070671D01*
X110195480Y-108092849D01*
X110182867Y-108113893D01*
X110168253Y-108133598D01*
X110151777Y-108151777D01*
X110133598Y-108168253D01*
X110113893Y-108182867D01*
X110092849Y-108195480D01*
X110070671Y-108205970D01*
X110047571Y-108214235D01*
X110023773Y-108220196D01*
X109999504Y-108223796D01*
X109975000Y-108225000D01*
X108725000Y-108225000D01*
X108700496Y-108223796D01*
X108676227Y-108220196D01*
X108652429Y-108214235D01*
X108629329Y-108205970D01*
X108607151Y-108195480D01*
X108586107Y-108182867D01*
X108566402Y-108168253D01*
X108548223Y-108151777D01*
X108531747Y-108133598D01*
X108517133Y-108113893D01*
X108504520Y-108092849D01*
X108494030Y-108070671D01*
X108485765Y-108047571D01*
X108479804Y-108023773D01*
X108476204Y-107999504D01*
X108475000Y-107975000D01*
X108475000Y-107225000D01*
X108476204Y-107200496D01*
X108479804Y-107176227D01*
X108485765Y-107152429D01*
X108494030Y-107129329D01*
X108504520Y-107107151D01*
X108517133Y-107086107D01*
X108531747Y-107066402D01*
X108548223Y-107048223D01*
X108566402Y-107031747D01*
X108586107Y-107017133D01*
X108607151Y-107004520D01*
X108629329Y-106994030D01*
X108652429Y-106985765D01*
X108676227Y-106979804D01*
X108700496Y-106976204D01*
X108725000Y-106975000D01*
X109975000Y-106975000D01*
X109999504Y-106976204D01*
G37*
G04 #@! TD.AperFunction*
D22*
X109100000Y-110600000D03*
X117550000Y-110800000D03*
X101250000Y-112700000D03*
X112400000Y-106250001D03*
X120787070Y-109182618D03*
X129050000Y-108600000D03*
D23*
X106800000Y-110300000D03*
D22*
X120350000Y-105080010D03*
X124340000Y-109500000D03*
X111200000Y-107300008D03*
X125650000Y-110850000D03*
X126600000Y-108600000D03*
X129408342Y-105137798D03*
D23*
X104750000Y-114425000D03*
X104850000Y-108600000D03*
D22*
X119550000Y-107350000D03*
X128739192Y-105343358D03*
X128043041Y-105269942D03*
X133079442Y-107104442D03*
X128600000Y-111850000D03*
X130700000Y-105400000D03*
X125350000Y-106849978D03*
X121317081Y-108400000D03*
X122200000Y-111250000D03*
X130100006Y-105030010D03*
D23*
X104532106Y-112465990D03*
X104499998Y-110100000D03*
D22*
X112350000Y-110925000D03*
X116131375Y-105304549D03*
X118700000Y-107500000D03*
X115487500Y-107100000D03*
X104600000Y-113425000D03*
X110587510Y-108650000D03*
X108175000Y-114475000D03*
X112150000Y-109735000D03*
X127112304Y-106261839D03*
X111203013Y-106213179D03*
X127835053Y-111862886D03*
X125450000Y-111650000D03*
X132080543Y-110932748D03*
X131471041Y-111277022D03*
X132450000Y-111550000D03*
X130374774Y-111725226D03*
X129260797Y-111618992D03*
X125850226Y-106300226D03*
X130600000Y-114024976D03*
X126100000Y-105180010D03*
X127444716Y-105633292D03*
D24*
X104440000Y-103900000D02*
X104440000Y-104377598D01*
D25*
X104440000Y-103900000D02*
X109150000Y-103900000D01*
X104440000Y-103900000D02*
X104440000Y-104190000D01*
D26*
X122675000Y-110050000D02*
X123560002Y-110050000D01*
X123560002Y-106150000D02*
X122675000Y-106150000D01*
X123725001Y-109885001D02*
X123560002Y-110050000D01*
X123560002Y-106150000D02*
X123725001Y-106314999D01*
X123650000Y-108100000D02*
X123750000Y-108100000D01*
X122675000Y-108100000D02*
X123650000Y-108100000D01*
X123725001Y-106314999D02*
X123750000Y-108100000D01*
X123750000Y-108100000D02*
X123725001Y-109885001D01*
X128900000Y-108600000D02*
X129050000Y-108600000D01*
X127100000Y-110400000D02*
X128900000Y-108600000D01*
X126850000Y-110400000D02*
X127100000Y-110400000D01*
X126570000Y-110120000D02*
X125250000Y-110120000D01*
X126850000Y-110400000D02*
X126570000Y-110120000D01*
X130400000Y-108600000D02*
X130900000Y-108100000D01*
X129050000Y-108600000D02*
X130400000Y-108600000D01*
X130900000Y-109480000D02*
X130850000Y-109530000D01*
X130900000Y-108100000D02*
X130900000Y-109480000D01*
X131170000Y-109530000D02*
X130850000Y-109530000D01*
X131590000Y-109530000D02*
X131170000Y-109530000D01*
X132480000Y-110420000D02*
X131590000Y-109530000D01*
X132800000Y-110420000D02*
X132480000Y-110420000D01*
X122745000Y-110120000D02*
X122675000Y-110050000D01*
X125250000Y-110120000D02*
X122745000Y-110120000D01*
X121576001Y-107824999D02*
X121023999Y-107824999D01*
X122675000Y-108100000D02*
X121851002Y-108100000D01*
X121851002Y-108100000D02*
X121576001Y-107824999D01*
X121023999Y-107824999D02*
X120537071Y-108311927D01*
X120537071Y-108932619D02*
X120787070Y-109182618D01*
X120537071Y-108311927D02*
X120537071Y-108932619D01*
D25*
X104440000Y-103900000D02*
X104440000Y-104640000D01*
X106172806Y-106372806D02*
X106700000Y-106900000D01*
X104440000Y-104640000D02*
X106172806Y-106372806D01*
D24*
X106880001Y-107080001D02*
X106880001Y-107819999D01*
X106700000Y-106900000D02*
X106880001Y-107080001D01*
X106800000Y-110300000D02*
X106800000Y-110400000D01*
X106880001Y-110480001D02*
X106880001Y-111169999D01*
X106800000Y-110400000D02*
X106880001Y-110480001D01*
D27*
X109150000Y-107400000D02*
X109350000Y-107600000D01*
X109150000Y-105800000D02*
X109150000Y-107400000D01*
D26*
X110000000Y-105000000D02*
X109200000Y-105800000D01*
X110000000Y-104450000D02*
X110000000Y-105000000D01*
X109200000Y-105800000D02*
X109150000Y-105800000D01*
X111505000Y-103550000D02*
X110900000Y-103550000D01*
X110900000Y-103550000D02*
X110000000Y-104450000D01*
D28*
X110900008Y-107600000D02*
X111200000Y-107300008D01*
X109350000Y-107600000D02*
X110900008Y-107600000D01*
D26*
X115800000Y-106150000D02*
X116775000Y-106150000D01*
X112880514Y-107300008D02*
X114030522Y-106150000D01*
X114030522Y-106150000D02*
X115800000Y-106150000D01*
X111200000Y-107300008D02*
X112880514Y-107300008D01*
D28*
X130850000Y-110500000D02*
X129150000Y-110500000D01*
X129150000Y-110500000D02*
X129050000Y-110400000D01*
D24*
X128240000Y-111060000D02*
X127872799Y-111060000D01*
X129050000Y-110400000D02*
X128900000Y-110400000D01*
X127487200Y-111445599D02*
X126245599Y-111445599D01*
X126245599Y-111445599D02*
X125899999Y-111099999D01*
X125899999Y-111099999D02*
X125650000Y-110850000D01*
X128900000Y-110400000D02*
X128240000Y-111060000D01*
X127872799Y-111060000D02*
X127487200Y-111445599D01*
X126350001Y-108849999D02*
X126600000Y-108600000D01*
X125250000Y-109150000D02*
X126050000Y-109150000D01*
X126050000Y-109150000D02*
X126350001Y-108849999D01*
D27*
X101900000Y-105102081D02*
X101900000Y-103900000D01*
X102547919Y-105750000D02*
X101900000Y-105102081D01*
X105600000Y-107100000D02*
X104250000Y-105750000D01*
X104250000Y-105750000D02*
X102547919Y-105750000D01*
X105600000Y-107100000D02*
X105600000Y-107900000D01*
D24*
X105600000Y-107900000D02*
X105700000Y-107900000D01*
X105750000Y-107850000D02*
X106469999Y-107850000D01*
X105700000Y-107900000D02*
X105750000Y-107850000D01*
X105700000Y-107900000D02*
X106000000Y-108200000D01*
X106000000Y-108200000D02*
X106469999Y-108200000D01*
D28*
X112400000Y-103625000D02*
X112475000Y-103550000D01*
X112400000Y-105100000D02*
X112400000Y-103625000D01*
X117437106Y-102550000D02*
X117830000Y-102942894D01*
X113770000Y-102550000D02*
X117437106Y-102550000D01*
X112475000Y-103550000D02*
X112770000Y-103550000D01*
X117830000Y-102942894D02*
X117830000Y-103650000D01*
X112770000Y-103550000D02*
X113770000Y-102550000D01*
D27*
X104850000Y-108600000D02*
X105650000Y-109400000D01*
X105650000Y-109400000D02*
X105650000Y-109800000D01*
D24*
X105650000Y-109800000D02*
X105900000Y-109800000D01*
X105900000Y-109800000D02*
X105950000Y-109850000D01*
X105650000Y-109800000D02*
X105650000Y-109900000D01*
D26*
X104575000Y-114600000D02*
X102800000Y-114600000D01*
X104750000Y-114425000D02*
X104575000Y-114600000D01*
X102200000Y-114000000D02*
X102200000Y-111250000D01*
X104550001Y-108899999D02*
X104850000Y-108600000D01*
X102800000Y-114600000D02*
X102200000Y-114000000D01*
X102200000Y-111250000D02*
X104550001Y-108899999D01*
D27*
X105650000Y-109800000D02*
X105650000Y-110650000D01*
D24*
X105650000Y-110650000D02*
X105850000Y-110650000D01*
X105850000Y-110650000D02*
X105900000Y-110700000D01*
D27*
X105650000Y-110650000D02*
X105650000Y-111250000D01*
D24*
X105650000Y-111250000D02*
X105750000Y-111250000D01*
X105800000Y-111200000D02*
X106469999Y-111200000D01*
X105750000Y-111250000D02*
X105800000Y-111200000D01*
X106050000Y-111550000D02*
X106469999Y-111550000D01*
X105750000Y-111250000D02*
X106050000Y-111550000D01*
D26*
X119500000Y-107400000D02*
X119550000Y-107350000D01*
X119500000Y-108300000D02*
X119500000Y-107400000D01*
X116775000Y-110050000D02*
X117750000Y-110050000D01*
X117750000Y-110050000D02*
X119500000Y-108300000D01*
D29*
X123613590Y-105500000D02*
X124163332Y-106049742D01*
X119550000Y-107350000D02*
X121400000Y-105500000D01*
X121400000Y-105500000D02*
X123613590Y-105500000D01*
X127215701Y-107799999D02*
X128739192Y-106276508D01*
X124163333Y-107263333D02*
X124699999Y-107799999D01*
X124163332Y-106049742D02*
X124163333Y-107263333D01*
X124699999Y-107799999D02*
X127215701Y-107799999D01*
X128739192Y-106276508D02*
X128739192Y-105696911D01*
X128739192Y-105696911D02*
X128739192Y-105343358D01*
D26*
X116775000Y-107450000D02*
X116874999Y-107350001D01*
D29*
X128043041Y-105623495D02*
X128043041Y-105269942D01*
X124563343Y-107063343D02*
X124899988Y-107399988D01*
X124563343Y-105781021D02*
X124563343Y-107063343D01*
X128043041Y-106406959D02*
X128043041Y-105623495D01*
X127050012Y-107399988D02*
X128043041Y-106406959D01*
X124899988Y-107399988D02*
X127050012Y-107399988D01*
D24*
X117850000Y-107450000D02*
X118489998Y-106810002D01*
X116775000Y-107450000D02*
X117850000Y-107450000D01*
X115574548Y-104774548D02*
X115290000Y-104490000D01*
X117074548Y-104774548D02*
X115574548Y-104774548D01*
X118489998Y-106810002D02*
X118489998Y-106189998D01*
X115290000Y-104490000D02*
X115290000Y-103650000D01*
X118489998Y-106189998D02*
X117074548Y-104774548D01*
X123902312Y-105119990D02*
X124563343Y-105781021D01*
X119404410Y-106810002D02*
X121094422Y-105119990D01*
X118489998Y-106810002D02*
X119404410Y-106810002D01*
X121094422Y-105119990D02*
X123902312Y-105119990D01*
X130354407Y-104465022D02*
X127830106Y-104465022D01*
X127830106Y-104465022D02*
X126550000Y-105745128D01*
X126550000Y-105745128D02*
X126550000Y-106350000D01*
X130700000Y-105400000D02*
X130700000Y-104810615D01*
X130700000Y-104810615D02*
X130354407Y-104465022D01*
X125703553Y-106849978D02*
X125350000Y-106849978D01*
X126550000Y-106350000D02*
X126050022Y-106849978D01*
X126050022Y-106849978D02*
X125703553Y-106849978D01*
X121317081Y-110367081D02*
X121317081Y-108400000D01*
X122200000Y-111250000D02*
X121317081Y-110367081D01*
D26*
X104532106Y-112465990D02*
X104532106Y-110132108D01*
X104532106Y-110132108D02*
X104499998Y-110100000D01*
X113875000Y-109400000D02*
X112350000Y-110925000D01*
X116775000Y-109400000D02*
X113875000Y-109400000D01*
X116775000Y-108100000D02*
X118100000Y-108100000D01*
X118100000Y-108100000D02*
X118700000Y-107500000D01*
X115487500Y-108437500D02*
X115487500Y-107100000D01*
X115800000Y-108750000D02*
X115487500Y-108437500D01*
X116775000Y-108750000D02*
X115800000Y-108750000D01*
D28*
X113822998Y-107100000D02*
X115050000Y-107100000D01*
X111499999Y-109422999D02*
X113822998Y-107100000D01*
X115050000Y-107100000D02*
X115487500Y-107100000D01*
X111499999Y-109422999D02*
X111360509Y-109422999D01*
X111360509Y-109422999D02*
X110587510Y-108650000D01*
D26*
X115487500Y-107100000D02*
X115787500Y-106800000D01*
X115787500Y-106800000D02*
X116775000Y-106800000D01*
D28*
X104600000Y-113425000D02*
X108244256Y-113425000D01*
X111499999Y-110169257D02*
X111499999Y-109422999D01*
X108244256Y-113425000D02*
X111499999Y-110169257D01*
D26*
X108175000Y-114250000D02*
X112150000Y-110275000D01*
X108175000Y-114475000D02*
X108175000Y-114250000D01*
X112150000Y-110275000D02*
X112150000Y-109735000D01*
X110825000Y-105100000D02*
X110825000Y-105835166D01*
X110953014Y-105963180D02*
X111203013Y-106213179D01*
X110825000Y-105835166D02*
X110953014Y-105963180D01*
D24*
X125450000Y-113950000D02*
X125450000Y-112003553D01*
X135560000Y-110560000D02*
X134100000Y-112020000D01*
X125450000Y-112003553D02*
X125450000Y-111650000D01*
X134100000Y-112020000D02*
X134100000Y-113800000D01*
X134100000Y-113800000D02*
X133255010Y-114644990D01*
X133255010Y-114644990D02*
X126144990Y-114644990D01*
X126144990Y-114644990D02*
X125450000Y-113950000D01*
X124250000Y-104700000D02*
X125600227Y-106050227D01*
X125600227Y-106050227D02*
X125850226Y-106300226D01*
X122440000Y-103650000D02*
X123490000Y-104700000D01*
X123490000Y-104700000D02*
X124250000Y-104700000D01*
D27*
X133360000Y-106100000D02*
X135560000Y-103900000D01*
X131850000Y-106100000D02*
X133360000Y-106100000D01*
D28*
X132800000Y-109450000D02*
X132800000Y-108100000D01*
D24*
X133120000Y-109450000D02*
X133739989Y-110069989D01*
X133115893Y-114274975D02*
X130849999Y-114274975D01*
X132800000Y-109450000D02*
X133120000Y-109450000D01*
X133739989Y-110069989D02*
X133739989Y-113650879D01*
X130849999Y-114274975D02*
X130600000Y-114024976D01*
X133739989Y-113650879D02*
X133115893Y-114274975D01*
X107700000Y-110050000D02*
X107519999Y-110230001D01*
D27*
X107700000Y-106600000D02*
X107700000Y-107400000D01*
X107150000Y-106050000D02*
X107700000Y-106600000D01*
X107150000Y-104850000D02*
X107150000Y-106050000D01*
X107700000Y-110050000D02*
X107700000Y-110200000D01*
X107700000Y-110200000D02*
X107700000Y-110700000D01*
X107700000Y-108900000D02*
X107700000Y-110050000D01*
X107700000Y-107400000D02*
X107700000Y-108900000D01*
D24*
X107330001Y-108230001D02*
X106880001Y-108230001D01*
X107700000Y-108900000D02*
X107700000Y-108600000D01*
X107700000Y-108600000D02*
X107330001Y-108230001D01*
D27*
X107700000Y-110700000D02*
X107700000Y-111200000D01*
D24*
X107319999Y-111580001D02*
X106880001Y-111580001D01*
X107700000Y-111200000D02*
X107319999Y-111580001D01*
M02*
