G04 #@! TF.GenerationSoftware,KiCad,Pcbnew,(6.0.4)*
G04 #@! TF.CreationDate,2022-06-20T11:49:59+10:00*
G04 #@! TF.ProjectId,microBoSL,6d696372-6f42-46f5-934c-2e6b69636164,0.3.0R*
G04 #@! TF.SameCoordinates,Original*
G04 #@! TF.FileFunction,Soldermask,Top*
G04 #@! TF.FilePolarity,Negative*
%FSLAX46Y46*%
G04 Gerber Fmt 4.6, Leading zero omitted, Abs format (unit mm)*
G04 Created by KiCad (PCBNEW (6.0.4)) date 2022-06-20 11:49:59*
%MOMM*%
%LPD*%
G01*
G04 APERTURE LIST*
G04 Aperture macros list*
%AMRoundRect*
0 Rectangle with rounded corners*
0 $1 Rounding radius*
0 $2 $3 $4 $5 $6 $7 $8 $9 X,Y pos of 4 corners*
0 Add a 4 corners polygon primitive as box body*
4,1,4,$2,$3,$4,$5,$6,$7,$8,$9,$2,$3,0*
0 Add four circle primitives for the rounded corners*
1,1,$1+$1,$2,$3*
1,1,$1+$1,$4,$5*
1,1,$1+$1,$6,$7*
1,1,$1+$1,$8,$9*
0 Add four rect primitives between the rounded corners*
20,1,$1+$1,$2,$3,$4,$5,0*
20,1,$1+$1,$4,$5,$6,$7,0*
20,1,$1+$1,$6,$7,$8,$9,0*
20,1,$1+$1,$8,$9,$2,$3,0*%
%AMFreePoly0*
4,1,30,0.350650,0.309776,0.394844,0.291470,0.459727,0.248115,0.523115,0.184727,0.566470,0.119844,0.584776,0.075650,0.600000,-0.000888,0.600000,-0.062500,0.584776,-0.139038,0.566470,-0.183232,0.514963,-0.255823,0.458232,-0.291470,0.414038,-0.309776,0.337500,-0.325000,-0.337500,-0.325000,-0.414038,-0.309776,-0.458232,-0.291470,-0.530823,-0.239963,-0.566470,-0.183232,-0.584776,-0.139038,
-0.600000,-0.062500,-0.600000,0.062500,-0.584776,0.139038,-0.566470,0.183232,-0.514963,0.255823,-0.458232,0.291470,-0.414038,0.309776,-0.337500,0.325000,0.274112,0.325000,0.350650,0.309776,0.350650,0.309776,$1*%
%AMFreePoly1*
4,1,30,0.414038,0.309776,0.458232,0.291470,0.530823,0.239963,0.566470,0.183232,0.584776,0.139038,0.600000,0.062500,0.600000,0.000888,0.584776,-0.075650,0.566470,-0.119844,0.523115,-0.184727,0.459727,-0.248115,0.394844,-0.291470,0.350650,-0.309776,0.274112,-0.325000,-0.337500,-0.325000,-0.414038,-0.309776,-0.458232,-0.291470,-0.530823,-0.239963,-0.566470,-0.183232,-0.584776,-0.139038,
-0.600000,-0.062500,-0.600000,0.062500,-0.584776,0.139038,-0.566470,0.183232,-0.514963,0.255823,-0.458232,0.291470,-0.414038,0.309776,-0.337500,0.325000,0.337500,0.325000,0.414038,0.309776,0.414038,0.309776,$1*%
%AMFreePoly2*
4,1,30,0.139038,0.584776,0.183232,0.566470,0.255823,0.514963,0.291470,0.458232,0.309776,0.414038,0.325000,0.337500,0.325000,-0.337500,0.309776,-0.414038,0.291470,-0.458232,0.239963,-0.530823,0.183232,-0.566470,0.139038,-0.584776,0.062500,-0.600000,-0.062500,-0.600000,-0.139038,-0.584776,-0.183232,-0.566470,-0.255823,-0.514963,-0.291470,-0.458232,-0.309776,-0.414038,-0.325000,-0.337500,
-0.325000,0.274112,-0.309776,0.350650,-0.291470,0.394844,-0.248115,0.459727,-0.184727,0.523115,-0.119844,0.566470,-0.075650,0.584776,0.000888,0.600000,0.062500,0.600000,0.139038,0.584776,0.139038,0.584776,$1*%
%AMFreePoly3*
4,1,30,0.075650,0.584776,0.119844,0.566470,0.184727,0.523115,0.248115,0.459727,0.291470,0.394844,0.309776,0.350650,0.325000,0.274112,0.325000,-0.337500,0.309776,-0.414038,0.291470,-0.458232,0.239963,-0.530823,0.183232,-0.566470,0.139038,-0.584776,0.062500,-0.600000,-0.062500,-0.600000,-0.139038,-0.584776,-0.183232,-0.566470,-0.255823,-0.514963,-0.291470,-0.458232,-0.309776,-0.414038,
-0.325000,-0.337500,-0.325000,0.337500,-0.309776,0.414038,-0.291470,0.458232,-0.239963,0.530823,-0.183232,0.566470,-0.139038,0.584776,-0.062500,0.600000,-0.000888,0.600000,0.075650,0.584776,0.075650,0.584776,$1*%
%AMFreePoly4*
4,1,30,0.414038,0.309776,0.458232,0.291470,0.530823,0.239963,0.566470,0.183232,0.584776,0.139038,0.600000,0.062500,0.600000,-0.062500,0.584776,-0.139038,0.566470,-0.183232,0.514963,-0.255823,0.458232,-0.291470,0.414038,-0.309776,0.337500,-0.325000,-0.274112,-0.325000,-0.350650,-0.309776,-0.394844,-0.291470,-0.459727,-0.248115,-0.523115,-0.184727,-0.566470,-0.119844,-0.584776,-0.075650,
-0.600000,0.000888,-0.600000,0.062500,-0.584776,0.139038,-0.566470,0.183232,-0.514963,0.255823,-0.458232,0.291470,-0.414038,0.309776,-0.337500,0.325000,0.337500,0.325000,0.414038,0.309776,0.414038,0.309776,$1*%
%AMFreePoly5*
4,1,30,0.414038,0.309776,0.458232,0.291470,0.530823,0.239963,0.566470,0.183232,0.584776,0.139038,0.600000,0.062500,0.600000,-0.062500,0.584776,-0.139038,0.566470,-0.183232,0.514963,-0.255823,0.458232,-0.291470,0.414038,-0.309776,0.337500,-0.325000,-0.337500,-0.325000,-0.414038,-0.309776,-0.458232,-0.291470,-0.530823,-0.239963,-0.566470,-0.183232,-0.584776,-0.139038,-0.600000,-0.062500,
-0.600000,-0.000888,-0.584776,0.075650,-0.566470,0.119844,-0.523115,0.184727,-0.459727,0.248115,-0.394844,0.291470,-0.350650,0.309776,-0.274112,0.325000,0.337500,0.325000,0.414038,0.309776,0.414038,0.309776,$1*%
%AMFreePoly6*
4,1,30,0.139038,0.584776,0.183232,0.566470,0.255823,0.514963,0.291470,0.458232,0.309776,0.414038,0.325000,0.337500,0.325000,-0.274112,0.309776,-0.350650,0.291470,-0.394844,0.248115,-0.459727,0.184727,-0.523115,0.119844,-0.566470,0.075650,-0.584776,-0.000888,-0.600000,-0.062500,-0.600000,-0.139038,-0.584776,-0.183232,-0.566470,-0.255823,-0.514963,-0.291470,-0.458232,-0.309776,-0.414038,
-0.325000,-0.337500,-0.325000,0.337500,-0.309776,0.414038,-0.291470,0.458232,-0.239963,0.530823,-0.183232,0.566470,-0.139038,0.584776,-0.062500,0.600000,0.062500,0.600000,0.139038,0.584776,0.139038,0.584776,$1*%
%AMFreePoly7*
4,1,30,0.139038,0.584776,0.183232,0.566470,0.255823,0.514963,0.291470,0.458232,0.309776,0.414038,0.325000,0.337500,0.325000,-0.337500,0.309776,-0.414038,0.291470,-0.458232,0.239963,-0.530823,0.183232,-0.566470,0.139038,-0.584776,0.062500,-0.600000,0.000888,-0.600000,-0.075650,-0.584776,-0.119844,-0.566470,-0.184727,-0.523115,-0.248115,-0.459727,-0.291470,-0.394844,-0.309776,-0.350650,
-0.325000,-0.274112,-0.325000,0.337500,-0.309776,0.414038,-0.291470,0.458232,-0.239963,0.530823,-0.183232,0.566470,-0.139038,0.584776,-0.062500,0.600000,0.062500,0.600000,0.139038,0.584776,0.139038,0.584776,$1*%
G04 Aperture macros list end*
%ADD10RoundRect,0.347500X0.172500X-0.147500X0.172500X0.147500X-0.172500X0.147500X-0.172500X-0.147500X0*%
%ADD11RoundRect,0.347500X-0.172500X0.147500X-0.172500X-0.147500X0.172500X-0.147500X0.172500X0.147500X0*%
%ADD12RoundRect,0.418750X-0.256250X0.218750X-0.256250X-0.218750X0.256250X-0.218750X0.256250X0.218750X0*%
%ADD13RoundRect,0.418750X0.256250X-0.218750X0.256250X0.218750X-0.256250X0.218750X-0.256250X-0.218750X0*%
%ADD14RoundRect,0.200000X0.850000X-0.850000X0.850000X0.850000X-0.850000X0.850000X-0.850000X-0.850000X0*%
%ADD15O,2.100000X2.100000*%
%ADD16RoundRect,0.200000X-0.850000X0.850000X-0.850000X-0.850000X0.850000X-0.850000X0.850000X0.850000X0*%
%ADD17RoundRect,0.347500X0.147500X0.172500X-0.147500X0.172500X-0.147500X-0.172500X0.147500X-0.172500X0*%
%ADD18RoundRect,0.200000X-0.850000X-0.850000X0.850000X-0.850000X0.850000X0.850000X-0.850000X0.850000X0*%
%ADD19RoundRect,0.262500X-0.062500X0.375000X-0.062500X-0.375000X0.062500X-0.375000X0.062500X0.375000X0*%
%ADD20RoundRect,0.262500X-0.375000X0.062500X-0.375000X-0.062500X0.375000X-0.062500X0.375000X0.062500X0*%
%ADD21RoundRect,0.451100X-1.298900X1.298900X-1.298900X-1.298900X1.298900X-1.298900X1.298900X1.298900X0*%
%ADD22RoundRect,0.200000X-0.750000X0.225000X-0.750000X-0.225000X0.750000X-0.225000X0.750000X0.225000X0*%
%ADD23O,1.500000X2.200000*%
%ADD24O,1.500000X2.600000*%
%ADD25RoundRect,0.200000X0.150000X-0.375000X0.150000X0.375000X-0.150000X0.375000X-0.150000X-0.375000X0*%
%ADD26RoundRect,0.200000X0.730000X-0.680000X0.730000X0.680000X-0.730000X0.680000X-0.730000X-0.680000X0*%
%ADD27RoundRect,0.200000X0.650000X0.500000X-0.650000X0.500000X-0.650000X-0.500000X0.650000X-0.500000X0*%
%ADD28RoundRect,0.200000X-0.500000X0.500000X-0.500000X-0.500000X0.500000X-0.500000X0.500000X0.500000X0*%
%ADD29O,1.400000X1.400000*%
%ADD30RoundRect,0.200000X-0.300000X-0.550000X0.300000X-0.550000X0.300000X0.550000X-0.300000X0.550000X0*%
%ADD31FreePoly0,90.000000*%
%ADD32RoundRect,0.262500X0.062500X-0.337500X0.062500X0.337500X-0.062500X0.337500X-0.062500X-0.337500X0*%
%ADD33FreePoly1,90.000000*%
%ADD34FreePoly2,90.000000*%
%ADD35RoundRect,0.262500X0.337500X-0.062500X0.337500X0.062500X-0.337500X0.062500X-0.337500X-0.062500X0*%
%ADD36FreePoly3,90.000000*%
%ADD37FreePoly4,90.000000*%
%ADD38FreePoly5,90.000000*%
%ADD39FreePoly6,90.000000*%
%ADD40FreePoly7,90.000000*%
%ADD41RoundRect,0.450001X0.949999X-0.949999X0.949999X0.949999X-0.949999X0.949999X-0.949999X-0.949999X0*%
%ADD42RoundRect,0.335000X-0.185000X0.135000X-0.185000X-0.135000X0.185000X-0.135000X0.185000X0.135000X0*%
%ADD43RoundRect,0.340000X0.140000X0.170000X-0.140000X0.170000X-0.140000X-0.170000X0.140000X-0.170000X0*%
%ADD44RoundRect,0.335000X0.185000X-0.135000X0.185000X0.135000X-0.185000X0.135000X-0.185000X-0.135000X0*%
%ADD45RoundRect,0.340000X0.170000X-0.140000X0.170000X0.140000X-0.170000X0.140000X-0.170000X-0.140000X0*%
%ADD46RoundRect,0.347500X-0.147500X-0.172500X0.147500X-0.172500X0.147500X0.172500X-0.147500X0.172500X0*%
%ADD47RoundRect,0.200000X0.500000X0.400000X-0.500000X0.400000X-0.500000X-0.400000X0.500000X-0.400000X0*%
%ADD48C,1.500000*%
%ADD49RoundRect,0.200000X0.350000X0.750000X-0.350000X0.750000X-0.350000X-0.750000X0.350000X-0.750000X0*%
%ADD50RoundRect,0.340000X-0.140000X-0.170000X0.140000X-0.170000X0.140000X0.170000X-0.140000X0.170000X0*%
%ADD51RoundRect,0.200000X1.300000X1.300000X-1.300000X1.300000X-1.300000X-1.300000X1.300000X-1.300000X0*%
%ADD52RoundRect,0.262500X0.062500X0.362500X-0.062500X0.362500X-0.062500X-0.362500X0.062500X-0.362500X0*%
%ADD53RoundRect,0.262500X0.362500X0.062500X-0.362500X0.062500X-0.362500X-0.062500X0.362500X-0.062500X0*%
%ADD54RoundRect,0.200000X0.700000X0.600000X-0.700000X0.600000X-0.700000X-0.600000X0.700000X-0.600000X0*%
%ADD55RoundRect,0.340000X-0.170000X0.140000X-0.170000X-0.140000X0.170000X-0.140000X0.170000X0.140000X0*%
G04 APERTURE END LIST*
D10*
X130100000Y-113185000D03*
X130100000Y-112215000D03*
D11*
X124800000Y-112215000D03*
X124800000Y-113185000D03*
X122310000Y-107405000D03*
X122310000Y-108375000D03*
D12*
X115025000Y-109052500D03*
X115025000Y-110627500D03*
X112810000Y-109052500D03*
X112810000Y-110627500D03*
D13*
X117040000Y-106357500D03*
X117040000Y-104782500D03*
D14*
X112980000Y-113390000D03*
D15*
X115520000Y-113390000D03*
X118060000Y-113390000D03*
X120600000Y-113390000D03*
D16*
X140920000Y-113390000D03*
D15*
X138380000Y-113390000D03*
X135840000Y-113390000D03*
X133300000Y-113390000D03*
D17*
X112795000Y-107740000D03*
X111825000Y-107740000D03*
D11*
X117040000Y-107625000D03*
X117040000Y-108595000D03*
D18*
X145000000Y-108275000D03*
D15*
X145000000Y-110815000D03*
X145000000Y-113355000D03*
D19*
X109760000Y-108102500D03*
X109260000Y-108102500D03*
X108760000Y-108102500D03*
X108260000Y-108102500D03*
X107760000Y-108102500D03*
X107260000Y-108102500D03*
X106760000Y-108102500D03*
X106260000Y-108102500D03*
D20*
X105572500Y-108790000D03*
X105572500Y-109290000D03*
X105572500Y-109790000D03*
X105572500Y-110290000D03*
X105572500Y-110790000D03*
X105572500Y-111290000D03*
X105572500Y-111790000D03*
X105572500Y-112290000D03*
D19*
X106260000Y-112977500D03*
X106760000Y-112977500D03*
X107260000Y-112977500D03*
X107760000Y-112977500D03*
X108260000Y-112977500D03*
X108760000Y-112977500D03*
X109260000Y-112977500D03*
X109760000Y-112977500D03*
D20*
X110447500Y-112290000D03*
X110447500Y-111790000D03*
X110447500Y-111290000D03*
X110447500Y-110790000D03*
X110447500Y-110290000D03*
X110447500Y-109790000D03*
X110447500Y-109290000D03*
X110447500Y-108790000D03*
D21*
X108010000Y-110540000D03*
D22*
X103050000Y-109100000D03*
X103050000Y-109750000D03*
X103050000Y-110400000D03*
X103050000Y-111050000D03*
X103050000Y-111700000D03*
D23*
X103300000Y-107600000D03*
D24*
X101150000Y-110400000D03*
D23*
X103300000Y-113200000D03*
D18*
X150400000Y-108275000D03*
D15*
X150400000Y-110815000D03*
X150400000Y-113355000D03*
D17*
X115010000Y-107740000D03*
X114040000Y-107740000D03*
D25*
X119360000Y-108370000D03*
X119860000Y-108370000D03*
X120360000Y-108370000D03*
X120860000Y-108370000D03*
X120860000Y-105370000D03*
X120360000Y-105370000D03*
X119860000Y-105370000D03*
X119360000Y-105370000D03*
D26*
X120110000Y-106870000D03*
D27*
X128550000Y-111850000D03*
X126350000Y-111850000D03*
X126350000Y-113650000D03*
X128550000Y-113650000D03*
D28*
X119955000Y-101650000D03*
D29*
X118685000Y-101650000D03*
X117415000Y-101650000D03*
X116145000Y-101650000D03*
D18*
X147700000Y-108275000D03*
D15*
X147700000Y-110815000D03*
X147700000Y-113355000D03*
D30*
X119710000Y-110390000D03*
X121110000Y-110390000D03*
D31*
X125660000Y-109190000D03*
D32*
X126110000Y-109190000D03*
X126560000Y-109190000D03*
X127010000Y-109190000D03*
X127460000Y-109190000D03*
X127910000Y-109190000D03*
D33*
X128360000Y-109190000D03*
D34*
X128960000Y-108590000D03*
D35*
X128960000Y-108140000D03*
X128960000Y-107690000D03*
X128960000Y-107240000D03*
X128960000Y-106790000D03*
X128960000Y-106340000D03*
D36*
X128960000Y-105890000D03*
D37*
X128360000Y-105290000D03*
D32*
X127910000Y-105290000D03*
X127460000Y-105290000D03*
X127010000Y-105290000D03*
X126560000Y-105290000D03*
X126110000Y-105290000D03*
D38*
X125660000Y-105290000D03*
D39*
X125060000Y-105890000D03*
D35*
X125060000Y-106340000D03*
X125060000Y-106790000D03*
X125060000Y-107240000D03*
X125060000Y-107690000D03*
X125060000Y-108140000D03*
D40*
X125060000Y-108590000D03*
D41*
X127010000Y-107240000D03*
D16*
X104440000Y-101900000D03*
D15*
X101900000Y-101900000D03*
D42*
X123500000Y-103890000D03*
X123500000Y-104910000D03*
D43*
X141310000Y-105550000D03*
X140350000Y-105550000D03*
D44*
X122310000Y-104910000D03*
X122310000Y-103890000D03*
D45*
X118510000Y-110870000D03*
X118510000Y-109910000D03*
D46*
X141245000Y-104550000D03*
X142215000Y-104550000D03*
X143165000Y-103555000D03*
X144135000Y-103555000D03*
X140345000Y-106525000D03*
X141315000Y-106525000D03*
D47*
X114260000Y-101690000D03*
X106960000Y-103790000D03*
X106960000Y-101690000D03*
D48*
X112210000Y-102740000D03*
D47*
X114260000Y-103790000D03*
D48*
X109210000Y-102740000D03*
D49*
X112960000Y-105190000D03*
X109960000Y-105190000D03*
X108460000Y-105190000D03*
D50*
X137110000Y-102330000D03*
X138070000Y-102330000D03*
D45*
X122310000Y-110870000D03*
X122310000Y-109910000D03*
X145100000Y-103595000D03*
X145100000Y-102635000D03*
D10*
X139380000Y-106510000D03*
X139380000Y-105540000D03*
D51*
X135985000Y-105490000D03*
D52*
X136985000Y-107415000D03*
X136485000Y-107415000D03*
X135985000Y-107415000D03*
X135485000Y-107415000D03*
X134985000Y-107415000D03*
D53*
X134060000Y-106490000D03*
X134060000Y-105990000D03*
X134060000Y-105490000D03*
X134060000Y-104990000D03*
X134060000Y-104490000D03*
D52*
X134985000Y-103565000D03*
X135485000Y-103565000D03*
X135985000Y-103565000D03*
X136485000Y-103565000D03*
X136985000Y-103565000D03*
D53*
X137910000Y-104490000D03*
X137910000Y-104990000D03*
X137910000Y-105490000D03*
X137910000Y-105990000D03*
X137910000Y-106490000D03*
D54*
X136660000Y-108990000D03*
X134460000Y-108990000D03*
X134460000Y-110690000D03*
X136660000Y-110690000D03*
D14*
X150340000Y-103605000D03*
D45*
X148010000Y-103605000D03*
X148010000Y-102645000D03*
D43*
X140310000Y-104575000D03*
X139350000Y-104575000D03*
D55*
X140355000Y-107470000D03*
X140355000Y-108430000D03*
D11*
X139380000Y-102665000D03*
X139380000Y-103635000D03*
D46*
X146075000Y-103565000D03*
X147045000Y-103565000D03*
D16*
X125485000Y-101840000D03*
D15*
X122945000Y-101840000D03*
D45*
X142200000Y-103585000D03*
X142200000Y-102625000D03*
D50*
X137105000Y-101290000D03*
X138065000Y-101290000D03*
M02*
