G04 #@! TF.GenerationSoftware,KiCad,Pcbnew,(6.0.4)*
G04 #@! TF.CreationDate,2022-06-20T11:49:59+10:00*
G04 #@! TF.ProjectId,microBoSL,6d696372-6f42-46f5-934c-2e6b69636164,0.3.0R*
G04 #@! TF.SameCoordinates,Original*
G04 #@! TF.FileFunction,Copper,L3,Inr*
G04 #@! TF.FilePolarity,Positive*
%FSLAX46Y46*%
G04 Gerber Fmt 4.6, Leading zero omitted, Abs format (unit mm)*
G04 Created by KiCad (PCBNEW (6.0.4)) date 2022-06-20 11:49:59*
%MOMM*%
%LPD*%
G01*
G04 APERTURE LIST*
G04 #@! TA.AperFunction,ComponentPad*
%ADD10R,1.700000X1.700000*%
G04 #@! TD*
G04 #@! TA.AperFunction,ComponentPad*
%ADD11O,1.700000X1.700000*%
G04 #@! TD*
G04 #@! TA.AperFunction,ComponentPad*
%ADD12O,1.100000X1.800000*%
G04 #@! TD*
G04 #@! TA.AperFunction,ComponentPad*
%ADD13O,1.100000X2.200000*%
G04 #@! TD*
G04 #@! TA.AperFunction,ComponentPad*
%ADD14R,1.000000X1.000000*%
G04 #@! TD*
G04 #@! TA.AperFunction,ComponentPad*
%ADD15O,1.000000X1.000000*%
G04 #@! TD*
G04 #@! TA.AperFunction,ComponentPad*
%ADD16C,0.500000*%
G04 #@! TD*
G04 #@! TA.AperFunction,ViaPad*
%ADD17C,0.500000*%
G04 #@! TD*
G04 #@! TA.AperFunction,ViaPad*
%ADD18C,0.600000*%
G04 #@! TD*
G04 #@! TA.AperFunction,Conductor*
%ADD19C,0.400000*%
G04 #@! TD*
G04 #@! TA.AperFunction,Conductor*
%ADD20C,0.200000*%
G04 #@! TD*
G04 #@! TA.AperFunction,Conductor*
%ADD21C,0.600000*%
G04 #@! TD*
G04 APERTURE END LIST*
D10*
X112980000Y-113390000D03*
D11*
X115520000Y-113390000D03*
X118060000Y-113390000D03*
X120600000Y-113390000D03*
D10*
X140920000Y-113390000D03*
D11*
X138380000Y-113390000D03*
X135840000Y-113390000D03*
X133300000Y-113390000D03*
D10*
X145000000Y-108275000D03*
D11*
X145000000Y-110815000D03*
X145000000Y-113355000D03*
D12*
X103300000Y-107600000D03*
D13*
X101150000Y-110400000D03*
D12*
X103300000Y-113200000D03*
D10*
X150400000Y-108275000D03*
D11*
X150400000Y-110815000D03*
X150400000Y-113355000D03*
D14*
X119955000Y-101650000D03*
D15*
X118685000Y-101650000D03*
X117415000Y-101650000D03*
X116145000Y-101650000D03*
D10*
X147700000Y-108275000D03*
D11*
X147700000Y-110815000D03*
X147700000Y-113355000D03*
D10*
X104440000Y-101900000D03*
D11*
X101900000Y-101900000D03*
D16*
X137035000Y-104440000D03*
X137035000Y-106540000D03*
X134935000Y-104440000D03*
X134935000Y-106540000D03*
D10*
X150340000Y-103605000D03*
X125485000Y-101840000D03*
D11*
X122945000Y-101840000D03*
D17*
X146250000Y-104500000D03*
D18*
X135010000Y-105480000D03*
D17*
X142500000Y-101750000D03*
X147000000Y-104500000D03*
X145500000Y-101750000D03*
X144750000Y-104500000D03*
X145500000Y-104500000D03*
X146250000Y-101750000D03*
D18*
X136970000Y-105490000D03*
D17*
X141000000Y-101750000D03*
X142250000Y-107000000D03*
X142250000Y-106250000D03*
X137900000Y-109000000D03*
X111500347Y-111122541D03*
X142750000Y-105750000D03*
X123900000Y-112700000D03*
X148500000Y-104500000D03*
D18*
X136000000Y-106500000D03*
X136000000Y-105450000D03*
D17*
X140400000Y-109500000D03*
X126990000Y-106410000D03*
X143250000Y-104500000D03*
X141000000Y-103250000D03*
X131190000Y-112730000D03*
X147750000Y-101750000D03*
X101600000Y-107200000D03*
X143250000Y-101750000D03*
X119961876Y-106558788D03*
X138750000Y-107500000D03*
X140250000Y-101750000D03*
X144750000Y-101750000D03*
X111000000Y-101400000D03*
X141750000Y-107500000D03*
X104792039Y-113658316D03*
X133100000Y-110700000D03*
X147000000Y-101750000D03*
X141750000Y-101750000D03*
X147750000Y-104500000D03*
X141000000Y-102500000D03*
X143250000Y-105250000D03*
D18*
X136010000Y-104500000D03*
D17*
X138070000Y-103370000D03*
X144000000Y-104500000D03*
X108300000Y-106890243D03*
X148500000Y-101750000D03*
X144000000Y-101750000D03*
X139500000Y-107500000D03*
X126885511Y-110310000D03*
X130750000Y-103000000D03*
X139380000Y-101620000D03*
X112200000Y-104000000D03*
X117060000Y-103810000D03*
X139185000Y-100815000D03*
X130200000Y-109700000D03*
X104197500Y-104840000D03*
X131100000Y-113900000D03*
X124499011Y-111213016D03*
X104350500Y-109100000D03*
X107130000Y-114075980D03*
X124870000Y-110620000D03*
X124950986Y-109884317D03*
X128160000Y-103300500D03*
X138900000Y-109850980D03*
X125069020Y-105200000D03*
X131700000Y-109000000D03*
X124942167Y-104503344D03*
X118680000Y-108740500D03*
X121106444Y-104449020D03*
X118634901Y-108008488D03*
X120410579Y-104377773D03*
X104340500Y-109800000D03*
X104430932Y-111508044D03*
X116000000Y-110100000D03*
X107200000Y-105900000D03*
X115550500Y-106715689D03*
X111809500Y-110380000D03*
X109590734Y-106490734D03*
X105250500Y-113130000D03*
X118201470Y-106100000D03*
X111400000Y-113400000D03*
X114200000Y-106800000D03*
X116490000Y-103110000D03*
X131472880Y-109827119D03*
X127670000Y-103850000D03*
X129000000Y-102900011D03*
X128480000Y-110390000D03*
X110700000Y-113600000D03*
X113950500Y-107740000D03*
X119736724Y-104190096D03*
X124884401Y-109187991D03*
X138000000Y-107500000D03*
X126250000Y-110630000D03*
X125553116Y-110469483D03*
X133000000Y-103000000D03*
X121655944Y-106351843D03*
X129540000Y-101465000D03*
X110000000Y-101000000D03*
X123420000Y-111163050D03*
X109100000Y-103900000D03*
X108460000Y-105190000D03*
X134200000Y-107749500D03*
X131850500Y-108300000D03*
D19*
X105900000Y-113900000D02*
X106725480Y-114725480D01*
X131474520Y-114725480D02*
X137044520Y-114725480D01*
D20*
X131474520Y-114274520D02*
X131474520Y-114725480D01*
X131100000Y-113900000D02*
X131474520Y-114274520D01*
D19*
X104197500Y-104840000D02*
X105900000Y-106542500D01*
X106725480Y-114725480D02*
X131474520Y-114725480D01*
X137044520Y-114725480D02*
X138380000Y-113390000D01*
X105900000Y-106542500D02*
X105900000Y-113900000D01*
D20*
X139864020Y-110815000D02*
X145000000Y-110815000D01*
X138900000Y-109850980D02*
X139864020Y-110815000D01*
X120799519Y-107555487D02*
X120275006Y-108080000D01*
X124419593Y-104503344D02*
X124942167Y-104503344D01*
X121106444Y-104449020D02*
X121106444Y-107248562D01*
X120275006Y-108080000D02*
X119340500Y-108080000D01*
X121106444Y-107248562D02*
X120799519Y-107555487D01*
X120799519Y-107555487D02*
X121367450Y-107555487D01*
X119340500Y-108080000D02*
X118680000Y-108740500D01*
X121367450Y-107555487D02*
X124419593Y-104503344D01*
X120706924Y-104826627D02*
X120706924Y-107083076D01*
X120109520Y-107680480D02*
X118962909Y-107680480D01*
X118962909Y-107680480D02*
X118634901Y-108008488D01*
X120410579Y-104377773D02*
X120410579Y-104530282D01*
X120706924Y-107083076D02*
X120109520Y-107680480D01*
X120410579Y-104530282D02*
X120706924Y-104826627D01*
X107241223Y-105941223D02*
X107200000Y-105900000D01*
X115550500Y-106715689D02*
X114776034Y-105941223D01*
X114776034Y-105941223D02*
X107241223Y-105941223D01*
X109440743Y-106340743D02*
X109590734Y-106490734D01*
X103647989Y-105067989D02*
X103647989Y-104612384D01*
X111809500Y-108709500D02*
X109590734Y-106490734D01*
X105400480Y-106820480D02*
X103647989Y-105067989D01*
X105250500Y-113130000D02*
X105400480Y-112980020D01*
X103969884Y-104290489D02*
X104470489Y-104290489D01*
X104470489Y-104290489D02*
X106629511Y-106449511D01*
X103647989Y-104612384D02*
X103969884Y-104290489D01*
X107536384Y-106340743D02*
X109440743Y-106340743D01*
X105400480Y-112980020D02*
X105400480Y-106820480D01*
X107427616Y-106449511D02*
X107536384Y-106340743D01*
X106629511Y-106449511D02*
X107427616Y-106449511D01*
X111809500Y-110380000D02*
X111809500Y-108709500D01*
X130665486Y-107500001D02*
X130965487Y-107200000D01*
X126250000Y-110630000D02*
X126231933Y-110611933D01*
X128108372Y-107500001D02*
X130665486Y-107500001D01*
X126231933Y-110611933D02*
X126231933Y-109376440D01*
X130965487Y-107200000D02*
X137700000Y-107200000D01*
X126231933Y-109376440D02*
X128108372Y-107500001D01*
X137700000Y-107200000D02*
X138000000Y-107500000D01*
X127786177Y-107100481D02*
X130500000Y-107100481D01*
X125553116Y-110469483D02*
X125553116Y-109333542D01*
X125553116Y-109333542D02*
X127786177Y-107100481D01*
X133000000Y-104600481D02*
X133000000Y-103000000D01*
X130500000Y-107100481D02*
X133000000Y-104600481D01*
D21*
X129540000Y-101465000D02*
X128475000Y-100400000D01*
X110600000Y-100400000D02*
X110000000Y-101000000D01*
X128475000Y-100400000D02*
X110600000Y-100400000D01*
D20*
X121109511Y-103532384D02*
X121109511Y-100590489D01*
X121700000Y-104122873D02*
X121109511Y-103532384D01*
X121655944Y-106351843D02*
X121700000Y-106307787D01*
X121700000Y-106307787D02*
X121700000Y-104122873D01*
G04 #@! TA.AperFunction,Conductor*
G36*
X109493485Y-100370502D02*
G01*
X109539978Y-100424158D01*
X109550082Y-100494432D01*
X109520588Y-100559012D01*
X109514459Y-100565595D01*
X109511089Y-100568965D01*
X109435638Y-100666236D01*
X109370365Y-100817074D01*
X109369126Y-100824897D01*
X109369125Y-100824900D01*
X109353799Y-100921660D01*
X109344653Y-100979405D01*
X109345399Y-100987296D01*
X109355047Y-101089351D01*
X109360121Y-101143029D01*
X109362805Y-101150483D01*
X109362805Y-101150485D01*
X109393293Y-101235168D01*
X109415794Y-101297668D01*
X109508175Y-101433602D01*
X109514116Y-101438840D01*
X109514118Y-101438842D01*
X109625517Y-101537054D01*
X109625520Y-101537056D01*
X109631459Y-101542292D01*
X109777900Y-101616908D01*
X109938296Y-101652760D01*
X110102569Y-101647597D01*
X110260398Y-101601744D01*
X110274529Y-101593387D01*
X110343345Y-101575928D01*
X110410677Y-101598445D01*
X110455077Y-101653621D01*
X110475464Y-101702841D01*
X110571718Y-101828282D01*
X110697159Y-101924536D01*
X110843238Y-101985044D01*
X111000000Y-102005682D01*
X111008188Y-102004604D01*
X111148574Y-101986122D01*
X111156762Y-101985044D01*
X111302841Y-101924536D01*
X111428282Y-101828282D01*
X111524536Y-101702841D01*
X111585044Y-101556762D01*
X111605682Y-101400000D01*
X111585044Y-101243238D01*
X111581884Y-101235610D01*
X111581883Y-101235605D01*
X111577373Y-101224717D01*
X111569784Y-101154127D01*
X111601564Y-101090640D01*
X111662623Y-101054414D01*
X111693782Y-101050500D01*
X115290811Y-101050500D01*
X115358932Y-101070502D01*
X115405425Y-101124158D01*
X115415529Y-101194432D01*
X115399931Y-101239498D01*
X115363750Y-101302165D01*
X115308503Y-101472197D01*
X115307813Y-101478760D01*
X115307813Y-101478761D01*
X115292938Y-101620289D01*
X115289815Y-101650000D01*
X115290505Y-101656565D01*
X115300326Y-101750000D01*
X115308503Y-101827803D01*
X115310543Y-101834080D01*
X115310543Y-101834082D01*
X115331498Y-101898574D01*
X115363750Y-101997835D01*
X115367053Y-102003557D01*
X115367054Y-102003558D01*
X115393409Y-102049206D01*
X115453141Y-102152665D01*
X115457559Y-102157572D01*
X115457560Y-102157573D01*
X115562875Y-102274536D01*
X115572770Y-102285526D01*
X115578109Y-102289405D01*
X115692224Y-102372315D01*
X115717407Y-102390612D01*
X115723435Y-102393296D01*
X115723437Y-102393297D01*
X115845263Y-102447537D01*
X115880733Y-102463329D01*
X115959046Y-102479975D01*
X115985081Y-102485509D01*
X116047554Y-102519238D01*
X116081876Y-102581387D01*
X116077148Y-102652226D01*
X116058846Y-102685460D01*
X115970494Y-102800603D01*
X115970492Y-102800606D01*
X115965464Y-102807159D01*
X115904956Y-102953238D01*
X115903878Y-102961426D01*
X115901906Y-102976402D01*
X115884318Y-103110000D01*
X115885396Y-103118188D01*
X115901132Y-103237712D01*
X115904956Y-103266762D01*
X115965464Y-103412841D01*
X116061718Y-103538282D01*
X116187159Y-103634536D01*
X116333238Y-103695044D01*
X116490000Y-103715682D01*
X116498188Y-103714604D01*
X116638574Y-103696122D01*
X116646762Y-103695044D01*
X116792841Y-103634536D01*
X116918282Y-103538282D01*
X117014536Y-103412841D01*
X117075044Y-103266762D01*
X117078869Y-103237712D01*
X117094604Y-103118188D01*
X117095682Y-103110000D01*
X117078094Y-102976402D01*
X117076122Y-102961426D01*
X117075044Y-102953238D01*
X117014536Y-102807159D01*
X116930130Y-102697159D01*
X116923305Y-102688264D01*
X116918282Y-102681718D01*
X116792841Y-102585464D01*
X116689619Y-102542708D01*
X116634338Y-102498160D01*
X116611917Y-102430796D01*
X116629475Y-102362005D01*
X116663775Y-102324364D01*
X116705938Y-102293730D01*
X116772805Y-102269871D01*
X116841957Y-102285950D01*
X116854048Y-102293720D01*
X116987407Y-102390612D01*
X116993435Y-102393296D01*
X116993437Y-102393297D01*
X117115263Y-102447537D01*
X117150733Y-102463329D01*
X117231474Y-102480491D01*
X117319152Y-102499128D01*
X117319156Y-102499128D01*
X117325609Y-102500500D01*
X117504391Y-102500500D01*
X117510844Y-102499128D01*
X117510848Y-102499128D01*
X117598526Y-102480491D01*
X117679267Y-102463329D01*
X117714737Y-102447537D01*
X117836563Y-102393297D01*
X117836565Y-102393296D01*
X117842593Y-102390612D01*
X117975941Y-102293728D01*
X118042806Y-102269871D01*
X118111958Y-102285951D01*
X118124048Y-102293720D01*
X118257407Y-102390612D01*
X118263435Y-102393296D01*
X118263437Y-102393297D01*
X118385263Y-102447537D01*
X118420733Y-102463329D01*
X118501474Y-102480491D01*
X118589152Y-102499128D01*
X118589156Y-102499128D01*
X118595609Y-102500500D01*
X118774391Y-102500500D01*
X118780844Y-102499128D01*
X118780848Y-102499128D01*
X118868526Y-102480491D01*
X118949267Y-102463329D01*
X119093924Y-102398924D01*
X119164290Y-102389490D01*
X119228587Y-102419596D01*
X119234186Y-102424855D01*
X119248650Y-102439293D01*
X119258006Y-102443866D01*
X119258007Y-102443867D01*
X119265515Y-102447537D01*
X119353482Y-102490536D01*
X119383973Y-102494984D01*
X119417256Y-102499840D01*
X119417260Y-102499840D01*
X119421782Y-102500500D01*
X120488218Y-102500500D01*
X120492772Y-102499830D01*
X120492780Y-102499829D01*
X120514658Y-102496608D01*
X120584966Y-102506474D01*
X120638778Y-102552786D01*
X120659011Y-102621264D01*
X120659011Y-103498164D01*
X120658138Y-103512973D01*
X120654147Y-103546694D01*
X120655839Y-103555958D01*
X120655839Y-103555959D01*
X120664683Y-103604385D01*
X120665332Y-103608287D01*
X120670719Y-103644113D01*
X120661069Y-103714450D01*
X120614923Y-103768405D01*
X120546932Y-103788845D01*
X120529674Y-103787770D01*
X120418767Y-103773169D01*
X120410579Y-103772091D01*
X120402391Y-103773169D01*
X120262914Y-103791531D01*
X120192765Y-103780591D01*
X120165376Y-103761332D01*
X120165006Y-103761814D01*
X120104885Y-103715682D01*
X120039565Y-103665560D01*
X119893486Y-103605052D01*
X119822519Y-103595709D01*
X119744912Y-103585492D01*
X119736724Y-103584414D01*
X119728536Y-103585492D01*
X119650930Y-103595709D01*
X119579962Y-103605052D01*
X119433883Y-103665560D01*
X119308442Y-103761814D01*
X119303419Y-103768360D01*
X119302537Y-103769509D01*
X119212188Y-103887255D01*
X119151680Y-104033334D01*
X119131042Y-104190096D01*
X119151680Y-104346858D01*
X119212188Y-104492937D01*
X119256348Y-104550487D01*
X119291856Y-104596762D01*
X119308442Y-104618378D01*
X119433883Y-104714632D01*
X119548756Y-104762214D01*
X119571701Y-104771718D01*
X119579962Y-104775140D01*
X119588150Y-104776218D01*
X119657857Y-104785395D01*
X119736724Y-104795778D01*
X119744912Y-104794700D01*
X119884389Y-104776338D01*
X119954538Y-104787278D01*
X119981927Y-104806537D01*
X119982297Y-104806055D01*
X120107738Y-104902309D01*
X120149054Y-104919423D01*
X120189930Y-104946736D01*
X120219519Y-104976325D01*
X120253545Y-105038637D01*
X120256424Y-105065420D01*
X120256424Y-105848209D01*
X120236422Y-105916330D01*
X120182766Y-105962823D01*
X120113979Y-105973131D01*
X119961876Y-105953106D01*
X119805114Y-105973744D01*
X119659035Y-106034252D01*
X119533594Y-106130506D01*
X119437340Y-106255947D01*
X119376832Y-106402026D01*
X119375754Y-106410214D01*
X119357590Y-106548187D01*
X119356194Y-106558788D01*
X119357272Y-106566976D01*
X119374359Y-106696762D01*
X119376832Y-106715550D01*
X119437340Y-106861629D01*
X119484113Y-106922585D01*
X119526532Y-106977866D01*
X119533594Y-106987070D01*
X119540140Y-106992093D01*
X119540143Y-106992096D01*
X119555679Y-107004017D01*
X119597547Y-107061355D01*
X119601769Y-107132226D01*
X119567005Y-107194129D01*
X119504293Y-107227410D01*
X119478976Y-107229980D01*
X118997128Y-107229980D01*
X118982319Y-107229107D01*
X118975348Y-107228282D01*
X118948598Y-107225116D01*
X118939335Y-107226808D01*
X118939328Y-107226808D01*
X118890891Y-107235655D01*
X118886992Y-107236305D01*
X118864262Y-107239722D01*
X118838265Y-107243630D01*
X118838264Y-107243630D01*
X118828947Y-107245031D01*
X118822434Y-107248159D01*
X118815336Y-107249455D01*
X118763256Y-107276508D01*
X118759754Y-107278257D01*
X118719529Y-107297573D01*
X118706830Y-107303671D01*
X118701545Y-107308557D01*
X118701498Y-107308588D01*
X118695120Y-107311901D01*
X118690081Y-107316205D01*
X118652854Y-107353432D01*
X118649288Y-107356862D01*
X118623115Y-107381056D01*
X118554032Y-107413453D01*
X118478139Y-107423444D01*
X118332060Y-107483952D01*
X118206619Y-107580206D01*
X118110365Y-107705647D01*
X118049857Y-107851726D01*
X118048779Y-107859914D01*
X118046034Y-107880768D01*
X118029219Y-108008488D01*
X118049857Y-108165250D01*
X118110365Y-108311329D01*
X118125754Y-108331384D01*
X118129351Y-108336072D01*
X118154952Y-108402292D01*
X118145798Y-108460994D01*
X118098353Y-108575538D01*
X118094956Y-108583738D01*
X118074318Y-108740500D01*
X118094956Y-108897262D01*
X118155464Y-109043341D01*
X118251718Y-109168782D01*
X118377159Y-109265036D01*
X118523238Y-109325544D01*
X118680000Y-109346182D01*
X118688188Y-109345104D01*
X118828574Y-109326622D01*
X118836762Y-109325544D01*
X118982841Y-109265036D01*
X119108282Y-109168782D01*
X119204536Y-109043341D01*
X119265044Y-108897262D01*
X119275335Y-108819090D01*
X119304057Y-108754163D01*
X119311162Y-108746441D01*
X119490198Y-108567405D01*
X119552510Y-108533379D01*
X119579293Y-108530500D01*
X120240786Y-108530500D01*
X120255595Y-108531373D01*
X120289316Y-108535364D01*
X120298580Y-108533672D01*
X120298581Y-108533672D01*
X120347007Y-108524828D01*
X120350910Y-108524178D01*
X120399651Y-108516850D01*
X120399652Y-108516850D01*
X120408968Y-108515449D01*
X120415481Y-108512321D01*
X120422579Y-108511025D01*
X120474653Y-108483975D01*
X120478143Y-108482232D01*
X120531085Y-108456809D01*
X120536371Y-108451923D01*
X120536419Y-108451890D01*
X120542794Y-108448579D01*
X120547834Y-108444275D01*
X120585061Y-108407048D01*
X120588627Y-108403618D01*
X120630562Y-108364854D01*
X120634255Y-108358495D01*
X120639772Y-108352337D01*
X120949217Y-108042892D01*
X121011529Y-108008866D01*
X121038312Y-108005987D01*
X121333230Y-108005987D01*
X121348039Y-108006860D01*
X121381760Y-108010851D01*
X121391024Y-108009159D01*
X121391025Y-108009159D01*
X121439451Y-108000315D01*
X121443354Y-107999665D01*
X121492095Y-107992337D01*
X121492096Y-107992337D01*
X121501412Y-107990936D01*
X121507925Y-107987808D01*
X121515023Y-107986512D01*
X121567097Y-107959462D01*
X121570587Y-107957719D01*
X121623529Y-107932296D01*
X121628815Y-107927410D01*
X121628863Y-107927377D01*
X121635238Y-107924066D01*
X121640278Y-107919762D01*
X121677505Y-107882535D01*
X121681071Y-107879105D01*
X121716091Y-107846733D01*
X121723006Y-107840341D01*
X121726699Y-107833982D01*
X121732216Y-107827824D01*
X124271220Y-105288820D01*
X124333532Y-105254794D01*
X124404347Y-105259859D01*
X124461183Y-105302406D01*
X124482022Y-105345304D01*
X124482898Y-105348573D01*
X124483976Y-105356762D01*
X124544484Y-105502841D01*
X124640738Y-105628282D01*
X124647284Y-105633305D01*
X124671742Y-105652072D01*
X124766179Y-105724536D01*
X124912258Y-105785044D01*
X125069020Y-105805682D01*
X125077208Y-105804604D01*
X125079381Y-105804318D01*
X125225782Y-105785044D01*
X125371861Y-105724536D01*
X125466298Y-105652072D01*
X125490756Y-105633305D01*
X125497302Y-105628282D01*
X125593556Y-105502841D01*
X125654064Y-105356762D01*
X125674702Y-105200000D01*
X125654064Y-105043238D01*
X125593556Y-104897159D01*
X125535302Y-104821241D01*
X125530987Y-104815617D01*
X125505387Y-104749396D01*
X125514541Y-104690695D01*
X125524051Y-104667735D01*
X125527211Y-104660106D01*
X125532044Y-104623401D01*
X125546771Y-104511532D01*
X125547849Y-104503344D01*
X125527211Y-104346582D01*
X125466703Y-104200503D01*
X125370449Y-104075062D01*
X125362780Y-104069177D01*
X125307562Y-104026807D01*
X125245008Y-103978808D01*
X125098929Y-103918300D01*
X125077388Y-103915464D01*
X124950355Y-103898740D01*
X124942167Y-103897662D01*
X124933979Y-103898740D01*
X124806947Y-103915464D01*
X124785405Y-103918300D01*
X124639326Y-103978808D01*
X124602658Y-104006944D01*
X124576772Y-104026807D01*
X124510551Y-104052407D01*
X124500068Y-104052844D01*
X124453813Y-104052844D01*
X124439004Y-104051971D01*
X124414636Y-104049087D01*
X124405283Y-104047980D01*
X124396019Y-104049672D01*
X124396018Y-104049672D01*
X124347592Y-104058516D01*
X124343689Y-104059166D01*
X124294948Y-104066494D01*
X124294947Y-104066494D01*
X124285631Y-104067895D01*
X124279118Y-104071023D01*
X124272020Y-104072319D01*
X124219946Y-104099369D01*
X124216456Y-104101112D01*
X124163514Y-104126535D01*
X124158228Y-104131421D01*
X124158180Y-104131454D01*
X124151805Y-104134765D01*
X124146765Y-104139069D01*
X124109538Y-104176296D01*
X124105973Y-104179725D01*
X124064037Y-104218490D01*
X124060344Y-104224849D01*
X124054827Y-104231007D01*
X122365595Y-105920239D01*
X122303283Y-105954265D01*
X122232468Y-105949200D01*
X122175632Y-105906653D01*
X122150821Y-105840133D01*
X122150500Y-105831144D01*
X122150500Y-104157093D01*
X122151373Y-104142284D01*
X122154257Y-104117916D01*
X122155364Y-104108563D01*
X122153672Y-104099299D01*
X122153672Y-104099295D01*
X122144827Y-104050862D01*
X122144178Y-104046961D01*
X122136851Y-103998228D01*
X122136849Y-103998220D01*
X122135449Y-103988911D01*
X122132323Y-103982401D01*
X122131026Y-103975300D01*
X122123394Y-103960608D01*
X122103982Y-103923236D01*
X122102214Y-103919698D01*
X122080886Y-103875284D01*
X122076809Y-103866794D01*
X122071926Y-103861513D01*
X122071891Y-103861461D01*
X122068580Y-103855085D01*
X122064276Y-103850045D01*
X122064231Y-103850000D01*
X127064318Y-103850000D01*
X127084956Y-104006762D01*
X127145464Y-104152841D01*
X127241718Y-104278282D01*
X127367159Y-104374536D01*
X127513238Y-104435044D01*
X127670000Y-104455682D01*
X127678188Y-104454604D01*
X127818574Y-104436122D01*
X127826762Y-104435044D01*
X127972841Y-104374536D01*
X128098282Y-104278282D01*
X128194536Y-104152841D01*
X128255044Y-104006762D01*
X128258868Y-103977716D01*
X128287590Y-103912788D01*
X128335572Y-103877753D01*
X128402464Y-103850045D01*
X128462841Y-103825036D01*
X128588282Y-103728782D01*
X128684536Y-103603341D01*
X128687695Y-103595713D01*
X128687698Y-103595709D01*
X128702621Y-103559680D01*
X128747169Y-103504399D01*
X128814532Y-103481977D01*
X128843214Y-103485234D01*
X128843238Y-103485055D01*
X129000000Y-103505693D01*
X129008188Y-103504615D01*
X129148574Y-103486133D01*
X129156762Y-103485055D01*
X129302841Y-103424547D01*
X129428282Y-103328293D01*
X129524536Y-103202852D01*
X129585044Y-103056773D01*
X129605682Y-102900011D01*
X129591885Y-102795211D01*
X129586122Y-102751437D01*
X129585044Y-102743249D01*
X129524536Y-102597170D01*
X129442713Y-102490536D01*
X129433305Y-102478275D01*
X129428282Y-102471729D01*
X129420905Y-102466068D01*
X129360341Y-102419596D01*
X129302841Y-102375475D01*
X129156762Y-102314967D01*
X129000000Y-102294329D01*
X128843238Y-102314967D01*
X128697159Y-102375475D01*
X128639659Y-102419596D01*
X128579096Y-102466068D01*
X128571718Y-102471729D01*
X128566695Y-102478275D01*
X128557287Y-102490536D01*
X128475464Y-102597170D01*
X128472305Y-102604798D01*
X128472302Y-102604802D01*
X128457379Y-102640831D01*
X128412831Y-102696112D01*
X128345468Y-102718534D01*
X128316786Y-102715277D01*
X128316762Y-102715456D01*
X128168188Y-102695896D01*
X128160000Y-102694818D01*
X128003238Y-102715456D01*
X127857159Y-102775964D01*
X127731718Y-102872218D01*
X127726695Y-102878764D01*
X127713216Y-102896330D01*
X127635464Y-102997659D01*
X127574956Y-103143738D01*
X127573878Y-103151927D01*
X127571132Y-103172784D01*
X127542410Y-103237712D01*
X127494428Y-103272747D01*
X127441971Y-103294476D01*
X127367159Y-103325464D01*
X127241718Y-103421718D01*
X127236695Y-103428264D01*
X127214444Y-103457262D01*
X127145464Y-103547159D01*
X127084956Y-103693238D01*
X127064318Y-103850000D01*
X122064231Y-103850000D01*
X122027037Y-103812806D01*
X122023607Y-103809240D01*
X121991247Y-103774233D01*
X121984854Y-103767317D01*
X121978497Y-103763625D01*
X121972348Y-103758117D01*
X121787612Y-103573381D01*
X121596916Y-103382686D01*
X121562891Y-103320373D01*
X121560011Y-103293590D01*
X121560011Y-102271984D01*
X121580013Y-102203863D01*
X121633669Y-102157370D01*
X121703943Y-102147266D01*
X121768523Y-102176760D01*
X121802762Y-102232256D01*
X121805160Y-102231407D01*
X121807090Y-102236858D01*
X121808511Y-102242452D01*
X121810928Y-102247694D01*
X121810928Y-102247695D01*
X121828564Y-102285950D01*
X121900883Y-102442821D01*
X122028222Y-102623002D01*
X122186264Y-102776961D01*
X122191060Y-102780166D01*
X122191063Y-102780168D01*
X122285455Y-102843238D01*
X122369717Y-102899540D01*
X122375020Y-102901818D01*
X122375023Y-102901820D01*
X122538221Y-102971935D01*
X122572436Y-102986635D01*
X122625252Y-102998586D01*
X122781995Y-103034054D01*
X122782001Y-103034055D01*
X122787632Y-103035329D01*
X122793403Y-103035556D01*
X122793405Y-103035556D01*
X122861211Y-103038220D01*
X123008098Y-103043991D01*
X123130524Y-103026240D01*
X123220738Y-103013160D01*
X123220743Y-103013159D01*
X123226452Y-103012331D01*
X123231916Y-103010476D01*
X123231921Y-103010475D01*
X123429907Y-102943268D01*
X123429912Y-102943266D01*
X123435379Y-102941410D01*
X123443799Y-102936695D01*
X123531630Y-102887507D01*
X123627884Y-102833602D01*
X123653857Y-102812001D01*
X123793086Y-102696204D01*
X123797518Y-102692518D01*
X123882267Y-102590619D01*
X123934908Y-102527326D01*
X123934910Y-102527323D01*
X123938602Y-102522884D01*
X124046410Y-102330379D01*
X124047518Y-102331000D01*
X124089377Y-102281756D01*
X124157305Y-102261109D01*
X124225612Y-102280464D01*
X124272612Y-102333676D01*
X124284500Y-102387103D01*
X124284500Y-102723218D01*
X124285170Y-102727768D01*
X124285170Y-102727771D01*
X124293216Y-102782426D01*
X124294642Y-102792112D01*
X124316662Y-102836961D01*
X124339441Y-102883357D01*
X124346068Y-102896855D01*
X124428650Y-102979293D01*
X124438006Y-102983866D01*
X124438007Y-102983867D01*
X124452821Y-102991108D01*
X124533482Y-103030536D01*
X124557597Y-103034054D01*
X124597256Y-103039840D01*
X124597260Y-103039840D01*
X124601782Y-103040500D01*
X126368218Y-103040500D01*
X126372768Y-103039830D01*
X126372771Y-103039830D01*
X126427426Y-103031784D01*
X126427427Y-103031784D01*
X126437112Y-103030358D01*
X126492288Y-103003268D01*
X126532507Y-102983522D01*
X126532509Y-102983521D01*
X126541855Y-102978932D01*
X126624293Y-102896350D01*
X126675536Y-102791518D01*
X126685500Y-102723218D01*
X126685500Y-101176500D01*
X126705502Y-101108379D01*
X126759158Y-101061886D01*
X126811500Y-101050500D01*
X128153364Y-101050500D01*
X128221485Y-101070502D01*
X128242459Y-101087405D01*
X129108965Y-101953911D01*
X129206236Y-102029362D01*
X129357073Y-102094635D01*
X129519404Y-102120346D01*
X129527296Y-102119600D01*
X129675141Y-102105625D01*
X129675144Y-102105624D01*
X129683029Y-102104879D01*
X129690483Y-102102195D01*
X129690485Y-102102195D01*
X129830208Y-102051892D01*
X129830210Y-102051891D01*
X129837668Y-102049206D01*
X129973602Y-101956825D01*
X129994601Y-101933007D01*
X130077049Y-101839487D01*
X130082291Y-101833541D01*
X130124858Y-101750000D01*
X139644318Y-101750000D01*
X139664956Y-101906762D01*
X139725464Y-102052841D01*
X139821718Y-102178282D01*
X139947159Y-102274536D01*
X140093238Y-102335044D01*
X140101426Y-102336122D01*
X140134407Y-102340464D01*
X140250000Y-102355682D01*
X140258188Y-102354604D01*
X140266446Y-102354604D01*
X140266446Y-102357269D01*
X140323553Y-102366178D01*
X140376648Y-102413309D01*
X140395834Y-102481665D01*
X140395396Y-102487788D01*
X140395396Y-102491812D01*
X140394318Y-102500000D01*
X140414956Y-102656762D01*
X140475464Y-102802841D01*
X140480491Y-102809392D01*
X140481997Y-102812001D01*
X140498734Y-102880997D01*
X140481997Y-102937999D01*
X140480491Y-102940608D01*
X140475464Y-102947159D01*
X140414956Y-103093238D01*
X140394318Y-103250000D01*
X140414956Y-103406762D01*
X140475464Y-103552841D01*
X140571718Y-103678282D01*
X140578264Y-103683305D01*
X140591209Y-103693238D01*
X140697159Y-103774536D01*
X140843238Y-103835044D01*
X140851426Y-103836122D01*
X140874168Y-103839116D01*
X141000000Y-103855682D01*
X141008188Y-103854604D01*
X141018572Y-103853237D01*
X141125832Y-103839116D01*
X141148574Y-103836122D01*
X141156762Y-103835044D01*
X141302841Y-103774536D01*
X141408791Y-103693238D01*
X141421736Y-103683305D01*
X141428282Y-103678282D01*
X141524536Y-103552841D01*
X141585044Y-103406762D01*
X141605682Y-103250000D01*
X141585044Y-103093238D01*
X141524536Y-102947159D01*
X141519509Y-102940608D01*
X141518003Y-102937999D01*
X141501266Y-102869003D01*
X141518003Y-102812001D01*
X141519509Y-102809392D01*
X141524536Y-102802841D01*
X141585044Y-102656762D01*
X141605682Y-102500000D01*
X141604604Y-102491812D01*
X141604604Y-102483554D01*
X141607269Y-102483554D01*
X141616178Y-102426447D01*
X141663309Y-102373352D01*
X141731665Y-102354166D01*
X141737788Y-102354604D01*
X141741812Y-102354604D01*
X141750000Y-102355682D01*
X141758188Y-102354604D01*
X141898574Y-102336122D01*
X141906762Y-102335044D01*
X142052841Y-102274536D01*
X142059392Y-102269509D01*
X142062001Y-102268003D01*
X142130997Y-102251266D01*
X142187999Y-102268003D01*
X142190608Y-102269509D01*
X142197159Y-102274536D01*
X142343238Y-102335044D01*
X142351426Y-102336122D01*
X142384407Y-102340464D01*
X142500000Y-102355682D01*
X142508188Y-102354604D01*
X142648574Y-102336122D01*
X142656762Y-102335044D01*
X142802841Y-102274536D01*
X142809392Y-102269509D01*
X142812001Y-102268003D01*
X142880997Y-102251266D01*
X142937999Y-102268003D01*
X142940608Y-102269509D01*
X142947159Y-102274536D01*
X143093238Y-102335044D01*
X143101426Y-102336122D01*
X143134407Y-102340464D01*
X143250000Y-102355682D01*
X143258188Y-102354604D01*
X143398574Y-102336122D01*
X143406762Y-102335044D01*
X143552841Y-102274536D01*
X143559392Y-102269509D01*
X143562001Y-102268003D01*
X143630997Y-102251266D01*
X143687999Y-102268003D01*
X143690608Y-102269509D01*
X143697159Y-102274536D01*
X143843238Y-102335044D01*
X143851426Y-102336122D01*
X143884407Y-102340464D01*
X144000000Y-102355682D01*
X144008188Y-102354604D01*
X144148574Y-102336122D01*
X144156762Y-102335044D01*
X144302841Y-102274536D01*
X144309392Y-102269509D01*
X144312001Y-102268003D01*
X144380997Y-102251266D01*
X144437999Y-102268003D01*
X144440608Y-102269509D01*
X144447159Y-102274536D01*
X144593238Y-102335044D01*
X144601426Y-102336122D01*
X144634407Y-102340464D01*
X144750000Y-102355682D01*
X144758188Y-102354604D01*
X144898574Y-102336122D01*
X144906762Y-102335044D01*
X145052841Y-102274536D01*
X145059392Y-102269509D01*
X145062001Y-102268003D01*
X145130997Y-102251266D01*
X145187999Y-102268003D01*
X145190608Y-102269509D01*
X145197159Y-102274536D01*
X145343238Y-102335044D01*
X145351426Y-102336122D01*
X145384407Y-102340464D01*
X145500000Y-102355682D01*
X145508188Y-102354604D01*
X145648574Y-102336122D01*
X145656762Y-102335044D01*
X145802841Y-102274536D01*
X145809392Y-102269509D01*
X145812001Y-102268003D01*
X145880997Y-102251266D01*
X145937999Y-102268003D01*
X145940608Y-102269509D01*
X145947159Y-102274536D01*
X146093238Y-102335044D01*
X146101426Y-102336122D01*
X146134407Y-102340464D01*
X146250000Y-102355682D01*
X146258188Y-102354604D01*
X146398574Y-102336122D01*
X146406762Y-102335044D01*
X146552841Y-102274536D01*
X146559392Y-102269509D01*
X146562001Y-102268003D01*
X146630997Y-102251266D01*
X146687999Y-102268003D01*
X146690608Y-102269509D01*
X146697159Y-102274536D01*
X146843238Y-102335044D01*
X146851426Y-102336122D01*
X146884407Y-102340464D01*
X147000000Y-102355682D01*
X147008188Y-102354604D01*
X147148574Y-102336122D01*
X147156762Y-102335044D01*
X147302841Y-102274536D01*
X147309392Y-102269509D01*
X147312001Y-102268003D01*
X147380997Y-102251266D01*
X147437999Y-102268003D01*
X147440608Y-102269509D01*
X147447159Y-102274536D01*
X147593238Y-102335044D01*
X147601426Y-102336122D01*
X147634407Y-102340464D01*
X147750000Y-102355682D01*
X147758188Y-102354604D01*
X147898574Y-102336122D01*
X147906762Y-102335044D01*
X148052841Y-102274536D01*
X148059392Y-102269509D01*
X148062001Y-102268003D01*
X148130997Y-102251266D01*
X148187999Y-102268003D01*
X148190608Y-102269509D01*
X148197159Y-102274536D01*
X148343238Y-102335044D01*
X148351426Y-102336122D01*
X148384407Y-102340464D01*
X148500000Y-102355682D01*
X148508188Y-102354604D01*
X148648574Y-102336122D01*
X148656762Y-102335044D01*
X148802841Y-102274536D01*
X148928282Y-102178282D01*
X149024536Y-102052841D01*
X149085044Y-101906762D01*
X149105682Y-101750000D01*
X149085044Y-101593238D01*
X149024536Y-101447159D01*
X148928282Y-101321718D01*
X148802841Y-101225464D01*
X148656762Y-101164956D01*
X148500000Y-101144318D01*
X148343238Y-101164956D01*
X148197159Y-101225464D01*
X148190608Y-101230491D01*
X148187999Y-101231997D01*
X148119003Y-101248734D01*
X148062001Y-101231997D01*
X148059392Y-101230491D01*
X148052841Y-101225464D01*
X147906762Y-101164956D01*
X147750000Y-101144318D01*
X147593238Y-101164956D01*
X147447159Y-101225464D01*
X147440608Y-101230491D01*
X147437999Y-101231997D01*
X147369003Y-101248734D01*
X147312001Y-101231997D01*
X147309392Y-101230491D01*
X147302841Y-101225464D01*
X147156762Y-101164956D01*
X147000000Y-101144318D01*
X146843238Y-101164956D01*
X146697159Y-101225464D01*
X146690608Y-101230491D01*
X146687999Y-101231997D01*
X146619003Y-101248734D01*
X146562001Y-101231997D01*
X146559392Y-101230491D01*
X146552841Y-101225464D01*
X146406762Y-101164956D01*
X146250000Y-101144318D01*
X146093238Y-101164956D01*
X145947159Y-101225464D01*
X145940608Y-101230491D01*
X145937999Y-101231997D01*
X145869003Y-101248734D01*
X145812001Y-101231997D01*
X145809392Y-101230491D01*
X145802841Y-101225464D01*
X145656762Y-101164956D01*
X145500000Y-101144318D01*
X145343238Y-101164956D01*
X145197159Y-101225464D01*
X145190608Y-101230491D01*
X145187999Y-101231997D01*
X145119003Y-101248734D01*
X145062001Y-101231997D01*
X145059392Y-101230491D01*
X145052841Y-101225464D01*
X144906762Y-101164956D01*
X144750000Y-101144318D01*
X144593238Y-101164956D01*
X144447159Y-101225464D01*
X144440608Y-101230491D01*
X144437999Y-101231997D01*
X144369003Y-101248734D01*
X144312001Y-101231997D01*
X144309392Y-101230491D01*
X144302841Y-101225464D01*
X144156762Y-101164956D01*
X144000000Y-101144318D01*
X143843238Y-101164956D01*
X143697159Y-101225464D01*
X143690608Y-101230491D01*
X143687999Y-101231997D01*
X143619003Y-101248734D01*
X143562001Y-101231997D01*
X143559392Y-101230491D01*
X143552841Y-101225464D01*
X143406762Y-101164956D01*
X143250000Y-101144318D01*
X143093238Y-101164956D01*
X142947159Y-101225464D01*
X142940608Y-101230491D01*
X142937999Y-101231997D01*
X142869003Y-101248734D01*
X142812001Y-101231997D01*
X142809392Y-101230491D01*
X142802841Y-101225464D01*
X142656762Y-101164956D01*
X142500000Y-101144318D01*
X142343238Y-101164956D01*
X142197159Y-101225464D01*
X142190608Y-101230491D01*
X142187999Y-101231997D01*
X142119003Y-101248734D01*
X142062001Y-101231997D01*
X142059392Y-101230491D01*
X142052841Y-101225464D01*
X141906762Y-101164956D01*
X141750000Y-101144318D01*
X141593238Y-101164956D01*
X141447159Y-101225464D01*
X141440608Y-101230491D01*
X141437999Y-101231997D01*
X141369003Y-101248734D01*
X141312001Y-101231997D01*
X141309392Y-101230491D01*
X141302841Y-101225464D01*
X141156762Y-101164956D01*
X141000000Y-101144318D01*
X140843238Y-101164956D01*
X140697159Y-101225464D01*
X140690608Y-101230491D01*
X140687999Y-101231997D01*
X140619003Y-101248734D01*
X140562001Y-101231997D01*
X140559392Y-101230491D01*
X140552841Y-101225464D01*
X140406762Y-101164956D01*
X140250000Y-101144318D01*
X140093238Y-101164956D01*
X139947159Y-101225464D01*
X139821718Y-101321718D01*
X139725464Y-101447159D01*
X139664956Y-101593238D01*
X139644318Y-101750000D01*
X130124858Y-101750000D01*
X130145549Y-101709392D01*
X130153308Y-101694164D01*
X130153309Y-101694162D01*
X130156907Y-101687100D01*
X130192760Y-101526703D01*
X130187597Y-101362430D01*
X130162265Y-101275234D01*
X130143957Y-101212217D01*
X130143956Y-101212214D01*
X130141744Y-101204601D01*
X130094170Y-101124158D01*
X130062119Y-101069962D01*
X130062117Y-101069959D01*
X130058081Y-101063135D01*
X129560541Y-100565595D01*
X129526515Y-100503283D01*
X129531580Y-100432468D01*
X129574127Y-100375632D01*
X129640647Y-100350821D01*
X129649636Y-100350500D01*
X150972497Y-100350500D01*
X150992208Y-100352051D01*
X151000207Y-100353318D01*
X151000208Y-100353318D01*
X151010000Y-100354869D01*
X151019792Y-100353318D01*
X151027933Y-100353318D01*
X151042040Y-100354110D01*
X151048777Y-100354869D01*
X151140421Y-100365195D01*
X151167928Y-100371474D01*
X151278407Y-100410132D01*
X151303820Y-100422369D01*
X151402943Y-100484651D01*
X151424998Y-100502241D01*
X151507759Y-100585002D01*
X151525349Y-100607057D01*
X151587631Y-100706180D01*
X151599868Y-100731593D01*
X151638526Y-100842072D01*
X151644805Y-100869579D01*
X151655890Y-100967959D01*
X151656682Y-100982067D01*
X151656682Y-100990208D01*
X151655131Y-101000000D01*
X151656682Y-101009792D01*
X151656682Y-101009793D01*
X151657949Y-101017792D01*
X151659500Y-101037503D01*
X151659500Y-102424582D01*
X151639498Y-102492703D01*
X151585842Y-102539196D01*
X151515568Y-102549300D01*
X151450988Y-102519806D01*
X151444482Y-102513755D01*
X151403721Y-102473065D01*
X151403720Y-102473065D01*
X151396350Y-102465707D01*
X151385993Y-102460644D01*
X151327260Y-102431935D01*
X151291518Y-102414464D01*
X151261027Y-102410016D01*
X151227744Y-102405160D01*
X151227740Y-102405160D01*
X151223218Y-102404500D01*
X149456782Y-102404500D01*
X149452232Y-102405170D01*
X149452229Y-102405170D01*
X149397574Y-102413216D01*
X149397573Y-102413216D01*
X149387888Y-102414642D01*
X149366661Y-102425064D01*
X149292493Y-102461478D01*
X149292491Y-102461479D01*
X149283145Y-102466068D01*
X149252658Y-102496608D01*
X149210145Y-102539196D01*
X149200707Y-102548650D01*
X149149464Y-102653482D01*
X149139500Y-102721782D01*
X149139500Y-103980269D01*
X149119498Y-104048390D01*
X149065842Y-104094883D01*
X148995568Y-104104987D01*
X148931282Y-104075627D01*
X148928282Y-104071718D01*
X148921537Y-104066542D01*
X148869753Y-104026807D01*
X148802841Y-103975464D01*
X148656762Y-103914956D01*
X148640295Y-103912788D01*
X148543159Y-103900000D01*
X148500000Y-103894318D01*
X148456841Y-103900000D01*
X148359706Y-103912788D01*
X148343238Y-103914956D01*
X148197159Y-103975464D01*
X148190608Y-103980491D01*
X148187999Y-103981997D01*
X148119003Y-103998734D01*
X148062001Y-103981997D01*
X148059392Y-103980491D01*
X148052841Y-103975464D01*
X147906762Y-103914956D01*
X147890295Y-103912788D01*
X147793159Y-103900000D01*
X147750000Y-103894318D01*
X147706841Y-103900000D01*
X147609706Y-103912788D01*
X147593238Y-103914956D01*
X147447159Y-103975464D01*
X147440608Y-103980491D01*
X147437999Y-103981997D01*
X147369003Y-103998734D01*
X147312001Y-103981997D01*
X147309392Y-103980491D01*
X147302841Y-103975464D01*
X147156762Y-103914956D01*
X147140295Y-103912788D01*
X147043159Y-103900000D01*
X147000000Y-103894318D01*
X146956841Y-103900000D01*
X146859706Y-103912788D01*
X146843238Y-103914956D01*
X146697159Y-103975464D01*
X146690608Y-103980491D01*
X146687999Y-103981997D01*
X146619003Y-103998734D01*
X146562001Y-103981997D01*
X146559392Y-103980491D01*
X146552841Y-103975464D01*
X146406762Y-103914956D01*
X146390295Y-103912788D01*
X146293159Y-103900000D01*
X146250000Y-103894318D01*
X146206841Y-103900000D01*
X146109706Y-103912788D01*
X146093238Y-103914956D01*
X145947159Y-103975464D01*
X145940608Y-103980491D01*
X145937999Y-103981997D01*
X145869003Y-103998734D01*
X145812001Y-103981997D01*
X145809392Y-103980491D01*
X145802841Y-103975464D01*
X145656762Y-103914956D01*
X145640295Y-103912788D01*
X145543159Y-103900000D01*
X145500000Y-103894318D01*
X145456841Y-103900000D01*
X145359706Y-103912788D01*
X145343238Y-103914956D01*
X145197159Y-103975464D01*
X145190608Y-103980491D01*
X145187999Y-103981997D01*
X145119003Y-103998734D01*
X145062001Y-103981997D01*
X145059392Y-103980491D01*
X145052841Y-103975464D01*
X144906762Y-103914956D01*
X144890295Y-103912788D01*
X144793159Y-103900000D01*
X144750000Y-103894318D01*
X144706841Y-103900000D01*
X144609706Y-103912788D01*
X144593238Y-103914956D01*
X144447159Y-103975464D01*
X144440608Y-103980491D01*
X144437999Y-103981997D01*
X144369003Y-103998734D01*
X144312001Y-103981997D01*
X144309392Y-103980491D01*
X144302841Y-103975464D01*
X144156762Y-103914956D01*
X144140295Y-103912788D01*
X144043159Y-103900000D01*
X144000000Y-103894318D01*
X143956841Y-103900000D01*
X143859706Y-103912788D01*
X143843238Y-103914956D01*
X143697159Y-103975464D01*
X143690608Y-103980491D01*
X143687999Y-103981997D01*
X143619003Y-103998734D01*
X143562001Y-103981997D01*
X143559392Y-103980491D01*
X143552841Y-103975464D01*
X143406762Y-103914956D01*
X143390295Y-103912788D01*
X143293159Y-103900000D01*
X143250000Y-103894318D01*
X143206841Y-103900000D01*
X143109706Y-103912788D01*
X143093238Y-103914956D01*
X142947159Y-103975464D01*
X142880247Y-104026807D01*
X142828464Y-104066542D01*
X142821718Y-104071718D01*
X142725464Y-104197159D01*
X142664956Y-104343238D01*
X142663878Y-104351426D01*
X142655910Y-104411953D01*
X142644318Y-104500000D01*
X142664956Y-104656762D01*
X142668116Y-104664391D01*
X142668560Y-104665464D01*
X142725464Y-104802841D01*
X142730491Y-104809392D01*
X142731997Y-104812001D01*
X142748734Y-104880997D01*
X142731997Y-104937999D01*
X142730491Y-104940608D01*
X142725464Y-104947159D01*
X142664956Y-105093238D01*
X142662346Y-105092157D01*
X142632571Y-105141024D01*
X142592409Y-105162953D01*
X142593238Y-105164956D01*
X142447159Y-105225464D01*
X142392249Y-105267598D01*
X142329719Y-105315579D01*
X142321718Y-105321718D01*
X142316695Y-105328264D01*
X142310930Y-105335777D01*
X142225464Y-105447159D01*
X142164956Y-105593238D01*
X142162346Y-105592157D01*
X142132571Y-105641024D01*
X142092409Y-105662953D01*
X142093238Y-105664956D01*
X141947159Y-105725464D01*
X141889758Y-105769509D01*
X141834580Y-105811849D01*
X141821718Y-105821718D01*
X141725464Y-105947159D01*
X141664956Y-106093238D01*
X141644318Y-106250000D01*
X141664956Y-106406762D01*
X141725464Y-106552841D01*
X141730491Y-106559392D01*
X141731997Y-106562001D01*
X141748734Y-106630997D01*
X141731997Y-106687999D01*
X141730491Y-106690608D01*
X141725464Y-106697159D01*
X141664956Y-106843238D01*
X141662346Y-106842157D01*
X141632571Y-106891024D01*
X141592409Y-106912953D01*
X141593238Y-106914956D01*
X141447159Y-106975464D01*
X141321718Y-107071718D01*
X141225464Y-107197159D01*
X141164956Y-107343238D01*
X141163878Y-107351426D01*
X141159161Y-107387256D01*
X141144318Y-107500000D01*
X141164956Y-107656762D01*
X141225464Y-107802841D01*
X141272605Y-107864276D01*
X141304822Y-107906262D01*
X141321718Y-107928282D01*
X141328264Y-107933305D01*
X141350674Y-107950501D01*
X141447159Y-108024536D01*
X141593238Y-108085044D01*
X141750000Y-108105682D01*
X141758188Y-108104604D01*
X141898574Y-108086122D01*
X141906762Y-108085044D01*
X142052841Y-108024536D01*
X142149326Y-107950501D01*
X142171736Y-107933305D01*
X142178282Y-107928282D01*
X142195179Y-107906262D01*
X142227395Y-107864276D01*
X142274536Y-107802841D01*
X142335044Y-107656762D01*
X142337654Y-107657843D01*
X142367429Y-107608976D01*
X142407591Y-107587047D01*
X142406762Y-107585044D01*
X142429540Y-107575609D01*
X142552841Y-107524536D01*
X142678282Y-107428282D01*
X142686219Y-107417939D01*
X142735716Y-107353432D01*
X142774536Y-107302841D01*
X142835044Y-107156762D01*
X142855682Y-107000000D01*
X142838328Y-106868180D01*
X142836122Y-106851426D01*
X142835044Y-106843238D01*
X142774536Y-106697159D01*
X142769509Y-106690608D01*
X142768003Y-106687999D01*
X142751266Y-106619003D01*
X142768003Y-106562001D01*
X142769509Y-106559392D01*
X142774536Y-106552841D01*
X142835044Y-106406762D01*
X142837654Y-106407843D01*
X142867429Y-106358976D01*
X142907591Y-106337047D01*
X142906762Y-106335044D01*
X143005964Y-106293953D01*
X143052841Y-106274536D01*
X143178282Y-106178282D01*
X143274536Y-106052841D01*
X143335044Y-105906762D01*
X143337654Y-105907843D01*
X143367429Y-105858976D01*
X143407591Y-105837047D01*
X143406762Y-105835044D01*
X143423488Y-105828116D01*
X143552841Y-105774536D01*
X143678282Y-105678282D01*
X143774536Y-105552841D01*
X143835044Y-105406762D01*
X143855682Y-105250000D01*
X143854604Y-105241812D01*
X143854604Y-105233554D01*
X143857269Y-105233554D01*
X143866178Y-105176447D01*
X143913309Y-105123352D01*
X143981665Y-105104166D01*
X143987788Y-105104604D01*
X143991812Y-105104604D01*
X144000000Y-105105682D01*
X144008188Y-105104604D01*
X144148574Y-105086122D01*
X144156762Y-105085044D01*
X144302841Y-105024536D01*
X144309392Y-105019509D01*
X144312001Y-105018003D01*
X144380997Y-105001266D01*
X144437999Y-105018003D01*
X144440608Y-105019509D01*
X144447159Y-105024536D01*
X144593238Y-105085044D01*
X144601426Y-105086122D01*
X144647267Y-105092157D01*
X144750000Y-105105682D01*
X144758188Y-105104604D01*
X144898574Y-105086122D01*
X144906762Y-105085044D01*
X145052841Y-105024536D01*
X145059392Y-105019509D01*
X145062001Y-105018003D01*
X145130997Y-105001266D01*
X145187999Y-105018003D01*
X145190608Y-105019509D01*
X145197159Y-105024536D01*
X145343238Y-105085044D01*
X145351426Y-105086122D01*
X145397267Y-105092157D01*
X145500000Y-105105682D01*
X145508188Y-105104604D01*
X145648574Y-105086122D01*
X145656762Y-105085044D01*
X145802841Y-105024536D01*
X145809392Y-105019509D01*
X145812001Y-105018003D01*
X145880997Y-105001266D01*
X145937999Y-105018003D01*
X145940608Y-105019509D01*
X145947159Y-105024536D01*
X146093238Y-105085044D01*
X146101426Y-105086122D01*
X146147267Y-105092157D01*
X146250000Y-105105682D01*
X146258188Y-105104604D01*
X146398574Y-105086122D01*
X146406762Y-105085044D01*
X146552841Y-105024536D01*
X146559392Y-105019509D01*
X146562001Y-105018003D01*
X146630997Y-105001266D01*
X146687999Y-105018003D01*
X146690608Y-105019509D01*
X146697159Y-105024536D01*
X146843238Y-105085044D01*
X146851426Y-105086122D01*
X146897267Y-105092157D01*
X147000000Y-105105682D01*
X147008188Y-105104604D01*
X147148574Y-105086122D01*
X147156762Y-105085044D01*
X147302841Y-105024536D01*
X147309392Y-105019509D01*
X147312001Y-105018003D01*
X147380997Y-105001266D01*
X147437999Y-105018003D01*
X147440608Y-105019509D01*
X147447159Y-105024536D01*
X147593238Y-105085044D01*
X147601426Y-105086122D01*
X147647267Y-105092157D01*
X147750000Y-105105682D01*
X147758188Y-105104604D01*
X147898574Y-105086122D01*
X147906762Y-105085044D01*
X148052841Y-105024536D01*
X148059392Y-105019509D01*
X148062001Y-105018003D01*
X148130997Y-105001266D01*
X148187999Y-105018003D01*
X148190608Y-105019509D01*
X148197159Y-105024536D01*
X148343238Y-105085044D01*
X148351426Y-105086122D01*
X148397267Y-105092157D01*
X148500000Y-105105682D01*
X148508188Y-105104604D01*
X148648574Y-105086122D01*
X148656762Y-105085044D01*
X148802841Y-105024536D01*
X148928282Y-104928282D01*
X148935081Y-104919422D01*
X149014665Y-104815705D01*
X149024536Y-104802841D01*
X149045397Y-104752478D01*
X149089946Y-104697198D01*
X149157310Y-104674777D01*
X149226101Y-104692336D01*
X149250823Y-104711523D01*
X149283650Y-104744293D01*
X149293006Y-104748866D01*
X149293007Y-104748867D01*
X149309022Y-104756695D01*
X149388482Y-104795536D01*
X149418973Y-104799984D01*
X149452256Y-104804840D01*
X149452260Y-104804840D01*
X149456782Y-104805500D01*
X151223218Y-104805500D01*
X151227768Y-104804830D01*
X151227771Y-104804830D01*
X151282426Y-104796784D01*
X151282427Y-104796784D01*
X151292112Y-104795358D01*
X151379449Y-104752478D01*
X151387507Y-104748522D01*
X151387509Y-104748521D01*
X151396855Y-104743932D01*
X151444327Y-104696377D01*
X151506609Y-104662298D01*
X151577429Y-104667301D01*
X151634302Y-104709798D01*
X151659171Y-104776296D01*
X151659500Y-104785395D01*
X151659500Y-107038069D01*
X151639498Y-107106190D01*
X151585842Y-107152683D01*
X151515568Y-107162787D01*
X151461948Y-107141295D01*
X151456350Y-107135707D01*
X151351518Y-107084464D01*
X151321027Y-107080016D01*
X151287744Y-107075160D01*
X151287740Y-107075160D01*
X151283218Y-107074500D01*
X149516782Y-107074500D01*
X149512232Y-107075170D01*
X149512229Y-107075170D01*
X149457574Y-107083216D01*
X149457573Y-107083216D01*
X149447888Y-107084642D01*
X149410821Y-107102841D01*
X149352493Y-107131478D01*
X149352491Y-107131479D01*
X149343145Y-107136068D01*
X149335787Y-107143438D01*
X149335788Y-107143438D01*
X149282161Y-107197159D01*
X149260707Y-107218650D01*
X149256134Y-107228006D01*
X149256133Y-107228007D01*
X149247812Y-107245031D01*
X149209464Y-107323482D01*
X149208052Y-107333162D01*
X149200253Y-107386623D01*
X149199500Y-107391782D01*
X149199500Y-109158218D01*
X149200170Y-109162768D01*
X149200170Y-109162771D01*
X149208206Y-109217359D01*
X149209642Y-109227112D01*
X149225794Y-109260009D01*
X149254160Y-109317784D01*
X149261068Y-109331855D01*
X149343650Y-109414293D01*
X149353006Y-109418866D01*
X149353007Y-109418867D01*
X149372268Y-109428282D01*
X149448482Y-109465536D01*
X149478973Y-109469984D01*
X149512256Y-109474840D01*
X149512260Y-109474840D01*
X149516782Y-109475500D01*
X149856570Y-109475500D01*
X149924691Y-109495502D01*
X149971184Y-109549158D01*
X149981288Y-109619432D01*
X149951794Y-109684012D01*
X149900180Y-109719712D01*
X149891382Y-109722958D01*
X149880957Y-109726804D01*
X149875996Y-109729756D01*
X149875995Y-109729756D01*
X149749596Y-109804956D01*
X149691341Y-109839614D01*
X149525457Y-109985090D01*
X149430391Y-110105682D01*
X149411252Y-110129960D01*
X149388863Y-110158360D01*
X149286131Y-110353620D01*
X149220703Y-110564333D01*
X149194770Y-110783440D01*
X149209200Y-111003604D01*
X149210621Y-111009200D01*
X149210622Y-111009205D01*
X149258584Y-111198051D01*
X149263511Y-111217452D01*
X149265928Y-111222694D01*
X149265928Y-111222695D01*
X149310700Y-111319812D01*
X149355883Y-111417821D01*
X149483222Y-111598002D01*
X149641264Y-111751961D01*
X149646060Y-111755166D01*
X149646063Y-111755168D01*
X149739530Y-111817620D01*
X149824717Y-111874540D01*
X149830020Y-111876818D01*
X149830023Y-111876820D01*
X149990963Y-111945965D01*
X150027436Y-111961635D01*
X150033071Y-111962910D01*
X150033074Y-111962911D01*
X150034484Y-111963230D01*
X150035083Y-111963564D01*
X150038562Y-111964694D01*
X150038340Y-111965377D01*
X150096511Y-111997772D01*
X150130016Y-112060366D01*
X150124362Y-112131137D01*
X150081344Y-112187616D01*
X150050287Y-112204335D01*
X149886376Y-112264804D01*
X149886368Y-112264808D01*
X149880957Y-112266804D01*
X149875996Y-112269756D01*
X149875995Y-112269756D01*
X149752872Y-112343007D01*
X149691341Y-112379614D01*
X149525457Y-112525090D01*
X149388863Y-112698360D01*
X149286131Y-112893620D01*
X149220703Y-113104333D01*
X149194770Y-113323440D01*
X149209200Y-113543604D01*
X149210621Y-113549200D01*
X149210622Y-113549205D01*
X149258180Y-113736460D01*
X149263511Y-113757452D01*
X149265928Y-113762694D01*
X149265928Y-113762695D01*
X149326488Y-113894059D01*
X149355883Y-113957821D01*
X149483222Y-114138002D01*
X149641264Y-114291961D01*
X149646060Y-114295166D01*
X149646063Y-114295168D01*
X149819917Y-114411333D01*
X149823577Y-114413778D01*
X149824717Y-114414540D01*
X149824567Y-114414764D01*
X149872885Y-114462853D01*
X149888141Y-114532191D01*
X149863488Y-114598770D01*
X149806753Y-114641451D01*
X149762441Y-114649500D01*
X148328448Y-114649500D01*
X148260327Y-114629498D01*
X148213834Y-114575842D01*
X148203730Y-114505568D01*
X148233224Y-114440988D01*
X148266877Y-114413569D01*
X148382884Y-114348602D01*
X148390688Y-114342112D01*
X148548086Y-114211204D01*
X148552518Y-114207518D01*
X148587090Y-114165950D01*
X148689908Y-114042326D01*
X148689910Y-114042323D01*
X148693602Y-114037884D01*
X148775406Y-113891812D01*
X148798586Y-113850422D01*
X148798587Y-113850420D01*
X148801410Y-113845379D01*
X148803266Y-113839912D01*
X148803268Y-113839907D01*
X148870475Y-113641921D01*
X148870476Y-113641916D01*
X148872331Y-113636452D01*
X148873159Y-113630743D01*
X148873160Y-113630738D01*
X148898916Y-113453098D01*
X148903991Y-113418098D01*
X148905643Y-113355000D01*
X148885454Y-113135289D01*
X148825565Y-112922936D01*
X148727980Y-112725053D01*
X148718718Y-112712649D01*
X148599420Y-112552891D01*
X148599420Y-112552890D01*
X148595967Y-112548267D01*
X148464953Y-112427159D01*
X148438189Y-112402418D01*
X148438186Y-112402416D01*
X148433949Y-112398499D01*
X148247350Y-112280764D01*
X148044955Y-112200017D01*
X147989096Y-112156196D01*
X147965795Y-112089132D01*
X147982451Y-112020117D01*
X148033775Y-111971063D01*
X148051144Y-111963674D01*
X148184907Y-111918268D01*
X148184912Y-111918266D01*
X148190379Y-111916410D01*
X148382884Y-111808602D01*
X148394264Y-111799138D01*
X148548086Y-111671204D01*
X148552518Y-111667518D01*
X148621326Y-111584786D01*
X148689908Y-111502326D01*
X148689910Y-111502323D01*
X148693602Y-111497884D01*
X148801410Y-111305379D01*
X148803266Y-111299912D01*
X148803268Y-111299907D01*
X148870475Y-111101921D01*
X148870476Y-111101916D01*
X148872331Y-111096452D01*
X148873159Y-111090743D01*
X148873160Y-111090738D01*
X148897722Y-110921332D01*
X148903991Y-110878098D01*
X148905643Y-110815000D01*
X148885454Y-110595289D01*
X148881004Y-110579508D01*
X148845014Y-110451898D01*
X148825565Y-110382936D01*
X148727980Y-110185053D01*
X148660892Y-110095211D01*
X148599420Y-110012891D01*
X148599420Y-110012890D01*
X148595967Y-110008267D01*
X148498586Y-109918249D01*
X148438189Y-109862418D01*
X148438186Y-109862416D01*
X148433949Y-109858499D01*
X148247350Y-109740764D01*
X148207348Y-109724805D01*
X148191620Y-109718530D01*
X148135760Y-109674709D01*
X148112460Y-109607645D01*
X148129116Y-109538630D01*
X148180440Y-109489576D01*
X148238310Y-109475500D01*
X148583218Y-109475500D01*
X148587768Y-109474830D01*
X148587771Y-109474830D01*
X148642426Y-109466784D01*
X148642427Y-109466784D01*
X148652112Y-109465358D01*
X148702008Y-109440860D01*
X148747507Y-109418522D01*
X148747509Y-109418521D01*
X148756855Y-109413932D01*
X148825913Y-109344753D01*
X148831935Y-109338721D01*
X148831935Y-109338720D01*
X148839293Y-109331350D01*
X148890536Y-109226518D01*
X148898310Y-109173233D01*
X148899840Y-109162744D01*
X148899840Y-109162740D01*
X148900500Y-109158218D01*
X148900500Y-107391782D01*
X148895360Y-107356862D01*
X148891784Y-107332574D01*
X148891784Y-107332573D01*
X148890358Y-107322888D01*
X148854778Y-107250420D01*
X148843522Y-107227493D01*
X148843521Y-107227491D01*
X148838932Y-107218145D01*
X148769660Y-107148994D01*
X148763721Y-107143065D01*
X148763720Y-107143065D01*
X148756350Y-107135707D01*
X148651518Y-107084464D01*
X148621027Y-107080016D01*
X148587744Y-107075160D01*
X148587740Y-107075160D01*
X148583218Y-107074500D01*
X146816782Y-107074500D01*
X146812232Y-107075170D01*
X146812229Y-107075170D01*
X146757574Y-107083216D01*
X146757573Y-107083216D01*
X146747888Y-107084642D01*
X146710821Y-107102841D01*
X146652493Y-107131478D01*
X146652491Y-107131479D01*
X146643145Y-107136068D01*
X146635787Y-107143438D01*
X146635788Y-107143438D01*
X146582161Y-107197159D01*
X146560707Y-107218650D01*
X146556134Y-107228006D01*
X146556133Y-107228007D01*
X146547812Y-107245031D01*
X146509464Y-107323482D01*
X146508052Y-107333162D01*
X146500253Y-107386623D01*
X146499500Y-107391782D01*
X146499500Y-109158218D01*
X146500170Y-109162768D01*
X146500170Y-109162771D01*
X146508206Y-109217359D01*
X146509642Y-109227112D01*
X146525794Y-109260009D01*
X146554160Y-109317784D01*
X146561068Y-109331855D01*
X146643650Y-109414293D01*
X146653006Y-109418866D01*
X146653007Y-109418867D01*
X146672268Y-109428282D01*
X146748482Y-109465536D01*
X146778973Y-109469984D01*
X146812256Y-109474840D01*
X146812260Y-109474840D01*
X146816782Y-109475500D01*
X147156570Y-109475500D01*
X147224691Y-109495502D01*
X147271184Y-109549158D01*
X147281288Y-109619432D01*
X147251794Y-109684012D01*
X147200180Y-109719712D01*
X147191382Y-109722958D01*
X147180957Y-109726804D01*
X147175996Y-109729756D01*
X147175995Y-109729756D01*
X147049596Y-109804956D01*
X146991341Y-109839614D01*
X146825457Y-109985090D01*
X146730391Y-110105682D01*
X146711252Y-110129960D01*
X146688863Y-110158360D01*
X146586131Y-110353620D01*
X146520703Y-110564333D01*
X146494770Y-110783440D01*
X146509200Y-111003604D01*
X146510621Y-111009200D01*
X146510622Y-111009205D01*
X146558584Y-111198051D01*
X146563511Y-111217452D01*
X146565928Y-111222694D01*
X146565928Y-111222695D01*
X146610700Y-111319812D01*
X146655883Y-111417821D01*
X146783222Y-111598002D01*
X146941264Y-111751961D01*
X146946060Y-111755166D01*
X146946063Y-111755168D01*
X147039530Y-111817620D01*
X147124717Y-111874540D01*
X147130020Y-111876818D01*
X147130023Y-111876820D01*
X147290963Y-111945965D01*
X147327436Y-111961635D01*
X147333071Y-111962910D01*
X147333074Y-111962911D01*
X147334484Y-111963230D01*
X147335083Y-111963564D01*
X147338562Y-111964694D01*
X147338340Y-111965377D01*
X147396511Y-111997772D01*
X147430016Y-112060366D01*
X147424362Y-112131137D01*
X147381344Y-112187616D01*
X147350287Y-112204335D01*
X147186376Y-112264804D01*
X147186368Y-112264808D01*
X147180957Y-112266804D01*
X147175996Y-112269756D01*
X147175995Y-112269756D01*
X147052872Y-112343007D01*
X146991341Y-112379614D01*
X146825457Y-112525090D01*
X146688863Y-112698360D01*
X146586131Y-112893620D01*
X146520703Y-113104333D01*
X146494770Y-113323440D01*
X146509200Y-113543604D01*
X146510621Y-113549200D01*
X146510622Y-113549205D01*
X146558180Y-113736460D01*
X146563511Y-113757452D01*
X146565928Y-113762694D01*
X146565928Y-113762695D01*
X146626488Y-113894059D01*
X146655883Y-113957821D01*
X146783222Y-114138002D01*
X146941264Y-114291961D01*
X146946060Y-114295166D01*
X146946063Y-114295168D01*
X147119917Y-114411333D01*
X147123577Y-114413778D01*
X147124717Y-114414540D01*
X147124567Y-114414764D01*
X147172885Y-114462853D01*
X147188141Y-114532191D01*
X147163488Y-114598770D01*
X147106753Y-114641451D01*
X147062441Y-114649500D01*
X145628448Y-114649500D01*
X145560327Y-114629498D01*
X145513834Y-114575842D01*
X145503730Y-114505568D01*
X145533224Y-114440988D01*
X145566877Y-114413569D01*
X145682884Y-114348602D01*
X145690688Y-114342112D01*
X145848086Y-114211204D01*
X145852518Y-114207518D01*
X145887090Y-114165950D01*
X145989908Y-114042326D01*
X145989910Y-114042323D01*
X145993602Y-114037884D01*
X146075406Y-113891812D01*
X146098586Y-113850422D01*
X146098587Y-113850420D01*
X146101410Y-113845379D01*
X146103266Y-113839912D01*
X146103268Y-113839907D01*
X146170475Y-113641921D01*
X146170476Y-113641916D01*
X146172331Y-113636452D01*
X146173159Y-113630743D01*
X146173160Y-113630738D01*
X146198916Y-113453098D01*
X146203991Y-113418098D01*
X146205643Y-113355000D01*
X146185454Y-113135289D01*
X146125565Y-112922936D01*
X146027980Y-112725053D01*
X146018718Y-112712649D01*
X145899420Y-112552891D01*
X145899420Y-112552890D01*
X145895967Y-112548267D01*
X145764953Y-112427159D01*
X145738189Y-112402418D01*
X145738186Y-112402416D01*
X145733949Y-112398499D01*
X145547350Y-112280764D01*
X145344955Y-112200017D01*
X145289096Y-112156196D01*
X145265795Y-112089132D01*
X145282451Y-112020117D01*
X145333775Y-111971063D01*
X145351144Y-111963674D01*
X145484907Y-111918268D01*
X145484912Y-111918266D01*
X145490379Y-111916410D01*
X145682884Y-111808602D01*
X145694264Y-111799138D01*
X145848086Y-111671204D01*
X145852518Y-111667518D01*
X145921326Y-111584786D01*
X145989908Y-111502326D01*
X145989910Y-111502323D01*
X145993602Y-111497884D01*
X146101410Y-111305379D01*
X146103266Y-111299912D01*
X146103268Y-111299907D01*
X146170475Y-111101921D01*
X146170476Y-111101916D01*
X146172331Y-111096452D01*
X146173159Y-111090743D01*
X146173160Y-111090738D01*
X146197722Y-110921332D01*
X146203991Y-110878098D01*
X146205643Y-110815000D01*
X146185454Y-110595289D01*
X146181004Y-110579508D01*
X146145014Y-110451898D01*
X146125565Y-110382936D01*
X146027980Y-110185053D01*
X145960892Y-110095211D01*
X145899420Y-110012891D01*
X145899420Y-110012890D01*
X145895967Y-110008267D01*
X145798586Y-109918249D01*
X145738189Y-109862418D01*
X145738186Y-109862416D01*
X145733949Y-109858499D01*
X145547350Y-109740764D01*
X145507348Y-109724805D01*
X145491620Y-109718530D01*
X145435760Y-109674709D01*
X145412460Y-109607645D01*
X145429116Y-109538630D01*
X145480440Y-109489576D01*
X145538310Y-109475500D01*
X145883218Y-109475500D01*
X145887768Y-109474830D01*
X145887771Y-109474830D01*
X145942426Y-109466784D01*
X145942427Y-109466784D01*
X145952112Y-109465358D01*
X146002008Y-109440860D01*
X146047507Y-109418522D01*
X146047509Y-109418521D01*
X146056855Y-109413932D01*
X146125913Y-109344753D01*
X146131935Y-109338721D01*
X146131935Y-109338720D01*
X146139293Y-109331350D01*
X146190536Y-109226518D01*
X146198310Y-109173233D01*
X146199840Y-109162744D01*
X146199840Y-109162740D01*
X146200500Y-109158218D01*
X146200500Y-107391782D01*
X146195360Y-107356862D01*
X146191784Y-107332574D01*
X146191784Y-107332573D01*
X146190358Y-107322888D01*
X146154778Y-107250420D01*
X146143522Y-107227493D01*
X146143521Y-107227491D01*
X146138932Y-107218145D01*
X146069660Y-107148994D01*
X146063721Y-107143065D01*
X146063720Y-107143065D01*
X146056350Y-107135707D01*
X145951518Y-107084464D01*
X145921027Y-107080016D01*
X145887744Y-107075160D01*
X145887740Y-107075160D01*
X145883218Y-107074500D01*
X144116782Y-107074500D01*
X144112232Y-107075170D01*
X144112229Y-107075170D01*
X144057574Y-107083216D01*
X144057573Y-107083216D01*
X144047888Y-107084642D01*
X144010821Y-107102841D01*
X143952493Y-107131478D01*
X143952491Y-107131479D01*
X143943145Y-107136068D01*
X143935787Y-107143438D01*
X143935788Y-107143438D01*
X143882161Y-107197159D01*
X143860707Y-107218650D01*
X143856134Y-107228006D01*
X143856133Y-107228007D01*
X143847812Y-107245031D01*
X143809464Y-107323482D01*
X143808052Y-107333162D01*
X143800253Y-107386623D01*
X143799500Y-107391782D01*
X143799500Y-109158218D01*
X143800170Y-109162768D01*
X143800170Y-109162771D01*
X143808206Y-109217359D01*
X143809642Y-109227112D01*
X143825794Y-109260009D01*
X143854160Y-109317784D01*
X143861068Y-109331855D01*
X143943650Y-109414293D01*
X143953006Y-109418866D01*
X143953007Y-109418867D01*
X143972268Y-109428282D01*
X144048482Y-109465536D01*
X144078973Y-109469984D01*
X144112256Y-109474840D01*
X144112260Y-109474840D01*
X144116782Y-109475500D01*
X144456570Y-109475500D01*
X144524691Y-109495502D01*
X144571184Y-109549158D01*
X144581288Y-109619432D01*
X144551794Y-109684012D01*
X144500180Y-109719712D01*
X144491382Y-109722958D01*
X144480957Y-109726804D01*
X144475996Y-109729756D01*
X144475995Y-109729756D01*
X144349596Y-109804956D01*
X144291341Y-109839614D01*
X144125457Y-109985090D01*
X144030391Y-110105682D01*
X144011252Y-110129960D01*
X143988863Y-110158360D01*
X143933077Y-110264391D01*
X143915832Y-110297168D01*
X143866413Y-110348140D01*
X143804324Y-110364500D01*
X140102813Y-110364500D01*
X140034692Y-110344498D01*
X140013718Y-110327595D01*
X139531162Y-109845039D01*
X139497136Y-109782727D01*
X139495335Y-109772389D01*
X139489723Y-109729756D01*
X139485044Y-109694218D01*
X139424536Y-109548139D01*
X139387598Y-109500000D01*
X139794318Y-109500000D01*
X139814956Y-109656762D01*
X139875464Y-109802841D01*
X139971718Y-109928282D01*
X139978264Y-109933305D01*
X139998163Y-109948574D01*
X140097159Y-110024536D01*
X140224202Y-110077159D01*
X140232529Y-110080608D01*
X140243238Y-110085044D01*
X140400000Y-110105682D01*
X140408188Y-110104604D01*
X140421580Y-110102841D01*
X140556762Y-110085044D01*
X140567472Y-110080608D01*
X140575798Y-110077159D01*
X140702841Y-110024536D01*
X140801837Y-109948574D01*
X140821736Y-109933305D01*
X140828282Y-109928282D01*
X140924536Y-109802841D01*
X140985044Y-109656762D01*
X141005682Y-109500000D01*
X140985044Y-109343238D01*
X140924536Y-109197159D01*
X140856059Y-109107918D01*
X140833305Y-109078264D01*
X140828282Y-109071718D01*
X140702841Y-108975464D01*
X140556762Y-108914956D01*
X140400000Y-108894318D01*
X140243238Y-108914956D01*
X140097159Y-108975464D01*
X139971718Y-109071718D01*
X139966695Y-109078264D01*
X139943941Y-109107918D01*
X139875464Y-109197159D01*
X139814956Y-109343238D01*
X139794318Y-109500000D01*
X139387598Y-109500000D01*
X139328282Y-109422698D01*
X139202841Y-109326444D01*
X139056762Y-109265936D01*
X139045027Y-109264391D01*
X138908188Y-109246376D01*
X138900000Y-109245298D01*
X138891812Y-109246376D01*
X138754974Y-109264391D01*
X138743238Y-109265936D01*
X138735611Y-109269095D01*
X138735608Y-109269096D01*
X138654703Y-109302608D01*
X138584113Y-109310197D01*
X138520626Y-109278417D01*
X138484399Y-109217359D01*
X138484756Y-109157457D01*
X138485044Y-109156762D01*
X138495379Y-109078264D01*
X138504604Y-109008188D01*
X138505682Y-109000000D01*
X138485044Y-108843238D01*
X138424536Y-108697159D01*
X138328282Y-108571718D01*
X138312331Y-108559478D01*
X138278699Y-108533672D01*
X138202841Y-108475464D01*
X138056762Y-108414956D01*
X137996695Y-108407048D01*
X137960569Y-108402292D01*
X137900000Y-108394318D01*
X137839431Y-108402292D01*
X137803306Y-108407048D01*
X137743238Y-108414956D01*
X137597159Y-108475464D01*
X137521301Y-108533672D01*
X137487670Y-108559478D01*
X137471718Y-108571718D01*
X137375464Y-108697159D01*
X137314956Y-108843238D01*
X137294318Y-109000000D01*
X137314956Y-109156762D01*
X137375464Y-109302841D01*
X137413478Y-109352382D01*
X137457282Y-109409468D01*
X137471718Y-109428282D01*
X137597159Y-109524536D01*
X137743238Y-109585044D01*
X137751426Y-109586122D01*
X137821619Y-109595363D01*
X137900000Y-109605682D01*
X137908188Y-109604604D01*
X138048574Y-109586122D01*
X138056762Y-109585044D01*
X138064389Y-109581885D01*
X138064392Y-109581884D01*
X138145297Y-109548372D01*
X138215887Y-109540783D01*
X138279374Y-109572563D01*
X138315601Y-109633621D01*
X138315244Y-109693523D01*
X138314956Y-109694218D01*
X138313879Y-109702402D01*
X138313878Y-109702404D01*
X138301660Y-109795211D01*
X138294318Y-109850980D01*
X138314956Y-110007742D01*
X138375464Y-110153821D01*
X138471718Y-110279262D01*
X138597159Y-110375516D01*
X138743238Y-110436024D01*
X138821410Y-110446315D01*
X138886337Y-110475037D01*
X138894059Y-110482142D01*
X139521267Y-111109350D01*
X139531121Y-111120439D01*
X139546155Y-111139508D01*
X139552148Y-111147110D01*
X139559895Y-111152465D01*
X139559897Y-111152466D01*
X139575211Y-111163050D01*
X139595130Y-111176816D01*
X139600395Y-111180455D01*
X139603617Y-111182757D01*
X139643015Y-111211857D01*
X139650836Y-111217634D01*
X139657652Y-111220027D01*
X139663589Y-111224131D01*
X139672569Y-111226971D01*
X139672571Y-111226972D01*
X139692737Y-111233350D01*
X139719539Y-111241826D01*
X139723270Y-111243071D01*
X139769757Y-111259396D01*
X139769759Y-111259396D01*
X139778651Y-111262519D01*
X139785839Y-111262801D01*
X139785898Y-111262812D01*
X139792750Y-111264980D01*
X139799357Y-111265500D01*
X139852036Y-111265500D01*
X139856982Y-111265597D01*
X139914014Y-111267838D01*
X139921120Y-111265954D01*
X139929364Y-111265500D01*
X143805004Y-111265500D01*
X143873125Y-111285502D01*
X143919430Y-111338749D01*
X143955883Y-111417821D01*
X144083222Y-111598002D01*
X144241264Y-111751961D01*
X144246060Y-111755166D01*
X144246063Y-111755168D01*
X144339530Y-111817620D01*
X144424717Y-111874540D01*
X144430020Y-111876818D01*
X144430023Y-111876820D01*
X144590963Y-111945965D01*
X144627436Y-111961635D01*
X144633071Y-111962910D01*
X144633074Y-111962911D01*
X144634484Y-111963230D01*
X144635083Y-111963564D01*
X144638562Y-111964694D01*
X144638340Y-111965377D01*
X144696511Y-111997772D01*
X144730016Y-112060366D01*
X144724362Y-112131137D01*
X144681344Y-112187616D01*
X144650287Y-112204335D01*
X144486376Y-112264804D01*
X144486368Y-112264808D01*
X144480957Y-112266804D01*
X144475996Y-112269756D01*
X144475995Y-112269756D01*
X144352872Y-112343007D01*
X144291341Y-112379614D01*
X144125457Y-112525090D01*
X143988863Y-112698360D01*
X143886131Y-112893620D01*
X143820703Y-113104333D01*
X143794770Y-113323440D01*
X143809200Y-113543604D01*
X143810621Y-113549200D01*
X143810622Y-113549205D01*
X143858180Y-113736460D01*
X143863511Y-113757452D01*
X143865928Y-113762694D01*
X143865928Y-113762695D01*
X143926488Y-113894059D01*
X143955883Y-113957821D01*
X144083222Y-114138002D01*
X144241264Y-114291961D01*
X144246060Y-114295166D01*
X144246063Y-114295168D01*
X144419917Y-114411333D01*
X144423577Y-114413778D01*
X144424717Y-114414540D01*
X144424567Y-114414764D01*
X144472885Y-114462853D01*
X144488141Y-114532191D01*
X144463488Y-114598770D01*
X144406753Y-114641451D01*
X144362441Y-114649500D01*
X142156931Y-114649500D01*
X142088810Y-114629498D01*
X142042317Y-114575842D01*
X142032213Y-114505568D01*
X142053705Y-114451948D01*
X142059293Y-114446350D01*
X142110536Y-114341518D01*
X142115853Y-114305070D01*
X142119840Y-114277744D01*
X142119840Y-114277740D01*
X142120500Y-114273218D01*
X142120500Y-112506782D01*
X142111871Y-112448162D01*
X142111784Y-112447574D01*
X142111784Y-112447573D01*
X142110358Y-112437888D01*
X142058932Y-112333145D01*
X141976350Y-112250707D01*
X141954520Y-112240036D01*
X141922652Y-112224459D01*
X141871518Y-112199464D01*
X141841027Y-112195016D01*
X141807744Y-112190160D01*
X141807740Y-112190160D01*
X141803218Y-112189500D01*
X140036782Y-112189500D01*
X140032232Y-112190170D01*
X140032229Y-112190170D01*
X139977574Y-112198216D01*
X139977573Y-112198216D01*
X139967888Y-112199642D01*
X139917992Y-112224140D01*
X139872493Y-112246478D01*
X139872491Y-112246479D01*
X139863145Y-112251068D01*
X139780707Y-112333650D01*
X139729464Y-112438482D01*
X139719500Y-112506782D01*
X139719500Y-112851369D01*
X139699498Y-112919490D01*
X139645842Y-112965983D01*
X139575568Y-112976087D01*
X139510988Y-112946593D01*
X139480494Y-112907097D01*
X139410535Y-112765234D01*
X139410534Y-112765233D01*
X139407980Y-112760053D01*
X139369251Y-112708188D01*
X139279420Y-112587891D01*
X139279420Y-112587890D01*
X139275967Y-112583267D01*
X139159919Y-112475993D01*
X139118189Y-112437418D01*
X139118186Y-112437416D01*
X139113949Y-112433499D01*
X138927350Y-112315764D01*
X138722421Y-112234006D01*
X138716761Y-112232880D01*
X138716757Y-112232879D01*
X138511691Y-112192089D01*
X138511688Y-112192089D01*
X138506024Y-112190962D01*
X138500249Y-112190886D01*
X138500245Y-112190886D01*
X138389504Y-112189437D01*
X138285406Y-112188074D01*
X138279709Y-112189053D01*
X138279708Y-112189053D01*
X138073654Y-112224459D01*
X138073653Y-112224459D01*
X138067957Y-112225438D01*
X137860957Y-112301804D01*
X137855996Y-112304756D01*
X137855995Y-112304756D01*
X137691841Y-112402418D01*
X137671341Y-112414614D01*
X137505457Y-112560090D01*
X137368863Y-112733360D01*
X137266131Y-112928620D01*
X137231414Y-113040428D01*
X137230432Y-113043591D01*
X137191129Y-113102716D01*
X137126100Y-113131207D01*
X137055990Y-113120017D01*
X137003060Y-113072700D01*
X136988830Y-113040428D01*
X136976130Y-112995396D01*
X136965565Y-112957936D01*
X136867980Y-112760053D01*
X136829251Y-112708188D01*
X136739420Y-112587891D01*
X136739420Y-112587890D01*
X136735967Y-112583267D01*
X136619919Y-112475993D01*
X136578189Y-112437418D01*
X136578186Y-112437416D01*
X136573949Y-112433499D01*
X136387350Y-112315764D01*
X136182421Y-112234006D01*
X136176761Y-112232880D01*
X136176757Y-112232879D01*
X135971691Y-112192089D01*
X135971688Y-112192089D01*
X135966024Y-112190962D01*
X135960249Y-112190886D01*
X135960245Y-112190886D01*
X135849504Y-112189437D01*
X135745406Y-112188074D01*
X135739709Y-112189053D01*
X135739708Y-112189053D01*
X135533654Y-112224459D01*
X135533653Y-112224459D01*
X135527957Y-112225438D01*
X135320957Y-112301804D01*
X135315996Y-112304756D01*
X135315995Y-112304756D01*
X135151841Y-112402418D01*
X135131341Y-112414614D01*
X134965457Y-112560090D01*
X134828863Y-112733360D01*
X134786500Y-112813878D01*
X134768589Y-112847921D01*
X134719169Y-112898893D01*
X134650037Y-112915056D01*
X134583141Y-112891277D01*
X134541531Y-112839495D01*
X134502972Y-112750814D01*
X134498105Y-112741739D01*
X134382426Y-112562926D01*
X134376136Y-112554757D01*
X134232806Y-112397240D01*
X134225273Y-112390215D01*
X134058139Y-112258222D01*
X134049552Y-112252517D01*
X133863117Y-112149599D01*
X133853705Y-112145369D01*
X133652959Y-112074280D01*
X133642988Y-112071646D01*
X133571837Y-112058972D01*
X133558540Y-112060432D01*
X133554000Y-112074989D01*
X133554000Y-113518000D01*
X133533998Y-113586121D01*
X133480342Y-113632614D01*
X133428000Y-113644000D01*
X131983225Y-113644000D01*
X131969694Y-113647973D01*
X131968257Y-113657966D01*
X131998565Y-113792446D01*
X132001645Y-113802276D01*
X132015269Y-113835829D01*
X132022365Y-113906471D01*
X131990143Y-113969734D01*
X131928833Y-114005534D01*
X131857901Y-114002504D01*
X131809431Y-113972328D01*
X131801568Y-113964465D01*
X131798138Y-113960899D01*
X131767178Y-113927406D01*
X131759374Y-113918964D01*
X131753015Y-113915271D01*
X131746857Y-113909754D01*
X131731162Y-113894059D01*
X131697136Y-113831747D01*
X131695335Y-113821409D01*
X131686122Y-113751426D01*
X131685044Y-113743238D01*
X131624536Y-113597159D01*
X131545453Y-113494096D01*
X131533305Y-113478264D01*
X131528282Y-113471718D01*
X131499317Y-113449492D01*
X131457450Y-113392156D01*
X131453228Y-113321285D01*
X131487991Y-113259382D01*
X131499317Y-113249567D01*
X131611736Y-113163305D01*
X131611738Y-113163303D01*
X131618282Y-113158282D01*
X131637448Y-113133305D01*
X131644447Y-113124183D01*
X131964389Y-113124183D01*
X131965912Y-113132607D01*
X131978292Y-113136000D01*
X133027885Y-113136000D01*
X133043124Y-113131525D01*
X133044329Y-113130135D01*
X133046000Y-113122452D01*
X133046000Y-112073102D01*
X133042082Y-112059758D01*
X133027806Y-112057771D01*
X132989324Y-112063660D01*
X132979288Y-112066051D01*
X132776868Y-112132212D01*
X132767359Y-112136209D01*
X132578463Y-112234542D01*
X132569738Y-112240036D01*
X132399433Y-112367905D01*
X132391726Y-112374748D01*
X132244590Y-112528717D01*
X132238104Y-112536727D01*
X132118098Y-112712649D01*
X132113000Y-112721623D01*
X132023336Y-112914789D01*
X132021912Y-112918659D01*
X131994735Y-112955307D01*
X132000547Y-112987520D01*
X131996686Y-113007723D01*
X131964389Y-113124183D01*
X131644447Y-113124183D01*
X131685261Y-113070993D01*
X131714536Y-113032841D01*
X131758860Y-112925832D01*
X131784111Y-112894498D01*
X131777941Y-112866739D01*
X131778737Y-112858714D01*
X131794604Y-112738188D01*
X131795682Y-112730000D01*
X131775044Y-112573238D01*
X131714536Y-112427159D01*
X131618282Y-112301718D01*
X131492841Y-112205464D01*
X131346762Y-112144956D01*
X131286300Y-112136996D01*
X131198188Y-112125396D01*
X131190000Y-112124318D01*
X131181812Y-112125396D01*
X131093701Y-112136996D01*
X131033238Y-112144956D01*
X130887159Y-112205464D01*
X130761718Y-112301718D01*
X130665464Y-112427159D01*
X130604956Y-112573238D01*
X130584318Y-112730000D01*
X130588957Y-112765234D01*
X130599843Y-112847921D01*
X130604956Y-112886762D01*
X130665464Y-113032841D01*
X130694739Y-113070993D01*
X130742553Y-113133305D01*
X130761718Y-113158282D01*
X130790683Y-113180508D01*
X130832550Y-113237844D01*
X130836772Y-113308715D01*
X130802009Y-113370618D01*
X130790683Y-113380433D01*
X130746431Y-113414389D01*
X130671718Y-113471718D01*
X130666695Y-113478264D01*
X130654547Y-113494096D01*
X130575464Y-113597159D01*
X130514956Y-113743238D01*
X130494318Y-113900000D01*
X130495602Y-113909754D01*
X130511766Y-114032534D01*
X130500826Y-114102683D01*
X130453698Y-114155781D01*
X130386844Y-114174980D01*
X121929743Y-114174980D01*
X121861622Y-114154978D01*
X121815129Y-114101322D01*
X121805025Y-114031048D01*
X121816786Y-113993153D01*
X121864670Y-113896267D01*
X121868469Y-113886672D01*
X121930377Y-113682910D01*
X121932555Y-113672837D01*
X121933986Y-113661962D01*
X121931775Y-113647778D01*
X121918617Y-113644000D01*
X120472000Y-113644000D01*
X120403879Y-113623998D01*
X120357386Y-113570342D01*
X120346000Y-113518000D01*
X120346000Y-113117885D01*
X120854000Y-113117885D01*
X120858475Y-113133124D01*
X120859865Y-113134329D01*
X120867548Y-113136000D01*
X121918344Y-113136000D01*
X121931875Y-113132027D01*
X121933180Y-113122947D01*
X121891214Y-112955875D01*
X121887894Y-112946124D01*
X121802972Y-112750814D01*
X121798105Y-112741739D01*
X121771103Y-112700000D01*
X123294318Y-112700000D01*
X123314956Y-112856762D01*
X123375464Y-113002841D01*
X123471718Y-113128282D01*
X123597159Y-113224536D01*
X123743238Y-113285044D01*
X123900000Y-113305682D01*
X123908188Y-113304604D01*
X124048574Y-113286122D01*
X124056762Y-113285044D01*
X124202841Y-113224536D01*
X124328282Y-113128282D01*
X124424536Y-113002841D01*
X124485044Y-112856762D01*
X124505682Y-112700000D01*
X124495363Y-112621619D01*
X124486122Y-112551426D01*
X124485044Y-112543238D01*
X124424536Y-112397159D01*
X124349835Y-112299806D01*
X124333305Y-112278264D01*
X124328282Y-112271718D01*
X124319272Y-112264804D01*
X124286993Y-112240036D01*
X124202841Y-112175464D01*
X124056762Y-112114956D01*
X123900000Y-112094318D01*
X123743238Y-112114956D01*
X123597159Y-112175464D01*
X123513007Y-112240036D01*
X123480729Y-112264804D01*
X123471718Y-112271718D01*
X123466695Y-112278264D01*
X123450165Y-112299806D01*
X123375464Y-112397159D01*
X123314956Y-112543238D01*
X123313878Y-112551426D01*
X123304637Y-112621619D01*
X123294318Y-112700000D01*
X121771103Y-112700000D01*
X121682426Y-112562926D01*
X121676136Y-112554757D01*
X121532806Y-112397240D01*
X121525273Y-112390215D01*
X121358139Y-112258222D01*
X121349552Y-112252517D01*
X121163117Y-112149599D01*
X121153705Y-112145369D01*
X120952959Y-112074280D01*
X120942988Y-112071646D01*
X120871837Y-112058972D01*
X120858540Y-112060432D01*
X120854000Y-112074989D01*
X120854000Y-113117885D01*
X120346000Y-113117885D01*
X120346000Y-112073102D01*
X120342082Y-112059758D01*
X120327806Y-112057771D01*
X120289324Y-112063660D01*
X120279288Y-112066051D01*
X120076868Y-112132212D01*
X120067359Y-112136209D01*
X119878463Y-112234542D01*
X119869738Y-112240036D01*
X119699433Y-112367905D01*
X119691726Y-112374748D01*
X119544590Y-112528717D01*
X119538104Y-112536727D01*
X119418098Y-112712649D01*
X119413000Y-112721623D01*
X119357066Y-112842122D01*
X119310242Y-112895489D01*
X119241998Y-112915070D01*
X119174003Y-112894646D01*
X119129773Y-112844801D01*
X119104878Y-112794318D01*
X119090535Y-112765233D01*
X119090532Y-112765229D01*
X119087980Y-112760053D01*
X119049251Y-112708188D01*
X118959420Y-112587891D01*
X118959420Y-112587890D01*
X118955967Y-112583267D01*
X118839919Y-112475993D01*
X118798189Y-112437418D01*
X118798186Y-112437416D01*
X118793949Y-112433499D01*
X118607350Y-112315764D01*
X118402421Y-112234006D01*
X118396761Y-112232880D01*
X118396757Y-112232879D01*
X118191691Y-112192089D01*
X118191688Y-112192089D01*
X118186024Y-112190962D01*
X118180249Y-112190886D01*
X118180245Y-112190886D01*
X118069504Y-112189437D01*
X117965406Y-112188074D01*
X117959709Y-112189053D01*
X117959708Y-112189053D01*
X117753654Y-112224459D01*
X117753653Y-112224459D01*
X117747957Y-112225438D01*
X117540957Y-112301804D01*
X117535996Y-112304756D01*
X117535995Y-112304756D01*
X117371841Y-112402418D01*
X117351341Y-112414614D01*
X117185457Y-112560090D01*
X117048863Y-112733360D01*
X116946131Y-112928620D01*
X116911414Y-113040428D01*
X116910432Y-113043591D01*
X116871129Y-113102716D01*
X116806100Y-113131207D01*
X116735990Y-113120017D01*
X116683060Y-113072700D01*
X116668830Y-113040428D01*
X116656130Y-112995396D01*
X116645565Y-112957936D01*
X116547980Y-112760053D01*
X116509251Y-112708188D01*
X116419420Y-112587891D01*
X116419420Y-112587890D01*
X116415967Y-112583267D01*
X116299919Y-112475993D01*
X116258189Y-112437418D01*
X116258186Y-112437416D01*
X116253949Y-112433499D01*
X116067350Y-112315764D01*
X115862421Y-112234006D01*
X115856761Y-112232880D01*
X115856757Y-112232879D01*
X115651691Y-112192089D01*
X115651688Y-112192089D01*
X115646024Y-112190962D01*
X115640249Y-112190886D01*
X115640245Y-112190886D01*
X115529504Y-112189437D01*
X115425406Y-112188074D01*
X115419709Y-112189053D01*
X115419708Y-112189053D01*
X115213654Y-112224459D01*
X115213653Y-112224459D01*
X115207957Y-112225438D01*
X115000957Y-112301804D01*
X114995996Y-112304756D01*
X114995995Y-112304756D01*
X114831841Y-112402418D01*
X114811341Y-112414614D01*
X114645457Y-112560090D01*
X114508863Y-112733360D01*
X114418008Y-112906046D01*
X114368589Y-112957018D01*
X114299456Y-112973181D01*
X114232560Y-112949402D01*
X114189140Y-112893231D01*
X114180500Y-112847378D01*
X114180500Y-112506782D01*
X114171871Y-112448162D01*
X114171784Y-112447574D01*
X114171784Y-112447573D01*
X114170358Y-112437888D01*
X114118932Y-112333145D01*
X114036350Y-112250707D01*
X114014520Y-112240036D01*
X113982652Y-112224459D01*
X113931518Y-112199464D01*
X113901027Y-112195016D01*
X113867744Y-112190160D01*
X113867740Y-112190160D01*
X113863218Y-112189500D01*
X112096782Y-112189500D01*
X112092232Y-112190170D01*
X112092229Y-112190170D01*
X112037574Y-112198216D01*
X112037573Y-112198216D01*
X112027888Y-112199642D01*
X111977992Y-112224140D01*
X111932493Y-112246478D01*
X111932491Y-112246479D01*
X111923145Y-112251068D01*
X111840707Y-112333650D01*
X111789464Y-112438482D01*
X111779500Y-112506782D01*
X111779500Y-112718645D01*
X111759498Y-112786766D01*
X111705842Y-112833259D01*
X111635568Y-112843363D01*
X111605286Y-112835055D01*
X111556762Y-112814956D01*
X111400000Y-112794318D01*
X111243238Y-112814956D01*
X111097159Y-112875464D01*
X110971718Y-112971718D01*
X110966695Y-112978264D01*
X110965085Y-112979874D01*
X110902773Y-113013900D01*
X110857044Y-113012814D01*
X110856762Y-113014956D01*
X110708188Y-112995396D01*
X110700000Y-112994318D01*
X110543238Y-113014956D01*
X110397159Y-113075464D01*
X110271718Y-113171718D01*
X110175464Y-113297159D01*
X110114956Y-113443238D01*
X110113878Y-113451426D01*
X110111252Y-113471376D01*
X110094318Y-113600000D01*
X110114956Y-113756762D01*
X110175464Y-113902841D01*
X110191705Y-113924007D01*
X110228743Y-113972276D01*
X110254343Y-114038497D01*
X110240078Y-114108045D01*
X110190477Y-114158841D01*
X110128780Y-114174980D01*
X107859215Y-114174980D01*
X107791094Y-114154978D01*
X107744601Y-114101322D01*
X107734293Y-114065427D01*
X107716122Y-113927406D01*
X107715044Y-113919218D01*
X107654536Y-113773139D01*
X107558282Y-113647698D01*
X107432841Y-113551444D01*
X107286762Y-113490936D01*
X107130000Y-113470298D01*
X106973238Y-113490936D01*
X106827159Y-113551444D01*
X106701718Y-113647698D01*
X106696695Y-113654244D01*
X106676463Y-113680611D01*
X106619125Y-113722478D01*
X106548254Y-113726700D01*
X106486351Y-113691936D01*
X106453070Y-113629223D01*
X106450500Y-113603907D01*
X106450500Y-107026011D01*
X106470502Y-106957890D01*
X106524158Y-106911397D01*
X106576500Y-106900011D01*
X106617527Y-106900011D01*
X106622473Y-106900108D01*
X106679505Y-106902349D01*
X106686611Y-106900465D01*
X106694855Y-106900011D01*
X107393396Y-106900011D01*
X107408205Y-106900884D01*
X107441926Y-106904875D01*
X107451190Y-106903183D01*
X107451191Y-106903183D01*
X107499617Y-106894339D01*
X107503520Y-106893689D01*
X107545069Y-106887442D01*
X107561577Y-106884960D01*
X107562056Y-106888144D01*
X107616783Y-106887442D01*
X107676996Y-106925057D01*
X107707759Y-106992337D01*
X107714956Y-107047005D01*
X107775464Y-107193084D01*
X107818397Y-107249035D01*
X107859894Y-107303115D01*
X107871718Y-107318525D01*
X107997159Y-107414779D01*
X108143238Y-107475287D01*
X108300000Y-107495925D01*
X108308188Y-107494847D01*
X108331242Y-107491812D01*
X108456762Y-107475287D01*
X108602841Y-107414779D01*
X108728282Y-107318525D01*
X108740107Y-107303115D01*
X108781603Y-107249035D01*
X108824536Y-107193084D01*
X108885044Y-107047005D01*
X108895158Y-106970178D01*
X108900347Y-106930768D01*
X108929069Y-106865840D01*
X108988335Y-106826749D01*
X109059326Y-106825904D01*
X109119505Y-106863574D01*
X109125231Y-106870510D01*
X109157425Y-106912466D01*
X109157429Y-106912470D01*
X109162452Y-106919016D01*
X109168998Y-106924039D01*
X109182678Y-106934536D01*
X109287893Y-107015270D01*
X109433972Y-107075778D01*
X109512144Y-107086069D01*
X109577071Y-107114791D01*
X109584793Y-107121896D01*
X111322095Y-108859198D01*
X111356121Y-108921510D01*
X111359000Y-108948293D01*
X111359000Y-109937901D01*
X111338998Y-110006022D01*
X111332963Y-110014605D01*
X111284964Y-110077159D01*
X111224456Y-110223238D01*
X111223378Y-110231426D01*
X111219560Y-110260424D01*
X111203818Y-110380000D01*
X111206825Y-110402841D01*
X111219811Y-110501480D01*
X111208872Y-110571629D01*
X111171594Y-110617888D01*
X111072065Y-110694259D01*
X110975811Y-110819700D01*
X110915303Y-110965779D01*
X110914225Y-110973967D01*
X110910974Y-110998659D01*
X110894665Y-111122541D01*
X110895743Y-111130729D01*
X110908040Y-111224131D01*
X110915303Y-111279303D01*
X110975811Y-111425382D01*
X111072065Y-111550823D01*
X111078611Y-111555846D01*
X111108265Y-111578600D01*
X111197506Y-111647077D01*
X111343585Y-111707585D01*
X111500347Y-111728223D01*
X111508535Y-111727145D01*
X111648921Y-111708663D01*
X111657109Y-111707585D01*
X111803188Y-111647077D01*
X111892429Y-111578600D01*
X111922083Y-111555846D01*
X111928629Y-111550823D01*
X112024883Y-111425382D01*
X112085391Y-111279303D01*
X112092655Y-111224131D01*
X112100696Y-111163050D01*
X122814318Y-111163050D01*
X122834956Y-111319812D01*
X122895464Y-111465891D01*
X122991718Y-111591332D01*
X122998264Y-111596355D01*
X123022410Y-111614883D01*
X123117159Y-111687586D01*
X123263238Y-111748094D01*
X123420000Y-111768732D01*
X123428188Y-111767654D01*
X123568574Y-111749172D01*
X123576762Y-111748094D01*
X123722841Y-111687586D01*
X123817590Y-111614883D01*
X123841736Y-111596355D01*
X123848282Y-111591332D01*
X123851443Y-111587213D01*
X123912511Y-111553866D01*
X123983326Y-111558931D01*
X124039256Y-111600283D01*
X124065702Y-111634748D01*
X124065706Y-111634752D01*
X124070729Y-111641298D01*
X124077275Y-111646321D01*
X124090694Y-111656618D01*
X124196170Y-111737552D01*
X124342249Y-111798060D01*
X124499011Y-111818698D01*
X124507199Y-111817620D01*
X124545961Y-111812517D01*
X124655773Y-111798060D01*
X124801852Y-111737552D01*
X124907328Y-111656618D01*
X124920747Y-111646321D01*
X124927293Y-111641298D01*
X124941420Y-111622888D01*
X124996717Y-111550823D01*
X125023547Y-111515857D01*
X125084055Y-111369778D01*
X125100911Y-111241743D01*
X125129633Y-111176816D01*
X125162833Y-111149070D01*
X125165215Y-111147695D01*
X125172841Y-111144536D01*
X125179389Y-111139511D01*
X125179395Y-111139508D01*
X125269664Y-111070242D01*
X125335884Y-111044641D01*
X125380125Y-111051541D01*
X125380744Y-111049229D01*
X125388729Y-111051368D01*
X125396354Y-111054527D01*
X125404538Y-111055604D01*
X125404540Y-111055605D01*
X125544928Y-111074087D01*
X125553116Y-111075165D01*
X125561304Y-111074087D01*
X125701690Y-111055605D01*
X125709878Y-111054527D01*
X125717507Y-111051367D01*
X125725486Y-111049229D01*
X125726250Y-111052079D01*
X125782708Y-111046007D01*
X125837045Y-111070043D01*
X125871462Y-111096452D01*
X125947159Y-111154536D01*
X126093238Y-111215044D01*
X126101426Y-111216122D01*
X126112911Y-111217634D01*
X126250000Y-111235682D01*
X126258188Y-111234604D01*
X126398574Y-111216122D01*
X126406762Y-111215044D01*
X126552841Y-111154536D01*
X126656835Y-111074739D01*
X126671736Y-111063305D01*
X126678282Y-111058282D01*
X126774536Y-110932841D01*
X126835044Y-110786762D01*
X126855682Y-110630000D01*
X126835044Y-110473238D01*
X126800566Y-110390000D01*
X127874318Y-110390000D01*
X127894956Y-110546762D01*
X127955464Y-110692841D01*
X128051718Y-110818282D01*
X128177159Y-110914536D01*
X128323238Y-110975044D01*
X128480000Y-110995682D01*
X128488188Y-110994604D01*
X128493521Y-110993902D01*
X128636762Y-110975044D01*
X128782841Y-110914536D01*
X128908282Y-110818282D01*
X128999043Y-110700000D01*
X132494318Y-110700000D01*
X132495396Y-110708188D01*
X132508972Y-110811305D01*
X132514956Y-110856762D01*
X132575464Y-111002841D01*
X132671718Y-111128282D01*
X132678264Y-111133305D01*
X132699382Y-111149509D01*
X132797159Y-111224536D01*
X132943238Y-111285044D01*
X133100000Y-111305682D01*
X133108188Y-111304604D01*
X133248574Y-111286122D01*
X133256762Y-111285044D01*
X133402841Y-111224536D01*
X133500618Y-111149509D01*
X133521736Y-111133305D01*
X133528282Y-111128282D01*
X133624536Y-111002841D01*
X133685044Y-110856762D01*
X133691029Y-110811305D01*
X133704604Y-110708188D01*
X133705682Y-110700000D01*
X133688782Y-110571629D01*
X133686122Y-110551426D01*
X133685044Y-110543238D01*
X133624536Y-110397159D01*
X133528282Y-110271718D01*
X133402841Y-110175464D01*
X133256762Y-110114956D01*
X133100000Y-110094318D01*
X132943238Y-110114956D01*
X132797159Y-110175464D01*
X132671718Y-110271718D01*
X132575464Y-110397159D01*
X132514956Y-110543238D01*
X132513878Y-110551426D01*
X132511218Y-110571629D01*
X132494318Y-110700000D01*
X128999043Y-110700000D01*
X129004536Y-110692841D01*
X129065044Y-110546762D01*
X129085682Y-110390000D01*
X129075230Y-110310606D01*
X129066122Y-110241426D01*
X129065044Y-110233238D01*
X129004536Y-110087159D01*
X128908282Y-109961718D01*
X128782841Y-109865464D01*
X128655053Y-109812532D01*
X128644391Y-109808116D01*
X128636762Y-109804956D01*
X128480000Y-109784318D01*
X128323238Y-109804956D01*
X128315609Y-109808116D01*
X128304947Y-109812532D01*
X128177159Y-109865464D01*
X128051718Y-109961718D01*
X127955464Y-110087159D01*
X127894956Y-110233238D01*
X127893878Y-110241426D01*
X127884770Y-110310606D01*
X127874318Y-110390000D01*
X126800566Y-110390000D01*
X126774536Y-110327159D01*
X126721832Y-110258474D01*
X126708470Y-110241060D01*
X126682870Y-110174840D01*
X126682433Y-110164356D01*
X126682433Y-109615233D01*
X126702435Y-109547112D01*
X126719338Y-109526138D01*
X128258070Y-107987406D01*
X128320382Y-107953380D01*
X128347165Y-107950501D01*
X130631266Y-107950501D01*
X130646075Y-107951374D01*
X130679796Y-107955365D01*
X130689060Y-107953673D01*
X130689061Y-107953673D01*
X130737487Y-107944829D01*
X130741390Y-107944179D01*
X130790131Y-107936851D01*
X130790132Y-107936851D01*
X130799448Y-107935450D01*
X130805961Y-107932322D01*
X130813059Y-107931026D01*
X130865133Y-107903976D01*
X130868623Y-107902233D01*
X130921565Y-107876810D01*
X130926851Y-107871924D01*
X130926899Y-107871891D01*
X130933274Y-107868580D01*
X130938314Y-107864276D01*
X130975541Y-107827049D01*
X130979107Y-107823619D01*
X130999677Y-107804604D01*
X131021042Y-107784855D01*
X131024735Y-107778496D01*
X131030252Y-107772338D01*
X131115185Y-107687405D01*
X131177497Y-107653379D01*
X131204280Y-107650500D01*
X131340769Y-107650500D01*
X131408890Y-107670502D01*
X131455383Y-107724158D01*
X131465487Y-107794432D01*
X131435993Y-107859012D01*
X131429864Y-107865595D01*
X131428764Y-107866695D01*
X131422218Y-107871718D01*
X131325964Y-107997159D01*
X131265456Y-108143238D01*
X131244818Y-108300000D01*
X131246398Y-108311999D01*
X131263581Y-108442518D01*
X131265456Y-108456762D01*
X131268616Y-108464391D01*
X131268617Y-108464394D01*
X131270734Y-108469506D01*
X131278326Y-108540095D01*
X131254290Y-108594430D01*
X131175464Y-108697159D01*
X131114956Y-108843238D01*
X131094318Y-109000000D01*
X131114956Y-109156762D01*
X131118116Y-109164390D01*
X131118117Y-109164395D01*
X131137075Y-109210164D01*
X131144664Y-109280754D01*
X131112884Y-109344240D01*
X131097369Y-109358344D01*
X131051147Y-109393811D01*
X131051144Y-109393814D01*
X131044598Y-109398837D01*
X131039575Y-109405383D01*
X131033015Y-109413932D01*
X130948344Y-109524278D01*
X130887836Y-109670357D01*
X130867198Y-109827119D01*
X130887836Y-109983881D01*
X130948344Y-110129960D01*
X131044598Y-110255401D01*
X131170039Y-110351655D01*
X131293613Y-110402841D01*
X131300472Y-110405682D01*
X131316118Y-110412163D01*
X131472880Y-110432801D01*
X131481068Y-110431723D01*
X131621454Y-110413241D01*
X131629642Y-110412163D01*
X131645289Y-110405682D01*
X131652147Y-110402841D01*
X131775721Y-110351655D01*
X131901162Y-110255401D01*
X131997416Y-110129960D01*
X132057924Y-109983881D01*
X132078562Y-109827119D01*
X132057924Y-109670357D01*
X132054764Y-109662728D01*
X132054763Y-109662724D01*
X132035805Y-109616955D01*
X132028216Y-109546365D01*
X132059996Y-109482879D01*
X132075511Y-109468775D01*
X132121733Y-109433308D01*
X132121736Y-109433305D01*
X132128282Y-109428282D01*
X132142719Y-109409468D01*
X132186522Y-109352382D01*
X132224536Y-109302841D01*
X132285044Y-109156762D01*
X132305682Y-109000000D01*
X132293161Y-108904891D01*
X132286122Y-108851424D01*
X132286121Y-108851422D01*
X132285044Y-108843238D01*
X132281883Y-108835606D01*
X132279766Y-108830494D01*
X132272174Y-108759905D01*
X132296210Y-108705569D01*
X132296809Y-108704789D01*
X132375036Y-108602841D01*
X132435544Y-108456762D01*
X132456182Y-108300000D01*
X132435544Y-108143238D01*
X132375036Y-107997159D01*
X132278782Y-107871718D01*
X132272236Y-107866695D01*
X132271136Y-107865595D01*
X132237110Y-107803283D01*
X132242175Y-107732468D01*
X132284722Y-107675632D01*
X132351242Y-107650821D01*
X132360231Y-107650500D01*
X133470785Y-107650500D01*
X133538906Y-107670502D01*
X133585399Y-107724158D01*
X133595707Y-107760053D01*
X133609602Y-107865595D01*
X133614956Y-107906262D01*
X133675464Y-108052341D01*
X133680491Y-108058892D01*
X133759406Y-108161736D01*
X133771718Y-108177782D01*
X133897159Y-108274036D01*
X134043238Y-108334544D01*
X134200000Y-108355182D01*
X134208188Y-108354104D01*
X134209404Y-108353944D01*
X134356762Y-108334544D01*
X134502841Y-108274036D01*
X134628282Y-108177782D01*
X134640595Y-108161736D01*
X134719509Y-108058892D01*
X134724536Y-108052341D01*
X134785044Y-107906262D01*
X134790398Y-107865595D01*
X134804293Y-107760053D01*
X134833016Y-107695126D01*
X134892281Y-107656035D01*
X134929215Y-107650500D01*
X137328172Y-107650500D01*
X137396293Y-107670502D01*
X137444580Y-107728281D01*
X137475464Y-107802841D01*
X137522605Y-107864276D01*
X137554822Y-107906262D01*
X137571718Y-107928282D01*
X137578264Y-107933305D01*
X137600674Y-107950501D01*
X137697159Y-108024536D01*
X137843238Y-108085044D01*
X138000000Y-108105682D01*
X138008188Y-108104604D01*
X138148574Y-108086122D01*
X138156762Y-108085044D01*
X138302841Y-108024536D01*
X138309392Y-108019509D01*
X138312001Y-108018003D01*
X138380997Y-108001266D01*
X138437999Y-108018003D01*
X138440608Y-108019509D01*
X138447159Y-108024536D01*
X138593238Y-108085044D01*
X138750000Y-108105682D01*
X138758188Y-108104604D01*
X138898574Y-108086122D01*
X138906762Y-108085044D01*
X139052841Y-108024536D01*
X139059392Y-108019509D01*
X139062001Y-108018003D01*
X139130997Y-108001266D01*
X139187999Y-108018003D01*
X139190608Y-108019509D01*
X139197159Y-108024536D01*
X139343238Y-108085044D01*
X139500000Y-108105682D01*
X139508188Y-108104604D01*
X139648574Y-108086122D01*
X139656762Y-108085044D01*
X139802841Y-108024536D01*
X139899326Y-107950501D01*
X139921736Y-107933305D01*
X139928282Y-107928282D01*
X139945179Y-107906262D01*
X139977395Y-107864276D01*
X140024536Y-107802841D01*
X140085044Y-107656762D01*
X140105682Y-107500000D01*
X140090839Y-107387256D01*
X140086122Y-107351426D01*
X140085044Y-107343238D01*
X140024536Y-107197159D01*
X139928282Y-107071718D01*
X139802841Y-106975464D01*
X139656762Y-106914956D01*
X139637849Y-106912466D01*
X139522749Y-106897313D01*
X139500000Y-106894318D01*
X139477251Y-106897313D01*
X139362152Y-106912466D01*
X139343238Y-106914956D01*
X139197159Y-106975464D01*
X139190608Y-106980491D01*
X139187999Y-106981997D01*
X139119003Y-106998734D01*
X139062001Y-106981997D01*
X139059392Y-106980491D01*
X139052841Y-106975464D01*
X138906762Y-106914956D01*
X138887849Y-106912466D01*
X138772749Y-106897313D01*
X138750000Y-106894318D01*
X138727251Y-106897313D01*
X138612152Y-106912466D01*
X138593238Y-106914956D01*
X138447159Y-106975464D01*
X138440608Y-106980491D01*
X138437999Y-106981997D01*
X138369003Y-106998734D01*
X138312001Y-106981997D01*
X138309392Y-106980491D01*
X138302841Y-106975464D01*
X138156762Y-106914956D01*
X138132742Y-106911794D01*
X138084387Y-106905427D01*
X138015876Y-106872969D01*
X138011872Y-106867890D01*
X138002478Y-106861397D01*
X137963625Y-106834545D01*
X137960403Y-106832243D01*
X137920758Y-106802960D01*
X137920757Y-106802959D01*
X137913184Y-106797366D01*
X137906368Y-106794973D01*
X137900431Y-106790869D01*
X137891451Y-106788029D01*
X137891449Y-106788028D01*
X137860575Y-106778264D01*
X137844481Y-106773174D01*
X137840750Y-106771929D01*
X137794263Y-106755604D01*
X137794261Y-106755604D01*
X137785369Y-106752481D01*
X137778181Y-106752199D01*
X137778122Y-106752188D01*
X137771270Y-106750020D01*
X137764663Y-106749500D01*
X137756776Y-106749500D01*
X137688655Y-106729498D01*
X137642162Y-106675842D01*
X137631854Y-106607053D01*
X137635151Y-106582015D01*
X137640682Y-106540000D01*
X137622625Y-106402841D01*
X137621122Y-106391426D01*
X137620044Y-106383238D01*
X137559536Y-106237159D01*
X137507708Y-106169615D01*
X137468309Y-106118269D01*
X137468308Y-106118268D01*
X137463282Y-106111718D01*
X137456728Y-106106689D01*
X137456297Y-106106258D01*
X137422270Y-106043947D01*
X137427333Y-105973131D01*
X137450818Y-105934849D01*
X137452348Y-105933542D01*
X137461908Y-105920239D01*
X137530375Y-105824956D01*
X137544224Y-105805683D01*
X137552088Y-105786122D01*
X137595446Y-105678264D01*
X137602950Y-105659598D01*
X137612769Y-105590608D01*
X137624553Y-105507807D01*
X137624553Y-105507804D01*
X137625134Y-105503723D01*
X137625219Y-105495654D01*
X137625235Y-105494134D01*
X137625235Y-105494128D01*
X137625278Y-105490000D01*
X137623238Y-105473138D01*
X137617236Y-105423545D01*
X137606363Y-105333694D01*
X137594540Y-105302406D01*
X137553394Y-105193514D01*
X137553393Y-105193511D01*
X137550710Y-105186412D01*
X137495225Y-105105682D01*
X137465833Y-105062916D01*
X137465832Y-105062915D01*
X137461531Y-105056657D01*
X137455858Y-105051602D01*
X137450979Y-105046069D01*
X137420931Y-104981744D01*
X137430430Y-104911386D01*
X137456397Y-104873642D01*
X137456728Y-104873311D01*
X137463282Y-104868282D01*
X137559536Y-104742841D01*
X137620044Y-104596762D01*
X137640682Y-104440000D01*
X137620044Y-104283238D01*
X137559536Y-104137159D01*
X137481841Y-104035905D01*
X137468305Y-104018264D01*
X137463282Y-104011718D01*
X137455355Y-104005635D01*
X137416319Y-103975682D01*
X137337841Y-103915464D01*
X137199565Y-103858188D01*
X137199391Y-103858116D01*
X137191762Y-103854956D01*
X137181759Y-103853639D01*
X137091923Y-103841812D01*
X137035000Y-103834318D01*
X136978077Y-103841812D01*
X136888242Y-103853639D01*
X136878238Y-103854956D01*
X136870609Y-103858116D01*
X136870435Y-103858188D01*
X136732159Y-103915464D01*
X136653681Y-103975682D01*
X136614646Y-104005635D01*
X136606718Y-104011718D01*
X136605996Y-104010777D01*
X136550703Y-104040970D01*
X136479888Y-104035905D01*
X136440101Y-104011925D01*
X136434671Y-104007087D01*
X136383976Y-103961919D01*
X136373028Y-103956122D01*
X136285167Y-103909602D01*
X136244831Y-103888245D01*
X136234078Y-103885544D01*
X136099498Y-103851740D01*
X136099496Y-103851740D01*
X136092128Y-103849889D01*
X136084530Y-103849849D01*
X136084528Y-103849849D01*
X136017319Y-103849497D01*
X135934684Y-103849065D01*
X135927305Y-103850837D01*
X135927301Y-103850837D01*
X135788967Y-103884048D01*
X135788963Y-103884049D01*
X135781588Y-103885820D01*
X135710072Y-103922732D01*
X135653591Y-103951884D01*
X135641679Y-103958032D01*
X135551346Y-104036835D01*
X135486865Y-104066542D01*
X135416558Y-104056673D01*
X135374752Y-104023507D01*
X135374150Y-104024109D01*
X135368928Y-104018887D01*
X135368560Y-104018595D01*
X135368309Y-104018268D01*
X135368305Y-104018264D01*
X135363282Y-104011718D01*
X135355355Y-104005635D01*
X135316319Y-103975682D01*
X135237841Y-103915464D01*
X135099565Y-103858188D01*
X135099391Y-103858116D01*
X135091762Y-103854956D01*
X135081759Y-103853639D01*
X134991923Y-103841812D01*
X134935000Y-103834318D01*
X134878077Y-103841812D01*
X134788242Y-103853639D01*
X134778238Y-103854956D01*
X134770609Y-103858116D01*
X134770435Y-103858188D01*
X134632159Y-103915464D01*
X134553681Y-103975682D01*
X134514646Y-104005635D01*
X134506718Y-104011718D01*
X134501695Y-104018264D01*
X134488159Y-104035905D01*
X134410464Y-104137159D01*
X134349956Y-104283238D01*
X134329318Y-104440000D01*
X134349956Y-104596762D01*
X134410464Y-104742841D01*
X134506718Y-104868282D01*
X134513263Y-104873304D01*
X134514208Y-104874249D01*
X134548234Y-104936561D01*
X134543169Y-105007376D01*
X134522632Y-105041251D01*
X134523034Y-105041533D01*
X134518671Y-105047741D01*
X134518670Y-105047742D01*
X134479015Y-105104166D01*
X134432501Y-105170348D01*
X134375309Y-105317039D01*
X134372179Y-105340817D01*
X134355871Y-105464686D01*
X134354758Y-105473138D01*
X134372035Y-105629633D01*
X134426143Y-105777490D01*
X134430380Y-105783796D01*
X134430382Y-105783799D01*
X134470424Y-105843387D01*
X134513958Y-105908172D01*
X134519577Y-105913284D01*
X134519577Y-105913285D01*
X134520537Y-105914159D01*
X134521031Y-105914970D01*
X134524542Y-105919038D01*
X134523864Y-105919623D01*
X134557464Y-105974797D01*
X134555745Y-106045772D01*
X134517871Y-106099612D01*
X134519109Y-106100850D01*
X134513264Y-106106695D01*
X134506718Y-106111718D01*
X134501695Y-106118264D01*
X134492195Y-106130645D01*
X134410464Y-106237159D01*
X134349956Y-106383238D01*
X134348878Y-106391426D01*
X134347375Y-106402841D01*
X134329318Y-106540000D01*
X134334850Y-106582015D01*
X134338146Y-106607053D01*
X134327207Y-106677202D01*
X134280079Y-106730301D01*
X134213224Y-106749500D01*
X131792274Y-106749500D01*
X131724153Y-106729498D01*
X131677660Y-106675842D01*
X131667556Y-106605568D01*
X131697050Y-106540988D01*
X131703179Y-106534405D01*
X133294350Y-104943234D01*
X133305439Y-104933380D01*
X133324710Y-104918187D01*
X133324711Y-104918186D01*
X133332110Y-104912353D01*
X133337465Y-104904605D01*
X133337467Y-104904603D01*
X133365474Y-104864081D01*
X133367774Y-104860862D01*
X133397038Y-104821241D01*
X133397039Y-104821240D01*
X133402634Y-104813664D01*
X133405027Y-104806850D01*
X133409131Y-104800912D01*
X133412253Y-104791042D01*
X133426825Y-104744964D01*
X133428078Y-104741209D01*
X133444396Y-104694743D01*
X133447519Y-104685850D01*
X133447801Y-104678663D01*
X133447813Y-104678601D01*
X133449980Y-104671751D01*
X133450500Y-104665144D01*
X133450500Y-104612465D01*
X133450597Y-104607518D01*
X133451466Y-104585396D01*
X133452838Y-104550487D01*
X133450954Y-104543381D01*
X133450500Y-104535134D01*
X133450500Y-103442099D01*
X133470502Y-103373978D01*
X133473299Y-103370000D01*
X137464318Y-103370000D01*
X137484956Y-103526762D01*
X137545464Y-103672841D01*
X137641718Y-103798282D01*
X137767159Y-103894536D01*
X137913238Y-103955044D01*
X138070000Y-103975682D01*
X138078188Y-103974604D01*
X138095659Y-103972304D01*
X138226762Y-103955044D01*
X138372841Y-103894536D01*
X138498282Y-103798282D01*
X138594536Y-103672841D01*
X138655044Y-103526762D01*
X138675682Y-103370000D01*
X138655044Y-103213238D01*
X138594536Y-103067159D01*
X138509897Y-102956855D01*
X138503305Y-102948264D01*
X138498282Y-102941718D01*
X138372841Y-102845464D01*
X138226762Y-102784956D01*
X138203079Y-102781838D01*
X138078188Y-102765396D01*
X138070000Y-102764318D01*
X138061812Y-102765396D01*
X137936922Y-102781838D01*
X137913238Y-102784956D01*
X137767159Y-102845464D01*
X137641718Y-102941718D01*
X137636695Y-102948264D01*
X137630103Y-102956855D01*
X137545464Y-103067159D01*
X137484956Y-103213238D01*
X137464318Y-103370000D01*
X133473299Y-103370000D01*
X133476537Y-103365395D01*
X133507177Y-103325464D01*
X133524536Y-103302841D01*
X133585044Y-103156762D01*
X133605682Y-103000000D01*
X133588198Y-102867195D01*
X133586122Y-102851426D01*
X133585044Y-102843238D01*
X133524536Y-102697159D01*
X133428282Y-102571718D01*
X133410414Y-102558007D01*
X133360629Y-102519806D01*
X133302841Y-102475464D01*
X133156762Y-102414956D01*
X133143546Y-102413216D01*
X133008188Y-102395396D01*
X133000000Y-102394318D01*
X132991812Y-102395396D01*
X132856455Y-102413216D01*
X132843238Y-102414956D01*
X132697159Y-102475464D01*
X132639371Y-102519806D01*
X132589587Y-102558007D01*
X132571718Y-102571718D01*
X132475464Y-102697159D01*
X132414956Y-102843238D01*
X132413878Y-102851426D01*
X132411802Y-102867195D01*
X132394318Y-103000000D01*
X132414956Y-103156762D01*
X132475464Y-103302841D01*
X132492823Y-103325464D01*
X132523463Y-103365395D01*
X132549063Y-103431616D01*
X132549500Y-103442099D01*
X132549500Y-104361688D01*
X132529498Y-104429809D01*
X132512595Y-104450783D01*
X130350302Y-106613076D01*
X130287990Y-106647102D01*
X130261207Y-106649981D01*
X127820396Y-106649981D01*
X127805587Y-106649108D01*
X127802770Y-106648775D01*
X127771866Y-106645117D01*
X127762603Y-106646809D01*
X127762599Y-106646809D01*
X127729758Y-106652807D01*
X127659153Y-106645369D01*
X127603776Y-106600939D01*
X127581211Y-106533624D01*
X127582199Y-106512416D01*
X127595682Y-106410000D01*
X127575044Y-106253238D01*
X127514536Y-106107159D01*
X127418282Y-105981718D01*
X127393658Y-105962823D01*
X127337358Y-105919623D01*
X127292841Y-105885464D01*
X127146762Y-105824956D01*
X126990000Y-105804318D01*
X126833238Y-105824956D01*
X126687159Y-105885464D01*
X126642642Y-105919623D01*
X126586343Y-105962823D01*
X126561718Y-105981718D01*
X126465464Y-106107159D01*
X126404956Y-106253238D01*
X126384318Y-106410000D01*
X126404956Y-106566762D01*
X126465464Y-106712841D01*
X126561718Y-106838282D01*
X126687159Y-106934536D01*
X126833238Y-106995044D01*
X126841426Y-106996122D01*
X126952186Y-107010704D01*
X127017113Y-107039427D01*
X127056204Y-107098692D01*
X127057049Y-107169683D01*
X127024834Y-107224721D01*
X125489598Y-108759957D01*
X125427286Y-108793983D01*
X125356471Y-108788918D01*
X125314299Y-108761815D01*
X125312683Y-108759709D01*
X125187242Y-108663455D01*
X125041163Y-108602947D01*
X124884401Y-108582309D01*
X124727639Y-108602947D01*
X124581560Y-108663455D01*
X124456119Y-108759709D01*
X124359865Y-108885150D01*
X124299357Y-109031229D01*
X124298279Y-109039417D01*
X124294027Y-109071718D01*
X124278719Y-109187991D01*
X124299357Y-109344753D01*
X124359865Y-109490832D01*
X124364892Y-109497383D01*
X124364894Y-109497387D01*
X124383206Y-109521252D01*
X124408806Y-109587472D01*
X124399653Y-109646171D01*
X124365942Y-109727555D01*
X124364864Y-109735743D01*
X124358469Y-109784318D01*
X124345304Y-109884317D01*
X124365942Y-110041079D01*
X124392702Y-110105682D01*
X124405191Y-110135834D01*
X124412780Y-110206423D01*
X124388744Y-110260755D01*
X124345464Y-110317159D01*
X124284956Y-110463238D01*
X124283878Y-110471426D01*
X124268100Y-110591273D01*
X124239378Y-110656200D01*
X124206178Y-110683946D01*
X124203796Y-110685321D01*
X124196170Y-110688480D01*
X124070729Y-110784734D01*
X124067568Y-110788853D01*
X124006500Y-110822200D01*
X123935685Y-110817135D01*
X123879755Y-110775783D01*
X123853309Y-110741318D01*
X123853305Y-110741314D01*
X123848282Y-110734768D01*
X123722841Y-110638514D01*
X123576762Y-110578006D01*
X123420000Y-110557368D01*
X123263238Y-110578006D01*
X123117159Y-110638514D01*
X122991718Y-110734768D01*
X122895464Y-110860209D01*
X122853290Y-110962027D01*
X122838457Y-110997837D01*
X122834956Y-111006288D01*
X122814318Y-111163050D01*
X112100696Y-111163050D01*
X112104951Y-111130729D01*
X112106029Y-111122541D01*
X112090036Y-111001061D01*
X112100975Y-110930912D01*
X112138254Y-110884652D01*
X112142008Y-110881772D01*
X112237782Y-110808282D01*
X112252420Y-110789206D01*
X112298045Y-110729745D01*
X112334036Y-110682841D01*
X112394544Y-110536762D01*
X112415182Y-110380000D01*
X112399440Y-110260424D01*
X112395622Y-110231426D01*
X112394544Y-110223238D01*
X112343497Y-110100000D01*
X115394318Y-110100000D01*
X115396145Y-110113878D01*
X115410543Y-110223238D01*
X115414956Y-110256762D01*
X115475464Y-110402841D01*
X115571718Y-110528282D01*
X115697159Y-110624536D01*
X115843238Y-110685044D01*
X115851426Y-110686122D01*
X115894646Y-110691812D01*
X116000000Y-110705682D01*
X116008188Y-110704604D01*
X116047778Y-110699392D01*
X116105354Y-110691812D01*
X116148574Y-110686122D01*
X116156762Y-110685044D01*
X116302841Y-110624536D01*
X116428282Y-110528282D01*
X116524536Y-110402841D01*
X116585044Y-110256762D01*
X116589458Y-110223238D01*
X116603855Y-110113878D01*
X116605682Y-110100000D01*
X116585044Y-109943238D01*
X116524536Y-109797159D01*
X116439693Y-109686589D01*
X116433305Y-109678264D01*
X116428282Y-109671718D01*
X116302841Y-109575464D01*
X116156762Y-109514956D01*
X116000000Y-109494318D01*
X115843238Y-109514956D01*
X115697159Y-109575464D01*
X115571718Y-109671718D01*
X115566695Y-109678264D01*
X115560307Y-109686589D01*
X115475464Y-109797159D01*
X115414956Y-109943238D01*
X115394318Y-110100000D01*
X112343497Y-110100000D01*
X112334036Y-110077159D01*
X112286037Y-110014605D01*
X112260437Y-109948384D01*
X112260000Y-109937901D01*
X112260000Y-108743720D01*
X112260873Y-108728911D01*
X112263757Y-108704543D01*
X112264864Y-108695190D01*
X112254328Y-108637499D01*
X112253678Y-108633596D01*
X112246350Y-108584855D01*
X112246350Y-108584854D01*
X112244949Y-108575538D01*
X112241821Y-108569025D01*
X112240525Y-108561927D01*
X112213475Y-108509853D01*
X112211725Y-108506350D01*
X112186309Y-108453421D01*
X112181423Y-108448135D01*
X112181390Y-108448087D01*
X112178079Y-108441712D01*
X112173775Y-108436672D01*
X112136548Y-108399445D01*
X112133118Y-108395879D01*
X112104439Y-108364854D01*
X112094354Y-108353944D01*
X112087995Y-108350251D01*
X112081837Y-108344734D01*
X110343921Y-106606818D01*
X110309895Y-106544506D01*
X110314960Y-106473691D01*
X110357507Y-106416855D01*
X110424027Y-106392044D01*
X110433016Y-106391723D01*
X113530565Y-106391723D01*
X113598686Y-106411725D01*
X113645179Y-106465381D01*
X113655283Y-106535655D01*
X113646976Y-106565936D01*
X113614956Y-106643238D01*
X113594318Y-106800000D01*
X113614956Y-106956762D01*
X113662573Y-107071718D01*
X113667158Y-107082788D01*
X113674747Y-107153377D01*
X113642968Y-107216864D01*
X113627456Y-107230966D01*
X113522218Y-107311718D01*
X113517195Y-107318264D01*
X113512382Y-107324536D01*
X113425964Y-107437159D01*
X113365456Y-107583238D01*
X113344818Y-107740000D01*
X113365456Y-107896762D01*
X113425964Y-108042841D01*
X113522218Y-108168282D01*
X113647659Y-108264536D01*
X113793738Y-108325044D01*
X113801926Y-108326122D01*
X113838971Y-108330999D01*
X113950500Y-108345682D01*
X113958688Y-108344604D01*
X114099074Y-108326122D01*
X114107262Y-108325044D01*
X114253341Y-108264536D01*
X114378782Y-108168282D01*
X114475036Y-108042841D01*
X114535544Y-107896762D01*
X114556182Y-107740000D01*
X114535544Y-107583238D01*
X114483342Y-107457211D01*
X114475753Y-107386623D01*
X114507532Y-107323136D01*
X114523044Y-107309034D01*
X114628282Y-107228282D01*
X114649984Y-107200000D01*
X114673246Y-107169683D01*
X114724536Y-107102841D01*
X114776303Y-106977865D01*
X114820850Y-106922585D01*
X114888213Y-106900164D01*
X114957005Y-106917722D01*
X115005383Y-106969684D01*
X115009119Y-106977865D01*
X115022801Y-107010896D01*
X115022804Y-107010901D01*
X115025964Y-107018530D01*
X115122218Y-107143971D01*
X115247659Y-107240225D01*
X115393738Y-107300733D01*
X115550500Y-107321371D01*
X115558688Y-107320293D01*
X115572118Y-107318525D01*
X115707262Y-107300733D01*
X115853341Y-107240225D01*
X115978782Y-107143971D01*
X116075036Y-107018530D01*
X116135544Y-106872451D01*
X116156182Y-106715689D01*
X116135544Y-106558927D01*
X116075036Y-106412848D01*
X115978782Y-106287407D01*
X115853341Y-106191153D01*
X115707262Y-106130645D01*
X115629090Y-106120354D01*
X115583079Y-106100000D01*
X117595788Y-106100000D01*
X117616426Y-106256762D01*
X117676934Y-106402841D01*
X117773188Y-106528282D01*
X117898629Y-106624536D01*
X118044708Y-106685044D01*
X118052896Y-106686122D01*
X118123089Y-106695363D01*
X118201470Y-106705682D01*
X118209658Y-106704604D01*
X118350044Y-106686122D01*
X118358232Y-106685044D01*
X118504311Y-106624536D01*
X118629752Y-106528282D01*
X118726006Y-106402841D01*
X118786514Y-106256762D01*
X118807152Y-106100000D01*
X118786514Y-105943238D01*
X118726006Y-105797159D01*
X118629752Y-105671718D01*
X118599515Y-105648516D01*
X118573145Y-105628282D01*
X118504311Y-105575464D01*
X118358232Y-105514956D01*
X118201470Y-105494318D01*
X118044708Y-105514956D01*
X117898629Y-105575464D01*
X117829795Y-105628282D01*
X117803426Y-105648516D01*
X117773188Y-105671718D01*
X117676934Y-105797159D01*
X117616426Y-105943238D01*
X117595788Y-106100000D01*
X115583079Y-106100000D01*
X115564163Y-106091632D01*
X115556441Y-106084527D01*
X115118787Y-105646873D01*
X115108933Y-105635784D01*
X115093741Y-105616514D01*
X115093739Y-105616512D01*
X115087906Y-105609113D01*
X115080159Y-105603758D01*
X115080157Y-105603757D01*
X115039659Y-105575768D01*
X115036437Y-105573466D01*
X114996792Y-105544183D01*
X114996791Y-105544182D01*
X114989218Y-105538589D01*
X114982402Y-105536196D01*
X114976465Y-105532092D01*
X114967485Y-105529252D01*
X114967483Y-105529251D01*
X114947317Y-105522873D01*
X114920515Y-105514397D01*
X114916784Y-105513152D01*
X114870297Y-105496827D01*
X114870295Y-105496827D01*
X114861403Y-105493704D01*
X114854215Y-105493422D01*
X114854156Y-105493411D01*
X114847304Y-105491243D01*
X114840697Y-105490723D01*
X114788018Y-105490723D01*
X114783071Y-105490626D01*
X114726040Y-105488385D01*
X114718934Y-105490269D01*
X114710687Y-105490723D01*
X109169560Y-105490723D01*
X109101439Y-105470721D01*
X109054946Y-105417065D01*
X109044891Y-105347131D01*
X109045044Y-105346762D01*
X109065682Y-105190000D01*
X109048127Y-105056657D01*
X109046122Y-105041426D01*
X109045044Y-105033238D01*
X108984536Y-104887159D01*
X108888282Y-104761718D01*
X108881736Y-104756695D01*
X108881732Y-104756691D01*
X108799582Y-104693655D01*
X108757715Y-104636317D01*
X108755266Y-104595201D01*
X108709030Y-104619738D01*
X108635497Y-104612716D01*
X108616762Y-104604956D01*
X108460000Y-104584318D01*
X108303238Y-104604956D01*
X108157159Y-104665464D01*
X108099633Y-104709605D01*
X108040888Y-104754682D01*
X108031718Y-104761718D01*
X107935464Y-104887159D01*
X107874956Y-105033238D01*
X107873878Y-105041426D01*
X107871873Y-105056657D01*
X107854318Y-105190000D01*
X107856749Y-105208464D01*
X107874956Y-105346762D01*
X107871788Y-105347179D01*
X107870458Y-105403084D01*
X107830666Y-105461881D01*
X107765403Y-105489831D01*
X107750440Y-105490723D01*
X107695822Y-105490723D01*
X107627701Y-105470721D01*
X107619118Y-105464686D01*
X107538836Y-105403084D01*
X107502841Y-105375464D01*
X107356762Y-105314956D01*
X107200000Y-105294318D01*
X107043238Y-105314956D01*
X106897159Y-105375464D01*
X106771718Y-105471718D01*
X106675464Y-105597159D01*
X106671123Y-105607640D01*
X106669482Y-105609677D01*
X106668175Y-105611940D01*
X106667822Y-105611736D01*
X106626574Y-105662920D01*
X106559211Y-105685341D01*
X106490420Y-105667783D01*
X106465619Y-105648516D01*
X104813242Y-103996139D01*
X104803388Y-103985050D01*
X104788196Y-103965780D01*
X104788194Y-103965778D01*
X104782361Y-103958379D01*
X104774614Y-103953024D01*
X104774612Y-103953023D01*
X104738364Y-103927971D01*
X104734104Y-103925027D01*
X104730892Y-103922732D01*
X104726785Y-103919698D01*
X104713116Y-103909602D01*
X104691247Y-103893449D01*
X104691246Y-103893448D01*
X104683673Y-103887855D01*
X104676857Y-103885462D01*
X104670920Y-103881358D01*
X104661940Y-103878518D01*
X104661938Y-103878517D01*
X104635367Y-103870114D01*
X104614970Y-103863663D01*
X104611239Y-103862418D01*
X104564752Y-103846093D01*
X104564750Y-103846093D01*
X104555858Y-103842970D01*
X104548670Y-103842688D01*
X104548611Y-103842677D01*
X104541759Y-103840509D01*
X104535152Y-103839989D01*
X104482473Y-103839989D01*
X104477526Y-103839892D01*
X104420495Y-103837651D01*
X104413389Y-103839535D01*
X104405142Y-103839989D01*
X104004103Y-103839989D01*
X103989294Y-103839116D01*
X103980042Y-103838021D01*
X103955573Y-103835125D01*
X103946310Y-103836817D01*
X103946303Y-103836817D01*
X103897866Y-103845664D01*
X103893967Y-103846314D01*
X103875666Y-103849065D01*
X103845240Y-103853639D01*
X103845239Y-103853639D01*
X103835922Y-103855040D01*
X103829409Y-103858168D01*
X103822311Y-103859464D01*
X103770231Y-103886517D01*
X103766729Y-103888266D01*
X103728455Y-103906645D01*
X103713805Y-103913680D01*
X103708520Y-103918566D01*
X103708473Y-103918597D01*
X103702095Y-103921910D01*
X103697056Y-103926214D01*
X103659829Y-103963441D01*
X103656264Y-103966870D01*
X103614328Y-104005635D01*
X103610635Y-104011994D01*
X103605118Y-104018152D01*
X103353639Y-104269631D01*
X103342550Y-104279485D01*
X103323280Y-104294677D01*
X103323278Y-104294679D01*
X103315879Y-104300512D01*
X103284039Y-104346582D01*
X103282534Y-104348759D01*
X103280239Y-104351971D01*
X103245355Y-104399200D01*
X103242962Y-104406016D01*
X103238858Y-104411953D01*
X103236018Y-104420933D01*
X103236017Y-104420935D01*
X103231555Y-104435044D01*
X103226578Y-104450783D01*
X103221171Y-104467879D01*
X103219918Y-104471634D01*
X103207082Y-104508188D01*
X103200470Y-104527015D01*
X103200188Y-104534203D01*
X103200177Y-104534262D01*
X103198009Y-104541114D01*
X103197489Y-104547721D01*
X103197489Y-104600400D01*
X103197392Y-104605346D01*
X103195151Y-104662378D01*
X103197035Y-104669484D01*
X103197489Y-104677731D01*
X103197489Y-105033769D01*
X103196616Y-105048578D01*
X103192625Y-105082299D01*
X103194317Y-105091563D01*
X103194317Y-105091564D01*
X103203161Y-105139990D01*
X103203811Y-105143893D01*
X103211016Y-105191812D01*
X103212540Y-105201951D01*
X103215668Y-105208464D01*
X103216964Y-105215562D01*
X103244014Y-105267636D01*
X103245757Y-105271126D01*
X103271180Y-105324068D01*
X103276066Y-105329354D01*
X103276099Y-105329402D01*
X103279410Y-105335777D01*
X103283714Y-105340817D01*
X103320941Y-105378044D01*
X103324370Y-105381609D01*
X103363135Y-105423545D01*
X103369494Y-105427238D01*
X103375652Y-105432755D01*
X104913075Y-106970178D01*
X104947101Y-107032490D01*
X104949980Y-107059273D01*
X104949980Y-108547580D01*
X104929978Y-108615701D01*
X104876322Y-108662194D01*
X104806048Y-108672298D01*
X104747276Y-108647542D01*
X104659897Y-108580494D01*
X104659894Y-108580492D01*
X104653341Y-108575464D01*
X104507262Y-108514956D01*
X104350500Y-108494318D01*
X104252130Y-108507269D01*
X104181983Y-108496330D01*
X104128884Y-108449202D01*
X104109694Y-108380848D01*
X104123356Y-108330999D01*
X104121191Y-108330035D01*
X104123875Y-108324007D01*
X104127179Y-108318284D01*
X104185674Y-108138256D01*
X104200500Y-107997192D01*
X104200500Y-107202808D01*
X104189280Y-107096052D01*
X104186364Y-107068307D01*
X104186364Y-107068305D01*
X104185674Y-107061744D01*
X104127179Y-106881716D01*
X104105003Y-106843305D01*
X104035836Y-106723505D01*
X104032533Y-106717784D01*
X104013605Y-106696762D01*
X103910286Y-106582015D01*
X103910284Y-106582014D01*
X103905871Y-106577112D01*
X103870341Y-106551298D01*
X103758072Y-106469730D01*
X103758071Y-106469729D01*
X103752730Y-106465849D01*
X103579803Y-106388856D01*
X103481788Y-106368022D01*
X103401103Y-106350872D01*
X103401099Y-106350872D01*
X103394646Y-106349500D01*
X103205354Y-106349500D01*
X103198901Y-106350872D01*
X103198897Y-106350872D01*
X103118212Y-106368022D01*
X103020197Y-106388856D01*
X102847270Y-106465849D01*
X102841929Y-106469729D01*
X102841928Y-106469730D01*
X102729659Y-106551298D01*
X102694129Y-106577112D01*
X102689716Y-106582014D01*
X102689714Y-106582015D01*
X102586395Y-106696762D01*
X102567467Y-106717784D01*
X102564164Y-106723505D01*
X102494998Y-106843305D01*
X102472821Y-106881716D01*
X102437025Y-106991884D01*
X102422221Y-107037446D01*
X102382147Y-107096052D01*
X102316751Y-107123689D01*
X102246794Y-107111582D01*
X102194488Y-107063576D01*
X102185718Y-107042959D01*
X102185044Y-107043238D01*
X102163772Y-106991884D01*
X102124536Y-106897159D01*
X102050007Y-106800031D01*
X102033305Y-106778264D01*
X102028282Y-106771718D01*
X101902841Y-106675464D01*
X101756762Y-106614956D01*
X101696733Y-106607053D01*
X101608188Y-106595396D01*
X101600000Y-106594318D01*
X101591812Y-106595396D01*
X101503268Y-106607053D01*
X101443238Y-106614956D01*
X101297159Y-106675464D01*
X101171718Y-106771718D01*
X101166695Y-106778264D01*
X101149993Y-106800031D01*
X101075464Y-106897159D01*
X101014956Y-107043238D01*
X100994318Y-107200000D01*
X101014956Y-107356762D01*
X101075464Y-107502841D01*
X101171718Y-107628282D01*
X101297159Y-107724536D01*
X101443238Y-107785044D01*
X101600000Y-107805682D01*
X101608188Y-107804604D01*
X101621580Y-107802841D01*
X101756762Y-107785044D01*
X101902841Y-107724536D01*
X102028282Y-107628282D01*
X102124536Y-107502841D01*
X102157091Y-107424246D01*
X102201639Y-107368965D01*
X102269003Y-107346544D01*
X102337794Y-107364102D01*
X102386172Y-107416064D01*
X102399500Y-107472464D01*
X102399500Y-107997192D01*
X102414326Y-108138256D01*
X102472821Y-108318284D01*
X102476124Y-108324006D01*
X102476125Y-108324007D01*
X102550842Y-108453421D01*
X102567467Y-108482216D01*
X102571885Y-108487123D01*
X102571886Y-108487124D01*
X102687658Y-108615701D01*
X102694129Y-108622888D01*
X102699468Y-108626767D01*
X102840058Y-108728911D01*
X102847270Y-108734151D01*
X103020197Y-108811144D01*
X103118212Y-108831978D01*
X103198897Y-108849128D01*
X103198901Y-108849128D01*
X103205354Y-108850500D01*
X103394646Y-108850500D01*
X103401099Y-108849128D01*
X103401103Y-108849128D01*
X103481788Y-108831978D01*
X103579803Y-108811144D01*
X103590735Y-108806277D01*
X103661099Y-108796842D01*
X103725397Y-108826947D01*
X103763211Y-108887035D01*
X103763613Y-108942995D01*
X103765456Y-108943238D01*
X103744818Y-109100000D01*
X103745896Y-109108188D01*
X103761553Y-109227112D01*
X103765456Y-109256762D01*
X103768616Y-109264391D01*
X103821276Y-109391523D01*
X103828865Y-109462113D01*
X103816089Y-109496996D01*
X103815964Y-109497159D01*
X103812805Y-109504785D01*
X103812804Y-109504787D01*
X103783529Y-109575464D01*
X103755456Y-109643238D01*
X103734818Y-109800000D01*
X103755456Y-109956762D01*
X103815964Y-110102841D01*
X103912218Y-110228282D01*
X104037659Y-110324536D01*
X104183738Y-110385044D01*
X104340500Y-110405682D01*
X104348688Y-110404604D01*
X104362080Y-110402841D01*
X104497262Y-110385044D01*
X104643341Y-110324536D01*
X104747276Y-110244784D01*
X104813496Y-110219184D01*
X104883045Y-110233449D01*
X104933841Y-110283050D01*
X104949980Y-110344747D01*
X104949980Y-110893906D01*
X104929978Y-110962027D01*
X104876322Y-111008520D01*
X104806048Y-111018624D01*
X104747277Y-110993869D01*
X104740328Y-110988537D01*
X104740324Y-110988535D01*
X104733773Y-110983508D01*
X104587694Y-110923000D01*
X104430932Y-110902362D01*
X104274170Y-110923000D01*
X104128091Y-110983508D01*
X104002650Y-111079762D01*
X103906396Y-111205203D01*
X103845888Y-111351282D01*
X103825250Y-111508044D01*
X103845888Y-111664806D01*
X103906396Y-111810885D01*
X104002650Y-111936326D01*
X104009196Y-111941349D01*
X104013812Y-111945965D01*
X104029582Y-111974845D01*
X104053520Y-111978753D01*
X104075709Y-111992386D01*
X104128091Y-112032580D01*
X104274170Y-112093088D01*
X104430932Y-112113726D01*
X104439120Y-112112648D01*
X104579506Y-112094166D01*
X104587694Y-112093088D01*
X104733773Y-112032580D01*
X104740324Y-112027553D01*
X104740328Y-112027551D01*
X104747277Y-112022219D01*
X104813498Y-111996619D01*
X104883046Y-112010884D01*
X104933842Y-112060486D01*
X104949980Y-112122182D01*
X104949980Y-112541546D01*
X104929978Y-112609667D01*
X104900684Y-112641509D01*
X104822218Y-112701718D01*
X104817195Y-112708264D01*
X104800337Y-112730234D01*
X104725964Y-112827159D01*
X104665456Y-112973238D01*
X104664378Y-112981427D01*
X104662762Y-112993699D01*
X104634038Y-113058626D01*
X104586058Y-113093659D01*
X104573608Y-113098816D01*
X104489198Y-113133780D01*
X104482647Y-113138807D01*
X104403204Y-113199765D01*
X104336983Y-113225365D01*
X104267434Y-113211100D01*
X104216639Y-113161499D01*
X104200500Y-113099802D01*
X104200500Y-112802808D01*
X104190555Y-112708188D01*
X104186364Y-112668307D01*
X104186364Y-112668305D01*
X104185674Y-112661744D01*
X104127179Y-112481716D01*
X104090638Y-112418424D01*
X104035836Y-112323505D01*
X104032533Y-112317784D01*
X104016346Y-112299806D01*
X103905871Y-112177112D01*
X103908030Y-112175168D01*
X103893791Y-112152056D01*
X103864332Y-112145648D01*
X103850656Y-112136996D01*
X103758072Y-112069730D01*
X103758071Y-112069729D01*
X103752730Y-112065849D01*
X103579803Y-111988856D01*
X103466129Y-111964694D01*
X103401103Y-111950872D01*
X103401099Y-111950872D01*
X103394646Y-111949500D01*
X103205354Y-111949500D01*
X103198901Y-111950872D01*
X103198897Y-111950872D01*
X103133871Y-111964694D01*
X103020197Y-111988856D01*
X102847270Y-112065849D01*
X102841929Y-112069729D01*
X102841928Y-112069730D01*
X102700747Y-112172304D01*
X102694129Y-112177112D01*
X102689716Y-112182014D01*
X102689714Y-112182015D01*
X102581933Y-112301718D01*
X102567467Y-112317784D01*
X102564164Y-112323505D01*
X102509363Y-112418424D01*
X102472821Y-112481716D01*
X102414326Y-112661744D01*
X102413636Y-112668305D01*
X102413636Y-112668307D01*
X102409445Y-112708188D01*
X102399500Y-112802808D01*
X102399500Y-113597192D01*
X102414326Y-113738256D01*
X102472821Y-113918284D01*
X102476124Y-113924006D01*
X102476125Y-113924007D01*
X102538783Y-114032534D01*
X102567467Y-114082216D01*
X102571885Y-114087123D01*
X102571886Y-114087124D01*
X102684252Y-114211918D01*
X102694129Y-114222888D01*
X102699468Y-114226767D01*
X102763403Y-114273218D01*
X102847270Y-114334151D01*
X102964671Y-114386422D01*
X103014020Y-114408394D01*
X103068116Y-114454374D01*
X103088765Y-114522301D01*
X103069412Y-114590609D01*
X103016201Y-114637610D01*
X102962771Y-114649500D01*
X101037503Y-114649500D01*
X101017792Y-114647949D01*
X101009793Y-114646682D01*
X101009792Y-114646682D01*
X101000000Y-114645131D01*
X100990208Y-114646682D01*
X100982067Y-114646682D01*
X100967960Y-114645890D01*
X100952389Y-114644136D01*
X100869579Y-114634805D01*
X100842072Y-114628526D01*
X100731593Y-114589868D01*
X100706180Y-114577631D01*
X100607057Y-114515349D01*
X100585002Y-114497759D01*
X100502241Y-114414998D01*
X100484651Y-114392943D01*
X100422369Y-114293820D01*
X100410132Y-114268407D01*
X100371474Y-114157928D01*
X100365195Y-114130421D01*
X100354110Y-114032041D01*
X100353318Y-114017933D01*
X100353318Y-114009792D01*
X100354869Y-114000000D01*
X100352051Y-113982208D01*
X100350500Y-113962497D01*
X100350500Y-111729497D01*
X100370502Y-111661376D01*
X100424158Y-111614883D01*
X100494432Y-111604779D01*
X100550561Y-111627561D01*
X100581772Y-111650237D01*
X100662189Y-111708663D01*
X100697270Y-111734151D01*
X100870197Y-111811144D01*
X100968212Y-111831978D01*
X101048897Y-111849128D01*
X101048901Y-111849128D01*
X101055354Y-111850500D01*
X101244646Y-111850500D01*
X101251099Y-111849128D01*
X101251103Y-111849128D01*
X101331788Y-111831978D01*
X101429803Y-111811144D01*
X101602730Y-111734151D01*
X101637812Y-111708663D01*
X101750532Y-111626767D01*
X101755871Y-111622888D01*
X101772177Y-111604779D01*
X101878114Y-111487124D01*
X101878115Y-111487123D01*
X101882533Y-111482216D01*
X101926599Y-111405891D01*
X101973875Y-111324007D01*
X101973876Y-111324006D01*
X101977179Y-111318284D01*
X102035674Y-111138256D01*
X102050500Y-110997192D01*
X102050500Y-109802808D01*
X102038285Y-109686589D01*
X102036364Y-109668307D01*
X102036364Y-109668305D01*
X102035674Y-109661744D01*
X101977179Y-109481716D01*
X101973204Y-109474830D01*
X101885836Y-109323505D01*
X101882533Y-109317784D01*
X101869078Y-109302841D01*
X101760286Y-109182015D01*
X101760284Y-109182014D01*
X101755871Y-109177112D01*
X101744406Y-109168782D01*
X101608072Y-109069730D01*
X101608071Y-109069729D01*
X101602730Y-109065849D01*
X101429803Y-108988856D01*
X101331788Y-108968022D01*
X101251103Y-108950872D01*
X101251099Y-108950872D01*
X101244646Y-108949500D01*
X101055354Y-108949500D01*
X101048901Y-108950872D01*
X101048897Y-108950872D01*
X100968212Y-108968022D01*
X100870197Y-108988856D01*
X100697270Y-109065849D01*
X100570135Y-109158218D01*
X100550561Y-109172439D01*
X100483693Y-109196298D01*
X100414541Y-109180217D01*
X100365061Y-109129303D01*
X100350500Y-109070503D01*
X100350500Y-101868440D01*
X100694770Y-101868440D01*
X100709200Y-102088604D01*
X100710621Y-102094200D01*
X100710622Y-102094205D01*
X100738472Y-102203863D01*
X100763511Y-102302452D01*
X100765928Y-102307694D01*
X100765928Y-102307695D01*
X100853019Y-102496608D01*
X100855883Y-102502821D01*
X100983222Y-102683002D01*
X101141264Y-102836961D01*
X101146060Y-102840166D01*
X101146063Y-102840168D01*
X101290527Y-102936695D01*
X101324717Y-102959540D01*
X101330020Y-102961818D01*
X101330023Y-102961820D01*
X101520993Y-103043867D01*
X101527436Y-103046635D01*
X101589188Y-103060608D01*
X101736995Y-103094054D01*
X101737001Y-103094055D01*
X101742632Y-103095329D01*
X101748403Y-103095556D01*
X101748405Y-103095556D01*
X101816211Y-103098220D01*
X101963098Y-103103991D01*
X102085524Y-103086240D01*
X102175738Y-103073160D01*
X102175743Y-103073159D01*
X102181452Y-103072331D01*
X102186916Y-103070476D01*
X102186921Y-103070475D01*
X102384907Y-103003268D01*
X102384912Y-103003266D01*
X102390379Y-103001410D01*
X102407518Y-102991812D01*
X102487251Y-102947159D01*
X102582884Y-102893602D01*
X102590213Y-102887507D01*
X102748086Y-102756204D01*
X102752518Y-102752518D01*
X102860236Y-102623002D01*
X102889908Y-102587326D01*
X102889910Y-102587323D01*
X102893602Y-102582884D01*
X103001410Y-102390379D01*
X103002518Y-102391000D01*
X103044377Y-102341756D01*
X103112305Y-102321109D01*
X103180612Y-102340464D01*
X103227612Y-102393676D01*
X103239500Y-102447103D01*
X103239500Y-102783218D01*
X103240170Y-102787768D01*
X103240170Y-102787771D01*
X103248198Y-102842304D01*
X103249642Y-102852112D01*
X103271610Y-102896855D01*
X103296308Y-102947159D01*
X103301068Y-102956855D01*
X103383650Y-103039293D01*
X103393006Y-103043866D01*
X103393007Y-103043867D01*
X103402187Y-103048354D01*
X103488482Y-103090536D01*
X103512597Y-103094054D01*
X103552256Y-103099840D01*
X103552260Y-103099840D01*
X103556782Y-103100500D01*
X105323218Y-103100500D01*
X105327768Y-103099830D01*
X105327771Y-103099830D01*
X105382426Y-103091784D01*
X105382427Y-103091784D01*
X105392112Y-103090358D01*
X105444978Y-103064402D01*
X105487507Y-103043522D01*
X105487509Y-103043521D01*
X105496855Y-103038932D01*
X105579293Y-102956350D01*
X105584544Y-102945609D01*
X105610834Y-102891823D01*
X105630536Y-102851518D01*
X105638007Y-102800306D01*
X105639840Y-102787744D01*
X105639840Y-102787740D01*
X105640500Y-102783218D01*
X105640500Y-102692244D01*
X108355819Y-102692244D01*
X108356176Y-102699061D01*
X108356176Y-102699065D01*
X108363192Y-102832934D01*
X108365490Y-102876781D01*
X108367301Y-102883354D01*
X108367301Y-102883357D01*
X108412276Y-103046635D01*
X108414562Y-103054936D01*
X108500746Y-103218398D01*
X108541617Y-103266762D01*
X108588083Y-103321747D01*
X108619094Y-103358444D01*
X108620020Y-103359540D01*
X108619824Y-103359706D01*
X108653599Y-103418117D01*
X108650269Y-103489035D01*
X108631134Y-103524608D01*
X108615325Y-103545211D01*
X108575464Y-103597159D01*
X108514956Y-103743238D01*
X108494318Y-103900000D01*
X108497311Y-103922732D01*
X108507317Y-103998734D01*
X108514956Y-104056762D01*
X108575464Y-104202841D01*
X108671718Y-104328282D01*
X108678264Y-104333305D01*
X108678268Y-104333309D01*
X108760418Y-104396345D01*
X108802285Y-104453683D01*
X108804734Y-104494799D01*
X108850970Y-104470262D01*
X108924503Y-104477284D01*
X108943238Y-104485044D01*
X109100000Y-104505682D01*
X109108188Y-104504604D01*
X109248574Y-104486122D01*
X109256762Y-104485044D01*
X109402841Y-104424536D01*
X109528282Y-104328282D01*
X109624536Y-104202841D01*
X109685044Y-104056762D01*
X109692684Y-103998734D01*
X109702689Y-103922732D01*
X109705682Y-103900000D01*
X109685044Y-103743238D01*
X109628272Y-103606178D01*
X109620683Y-103535590D01*
X109652462Y-103472103D01*
X109679782Y-103449961D01*
X109727244Y-103421443D01*
X109732265Y-103416695D01*
X109856549Y-103299165D01*
X109856551Y-103299163D01*
X109861507Y-103294476D01*
X109965375Y-103141640D01*
X109967910Y-103135303D01*
X110031466Y-102976402D01*
X110031467Y-102976397D01*
X110034000Y-102970065D01*
X110052072Y-102860902D01*
X110063066Y-102794494D01*
X110063066Y-102794490D01*
X110064181Y-102787756D01*
X110063784Y-102780168D01*
X110059176Y-102692244D01*
X111355819Y-102692244D01*
X111356176Y-102699061D01*
X111356176Y-102699065D01*
X111363192Y-102832934D01*
X111365490Y-102876781D01*
X111367301Y-102883354D01*
X111367301Y-102883357D01*
X111412276Y-103046635D01*
X111414562Y-103054936D01*
X111500746Y-103218398D01*
X111620020Y-103359540D01*
X111625444Y-103363687D01*
X111625445Y-103363688D01*
X111761399Y-103467633D01*
X111761403Y-103467636D01*
X111766820Y-103471777D01*
X111773000Y-103474659D01*
X111773002Y-103474660D01*
X111928120Y-103546993D01*
X111928123Y-103546994D01*
X111934297Y-103549873D01*
X111940942Y-103551358D01*
X111940947Y-103551360D01*
X112049207Y-103575558D01*
X112114637Y-103590183D01*
X112120307Y-103590500D01*
X112256164Y-103590500D01*
X112393709Y-103575558D01*
X112568848Y-103516617D01*
X112727244Y-103421443D01*
X112732265Y-103416695D01*
X112856549Y-103299165D01*
X112856551Y-103299163D01*
X112861507Y-103294476D01*
X112965375Y-103141640D01*
X112967910Y-103135303D01*
X113031466Y-102976402D01*
X113031467Y-102976397D01*
X113034000Y-102970065D01*
X113052072Y-102860902D01*
X113063066Y-102794494D01*
X113063066Y-102794490D01*
X113064181Y-102787756D01*
X113063784Y-102780168D01*
X113054867Y-102610032D01*
X113054510Y-102603219D01*
X113051040Y-102590619D01*
X113007251Y-102431646D01*
X113005438Y-102425064D01*
X112919254Y-102261602D01*
X112799980Y-102120460D01*
X112779601Y-102104879D01*
X112658601Y-102012367D01*
X112658597Y-102012364D01*
X112653180Y-102008223D01*
X112647000Y-102005341D01*
X112646998Y-102005340D01*
X112491880Y-101933007D01*
X112491877Y-101933006D01*
X112485703Y-101930127D01*
X112479058Y-101928642D01*
X112479053Y-101928640D01*
X112339129Y-101897365D01*
X112305363Y-101889817D01*
X112299693Y-101889500D01*
X112163836Y-101889500D01*
X112026291Y-101904442D01*
X111851152Y-101963383D01*
X111692756Y-102058557D01*
X111687796Y-102063248D01*
X111687794Y-102063249D01*
X111567761Y-102176760D01*
X111558493Y-102185524D01*
X111454625Y-102338360D01*
X111452092Y-102344694D01*
X111452090Y-102344697D01*
X111388534Y-102503598D01*
X111388533Y-102503603D01*
X111386000Y-102509935D01*
X111373923Y-102582884D01*
X111357562Y-102681718D01*
X111355819Y-102692244D01*
X110059176Y-102692244D01*
X110054867Y-102610032D01*
X110054510Y-102603219D01*
X110051040Y-102590619D01*
X110007251Y-102431646D01*
X110005438Y-102425064D01*
X109919254Y-102261602D01*
X109799980Y-102120460D01*
X109779601Y-102104879D01*
X109658601Y-102012367D01*
X109658597Y-102012364D01*
X109653180Y-102008223D01*
X109647000Y-102005341D01*
X109646998Y-102005340D01*
X109491880Y-101933007D01*
X109491877Y-101933006D01*
X109485703Y-101930127D01*
X109479058Y-101928642D01*
X109479053Y-101928640D01*
X109339129Y-101897365D01*
X109305363Y-101889817D01*
X109299693Y-101889500D01*
X109163836Y-101889500D01*
X109026291Y-101904442D01*
X108851152Y-101963383D01*
X108692756Y-102058557D01*
X108687796Y-102063248D01*
X108687794Y-102063249D01*
X108567761Y-102176760D01*
X108558493Y-102185524D01*
X108454625Y-102338360D01*
X108452092Y-102344694D01*
X108452090Y-102344697D01*
X108388534Y-102503598D01*
X108388533Y-102503603D01*
X108386000Y-102509935D01*
X108373923Y-102582884D01*
X108357562Y-102681718D01*
X108355819Y-102692244D01*
X105640500Y-102692244D01*
X105640500Y-101016782D01*
X105638030Y-101000000D01*
X105631784Y-100957574D01*
X105631784Y-100957573D01*
X105630358Y-100947888D01*
X105605860Y-100897992D01*
X105583522Y-100852493D01*
X105583521Y-100852491D01*
X105578932Y-100843145D01*
X105496350Y-100760707D01*
X105466562Y-100746146D01*
X105436789Y-100731593D01*
X105391518Y-100709464D01*
X105361027Y-100705016D01*
X105327744Y-100700160D01*
X105327740Y-100700160D01*
X105323218Y-100699500D01*
X103556782Y-100699500D01*
X103552232Y-100700170D01*
X103552229Y-100700170D01*
X103497574Y-100708216D01*
X103497573Y-100708216D01*
X103487888Y-100709642D01*
X103470472Y-100718193D01*
X103392493Y-100756478D01*
X103392491Y-100756479D01*
X103383145Y-100761068D01*
X103300707Y-100843650D01*
X103249464Y-100948482D01*
X103248052Y-100958162D01*
X103240520Y-101009793D01*
X103239500Y-101016782D01*
X103239500Y-101361369D01*
X103219498Y-101429490D01*
X103165842Y-101475983D01*
X103095568Y-101486087D01*
X103030988Y-101456593D01*
X103000494Y-101417097D01*
X102930535Y-101275234D01*
X102927980Y-101270053D01*
X102914071Y-101251426D01*
X102799420Y-101097891D01*
X102799420Y-101097890D01*
X102795967Y-101093267D01*
X102660410Y-100967959D01*
X102638189Y-100947418D01*
X102638186Y-100947416D01*
X102633949Y-100943499D01*
X102447350Y-100825764D01*
X102242421Y-100744006D01*
X102236761Y-100742880D01*
X102236757Y-100742879D01*
X102031691Y-100702089D01*
X102031688Y-100702089D01*
X102026024Y-100700962D01*
X102020249Y-100700886D01*
X102020245Y-100700886D01*
X101909504Y-100699437D01*
X101805406Y-100698074D01*
X101799709Y-100699053D01*
X101799708Y-100699053D01*
X101593654Y-100734459D01*
X101593653Y-100734459D01*
X101587957Y-100735438D01*
X101380957Y-100811804D01*
X101375996Y-100814756D01*
X101375995Y-100814756D01*
X101340644Y-100835788D01*
X101191341Y-100924614D01*
X101025457Y-101070090D01*
X100888863Y-101243360D01*
X100786131Y-101438620D01*
X100720703Y-101649333D01*
X100694770Y-101868440D01*
X100350500Y-101868440D01*
X100350500Y-101037503D01*
X100352051Y-101017792D01*
X100353318Y-101009793D01*
X100353318Y-101009792D01*
X100354869Y-101000000D01*
X100353318Y-100990208D01*
X100353318Y-100982067D01*
X100354110Y-100967959D01*
X100365195Y-100869579D01*
X100371474Y-100842072D01*
X100410132Y-100731593D01*
X100422369Y-100706180D01*
X100484651Y-100607057D01*
X100502241Y-100585002D01*
X100585002Y-100502241D01*
X100607057Y-100484651D01*
X100706180Y-100422369D01*
X100731593Y-100410132D01*
X100842072Y-100371474D01*
X100869579Y-100365195D01*
X100961223Y-100354869D01*
X100967960Y-100354110D01*
X100982067Y-100353318D01*
X100990208Y-100353318D01*
X101000000Y-100354869D01*
X101009792Y-100353318D01*
X101009793Y-100353318D01*
X101017792Y-100352051D01*
X101037503Y-100350500D01*
X109425364Y-100350500D01*
X109493485Y-100370502D01*
G37*
G04 #@! TD.AperFunction*
M02*
