G04 #@! TF.GenerationSoftware,KiCad,Pcbnew,(5.1.9)-1*
G04 #@! TF.CreationDate,2021-06-24T13:46:27+10:00*
G04 #@! TF.ProjectId,microBoSL,6d696372-6f42-46f5-934c-2e6b69636164,0.2.0*
G04 #@! TF.SameCoordinates,Original*
G04 #@! TF.FileFunction,Copper,L1,Top*
G04 #@! TF.FilePolarity,Positive*
%FSLAX46Y46*%
G04 Gerber Fmt 4.6, Leading zero omitted, Abs format (unit mm)*
G04 Created by KiCad (PCBNEW (5.1.9)-1) date 2021-06-24 13:46:27*
%MOMM*%
%LPD*%
G01*
G04 APERTURE LIST*
G04 #@! TA.AperFunction,ComponentPad*
%ADD10O,1.100000X2.200000*%
G04 #@! TD*
G04 #@! TA.AperFunction,ComponentPad*
%ADD11O,1.100000X1.800000*%
G04 #@! TD*
G04 #@! TA.AperFunction,SMDPad,CuDef*
%ADD12R,1.500000X0.450000*%
G04 #@! TD*
G04 #@! TA.AperFunction,ComponentPad*
%ADD13O,1.000000X1.000000*%
G04 #@! TD*
G04 #@! TA.AperFunction,ComponentPad*
%ADD14R,1.000000X1.000000*%
G04 #@! TD*
G04 #@! TA.AperFunction,ComponentPad*
%ADD15O,1.350000X1.350000*%
G04 #@! TD*
G04 #@! TA.AperFunction,ComponentPad*
%ADD16R,1.350000X1.350000*%
G04 #@! TD*
G04 #@! TA.AperFunction,ComponentPad*
%ADD17O,1.700000X1.700000*%
G04 #@! TD*
G04 #@! TA.AperFunction,ComponentPad*
%ADD18R,1.700000X1.700000*%
G04 #@! TD*
G04 #@! TA.AperFunction,SMDPad,CuDef*
%ADD19R,1.100000X0.600000*%
G04 #@! TD*
G04 #@! TA.AperFunction,SMDPad,CuDef*
%ADD20R,2.400000X2.400000*%
G04 #@! TD*
G04 #@! TA.AperFunction,SMDPad,CuDef*
%ADD21C,0.100000*%
G04 #@! TD*
G04 #@! TA.AperFunction,SMDPad,CuDef*
%ADD22R,1.000000X1.200000*%
G04 #@! TD*
G04 #@! TA.AperFunction,WasherPad*
%ADD23C,0.850000*%
G04 #@! TD*
G04 #@! TA.AperFunction,SMDPad,CuDef*
%ADD24R,1.300000X1.500000*%
G04 #@! TD*
G04 #@! TA.AperFunction,SMDPad,CuDef*
%ADD25R,0.750000X0.300000*%
G04 #@! TD*
G04 #@! TA.AperFunction,ViaPad*
%ADD26C,0.600000*%
G04 #@! TD*
G04 #@! TA.AperFunction,ViaPad*
%ADD27C,0.500000*%
G04 #@! TD*
G04 #@! TA.AperFunction,Conductor*
%ADD28C,0.160000*%
G04 #@! TD*
G04 #@! TA.AperFunction,Conductor*
%ADD29C,0.250000*%
G04 #@! TD*
G04 #@! TA.AperFunction,Conductor*
%ADD30C,0.400000*%
G04 #@! TD*
G04 #@! TA.AperFunction,Conductor*
%ADD31C,0.254000*%
G04 #@! TD*
G04 #@! TA.AperFunction,Conductor*
%ADD32C,0.100000*%
G04 #@! TD*
G04 APERTURE END LIST*
D10*
X101125000Y-112450000D03*
D11*
X103275000Y-115250000D03*
X103275000Y-109650000D03*
D12*
X103025000Y-111150000D03*
X103025000Y-113750000D03*
X103025000Y-111800000D03*
X103025000Y-113100000D03*
X103025000Y-112450000D03*
D13*
X121500000Y-113500000D03*
X120230000Y-113500000D03*
X118960000Y-113500000D03*
D14*
X117690000Y-113500000D03*
D15*
X143500000Y-107500000D03*
X143500000Y-105500000D03*
D16*
X143500000Y-103500000D03*
D15*
X141000000Y-107500000D03*
X141000000Y-105500000D03*
D16*
X141000000Y-103500000D03*
D15*
X120700000Y-103500000D03*
X122700000Y-103500000D03*
D16*
X124700000Y-103500000D03*
D15*
X121500000Y-115500000D03*
X119500000Y-115500000D03*
D16*
X117500000Y-115500000D03*
G04 #@! TA.AperFunction,SMDPad,CuDef*
G36*
G01*
X138505000Y-113500000D02*
X138805000Y-113500000D01*
G75*
G02*
X138955000Y-113650000I0J-150000D01*
G01*
X138955000Y-115300000D01*
G75*
G02*
X138805000Y-115450000I-150000J0D01*
G01*
X138505000Y-115450000D01*
G75*
G02*
X138355000Y-115300000I0J150000D01*
G01*
X138355000Y-113650000D01*
G75*
G02*
X138505000Y-113500000I150000J0D01*
G01*
G37*
G04 #@! TD.AperFunction*
G04 #@! TA.AperFunction,SMDPad,CuDef*
G36*
G01*
X137235000Y-113500000D02*
X137535000Y-113500000D01*
G75*
G02*
X137685000Y-113650000I0J-150000D01*
G01*
X137685000Y-115300000D01*
G75*
G02*
X137535000Y-115450000I-150000J0D01*
G01*
X137235000Y-115450000D01*
G75*
G02*
X137085000Y-115300000I0J150000D01*
G01*
X137085000Y-113650000D01*
G75*
G02*
X137235000Y-113500000I150000J0D01*
G01*
G37*
G04 #@! TD.AperFunction*
G04 #@! TA.AperFunction,SMDPad,CuDef*
G36*
G01*
X135965000Y-113500000D02*
X136265000Y-113500000D01*
G75*
G02*
X136415000Y-113650000I0J-150000D01*
G01*
X136415000Y-115300000D01*
G75*
G02*
X136265000Y-115450000I-150000J0D01*
G01*
X135965000Y-115450000D01*
G75*
G02*
X135815000Y-115300000I0J150000D01*
G01*
X135815000Y-113650000D01*
G75*
G02*
X135965000Y-113500000I150000J0D01*
G01*
G37*
G04 #@! TD.AperFunction*
G04 #@! TA.AperFunction,SMDPad,CuDef*
G36*
G01*
X134695000Y-113500000D02*
X134995000Y-113500000D01*
G75*
G02*
X135145000Y-113650000I0J-150000D01*
G01*
X135145000Y-115300000D01*
G75*
G02*
X134995000Y-115450000I-150000J0D01*
G01*
X134695000Y-115450000D01*
G75*
G02*
X134545000Y-115300000I0J150000D01*
G01*
X134545000Y-113650000D01*
G75*
G02*
X134695000Y-113500000I150000J0D01*
G01*
G37*
G04 #@! TD.AperFunction*
G04 #@! TA.AperFunction,SMDPad,CuDef*
G36*
G01*
X134695000Y-108550000D02*
X134995000Y-108550000D01*
G75*
G02*
X135145000Y-108700000I0J-150000D01*
G01*
X135145000Y-110350000D01*
G75*
G02*
X134995000Y-110500000I-150000J0D01*
G01*
X134695000Y-110500000D01*
G75*
G02*
X134545000Y-110350000I0J150000D01*
G01*
X134545000Y-108700000D01*
G75*
G02*
X134695000Y-108550000I150000J0D01*
G01*
G37*
G04 #@! TD.AperFunction*
G04 #@! TA.AperFunction,SMDPad,CuDef*
G36*
G01*
X135965000Y-108550000D02*
X136265000Y-108550000D01*
G75*
G02*
X136415000Y-108700000I0J-150000D01*
G01*
X136415000Y-110350000D01*
G75*
G02*
X136265000Y-110500000I-150000J0D01*
G01*
X135965000Y-110500000D01*
G75*
G02*
X135815000Y-110350000I0J150000D01*
G01*
X135815000Y-108700000D01*
G75*
G02*
X135965000Y-108550000I150000J0D01*
G01*
G37*
G04 #@! TD.AperFunction*
G04 #@! TA.AperFunction,SMDPad,CuDef*
G36*
G01*
X137235000Y-108550000D02*
X137535000Y-108550000D01*
G75*
G02*
X137685000Y-108700000I0J-150000D01*
G01*
X137685000Y-110350000D01*
G75*
G02*
X137535000Y-110500000I-150000J0D01*
G01*
X137235000Y-110500000D01*
G75*
G02*
X137085000Y-110350000I0J150000D01*
G01*
X137085000Y-108700000D01*
G75*
G02*
X137235000Y-108550000I150000J0D01*
G01*
G37*
G04 #@! TD.AperFunction*
G04 #@! TA.AperFunction,SMDPad,CuDef*
G36*
G01*
X138505000Y-108550000D02*
X138805000Y-108550000D01*
G75*
G02*
X138955000Y-108700000I0J-150000D01*
G01*
X138955000Y-110350000D01*
G75*
G02*
X138805000Y-110500000I-150000J0D01*
G01*
X138505000Y-110500000D01*
G75*
G02*
X138355000Y-110350000I0J150000D01*
G01*
X138355000Y-108700000D01*
G75*
G02*
X138505000Y-108550000I150000J0D01*
G01*
G37*
G04 #@! TD.AperFunction*
D17*
X143440000Y-115200000D03*
D18*
X140900000Y-115200000D03*
D17*
X143440000Y-111700000D03*
D18*
X140900000Y-111700000D03*
G04 #@! TA.AperFunction,SMDPad,CuDef*
G36*
G01*
X138950000Y-107670000D02*
X138950000Y-107330000D01*
G75*
G02*
X139090000Y-107190000I140000J0D01*
G01*
X139370000Y-107190000D01*
G75*
G02*
X139510000Y-107330000I0J-140000D01*
G01*
X139510000Y-107670000D01*
G75*
G02*
X139370000Y-107810000I-140000J0D01*
G01*
X139090000Y-107810000D01*
G75*
G02*
X138950000Y-107670000I0J140000D01*
G01*
G37*
G04 #@! TD.AperFunction*
G04 #@! TA.AperFunction,SMDPad,CuDef*
G36*
G01*
X137990000Y-107670000D02*
X137990000Y-107330000D01*
G75*
G02*
X138130000Y-107190000I140000J0D01*
G01*
X138410000Y-107190000D01*
G75*
G02*
X138550000Y-107330000I0J-140000D01*
G01*
X138550000Y-107670000D01*
G75*
G02*
X138410000Y-107810000I-140000J0D01*
G01*
X138130000Y-107810000D01*
G75*
G02*
X137990000Y-107670000I0J140000D01*
G01*
G37*
G04 #@! TD.AperFunction*
G04 #@! TA.AperFunction,SMDPad,CuDef*
G36*
G01*
X136450000Y-107330000D02*
X136450000Y-107670000D01*
G75*
G02*
X136310000Y-107810000I-140000J0D01*
G01*
X136030000Y-107810000D01*
G75*
G02*
X135890000Y-107670000I0J140000D01*
G01*
X135890000Y-107330000D01*
G75*
G02*
X136030000Y-107190000I140000J0D01*
G01*
X136310000Y-107190000D01*
G75*
G02*
X136450000Y-107330000I0J-140000D01*
G01*
G37*
G04 #@! TD.AperFunction*
G04 #@! TA.AperFunction,SMDPad,CuDef*
G36*
G01*
X137410000Y-107330000D02*
X137410000Y-107670000D01*
G75*
G02*
X137270000Y-107810000I-140000J0D01*
G01*
X136990000Y-107810000D01*
G75*
G02*
X136850000Y-107670000I0J140000D01*
G01*
X136850000Y-107330000D01*
G75*
G02*
X136990000Y-107190000I140000J0D01*
G01*
X137270000Y-107190000D01*
G75*
G02*
X137410000Y-107330000I0J-140000D01*
G01*
G37*
G04 #@! TD.AperFunction*
D13*
X135860000Y-105200000D03*
X137130000Y-105200000D03*
D14*
X138400000Y-105200000D03*
D13*
X135240000Y-103550000D03*
X136510000Y-103550000D03*
X137780000Y-103550000D03*
D14*
X139050000Y-103550000D03*
D19*
X118200000Y-108400000D03*
X118200000Y-107000000D03*
D20*
X129450000Y-109450000D03*
G04 #@! TA.AperFunction,SMDPad,CuDef*
D21*
G36*
X128174693Y-107101201D02*
G01*
X128186418Y-107104758D01*
X128197223Y-107110533D01*
X128206694Y-107118306D01*
X128214467Y-107127777D01*
X128220242Y-107138582D01*
X128223799Y-107150307D01*
X128225000Y-107162500D01*
X128225000Y-107837500D01*
X128223799Y-107849693D01*
X128220242Y-107861418D01*
X128214467Y-107872223D01*
X128206694Y-107881694D01*
X128197223Y-107889467D01*
X128186418Y-107895242D01*
X128174693Y-107898799D01*
X128162500Y-107900000D01*
X128100888Y-107900000D01*
X128088695Y-107898799D01*
X128076970Y-107895242D01*
X128066165Y-107889467D01*
X128056694Y-107881694D01*
X127993306Y-107818306D01*
X127985533Y-107808835D01*
X127979758Y-107798030D01*
X127976201Y-107786305D01*
X127975000Y-107774112D01*
X127975000Y-107162500D01*
X127976201Y-107150307D01*
X127979758Y-107138582D01*
X127985533Y-107127777D01*
X127993306Y-107118306D01*
X128002777Y-107110533D01*
X128013582Y-107104758D01*
X128025307Y-107101201D01*
X128037500Y-107100000D01*
X128162500Y-107100000D01*
X128174693Y-107101201D01*
G37*
G04 #@! TD.AperFunction*
G04 #@! TA.AperFunction,SMDPad,CuDef*
G36*
G01*
X128425000Y-107837500D02*
X128425000Y-107162500D01*
G75*
G02*
X128487500Y-107100000I62500J0D01*
G01*
X128612500Y-107100000D01*
G75*
G02*
X128675000Y-107162500I0J-62500D01*
G01*
X128675000Y-107837500D01*
G75*
G02*
X128612500Y-107900000I-62500J0D01*
G01*
X128487500Y-107900000D01*
G75*
G02*
X128425000Y-107837500I0J62500D01*
G01*
G37*
G04 #@! TD.AperFunction*
G04 #@! TA.AperFunction,SMDPad,CuDef*
G36*
G01*
X128875000Y-107837500D02*
X128875000Y-107162500D01*
G75*
G02*
X128937500Y-107100000I62500J0D01*
G01*
X129062500Y-107100000D01*
G75*
G02*
X129125000Y-107162500I0J-62500D01*
G01*
X129125000Y-107837500D01*
G75*
G02*
X129062500Y-107900000I-62500J0D01*
G01*
X128937500Y-107900000D01*
G75*
G02*
X128875000Y-107837500I0J62500D01*
G01*
G37*
G04 #@! TD.AperFunction*
G04 #@! TA.AperFunction,SMDPad,CuDef*
G36*
G01*
X129325000Y-107837500D02*
X129325000Y-107162500D01*
G75*
G02*
X129387500Y-107100000I62500J0D01*
G01*
X129512500Y-107100000D01*
G75*
G02*
X129575000Y-107162500I0J-62500D01*
G01*
X129575000Y-107837500D01*
G75*
G02*
X129512500Y-107900000I-62500J0D01*
G01*
X129387500Y-107900000D01*
G75*
G02*
X129325000Y-107837500I0J62500D01*
G01*
G37*
G04 #@! TD.AperFunction*
G04 #@! TA.AperFunction,SMDPad,CuDef*
G36*
G01*
X129775000Y-107837500D02*
X129775000Y-107162500D01*
G75*
G02*
X129837500Y-107100000I62500J0D01*
G01*
X129962500Y-107100000D01*
G75*
G02*
X130025000Y-107162500I0J-62500D01*
G01*
X130025000Y-107837500D01*
G75*
G02*
X129962500Y-107900000I-62500J0D01*
G01*
X129837500Y-107900000D01*
G75*
G02*
X129775000Y-107837500I0J62500D01*
G01*
G37*
G04 #@! TD.AperFunction*
G04 #@! TA.AperFunction,SMDPad,CuDef*
G36*
G01*
X130225000Y-107837500D02*
X130225000Y-107162500D01*
G75*
G02*
X130287500Y-107100000I62500J0D01*
G01*
X130412500Y-107100000D01*
G75*
G02*
X130475000Y-107162500I0J-62500D01*
G01*
X130475000Y-107837500D01*
G75*
G02*
X130412500Y-107900000I-62500J0D01*
G01*
X130287500Y-107900000D01*
G75*
G02*
X130225000Y-107837500I0J62500D01*
G01*
G37*
G04 #@! TD.AperFunction*
G04 #@! TA.AperFunction,SMDPad,CuDef*
G36*
X130874693Y-107101201D02*
G01*
X130886418Y-107104758D01*
X130897223Y-107110533D01*
X130906694Y-107118306D01*
X130914467Y-107127777D01*
X130920242Y-107138582D01*
X130923799Y-107150307D01*
X130925000Y-107162500D01*
X130925000Y-107774112D01*
X130923799Y-107786305D01*
X130920242Y-107798030D01*
X130914467Y-107808835D01*
X130906694Y-107818306D01*
X130843306Y-107881694D01*
X130833835Y-107889467D01*
X130823030Y-107895242D01*
X130811305Y-107898799D01*
X130799112Y-107900000D01*
X130737500Y-107900000D01*
X130725307Y-107898799D01*
X130713582Y-107895242D01*
X130702777Y-107889467D01*
X130693306Y-107881694D01*
X130685533Y-107872223D01*
X130679758Y-107861418D01*
X130676201Y-107849693D01*
X130675000Y-107837500D01*
X130675000Y-107162500D01*
X130676201Y-107150307D01*
X130679758Y-107138582D01*
X130685533Y-107127777D01*
X130693306Y-107118306D01*
X130702777Y-107110533D01*
X130713582Y-107104758D01*
X130725307Y-107101201D01*
X130737500Y-107100000D01*
X130862500Y-107100000D01*
X130874693Y-107101201D01*
G37*
G04 #@! TD.AperFunction*
G04 #@! TA.AperFunction,SMDPad,CuDef*
G36*
X131749693Y-107976201D02*
G01*
X131761418Y-107979758D01*
X131772223Y-107985533D01*
X131781694Y-107993306D01*
X131789467Y-108002777D01*
X131795242Y-108013582D01*
X131798799Y-108025307D01*
X131800000Y-108037500D01*
X131800000Y-108162500D01*
X131798799Y-108174693D01*
X131795242Y-108186418D01*
X131789467Y-108197223D01*
X131781694Y-108206694D01*
X131772223Y-108214467D01*
X131761418Y-108220242D01*
X131749693Y-108223799D01*
X131737500Y-108225000D01*
X131062500Y-108225000D01*
X131050307Y-108223799D01*
X131038582Y-108220242D01*
X131027777Y-108214467D01*
X131018306Y-108206694D01*
X131010533Y-108197223D01*
X131004758Y-108186418D01*
X131001201Y-108174693D01*
X131000000Y-108162500D01*
X131000000Y-108100888D01*
X131001201Y-108088695D01*
X131004758Y-108076970D01*
X131010533Y-108066165D01*
X131018306Y-108056694D01*
X131081694Y-107993306D01*
X131091165Y-107985533D01*
X131101970Y-107979758D01*
X131113695Y-107976201D01*
X131125888Y-107975000D01*
X131737500Y-107975000D01*
X131749693Y-107976201D01*
G37*
G04 #@! TD.AperFunction*
G04 #@! TA.AperFunction,SMDPad,CuDef*
G36*
G01*
X131000000Y-108612500D02*
X131000000Y-108487500D01*
G75*
G02*
X131062500Y-108425000I62500J0D01*
G01*
X131737500Y-108425000D01*
G75*
G02*
X131800000Y-108487500I0J-62500D01*
G01*
X131800000Y-108612500D01*
G75*
G02*
X131737500Y-108675000I-62500J0D01*
G01*
X131062500Y-108675000D01*
G75*
G02*
X131000000Y-108612500I0J62500D01*
G01*
G37*
G04 #@! TD.AperFunction*
G04 #@! TA.AperFunction,SMDPad,CuDef*
G36*
G01*
X131000000Y-109062500D02*
X131000000Y-108937500D01*
G75*
G02*
X131062500Y-108875000I62500J0D01*
G01*
X131737500Y-108875000D01*
G75*
G02*
X131800000Y-108937500I0J-62500D01*
G01*
X131800000Y-109062500D01*
G75*
G02*
X131737500Y-109125000I-62500J0D01*
G01*
X131062500Y-109125000D01*
G75*
G02*
X131000000Y-109062500I0J62500D01*
G01*
G37*
G04 #@! TD.AperFunction*
G04 #@! TA.AperFunction,SMDPad,CuDef*
G36*
G01*
X131000000Y-109512500D02*
X131000000Y-109387500D01*
G75*
G02*
X131062500Y-109325000I62500J0D01*
G01*
X131737500Y-109325000D01*
G75*
G02*
X131800000Y-109387500I0J-62500D01*
G01*
X131800000Y-109512500D01*
G75*
G02*
X131737500Y-109575000I-62500J0D01*
G01*
X131062500Y-109575000D01*
G75*
G02*
X131000000Y-109512500I0J62500D01*
G01*
G37*
G04 #@! TD.AperFunction*
G04 #@! TA.AperFunction,SMDPad,CuDef*
G36*
G01*
X131000000Y-109962500D02*
X131000000Y-109837500D01*
G75*
G02*
X131062500Y-109775000I62500J0D01*
G01*
X131737500Y-109775000D01*
G75*
G02*
X131800000Y-109837500I0J-62500D01*
G01*
X131800000Y-109962500D01*
G75*
G02*
X131737500Y-110025000I-62500J0D01*
G01*
X131062500Y-110025000D01*
G75*
G02*
X131000000Y-109962500I0J62500D01*
G01*
G37*
G04 #@! TD.AperFunction*
G04 #@! TA.AperFunction,SMDPad,CuDef*
G36*
G01*
X131000000Y-110412500D02*
X131000000Y-110287500D01*
G75*
G02*
X131062500Y-110225000I62500J0D01*
G01*
X131737500Y-110225000D01*
G75*
G02*
X131800000Y-110287500I0J-62500D01*
G01*
X131800000Y-110412500D01*
G75*
G02*
X131737500Y-110475000I-62500J0D01*
G01*
X131062500Y-110475000D01*
G75*
G02*
X131000000Y-110412500I0J62500D01*
G01*
G37*
G04 #@! TD.AperFunction*
G04 #@! TA.AperFunction,SMDPad,CuDef*
G36*
X131749693Y-110676201D02*
G01*
X131761418Y-110679758D01*
X131772223Y-110685533D01*
X131781694Y-110693306D01*
X131789467Y-110702777D01*
X131795242Y-110713582D01*
X131798799Y-110725307D01*
X131800000Y-110737500D01*
X131800000Y-110862500D01*
X131798799Y-110874693D01*
X131795242Y-110886418D01*
X131789467Y-110897223D01*
X131781694Y-110906694D01*
X131772223Y-110914467D01*
X131761418Y-110920242D01*
X131749693Y-110923799D01*
X131737500Y-110925000D01*
X131125888Y-110925000D01*
X131113695Y-110923799D01*
X131101970Y-110920242D01*
X131091165Y-110914467D01*
X131081694Y-110906694D01*
X131018306Y-110843306D01*
X131010533Y-110833835D01*
X131004758Y-110823030D01*
X131001201Y-110811305D01*
X131000000Y-110799112D01*
X131000000Y-110737500D01*
X131001201Y-110725307D01*
X131004758Y-110713582D01*
X131010533Y-110702777D01*
X131018306Y-110693306D01*
X131027777Y-110685533D01*
X131038582Y-110679758D01*
X131050307Y-110676201D01*
X131062500Y-110675000D01*
X131737500Y-110675000D01*
X131749693Y-110676201D01*
G37*
G04 #@! TD.AperFunction*
G04 #@! TA.AperFunction,SMDPad,CuDef*
G36*
X130811305Y-111001201D02*
G01*
X130823030Y-111004758D01*
X130833835Y-111010533D01*
X130843306Y-111018306D01*
X130906694Y-111081694D01*
X130914467Y-111091165D01*
X130920242Y-111101970D01*
X130923799Y-111113695D01*
X130925000Y-111125888D01*
X130925000Y-111737500D01*
X130923799Y-111749693D01*
X130920242Y-111761418D01*
X130914467Y-111772223D01*
X130906694Y-111781694D01*
X130897223Y-111789467D01*
X130886418Y-111795242D01*
X130874693Y-111798799D01*
X130862500Y-111800000D01*
X130737500Y-111800000D01*
X130725307Y-111798799D01*
X130713582Y-111795242D01*
X130702777Y-111789467D01*
X130693306Y-111781694D01*
X130685533Y-111772223D01*
X130679758Y-111761418D01*
X130676201Y-111749693D01*
X130675000Y-111737500D01*
X130675000Y-111062500D01*
X130676201Y-111050307D01*
X130679758Y-111038582D01*
X130685533Y-111027777D01*
X130693306Y-111018306D01*
X130702777Y-111010533D01*
X130713582Y-111004758D01*
X130725307Y-111001201D01*
X130737500Y-111000000D01*
X130799112Y-111000000D01*
X130811305Y-111001201D01*
G37*
G04 #@! TD.AperFunction*
G04 #@! TA.AperFunction,SMDPad,CuDef*
G36*
G01*
X130225000Y-111737500D02*
X130225000Y-111062500D01*
G75*
G02*
X130287500Y-111000000I62500J0D01*
G01*
X130412500Y-111000000D01*
G75*
G02*
X130475000Y-111062500I0J-62500D01*
G01*
X130475000Y-111737500D01*
G75*
G02*
X130412500Y-111800000I-62500J0D01*
G01*
X130287500Y-111800000D01*
G75*
G02*
X130225000Y-111737500I0J62500D01*
G01*
G37*
G04 #@! TD.AperFunction*
G04 #@! TA.AperFunction,SMDPad,CuDef*
G36*
G01*
X129775000Y-111737500D02*
X129775000Y-111062500D01*
G75*
G02*
X129837500Y-111000000I62500J0D01*
G01*
X129962500Y-111000000D01*
G75*
G02*
X130025000Y-111062500I0J-62500D01*
G01*
X130025000Y-111737500D01*
G75*
G02*
X129962500Y-111800000I-62500J0D01*
G01*
X129837500Y-111800000D01*
G75*
G02*
X129775000Y-111737500I0J62500D01*
G01*
G37*
G04 #@! TD.AperFunction*
G04 #@! TA.AperFunction,SMDPad,CuDef*
G36*
G01*
X129325000Y-111737500D02*
X129325000Y-111062500D01*
G75*
G02*
X129387500Y-111000000I62500J0D01*
G01*
X129512500Y-111000000D01*
G75*
G02*
X129575000Y-111062500I0J-62500D01*
G01*
X129575000Y-111737500D01*
G75*
G02*
X129512500Y-111800000I-62500J0D01*
G01*
X129387500Y-111800000D01*
G75*
G02*
X129325000Y-111737500I0J62500D01*
G01*
G37*
G04 #@! TD.AperFunction*
G04 #@! TA.AperFunction,SMDPad,CuDef*
G36*
G01*
X128875000Y-111737500D02*
X128875000Y-111062500D01*
G75*
G02*
X128937500Y-111000000I62500J0D01*
G01*
X129062500Y-111000000D01*
G75*
G02*
X129125000Y-111062500I0J-62500D01*
G01*
X129125000Y-111737500D01*
G75*
G02*
X129062500Y-111800000I-62500J0D01*
G01*
X128937500Y-111800000D01*
G75*
G02*
X128875000Y-111737500I0J62500D01*
G01*
G37*
G04 #@! TD.AperFunction*
G04 #@! TA.AperFunction,SMDPad,CuDef*
G36*
G01*
X128425000Y-111737500D02*
X128425000Y-111062500D01*
G75*
G02*
X128487500Y-111000000I62500J0D01*
G01*
X128612500Y-111000000D01*
G75*
G02*
X128675000Y-111062500I0J-62500D01*
G01*
X128675000Y-111737500D01*
G75*
G02*
X128612500Y-111800000I-62500J0D01*
G01*
X128487500Y-111800000D01*
G75*
G02*
X128425000Y-111737500I0J62500D01*
G01*
G37*
G04 #@! TD.AperFunction*
G04 #@! TA.AperFunction,SMDPad,CuDef*
G36*
X128174693Y-111001201D02*
G01*
X128186418Y-111004758D01*
X128197223Y-111010533D01*
X128206694Y-111018306D01*
X128214467Y-111027777D01*
X128220242Y-111038582D01*
X128223799Y-111050307D01*
X128225000Y-111062500D01*
X128225000Y-111737500D01*
X128223799Y-111749693D01*
X128220242Y-111761418D01*
X128214467Y-111772223D01*
X128206694Y-111781694D01*
X128197223Y-111789467D01*
X128186418Y-111795242D01*
X128174693Y-111798799D01*
X128162500Y-111800000D01*
X128037500Y-111800000D01*
X128025307Y-111798799D01*
X128013582Y-111795242D01*
X128002777Y-111789467D01*
X127993306Y-111781694D01*
X127985533Y-111772223D01*
X127979758Y-111761418D01*
X127976201Y-111749693D01*
X127975000Y-111737500D01*
X127975000Y-111125888D01*
X127976201Y-111113695D01*
X127979758Y-111101970D01*
X127985533Y-111091165D01*
X127993306Y-111081694D01*
X128056694Y-111018306D01*
X128066165Y-111010533D01*
X128076970Y-111004758D01*
X128088695Y-111001201D01*
X128100888Y-111000000D01*
X128162500Y-111000000D01*
X128174693Y-111001201D01*
G37*
G04 #@! TD.AperFunction*
G04 #@! TA.AperFunction,SMDPad,CuDef*
G36*
X127849693Y-110676201D02*
G01*
X127861418Y-110679758D01*
X127872223Y-110685533D01*
X127881694Y-110693306D01*
X127889467Y-110702777D01*
X127895242Y-110713582D01*
X127898799Y-110725307D01*
X127900000Y-110737500D01*
X127900000Y-110799112D01*
X127898799Y-110811305D01*
X127895242Y-110823030D01*
X127889467Y-110833835D01*
X127881694Y-110843306D01*
X127818306Y-110906694D01*
X127808835Y-110914467D01*
X127798030Y-110920242D01*
X127786305Y-110923799D01*
X127774112Y-110925000D01*
X127162500Y-110925000D01*
X127150307Y-110923799D01*
X127138582Y-110920242D01*
X127127777Y-110914467D01*
X127118306Y-110906694D01*
X127110533Y-110897223D01*
X127104758Y-110886418D01*
X127101201Y-110874693D01*
X127100000Y-110862500D01*
X127100000Y-110737500D01*
X127101201Y-110725307D01*
X127104758Y-110713582D01*
X127110533Y-110702777D01*
X127118306Y-110693306D01*
X127127777Y-110685533D01*
X127138582Y-110679758D01*
X127150307Y-110676201D01*
X127162500Y-110675000D01*
X127837500Y-110675000D01*
X127849693Y-110676201D01*
G37*
G04 #@! TD.AperFunction*
G04 #@! TA.AperFunction,SMDPad,CuDef*
G36*
G01*
X127100000Y-110412500D02*
X127100000Y-110287500D01*
G75*
G02*
X127162500Y-110225000I62500J0D01*
G01*
X127837500Y-110225000D01*
G75*
G02*
X127900000Y-110287500I0J-62500D01*
G01*
X127900000Y-110412500D01*
G75*
G02*
X127837500Y-110475000I-62500J0D01*
G01*
X127162500Y-110475000D01*
G75*
G02*
X127100000Y-110412500I0J62500D01*
G01*
G37*
G04 #@! TD.AperFunction*
G04 #@! TA.AperFunction,SMDPad,CuDef*
G36*
G01*
X127100000Y-109962500D02*
X127100000Y-109837500D01*
G75*
G02*
X127162500Y-109775000I62500J0D01*
G01*
X127837500Y-109775000D01*
G75*
G02*
X127900000Y-109837500I0J-62500D01*
G01*
X127900000Y-109962500D01*
G75*
G02*
X127837500Y-110025000I-62500J0D01*
G01*
X127162500Y-110025000D01*
G75*
G02*
X127100000Y-109962500I0J62500D01*
G01*
G37*
G04 #@! TD.AperFunction*
G04 #@! TA.AperFunction,SMDPad,CuDef*
G36*
G01*
X127100000Y-109512500D02*
X127100000Y-109387500D01*
G75*
G02*
X127162500Y-109325000I62500J0D01*
G01*
X127837500Y-109325000D01*
G75*
G02*
X127900000Y-109387500I0J-62500D01*
G01*
X127900000Y-109512500D01*
G75*
G02*
X127837500Y-109575000I-62500J0D01*
G01*
X127162500Y-109575000D01*
G75*
G02*
X127100000Y-109512500I0J62500D01*
G01*
G37*
G04 #@! TD.AperFunction*
G04 #@! TA.AperFunction,SMDPad,CuDef*
G36*
G01*
X127100000Y-109062500D02*
X127100000Y-108937500D01*
G75*
G02*
X127162500Y-108875000I62500J0D01*
G01*
X127837500Y-108875000D01*
G75*
G02*
X127900000Y-108937500I0J-62500D01*
G01*
X127900000Y-109062500D01*
G75*
G02*
X127837500Y-109125000I-62500J0D01*
G01*
X127162500Y-109125000D01*
G75*
G02*
X127100000Y-109062500I0J62500D01*
G01*
G37*
G04 #@! TD.AperFunction*
G04 #@! TA.AperFunction,SMDPad,CuDef*
G36*
G01*
X127100000Y-108612500D02*
X127100000Y-108487500D01*
G75*
G02*
X127162500Y-108425000I62500J0D01*
G01*
X127837500Y-108425000D01*
G75*
G02*
X127900000Y-108487500I0J-62500D01*
G01*
X127900000Y-108612500D01*
G75*
G02*
X127837500Y-108675000I-62500J0D01*
G01*
X127162500Y-108675000D01*
G75*
G02*
X127100000Y-108612500I0J62500D01*
G01*
G37*
G04 #@! TD.AperFunction*
G04 #@! TA.AperFunction,SMDPad,CuDef*
G36*
X127786305Y-107976201D02*
G01*
X127798030Y-107979758D01*
X127808835Y-107985533D01*
X127818306Y-107993306D01*
X127881694Y-108056694D01*
X127889467Y-108066165D01*
X127895242Y-108076970D01*
X127898799Y-108088695D01*
X127900000Y-108100888D01*
X127900000Y-108162500D01*
X127898799Y-108174693D01*
X127895242Y-108186418D01*
X127889467Y-108197223D01*
X127881694Y-108206694D01*
X127872223Y-108214467D01*
X127861418Y-108220242D01*
X127849693Y-108223799D01*
X127837500Y-108225000D01*
X127162500Y-108225000D01*
X127150307Y-108223799D01*
X127138582Y-108220242D01*
X127127777Y-108214467D01*
X127118306Y-108206694D01*
X127110533Y-108197223D01*
X127104758Y-108186418D01*
X127101201Y-108174693D01*
X127100000Y-108162500D01*
X127100000Y-108037500D01*
X127101201Y-108025307D01*
X127104758Y-108013582D01*
X127110533Y-108002777D01*
X127118306Y-107993306D01*
X127127777Y-107985533D01*
X127138582Y-107979758D01*
X127150307Y-107976201D01*
X127162500Y-107975000D01*
X127774112Y-107975000D01*
X127786305Y-107976201D01*
G37*
G04 #@! TD.AperFunction*
D22*
X112700000Y-107250000D03*
X110700000Y-107250000D03*
X104700000Y-107250000D03*
X108700000Y-107250000D03*
D23*
X111450000Y-104650000D03*
X105950000Y-104650000D03*
G04 #@! TA.AperFunction,SMDPad,CuDef*
D21*
G36*
X129400000Y-103999398D02*
G01*
X129375466Y-103999398D01*
X129326635Y-103994588D01*
X129278510Y-103985016D01*
X129231555Y-103970772D01*
X129186222Y-103951995D01*
X129142949Y-103928864D01*
X129102150Y-103901604D01*
X129064221Y-103870476D01*
X129029524Y-103835779D01*
X128998396Y-103797850D01*
X128971136Y-103757051D01*
X128948005Y-103713778D01*
X128929228Y-103668445D01*
X128914984Y-103621490D01*
X128905412Y-103573365D01*
X128900602Y-103524534D01*
X128900602Y-103500000D01*
X128900000Y-103500000D01*
X128900000Y-103000000D01*
X128900602Y-103000000D01*
X128900602Y-102975466D01*
X128905412Y-102926635D01*
X128914984Y-102878510D01*
X128929228Y-102831555D01*
X128948005Y-102786222D01*
X128971136Y-102742949D01*
X128998396Y-102702150D01*
X129029524Y-102664221D01*
X129064221Y-102629524D01*
X129102150Y-102598396D01*
X129142949Y-102571136D01*
X129186222Y-102548005D01*
X129231555Y-102529228D01*
X129278510Y-102514984D01*
X129326635Y-102505412D01*
X129375466Y-102500602D01*
X129400000Y-102500602D01*
X129400000Y-102500000D01*
X129900000Y-102500000D01*
X129900000Y-104000000D01*
X129400000Y-104000000D01*
X129400000Y-103999398D01*
G37*
G04 #@! TD.AperFunction*
G04 #@! TA.AperFunction,SMDPad,CuDef*
G36*
X130200000Y-102500000D02*
G01*
X130700000Y-102500000D01*
X130700000Y-102500602D01*
X130724534Y-102500602D01*
X130773365Y-102505412D01*
X130821490Y-102514984D01*
X130868445Y-102529228D01*
X130913778Y-102548005D01*
X130957051Y-102571136D01*
X130997850Y-102598396D01*
X131035779Y-102629524D01*
X131070476Y-102664221D01*
X131101604Y-102702150D01*
X131128864Y-102742949D01*
X131151995Y-102786222D01*
X131170772Y-102831555D01*
X131185016Y-102878510D01*
X131194588Y-102926635D01*
X131199398Y-102975466D01*
X131199398Y-103000000D01*
X131200000Y-103000000D01*
X131200000Y-103500000D01*
X131199398Y-103500000D01*
X131199398Y-103524534D01*
X131194588Y-103573365D01*
X131185016Y-103621490D01*
X131170772Y-103668445D01*
X131151995Y-103713778D01*
X131128864Y-103757051D01*
X131101604Y-103797850D01*
X131070476Y-103835779D01*
X131035779Y-103870476D01*
X130997850Y-103901604D01*
X130957051Y-103928864D01*
X130913778Y-103951995D01*
X130868445Y-103970772D01*
X130821490Y-103985016D01*
X130773365Y-103994588D01*
X130724534Y-103999398D01*
X130700000Y-103999398D01*
X130700000Y-104000000D01*
X130200000Y-104000000D01*
X130200000Y-102500000D01*
G37*
G04 #@! TD.AperFunction*
G04 #@! TA.AperFunction,SMDPad,CuDef*
G36*
G01*
X114570000Y-106030000D02*
X114570000Y-106370000D01*
G75*
G02*
X114430000Y-106510000I-140000J0D01*
G01*
X114150000Y-106510000D01*
G75*
G02*
X114010000Y-106370000I0J140000D01*
G01*
X114010000Y-106030000D01*
G75*
G02*
X114150000Y-105890000I140000J0D01*
G01*
X114430000Y-105890000D01*
G75*
G02*
X114570000Y-106030000I0J-140000D01*
G01*
G37*
G04 #@! TD.AperFunction*
G04 #@! TA.AperFunction,SMDPad,CuDef*
G36*
G01*
X115530000Y-106030000D02*
X115530000Y-106370000D01*
G75*
G02*
X115390000Y-106510000I-140000J0D01*
G01*
X115110000Y-106510000D01*
G75*
G02*
X114970000Y-106370000I0J140000D01*
G01*
X114970000Y-106030000D01*
G75*
G02*
X115110000Y-105890000I140000J0D01*
G01*
X115390000Y-105890000D01*
G75*
G02*
X115530000Y-106030000I0J-140000D01*
G01*
G37*
G04 #@! TD.AperFunction*
G04 #@! TA.AperFunction,SMDPad,CuDef*
G36*
G01*
X112170000Y-109320000D02*
X111830000Y-109320000D01*
G75*
G02*
X111690000Y-109180000I0J140000D01*
G01*
X111690000Y-108900000D01*
G75*
G02*
X111830000Y-108760000I140000J0D01*
G01*
X112170000Y-108760000D01*
G75*
G02*
X112310000Y-108900000I0J-140000D01*
G01*
X112310000Y-109180000D01*
G75*
G02*
X112170000Y-109320000I-140000J0D01*
G01*
G37*
G04 #@! TD.AperFunction*
G04 #@! TA.AperFunction,SMDPad,CuDef*
G36*
G01*
X112170000Y-110280000D02*
X111830000Y-110280000D01*
G75*
G02*
X111690000Y-110140000I0J140000D01*
G01*
X111690000Y-109860000D01*
G75*
G02*
X111830000Y-109720000I140000J0D01*
G01*
X112170000Y-109720000D01*
G75*
G02*
X112310000Y-109860000I0J-140000D01*
G01*
X112310000Y-110140000D01*
G75*
G02*
X112170000Y-110280000I-140000J0D01*
G01*
G37*
G04 #@! TD.AperFunction*
G04 #@! TA.AperFunction,SMDPad,CuDef*
G36*
G01*
X126970000Y-104600000D02*
X126630000Y-104600000D01*
G75*
G02*
X126490000Y-104460000I0J140000D01*
G01*
X126490000Y-104180000D01*
G75*
G02*
X126630000Y-104040000I140000J0D01*
G01*
X126970000Y-104040000D01*
G75*
G02*
X127110000Y-104180000I0J-140000D01*
G01*
X127110000Y-104460000D01*
G75*
G02*
X126970000Y-104600000I-140000J0D01*
G01*
G37*
G04 #@! TD.AperFunction*
G04 #@! TA.AperFunction,SMDPad,CuDef*
G36*
G01*
X126970000Y-105560000D02*
X126630000Y-105560000D01*
G75*
G02*
X126490000Y-105420000I0J140000D01*
G01*
X126490000Y-105140000D01*
G75*
G02*
X126630000Y-105000000I140000J0D01*
G01*
X126970000Y-105000000D01*
G75*
G02*
X127110000Y-105140000I0J-140000D01*
G01*
X127110000Y-105420000D01*
G75*
G02*
X126970000Y-105560000I-140000J0D01*
G01*
G37*
G04 #@! TD.AperFunction*
G04 #@! TA.AperFunction,SMDPad,CuDef*
G36*
G01*
X132730000Y-105000000D02*
X133070000Y-105000000D01*
G75*
G02*
X133210000Y-105140000I0J-140000D01*
G01*
X133210000Y-105420000D01*
G75*
G02*
X133070000Y-105560000I-140000J0D01*
G01*
X132730000Y-105560000D01*
G75*
G02*
X132590000Y-105420000I0J140000D01*
G01*
X132590000Y-105140000D01*
G75*
G02*
X132730000Y-105000000I140000J0D01*
G01*
G37*
G04 #@! TD.AperFunction*
G04 #@! TA.AperFunction,SMDPad,CuDef*
G36*
G01*
X132730000Y-104040000D02*
X133070000Y-104040000D01*
G75*
G02*
X133210000Y-104180000I0J-140000D01*
G01*
X133210000Y-104460000D01*
G75*
G02*
X133070000Y-104600000I-140000J0D01*
G01*
X132730000Y-104600000D01*
G75*
G02*
X132590000Y-104460000I0J140000D01*
G01*
X132590000Y-104180000D01*
G75*
G02*
X132730000Y-104040000I140000J0D01*
G01*
G37*
G04 #@! TD.AperFunction*
D24*
X121850000Y-107600000D03*
D25*
X123300000Y-106850000D03*
X123300000Y-107350000D03*
X123300000Y-107850000D03*
X123300000Y-108350000D03*
X120400000Y-108350000D03*
X120400000Y-107850000D03*
X120400000Y-107350000D03*
X120400000Y-106850000D03*
G04 #@! TA.AperFunction,SMDPad,CuDef*
G36*
G01*
X115422500Y-109091000D02*
X115077500Y-109091000D01*
G75*
G02*
X114930000Y-108943500I0J147500D01*
G01*
X114930000Y-108648500D01*
G75*
G02*
X115077500Y-108501000I147500J0D01*
G01*
X115422500Y-108501000D01*
G75*
G02*
X115570000Y-108648500I0J-147500D01*
G01*
X115570000Y-108943500D01*
G75*
G02*
X115422500Y-109091000I-147500J0D01*
G01*
G37*
G04 #@! TD.AperFunction*
G04 #@! TA.AperFunction,SMDPad,CuDef*
G36*
G01*
X115422500Y-110061000D02*
X115077500Y-110061000D01*
G75*
G02*
X114930000Y-109913500I0J147500D01*
G01*
X114930000Y-109618500D01*
G75*
G02*
X115077500Y-109471000I147500J0D01*
G01*
X115422500Y-109471000D01*
G75*
G02*
X115570000Y-109618500I0J-147500D01*
G01*
X115570000Y-109913500D01*
G75*
G02*
X115422500Y-110061000I-147500J0D01*
G01*
G37*
G04 #@! TD.AperFunction*
G04 #@! TA.AperFunction,SMDPad,CuDef*
G36*
G01*
X111627500Y-115705000D02*
X111972500Y-115705000D01*
G75*
G02*
X112120000Y-115852500I0J-147500D01*
G01*
X112120000Y-116147500D01*
G75*
G02*
X111972500Y-116295000I-147500J0D01*
G01*
X111627500Y-116295000D01*
G75*
G02*
X111480000Y-116147500I0J147500D01*
G01*
X111480000Y-115852500D01*
G75*
G02*
X111627500Y-115705000I147500J0D01*
G01*
G37*
G04 #@! TD.AperFunction*
G04 #@! TA.AperFunction,SMDPad,CuDef*
G36*
G01*
X111627500Y-114735000D02*
X111972500Y-114735000D01*
G75*
G02*
X112120000Y-114882500I0J-147500D01*
G01*
X112120000Y-115177500D01*
G75*
G02*
X111972500Y-115325000I-147500J0D01*
G01*
X111627500Y-115325000D01*
G75*
G02*
X111480000Y-115177500I0J147500D01*
G01*
X111480000Y-114882500D01*
G75*
G02*
X111627500Y-114735000I147500J0D01*
G01*
G37*
G04 #@! TD.AperFunction*
G04 #@! TA.AperFunction,SMDPad,CuDef*
G36*
G01*
X117690000Y-111422500D02*
X117690000Y-111077500D01*
G75*
G02*
X117837500Y-110930000I147500J0D01*
G01*
X118132500Y-110930000D01*
G75*
G02*
X118280000Y-111077500I0J-147500D01*
G01*
X118280000Y-111422500D01*
G75*
G02*
X118132500Y-111570000I-147500J0D01*
G01*
X117837500Y-111570000D01*
G75*
G02*
X117690000Y-111422500I0J147500D01*
G01*
G37*
G04 #@! TD.AperFunction*
G04 #@! TA.AperFunction,SMDPad,CuDef*
G36*
G01*
X116720000Y-111422500D02*
X116720000Y-111077500D01*
G75*
G02*
X116867500Y-110930000I147500J0D01*
G01*
X117162500Y-110930000D01*
G75*
G02*
X117310000Y-111077500I0J-147500D01*
G01*
X117310000Y-111422500D01*
G75*
G02*
X117162500Y-111570000I-147500J0D01*
G01*
X116867500Y-111570000D01*
G75*
G02*
X116720000Y-111422500I0J147500D01*
G01*
G37*
G04 #@! TD.AperFunction*
G04 #@! TA.AperFunction,SMDPad,CuDef*
G36*
G01*
X113772500Y-109060000D02*
X113427500Y-109060000D01*
G75*
G02*
X113280000Y-108912500I0J147500D01*
G01*
X113280000Y-108617500D01*
G75*
G02*
X113427500Y-108470000I147500J0D01*
G01*
X113772500Y-108470000D01*
G75*
G02*
X113920000Y-108617500I0J-147500D01*
G01*
X113920000Y-108912500D01*
G75*
G02*
X113772500Y-109060000I-147500J0D01*
G01*
G37*
G04 #@! TD.AperFunction*
G04 #@! TA.AperFunction,SMDPad,CuDef*
G36*
G01*
X113772500Y-110030000D02*
X113427500Y-110030000D01*
G75*
G02*
X113280000Y-109882500I0J147500D01*
G01*
X113280000Y-109587500D01*
G75*
G02*
X113427500Y-109440000I147500J0D01*
G01*
X113772500Y-109440000D01*
G75*
G02*
X113920000Y-109587500I0J-147500D01*
G01*
X113920000Y-109882500D01*
G75*
G02*
X113772500Y-110030000I-147500J0D01*
G01*
G37*
G04 #@! TD.AperFunction*
G04 #@! TA.AperFunction,SMDPad,CuDef*
G36*
G01*
X122825000Y-109677500D02*
X122825000Y-110022500D01*
G75*
G02*
X122677500Y-110170000I-147500J0D01*
G01*
X122382500Y-110170000D01*
G75*
G02*
X122235000Y-110022500I0J147500D01*
G01*
X122235000Y-109677500D01*
G75*
G02*
X122382500Y-109530000I147500J0D01*
G01*
X122677500Y-109530000D01*
G75*
G02*
X122825000Y-109677500I0J-147500D01*
G01*
G37*
G04 #@! TD.AperFunction*
G04 #@! TA.AperFunction,SMDPad,CuDef*
G36*
G01*
X123795000Y-109677500D02*
X123795000Y-110022500D01*
G75*
G02*
X123647500Y-110170000I-147500J0D01*
G01*
X123352500Y-110170000D01*
G75*
G02*
X123205000Y-110022500I0J147500D01*
G01*
X123205000Y-109677500D01*
G75*
G02*
X123352500Y-109530000I147500J0D01*
G01*
X123647500Y-109530000D01*
G75*
G02*
X123795000Y-109677500I0J-147500D01*
G01*
G37*
G04 #@! TD.AperFunction*
G04 #@! TA.AperFunction,SMDPad,CuDef*
G36*
G01*
X123205000Y-111322500D02*
X123205000Y-110977500D01*
G75*
G02*
X123352500Y-110830000I147500J0D01*
G01*
X123647500Y-110830000D01*
G75*
G02*
X123795000Y-110977500I0J-147500D01*
G01*
X123795000Y-111322500D01*
G75*
G02*
X123647500Y-111470000I-147500J0D01*
G01*
X123352500Y-111470000D01*
G75*
G02*
X123205000Y-111322500I0J147500D01*
G01*
G37*
G04 #@! TD.AperFunction*
G04 #@! TA.AperFunction,SMDPad,CuDef*
G36*
G01*
X122235000Y-111322500D02*
X122235000Y-110977500D01*
G75*
G02*
X122382500Y-110830000I147500J0D01*
G01*
X122677500Y-110830000D01*
G75*
G02*
X122825000Y-110977500I0J-147500D01*
G01*
X122825000Y-111322500D01*
G75*
G02*
X122677500Y-111470000I-147500J0D01*
G01*
X122382500Y-111470000D01*
G75*
G02*
X122235000Y-111322500I0J147500D01*
G01*
G37*
G04 #@! TD.AperFunction*
G04 #@! TA.AperFunction,SMDPad,CuDef*
G36*
G01*
X118390000Y-109922500D02*
X118390000Y-109577500D01*
G75*
G02*
X118537500Y-109430000I147500J0D01*
G01*
X118832500Y-109430000D01*
G75*
G02*
X118980000Y-109577500I0J-147500D01*
G01*
X118980000Y-109922500D01*
G75*
G02*
X118832500Y-110070000I-147500J0D01*
G01*
X118537500Y-110070000D01*
G75*
G02*
X118390000Y-109922500I0J147500D01*
G01*
G37*
G04 #@! TD.AperFunction*
G04 #@! TA.AperFunction,SMDPad,CuDef*
G36*
G01*
X117420000Y-109922500D02*
X117420000Y-109577500D01*
G75*
G02*
X117567500Y-109430000I147500J0D01*
G01*
X117862500Y-109430000D01*
G75*
G02*
X118010000Y-109577500I0J-147500D01*
G01*
X118010000Y-109922500D01*
G75*
G02*
X117862500Y-110070000I-147500J0D01*
G01*
X117567500Y-110070000D01*
G75*
G02*
X117420000Y-109922500I0J147500D01*
G01*
G37*
G04 #@! TD.AperFunction*
G04 #@! TA.AperFunction,SMDPad,CuDef*
G36*
G01*
X118390000Y-106022500D02*
X118390000Y-105677500D01*
G75*
G02*
X118537500Y-105530000I147500J0D01*
G01*
X118832500Y-105530000D01*
G75*
G02*
X118980000Y-105677500I0J-147500D01*
G01*
X118980000Y-106022500D01*
G75*
G02*
X118832500Y-106170000I-147500J0D01*
G01*
X118537500Y-106170000D01*
G75*
G02*
X118390000Y-106022500I0J147500D01*
G01*
G37*
G04 #@! TD.AperFunction*
G04 #@! TA.AperFunction,SMDPad,CuDef*
G36*
G01*
X117420000Y-106022500D02*
X117420000Y-105677500D01*
G75*
G02*
X117567500Y-105530000I147500J0D01*
G01*
X117862500Y-105530000D01*
G75*
G02*
X118010000Y-105677500I0J-147500D01*
G01*
X118010000Y-106022500D01*
G75*
G02*
X117862500Y-106170000I-147500J0D01*
G01*
X117567500Y-106170000D01*
G75*
G02*
X117420000Y-106022500I0J147500D01*
G01*
G37*
G04 #@! TD.AperFunction*
G04 #@! TA.AperFunction,SMDPad,CuDef*
G36*
G01*
X110025000Y-110825000D02*
X110775000Y-110825000D01*
G75*
G02*
X110837500Y-110887500I0J-62500D01*
G01*
X110837500Y-111012500D01*
G75*
G02*
X110775000Y-111075000I-62500J0D01*
G01*
X110025000Y-111075000D01*
G75*
G02*
X109962500Y-111012500I0J62500D01*
G01*
X109962500Y-110887500D01*
G75*
G02*
X110025000Y-110825000I62500J0D01*
G01*
G37*
G04 #@! TD.AperFunction*
G04 #@! TA.AperFunction,SMDPad,CuDef*
G36*
G01*
X110025000Y-111325000D02*
X110775000Y-111325000D01*
G75*
G02*
X110837500Y-111387500I0J-62500D01*
G01*
X110837500Y-111512500D01*
G75*
G02*
X110775000Y-111575000I-62500J0D01*
G01*
X110025000Y-111575000D01*
G75*
G02*
X109962500Y-111512500I0J62500D01*
G01*
X109962500Y-111387500D01*
G75*
G02*
X110025000Y-111325000I62500J0D01*
G01*
G37*
G04 #@! TD.AperFunction*
G04 #@! TA.AperFunction,SMDPad,CuDef*
G36*
G01*
X110025000Y-111825000D02*
X110775000Y-111825000D01*
G75*
G02*
X110837500Y-111887500I0J-62500D01*
G01*
X110837500Y-112012500D01*
G75*
G02*
X110775000Y-112075000I-62500J0D01*
G01*
X110025000Y-112075000D01*
G75*
G02*
X109962500Y-112012500I0J62500D01*
G01*
X109962500Y-111887500D01*
G75*
G02*
X110025000Y-111825000I62500J0D01*
G01*
G37*
G04 #@! TD.AperFunction*
G04 #@! TA.AperFunction,SMDPad,CuDef*
G36*
G01*
X110025000Y-112325000D02*
X110775000Y-112325000D01*
G75*
G02*
X110837500Y-112387500I0J-62500D01*
G01*
X110837500Y-112512500D01*
G75*
G02*
X110775000Y-112575000I-62500J0D01*
G01*
X110025000Y-112575000D01*
G75*
G02*
X109962500Y-112512500I0J62500D01*
G01*
X109962500Y-112387500D01*
G75*
G02*
X110025000Y-112325000I62500J0D01*
G01*
G37*
G04 #@! TD.AperFunction*
G04 #@! TA.AperFunction,SMDPad,CuDef*
G36*
G01*
X110025000Y-112825000D02*
X110775000Y-112825000D01*
G75*
G02*
X110837500Y-112887500I0J-62500D01*
G01*
X110837500Y-113012500D01*
G75*
G02*
X110775000Y-113075000I-62500J0D01*
G01*
X110025000Y-113075000D01*
G75*
G02*
X109962500Y-113012500I0J62500D01*
G01*
X109962500Y-112887500D01*
G75*
G02*
X110025000Y-112825000I62500J0D01*
G01*
G37*
G04 #@! TD.AperFunction*
G04 #@! TA.AperFunction,SMDPad,CuDef*
G36*
G01*
X110025000Y-113325000D02*
X110775000Y-113325000D01*
G75*
G02*
X110837500Y-113387500I0J-62500D01*
G01*
X110837500Y-113512500D01*
G75*
G02*
X110775000Y-113575000I-62500J0D01*
G01*
X110025000Y-113575000D01*
G75*
G02*
X109962500Y-113512500I0J62500D01*
G01*
X109962500Y-113387500D01*
G75*
G02*
X110025000Y-113325000I62500J0D01*
G01*
G37*
G04 #@! TD.AperFunction*
G04 #@! TA.AperFunction,SMDPad,CuDef*
G36*
G01*
X110025000Y-113825000D02*
X110775000Y-113825000D01*
G75*
G02*
X110837500Y-113887500I0J-62500D01*
G01*
X110837500Y-114012500D01*
G75*
G02*
X110775000Y-114075000I-62500J0D01*
G01*
X110025000Y-114075000D01*
G75*
G02*
X109962500Y-114012500I0J62500D01*
G01*
X109962500Y-113887500D01*
G75*
G02*
X110025000Y-113825000I62500J0D01*
G01*
G37*
G04 #@! TD.AperFunction*
G04 #@! TA.AperFunction,SMDPad,CuDef*
G36*
G01*
X110025000Y-114325000D02*
X110775000Y-114325000D01*
G75*
G02*
X110837500Y-114387500I0J-62500D01*
G01*
X110837500Y-114512500D01*
G75*
G02*
X110775000Y-114575000I-62500J0D01*
G01*
X110025000Y-114575000D01*
G75*
G02*
X109962500Y-114512500I0J62500D01*
G01*
X109962500Y-114387500D01*
G75*
G02*
X110025000Y-114325000I62500J0D01*
G01*
G37*
G04 #@! TD.AperFunction*
G04 #@! TA.AperFunction,SMDPad,CuDef*
G36*
G01*
X109650000Y-114700000D02*
X109775000Y-114700000D01*
G75*
G02*
X109837500Y-114762500I0J-62500D01*
G01*
X109837500Y-115512500D01*
G75*
G02*
X109775000Y-115575000I-62500J0D01*
G01*
X109650000Y-115575000D01*
G75*
G02*
X109587500Y-115512500I0J62500D01*
G01*
X109587500Y-114762500D01*
G75*
G02*
X109650000Y-114700000I62500J0D01*
G01*
G37*
G04 #@! TD.AperFunction*
G04 #@! TA.AperFunction,SMDPad,CuDef*
G36*
G01*
X109150000Y-114700000D02*
X109275000Y-114700000D01*
G75*
G02*
X109337500Y-114762500I0J-62500D01*
G01*
X109337500Y-115512500D01*
G75*
G02*
X109275000Y-115575000I-62500J0D01*
G01*
X109150000Y-115575000D01*
G75*
G02*
X109087500Y-115512500I0J62500D01*
G01*
X109087500Y-114762500D01*
G75*
G02*
X109150000Y-114700000I62500J0D01*
G01*
G37*
G04 #@! TD.AperFunction*
G04 #@! TA.AperFunction,SMDPad,CuDef*
G36*
G01*
X108650000Y-114700000D02*
X108775000Y-114700000D01*
G75*
G02*
X108837500Y-114762500I0J-62500D01*
G01*
X108837500Y-115512500D01*
G75*
G02*
X108775000Y-115575000I-62500J0D01*
G01*
X108650000Y-115575000D01*
G75*
G02*
X108587500Y-115512500I0J62500D01*
G01*
X108587500Y-114762500D01*
G75*
G02*
X108650000Y-114700000I62500J0D01*
G01*
G37*
G04 #@! TD.AperFunction*
G04 #@! TA.AperFunction,SMDPad,CuDef*
G36*
G01*
X108150000Y-114700000D02*
X108275000Y-114700000D01*
G75*
G02*
X108337500Y-114762500I0J-62500D01*
G01*
X108337500Y-115512500D01*
G75*
G02*
X108275000Y-115575000I-62500J0D01*
G01*
X108150000Y-115575000D01*
G75*
G02*
X108087500Y-115512500I0J62500D01*
G01*
X108087500Y-114762500D01*
G75*
G02*
X108150000Y-114700000I62500J0D01*
G01*
G37*
G04 #@! TD.AperFunction*
G04 #@! TA.AperFunction,SMDPad,CuDef*
G36*
G01*
X107650000Y-114700000D02*
X107775000Y-114700000D01*
G75*
G02*
X107837500Y-114762500I0J-62500D01*
G01*
X107837500Y-115512500D01*
G75*
G02*
X107775000Y-115575000I-62500J0D01*
G01*
X107650000Y-115575000D01*
G75*
G02*
X107587500Y-115512500I0J62500D01*
G01*
X107587500Y-114762500D01*
G75*
G02*
X107650000Y-114700000I62500J0D01*
G01*
G37*
G04 #@! TD.AperFunction*
G04 #@! TA.AperFunction,SMDPad,CuDef*
G36*
G01*
X107150000Y-114700000D02*
X107275000Y-114700000D01*
G75*
G02*
X107337500Y-114762500I0J-62500D01*
G01*
X107337500Y-115512500D01*
G75*
G02*
X107275000Y-115575000I-62500J0D01*
G01*
X107150000Y-115575000D01*
G75*
G02*
X107087500Y-115512500I0J62500D01*
G01*
X107087500Y-114762500D01*
G75*
G02*
X107150000Y-114700000I62500J0D01*
G01*
G37*
G04 #@! TD.AperFunction*
G04 #@! TA.AperFunction,SMDPad,CuDef*
G36*
G01*
X106650000Y-114700000D02*
X106775000Y-114700000D01*
G75*
G02*
X106837500Y-114762500I0J-62500D01*
G01*
X106837500Y-115512500D01*
G75*
G02*
X106775000Y-115575000I-62500J0D01*
G01*
X106650000Y-115575000D01*
G75*
G02*
X106587500Y-115512500I0J62500D01*
G01*
X106587500Y-114762500D01*
G75*
G02*
X106650000Y-114700000I62500J0D01*
G01*
G37*
G04 #@! TD.AperFunction*
G04 #@! TA.AperFunction,SMDPad,CuDef*
G36*
G01*
X106150000Y-114700000D02*
X106275000Y-114700000D01*
G75*
G02*
X106337500Y-114762500I0J-62500D01*
G01*
X106337500Y-115512500D01*
G75*
G02*
X106275000Y-115575000I-62500J0D01*
G01*
X106150000Y-115575000D01*
G75*
G02*
X106087500Y-115512500I0J62500D01*
G01*
X106087500Y-114762500D01*
G75*
G02*
X106150000Y-114700000I62500J0D01*
G01*
G37*
G04 #@! TD.AperFunction*
G04 #@! TA.AperFunction,SMDPad,CuDef*
G36*
G01*
X105150000Y-114325000D02*
X105900000Y-114325000D01*
G75*
G02*
X105962500Y-114387500I0J-62500D01*
G01*
X105962500Y-114512500D01*
G75*
G02*
X105900000Y-114575000I-62500J0D01*
G01*
X105150000Y-114575000D01*
G75*
G02*
X105087500Y-114512500I0J62500D01*
G01*
X105087500Y-114387500D01*
G75*
G02*
X105150000Y-114325000I62500J0D01*
G01*
G37*
G04 #@! TD.AperFunction*
G04 #@! TA.AperFunction,SMDPad,CuDef*
G36*
G01*
X105150000Y-113825000D02*
X105900000Y-113825000D01*
G75*
G02*
X105962500Y-113887500I0J-62500D01*
G01*
X105962500Y-114012500D01*
G75*
G02*
X105900000Y-114075000I-62500J0D01*
G01*
X105150000Y-114075000D01*
G75*
G02*
X105087500Y-114012500I0J62500D01*
G01*
X105087500Y-113887500D01*
G75*
G02*
X105150000Y-113825000I62500J0D01*
G01*
G37*
G04 #@! TD.AperFunction*
G04 #@! TA.AperFunction,SMDPad,CuDef*
G36*
G01*
X105150000Y-113325000D02*
X105900000Y-113325000D01*
G75*
G02*
X105962500Y-113387500I0J-62500D01*
G01*
X105962500Y-113512500D01*
G75*
G02*
X105900000Y-113575000I-62500J0D01*
G01*
X105150000Y-113575000D01*
G75*
G02*
X105087500Y-113512500I0J62500D01*
G01*
X105087500Y-113387500D01*
G75*
G02*
X105150000Y-113325000I62500J0D01*
G01*
G37*
G04 #@! TD.AperFunction*
G04 #@! TA.AperFunction,SMDPad,CuDef*
G36*
G01*
X105150000Y-112825000D02*
X105900000Y-112825000D01*
G75*
G02*
X105962500Y-112887500I0J-62500D01*
G01*
X105962500Y-113012500D01*
G75*
G02*
X105900000Y-113075000I-62500J0D01*
G01*
X105150000Y-113075000D01*
G75*
G02*
X105087500Y-113012500I0J62500D01*
G01*
X105087500Y-112887500D01*
G75*
G02*
X105150000Y-112825000I62500J0D01*
G01*
G37*
G04 #@! TD.AperFunction*
G04 #@! TA.AperFunction,SMDPad,CuDef*
G36*
G01*
X105150000Y-112325000D02*
X105900000Y-112325000D01*
G75*
G02*
X105962500Y-112387500I0J-62500D01*
G01*
X105962500Y-112512500D01*
G75*
G02*
X105900000Y-112575000I-62500J0D01*
G01*
X105150000Y-112575000D01*
G75*
G02*
X105087500Y-112512500I0J62500D01*
G01*
X105087500Y-112387500D01*
G75*
G02*
X105150000Y-112325000I62500J0D01*
G01*
G37*
G04 #@! TD.AperFunction*
G04 #@! TA.AperFunction,SMDPad,CuDef*
G36*
G01*
X105150000Y-111825000D02*
X105900000Y-111825000D01*
G75*
G02*
X105962500Y-111887500I0J-62500D01*
G01*
X105962500Y-112012500D01*
G75*
G02*
X105900000Y-112075000I-62500J0D01*
G01*
X105150000Y-112075000D01*
G75*
G02*
X105087500Y-112012500I0J62500D01*
G01*
X105087500Y-111887500D01*
G75*
G02*
X105150000Y-111825000I62500J0D01*
G01*
G37*
G04 #@! TD.AperFunction*
G04 #@! TA.AperFunction,SMDPad,CuDef*
G36*
G01*
X105150000Y-111325000D02*
X105900000Y-111325000D01*
G75*
G02*
X105962500Y-111387500I0J-62500D01*
G01*
X105962500Y-111512500D01*
G75*
G02*
X105900000Y-111575000I-62500J0D01*
G01*
X105150000Y-111575000D01*
G75*
G02*
X105087500Y-111512500I0J62500D01*
G01*
X105087500Y-111387500D01*
G75*
G02*
X105150000Y-111325000I62500J0D01*
G01*
G37*
G04 #@! TD.AperFunction*
G04 #@! TA.AperFunction,SMDPad,CuDef*
G36*
G01*
X105150000Y-110825000D02*
X105900000Y-110825000D01*
G75*
G02*
X105962500Y-110887500I0J-62500D01*
G01*
X105962500Y-111012500D01*
G75*
G02*
X105900000Y-111075000I-62500J0D01*
G01*
X105150000Y-111075000D01*
G75*
G02*
X105087500Y-111012500I0J62500D01*
G01*
X105087500Y-110887500D01*
G75*
G02*
X105150000Y-110825000I62500J0D01*
G01*
G37*
G04 #@! TD.AperFunction*
G04 #@! TA.AperFunction,SMDPad,CuDef*
G36*
G01*
X106150000Y-109825000D02*
X106275000Y-109825000D01*
G75*
G02*
X106337500Y-109887500I0J-62500D01*
G01*
X106337500Y-110637500D01*
G75*
G02*
X106275000Y-110700000I-62500J0D01*
G01*
X106150000Y-110700000D01*
G75*
G02*
X106087500Y-110637500I0J62500D01*
G01*
X106087500Y-109887500D01*
G75*
G02*
X106150000Y-109825000I62500J0D01*
G01*
G37*
G04 #@! TD.AperFunction*
G04 #@! TA.AperFunction,SMDPad,CuDef*
G36*
G01*
X106650000Y-109825000D02*
X106775000Y-109825000D01*
G75*
G02*
X106837500Y-109887500I0J-62500D01*
G01*
X106837500Y-110637500D01*
G75*
G02*
X106775000Y-110700000I-62500J0D01*
G01*
X106650000Y-110700000D01*
G75*
G02*
X106587500Y-110637500I0J62500D01*
G01*
X106587500Y-109887500D01*
G75*
G02*
X106650000Y-109825000I62500J0D01*
G01*
G37*
G04 #@! TD.AperFunction*
G04 #@! TA.AperFunction,SMDPad,CuDef*
G36*
G01*
X107150000Y-109825000D02*
X107275000Y-109825000D01*
G75*
G02*
X107337500Y-109887500I0J-62500D01*
G01*
X107337500Y-110637500D01*
G75*
G02*
X107275000Y-110700000I-62500J0D01*
G01*
X107150000Y-110700000D01*
G75*
G02*
X107087500Y-110637500I0J62500D01*
G01*
X107087500Y-109887500D01*
G75*
G02*
X107150000Y-109825000I62500J0D01*
G01*
G37*
G04 #@! TD.AperFunction*
G04 #@! TA.AperFunction,SMDPad,CuDef*
G36*
G01*
X107650000Y-109825000D02*
X107775000Y-109825000D01*
G75*
G02*
X107837500Y-109887500I0J-62500D01*
G01*
X107837500Y-110637500D01*
G75*
G02*
X107775000Y-110700000I-62500J0D01*
G01*
X107650000Y-110700000D01*
G75*
G02*
X107587500Y-110637500I0J62500D01*
G01*
X107587500Y-109887500D01*
G75*
G02*
X107650000Y-109825000I62500J0D01*
G01*
G37*
G04 #@! TD.AperFunction*
G04 #@! TA.AperFunction,SMDPad,CuDef*
G36*
G01*
X108150000Y-109825000D02*
X108275000Y-109825000D01*
G75*
G02*
X108337500Y-109887500I0J-62500D01*
G01*
X108337500Y-110637500D01*
G75*
G02*
X108275000Y-110700000I-62500J0D01*
G01*
X108150000Y-110700000D01*
G75*
G02*
X108087500Y-110637500I0J62500D01*
G01*
X108087500Y-109887500D01*
G75*
G02*
X108150000Y-109825000I62500J0D01*
G01*
G37*
G04 #@! TD.AperFunction*
G04 #@! TA.AperFunction,SMDPad,CuDef*
G36*
G01*
X108650000Y-109825000D02*
X108775000Y-109825000D01*
G75*
G02*
X108837500Y-109887500I0J-62500D01*
G01*
X108837500Y-110637500D01*
G75*
G02*
X108775000Y-110700000I-62500J0D01*
G01*
X108650000Y-110700000D01*
G75*
G02*
X108587500Y-110637500I0J62500D01*
G01*
X108587500Y-109887500D01*
G75*
G02*
X108650000Y-109825000I62500J0D01*
G01*
G37*
G04 #@! TD.AperFunction*
G04 #@! TA.AperFunction,SMDPad,CuDef*
G36*
G01*
X109150000Y-109825000D02*
X109275000Y-109825000D01*
G75*
G02*
X109337500Y-109887500I0J-62500D01*
G01*
X109337500Y-110637500D01*
G75*
G02*
X109275000Y-110700000I-62500J0D01*
G01*
X109150000Y-110700000D01*
G75*
G02*
X109087500Y-110637500I0J62500D01*
G01*
X109087500Y-109887500D01*
G75*
G02*
X109150000Y-109825000I62500J0D01*
G01*
G37*
G04 #@! TD.AperFunction*
G04 #@! TA.AperFunction,SMDPad,CuDef*
G36*
G01*
X109650000Y-109825000D02*
X109775000Y-109825000D01*
G75*
G02*
X109837500Y-109887500I0J-62500D01*
G01*
X109837500Y-110637500D01*
G75*
G02*
X109775000Y-110700000I-62500J0D01*
G01*
X109650000Y-110700000D01*
G75*
G02*
X109587500Y-110637500I0J62500D01*
G01*
X109587500Y-109887500D01*
G75*
G02*
X109650000Y-109825000I62500J0D01*
G01*
G37*
G04 #@! TD.AperFunction*
G04 #@! TA.AperFunction,SMDPad,CuDef*
G36*
G01*
X106663600Y-111150000D02*
X109261400Y-111150000D01*
G75*
G02*
X109512500Y-111401100I0J-251100D01*
G01*
X109512500Y-113998900D01*
G75*
G02*
X109261400Y-114250000I-251100J0D01*
G01*
X106663600Y-114250000D01*
G75*
G02*
X106412500Y-113998900I0J251100D01*
G01*
X106412500Y-111401100D01*
G75*
G02*
X106663600Y-111150000I251100J0D01*
G01*
G37*
G04 #@! TD.AperFunction*
D17*
X118140000Y-103750000D03*
D18*
X115600000Y-103750000D03*
D17*
X101800000Y-106340000D03*
D18*
X101800000Y-103800000D03*
X131670000Y-115200000D03*
D17*
X129130000Y-115200000D03*
X126590000Y-115200000D03*
X124050000Y-115200000D03*
G04 #@! TA.AperFunction,SMDPad,CuDef*
G36*
G01*
X114050000Y-111493750D02*
X114050000Y-112006250D01*
G75*
G02*
X113831250Y-112225000I-218750J0D01*
G01*
X113393750Y-112225000D01*
G75*
G02*
X113175000Y-112006250I0J218750D01*
G01*
X113175000Y-111493750D01*
G75*
G02*
X113393750Y-111275000I218750J0D01*
G01*
X113831250Y-111275000D01*
G75*
G02*
X114050000Y-111493750I0J-218750D01*
G01*
G37*
G04 #@! TD.AperFunction*
G04 #@! TA.AperFunction,SMDPad,CuDef*
G36*
G01*
X115625000Y-111493750D02*
X115625000Y-112006250D01*
G75*
G02*
X115406250Y-112225000I-218750J0D01*
G01*
X114968750Y-112225000D01*
G75*
G02*
X114750000Y-112006250I0J218750D01*
G01*
X114750000Y-111493750D01*
G75*
G02*
X114968750Y-111275000I218750J0D01*
G01*
X115406250Y-111275000D01*
G75*
G02*
X115625000Y-111493750I0J-218750D01*
G01*
G37*
G04 #@! TD.AperFunction*
G04 #@! TA.AperFunction,SMDPad,CuDef*
G36*
G01*
X113281750Y-114780000D02*
X113794250Y-114780000D01*
G75*
G02*
X114013000Y-114998750I0J-218750D01*
G01*
X114013000Y-115436250D01*
G75*
G02*
X113794250Y-115655000I-218750J0D01*
G01*
X113281750Y-115655000D01*
G75*
G02*
X113063000Y-115436250I0J218750D01*
G01*
X113063000Y-114998750D01*
G75*
G02*
X113281750Y-114780000I218750J0D01*
G01*
G37*
G04 #@! TD.AperFunction*
G04 #@! TA.AperFunction,SMDPad,CuDef*
G36*
G01*
X113281750Y-113205000D02*
X113794250Y-113205000D01*
G75*
G02*
X114013000Y-113423750I0J-218750D01*
G01*
X114013000Y-113861250D01*
G75*
G02*
X113794250Y-114080000I-218750J0D01*
G01*
X113281750Y-114080000D01*
G75*
G02*
X113063000Y-113861250I0J218750D01*
G01*
X113063000Y-113423750D01*
G75*
G02*
X113281750Y-113205000I218750J0D01*
G01*
G37*
G04 #@! TD.AperFunction*
G04 #@! TA.AperFunction,SMDPad,CuDef*
G36*
G01*
X115059750Y-114780000D02*
X115572250Y-114780000D01*
G75*
G02*
X115791000Y-114998750I0J-218750D01*
G01*
X115791000Y-115436250D01*
G75*
G02*
X115572250Y-115655000I-218750J0D01*
G01*
X115059750Y-115655000D01*
G75*
G02*
X114841000Y-115436250I0J218750D01*
G01*
X114841000Y-114998750D01*
G75*
G02*
X115059750Y-114780000I218750J0D01*
G01*
G37*
G04 #@! TD.AperFunction*
G04 #@! TA.AperFunction,SMDPad,CuDef*
G36*
G01*
X115059750Y-113205000D02*
X115572250Y-113205000D01*
G75*
G02*
X115791000Y-113423750I0J-218750D01*
G01*
X115791000Y-113861250D01*
G75*
G02*
X115572250Y-114080000I-218750J0D01*
G01*
X115059750Y-114080000D01*
G75*
G02*
X114841000Y-113861250I0J218750D01*
G01*
X114841000Y-113423750D01*
G75*
G02*
X115059750Y-113205000I218750J0D01*
G01*
G37*
G04 #@! TD.AperFunction*
D26*
X106200000Y-103599998D03*
D27*
X101200000Y-114800000D03*
D26*
X107876276Y-112583774D03*
X108982540Y-113607424D03*
X112700000Y-106630000D03*
X116350000Y-106250000D03*
X124500000Y-112200000D03*
X121958058Y-112158058D03*
X129549823Y-108749871D03*
X130700000Y-103470000D03*
D27*
X140050000Y-109100000D03*
X138100000Y-116250000D03*
D26*
X101400000Y-109550000D03*
X106875000Y-108625000D03*
X136200006Y-111200000D03*
X134050000Y-104750000D03*
D27*
X116200000Y-105450000D03*
D26*
X133569990Y-109380010D03*
D27*
X127145396Y-102525010D03*
X113000000Y-102800000D03*
X106850000Y-116250000D03*
D26*
X104400000Y-110000000D03*
D27*
X124168252Y-106805260D03*
X126293720Y-103229980D03*
X124700000Y-106350000D03*
X125960414Y-102600000D03*
X130552322Y-106362118D03*
X124300000Y-109100000D03*
X121524767Y-110824767D03*
X129848904Y-106362762D03*
X124949061Y-108569293D03*
X104400000Y-111800000D03*
X104400000Y-113600000D03*
X114400000Y-110650000D03*
X111650000Y-112350000D03*
X109700000Y-106050000D03*
X119500000Y-109800000D03*
D26*
X105200000Y-115200000D03*
X114382500Y-115017500D03*
D27*
X114500000Y-107900000D03*
X125476000Y-110243000D03*
D26*
X130200000Y-105700010D03*
X137400000Y-111200000D03*
X125818347Y-106300021D03*
X111050000Y-108750000D03*
D27*
X125325221Y-112474770D03*
X108600000Y-106000000D03*
X121100000Y-109350000D03*
X112100000Y-111700000D03*
X114294140Y-107230953D03*
D26*
X131000000Y-105600000D03*
D27*
X108800000Y-107549990D03*
X104400000Y-105110000D03*
X110800000Y-115200001D03*
X119100000Y-111150000D03*
X134580332Y-105280332D03*
X134764780Y-107030256D03*
X125649710Y-113095020D03*
X128300000Y-103345000D03*
X128939987Y-112427843D03*
X132700000Y-103300000D03*
X135300000Y-111900000D03*
X125500000Y-107600000D03*
X135450523Y-106889640D03*
X128587697Y-113032747D03*
X132900000Y-108699870D03*
X132539921Y-109300158D03*
X133650097Y-111159883D03*
X132773448Y-112650536D03*
X132375000Y-112075000D03*
X133071921Y-112009288D03*
X127775000Y-113050000D03*
X129326136Y-113051136D03*
X126100000Y-108550000D03*
X130075000Y-113075000D03*
D28*
X109712500Y-114684384D02*
X109682490Y-114654374D01*
X109712500Y-115137500D02*
X109712500Y-114684384D01*
X106212500Y-115137500D02*
X106212500Y-114684384D01*
X126800000Y-104320000D02*
X126786600Y-104320000D01*
X131250000Y-109450000D02*
X129450000Y-109450000D01*
X131400000Y-109450000D02*
X131250000Y-109450000D01*
X127650000Y-109450000D02*
X129450000Y-109450000D01*
X127500000Y-109450000D02*
X127650000Y-109450000D01*
X129450000Y-109970000D02*
X129680000Y-110200000D01*
X129450000Y-109450000D02*
X129450000Y-109970000D01*
D29*
X126800000Y-104320000D02*
X126490000Y-104320000D01*
D28*
X102250000Y-113750000D02*
X101200000Y-114800000D01*
X103025000Y-113750000D02*
X102250000Y-113750000D01*
X107712500Y-112950000D02*
X107712500Y-115137500D01*
X107962500Y-112700000D02*
X107712500Y-112950000D01*
X109712500Y-114700000D02*
X107962500Y-112950000D01*
X109712500Y-115137500D02*
X109712500Y-114700000D01*
X109212500Y-113950000D02*
X107962500Y-112700000D01*
X110400000Y-113950000D02*
X109212500Y-113950000D01*
X107962500Y-112950000D02*
X107962500Y-112700000D01*
X106212500Y-115137500D02*
X106212500Y-114700000D01*
X108212500Y-112450000D02*
X107962500Y-112700000D01*
X108212500Y-110262500D02*
X108212500Y-112450000D01*
D30*
X112700000Y-107250000D02*
X112700000Y-106630000D01*
D29*
X112000000Y-109040000D02*
X112260000Y-109040000D01*
X112700000Y-108600000D02*
X112700000Y-107250000D01*
X112260000Y-109040000D02*
X112700000Y-108600000D01*
X112865000Y-108765000D02*
X112700000Y-108600000D01*
X113600000Y-108765000D02*
X112865000Y-108765000D01*
X115250000Y-108796000D02*
X116046000Y-108796000D01*
X117000000Y-109750000D02*
X117715000Y-109750000D01*
X116046000Y-108796000D02*
X117000000Y-109750000D01*
X116046000Y-107519000D02*
X116046000Y-108796000D01*
X116782500Y-106682500D02*
X116350000Y-106250000D01*
X116882500Y-106682500D02*
X116782500Y-106682500D01*
X117715000Y-105850000D02*
X116882500Y-106682500D01*
X116882500Y-106682500D02*
X116046000Y-107519000D01*
X120230000Y-111268532D02*
X120230000Y-113500000D01*
X121675001Y-109073999D02*
X121675001Y-109823531D01*
X121376001Y-108774999D02*
X121675001Y-109073999D01*
X120824999Y-108774999D02*
X121376001Y-108774999D01*
X121675001Y-109823531D02*
X120230000Y-111268532D01*
X120400000Y-108350000D02*
X120824999Y-108774999D01*
D30*
X130700000Y-103250000D02*
X130700000Y-103470000D01*
D29*
X132870000Y-104350000D02*
X132900000Y-104320000D01*
X131580000Y-104350000D02*
X132870000Y-104350000D01*
X130700000Y-103470000D02*
X131580000Y-104350000D01*
X139950000Y-109000000D02*
X140050000Y-109100000D01*
X139950000Y-107700000D02*
X139950000Y-109000000D01*
X139750000Y-107500000D02*
X139950000Y-107700000D01*
X139230000Y-107500000D02*
X139750000Y-107500000D01*
X139230000Y-107500000D02*
X139230000Y-107075021D01*
X139230000Y-107075021D02*
X138954979Y-106800000D01*
X137130000Y-107500000D02*
X137130000Y-107170000D01*
X137500000Y-106800000D02*
X138954979Y-106800000D01*
X137130000Y-107170000D02*
X137500000Y-106800000D01*
D30*
X138655000Y-115695000D02*
X138100000Y-116250000D01*
X138655000Y-114475000D02*
X138655000Y-115695000D01*
D28*
X106212500Y-114700000D02*
X107962500Y-112950000D01*
D30*
X136115000Y-111114994D02*
X136200006Y-111200000D01*
X136115000Y-109525000D02*
X136115000Y-111114994D01*
X136115000Y-107555000D02*
X136170000Y-107500000D01*
X136115000Y-109525000D02*
X136115000Y-107555000D01*
X136115000Y-111285006D02*
X136200006Y-111200000D01*
X136115000Y-114475000D02*
X136115000Y-111285006D01*
D28*
X122299990Y-105249990D02*
X116400010Y-105249990D01*
X116400010Y-105249990D02*
X116200000Y-105450000D01*
X123300000Y-106250000D02*
X122299990Y-105249990D01*
X123300000Y-106850000D02*
X123300000Y-106250000D01*
D29*
X123500000Y-109850000D02*
X123500000Y-111350000D01*
X123500000Y-111500000D02*
X123500000Y-111150000D01*
X121500000Y-113500000D02*
X123500000Y-111500000D01*
X133520000Y-105280000D02*
X134050000Y-104750000D01*
X132900000Y-105280000D02*
X133520000Y-105280000D01*
X127500000Y-109000000D02*
X126994085Y-109000000D01*
X126994085Y-109000000D02*
X126695752Y-109298333D01*
X124952669Y-109298333D02*
X124401002Y-109850000D01*
X126695752Y-109298333D02*
X124952669Y-109298333D01*
X124401002Y-109850000D02*
X123500000Y-109850000D01*
D30*
X134767166Y-111200000D02*
X133569990Y-110002824D01*
X133569990Y-110002824D02*
X133569990Y-109380010D01*
D29*
X132600000Y-110350000D02*
X133569990Y-109380010D01*
X131400000Y-110350000D02*
X132600000Y-110350000D01*
D30*
X136200006Y-111200000D02*
X134767166Y-111200000D01*
D28*
X128675010Y-102525010D02*
X127145396Y-102525010D01*
X129400000Y-103250000D02*
X128675010Y-102525010D01*
X129400000Y-103250000D02*
X129318903Y-103331097D01*
X129450000Y-106748260D02*
X129450000Y-107500000D01*
X129318903Y-106617163D02*
X129450000Y-106748260D01*
X129318903Y-103331097D02*
X129318903Y-106617163D01*
X113000000Y-103550000D02*
X113000000Y-102800000D01*
X115250000Y-105800000D02*
X113000000Y-103550000D01*
X115250000Y-106200000D02*
X115250000Y-105800000D01*
X113538000Y-113642500D02*
X113157500Y-113642500D01*
X113157500Y-113642500D02*
X112650000Y-114150000D01*
X112650000Y-114150000D02*
X112050000Y-114150000D01*
X111800000Y-114400000D02*
X111800000Y-115030000D01*
X112050000Y-114150000D02*
X111800000Y-114400000D01*
D29*
X104300000Y-110100000D02*
X104400000Y-110000000D01*
D30*
X104062132Y-111150000D02*
X103025000Y-111150000D01*
X104400000Y-110812132D02*
X104062132Y-111150000D01*
X104400000Y-110000000D02*
X104400000Y-110812132D01*
D28*
X107212500Y-115887500D02*
X106850000Y-116250000D01*
X107212500Y-115137500D02*
X107212500Y-115887500D01*
X128910010Y-105000887D02*
X127139103Y-103229980D01*
X128910010Y-106717402D02*
X128910010Y-105000887D01*
X129000000Y-106807392D02*
X128910010Y-106717402D01*
X127139103Y-103229980D02*
X126293720Y-103229980D01*
X129000000Y-107500000D02*
X129000000Y-106807392D01*
X125710415Y-102849999D02*
X125960414Y-102600000D01*
X125710415Y-103448443D02*
X125710415Y-102849999D01*
X126021962Y-103759990D02*
X125710415Y-103448443D01*
X128550000Y-105150008D02*
X127159982Y-103759990D01*
X127159982Y-103759990D02*
X126021962Y-103759990D01*
X128550000Y-107500000D02*
X128550000Y-105150008D01*
X130350000Y-107500000D02*
X130350000Y-106564440D01*
X130350000Y-106564440D02*
X130552322Y-106362118D01*
X123950000Y-108350000D02*
X123300000Y-108350000D01*
X124300000Y-109100000D02*
X124300000Y-108700000D01*
X122530000Y-109470000D02*
X122530000Y-109850000D01*
X123000000Y-109000000D02*
X122530000Y-109470000D01*
X124200000Y-109000000D02*
X123000000Y-109000000D01*
X124300000Y-109100000D02*
X124200000Y-109000000D01*
X124300000Y-108700000D02*
X123950000Y-108350000D01*
X121850000Y-111150000D02*
X121524767Y-110824767D01*
X122530000Y-111150000D02*
X121850000Y-111150000D01*
X129900000Y-107500000D02*
X129900000Y-106413858D01*
X129900000Y-106413858D02*
X129848904Y-106362762D01*
X124229768Y-107850000D02*
X124949061Y-108569293D01*
X123300000Y-107850000D02*
X124229768Y-107850000D01*
X103025000Y-111800000D02*
X104400000Y-111800000D01*
X104750000Y-113950000D02*
X104400000Y-113600000D01*
X105525000Y-113950000D02*
X104750000Y-113950000D01*
X105087500Y-113450000D02*
X105525000Y-113450000D01*
X104087500Y-112450000D02*
X105087500Y-113450000D01*
X103025000Y-112450000D02*
X104087500Y-112450000D01*
X117115000Y-111115000D02*
X117000000Y-111115000D01*
X115316000Y-113642500D02*
X115907500Y-113642500D01*
X115907500Y-113642500D02*
X116300000Y-113250000D01*
X116300000Y-113250000D02*
X116300000Y-111500000D01*
X116550000Y-111250000D02*
X117015000Y-111250000D01*
X116300000Y-111500000D02*
X116550000Y-111250000D01*
X111250000Y-111950000D02*
X111650000Y-112350000D01*
X110400000Y-111950000D02*
X111250000Y-111950000D01*
X109200000Y-110250000D02*
X109212500Y-110262500D01*
X109700000Y-107854002D02*
X109700000Y-106050000D01*
X109212500Y-108341502D02*
X109700000Y-107854002D01*
X109212500Y-110262500D02*
X109212500Y-108341502D01*
X111800000Y-110140000D02*
X111800000Y-109860000D01*
X113232144Y-112800000D02*
X112894990Y-112462846D01*
X110662500Y-110262500D02*
X109712500Y-110262500D01*
X111500000Y-111100000D02*
X110662500Y-110262500D01*
X113538000Y-115217500D02*
X114382500Y-115217500D01*
X114382500Y-115217500D02*
X115316000Y-115217500D01*
X105525000Y-114875000D02*
X105200000Y-115200000D01*
X105525000Y-114450000D02*
X105525000Y-114875000D01*
X114382500Y-115217500D02*
X114382500Y-115017500D01*
X113612500Y-112000000D02*
X113612500Y-111783500D01*
X113875856Y-112800000D02*
X113232144Y-112800000D01*
X114382500Y-113306644D02*
X113875856Y-112800000D01*
X114382500Y-115017500D02*
X114382500Y-113306644D01*
X112209130Y-111100000D02*
X111950000Y-111100000D01*
X112894990Y-112462846D02*
X112894990Y-111785860D01*
X111500000Y-111100000D02*
X111950000Y-111100000D01*
X112930850Y-111750000D02*
X112894990Y-111785860D01*
X113612500Y-111750000D02*
X112930850Y-111750000D01*
X112209130Y-111100000D02*
X112209130Y-110859130D01*
X112000000Y-110650000D02*
X112000000Y-110000000D01*
X112209130Y-110859130D02*
X112000000Y-110650000D01*
X112000000Y-110000000D02*
X112700000Y-110000000D01*
X112965000Y-109735000D02*
X113600000Y-109735000D01*
X112700000Y-110000000D02*
X112965000Y-109735000D01*
X114500000Y-108835000D02*
X114500000Y-107900000D01*
X113600000Y-109735000D02*
X114500000Y-108835000D01*
X112550000Y-111100000D02*
X112209130Y-111100000D01*
X112894990Y-111444990D02*
X112550000Y-111100000D01*
X112894990Y-111785860D02*
X112894990Y-111444990D01*
D29*
X125819000Y-109900000D02*
X125476000Y-110243000D01*
X127500000Y-109900000D02*
X125819000Y-109900000D01*
D28*
X115187500Y-112000000D02*
X114869999Y-111682499D01*
X115187500Y-109828500D02*
X115250000Y-109766000D01*
X115187500Y-111750000D02*
X115187500Y-109828500D01*
D30*
X137400000Y-109540000D02*
X137385000Y-109525000D01*
X137400000Y-111200000D02*
X137400000Y-109540000D01*
D28*
X137385000Y-109525000D02*
X137385000Y-108715000D01*
X137385000Y-108385000D02*
X137385000Y-109525000D01*
X138270000Y-107500000D02*
X137385000Y-108385000D01*
D30*
X126800000Y-105280000D02*
X125818347Y-106261653D01*
X125818347Y-106261653D02*
X125818347Y-106300021D01*
D29*
X125325221Y-111474779D02*
X125325221Y-112474770D01*
X126450000Y-110350000D02*
X125325221Y-111474779D01*
X127500000Y-110350000D02*
X126450000Y-110350000D01*
D28*
X119910010Y-107850000D02*
X119610010Y-108150000D01*
X119610010Y-108150000D02*
X119610010Y-108689990D01*
X120400000Y-107850000D02*
X119910010Y-107850000D01*
X119610010Y-108689990D02*
X119610010Y-108910010D01*
X120050000Y-109350000D02*
X121100000Y-109350000D01*
X119610010Y-108910010D02*
X120050000Y-109350000D01*
X118685000Y-109750000D02*
X118685000Y-109485000D01*
X118200000Y-109000000D02*
X118200000Y-108400000D01*
X118685000Y-109485000D02*
X118200000Y-109000000D01*
X119650000Y-107350000D02*
X120400000Y-107350000D01*
X119250000Y-107750000D02*
X119650000Y-107350000D01*
X119250000Y-108100000D02*
X119250000Y-107750000D01*
X118950000Y-108400000D02*
X119250000Y-108100000D01*
X118200000Y-108400000D02*
X118950000Y-108400000D01*
X118350000Y-106850000D02*
X120400000Y-106850000D01*
X118200000Y-107000000D02*
X118350000Y-106850000D01*
X118685000Y-106515000D02*
X118200000Y-107000000D01*
X118685000Y-105850000D02*
X118685000Y-106515000D01*
X111860010Y-111460010D02*
X112100000Y-111700000D01*
X110410010Y-111460010D02*
X111860010Y-111460010D01*
X110400000Y-111450000D02*
X110410010Y-111460010D01*
X114294140Y-106204140D02*
X114290000Y-106200000D01*
X114294140Y-107230953D02*
X114294140Y-106204140D01*
X104700000Y-106150000D02*
X104400000Y-105850000D01*
X104400000Y-105850000D02*
X104400000Y-105110000D01*
X104700000Y-107250000D02*
X104700000Y-106150000D01*
X119000000Y-111250000D02*
X117985000Y-111250000D01*
X119100000Y-111150000D02*
X119000000Y-111250000D01*
X108712500Y-115137500D02*
X108712500Y-115575000D01*
X108712500Y-115575000D02*
X108992510Y-115855010D01*
X108992510Y-115855010D02*
X110144991Y-115855010D01*
X110144991Y-115855010D02*
X110800000Y-115200001D01*
X108212500Y-115137500D02*
X108212500Y-115962500D01*
X108212500Y-115962500D02*
X108650000Y-116400000D01*
X108650000Y-116400000D02*
X111400000Y-116400000D01*
X111400000Y-116400000D02*
X111800000Y-116000000D01*
D30*
X137385000Y-113407500D02*
X137385000Y-114475000D01*
X137792500Y-113000000D02*
X137385000Y-113407500D01*
X142140000Y-113000000D02*
X137792500Y-113000000D01*
X143440000Y-111700000D02*
X142140000Y-113000000D01*
X140900000Y-111700000D02*
X139300000Y-111700000D01*
X138655000Y-111055000D02*
X138655000Y-109525000D01*
X139300000Y-111700000D02*
X138655000Y-111055000D01*
D28*
X128049976Y-111450024D02*
X128100000Y-111400000D01*
X125899709Y-112845021D02*
X125899709Y-111473061D01*
X125649710Y-113095020D02*
X125899709Y-112845021D01*
X126572770Y-110800000D02*
X127500000Y-110800000D01*
X125899709Y-111473061D02*
X126572770Y-110800000D01*
X129000000Y-111400000D02*
X129000000Y-112367830D01*
X129000000Y-112367830D02*
X128939987Y-112427843D01*
X134845000Y-112355000D02*
X135300000Y-111900000D01*
X134845000Y-114475000D02*
X134845000Y-112355000D01*
X125600000Y-107500000D02*
X125500000Y-107600000D01*
X128100000Y-107500000D02*
X125600000Y-107500000D01*
X135450523Y-107499477D02*
X135450523Y-106889640D01*
X134845000Y-108105000D02*
X135450523Y-107499477D01*
X134845000Y-109525000D02*
X134845000Y-108105000D01*
X128550000Y-112057473D02*
X128409986Y-112197487D01*
X128409986Y-112855036D02*
X128587697Y-113032747D01*
X128409986Y-112197487D02*
X128409986Y-112855036D01*
X128550000Y-111400000D02*
X128550000Y-112057473D01*
X132750130Y-108550000D02*
X132900000Y-108699870D01*
X131400000Y-108550000D02*
X132750130Y-108550000D01*
X131400000Y-109000000D02*
X132239763Y-109000000D01*
X132239763Y-109000000D02*
X132539921Y-109300158D01*
X125245598Y-108130002D02*
X124465596Y-107350000D01*
X125754400Y-108130002D02*
X125245598Y-108130002D01*
X126024392Y-107860010D02*
X125754400Y-108130002D01*
X126510010Y-107860010D02*
X126024392Y-107860010D01*
X127469998Y-108130002D02*
X126780002Y-108130002D01*
X124465596Y-107350000D02*
X123300000Y-107350000D01*
X126780002Y-108130002D02*
X126510010Y-107860010D01*
X127500000Y-108100000D02*
X127469998Y-108130002D01*
X131166152Y-112650536D02*
X132773448Y-112650536D01*
X130350000Y-111834384D02*
X131166152Y-112650536D01*
X130350000Y-111400000D02*
X130350000Y-111834384D01*
X130800000Y-111400000D02*
X131475000Y-112075000D01*
X131475000Y-112075000D02*
X132375000Y-112075000D01*
X131400000Y-110800000D02*
X131862633Y-110800000D01*
X131862633Y-110800000D02*
X133071921Y-112009288D01*
X127775000Y-112323342D02*
X127775000Y-113050000D01*
X128100000Y-111998342D02*
X127775000Y-112323342D01*
X128100000Y-111400000D02*
X128100000Y-111998342D01*
X129450000Y-111400000D02*
X129469992Y-111419992D01*
X129469992Y-112907280D02*
X129326136Y-113051136D01*
X129469992Y-111419992D02*
X129469992Y-112907280D01*
X127500000Y-108550000D02*
X126100000Y-108550000D01*
X133859989Y-106340011D02*
X132100000Y-108100000D01*
X132100000Y-108100000D02*
X131400000Y-108100000D01*
X139840011Y-106340011D02*
X139409989Y-106340011D01*
X141000000Y-107500000D02*
X139840011Y-106340011D01*
X139409989Y-106340011D02*
X133859989Y-106340011D01*
X131719999Y-105980001D02*
X130800000Y-106900000D01*
X139124001Y-105980001D02*
X131719999Y-105980001D01*
X130800000Y-106900000D02*
X130800000Y-107500000D01*
X142544999Y-106544999D02*
X143500000Y-107500000D01*
X140554130Y-106544999D02*
X142544999Y-106544999D01*
X139989132Y-105980001D02*
X140554130Y-106544999D01*
X139124001Y-105980001D02*
X139989132Y-105980001D01*
X129900000Y-112900000D02*
X130075000Y-113075000D01*
X129900000Y-111400000D02*
X129900000Y-112900000D01*
D31*
X100730083Y-113953415D02*
X100923673Y-114012140D01*
X101125000Y-114031969D01*
X101326326Y-114012140D01*
X101519916Y-113953415D01*
X101662876Y-113877002D01*
X101769748Y-113877002D01*
X101640000Y-114006750D01*
X101651109Y-114108773D01*
X101689194Y-114227918D01*
X101749792Y-114337343D01*
X101830574Y-114432844D01*
X101928434Y-114510750D01*
X102039613Y-114568067D01*
X102159838Y-114602593D01*
X102284488Y-114613001D01*
X102288858Y-114612972D01*
X102262860Y-114698673D01*
X102248000Y-114849549D01*
X102248000Y-115650450D01*
X102262860Y-115801326D01*
X102321585Y-115994916D01*
X102416949Y-116173331D01*
X102545288Y-116329712D01*
X102689422Y-116448000D01*
X101027001Y-116448000D01*
X100913497Y-116436871D01*
X100830290Y-116411750D01*
X100753544Y-116370943D01*
X100686189Y-116316010D01*
X100630784Y-116249036D01*
X100589447Y-116172584D01*
X100563744Y-116089550D01*
X100552000Y-115977822D01*
X100552000Y-113858228D01*
X100730083Y-113953415D01*
G04 #@! TA.AperFunction,Conductor*
D32*
G36*
X100730083Y-113953415D02*
G01*
X100923673Y-114012140D01*
X101125000Y-114031969D01*
X101326326Y-114012140D01*
X101519916Y-113953415D01*
X101662876Y-113877002D01*
X101769748Y-113877002D01*
X101640000Y-114006750D01*
X101651109Y-114108773D01*
X101689194Y-114227918D01*
X101749792Y-114337343D01*
X101830574Y-114432844D01*
X101928434Y-114510750D01*
X102039613Y-114568067D01*
X102159838Y-114602593D01*
X102284488Y-114613001D01*
X102288858Y-114612972D01*
X102262860Y-114698673D01*
X102248000Y-114849549D01*
X102248000Y-115650450D01*
X102262860Y-115801326D01*
X102321585Y-115994916D01*
X102416949Y-116173331D01*
X102545288Y-116329712D01*
X102689422Y-116448000D01*
X101027001Y-116448000D01*
X100913497Y-116436871D01*
X100830290Y-116411750D01*
X100753544Y-116370943D01*
X100686189Y-116316010D01*
X100630784Y-116249036D01*
X100589447Y-116172584D01*
X100563744Y-116089550D01*
X100552000Y-115977822D01*
X100552000Y-113858228D01*
X100730083Y-113953415D01*
G37*
G04 #@! TD.AperFunction*
D31*
X124776938Y-110455058D02*
X124831741Y-110587364D01*
X124911302Y-110706436D01*
X125012564Y-110807698D01*
X125089524Y-110859121D01*
X124920455Y-111028190D01*
X124897484Y-111047042D01*
X124822255Y-111138709D01*
X124766355Y-111243290D01*
X124731932Y-111356768D01*
X124723221Y-111445214D01*
X124723221Y-111445223D01*
X124720310Y-111474779D01*
X124723221Y-111504336D01*
X124723222Y-112067160D01*
X124680962Y-112130406D01*
X124626159Y-112262712D01*
X124598221Y-112403167D01*
X124598221Y-112546373D01*
X124626159Y-112686828D01*
X124680962Y-112819134D01*
X124760523Y-112938206D01*
X124861785Y-113039468D01*
X124922710Y-113080177D01*
X124922710Y-113166623D01*
X124950648Y-113307078D01*
X125005451Y-113439384D01*
X125085012Y-113558456D01*
X125186274Y-113659718D01*
X125305346Y-113739279D01*
X125437652Y-113794082D01*
X125578107Y-113822020D01*
X125721313Y-113822020D01*
X125861768Y-113794082D01*
X125994074Y-113739279D01*
X126113146Y-113659718D01*
X126214408Y-113558456D01*
X126293969Y-113439384D01*
X126348772Y-113307078D01*
X126376710Y-113166623D01*
X126376710Y-113134209D01*
X126416800Y-113059207D01*
X126448650Y-112954212D01*
X126456709Y-112872385D01*
X126456709Y-112872375D01*
X126459403Y-112845021D01*
X126456709Y-112817668D01*
X126456709Y-111703777D01*
X126803487Y-111357000D01*
X126946546Y-111357000D01*
X126999437Y-111378908D01*
X127011162Y-111382465D01*
X127103323Y-111400799D01*
X127115516Y-111402000D01*
X127162500Y-111404308D01*
X127494785Y-111404308D01*
X127490282Y-111450024D01*
X127495692Y-111504954D01*
X127495692Y-111737500D01*
X127498000Y-111784484D01*
X127499201Y-111796677D01*
X127501648Y-111808978D01*
X127400494Y-111910132D01*
X127379236Y-111927578D01*
X127309631Y-112012392D01*
X127257909Y-112109157D01*
X127226059Y-112214152D01*
X127218000Y-112295979D01*
X127218000Y-112295989D01*
X127215306Y-112323342D01*
X127218000Y-112350695D01*
X127218000Y-112578866D01*
X127210302Y-112586564D01*
X127130741Y-112705636D01*
X127075938Y-112837942D01*
X127048000Y-112978397D01*
X127048000Y-113121603D01*
X127075938Y-113262058D01*
X127130741Y-113394364D01*
X127210302Y-113513436D01*
X127311564Y-113614698D01*
X127430636Y-113694259D01*
X127562942Y-113749062D01*
X127703397Y-113777000D01*
X127846603Y-113777000D01*
X127987058Y-113749062D01*
X128119364Y-113694259D01*
X128194259Y-113644216D01*
X128243333Y-113677006D01*
X128375639Y-113731809D01*
X128516094Y-113759747D01*
X128659300Y-113759747D01*
X128799755Y-113731809D01*
X128932061Y-113677006D01*
X128943156Y-113669593D01*
X128981772Y-113695395D01*
X129114078Y-113750198D01*
X129254533Y-113778136D01*
X129397739Y-113778136D01*
X129538194Y-113750198D01*
X129670500Y-113695395D01*
X129682710Y-113687236D01*
X129730636Y-113719259D01*
X129862942Y-113774062D01*
X130003397Y-113802000D01*
X130146603Y-113802000D01*
X130287058Y-113774062D01*
X130419364Y-113719259D01*
X130538436Y-113639698D01*
X130639698Y-113538436D01*
X130719259Y-113419364D01*
X130774062Y-113287058D01*
X130802000Y-113146603D01*
X130802000Y-113072244D01*
X130855201Y-113115905D01*
X130872984Y-113125410D01*
X130951966Y-113167627D01*
X131056961Y-113199477D01*
X131138788Y-113207536D01*
X131138798Y-113207536D01*
X131166151Y-113210230D01*
X131193505Y-113207536D01*
X132302314Y-113207536D01*
X132310012Y-113215234D01*
X132429084Y-113294795D01*
X132561390Y-113349598D01*
X132701845Y-113377536D01*
X132845051Y-113377536D01*
X132985506Y-113349598D01*
X133117812Y-113294795D01*
X133236884Y-113215234D01*
X133338146Y-113113972D01*
X133417707Y-112994900D01*
X133472510Y-112862594D01*
X133500448Y-112722139D01*
X133500448Y-112597311D01*
X133535357Y-112573986D01*
X133636619Y-112472724D01*
X133716180Y-112353652D01*
X133770983Y-112221346D01*
X133798921Y-112080891D01*
X133798921Y-111937685D01*
X133786262Y-111874041D01*
X133862155Y-111858945D01*
X133994461Y-111804142D01*
X134113533Y-111724581D01*
X134214795Y-111623319D01*
X134222112Y-111612369D01*
X134264944Y-111655201D01*
X134286139Y-111681027D01*
X134311965Y-111702222D01*
X134311967Y-111702224D01*
X134389225Y-111765628D01*
X134506836Y-111828492D01*
X134565881Y-111846403D01*
X134470489Y-111941795D01*
X134449237Y-111959236D01*
X134431796Y-111980488D01*
X134431793Y-111980491D01*
X134379631Y-112044050D01*
X134336626Y-112124508D01*
X134327910Y-112140814D01*
X134296060Y-112245809D01*
X134291788Y-112289186D01*
X134285306Y-112355000D01*
X134288001Y-112382363D01*
X134288001Y-113173837D01*
X134250013Y-113205013D01*
X134171750Y-113300376D01*
X134113596Y-113409175D01*
X134077785Y-113527228D01*
X134065693Y-113650000D01*
X134065693Y-115300000D01*
X134077785Y-115422772D01*
X134113596Y-115540825D01*
X134171750Y-115649624D01*
X134250013Y-115744987D01*
X134345376Y-115823250D01*
X134454175Y-115881404D01*
X134572228Y-115917215D01*
X134695000Y-115929307D01*
X134995000Y-115929307D01*
X135117772Y-115917215D01*
X135235825Y-115881404D01*
X135344624Y-115823250D01*
X135439987Y-115744987D01*
X135480000Y-115696231D01*
X135520013Y-115744987D01*
X135615376Y-115823250D01*
X135724175Y-115881404D01*
X135842228Y-115917215D01*
X135965000Y-115929307D01*
X136265000Y-115929307D01*
X136387772Y-115917215D01*
X136505825Y-115881404D01*
X136614624Y-115823250D01*
X136709987Y-115744987D01*
X136750000Y-115696231D01*
X136790013Y-115744987D01*
X136885376Y-115823250D01*
X136994175Y-115881404D01*
X137112228Y-115917215D01*
X137235000Y-115929307D01*
X137535000Y-115929307D01*
X137657772Y-115917215D01*
X137775825Y-115881404D01*
X137853506Y-115839883D01*
X137903815Y-115901185D01*
X138000506Y-115980537D01*
X138110820Y-116039502D01*
X138230518Y-116075812D01*
X138355000Y-116088072D01*
X138369250Y-116085000D01*
X138528000Y-115926250D01*
X138528000Y-114602000D01*
X138508000Y-114602000D01*
X138508000Y-114348000D01*
X138528000Y-114348000D01*
X138528000Y-114328000D01*
X138782000Y-114328000D01*
X138782000Y-114348000D01*
X138802000Y-114348000D01*
X138802000Y-114602000D01*
X138782000Y-114602000D01*
X138782000Y-115926250D01*
X138940750Y-116085000D01*
X138955000Y-116088072D01*
X139079482Y-116075812D01*
X139199180Y-116039502D01*
X139309494Y-115980537D01*
X139406185Y-115901185D01*
X139485537Y-115804494D01*
X139544502Y-115694180D01*
X139570693Y-115607840D01*
X139570693Y-116050000D01*
X139579903Y-116143508D01*
X139607178Y-116233423D01*
X139651471Y-116316289D01*
X139711079Y-116388921D01*
X139783066Y-116448000D01*
X133014833Y-116448000D01*
X133050537Y-116404494D01*
X133109502Y-116294180D01*
X133145812Y-116174482D01*
X133158072Y-116050000D01*
X133155000Y-115485750D01*
X132996250Y-115327000D01*
X131797000Y-115327000D01*
X131797000Y-115347000D01*
X131543000Y-115347000D01*
X131543000Y-115327000D01*
X131523000Y-115327000D01*
X131523000Y-115073000D01*
X131543000Y-115073000D01*
X131543000Y-113873750D01*
X131797000Y-113873750D01*
X131797000Y-115073000D01*
X132996250Y-115073000D01*
X133155000Y-114914250D01*
X133158072Y-114350000D01*
X133145812Y-114225518D01*
X133109502Y-114105820D01*
X133050537Y-113995506D01*
X132971185Y-113898815D01*
X132874494Y-113819463D01*
X132764180Y-113760498D01*
X132644482Y-113724188D01*
X132520000Y-113711928D01*
X131955750Y-113715000D01*
X131797000Y-113873750D01*
X131543000Y-113873750D01*
X131384250Y-113715000D01*
X130820000Y-113711928D01*
X130695518Y-113724188D01*
X130575820Y-113760498D01*
X130465506Y-113819463D01*
X130368815Y-113898815D01*
X130289463Y-113995506D01*
X130230498Y-114105820D01*
X130194188Y-114225518D01*
X130181928Y-114350000D01*
X130182124Y-114386079D01*
X130160748Y-114354087D01*
X129975913Y-114169252D01*
X129758570Y-114024028D01*
X129517072Y-113923996D01*
X129260698Y-113873000D01*
X128999302Y-113873000D01*
X128742928Y-113923996D01*
X128501430Y-114024028D01*
X128284087Y-114169252D01*
X128099252Y-114354087D01*
X127954028Y-114571430D01*
X127943836Y-114596035D01*
X127934157Y-114568748D01*
X127785178Y-114318645D01*
X127590269Y-114102412D01*
X127356920Y-113928359D01*
X127094099Y-113803175D01*
X126946890Y-113758524D01*
X126717000Y-113879845D01*
X126717000Y-115073000D01*
X126737000Y-115073000D01*
X126737000Y-115327000D01*
X126717000Y-115327000D01*
X126717000Y-115347000D01*
X126463000Y-115347000D01*
X126463000Y-115327000D01*
X126443000Y-115327000D01*
X126443000Y-115073000D01*
X126463000Y-115073000D01*
X126463000Y-113879845D01*
X126233110Y-113758524D01*
X126085901Y-113803175D01*
X125823080Y-113928359D01*
X125589731Y-114102412D01*
X125394822Y-114318645D01*
X125245843Y-114568748D01*
X125236164Y-114596035D01*
X125225972Y-114571430D01*
X125080748Y-114354087D01*
X124895913Y-114169252D01*
X124678570Y-114024028D01*
X124437072Y-113923996D01*
X124180698Y-113873000D01*
X123919302Y-113873000D01*
X123662928Y-113923996D01*
X123421430Y-114024028D01*
X123204087Y-114169252D01*
X123019252Y-114354087D01*
X122874028Y-114571430D01*
X122773996Y-114812928D01*
X122723000Y-115069302D01*
X122723000Y-115330698D01*
X122773996Y-115587072D01*
X122874028Y-115828570D01*
X123019252Y-116045913D01*
X123204087Y-116230748D01*
X123421430Y-116375972D01*
X123595321Y-116448000D01*
X122154763Y-116448000D01*
X122234357Y-116394817D01*
X122394817Y-116234357D01*
X122520889Y-116045677D01*
X122607729Y-115836026D01*
X122652000Y-115613462D01*
X122652000Y-115386538D01*
X122607729Y-115163974D01*
X122520889Y-114954323D01*
X122394817Y-114765643D01*
X122234357Y-114605183D01*
X122045677Y-114479111D01*
X121867458Y-114405291D01*
X121962783Y-114365806D01*
X122122801Y-114258885D01*
X122258885Y-114122801D01*
X122365806Y-113962783D01*
X122439454Y-113784980D01*
X122477000Y-113596226D01*
X122477000Y-113403774D01*
X122472119Y-113379236D01*
X123904778Y-111946579D01*
X123927737Y-111927737D01*
X123946580Y-111904777D01*
X123946584Y-111904773D01*
X123997044Y-111843287D01*
X123998779Y-111841173D01*
X124090719Y-111765719D01*
X124168671Y-111670735D01*
X124226594Y-111562369D01*
X124262263Y-111444784D01*
X124274307Y-111322500D01*
X124274307Y-110977500D01*
X124262263Y-110855216D01*
X124226594Y-110737631D01*
X124168671Y-110629265D01*
X124102000Y-110548027D01*
X124102000Y-110452000D01*
X124371446Y-110452000D01*
X124401002Y-110454911D01*
X124430558Y-110452000D01*
X124430568Y-110452000D01*
X124519014Y-110443289D01*
X124632492Y-110408866D01*
X124737073Y-110352966D01*
X124753886Y-110339168D01*
X124776938Y-110455058D01*
G04 #@! TA.AperFunction,Conductor*
D32*
G36*
X124776938Y-110455058D02*
G01*
X124831741Y-110587364D01*
X124911302Y-110706436D01*
X125012564Y-110807698D01*
X125089524Y-110859121D01*
X124920455Y-111028190D01*
X124897484Y-111047042D01*
X124822255Y-111138709D01*
X124766355Y-111243290D01*
X124731932Y-111356768D01*
X124723221Y-111445214D01*
X124723221Y-111445223D01*
X124720310Y-111474779D01*
X124723221Y-111504336D01*
X124723222Y-112067160D01*
X124680962Y-112130406D01*
X124626159Y-112262712D01*
X124598221Y-112403167D01*
X124598221Y-112546373D01*
X124626159Y-112686828D01*
X124680962Y-112819134D01*
X124760523Y-112938206D01*
X124861785Y-113039468D01*
X124922710Y-113080177D01*
X124922710Y-113166623D01*
X124950648Y-113307078D01*
X125005451Y-113439384D01*
X125085012Y-113558456D01*
X125186274Y-113659718D01*
X125305346Y-113739279D01*
X125437652Y-113794082D01*
X125578107Y-113822020D01*
X125721313Y-113822020D01*
X125861768Y-113794082D01*
X125994074Y-113739279D01*
X126113146Y-113659718D01*
X126214408Y-113558456D01*
X126293969Y-113439384D01*
X126348772Y-113307078D01*
X126376710Y-113166623D01*
X126376710Y-113134209D01*
X126416800Y-113059207D01*
X126448650Y-112954212D01*
X126456709Y-112872385D01*
X126456709Y-112872375D01*
X126459403Y-112845021D01*
X126456709Y-112817668D01*
X126456709Y-111703777D01*
X126803487Y-111357000D01*
X126946546Y-111357000D01*
X126999437Y-111378908D01*
X127011162Y-111382465D01*
X127103323Y-111400799D01*
X127115516Y-111402000D01*
X127162500Y-111404308D01*
X127494785Y-111404308D01*
X127490282Y-111450024D01*
X127495692Y-111504954D01*
X127495692Y-111737500D01*
X127498000Y-111784484D01*
X127499201Y-111796677D01*
X127501648Y-111808978D01*
X127400494Y-111910132D01*
X127379236Y-111927578D01*
X127309631Y-112012392D01*
X127257909Y-112109157D01*
X127226059Y-112214152D01*
X127218000Y-112295979D01*
X127218000Y-112295989D01*
X127215306Y-112323342D01*
X127218000Y-112350695D01*
X127218000Y-112578866D01*
X127210302Y-112586564D01*
X127130741Y-112705636D01*
X127075938Y-112837942D01*
X127048000Y-112978397D01*
X127048000Y-113121603D01*
X127075938Y-113262058D01*
X127130741Y-113394364D01*
X127210302Y-113513436D01*
X127311564Y-113614698D01*
X127430636Y-113694259D01*
X127562942Y-113749062D01*
X127703397Y-113777000D01*
X127846603Y-113777000D01*
X127987058Y-113749062D01*
X128119364Y-113694259D01*
X128194259Y-113644216D01*
X128243333Y-113677006D01*
X128375639Y-113731809D01*
X128516094Y-113759747D01*
X128659300Y-113759747D01*
X128799755Y-113731809D01*
X128932061Y-113677006D01*
X128943156Y-113669593D01*
X128981772Y-113695395D01*
X129114078Y-113750198D01*
X129254533Y-113778136D01*
X129397739Y-113778136D01*
X129538194Y-113750198D01*
X129670500Y-113695395D01*
X129682710Y-113687236D01*
X129730636Y-113719259D01*
X129862942Y-113774062D01*
X130003397Y-113802000D01*
X130146603Y-113802000D01*
X130287058Y-113774062D01*
X130419364Y-113719259D01*
X130538436Y-113639698D01*
X130639698Y-113538436D01*
X130719259Y-113419364D01*
X130774062Y-113287058D01*
X130802000Y-113146603D01*
X130802000Y-113072244D01*
X130855201Y-113115905D01*
X130872984Y-113125410D01*
X130951966Y-113167627D01*
X131056961Y-113199477D01*
X131138788Y-113207536D01*
X131138798Y-113207536D01*
X131166151Y-113210230D01*
X131193505Y-113207536D01*
X132302314Y-113207536D01*
X132310012Y-113215234D01*
X132429084Y-113294795D01*
X132561390Y-113349598D01*
X132701845Y-113377536D01*
X132845051Y-113377536D01*
X132985506Y-113349598D01*
X133117812Y-113294795D01*
X133236884Y-113215234D01*
X133338146Y-113113972D01*
X133417707Y-112994900D01*
X133472510Y-112862594D01*
X133500448Y-112722139D01*
X133500448Y-112597311D01*
X133535357Y-112573986D01*
X133636619Y-112472724D01*
X133716180Y-112353652D01*
X133770983Y-112221346D01*
X133798921Y-112080891D01*
X133798921Y-111937685D01*
X133786262Y-111874041D01*
X133862155Y-111858945D01*
X133994461Y-111804142D01*
X134113533Y-111724581D01*
X134214795Y-111623319D01*
X134222112Y-111612369D01*
X134264944Y-111655201D01*
X134286139Y-111681027D01*
X134311965Y-111702222D01*
X134311967Y-111702224D01*
X134389225Y-111765628D01*
X134506836Y-111828492D01*
X134565881Y-111846403D01*
X134470489Y-111941795D01*
X134449237Y-111959236D01*
X134431796Y-111980488D01*
X134431793Y-111980491D01*
X134379631Y-112044050D01*
X134336626Y-112124508D01*
X134327910Y-112140814D01*
X134296060Y-112245809D01*
X134291788Y-112289186D01*
X134285306Y-112355000D01*
X134288001Y-112382363D01*
X134288001Y-113173837D01*
X134250013Y-113205013D01*
X134171750Y-113300376D01*
X134113596Y-113409175D01*
X134077785Y-113527228D01*
X134065693Y-113650000D01*
X134065693Y-115300000D01*
X134077785Y-115422772D01*
X134113596Y-115540825D01*
X134171750Y-115649624D01*
X134250013Y-115744987D01*
X134345376Y-115823250D01*
X134454175Y-115881404D01*
X134572228Y-115917215D01*
X134695000Y-115929307D01*
X134995000Y-115929307D01*
X135117772Y-115917215D01*
X135235825Y-115881404D01*
X135344624Y-115823250D01*
X135439987Y-115744987D01*
X135480000Y-115696231D01*
X135520013Y-115744987D01*
X135615376Y-115823250D01*
X135724175Y-115881404D01*
X135842228Y-115917215D01*
X135965000Y-115929307D01*
X136265000Y-115929307D01*
X136387772Y-115917215D01*
X136505825Y-115881404D01*
X136614624Y-115823250D01*
X136709987Y-115744987D01*
X136750000Y-115696231D01*
X136790013Y-115744987D01*
X136885376Y-115823250D01*
X136994175Y-115881404D01*
X137112228Y-115917215D01*
X137235000Y-115929307D01*
X137535000Y-115929307D01*
X137657772Y-115917215D01*
X137775825Y-115881404D01*
X137853506Y-115839883D01*
X137903815Y-115901185D01*
X138000506Y-115980537D01*
X138110820Y-116039502D01*
X138230518Y-116075812D01*
X138355000Y-116088072D01*
X138369250Y-116085000D01*
X138528000Y-115926250D01*
X138528000Y-114602000D01*
X138508000Y-114602000D01*
X138508000Y-114348000D01*
X138528000Y-114348000D01*
X138528000Y-114328000D01*
X138782000Y-114328000D01*
X138782000Y-114348000D01*
X138802000Y-114348000D01*
X138802000Y-114602000D01*
X138782000Y-114602000D01*
X138782000Y-115926250D01*
X138940750Y-116085000D01*
X138955000Y-116088072D01*
X139079482Y-116075812D01*
X139199180Y-116039502D01*
X139309494Y-115980537D01*
X139406185Y-115901185D01*
X139485537Y-115804494D01*
X139544502Y-115694180D01*
X139570693Y-115607840D01*
X139570693Y-116050000D01*
X139579903Y-116143508D01*
X139607178Y-116233423D01*
X139651471Y-116316289D01*
X139711079Y-116388921D01*
X139783066Y-116448000D01*
X133014833Y-116448000D01*
X133050537Y-116404494D01*
X133109502Y-116294180D01*
X133145812Y-116174482D01*
X133158072Y-116050000D01*
X133155000Y-115485750D01*
X132996250Y-115327000D01*
X131797000Y-115327000D01*
X131797000Y-115347000D01*
X131543000Y-115347000D01*
X131543000Y-115327000D01*
X131523000Y-115327000D01*
X131523000Y-115073000D01*
X131543000Y-115073000D01*
X131543000Y-113873750D01*
X131797000Y-113873750D01*
X131797000Y-115073000D01*
X132996250Y-115073000D01*
X133155000Y-114914250D01*
X133158072Y-114350000D01*
X133145812Y-114225518D01*
X133109502Y-114105820D01*
X133050537Y-113995506D01*
X132971185Y-113898815D01*
X132874494Y-113819463D01*
X132764180Y-113760498D01*
X132644482Y-113724188D01*
X132520000Y-113711928D01*
X131955750Y-113715000D01*
X131797000Y-113873750D01*
X131543000Y-113873750D01*
X131384250Y-113715000D01*
X130820000Y-113711928D01*
X130695518Y-113724188D01*
X130575820Y-113760498D01*
X130465506Y-113819463D01*
X130368815Y-113898815D01*
X130289463Y-113995506D01*
X130230498Y-114105820D01*
X130194188Y-114225518D01*
X130181928Y-114350000D01*
X130182124Y-114386079D01*
X130160748Y-114354087D01*
X129975913Y-114169252D01*
X129758570Y-114024028D01*
X129517072Y-113923996D01*
X129260698Y-113873000D01*
X128999302Y-113873000D01*
X128742928Y-113923996D01*
X128501430Y-114024028D01*
X128284087Y-114169252D01*
X128099252Y-114354087D01*
X127954028Y-114571430D01*
X127943836Y-114596035D01*
X127934157Y-114568748D01*
X127785178Y-114318645D01*
X127590269Y-114102412D01*
X127356920Y-113928359D01*
X127094099Y-113803175D01*
X126946890Y-113758524D01*
X126717000Y-113879845D01*
X126717000Y-115073000D01*
X126737000Y-115073000D01*
X126737000Y-115327000D01*
X126717000Y-115327000D01*
X126717000Y-115347000D01*
X126463000Y-115347000D01*
X126463000Y-115327000D01*
X126443000Y-115327000D01*
X126443000Y-115073000D01*
X126463000Y-115073000D01*
X126463000Y-113879845D01*
X126233110Y-113758524D01*
X126085901Y-113803175D01*
X125823080Y-113928359D01*
X125589731Y-114102412D01*
X125394822Y-114318645D01*
X125245843Y-114568748D01*
X125236164Y-114596035D01*
X125225972Y-114571430D01*
X125080748Y-114354087D01*
X124895913Y-114169252D01*
X124678570Y-114024028D01*
X124437072Y-113923996D01*
X124180698Y-113873000D01*
X123919302Y-113873000D01*
X123662928Y-113923996D01*
X123421430Y-114024028D01*
X123204087Y-114169252D01*
X123019252Y-114354087D01*
X122874028Y-114571430D01*
X122773996Y-114812928D01*
X122723000Y-115069302D01*
X122723000Y-115330698D01*
X122773996Y-115587072D01*
X122874028Y-115828570D01*
X123019252Y-116045913D01*
X123204087Y-116230748D01*
X123421430Y-116375972D01*
X123595321Y-116448000D01*
X122154763Y-116448000D01*
X122234357Y-116394817D01*
X122394817Y-116234357D01*
X122520889Y-116045677D01*
X122607729Y-115836026D01*
X122652000Y-115613462D01*
X122652000Y-115386538D01*
X122607729Y-115163974D01*
X122520889Y-114954323D01*
X122394817Y-114765643D01*
X122234357Y-114605183D01*
X122045677Y-114479111D01*
X121867458Y-114405291D01*
X121962783Y-114365806D01*
X122122801Y-114258885D01*
X122258885Y-114122801D01*
X122365806Y-113962783D01*
X122439454Y-113784980D01*
X122477000Y-113596226D01*
X122477000Y-113403774D01*
X122472119Y-113379236D01*
X123904778Y-111946579D01*
X123927737Y-111927737D01*
X123946580Y-111904777D01*
X123946584Y-111904773D01*
X123997044Y-111843287D01*
X123998779Y-111841173D01*
X124090719Y-111765719D01*
X124168671Y-111670735D01*
X124226594Y-111562369D01*
X124262263Y-111444784D01*
X124274307Y-111322500D01*
X124274307Y-110977500D01*
X124262263Y-110855216D01*
X124226594Y-110737631D01*
X124168671Y-110629265D01*
X124102000Y-110548027D01*
X124102000Y-110452000D01*
X124371446Y-110452000D01*
X124401002Y-110454911D01*
X124430558Y-110452000D01*
X124430568Y-110452000D01*
X124519014Y-110443289D01*
X124632492Y-110408866D01*
X124737073Y-110352966D01*
X124753886Y-110339168D01*
X124776938Y-110455058D01*
G37*
G04 #@! TD.AperFunction*
D31*
X119627000Y-115373000D02*
X119647000Y-115373000D01*
X119647000Y-115627000D01*
X119627000Y-115627000D01*
X119627000Y-115647000D01*
X119373000Y-115647000D01*
X119373000Y-115627000D01*
X119353000Y-115627000D01*
X119353000Y-115373000D01*
X119373000Y-115373000D01*
X119373000Y-115353000D01*
X119627000Y-115353000D01*
X119627000Y-115373000D01*
G04 #@! TA.AperFunction,Conductor*
D32*
G36*
X119627000Y-115373000D02*
G01*
X119647000Y-115373000D01*
X119647000Y-115627000D01*
X119627000Y-115627000D01*
X119627000Y-115647000D01*
X119373000Y-115647000D01*
X119373000Y-115627000D01*
X119353000Y-115627000D01*
X119353000Y-115373000D01*
X119373000Y-115373000D01*
X119373000Y-115353000D01*
X119627000Y-115353000D01*
X119627000Y-115373000D01*
G37*
G04 #@! TD.AperFunction*
D31*
X109817659Y-115013064D02*
X109837500Y-115019083D01*
X109837500Y-115264500D01*
X109816807Y-115264500D01*
X109816807Y-115012609D01*
X109817659Y-115013064D01*
G04 #@! TA.AperFunction,Conductor*
D32*
G36*
X109817659Y-115013064D02*
G01*
X109837500Y-115019083D01*
X109837500Y-115264500D01*
X109816807Y-115264500D01*
X109816807Y-115012609D01*
X109817659Y-115013064D01*
G37*
G04 #@! TD.AperFunction*
D31*
X106108193Y-115264500D02*
X106087500Y-115264500D01*
X106087500Y-115019083D01*
X106107341Y-115013064D01*
X106108193Y-115012609D01*
X106108193Y-115264500D01*
G04 #@! TA.AperFunction,Conductor*
D32*
G36*
X106108193Y-115264500D02*
G01*
X106087500Y-115264500D01*
X106087500Y-115019083D01*
X106107341Y-115013064D01*
X106108193Y-115012609D01*
X106108193Y-115264500D01*
G37*
G04 #@! TD.AperFunction*
D31*
X121755693Y-109677500D02*
X121755693Y-110022500D01*
X121767093Y-110138242D01*
X121736825Y-110125705D01*
X121596370Y-110097767D01*
X121453164Y-110097767D01*
X121312709Y-110125705D01*
X121180403Y-110180508D01*
X121061331Y-110260069D01*
X120960069Y-110361331D01*
X120880508Y-110480403D01*
X120825705Y-110612709D01*
X120797767Y-110753164D01*
X120797767Y-110896370D01*
X120825705Y-111036825D01*
X120880508Y-111169131D01*
X120960069Y-111288203D01*
X121061331Y-111389465D01*
X121180403Y-111469026D01*
X121312709Y-111523829D01*
X121453164Y-111551767D01*
X121461551Y-111551767D01*
X121487800Y-111573309D01*
X121539049Y-111615369D01*
X121586644Y-111640809D01*
X121635814Y-111667091D01*
X121740809Y-111698941D01*
X121822636Y-111707000D01*
X121822646Y-111707000D01*
X121850000Y-111709694D01*
X121877353Y-111707000D01*
X121891091Y-111707000D01*
X121939281Y-111765719D01*
X122034265Y-111843671D01*
X122142631Y-111901594D01*
X122222747Y-111925897D01*
X121620764Y-112527881D01*
X121596226Y-112523000D01*
X121403774Y-112523000D01*
X121215020Y-112560546D01*
X121037217Y-112634194D01*
X120993310Y-112663532D01*
X120972020Y-112641135D01*
X120790206Y-112512877D01*
X120586864Y-112422554D01*
X120531874Y-112405881D01*
X120357000Y-112532046D01*
X120357000Y-113373000D01*
X120377000Y-113373000D01*
X120377000Y-113627000D01*
X120357000Y-113627000D01*
X120357000Y-113647000D01*
X120103000Y-113647000D01*
X120103000Y-113627000D01*
X120083000Y-113627000D01*
X120083000Y-113373000D01*
X120103000Y-113373000D01*
X120103000Y-112532046D01*
X119928126Y-112405881D01*
X119873136Y-112422554D01*
X119669794Y-112512877D01*
X119487980Y-112641135D01*
X119466690Y-112663532D01*
X119422783Y-112634194D01*
X119244980Y-112560546D01*
X119056226Y-112523000D01*
X118863774Y-112523000D01*
X118675020Y-112560546D01*
X118497217Y-112634194D01*
X118496635Y-112634583D01*
X118456289Y-112601471D01*
X118373423Y-112557178D01*
X118283508Y-112529903D01*
X118190000Y-112520693D01*
X117190000Y-112520693D01*
X117096492Y-112529903D01*
X117006577Y-112557178D01*
X116923711Y-112601471D01*
X116857000Y-112656220D01*
X116857000Y-112048273D01*
X116867500Y-112049307D01*
X117162500Y-112049307D01*
X117284784Y-112037263D01*
X117402369Y-112001594D01*
X117500000Y-111949409D01*
X117597631Y-112001594D01*
X117715216Y-112037263D01*
X117837500Y-112049307D01*
X118132500Y-112049307D01*
X118254784Y-112037263D01*
X118372369Y-112001594D01*
X118480735Y-111943671D01*
X118575719Y-111865719D01*
X118623909Y-111807000D01*
X118786395Y-111807000D01*
X118887942Y-111849062D01*
X119028397Y-111877000D01*
X119171603Y-111877000D01*
X119312058Y-111849062D01*
X119444364Y-111794259D01*
X119563436Y-111714698D01*
X119664698Y-111613436D01*
X119744259Y-111494364D01*
X119799062Y-111362058D01*
X119827000Y-111221603D01*
X119827000Y-111078397D01*
X119799062Y-110937942D01*
X119744259Y-110805636D01*
X119664698Y-110686564D01*
X119563436Y-110585302D01*
X119476180Y-110527000D01*
X119571603Y-110527000D01*
X119712058Y-110499062D01*
X119844364Y-110444259D01*
X119963436Y-110364698D01*
X120064698Y-110263436D01*
X120144259Y-110144364D01*
X120199062Y-110012058D01*
X120219959Y-109907000D01*
X120628866Y-109907000D01*
X120636564Y-109914698D01*
X120755636Y-109994259D01*
X120887942Y-110049062D01*
X121028397Y-110077000D01*
X121171603Y-110077000D01*
X121312058Y-110049062D01*
X121444364Y-109994259D01*
X121563436Y-109914698D01*
X121664698Y-109813436D01*
X121744259Y-109694364D01*
X121757081Y-109663409D01*
X121755693Y-109677500D01*
G04 #@! TA.AperFunction,Conductor*
D32*
G36*
X121755693Y-109677500D02*
G01*
X121755693Y-110022500D01*
X121767093Y-110138242D01*
X121736825Y-110125705D01*
X121596370Y-110097767D01*
X121453164Y-110097767D01*
X121312709Y-110125705D01*
X121180403Y-110180508D01*
X121061331Y-110260069D01*
X120960069Y-110361331D01*
X120880508Y-110480403D01*
X120825705Y-110612709D01*
X120797767Y-110753164D01*
X120797767Y-110896370D01*
X120825705Y-111036825D01*
X120880508Y-111169131D01*
X120960069Y-111288203D01*
X121061331Y-111389465D01*
X121180403Y-111469026D01*
X121312709Y-111523829D01*
X121453164Y-111551767D01*
X121461551Y-111551767D01*
X121487800Y-111573309D01*
X121539049Y-111615369D01*
X121586644Y-111640809D01*
X121635814Y-111667091D01*
X121740809Y-111698941D01*
X121822636Y-111707000D01*
X121822646Y-111707000D01*
X121850000Y-111709694D01*
X121877353Y-111707000D01*
X121891091Y-111707000D01*
X121939281Y-111765719D01*
X122034265Y-111843671D01*
X122142631Y-111901594D01*
X122222747Y-111925897D01*
X121620764Y-112527881D01*
X121596226Y-112523000D01*
X121403774Y-112523000D01*
X121215020Y-112560546D01*
X121037217Y-112634194D01*
X120993310Y-112663532D01*
X120972020Y-112641135D01*
X120790206Y-112512877D01*
X120586864Y-112422554D01*
X120531874Y-112405881D01*
X120357000Y-112532046D01*
X120357000Y-113373000D01*
X120377000Y-113373000D01*
X120377000Y-113627000D01*
X120357000Y-113627000D01*
X120357000Y-113647000D01*
X120103000Y-113647000D01*
X120103000Y-113627000D01*
X120083000Y-113627000D01*
X120083000Y-113373000D01*
X120103000Y-113373000D01*
X120103000Y-112532046D01*
X119928126Y-112405881D01*
X119873136Y-112422554D01*
X119669794Y-112512877D01*
X119487980Y-112641135D01*
X119466690Y-112663532D01*
X119422783Y-112634194D01*
X119244980Y-112560546D01*
X119056226Y-112523000D01*
X118863774Y-112523000D01*
X118675020Y-112560546D01*
X118497217Y-112634194D01*
X118496635Y-112634583D01*
X118456289Y-112601471D01*
X118373423Y-112557178D01*
X118283508Y-112529903D01*
X118190000Y-112520693D01*
X117190000Y-112520693D01*
X117096492Y-112529903D01*
X117006577Y-112557178D01*
X116923711Y-112601471D01*
X116857000Y-112656220D01*
X116857000Y-112048273D01*
X116867500Y-112049307D01*
X117162500Y-112049307D01*
X117284784Y-112037263D01*
X117402369Y-112001594D01*
X117500000Y-111949409D01*
X117597631Y-112001594D01*
X117715216Y-112037263D01*
X117837500Y-112049307D01*
X118132500Y-112049307D01*
X118254784Y-112037263D01*
X118372369Y-112001594D01*
X118480735Y-111943671D01*
X118575719Y-111865719D01*
X118623909Y-111807000D01*
X118786395Y-111807000D01*
X118887942Y-111849062D01*
X119028397Y-111877000D01*
X119171603Y-111877000D01*
X119312058Y-111849062D01*
X119444364Y-111794259D01*
X119563436Y-111714698D01*
X119664698Y-111613436D01*
X119744259Y-111494364D01*
X119799062Y-111362058D01*
X119827000Y-111221603D01*
X119827000Y-111078397D01*
X119799062Y-110937942D01*
X119744259Y-110805636D01*
X119664698Y-110686564D01*
X119563436Y-110585302D01*
X119476180Y-110527000D01*
X119571603Y-110527000D01*
X119712058Y-110499062D01*
X119844364Y-110444259D01*
X119963436Y-110364698D01*
X120064698Y-110263436D01*
X120144259Y-110144364D01*
X120199062Y-110012058D01*
X120219959Y-109907000D01*
X120628866Y-109907000D01*
X120636564Y-109914698D01*
X120755636Y-109994259D01*
X120887942Y-110049062D01*
X121028397Y-110077000D01*
X121171603Y-110077000D01*
X121312058Y-110049062D01*
X121444364Y-109994259D01*
X121563436Y-109914698D01*
X121664698Y-109813436D01*
X121744259Y-109694364D01*
X121757081Y-109663409D01*
X121755693Y-109677500D01*
G37*
G04 #@! TD.AperFunction*
D31*
X108089500Y-112573000D02*
X108109500Y-112573000D01*
X108109500Y-112827000D01*
X108089500Y-112827000D01*
X108089500Y-112847000D01*
X107835500Y-112847000D01*
X107835500Y-112827000D01*
X107815500Y-112827000D01*
X107815500Y-112573000D01*
X107835500Y-112573000D01*
X107835500Y-112553000D01*
X108089500Y-112553000D01*
X108089500Y-112573000D01*
G04 #@! TA.AperFunction,Conductor*
D32*
G36*
X108089500Y-112573000D02*
G01*
X108109500Y-112573000D01*
X108109500Y-112827000D01*
X108089500Y-112827000D01*
X108089500Y-112847000D01*
X107835500Y-112847000D01*
X107835500Y-112827000D01*
X107815500Y-112827000D01*
X107815500Y-112573000D01*
X107835500Y-112573000D01*
X107835500Y-112553000D01*
X108089500Y-112553000D01*
X108089500Y-112573000D01*
G37*
G04 #@! TD.AperFunction*
D31*
X142389614Y-107177330D02*
X142348000Y-107386538D01*
X142348000Y-107613462D01*
X142392271Y-107836026D01*
X142479111Y-108045677D01*
X142605183Y-108234357D01*
X142765643Y-108394817D01*
X142954323Y-108520889D01*
X143163974Y-108607729D01*
X143386538Y-108652000D01*
X143613462Y-108652000D01*
X143836026Y-108607729D01*
X144045677Y-108520889D01*
X144234357Y-108394817D01*
X144394817Y-108234357D01*
X144448001Y-108154762D01*
X144448000Y-110831339D01*
X144285913Y-110669252D01*
X144068570Y-110524028D01*
X143827072Y-110423996D01*
X143570698Y-110373000D01*
X143309302Y-110373000D01*
X143052928Y-110423996D01*
X142811430Y-110524028D01*
X142594087Y-110669252D01*
X142409252Y-110854087D01*
X142264028Y-111071430D01*
X142229307Y-111155254D01*
X142229307Y-110850000D01*
X142220097Y-110756492D01*
X142192822Y-110666577D01*
X142148529Y-110583711D01*
X142088921Y-110511079D01*
X142016289Y-110451471D01*
X141933423Y-110407178D01*
X141843508Y-110379903D01*
X141750000Y-110370693D01*
X140050000Y-110370693D01*
X139956492Y-110379903D01*
X139866577Y-110407178D01*
X139783711Y-110451471D01*
X139711079Y-110511079D01*
X139651471Y-110583711D01*
X139607178Y-110666577D01*
X139579903Y-110756492D01*
X139570693Y-110850000D01*
X139570693Y-111013270D01*
X139332000Y-110774578D01*
X139332000Y-110692608D01*
X139386404Y-110590825D01*
X139422215Y-110472772D01*
X139434307Y-110350000D01*
X139434307Y-108700000D01*
X139422215Y-108577228D01*
X139386404Y-108459175D01*
X139357002Y-108404167D01*
X139357002Y-108286252D01*
X139515750Y-108445000D01*
X139637348Y-108435235D01*
X139756878Y-108398377D01*
X139866921Y-108338908D01*
X139963247Y-108259113D01*
X140042156Y-108162059D01*
X140048657Y-108149761D01*
X140105183Y-108234357D01*
X140265643Y-108394817D01*
X140454323Y-108520889D01*
X140663974Y-108607729D01*
X140886538Y-108652000D01*
X141113462Y-108652000D01*
X141336026Y-108607729D01*
X141545677Y-108520889D01*
X141734357Y-108394817D01*
X141894817Y-108234357D01*
X142020889Y-108045677D01*
X142107729Y-107836026D01*
X142152000Y-107613462D01*
X142152000Y-107386538D01*
X142107729Y-107163974D01*
X142082058Y-107101999D01*
X142314283Y-107101999D01*
X142389614Y-107177330D01*
G04 #@! TA.AperFunction,Conductor*
D32*
G36*
X142389614Y-107177330D02*
G01*
X142348000Y-107386538D01*
X142348000Y-107613462D01*
X142392271Y-107836026D01*
X142479111Y-108045677D01*
X142605183Y-108234357D01*
X142765643Y-108394817D01*
X142954323Y-108520889D01*
X143163974Y-108607729D01*
X143386538Y-108652000D01*
X143613462Y-108652000D01*
X143836026Y-108607729D01*
X144045677Y-108520889D01*
X144234357Y-108394817D01*
X144394817Y-108234357D01*
X144448001Y-108154762D01*
X144448000Y-110831339D01*
X144285913Y-110669252D01*
X144068570Y-110524028D01*
X143827072Y-110423996D01*
X143570698Y-110373000D01*
X143309302Y-110373000D01*
X143052928Y-110423996D01*
X142811430Y-110524028D01*
X142594087Y-110669252D01*
X142409252Y-110854087D01*
X142264028Y-111071430D01*
X142229307Y-111155254D01*
X142229307Y-110850000D01*
X142220097Y-110756492D01*
X142192822Y-110666577D01*
X142148529Y-110583711D01*
X142088921Y-110511079D01*
X142016289Y-110451471D01*
X141933423Y-110407178D01*
X141843508Y-110379903D01*
X141750000Y-110370693D01*
X140050000Y-110370693D01*
X139956492Y-110379903D01*
X139866577Y-110407178D01*
X139783711Y-110451471D01*
X139711079Y-110511079D01*
X139651471Y-110583711D01*
X139607178Y-110666577D01*
X139579903Y-110756492D01*
X139570693Y-110850000D01*
X139570693Y-111013270D01*
X139332000Y-110774578D01*
X139332000Y-110692608D01*
X139386404Y-110590825D01*
X139422215Y-110472772D01*
X139434307Y-110350000D01*
X139434307Y-108700000D01*
X139422215Y-108577228D01*
X139386404Y-108459175D01*
X139357002Y-108404167D01*
X139357002Y-108286252D01*
X139515750Y-108445000D01*
X139637348Y-108435235D01*
X139756878Y-108398377D01*
X139866921Y-108338908D01*
X139963247Y-108259113D01*
X140042156Y-108162059D01*
X140048657Y-108149761D01*
X140105183Y-108234357D01*
X140265643Y-108394817D01*
X140454323Y-108520889D01*
X140663974Y-108607729D01*
X140886538Y-108652000D01*
X141113462Y-108652000D01*
X141336026Y-108607729D01*
X141545677Y-108520889D01*
X141734357Y-108394817D01*
X141894817Y-108234357D01*
X142020889Y-108045677D01*
X142107729Y-107836026D01*
X142152000Y-107613462D01*
X142152000Y-107386538D01*
X142107729Y-107163974D01*
X142082058Y-107101999D01*
X142314283Y-107101999D01*
X142389614Y-107177330D01*
G37*
G04 #@! TD.AperFunction*
D31*
X112300938Y-102587942D02*
X112273000Y-102728397D01*
X112273000Y-102871603D01*
X112300938Y-103012058D01*
X112355741Y-103144364D01*
X112435302Y-103263436D01*
X112443000Y-103271134D01*
X112443000Y-103522647D01*
X112440306Y-103550000D01*
X112443000Y-103577353D01*
X112443000Y-103577363D01*
X112451059Y-103659190D01*
X112482909Y-103764185D01*
X112534631Y-103860950D01*
X112604236Y-103945764D01*
X112625494Y-103963210D01*
X114079882Y-105417599D01*
X114029179Y-105422593D01*
X113913001Y-105457835D01*
X113805931Y-105515065D01*
X113712084Y-105592084D01*
X113635065Y-105685931D01*
X113577835Y-105793001D01*
X113542593Y-105909179D01*
X113530693Y-106030000D01*
X113530693Y-106106741D01*
X113444180Y-106060498D01*
X113324482Y-106024188D01*
X113200000Y-106011928D01*
X112985750Y-106015000D01*
X112827000Y-106173750D01*
X112827000Y-107123000D01*
X112847000Y-107123000D01*
X112847000Y-107377000D01*
X112827000Y-107377000D01*
X112827000Y-107397000D01*
X112573000Y-107397000D01*
X112573000Y-107377000D01*
X112553000Y-107377000D01*
X112553000Y-107123000D01*
X112573000Y-107123000D01*
X112573000Y-106173750D01*
X112414250Y-106015000D01*
X112200000Y-106011928D01*
X112075518Y-106024188D01*
X111955820Y-106060498D01*
X111845506Y-106119463D01*
X111748815Y-106198815D01*
X111669463Y-106295506D01*
X111610498Y-106405820D01*
X111610443Y-106406001D01*
X111598529Y-106383711D01*
X111538921Y-106311079D01*
X111466289Y-106251471D01*
X111383423Y-106207178D01*
X111293508Y-106179903D01*
X111200000Y-106170693D01*
X110417235Y-106170693D01*
X110427000Y-106121603D01*
X110427000Y-105978397D01*
X110399062Y-105837942D01*
X110344259Y-105705636D01*
X110264698Y-105586564D01*
X110163436Y-105485302D01*
X110044364Y-105405741D01*
X109912058Y-105350938D01*
X109771603Y-105323000D01*
X109628397Y-105323000D01*
X109487942Y-105350938D01*
X109355636Y-105405741D01*
X109236564Y-105485302D01*
X109172951Y-105548915D01*
X109164698Y-105536564D01*
X109063436Y-105435302D01*
X108944364Y-105355741D01*
X108812058Y-105300938D01*
X108671603Y-105273000D01*
X108528397Y-105273000D01*
X108387942Y-105300938D01*
X108255636Y-105355741D01*
X108136564Y-105435302D01*
X108035302Y-105536564D01*
X107955741Y-105655636D01*
X107900938Y-105787942D01*
X107873000Y-105928397D01*
X107873000Y-106071603D01*
X107900938Y-106212058D01*
X107921436Y-106261545D01*
X107861079Y-106311079D01*
X107801471Y-106383711D01*
X107757178Y-106466577D01*
X107729903Y-106556492D01*
X107720693Y-106650000D01*
X107720693Y-107850000D01*
X107729903Y-107943508D01*
X107757178Y-108033423D01*
X107801471Y-108116289D01*
X107861079Y-108188921D01*
X107933711Y-108248529D01*
X108016577Y-108292822D01*
X108106492Y-108320097D01*
X108200000Y-108329307D01*
X108654007Y-108329307D01*
X108652806Y-108341502D01*
X108655501Y-108368865D01*
X108655501Y-109275317D01*
X108594791Y-109241102D01*
X108475935Y-109202126D01*
X108371250Y-109190000D01*
X108212500Y-109348750D01*
X108053750Y-109190000D01*
X107949065Y-109202126D01*
X107830209Y-109241102D01*
X107721240Y-109302516D01*
X107670963Y-109345693D01*
X107650000Y-109345693D01*
X107544299Y-109356104D01*
X107462500Y-109380917D01*
X107380701Y-109356104D01*
X107275000Y-109345693D01*
X107150000Y-109345693D01*
X107044299Y-109356104D01*
X106962500Y-109380917D01*
X106880701Y-109356104D01*
X106775000Y-109345693D01*
X106650000Y-109345693D01*
X106544299Y-109356104D01*
X106462500Y-109380917D01*
X106380701Y-109356104D01*
X106275000Y-109345693D01*
X106150000Y-109345693D01*
X106044299Y-109356104D01*
X105942659Y-109386936D01*
X105848988Y-109437004D01*
X105766885Y-109504385D01*
X105699504Y-109586488D01*
X105649436Y-109680159D01*
X105618604Y-109781799D01*
X105608193Y-109887500D01*
X105608193Y-110345693D01*
X105150000Y-110345693D01*
X105095610Y-110351050D01*
X105147141Y-110226643D01*
X105177000Y-110076528D01*
X105177000Y-109923472D01*
X105147141Y-109773357D01*
X105088569Y-109631952D01*
X105003536Y-109504691D01*
X104895309Y-109396464D01*
X104768048Y-109311431D01*
X104626643Y-109252859D01*
X104476528Y-109223000D01*
X104323472Y-109223000D01*
X104299848Y-109227699D01*
X104287140Y-109098674D01*
X104228415Y-108905083D01*
X104133051Y-108726669D01*
X104004712Y-108570288D01*
X103848331Y-108441949D01*
X103669917Y-108346585D01*
X103476327Y-108287860D01*
X103275000Y-108268031D01*
X103073674Y-108287860D01*
X102880084Y-108346585D01*
X102701670Y-108441949D01*
X102545289Y-108570288D01*
X102416950Y-108726669D01*
X102321586Y-108905083D01*
X102262860Y-109098673D01*
X102248000Y-109249549D01*
X102248000Y-110050450D01*
X102262860Y-110201326D01*
X102321585Y-110394916D01*
X102348726Y-110445693D01*
X102275000Y-110445693D01*
X102181492Y-110454903D01*
X102091577Y-110482178D01*
X102008711Y-110526471D01*
X101936079Y-110586079D01*
X101876471Y-110658711D01*
X101832178Y-110741577D01*
X101804903Y-110831492D01*
X101795693Y-110925000D01*
X101795693Y-111121852D01*
X101698331Y-111041949D01*
X101519917Y-110946585D01*
X101326327Y-110887860D01*
X101125000Y-110868031D01*
X100923674Y-110887860D01*
X100730084Y-110946585D01*
X100552000Y-111041773D01*
X100552000Y-106794679D01*
X100624028Y-106968570D01*
X100769252Y-107185913D01*
X100954087Y-107370748D01*
X101171430Y-107515972D01*
X101412928Y-107616004D01*
X101669302Y-107667000D01*
X101930698Y-107667000D01*
X102187072Y-107616004D01*
X102428570Y-107515972D01*
X102645913Y-107370748D01*
X102830748Y-107185913D01*
X102975972Y-106968570D01*
X103076004Y-106727072D01*
X103127000Y-106470698D01*
X103127000Y-106209302D01*
X103076004Y-105952928D01*
X102975972Y-105711430D01*
X102830748Y-105494087D01*
X102645913Y-105309252D01*
X102613921Y-105287876D01*
X102650000Y-105288072D01*
X102774482Y-105275812D01*
X102894180Y-105239502D01*
X103004494Y-105180537D01*
X103101185Y-105101185D01*
X103152713Y-105038397D01*
X103673000Y-105038397D01*
X103673000Y-105181603D01*
X103700938Y-105322058D01*
X103755741Y-105454364D01*
X103835302Y-105573436D01*
X103843000Y-105581134D01*
X103843000Y-105822647D01*
X103840306Y-105850000D01*
X103843000Y-105877353D01*
X103843000Y-105877363D01*
X103851059Y-105959190D01*
X103882909Y-106064185D01*
X103934631Y-106160950D01*
X103985988Y-106223528D01*
X103933711Y-106251471D01*
X103861079Y-106311079D01*
X103801471Y-106383711D01*
X103757178Y-106466577D01*
X103729903Y-106556492D01*
X103720693Y-106650000D01*
X103720693Y-107850000D01*
X103729903Y-107943508D01*
X103757178Y-108033423D01*
X103801471Y-108116289D01*
X103861079Y-108188921D01*
X103933711Y-108248529D01*
X104016577Y-108292822D01*
X104106492Y-108320097D01*
X104200000Y-108329307D01*
X105200000Y-108329307D01*
X105293508Y-108320097D01*
X105383423Y-108292822D01*
X105466289Y-108248529D01*
X105538921Y-108188921D01*
X105598529Y-108116289D01*
X105642822Y-108033423D01*
X105670097Y-107943508D01*
X105679307Y-107850000D01*
X105679307Y-106650000D01*
X105670097Y-106556492D01*
X105642822Y-106466577D01*
X105598529Y-106383711D01*
X105538921Y-106311079D01*
X105466289Y-106251471D01*
X105383423Y-106207178D01*
X105293508Y-106179903D01*
X105257102Y-106176317D01*
X105259694Y-106149999D01*
X105257000Y-106122646D01*
X105257000Y-106122636D01*
X105248941Y-106040809D01*
X105217091Y-105935814D01*
X105165369Y-105839050D01*
X105095764Y-105754236D01*
X105074506Y-105736790D01*
X104957000Y-105619284D01*
X104957000Y-105581134D01*
X104964698Y-105573436D01*
X105044259Y-105454364D01*
X105099062Y-105322058D01*
X105127000Y-105181603D01*
X105127000Y-105038397D01*
X105120014Y-105003275D01*
X105150658Y-105077257D01*
X105249371Y-105224991D01*
X105375009Y-105350629D01*
X105522743Y-105449342D01*
X105686896Y-105517336D01*
X105861161Y-105552000D01*
X106038839Y-105552000D01*
X106213104Y-105517336D01*
X106377257Y-105449342D01*
X106524991Y-105350629D01*
X106650629Y-105224991D01*
X106749342Y-105077257D01*
X106817336Y-104913104D01*
X106852000Y-104738839D01*
X106852000Y-104561161D01*
X110548000Y-104561161D01*
X110548000Y-104738839D01*
X110582664Y-104913104D01*
X110650658Y-105077257D01*
X110749371Y-105224991D01*
X110875009Y-105350629D01*
X111022743Y-105449342D01*
X111186896Y-105517336D01*
X111361161Y-105552000D01*
X111538839Y-105552000D01*
X111713104Y-105517336D01*
X111877257Y-105449342D01*
X112024991Y-105350629D01*
X112150629Y-105224991D01*
X112249342Y-105077257D01*
X112317336Y-104913104D01*
X112352000Y-104738839D01*
X112352000Y-104561161D01*
X112317336Y-104386896D01*
X112249342Y-104222743D01*
X112150629Y-104075009D01*
X112024991Y-103949371D01*
X111877257Y-103850658D01*
X111713104Y-103782664D01*
X111538839Y-103748000D01*
X111361161Y-103748000D01*
X111186896Y-103782664D01*
X111022743Y-103850658D01*
X110875009Y-103949371D01*
X110749371Y-104075009D01*
X110650658Y-104222743D01*
X110582664Y-104386896D01*
X110548000Y-104561161D01*
X106852000Y-104561161D01*
X106817336Y-104386896D01*
X106749342Y-104222743D01*
X106650629Y-104075009D01*
X106524991Y-103949371D01*
X106377257Y-103850658D01*
X106213104Y-103782664D01*
X106038839Y-103748000D01*
X105861161Y-103748000D01*
X105686896Y-103782664D01*
X105522743Y-103850658D01*
X105375009Y-103949371D01*
X105249371Y-104075009D01*
X105150658Y-104222743D01*
X105082664Y-104386896D01*
X105048000Y-104561161D01*
X105048000Y-104738839D01*
X105061711Y-104807770D01*
X105044259Y-104765636D01*
X104964698Y-104646564D01*
X104863436Y-104545302D01*
X104744364Y-104465741D01*
X104612058Y-104410938D01*
X104471603Y-104383000D01*
X104328397Y-104383000D01*
X104187942Y-104410938D01*
X104055636Y-104465741D01*
X103936564Y-104545302D01*
X103835302Y-104646564D01*
X103755741Y-104765636D01*
X103700938Y-104897942D01*
X103673000Y-105038397D01*
X103152713Y-105038397D01*
X103180537Y-105004494D01*
X103239502Y-104894180D01*
X103275812Y-104774482D01*
X103288072Y-104650000D01*
X103285000Y-104085750D01*
X103126250Y-103927000D01*
X101927000Y-103927000D01*
X101927000Y-103947000D01*
X101673000Y-103947000D01*
X101673000Y-103927000D01*
X101653000Y-103927000D01*
X101653000Y-103673000D01*
X101673000Y-103673000D01*
X101673000Y-103653000D01*
X101927000Y-103653000D01*
X101927000Y-103673000D01*
X103126250Y-103673000D01*
X103285000Y-103514250D01*
X103288072Y-102950000D01*
X103275812Y-102825518D01*
X103239502Y-102705820D01*
X103180537Y-102595506D01*
X103144833Y-102552000D01*
X112315826Y-102552000D01*
X112300938Y-102587942D01*
G04 #@! TA.AperFunction,Conductor*
D32*
G36*
X112300938Y-102587942D02*
G01*
X112273000Y-102728397D01*
X112273000Y-102871603D01*
X112300938Y-103012058D01*
X112355741Y-103144364D01*
X112435302Y-103263436D01*
X112443000Y-103271134D01*
X112443000Y-103522647D01*
X112440306Y-103550000D01*
X112443000Y-103577353D01*
X112443000Y-103577363D01*
X112451059Y-103659190D01*
X112482909Y-103764185D01*
X112534631Y-103860950D01*
X112604236Y-103945764D01*
X112625494Y-103963210D01*
X114079882Y-105417599D01*
X114029179Y-105422593D01*
X113913001Y-105457835D01*
X113805931Y-105515065D01*
X113712084Y-105592084D01*
X113635065Y-105685931D01*
X113577835Y-105793001D01*
X113542593Y-105909179D01*
X113530693Y-106030000D01*
X113530693Y-106106741D01*
X113444180Y-106060498D01*
X113324482Y-106024188D01*
X113200000Y-106011928D01*
X112985750Y-106015000D01*
X112827000Y-106173750D01*
X112827000Y-107123000D01*
X112847000Y-107123000D01*
X112847000Y-107377000D01*
X112827000Y-107377000D01*
X112827000Y-107397000D01*
X112573000Y-107397000D01*
X112573000Y-107377000D01*
X112553000Y-107377000D01*
X112553000Y-107123000D01*
X112573000Y-107123000D01*
X112573000Y-106173750D01*
X112414250Y-106015000D01*
X112200000Y-106011928D01*
X112075518Y-106024188D01*
X111955820Y-106060498D01*
X111845506Y-106119463D01*
X111748815Y-106198815D01*
X111669463Y-106295506D01*
X111610498Y-106405820D01*
X111610443Y-106406001D01*
X111598529Y-106383711D01*
X111538921Y-106311079D01*
X111466289Y-106251471D01*
X111383423Y-106207178D01*
X111293508Y-106179903D01*
X111200000Y-106170693D01*
X110417235Y-106170693D01*
X110427000Y-106121603D01*
X110427000Y-105978397D01*
X110399062Y-105837942D01*
X110344259Y-105705636D01*
X110264698Y-105586564D01*
X110163436Y-105485302D01*
X110044364Y-105405741D01*
X109912058Y-105350938D01*
X109771603Y-105323000D01*
X109628397Y-105323000D01*
X109487942Y-105350938D01*
X109355636Y-105405741D01*
X109236564Y-105485302D01*
X109172951Y-105548915D01*
X109164698Y-105536564D01*
X109063436Y-105435302D01*
X108944364Y-105355741D01*
X108812058Y-105300938D01*
X108671603Y-105273000D01*
X108528397Y-105273000D01*
X108387942Y-105300938D01*
X108255636Y-105355741D01*
X108136564Y-105435302D01*
X108035302Y-105536564D01*
X107955741Y-105655636D01*
X107900938Y-105787942D01*
X107873000Y-105928397D01*
X107873000Y-106071603D01*
X107900938Y-106212058D01*
X107921436Y-106261545D01*
X107861079Y-106311079D01*
X107801471Y-106383711D01*
X107757178Y-106466577D01*
X107729903Y-106556492D01*
X107720693Y-106650000D01*
X107720693Y-107850000D01*
X107729903Y-107943508D01*
X107757178Y-108033423D01*
X107801471Y-108116289D01*
X107861079Y-108188921D01*
X107933711Y-108248529D01*
X108016577Y-108292822D01*
X108106492Y-108320097D01*
X108200000Y-108329307D01*
X108654007Y-108329307D01*
X108652806Y-108341502D01*
X108655501Y-108368865D01*
X108655501Y-109275317D01*
X108594791Y-109241102D01*
X108475935Y-109202126D01*
X108371250Y-109190000D01*
X108212500Y-109348750D01*
X108053750Y-109190000D01*
X107949065Y-109202126D01*
X107830209Y-109241102D01*
X107721240Y-109302516D01*
X107670963Y-109345693D01*
X107650000Y-109345693D01*
X107544299Y-109356104D01*
X107462500Y-109380917D01*
X107380701Y-109356104D01*
X107275000Y-109345693D01*
X107150000Y-109345693D01*
X107044299Y-109356104D01*
X106962500Y-109380917D01*
X106880701Y-109356104D01*
X106775000Y-109345693D01*
X106650000Y-109345693D01*
X106544299Y-109356104D01*
X106462500Y-109380917D01*
X106380701Y-109356104D01*
X106275000Y-109345693D01*
X106150000Y-109345693D01*
X106044299Y-109356104D01*
X105942659Y-109386936D01*
X105848988Y-109437004D01*
X105766885Y-109504385D01*
X105699504Y-109586488D01*
X105649436Y-109680159D01*
X105618604Y-109781799D01*
X105608193Y-109887500D01*
X105608193Y-110345693D01*
X105150000Y-110345693D01*
X105095610Y-110351050D01*
X105147141Y-110226643D01*
X105177000Y-110076528D01*
X105177000Y-109923472D01*
X105147141Y-109773357D01*
X105088569Y-109631952D01*
X105003536Y-109504691D01*
X104895309Y-109396464D01*
X104768048Y-109311431D01*
X104626643Y-109252859D01*
X104476528Y-109223000D01*
X104323472Y-109223000D01*
X104299848Y-109227699D01*
X104287140Y-109098674D01*
X104228415Y-108905083D01*
X104133051Y-108726669D01*
X104004712Y-108570288D01*
X103848331Y-108441949D01*
X103669917Y-108346585D01*
X103476327Y-108287860D01*
X103275000Y-108268031D01*
X103073674Y-108287860D01*
X102880084Y-108346585D01*
X102701670Y-108441949D01*
X102545289Y-108570288D01*
X102416950Y-108726669D01*
X102321586Y-108905083D01*
X102262860Y-109098673D01*
X102248000Y-109249549D01*
X102248000Y-110050450D01*
X102262860Y-110201326D01*
X102321585Y-110394916D01*
X102348726Y-110445693D01*
X102275000Y-110445693D01*
X102181492Y-110454903D01*
X102091577Y-110482178D01*
X102008711Y-110526471D01*
X101936079Y-110586079D01*
X101876471Y-110658711D01*
X101832178Y-110741577D01*
X101804903Y-110831492D01*
X101795693Y-110925000D01*
X101795693Y-111121852D01*
X101698331Y-111041949D01*
X101519917Y-110946585D01*
X101326327Y-110887860D01*
X101125000Y-110868031D01*
X100923674Y-110887860D01*
X100730084Y-110946585D01*
X100552000Y-111041773D01*
X100552000Y-106794679D01*
X100624028Y-106968570D01*
X100769252Y-107185913D01*
X100954087Y-107370748D01*
X101171430Y-107515972D01*
X101412928Y-107616004D01*
X101669302Y-107667000D01*
X101930698Y-107667000D01*
X102187072Y-107616004D01*
X102428570Y-107515972D01*
X102645913Y-107370748D01*
X102830748Y-107185913D01*
X102975972Y-106968570D01*
X103076004Y-106727072D01*
X103127000Y-106470698D01*
X103127000Y-106209302D01*
X103076004Y-105952928D01*
X102975972Y-105711430D01*
X102830748Y-105494087D01*
X102645913Y-105309252D01*
X102613921Y-105287876D01*
X102650000Y-105288072D01*
X102774482Y-105275812D01*
X102894180Y-105239502D01*
X103004494Y-105180537D01*
X103101185Y-105101185D01*
X103152713Y-105038397D01*
X103673000Y-105038397D01*
X103673000Y-105181603D01*
X103700938Y-105322058D01*
X103755741Y-105454364D01*
X103835302Y-105573436D01*
X103843000Y-105581134D01*
X103843000Y-105822647D01*
X103840306Y-105850000D01*
X103843000Y-105877353D01*
X103843000Y-105877363D01*
X103851059Y-105959190D01*
X103882909Y-106064185D01*
X103934631Y-106160950D01*
X103985988Y-106223528D01*
X103933711Y-106251471D01*
X103861079Y-106311079D01*
X103801471Y-106383711D01*
X103757178Y-106466577D01*
X103729903Y-106556492D01*
X103720693Y-106650000D01*
X103720693Y-107850000D01*
X103729903Y-107943508D01*
X103757178Y-108033423D01*
X103801471Y-108116289D01*
X103861079Y-108188921D01*
X103933711Y-108248529D01*
X104016577Y-108292822D01*
X104106492Y-108320097D01*
X104200000Y-108329307D01*
X105200000Y-108329307D01*
X105293508Y-108320097D01*
X105383423Y-108292822D01*
X105466289Y-108248529D01*
X105538921Y-108188921D01*
X105598529Y-108116289D01*
X105642822Y-108033423D01*
X105670097Y-107943508D01*
X105679307Y-107850000D01*
X105679307Y-106650000D01*
X105670097Y-106556492D01*
X105642822Y-106466577D01*
X105598529Y-106383711D01*
X105538921Y-106311079D01*
X105466289Y-106251471D01*
X105383423Y-106207178D01*
X105293508Y-106179903D01*
X105257102Y-106176317D01*
X105259694Y-106149999D01*
X105257000Y-106122646D01*
X105257000Y-106122636D01*
X105248941Y-106040809D01*
X105217091Y-105935814D01*
X105165369Y-105839050D01*
X105095764Y-105754236D01*
X105074506Y-105736790D01*
X104957000Y-105619284D01*
X104957000Y-105581134D01*
X104964698Y-105573436D01*
X105044259Y-105454364D01*
X105099062Y-105322058D01*
X105127000Y-105181603D01*
X105127000Y-105038397D01*
X105120014Y-105003275D01*
X105150658Y-105077257D01*
X105249371Y-105224991D01*
X105375009Y-105350629D01*
X105522743Y-105449342D01*
X105686896Y-105517336D01*
X105861161Y-105552000D01*
X106038839Y-105552000D01*
X106213104Y-105517336D01*
X106377257Y-105449342D01*
X106524991Y-105350629D01*
X106650629Y-105224991D01*
X106749342Y-105077257D01*
X106817336Y-104913104D01*
X106852000Y-104738839D01*
X106852000Y-104561161D01*
X110548000Y-104561161D01*
X110548000Y-104738839D01*
X110582664Y-104913104D01*
X110650658Y-105077257D01*
X110749371Y-105224991D01*
X110875009Y-105350629D01*
X111022743Y-105449342D01*
X111186896Y-105517336D01*
X111361161Y-105552000D01*
X111538839Y-105552000D01*
X111713104Y-105517336D01*
X111877257Y-105449342D01*
X112024991Y-105350629D01*
X112150629Y-105224991D01*
X112249342Y-105077257D01*
X112317336Y-104913104D01*
X112352000Y-104738839D01*
X112352000Y-104561161D01*
X112317336Y-104386896D01*
X112249342Y-104222743D01*
X112150629Y-104075009D01*
X112024991Y-103949371D01*
X111877257Y-103850658D01*
X111713104Y-103782664D01*
X111538839Y-103748000D01*
X111361161Y-103748000D01*
X111186896Y-103782664D01*
X111022743Y-103850658D01*
X110875009Y-103949371D01*
X110749371Y-104075009D01*
X110650658Y-104222743D01*
X110582664Y-104386896D01*
X110548000Y-104561161D01*
X106852000Y-104561161D01*
X106817336Y-104386896D01*
X106749342Y-104222743D01*
X106650629Y-104075009D01*
X106524991Y-103949371D01*
X106377257Y-103850658D01*
X106213104Y-103782664D01*
X106038839Y-103748000D01*
X105861161Y-103748000D01*
X105686896Y-103782664D01*
X105522743Y-103850658D01*
X105375009Y-103949371D01*
X105249371Y-104075009D01*
X105150658Y-104222743D01*
X105082664Y-104386896D01*
X105048000Y-104561161D01*
X105048000Y-104738839D01*
X105061711Y-104807770D01*
X105044259Y-104765636D01*
X104964698Y-104646564D01*
X104863436Y-104545302D01*
X104744364Y-104465741D01*
X104612058Y-104410938D01*
X104471603Y-104383000D01*
X104328397Y-104383000D01*
X104187942Y-104410938D01*
X104055636Y-104465741D01*
X103936564Y-104545302D01*
X103835302Y-104646564D01*
X103755741Y-104765636D01*
X103700938Y-104897942D01*
X103673000Y-105038397D01*
X103152713Y-105038397D01*
X103180537Y-105004494D01*
X103239502Y-104894180D01*
X103275812Y-104774482D01*
X103288072Y-104650000D01*
X103285000Y-104085750D01*
X103126250Y-103927000D01*
X101927000Y-103927000D01*
X101927000Y-103947000D01*
X101673000Y-103947000D01*
X101673000Y-103927000D01*
X101653000Y-103927000D01*
X101653000Y-103673000D01*
X101673000Y-103673000D01*
X101673000Y-103653000D01*
X101927000Y-103653000D01*
X101927000Y-103673000D01*
X103126250Y-103673000D01*
X103285000Y-103514250D01*
X103288072Y-102950000D01*
X103275812Y-102825518D01*
X103239502Y-102705820D01*
X103180537Y-102595506D01*
X103144833Y-102552000D01*
X112315826Y-102552000D01*
X112300938Y-102587942D01*
G37*
G04 #@! TD.AperFunction*
D31*
X116785000Y-105977002D02*
X116943748Y-105977002D01*
X116785000Y-106135750D01*
X116781928Y-106170000D01*
X116794188Y-106294482D01*
X116830498Y-106414180D01*
X116889463Y-106524494D01*
X116968815Y-106621185D01*
X117065506Y-106700537D01*
X117170693Y-106756762D01*
X117170693Y-107300000D01*
X117179903Y-107393508D01*
X117207178Y-107483423D01*
X117251471Y-107566289D01*
X117311079Y-107638921D01*
X117383711Y-107698529D01*
X117386463Y-107700000D01*
X117383711Y-107701471D01*
X117311079Y-107761079D01*
X117251471Y-107833711D01*
X117207178Y-107916577D01*
X117179903Y-108006492D01*
X117170693Y-108100000D01*
X117170693Y-108700000D01*
X117179903Y-108793508D01*
X117192612Y-108835404D01*
X117175820Y-108840498D01*
X117065506Y-108899463D01*
X116968815Y-108978815D01*
X116889463Y-109075506D01*
X116830498Y-109185820D01*
X116794188Y-109305518D01*
X116781928Y-109430000D01*
X116785000Y-109464250D01*
X116943750Y-109623000D01*
X117588000Y-109623000D01*
X117588000Y-109603000D01*
X117842000Y-109603000D01*
X117842000Y-109623000D01*
X117862000Y-109623000D01*
X117862000Y-109877000D01*
X117842000Y-109877000D01*
X117842000Y-109897000D01*
X117588000Y-109897000D01*
X117588000Y-109877000D01*
X116943750Y-109877000D01*
X116785000Y-110035750D01*
X116781928Y-110070000D01*
X116794188Y-110194482D01*
X116830498Y-110314180D01*
X116889463Y-110424494D01*
X116910964Y-110450693D01*
X116867500Y-110450693D01*
X116745216Y-110462737D01*
X116627631Y-110498406D01*
X116519265Y-110556329D01*
X116424281Y-110634281D01*
X116346329Y-110729265D01*
X116346039Y-110729807D01*
X116335814Y-110732909D01*
X116239050Y-110784631D01*
X116154236Y-110854236D01*
X116136790Y-110875494D01*
X115950463Y-111061821D01*
X115899851Y-111000149D01*
X115794070Y-110913337D01*
X115744500Y-110886841D01*
X115744500Y-110448694D01*
X115770735Y-110434671D01*
X115865719Y-110356719D01*
X115943671Y-110261735D01*
X116001594Y-110153369D01*
X116037263Y-110035784D01*
X116049307Y-109913500D01*
X116049307Y-109618500D01*
X116039583Y-109519767D01*
X116100537Y-109445494D01*
X116159502Y-109335180D01*
X116195812Y-109215482D01*
X116208072Y-109091000D01*
X116205000Y-109081750D01*
X116046250Y-108923000D01*
X115377000Y-108923000D01*
X115377000Y-108943000D01*
X115123000Y-108943000D01*
X115123000Y-108923000D01*
X115103000Y-108923000D01*
X115103000Y-108669000D01*
X115123000Y-108669000D01*
X115123000Y-108276180D01*
X115144259Y-108244364D01*
X115199062Y-108112058D01*
X115216428Y-108024750D01*
X115377000Y-108024750D01*
X115377000Y-108669000D01*
X116046250Y-108669000D01*
X116205000Y-108510250D01*
X116208072Y-108501000D01*
X116195812Y-108376518D01*
X116159502Y-108256820D01*
X116100537Y-108146506D01*
X116021185Y-108049815D01*
X115924494Y-107970463D01*
X115814180Y-107911498D01*
X115694482Y-107875188D01*
X115570000Y-107862928D01*
X115535750Y-107866000D01*
X115377000Y-108024750D01*
X115216428Y-108024750D01*
X115227000Y-107971603D01*
X115227000Y-107828397D01*
X115199062Y-107687942D01*
X115144259Y-107555636D01*
X115064698Y-107436564D01*
X115006133Y-107377999D01*
X115021140Y-107302556D01*
X115021140Y-107159350D01*
X114993202Y-107018895D01*
X114974126Y-106972841D01*
X114989179Y-106977407D01*
X115110000Y-106989307D01*
X115390000Y-106989307D01*
X115510821Y-106977407D01*
X115626999Y-106942165D01*
X115734069Y-106884935D01*
X115827916Y-106807916D01*
X115904935Y-106714069D01*
X115962165Y-106606999D01*
X115997407Y-106490821D01*
X116009307Y-106370000D01*
X116009307Y-106153312D01*
X116128397Y-106177000D01*
X116271603Y-106177000D01*
X116412058Y-106149062D01*
X116544364Y-106094259D01*
X116663436Y-106014698D01*
X116764698Y-105913436D01*
X116785000Y-105883052D01*
X116785000Y-105977002D01*
G04 #@! TA.AperFunction,Conductor*
D32*
G36*
X116785000Y-105977002D02*
G01*
X116943748Y-105977002D01*
X116785000Y-106135750D01*
X116781928Y-106170000D01*
X116794188Y-106294482D01*
X116830498Y-106414180D01*
X116889463Y-106524494D01*
X116968815Y-106621185D01*
X117065506Y-106700537D01*
X117170693Y-106756762D01*
X117170693Y-107300000D01*
X117179903Y-107393508D01*
X117207178Y-107483423D01*
X117251471Y-107566289D01*
X117311079Y-107638921D01*
X117383711Y-107698529D01*
X117386463Y-107700000D01*
X117383711Y-107701471D01*
X117311079Y-107761079D01*
X117251471Y-107833711D01*
X117207178Y-107916577D01*
X117179903Y-108006492D01*
X117170693Y-108100000D01*
X117170693Y-108700000D01*
X117179903Y-108793508D01*
X117192612Y-108835404D01*
X117175820Y-108840498D01*
X117065506Y-108899463D01*
X116968815Y-108978815D01*
X116889463Y-109075506D01*
X116830498Y-109185820D01*
X116794188Y-109305518D01*
X116781928Y-109430000D01*
X116785000Y-109464250D01*
X116943750Y-109623000D01*
X117588000Y-109623000D01*
X117588000Y-109603000D01*
X117842000Y-109603000D01*
X117842000Y-109623000D01*
X117862000Y-109623000D01*
X117862000Y-109877000D01*
X117842000Y-109877000D01*
X117842000Y-109897000D01*
X117588000Y-109897000D01*
X117588000Y-109877000D01*
X116943750Y-109877000D01*
X116785000Y-110035750D01*
X116781928Y-110070000D01*
X116794188Y-110194482D01*
X116830498Y-110314180D01*
X116889463Y-110424494D01*
X116910964Y-110450693D01*
X116867500Y-110450693D01*
X116745216Y-110462737D01*
X116627631Y-110498406D01*
X116519265Y-110556329D01*
X116424281Y-110634281D01*
X116346329Y-110729265D01*
X116346039Y-110729807D01*
X116335814Y-110732909D01*
X116239050Y-110784631D01*
X116154236Y-110854236D01*
X116136790Y-110875494D01*
X115950463Y-111061821D01*
X115899851Y-111000149D01*
X115794070Y-110913337D01*
X115744500Y-110886841D01*
X115744500Y-110448694D01*
X115770735Y-110434671D01*
X115865719Y-110356719D01*
X115943671Y-110261735D01*
X116001594Y-110153369D01*
X116037263Y-110035784D01*
X116049307Y-109913500D01*
X116049307Y-109618500D01*
X116039583Y-109519767D01*
X116100537Y-109445494D01*
X116159502Y-109335180D01*
X116195812Y-109215482D01*
X116208072Y-109091000D01*
X116205000Y-109081750D01*
X116046250Y-108923000D01*
X115377000Y-108923000D01*
X115377000Y-108943000D01*
X115123000Y-108943000D01*
X115123000Y-108923000D01*
X115103000Y-108923000D01*
X115103000Y-108669000D01*
X115123000Y-108669000D01*
X115123000Y-108276180D01*
X115144259Y-108244364D01*
X115199062Y-108112058D01*
X115216428Y-108024750D01*
X115377000Y-108024750D01*
X115377000Y-108669000D01*
X116046250Y-108669000D01*
X116205000Y-108510250D01*
X116208072Y-108501000D01*
X116195812Y-108376518D01*
X116159502Y-108256820D01*
X116100537Y-108146506D01*
X116021185Y-108049815D01*
X115924494Y-107970463D01*
X115814180Y-107911498D01*
X115694482Y-107875188D01*
X115570000Y-107862928D01*
X115535750Y-107866000D01*
X115377000Y-108024750D01*
X115216428Y-108024750D01*
X115227000Y-107971603D01*
X115227000Y-107828397D01*
X115199062Y-107687942D01*
X115144259Y-107555636D01*
X115064698Y-107436564D01*
X115006133Y-107377999D01*
X115021140Y-107302556D01*
X115021140Y-107159350D01*
X114993202Y-107018895D01*
X114974126Y-106972841D01*
X114989179Y-106977407D01*
X115110000Y-106989307D01*
X115390000Y-106989307D01*
X115510821Y-106977407D01*
X115626999Y-106942165D01*
X115734069Y-106884935D01*
X115827916Y-106807916D01*
X115904935Y-106714069D01*
X115962165Y-106606999D01*
X115997407Y-106490821D01*
X116009307Y-106370000D01*
X116009307Y-106153312D01*
X116128397Y-106177000D01*
X116271603Y-106177000D01*
X116412058Y-106149062D01*
X116544364Y-106094259D01*
X116663436Y-106014698D01*
X116764698Y-105913436D01*
X116785000Y-105883052D01*
X116785000Y-105977002D01*
G37*
G04 #@! TD.AperFunction*
D31*
X129577000Y-109323000D02*
X129597000Y-109323000D01*
X129597000Y-109577000D01*
X129577000Y-109577000D01*
X129577000Y-109597000D01*
X129323000Y-109597000D01*
X129323000Y-109577000D01*
X129303000Y-109577000D01*
X129303000Y-109323000D01*
X129323000Y-109323000D01*
X129323000Y-109303000D01*
X129577000Y-109303000D01*
X129577000Y-109323000D01*
G04 #@! TA.AperFunction,Conductor*
D32*
G36*
X129577000Y-109323000D02*
G01*
X129597000Y-109323000D01*
X129597000Y-109577000D01*
X129577000Y-109577000D01*
X129577000Y-109597000D01*
X129323000Y-109597000D01*
X129323000Y-109577000D01*
X129303000Y-109577000D01*
X129303000Y-109323000D01*
X129323000Y-109323000D01*
X129323000Y-109303000D01*
X129577000Y-109303000D01*
X129577000Y-109323000D01*
G37*
G04 #@! TD.AperFunction*
D31*
X122155493Y-109056790D02*
X122134236Y-109074236D01*
X122092339Y-109125288D01*
X122034265Y-109156329D01*
X121939281Y-109234281D01*
X121861329Y-109329265D01*
X121827000Y-109393490D01*
X121827000Y-109278397D01*
X121799062Y-109137942D01*
X121744259Y-109005636D01*
X121664698Y-108886564D01*
X121607441Y-108829307D01*
X122382976Y-108829307D01*
X122155493Y-109056790D01*
G04 #@! TA.AperFunction,Conductor*
D32*
G36*
X122155493Y-109056790D02*
G01*
X122134236Y-109074236D01*
X122092339Y-109125288D01*
X122034265Y-109156329D01*
X121939281Y-109234281D01*
X121861329Y-109329265D01*
X121827000Y-109393490D01*
X121827000Y-109278397D01*
X121799062Y-109137942D01*
X121744259Y-109005636D01*
X121664698Y-108886564D01*
X121607441Y-108829307D01*
X122382976Y-108829307D01*
X122155493Y-109056790D01*
G37*
G04 #@! TD.AperFunction*
D31*
X112127000Y-108913000D02*
X112147000Y-108913000D01*
X112147000Y-109167000D01*
X112127000Y-109167000D01*
X112127000Y-109187000D01*
X111873000Y-109187000D01*
X111873000Y-109167000D01*
X111853000Y-109167000D01*
X111853000Y-108913000D01*
X111873000Y-108913000D01*
X111873000Y-108893000D01*
X112127000Y-108893000D01*
X112127000Y-108913000D01*
G04 #@! TA.AperFunction,Conductor*
D32*
G36*
X112127000Y-108913000D02*
G01*
X112147000Y-108913000D01*
X112147000Y-109167000D01*
X112127000Y-109167000D01*
X112127000Y-109187000D01*
X111873000Y-109187000D01*
X111873000Y-109167000D01*
X111853000Y-109167000D01*
X111853000Y-108913000D01*
X111873000Y-108913000D01*
X111873000Y-108893000D01*
X112127000Y-108893000D01*
X112127000Y-108913000D01*
G37*
G04 #@! TD.AperFunction*
D31*
X113727000Y-108638000D02*
X113747000Y-108638000D01*
X113747000Y-108800284D01*
X113635284Y-108912000D01*
X113473000Y-108912000D01*
X113473000Y-108892000D01*
X113453000Y-108892000D01*
X113453000Y-108638000D01*
X113473000Y-108638000D01*
X113473000Y-108618000D01*
X113727000Y-108618000D01*
X113727000Y-108638000D01*
G04 #@! TA.AperFunction,Conductor*
D32*
G36*
X113727000Y-108638000D02*
G01*
X113747000Y-108638000D01*
X113747000Y-108800284D01*
X113635284Y-108912000D01*
X113473000Y-108912000D01*
X113473000Y-108892000D01*
X113453000Y-108892000D01*
X113453000Y-108638000D01*
X113473000Y-108638000D01*
X113473000Y-108618000D01*
X113727000Y-108618000D01*
X113727000Y-108638000D01*
G37*
G04 #@! TD.AperFunction*
D31*
X139357000Y-107373000D02*
X139377000Y-107373000D01*
X139377000Y-107627000D01*
X139357000Y-107627000D01*
X139357000Y-107647000D01*
X139103000Y-107647000D01*
X139103000Y-107627000D01*
X139083000Y-107627000D01*
X139083000Y-107373000D01*
X139103000Y-107373000D01*
X139103000Y-107353000D01*
X139357000Y-107353000D01*
X139357000Y-107373000D01*
G04 #@! TA.AperFunction,Conductor*
D32*
G36*
X139357000Y-107373000D02*
G01*
X139377000Y-107373000D01*
X139377000Y-107627000D01*
X139357000Y-107627000D01*
X139357000Y-107647000D01*
X139103000Y-107647000D01*
X139103000Y-107627000D01*
X139083000Y-107627000D01*
X139083000Y-107373000D01*
X139103000Y-107373000D01*
X139103000Y-107353000D01*
X139357000Y-107353000D01*
X139357000Y-107373000D01*
G37*
G04 #@! TD.AperFunction*
D31*
X137257000Y-107373000D02*
X137277000Y-107373000D01*
X137277000Y-107627000D01*
X137257000Y-107627000D01*
X137257000Y-107647000D01*
X137003000Y-107647000D01*
X137003000Y-107627000D01*
X136983000Y-107627000D01*
X136983000Y-107373000D01*
X137003000Y-107373000D01*
X137003000Y-107353000D01*
X137257000Y-107353000D01*
X137257000Y-107373000D01*
G04 #@! TA.AperFunction,Conductor*
D32*
G36*
X137257000Y-107373000D02*
G01*
X137277000Y-107373000D01*
X137277000Y-107627000D01*
X137257000Y-107627000D01*
X137257000Y-107647000D01*
X137003000Y-107647000D01*
X137003000Y-107627000D01*
X136983000Y-107627000D01*
X136983000Y-107373000D01*
X137003000Y-107373000D01*
X137003000Y-107353000D01*
X137257000Y-107353000D01*
X137257000Y-107373000D01*
G37*
G04 #@! TD.AperFunction*
D31*
X122827000Y-103373000D02*
X122847000Y-103373000D01*
X122847000Y-103627000D01*
X122827000Y-103627000D01*
X122827000Y-104644224D01*
X123029400Y-104767910D01*
X123130528Y-104737238D01*
X123363629Y-104629473D01*
X123571227Y-104478303D01*
X123618729Y-104426805D01*
X123626471Y-104441289D01*
X123686079Y-104513921D01*
X123758711Y-104573529D01*
X123841577Y-104617822D01*
X123931492Y-104645097D01*
X124025000Y-104654307D01*
X125375000Y-104654307D01*
X125468508Y-104645097D01*
X125558423Y-104617822D01*
X125641289Y-104573529D01*
X125713921Y-104513921D01*
X125773529Y-104441289D01*
X125817822Y-104358423D01*
X125839571Y-104286726D01*
X125912771Y-104308931D01*
X125994598Y-104316990D01*
X125994608Y-104316990D01*
X126021962Y-104319684D01*
X126049315Y-104316990D01*
X126929266Y-104316990D01*
X126947000Y-104334724D01*
X126947000Y-104447000D01*
X126927000Y-104447000D01*
X126927000Y-104467000D01*
X126673000Y-104467000D01*
X126673000Y-104447000D01*
X126013750Y-104447000D01*
X125855000Y-104605750D01*
X125864765Y-104727348D01*
X125901623Y-104846878D01*
X125961092Y-104956921D01*
X126021538Y-105029890D01*
X126013765Y-105108813D01*
X125554137Y-105568441D01*
X125450299Y-105611452D01*
X125323038Y-105696485D01*
X125214811Y-105804712D01*
X125202008Y-105823874D01*
X125163436Y-105785302D01*
X125044364Y-105705741D01*
X124912058Y-105650938D01*
X124771603Y-105623000D01*
X124628397Y-105623000D01*
X124487942Y-105650938D01*
X124355636Y-105705741D01*
X124236564Y-105785302D01*
X124135302Y-105886564D01*
X124055741Y-106005636D01*
X124019285Y-106093649D01*
X123956194Y-106106198D01*
X123849870Y-106150239D01*
X123848941Y-106140809D01*
X123817091Y-106035814D01*
X123765369Y-105939050D01*
X123695764Y-105854236D01*
X123674506Y-105836790D01*
X122713200Y-104875484D01*
X122695754Y-104854226D01*
X122610940Y-104784621D01*
X122514176Y-104732899D01*
X122456515Y-104715408D01*
X122573000Y-104644224D01*
X122573000Y-103627000D01*
X122553000Y-103627000D01*
X122553000Y-103373000D01*
X122573000Y-103373000D01*
X122573000Y-103353000D01*
X122827000Y-103353000D01*
X122827000Y-103373000D01*
G04 #@! TA.AperFunction,Conductor*
D32*
G36*
X122827000Y-103373000D02*
G01*
X122847000Y-103373000D01*
X122847000Y-103627000D01*
X122827000Y-103627000D01*
X122827000Y-104644224D01*
X123029400Y-104767910D01*
X123130528Y-104737238D01*
X123363629Y-104629473D01*
X123571227Y-104478303D01*
X123618729Y-104426805D01*
X123626471Y-104441289D01*
X123686079Y-104513921D01*
X123758711Y-104573529D01*
X123841577Y-104617822D01*
X123931492Y-104645097D01*
X124025000Y-104654307D01*
X125375000Y-104654307D01*
X125468508Y-104645097D01*
X125558423Y-104617822D01*
X125641289Y-104573529D01*
X125713921Y-104513921D01*
X125773529Y-104441289D01*
X125817822Y-104358423D01*
X125839571Y-104286726D01*
X125912771Y-104308931D01*
X125994598Y-104316990D01*
X125994608Y-104316990D01*
X126021962Y-104319684D01*
X126049315Y-104316990D01*
X126929266Y-104316990D01*
X126947000Y-104334724D01*
X126947000Y-104447000D01*
X126927000Y-104447000D01*
X126927000Y-104467000D01*
X126673000Y-104467000D01*
X126673000Y-104447000D01*
X126013750Y-104447000D01*
X125855000Y-104605750D01*
X125864765Y-104727348D01*
X125901623Y-104846878D01*
X125961092Y-104956921D01*
X126021538Y-105029890D01*
X126013765Y-105108813D01*
X125554137Y-105568441D01*
X125450299Y-105611452D01*
X125323038Y-105696485D01*
X125214811Y-105804712D01*
X125202008Y-105823874D01*
X125163436Y-105785302D01*
X125044364Y-105705741D01*
X124912058Y-105650938D01*
X124771603Y-105623000D01*
X124628397Y-105623000D01*
X124487942Y-105650938D01*
X124355636Y-105705741D01*
X124236564Y-105785302D01*
X124135302Y-105886564D01*
X124055741Y-106005636D01*
X124019285Y-106093649D01*
X123956194Y-106106198D01*
X123849870Y-106150239D01*
X123848941Y-106140809D01*
X123817091Y-106035814D01*
X123765369Y-105939050D01*
X123695764Y-105854236D01*
X123674506Y-105836790D01*
X122713200Y-104875484D01*
X122695754Y-104854226D01*
X122610940Y-104784621D01*
X122514176Y-104732899D01*
X122456515Y-104715408D01*
X122573000Y-104644224D01*
X122573000Y-103627000D01*
X122553000Y-103627000D01*
X122553000Y-103373000D01*
X122573000Y-103373000D01*
X122573000Y-103353000D01*
X122827000Y-103353000D01*
X122827000Y-103373000D01*
G37*
G04 #@! TD.AperFunction*
D31*
X117862000Y-105977000D02*
X117842000Y-105977000D01*
X117842000Y-105997000D01*
X117588000Y-105997000D01*
X117588000Y-105977000D01*
X117568000Y-105977000D01*
X117568000Y-105806990D01*
X117862000Y-105806990D01*
X117862000Y-105977000D01*
G04 #@! TA.AperFunction,Conductor*
D32*
G36*
X117862000Y-105977000D02*
G01*
X117842000Y-105977000D01*
X117842000Y-105997000D01*
X117588000Y-105997000D01*
X117588000Y-105977000D01*
X117568000Y-105977000D01*
X117568000Y-105806990D01*
X117862000Y-105806990D01*
X117862000Y-105977000D01*
G37*
G04 #@! TD.AperFunction*
D31*
X142355776Y-105373000D02*
X143373000Y-105373000D01*
X143373000Y-105353000D01*
X143627000Y-105353000D01*
X143627000Y-105373000D01*
X143647000Y-105373000D01*
X143647000Y-105627000D01*
X143627000Y-105627000D01*
X143627000Y-105647000D01*
X143373000Y-105647000D01*
X143373000Y-105627000D01*
X142355776Y-105627000D01*
X142250000Y-105800092D01*
X142144224Y-105627000D01*
X141127000Y-105627000D01*
X141127000Y-105647000D01*
X140873000Y-105647000D01*
X140873000Y-105627000D01*
X140853000Y-105627000D01*
X140853000Y-105373000D01*
X140873000Y-105373000D01*
X140873000Y-105353000D01*
X141127000Y-105353000D01*
X141127000Y-105373000D01*
X142144224Y-105373000D01*
X142250000Y-105199908D01*
X142355776Y-105373000D01*
G04 #@! TA.AperFunction,Conductor*
D32*
G36*
X142355776Y-105373000D02*
G01*
X143373000Y-105373000D01*
X143373000Y-105353000D01*
X143627000Y-105353000D01*
X143627000Y-105373000D01*
X143647000Y-105373000D01*
X143647000Y-105627000D01*
X143627000Y-105627000D01*
X143627000Y-105647000D01*
X143373000Y-105647000D01*
X143373000Y-105627000D01*
X142355776Y-105627000D01*
X142250000Y-105800092D01*
X142144224Y-105627000D01*
X141127000Y-105627000D01*
X141127000Y-105647000D01*
X140873000Y-105647000D01*
X140873000Y-105627000D01*
X140853000Y-105627000D01*
X140853000Y-105373000D01*
X140873000Y-105373000D01*
X140873000Y-105353000D01*
X141127000Y-105353000D01*
X141127000Y-105373000D01*
X142144224Y-105373000D01*
X142250000Y-105199908D01*
X142355776Y-105373000D01*
G37*
G04 #@! TD.AperFunction*
D31*
X139926471Y-102558711D02*
X139882178Y-102641577D01*
X139866642Y-102692795D01*
X139816289Y-102651471D01*
X139733423Y-102607178D01*
X139643508Y-102579903D01*
X139550000Y-102570693D01*
X138550000Y-102570693D01*
X138456492Y-102579903D01*
X138366577Y-102607178D01*
X138283711Y-102651471D01*
X138243365Y-102684583D01*
X138242783Y-102684194D01*
X138064980Y-102610546D01*
X137876226Y-102573000D01*
X137683774Y-102573000D01*
X137495020Y-102610546D01*
X137317217Y-102684194D01*
X137157199Y-102791115D01*
X137145000Y-102803314D01*
X137132801Y-102791115D01*
X136972783Y-102684194D01*
X136794980Y-102610546D01*
X136606226Y-102573000D01*
X136413774Y-102573000D01*
X136225020Y-102610546D01*
X136047217Y-102684194D01*
X135887199Y-102791115D01*
X135875000Y-102803314D01*
X135862801Y-102791115D01*
X135702783Y-102684194D01*
X135524980Y-102610546D01*
X135336226Y-102573000D01*
X135143774Y-102573000D01*
X134955020Y-102610546D01*
X134777217Y-102684194D01*
X134617199Y-102791115D01*
X134481115Y-102927199D01*
X134374194Y-103087217D01*
X134300546Y-103265020D01*
X134263000Y-103453774D01*
X134263000Y-103646226D01*
X134300546Y-103834980D01*
X134374194Y-104012783D01*
X134402357Y-104054931D01*
X134276643Y-104002859D01*
X134126528Y-103973000D01*
X133973472Y-103973000D01*
X133842178Y-103999115D01*
X133835235Y-103912652D01*
X133798377Y-103793122D01*
X133738908Y-103683079D01*
X133659113Y-103586753D01*
X133562059Y-103507844D01*
X133451476Y-103449386D01*
X133413766Y-103438135D01*
X133427000Y-103371603D01*
X133427000Y-103228397D01*
X133399062Y-103087942D01*
X133344259Y-102955636D01*
X133264698Y-102836564D01*
X133163436Y-102735302D01*
X133044364Y-102655741D01*
X132912058Y-102600938D01*
X132771603Y-102573000D01*
X132628397Y-102573000D01*
X132487942Y-102600938D01*
X132355636Y-102655741D01*
X132236564Y-102735302D01*
X132135302Y-102836564D01*
X132055741Y-102955636D01*
X132000938Y-103087942D01*
X131973000Y-103228397D01*
X131973000Y-103371603D01*
X132000938Y-103512058D01*
X132055741Y-103644364D01*
X132072449Y-103669369D01*
X132061092Y-103683079D01*
X132001623Y-103793122D01*
X131964765Y-103912652D01*
X131955000Y-104034250D01*
X132113750Y-104193000D01*
X132773000Y-104193000D01*
X132773000Y-104173000D01*
X133027000Y-104173000D01*
X133027000Y-104193000D01*
X133047000Y-104193000D01*
X133047000Y-104447000D01*
X133027000Y-104447000D01*
X133027000Y-104467000D01*
X132773000Y-104467000D01*
X132773000Y-104447000D01*
X132113750Y-104447000D01*
X131955000Y-104605750D01*
X131964765Y-104727348D01*
X132001623Y-104846878D01*
X132061092Y-104956921D01*
X132121538Y-105029890D01*
X132110693Y-105140000D01*
X132110693Y-105420000D01*
X132110989Y-105423001D01*
X131757016Y-105423001D01*
X131747141Y-105373357D01*
X131688569Y-105231952D01*
X131603536Y-105104691D01*
X131495309Y-104996464D01*
X131368048Y-104911431D01*
X131226643Y-104852859D01*
X131076528Y-104823000D01*
X130923472Y-104823000D01*
X130773357Y-104852859D01*
X130631952Y-104911431D01*
X130515100Y-104989509D01*
X130426643Y-104952869D01*
X130276528Y-104923010D01*
X130123472Y-104923010D01*
X129973357Y-104952869D01*
X129875903Y-104993236D01*
X129875903Y-104479308D01*
X129900000Y-104479308D01*
X129993508Y-104470098D01*
X130083423Y-104442823D01*
X130166289Y-104398530D01*
X130238922Y-104338922D01*
X130298530Y-104266289D01*
X130342823Y-104183423D01*
X130370098Y-104093508D01*
X130379308Y-104000000D01*
X130379308Y-102552000D01*
X139931979Y-102552000D01*
X139926471Y-102558711D01*
G04 #@! TA.AperFunction,Conductor*
D32*
G36*
X139926471Y-102558711D02*
G01*
X139882178Y-102641577D01*
X139866642Y-102692795D01*
X139816289Y-102651471D01*
X139733423Y-102607178D01*
X139643508Y-102579903D01*
X139550000Y-102570693D01*
X138550000Y-102570693D01*
X138456492Y-102579903D01*
X138366577Y-102607178D01*
X138283711Y-102651471D01*
X138243365Y-102684583D01*
X138242783Y-102684194D01*
X138064980Y-102610546D01*
X137876226Y-102573000D01*
X137683774Y-102573000D01*
X137495020Y-102610546D01*
X137317217Y-102684194D01*
X137157199Y-102791115D01*
X137145000Y-102803314D01*
X137132801Y-102791115D01*
X136972783Y-102684194D01*
X136794980Y-102610546D01*
X136606226Y-102573000D01*
X136413774Y-102573000D01*
X136225020Y-102610546D01*
X136047217Y-102684194D01*
X135887199Y-102791115D01*
X135875000Y-102803314D01*
X135862801Y-102791115D01*
X135702783Y-102684194D01*
X135524980Y-102610546D01*
X135336226Y-102573000D01*
X135143774Y-102573000D01*
X134955020Y-102610546D01*
X134777217Y-102684194D01*
X134617199Y-102791115D01*
X134481115Y-102927199D01*
X134374194Y-103087217D01*
X134300546Y-103265020D01*
X134263000Y-103453774D01*
X134263000Y-103646226D01*
X134300546Y-103834980D01*
X134374194Y-104012783D01*
X134402357Y-104054931D01*
X134276643Y-104002859D01*
X134126528Y-103973000D01*
X133973472Y-103973000D01*
X133842178Y-103999115D01*
X133835235Y-103912652D01*
X133798377Y-103793122D01*
X133738908Y-103683079D01*
X133659113Y-103586753D01*
X133562059Y-103507844D01*
X133451476Y-103449386D01*
X133413766Y-103438135D01*
X133427000Y-103371603D01*
X133427000Y-103228397D01*
X133399062Y-103087942D01*
X133344259Y-102955636D01*
X133264698Y-102836564D01*
X133163436Y-102735302D01*
X133044364Y-102655741D01*
X132912058Y-102600938D01*
X132771603Y-102573000D01*
X132628397Y-102573000D01*
X132487942Y-102600938D01*
X132355636Y-102655741D01*
X132236564Y-102735302D01*
X132135302Y-102836564D01*
X132055741Y-102955636D01*
X132000938Y-103087942D01*
X131973000Y-103228397D01*
X131973000Y-103371603D01*
X132000938Y-103512058D01*
X132055741Y-103644364D01*
X132072449Y-103669369D01*
X132061092Y-103683079D01*
X132001623Y-103793122D01*
X131964765Y-103912652D01*
X131955000Y-104034250D01*
X132113750Y-104193000D01*
X132773000Y-104193000D01*
X132773000Y-104173000D01*
X133027000Y-104173000D01*
X133027000Y-104193000D01*
X133047000Y-104193000D01*
X133047000Y-104447000D01*
X133027000Y-104447000D01*
X133027000Y-104467000D01*
X132773000Y-104467000D01*
X132773000Y-104447000D01*
X132113750Y-104447000D01*
X131955000Y-104605750D01*
X131964765Y-104727348D01*
X132001623Y-104846878D01*
X132061092Y-104956921D01*
X132121538Y-105029890D01*
X132110693Y-105140000D01*
X132110693Y-105420000D01*
X132110989Y-105423001D01*
X131757016Y-105423001D01*
X131747141Y-105373357D01*
X131688569Y-105231952D01*
X131603536Y-105104691D01*
X131495309Y-104996464D01*
X131368048Y-104911431D01*
X131226643Y-104852859D01*
X131076528Y-104823000D01*
X130923472Y-104823000D01*
X130773357Y-104852859D01*
X130631952Y-104911431D01*
X130515100Y-104989509D01*
X130426643Y-104952869D01*
X130276528Y-104923010D01*
X130123472Y-104923010D01*
X129973357Y-104952869D01*
X129875903Y-104993236D01*
X129875903Y-104479308D01*
X129900000Y-104479308D01*
X129993508Y-104470098D01*
X130083423Y-104442823D01*
X130166289Y-104398530D01*
X130238922Y-104338922D01*
X130298530Y-104266289D01*
X130342823Y-104183423D01*
X130370098Y-104093508D01*
X130379308Y-104000000D01*
X130379308Y-102552000D01*
X139931979Y-102552000D01*
X139926471Y-102558711D01*
G37*
G04 #@! TD.AperFunction*
M02*
