G04 #@! TF.GenerationSoftware,KiCad,Pcbnew,(6.0.4)*
G04 #@! TF.CreationDate,2022-06-20T11:49:59+10:00*
G04 #@! TF.ProjectId,microBoSL,6d696372-6f42-46f5-934c-2e6b69636164,0.3.0R*
G04 #@! TF.SameCoordinates,Original*
G04 #@! TF.FileFunction,Soldermask,Bot*
G04 #@! TF.FilePolarity,Negative*
%FSLAX46Y46*%
G04 Gerber Fmt 4.6, Leading zero omitted, Abs format (unit mm)*
G04 Created by KiCad (PCBNEW (6.0.4)) date 2022-06-20 11:49:59*
%MOMM*%
%LPD*%
G01*
G04 APERTURE LIST*
G04 Aperture macros list*
%AMRoundRect*
0 Rectangle with rounded corners*
0 $1 Rounding radius*
0 $2 $3 $4 $5 $6 $7 $8 $9 X,Y pos of 4 corners*
0 Add a 4 corners polygon primitive as box body*
4,1,4,$2,$3,$4,$5,$6,$7,$8,$9,$2,$3,0*
0 Add four circle primitives for the rounded corners*
1,1,$1+$1,$2,$3*
1,1,$1+$1,$4,$5*
1,1,$1+$1,$6,$7*
1,1,$1+$1,$8,$9*
0 Add four rect primitives between the rounded corners*
20,1,$1+$1,$2,$3,$4,$5,0*
20,1,$1+$1,$4,$5,$6,$7,0*
20,1,$1+$1,$6,$7,$8,$9,0*
20,1,$1+$1,$8,$9,$2,$3,0*%
%AMFreePoly0*
4,1,41,0.586777,0.930194,0.656366,0.874698,0.694986,0.794504,0.700000,0.750000,0.700000,-0.750000,0.680194,-0.836777,0.624698,-0.906366,0.544504,-0.944986,0.500000,-0.950000,0.000000,-0.950000,-0.023504,-0.944635,-0.083606,-0.943534,-0.139582,-0.934468,-0.274897,-0.892193,-0.326080,-0.867780,-0.444090,-0.789225,-0.486362,-0.751429,-0.577582,-0.642910,-0.607548,-0.594768,-0.664643,-0.465009,
-0.679893,-0.410393,-0.697476,-0.275933,-0.697084,-0.275882,-0.700000,-0.250000,-0.700000,0.250000,-0.697921,0.259109,-0.697582,0.286880,-0.675771,0.426957,-0.659192,0.481183,-0.598944,0.609508,-0.567811,0.656904,-0.473967,0.763162,-0.430783,0.799915,-0.310888,0.875563,-0.259125,0.898717,-0.122818,0.937674,-0.066635,0.945370,-0.042411,0.945222,0.000000,0.950000,0.500000,0.950000,
0.586777,0.930194,0.586777,0.930194,$1*%
%AMFreePoly1*
4,1,41,0.022678,0.944824,0.075125,0.944504,0.131210,0.936123,0.267031,0.895504,0.318507,0.871718,0.437469,0.794611,0.480202,0.757333,0.572740,0.649936,0.603290,0.602165,0.661967,0.473113,0.677883,0.418686,0.697980,0.278353,0.700000,0.250000,0.700000,-0.250000,0.699985,-0.252439,0.699836,-0.264655,0.697079,-0.295398,0.673559,-0.435199,0.656318,-0.489221,0.594506,-0.616800,
0.562797,-0.663810,0.467662,-0.768914,0.424032,-0.805137,0.303222,-0.879314,0.251181,-0.901834,0.114408,-0.939123,0.058135,-0.946132,0.037663,-0.945757,0.000000,-0.950000,-0.500000,-0.950000,-0.586777,-0.930194,-0.656366,-0.874698,-0.694986,-0.794504,-0.700000,-0.750000,-0.700000,0.750000,-0.680194,0.836777,-0.624698,0.906366,-0.544504,0.944986,-0.500000,0.950000,0.000000,0.950000,
0.022678,0.944824,0.022678,0.944824,$1*%
G04 Aperture macros list end*
%ADD10RoundRect,0.200000X0.850000X-0.850000X0.850000X0.850000X-0.850000X0.850000X-0.850000X-0.850000X0*%
%ADD11O,2.100000X2.100000*%
%ADD12RoundRect,0.200000X-0.850000X0.850000X-0.850000X-0.850000X0.850000X-0.850000X0.850000X0.850000X0*%
%ADD13RoundRect,0.200000X-0.850000X-0.850000X0.850000X-0.850000X0.850000X0.850000X-0.850000X0.850000X0*%
%ADD14O,1.500000X2.200000*%
%ADD15O,1.500000X2.600000*%
%ADD16RoundRect,0.200000X-0.500000X0.500000X-0.500000X-0.500000X0.500000X-0.500000X0.500000X0.500000X0*%
%ADD17O,1.400000X1.400000*%
%ADD18C,1.500000*%
%ADD19RoundRect,0.450000X0.250000X0.475000X-0.250000X0.475000X-0.250000X-0.475000X0.250000X-0.475000X0*%
%ADD20RoundRect,0.347500X-0.147500X-0.172500X0.147500X-0.172500X0.147500X0.172500X-0.147500X0.172500X0*%
%ADD21RoundRect,0.340000X-0.140000X-0.170000X0.140000X-0.170000X0.140000X0.170000X-0.140000X0.170000X0*%
%ADD22RoundRect,0.200000X0.350000X-0.225000X0.350000X0.225000X-0.350000X0.225000X-0.350000X-0.225000X0*%
%ADD23RoundRect,0.347500X0.147500X0.172500X-0.147500X0.172500X-0.147500X-0.172500X0.147500X-0.172500X0*%
%ADD24RoundRect,0.347500X-0.172500X0.147500X-0.172500X-0.147500X0.172500X-0.147500X0.172500X0.147500X0*%
%ADD25RoundRect,0.340000X-0.170000X0.140000X-0.170000X-0.140000X0.170000X-0.140000X0.170000X0.140000X0*%
%ADD26FreePoly0,0.000000*%
%ADD27FreePoly1,0.000000*%
%ADD28RoundRect,0.200000X0.725000X0.225000X-0.725000X0.225000X-0.725000X-0.225000X0.725000X-0.225000X0*%
%ADD29RoundRect,0.350000X-0.150000X0.825000X-0.150000X-0.825000X0.150000X-0.825000X0.150000X0.825000X0*%
%ADD30RoundRect,0.350000X0.150000X-0.512500X0.150000X0.512500X-0.150000X0.512500X-0.150000X-0.512500X0*%
%ADD31RoundRect,0.450001X0.462499X0.624999X-0.462499X0.624999X-0.462499X-0.624999X0.462499X-0.624999X0*%
%ADD32RoundRect,0.200000X0.225000X0.350000X-0.225000X0.350000X-0.225000X-0.350000X0.225000X-0.350000X0*%
%ADD33RoundRect,0.340000X0.170000X-0.140000X0.170000X0.140000X-0.170000X0.140000X-0.170000X-0.140000X0*%
%ADD34RoundRect,0.200000X0.300000X0.225000X-0.300000X0.225000X-0.300000X-0.225000X0.300000X-0.225000X0*%
G04 APERTURE END LIST*
D10*
X112980000Y-113390000D03*
D11*
X115520000Y-113390000D03*
X118060000Y-113390000D03*
X120600000Y-113390000D03*
D12*
X140920000Y-113390000D03*
D11*
X138380000Y-113390000D03*
X135840000Y-113390000D03*
X133300000Y-113390000D03*
D13*
X145000000Y-108275000D03*
D11*
X145000000Y-110815000D03*
X145000000Y-113355000D03*
D14*
X103300000Y-107600000D03*
D15*
X101150000Y-110400000D03*
D14*
X103300000Y-113200000D03*
D13*
X150400000Y-108275000D03*
D11*
X150400000Y-110815000D03*
X150400000Y-113355000D03*
D16*
X119955000Y-101650000D03*
D17*
X118685000Y-101650000D03*
X117415000Y-101650000D03*
X116145000Y-101650000D03*
D13*
X147700000Y-108275000D03*
D11*
X147700000Y-110815000D03*
X147700000Y-113355000D03*
D12*
X104440000Y-101900000D03*
D11*
X101900000Y-101900000D03*
D18*
X112210000Y-102740000D03*
X109210000Y-102740000D03*
D10*
X150340000Y-103605000D03*
D12*
X125485000Y-101840000D03*
D11*
X122945000Y-101840000D03*
D19*
X113160000Y-109040000D03*
X111260000Y-109040000D03*
D20*
X129725000Y-108640000D03*
X130695000Y-108640000D03*
D21*
X105470000Y-112670000D03*
X106430000Y-112670000D03*
X114550000Y-103610000D03*
X115510000Y-103610000D03*
D22*
X107210000Y-107990000D03*
X107210000Y-106690000D03*
X109210000Y-107340000D03*
D23*
X115495000Y-105140000D03*
X114525000Y-105140000D03*
D24*
X105360000Y-108755000D03*
X105360000Y-109725000D03*
D25*
X105350000Y-106580000D03*
X105350000Y-107540000D03*
D20*
X105465000Y-111520000D03*
X106435000Y-111520000D03*
D26*
X113160000Y-101140000D03*
D27*
X114460000Y-101140000D03*
D28*
X122960000Y-105390000D03*
X122960000Y-106040000D03*
X122960000Y-106690000D03*
X122960000Y-107340000D03*
X122960000Y-107990000D03*
X122960000Y-108640000D03*
X122960000Y-109290000D03*
X117060000Y-109290000D03*
X117060000Y-108640000D03*
X117060000Y-107990000D03*
X117060000Y-107340000D03*
X117060000Y-106690000D03*
X117060000Y-106040000D03*
X117060000Y-105390000D03*
D29*
X128270000Y-101465000D03*
X129540000Y-101465000D03*
X130810000Y-101465000D03*
X132080000Y-101465000D03*
X132080000Y-106415000D03*
X130810000Y-106415000D03*
X129540000Y-106415000D03*
X128270000Y-106415000D03*
D23*
X107495000Y-104840000D03*
X106525000Y-104840000D03*
D30*
X113160000Y-106977500D03*
X112210000Y-106977500D03*
X111260000Y-106977500D03*
X111260000Y-104702500D03*
X113160000Y-104702500D03*
D31*
X104197500Y-104840000D03*
X101222500Y-104840000D03*
D32*
X107760000Y-103440000D03*
X106460000Y-103440000D03*
X107110000Y-101440000D03*
D25*
X127300000Y-112820000D03*
X127300000Y-113780000D03*
D33*
X128500000Y-113780000D03*
X128500000Y-112820000D03*
D34*
X109160000Y-109640000D03*
X107060000Y-109640000D03*
D25*
X126100000Y-112820000D03*
X126100000Y-113780000D03*
M02*
